<?xml version="1.0" encoding="utf-8"?>
<!-- Generator: Adobe Illustrator 17.0.0, SVG Export Plug-In . SVG Version: 6.00 Build 0)  -->
<!DOCTYPE svg PUBLIC "-//W3C//DTD SVG 1.1//EN" "http://www.w3.org/Graphics/SVG/1.1/DTD/svg11.dtd">
<svg version="1.1" id="图层_1" xmlns="http://www.w3.org/2000/svg" xmlns:xlink="http://www.w3.org/1999/xlink" x="0px" y="0px"
	 width="110px" height="110px" viewBox="-21.806 -24.806 110 110" enable-background="new -21.806 -24.806 110 110"
	 xml:space="preserve">
<g>
	<g opacity="0.1">
		<circle fill="#231815" cx="29.224" cy="33.205" r="42.011"/>
		<circle fill="none" stroke="#231815" stroke-width="4" stroke-miterlimit="10" cx="29.224" cy="33.205" r="42.011"/>
	</g>
	<g>
		<circle fill="#FFFFFF" cx="34.224" cy="31.205" r="42.011"/>
		<circle fill="none" stroke="#382952" stroke-width="4" stroke-miterlimit="10" cx="34.224" cy="31.205" r="42.011"/>
	</g>
</g>
<g>
	<g opacity="0.1">
		<circle fill="#231815" cx="29.134" cy="33.205" r="28.535"/>
		
			<circle fill="none" stroke="#231815" stroke-width="2" stroke-miterlimit="10" stroke-dasharray="5.9747,5.9747" cx="29.134" cy="33.205" r="28.535"/>
	</g>
	<g>
		<circle fill="#B3B5D5" cx="34.134" cy="31.205" r="28.535"/>
		
			<circle fill="none" stroke="#382952" stroke-width="2" stroke-miterlimit="10" stroke-dasharray="5.9747,5.9747" cx="34.134" cy="31.205" r="28.535"/>
	</g>
</g>
<g>
	<rect x="16.224" y="12.74" fill="none" width="36" height="47"/>
	<path fill="#352650" d="M41.854,35.837c-0.094,2.098-0.932,3.873-2.514,5.326c-1.594,1.453-3.492,2.18-5.695,2.18
		c-1.91,0-3.622-0.41-5.133-1.23c-1.816-0.984-2.971-2.414-3.463-4.289c-0.141-0.551-0.07-1.072,0.211-1.564
		c0.293-0.492,0.715-0.809,1.266-0.949s1.072-0.07,1.564,0.211c0.492,0.293,0.809,0.715,0.949,1.266
		c0.211,0.785,0.785,1.4,1.723,1.846c0.844,0.387,1.805,0.58,2.883,0.58c1.102,0,2.045-0.346,2.83-1.037
		c0.797-0.68,1.219-1.523,1.266-2.531c0.023-0.609-0.193-1.154-0.65-1.635c-0.727-0.773-1.945-1.172-3.656-1.195h-0.018
		c-0.047,0-0.059,0-0.035,0c-0.012,0-0.023,0-0.035,0c-2.872-0.047-5.069-0.873-6.592-2.478c-1.254-1.336-1.84-2.889-1.758-4.658
		c0.094-2.109,0.932-3.891,2.514-5.344s3.48-2.18,5.696-2.18c1.91,0,3.621,0.41,5.133,1.23c1.816,0.984,2.971,2.414,3.463,4.289
		c0.141,0.551,0.064,1.072-0.229,1.564c-0.281,0.492-0.697,0.809-1.248,0.949s-1.072,0.07-1.564-0.211
		c-0.492-0.293-0.809-0.715-0.949-1.266c-0.211-0.785-0.791-1.4-1.74-1.846c-0.832-0.387-1.787-0.58-2.865-0.58
		c-1.102,0-2.051,0.346-2.848,1.037c-0.785,0.691-1.201,1.535-1.248,2.531c-0.023,0.609,0.193,1.16,0.65,1.652
		c0.727,0.762,1.946,1.154,3.657,1.178h0.088c2.871,0.047,5.068,0.879,6.592,2.496C41.35,32.503,41.936,34.056,41.854,35.837z"/>
</g>
</svg>
