<?xml version="1.0" encoding="utf-8"?>
<!-- Generator: Adobe Illustrator 17.0.0, SVG Export Plug-In . SVG Version: 6.00 Build 0)  -->
<!DOCTYPE svg PUBLIC "-//W3C//DTD SVG 1.1//EN" "http://www.w3.org/Graphics/SVG/1.1/DTD/svg11.dtd">
<svg version="1.1" id="图层_1" xmlns="http://www.w3.org/2000/svg" xmlns:xlink="http://www.w3.org/1999/xlink" x="0px" y="0px"
	 width="110px" height="110px" viewBox="-21.806 -24.806 110 110" enable-background="new -21.806 -24.806 110 110"
	 xml:space="preserve">
<rect x="1.788" y="-14.282" fill="#FFFFFF" stroke="#312F74" stroke-width="4" stroke-miterlimit="10" width="68.46" height="71.677"/>
<g>
	<g opacity="0.1">
		<rect x="-12.506" y="-2.034" fill="#231815" width="68.46" height="71.677"/>
		
			<rect x="-12.506" y="-2.034" fill="none" stroke="#231815" stroke-width="4" stroke-miterlimit="10" width="68.46" height="71.677"/>
	</g>
	<g>
		<rect x="-7.506" y="-4.034" fill="#FFFFFF" width="68.46" height="71.677"/>
		
			<rect x="-7.506" y="-4.034" fill="none" stroke="#312F74" stroke-width="4" stroke-miterlimit="10" width="68.46" height="71.677"/>
	</g>
</g>
<rect x="19.908" y="22.556" fill="#DBDCDC" width="31.34" height="7.032"/>
<rect x="2.201" y="37.688" fill="#DBDCDC" width="49.047" height="7.032"/>
<rect x="2.201" y="51.793" fill="#DBDCDC" width="24.524" height="7.032"/>
<g>
	<g opacity="0.1">
		<circle fill="#231815" cx="55.784" cy="62.643" r="16.99"/>
		<circle fill="none" stroke="#231815" stroke-width="4" stroke-miterlimit="10" cx="55.784" cy="62.643" r="16.99"/>
	</g>
	<g>
		<circle fill="#B3B5D5" cx="60.784" cy="60.643" r="16.99"/>
		<circle fill="none" stroke="#312F74" stroke-width="4" stroke-miterlimit="10" cx="60.784" cy="60.643" r="16.99"/>
	</g>
</g>
<line fill="none" stroke="#312F74" stroke-width="5" stroke-miterlimit="10" x1="-7.506" y1="10.703" x2="60.955" y2="10.703"/>
<g>
	<rect x="0.224" y="7.188" fill="none" width="57" height="61"/>
	<path fill="#2E2D6E" d="M13.162,24.977c0,0.035,0,0.076,0,0.123s0,0.076,0,0.088s0,0.041,0,0.088c0,0.059,0,0.1,0,0.123
		c0,0.012-0.006,0.035-0.018,0.07c0,0.059-0.006,0.1-0.018,0.123l-0.018,0.07c-0.012,0.07-0.018,0.111-0.018,0.123
		c-0.012,0-0.023,0.029-0.035,0.088c-0.012,0.047-0.023,0.082-0.035,0.105s-0.029,0.053-0.053,0.088
		c-0.023,0.047-0.035,0.076-0.035,0.088c-0.012,0.035-0.035,0.076-0.07,0.123c-0.047,0.059-0.059,0.07-0.035,0.035v0.018
		c-0.047,0.07-0.094,0.135-0.141,0.193l-0.035,0.035c-0.047,0.047-0.088,0.094-0.123,0.141c-0.023,0.012-0.047,0.029-0.07,0.053
		c-0.035,0.035-0.076,0.064-0.123,0.088c-0.035,0.035-0.059,0.053-0.07,0.053l-0.035,0.035l-7.313,4.764
		c-0.34,0.223-0.715,0.334-1.125,0.334c-0.75,0-1.33-0.311-1.74-0.932c-0.305-0.48-0.398-1.002-0.281-1.564
		c0.117-0.551,0.416-0.984,0.896-1.301l4.658-3.041l-4.658-3.041c-0.48-0.305-0.779-0.738-0.896-1.301s-0.023-1.084,0.281-1.564
		c0.316-0.469,0.756-0.762,1.318-0.879c0.551-0.117,1.066-0.023,1.547,0.281l7.313,4.781h0.018c0.035,0.023,0.076,0.053,0.123,0.088
		l0.018,0.018l0.018,0.018c0.023,0.012,0.059,0.041,0.105,0.088s0.064,0.064,0.053,0.053c-0.012-0.023,0.006-0.006,0.053,0.053
		c0.047,0.047,0.076,0.082,0.088,0.105l0.018,0.018l0.018,0.018c0.035,0.047,0.064,0.088,0.088,0.123
		c0.012,0.012,0.012,0.018,0,0.018c-0.023-0.035-0.012-0.023,0.035,0.035c0.035,0.059,0.059,0.1,0.07,0.123
		c0,0.012,0.012,0.041,0.035,0.088s0.041,0.082,0.053,0.105c0.012,0.012,0.023,0.047,0.035,0.105l0.035,0.07
		c0,0.023,0.006,0.064,0.018,0.123l0.018,0.07c0.012,0.023,0.018,0.064,0.018,0.123c0.012,0.035,0.018,0.053,0.018,0.053
		S13.162,24.966,13.162,24.977z"/>
</g>
</svg>
