<?xml version="1.0" encoding="utf-8"?>
<!-- Generator: Adobe Illustrator 17.0.0, SVG Export Plug-In . SVG Version: 6.00 Build 0)  -->
<!DOCTYPE svg PUBLIC "-//W3C//DTD SVG 1.1//EN" "http://www.w3.org/Graphics/SVG/1.1/DTD/svg11.dtd">
<svg version="1.1" id="图层_1" xmlns="http://www.w3.org/2000/svg" xmlns:xlink="http://www.w3.org/1999/xlink" x="0px" y="0px"
	 width="110px" height="110px" viewBox="-21.806 -24.806 110 110" enable-background="new -21.806 -24.806 110 110"
	 xml:space="preserve">
<g>
	<g opacity="0.1">
		<circle fill="#231815" cx="33.136" cy="36.512" r="39.511"/>
		<circle fill="none" stroke="#231815" stroke-width="4" stroke-miterlimit="10" cx="33.136" cy="36.512" r="39.511"/>
	</g>
	<g>
		<circle fill="#B6B8DA" cx="38.136" cy="34.512" r="39.511"/>
		<circle fill="none" stroke="#382952" stroke-width="4" stroke-miterlimit="10" cx="38.136" cy="34.512" r="39.511"/>
	</g>
</g>
<path fill="#FFFFFF" stroke="#382952" stroke-width="4" stroke-miterlimit="10" d="M16.349,43.39
	c2.053-0.691,4.149-1.254,6.205-1.938c0.674-0.224,1.111-0.141,1.612,0.371c2.214,2.265,4.456,4.502,6.718,6.72
	c0.473,0.464,0.587,0.875,0.374,1.511c-0.568,1.694-0.905,3.483-1.627,5.103c-0.853,1.913-0.366,3.207,1.188,4.414
	c0.684,0.531,1.198,0.623,1.936,0.186c3.343-1.98,6.725-3.895,10.046-5.911c0.456-0.277,0.877-0.974,0.92-1.508
	c0.243-3.041,0.382-6.091,0.52-9.139c0.039-0.855,0.333-1.464,1.017-2.031c1.496-1.241,2.922-2.57,4.33-3.912
	c6.064-5.776,9.576-12.729,9.716-21.221c0.044-2.682,0.041-2.683-2.648-2.649c-6.291,0.071-12.114,1.651-16.912,5.857
	c-2.916,2.556-5.553,5.435-8.248,8.233c-0.579,0.601-1.131,0.921-1.943,0.96c-3.01,0.143-6.017,0.362-9.028,0.465
	c-0.94,0.032-1.427,0.43-1.863,1.197c-1.656,2.914-3.371,5.795-5.055,8.694c-1.45,2.497-1.476,1.973,0.511,4.066
	C14.796,43.57,15.435,43.698,16.349,43.39z"/>
<g>
	<g opacity="0.1">
		<circle fill="#231815" cx="-1.218" cy="7.556" r="16.933"/>
		<path fill="#231815" d="M2.041-1.407V10c0,0.238-0.076,0.433-0.229,0.586c-0.153,0.153-0.348,0.229-0.586,0.229h-8.148
			c-0.238,0-0.433-0.076-0.586-0.229C-7.66,10.433-7.737,10.238-7.737,10v-1.63c0-0.238,0.076-0.433,0.229-0.586
			c0.153-0.153,0.348-0.229,0.586-0.229h5.704v-8.963c0-0.238,0.076-0.433,0.229-0.586s0.348-0.229,0.586-0.229h1.63
			c0.238,0,0.433,0.076,0.586,0.229S2.041-1.645,2.041-1.407z M12.634,7.556c0-2.512-0.62-4.83-1.859-6.951s-2.92-3.803-5.042-5.042
			S1.294-6.296-1.218-6.296s-4.83,0.62-6.951,1.859s-3.803,2.92-5.042,5.042s-1.859,4.439-1.859,6.951s0.62,4.83,1.859,6.951
			s2.92,3.803,5.042,5.042s4.439,1.859,6.951,1.859s4.83-0.62,6.951-1.859s3.803-2.92,5.042-5.042S12.634,10.068,12.634,7.556z
			 M18.338,7.556c0,3.548-0.874,6.82-2.623,9.816s-4.121,5.369-7.117,7.117s-6.268,2.623-9.816,2.623s-6.82-0.874-9.816-2.623
			s-5.369-4.121-7.117-7.117s-2.623-6.268-2.623-9.816s0.874-6.82,2.623-9.816s4.121-5.369,7.117-7.117
			C-8.038-11.126-4.766-12-1.218-12s6.82,0.874,9.816,2.623c2.996,1.748,5.369,4.121,7.117,7.117S18.338,4.008,18.338,7.556z"/>
	</g>
	<g>
		<g>
			<circle fill="#FFFFFF" cx="3.782" cy="5.556" r="16.933"/>
			<g>
				<path fill="#352650" d="M7.041-3.407V8c0,0.238-0.076,0.433-0.229,0.586C6.659,8.739,6.464,8.815,6.226,8.815h-8.148
					c-0.238,0-0.433-0.076-0.586-0.229C-2.66,8.433-2.737,8.238-2.737,8v-1.63c0-0.238,0.076-0.433,0.229-0.586
					c0.153-0.153,0.348-0.229,0.586-0.229h5.704v-8.963c0-0.238,0.076-0.433,0.229-0.586c0.153-0.153,0.348-0.229,0.586-0.229h1.63
					c0.238,0,0.433,0.076,0.586,0.229C6.965-3.84,7.041-3.645,7.041-3.407z M17.634,5.556c0-2.512-0.62-4.83-1.859-6.951
					s-2.92-3.803-5.042-5.042S6.294-8.296,3.782-8.296s-4.83,0.62-6.951,1.859s-3.803,2.92-5.042,5.042s-1.859,4.439-1.859,6.951
					s0.62,4.83,1.859,6.951s2.92,3.803,5.042,5.042s4.439,1.859,6.951,1.859s4.83-0.62,6.951-1.859s3.803-2.92,5.042-5.042
					S17.634,8.068,17.634,5.556z M23.338,5.556c0,3.548-0.874,6.82-2.623,9.816c-1.748,2.996-4.121,5.369-7.117,7.117
					s-6.268,2.623-9.816,2.623s-6.82-0.874-9.816-2.623s-5.369-4.121-7.117-7.117s-2.623-6.268-2.623-9.816s0.874-6.82,2.623-9.816
					s4.121-5.369,7.117-7.117C-3.038-13.126,0.234-14,3.782-14s6.82,0.874,9.816,2.623c2.996,1.748,5.369,4.121,7.117,7.117
					C22.463-1.264,23.338,2.008,23.338,5.556z"/>
			</g>
		</g>
	</g>
</g>
</svg>
