<?xml version="1.0" encoding="utf-8"?>
<!-- Generator: Adobe Illustrator 21.1.0, SVG Export Plug-In . SVG Version: 6.00 Build 0)  -->
<svg version="1.1" id="图层_1" xmlns="http://www.w3.org/2000/svg" xmlns:xlink="http://www.w3.org/1999/xlink" x="0px" y="0px"
	 viewBox="0 0 110 110" style="enable-background:new 0 0 110 110;" xml:space="preserve">
<style type="text/css">
	.st0{opacity:0.1;}
	.st1{fill:#231815;stroke:#231815;stroke-width:5;stroke-miterlimit:10;}
	.st2{fill:#231815;stroke:#231815;stroke-width:3;stroke-miterlimit:10;}
	.st3{fill:none;stroke:#231815;stroke-width:5;stroke-miterlimit:10;}
	.st4{fill:#F4F4F4;stroke:#2B2C69;stroke-width:5;stroke-miterlimit:10;}
	.st5{fill:#2B2C69;stroke:#2B2C69;stroke-width:3;stroke-miterlimit:10;}
	.st6{fill:none;stroke:#2B2C69;stroke-width:5;stroke-miterlimit:10;}
	.st7{fill-rule:evenodd;clip-rule:evenodd;fill:#362850;}
</style>
<g>
	<g>
		<g class="st0">
			<path class="st1" d="M87,35.2c1.9,1,1.9,2.5,0,3.5L54.3,55.1c-1.9,1-5,1-6.9,0L14.7,38.7c-1.9-1-1.9-2.5,0-3.5l32.7-16.3
				c1.9-1,5-1,6.9,0L87,35.2z"/>
			<path class="st2" d="M87.6,77.9c0,0.1-0.2,0.3-0.7,0.6L54.2,94.8c-1.5,0.7-4.3,0.7-5.8,0L15.7,78.5C15.2,78.2,15,78,15,77.9
				c0,0,0,0,0,0h-2.6v0c0,0.7,0.3,1.9,2.1,2.9l32.7,16.3c1.1,0.5,2.5,0.9,4,0.9s2.9-0.3,4-0.9L88,80.8c1.9-0.9,2.1-2.2,2.1-2.9v0
				H87.6z"/>
			<line class="st3" x1="13.3" y1="78.8" x2="13.3" y2="37.8"/>
			<line class="st3" x1="88.4" y1="78" x2="88.4" y2="37"/>
			<line class="st3" x1="50.8" y1="55.8" x2="50.8" y2="98"/>
		</g>
		<g>
			<g>
				<path class="st4" d="M92,33.2c1.9,1,1.9,2.5,0,3.5L59.3,53.1c-1.9,1-5,1-6.9,0L19.7,36.7c-1.9-1-1.9-2.5,0-3.5l32.7-16.3
					c1.9-1,5-1,6.9,0L92,33.2z"/>
				<path class="st5" d="M92.6,75.9c0,0.1-0.2,0.3-0.7,0.6L59.2,92.8c-1.5,0.7-4.3,0.7-5.8,0L20.7,76.5C20.2,76.2,20,76,20,75.9
					c0,0,0,0,0,0h-2.6v0c0,0.7,0.3,1.9,2.1,2.9l32.7,16.3c1.1,0.5,2.5,0.9,4,0.9s2.9-0.3,4-0.9L93,78.8c1.9-0.9,2.1-2.2,2.1-2.9v0
					H92.6z"/>
				<line class="st6" x1="18.3" y1="76.8" x2="18.3" y2="35.8"/>
				<line class="st6" x1="93.4" y1="76" x2="93.4" y2="35"/>
				<line class="st6" x1="55.8" y1="53.8" x2="55.8" y2="96"/>
			</g>
		</g>
	</g>
	<path class="st7" d="M71.2,31.5c-0.7-0.4-2.2-0.6-3.4-0.4c-0.2-1.1-0.8-2.1-1.9-3l-0.7-0.4l-0.4,0.7c-0.6,0.8-0.8,2-0.7,3.1
		c0,0.4,0.2,1.1,0.6,1.7c-0.4,0.2-1.2,0.5-2.3,0.5H42.1l0,0.2c-0.2,1.1-0.2,4.6,2.1,7.3c1.7,2,4.3,3.1,7.7,3.1
		c7.3,0,12.7-3.4,15.3-9.5c1,0,3.1,0,4.2-2.1c0,0,0.1-0.2,0.3-0.6l0.1-0.2L71.2,31.5z M55.2,26.4h3.1v-2.8h-3.1V26.4z M55.2,29.8
		h3.1V27h-3.1V29.8z M51.6,29.8h3.1V27h-3.1V29.8z M48,29.8H51V27H48V29.8z M44.3,33.1h3.1v-2.8h-3.1V33.1z M48,33.1H51v-2.8H48
		V33.1z M51.6,33.1h3.1v-2.8h-3.1V33.1z M55.2,33.1h3.1v-2.8h-3.1V33.1z M58.9,33.1h3.1v-2.8h-3.1V33.1z"/>
</g>
</svg>
