<?xml version="1.0" encoding="utf-8"?>
<!-- Generator: Adobe Illustrator 17.0.0, SVG Export Plug-In . SVG Version: 6.00 Build 0)  -->
<!DOCTYPE svg PUBLIC "-//W3C//DTD SVG 1.1//EN" "http://www.w3.org/Graphics/SVG/1.1/DTD/svg11.dtd">
<svg version="1.1" id="图层_1" xmlns="http://www.w3.org/2000/svg" xmlns:xlink="http://www.w3.org/1999/xlink" x="0px" y="0px"
	 width="110px" height="110px" viewBox="-21.806 -24.806 110 110" enable-background="new -21.806 -24.806 110 110"
	 xml:space="preserve">
<g>
	<g opacity="0.1">
		<path fill="#231815" d="M65.059,67.943c0,5.302-4.298,9.6-9.6,9.6H2.99c-5.302,0-9.6-4.298-9.6-9.6V-1.334
			c0-5.302,4.298-9.6,9.6-9.6h52.469c5.302,0,9.6,4.298,9.6,9.6V67.943z"/>
		<path fill="none" stroke="#231815" stroke-width="4" stroke-miterlimit="10" d="M65.059,67.943c0,5.302-4.298,9.6-9.6,9.6H2.99
			c-5.302,0-9.6-4.298-9.6-9.6V-1.334c0-5.302,4.298-9.6,9.6-9.6h52.469c5.302,0,9.6,4.298,9.6,9.6V67.943z"/>
	</g>
	<g>
		<path fill="#FFFFFF" d="M70.059,65.943c0,5.302-4.298,9.6-9.6,9.6H7.99c-5.302,0-9.6-4.298-9.6-9.6V-3.334
			c0-5.302,4.298-9.6,9.6-9.6h52.469c5.302,0,9.6,4.298,9.6,9.6V65.943z"/>
		<path fill="none" stroke="#352650" stroke-width="4" stroke-miterlimit="10" d="M70.059,65.943c0,5.302-4.298,9.6-9.6,9.6H7.99
			c-5.302,0-9.6-4.298-9.6-9.6V-3.334c0-5.302,4.298-9.6,9.6-9.6h52.469c5.302,0,9.6,4.298,9.6,9.6V65.943z"/>
	</g>
</g>
<g>
	<g opacity="0.1">
		<circle fill="#231815" cx="13.019" cy="11.233" r="5.228"/>
		<circle fill="none" stroke="#231815" stroke-width="4" stroke-miterlimit="10" cx="13.019" cy="11.233" r="5.228"/>
	</g>
	<g>
		<circle fill="#B0B3D0" cx="18.019" cy="9.233" r="5.228"/>
		<circle fill="none" stroke="#352650" stroke-width="4" stroke-miterlimit="10" cx="18.019" cy="9.233" r="5.228"/>
	</g>
</g>
<g>
	<g opacity="0.1">
		<circle fill="#231815" cx="43.426" cy="11.233" r="5.228"/>
		<circle fill="none" stroke="#231815" stroke-width="4" stroke-miterlimit="10" cx="43.426" cy="11.233" r="5.228"/>
	</g>
	<g>
		<circle fill="#B0B3D0" cx="48.426" cy="9.233" r="5.228"/>
		<circle fill="none" stroke="#352650" stroke-width="4" stroke-miterlimit="10" cx="48.426" cy="9.233" r="5.228"/>
	</g>
</g>
<rect x="9.701" y="29.273" fill="#DBDCDC" width="49.047" height="7.032"/>
<rect x="9.701" y="43.226" fill="#DBDCDC" width="49.047" height="7.032"/>
<rect x="9.701" y="57.226" fill="#DBDCDC" width="49.047" height="7.032"/>
</svg>
