<svg xmlns="http://www.w3.org/2000/svg" xmlns:xlink="http://www.w3.org/1999/xlink" viewBox="0 0 31.80637 16.90652"><defs><style>.cls-1{fill:none;}.cls-2{opacity:0.1;}.cls-3,.cls-5{fill:#231815;}.cls-3{stroke:#231815;}.cls-3,.cls-6{stroke-miterlimit:10;stroke-width:2px;}.cls-4{clip-path:url(#clip-path);}.cls-6{fill:#f7f7f7;stroke:#303131;}.cls-7{clip-path:url(#clip-path-2);}.cls-8{fill:#313131;}</style><clipPath id="clip-path"><rect class="cls-1" x="9.10516" y="6.01956" width="11.93383" height="6.52963"/></clipPath><clipPath id="clip-path-2"><rect class="cls-1" x="10.10516" y="5.01956" width="11.93383" height="6.52963"/></clipPath></defs><title>资源 2</title><g id="图层_2" data-name="图层 2"><g id="图层_1-2" data-name="图层 1"><g class="cls-2"><rect class="cls-3" x="1" y="2" width="28.80637" height="13.90652" rx="6.95325" ry="6.95325"/><g class="cls-4"><path class="cls-5" d="M21.02075,6.61189a.68155.68155,0,0,0-1.34913,0h-.007V8.3647h-.00976a.48729.48729,0,0,1-.57451.57451V8.949H12.65315V6.95605a.25068.25068,0,0,0-.41214-.1918L9.20538,9.32048a.28674.28674,0,0,0-.00655.433l3.03635,2.71669a.25071.25071,0,0,0,.41791-.18687v-1.971h7.17267v-.00047l.03331.00047a1.16855,1.16855,0,0,0,1.16857-1.16857V6.61189Zm0,0"/></g></g><rect class="cls-6" x="2" y="1" width="28.80637" height="13.90652" rx="6.95325" ry="6.95325"/><g class="cls-7"><path class="cls-8" d="M22.02075,5.61189a.68155.68155,0,0,0-1.34913,0h-.007V7.3647h-.00976a.48729.48729,0,0,1-.57451.57451V7.949H13.65315V5.95605a.25068.25068,0,0,0-.41214-.1918L10.20538,8.32048a.28674.28674,0,0,0-.00655.433l3.03635,2.71669a.25071.25071,0,0,0,.41791-.18687v-1.971h7.17267V9.31182l.03331.00047a1.16855,1.16855,0,0,0,1.16857-1.16857V5.61189Zm0,0"/></g></g></g></svg>