<?xml version="1.0" encoding="utf-8"?>
<!-- Generator: Adobe Illustrator 17.0.0, SVG Export Plug-In . SVG Version: 6.00 Build 0)  -->
<!DOCTYPE svg PUBLIC "-//W3C//DTD SVG 1.1//EN" "http://www.w3.org/Graphics/SVG/1.1/DTD/svg11.dtd">
<svg version="1.1" id="图层_1" xmlns="http://www.w3.org/2000/svg" xmlns:xlink="http://www.w3.org/1999/xlink" x="0px" y="0px"
	 width="110px" height="110px" viewBox="0 0 110 110" enable-background="new 0 0 110 110" xml:space="preserve">
<g>
	<g opacity="0.1">
		<path fill="#231815" stroke="#231815" stroke-width="4" stroke-miterlimit="10" d="M87.84,85.923c0,5.106-4.14,9.246-9.246,9.246
			H23.941c-5.107,0-9.246-4.14-9.246-9.246V31.27c0-5.107,4.14-9.246,9.246-9.246h54.653c5.107,0,9.246,4.14,9.246,9.246V85.923z"/>
		<line fill="none" stroke="#231815" stroke-width="4" stroke-miterlimit="10" x1="32.017" y1="22.569" x2="32.017" y2="16.145"/>
		<line fill="none" stroke="#231815" stroke-width="4" stroke-miterlimit="10" x1="42.302" y1="22.606" x2="42.302" y2="16.182"/>
		<line fill="none" stroke="#231815" stroke-width="4" stroke-miterlimit="10" x1="52.211" y1="22.365" x2="52.211" y2="15.941"/>
		<line fill="none" stroke="#231815" stroke-width="4" stroke-miterlimit="10" x1="61.243" y1="22.606" x2="61.243" y2="16.182"/>
		<line fill="none" stroke="#231815" stroke-width="4" stroke-miterlimit="10" x1="71.314" y1="22.365" x2="71.314" y2="15.941"/>
		<line fill="none" stroke="#231815" stroke-width="4" stroke-miterlimit="10" x1="88.131" y1="40.579" x2="93.845" y2="40.579"/>
		<line fill="none" stroke="#231815" stroke-width="4" stroke-miterlimit="10" x1="88.099" y1="50.864" x2="93.812" y2="50.864"/>
		<line fill="none" stroke="#231815" stroke-width="4" stroke-miterlimit="10" x1="88.313" y1="60.773" x2="94.026" y2="60.773"/>
		<line fill="none" stroke="#231815" stroke-width="4" stroke-miterlimit="10" x1="88.099" y1="69.805" x2="93.812" y2="69.805"/>
		<line fill="none" stroke="#231815" stroke-width="4" stroke-miterlimit="10" x1="88.313" y1="79.876" x2="94.026" y2="79.876"/>
		<line fill="none" stroke="#231815" stroke-width="4" stroke-miterlimit="10" x1="32.562" y1="100.838" x2="32.562" y2="94.675"/>
		<line fill="none" stroke="#231815" stroke-width="4" stroke-miterlimit="10" x1="42.847" y1="100.873" x2="42.847" y2="94.711"/>
		<line fill="none" stroke="#231815" stroke-width="4" stroke-miterlimit="10" x1="52.756" y1="100.642" x2="52.756" y2="94.479"/>
		<line fill="none" stroke="#231815" stroke-width="4" stroke-miterlimit="10" x1="61.788" y1="100.873" x2="61.788" y2="94.711"/>
		<line fill="none" stroke="#231815" stroke-width="4" stroke-miterlimit="10" x1="71.859" y1="100.642" x2="71.859" y2="94.479"/>
		<line fill="none" stroke="#231815" stroke-width="4" stroke-miterlimit="10" x1="9.331" y1="39.335" x2="15.531" y2="39.335"/>
		<line fill="none" stroke="#231815" stroke-width="4" stroke-miterlimit="10" x1="9.296" y1="49.619" x2="15.496" y2="49.619"/>
		<line fill="none" stroke="#231815" stroke-width="4" stroke-miterlimit="10" x1="9.528" y1="59.528" x2="15.728" y2="59.528"/>
		<line fill="none" stroke="#231815" stroke-width="4" stroke-miterlimit="10" x1="9.296" y1="68.561" x2="15.496" y2="68.561"/>
		<line fill="none" stroke="#231815" stroke-width="4" stroke-miterlimit="10" x1="9.528" y1="78.632" x2="15.728" y2="78.632"/>
	</g>
	<g>
		<g>
			<path fill="#FFFFFF" stroke="#33254E" stroke-width="4" stroke-miterlimit="10" d="M92.84,83.923c0,5.106-4.14,9.246-9.246,9.246
				H28.941c-5.107,0-9.246-4.14-9.246-9.246V29.27c0-5.107,4.14-9.246,9.246-9.246h54.653c5.107,0,9.246,4.14,9.246,9.246V83.923z"
				/>
			<line fill="none" stroke="#33254E" stroke-width="4" stroke-miterlimit="10" x1="37.017" y1="20.569" x2="37.017" y2="14.145"/>
			<line fill="none" stroke="#33254E" stroke-width="4" stroke-miterlimit="10" x1="47.302" y1="20.606" x2="47.302" y2="14.182"/>
			<line fill="none" stroke="#33254E" stroke-width="4" stroke-miterlimit="10" x1="57.211" y1="20.365" x2="57.211" y2="13.941"/>
			<line fill="none" stroke="#33254E" stroke-width="4" stroke-miterlimit="10" x1="66.243" y1="20.606" x2="66.243" y2="14.182"/>
			<line fill="none" stroke="#33254E" stroke-width="4" stroke-miterlimit="10" x1="76.314" y1="20.365" x2="76.314" y2="13.941"/>
			<line fill="none" stroke="#33254E" stroke-width="4" stroke-miterlimit="10" x1="93.131" y1="38.579" x2="98.845" y2="38.579"/>
			<line fill="none" stroke="#33254E" stroke-width="4" stroke-miterlimit="10" x1="93.099" y1="48.864" x2="98.812" y2="48.864"/>
			<line fill="none" stroke="#33254E" stroke-width="4" stroke-miterlimit="10" x1="93.313" y1="58.773" x2="99.026" y2="58.773"/>
			<line fill="none" stroke="#33254E" stroke-width="4" stroke-miterlimit="10" x1="93.099" y1="67.805" x2="98.812" y2="67.805"/>
			<line fill="none" stroke="#33254E" stroke-width="4" stroke-miterlimit="10" x1="93.313" y1="77.876" x2="99.026" y2="77.876"/>
			<line fill="none" stroke="#33254E" stroke-width="4" stroke-miterlimit="10" x1="37.562" y1="98.838" x2="37.562" y2="92.675"/>
			<line fill="none" stroke="#33254E" stroke-width="4" stroke-miterlimit="10" x1="47.847" y1="98.873" x2="47.847" y2="92.711"/>
			<line fill="none" stroke="#33254E" stroke-width="4" stroke-miterlimit="10" x1="57.756" y1="98.642" x2="57.756" y2="92.479"/>
			<line fill="none" stroke="#33254E" stroke-width="4" stroke-miterlimit="10" x1="66.788" y1="98.873" x2="66.788" y2="92.711"/>
			<line fill="none" stroke="#33254E" stroke-width="4" stroke-miterlimit="10" x1="76.859" y1="98.642" x2="76.859" y2="92.479"/>
			<line fill="none" stroke="#33254E" stroke-width="4" stroke-miterlimit="10" x1="14.331" y1="37.335" x2="20.531" y2="37.335"/>
			<line fill="none" stroke="#33254E" stroke-width="4" stroke-miterlimit="10" x1="14.296" y1="47.619" x2="20.496" y2="47.619"/>
			<line fill="none" stroke="#33254E" stroke-width="4" stroke-miterlimit="10" x1="14.528" y1="57.528" x2="20.728" y2="57.528"/>
			<line fill="none" stroke="#33254E" stroke-width="4" stroke-miterlimit="10" x1="14.296" y1="66.561" x2="20.496" y2="66.561"/>
			<line fill="none" stroke="#33254E" stroke-width="4" stroke-miterlimit="10" x1="14.528" y1="76.632" x2="20.728" y2="76.632"/>
		</g>
	</g>
</g>
<g>
	<rect x="14.733" y="72.467" fill="none" width="81.596" height="18.817"/>
	<path fill="#33254E" d="M36.998,74.249c0.727,0,1.346,0.24,1.857,0.721c0.516,0.48,0.773,1.059,0.773,1.734
		c0,0.664-0.248,1.234-0.744,1.711c-0.492,0.473-1.09,0.721-1.793,0.744h-0.006H37.08h-0.012c-0.043,0.004-0.066,0.006-0.07,0.006
		l-0.035-0.006h-1.717v2.818c0,0.191-0.066,0.354-0.199,0.486c-0.137,0.137-0.301,0.205-0.492,0.205s-0.354-0.068-0.486-0.205
		c-0.137-0.133-0.205-0.295-0.205-0.486V74.94c0-0.191,0.068-0.354,0.205-0.486c0.133-0.137,0.295-0.205,0.486-0.205H36.998z
		 M37.039,77.776c0.332-0.008,0.615-0.115,0.85-0.322c0.234-0.211,0.352-0.461,0.352-0.75c0-0.293-0.121-0.545-0.363-0.756
		s-0.535-0.316-0.879-0.316h-1.752v2.145H37.039z"/>
	<path fill="#33254E" d="M45.148,82.669c-1.16,0-2.15-0.412-2.971-1.236c-0.824-0.82-1.236-1.811-1.236-2.971
		s0.412-2.152,1.236-2.977c0.82-0.82,1.811-1.23,2.971-1.23s2.152,0.41,2.977,1.23c0.82,0.824,1.23,1.816,1.23,2.977
		s-0.41,2.15-1.23,2.971C47.301,82.257,46.309,82.669,45.148,82.669z M45.148,75.638c-0.777,0-1.441,0.275-1.992,0.826
		c-0.555,0.555-0.832,1.221-0.832,1.998s0.277,1.441,0.832,1.992c0.551,0.555,1.215,0.832,1.992,0.832s1.443-0.277,1.998-0.832
		c0.551-0.551,0.826-1.215,0.826-1.992s-0.275-1.443-0.826-1.998C46.592,75.913,45.926,75.638,45.148,75.638z"/>
	<path fill="#33254E" d="M61.643,74.308c0.18,0.066,0.311,0.186,0.393,0.357s0.092,0.348,0.029,0.527l-2.467,7.014v0.006
		c-0.008,0.027-0.02,0.057-0.035,0.088c-0.008,0.008-0.012,0.014-0.012,0.018c-0.016,0.027-0.033,0.053-0.053,0.076
		c0.008-0.012,0.004-0.006-0.012,0.018c-0.016,0.02-0.033,0.039-0.053,0.059c-0.012,0.012-0.016,0.016-0.012,0.012
		c-0.023,0.02-0.047,0.039-0.07,0.059c0.004-0.004-0.002,0-0.018,0.012c-0.023,0.016-0.047,0.029-0.07,0.041
		c-0.012,0.004-0.016,0.006-0.012,0.006c-0.027,0.012-0.053,0.021-0.076,0.029c-0.016,0.008-0.018,0.01-0.006,0.006
		c-0.023,0.008-0.051,0.014-0.082,0.018c-0.031,0.008-0.041,0.01-0.029,0.006c-0.039,0.008-0.076,0.012-0.111,0.012
		s-0.072-0.004-0.111-0.012c0.012,0.004,0.002,0.002-0.029-0.006c-0.031-0.004-0.057-0.01-0.076-0.018
		c0.008,0.004,0.004,0.002-0.012-0.006c-0.023-0.008-0.047-0.018-0.07-0.029l-0.018-0.006c-0.023-0.012-0.047-0.025-0.07-0.041
		c0-0.004-0.002-0.006-0.006-0.006l-0.006-0.006c-0.027-0.02-0.051-0.039-0.07-0.059c0,0.004-0.006,0-0.018-0.012
		c-0.02-0.02-0.037-0.041-0.053-0.064l-0.012-0.012c-0.016-0.023-0.031-0.049-0.047-0.076c-0.004-0.008-0.008-0.014-0.012-0.018
		c-0.016-0.031-0.029-0.061-0.041-0.088v-0.006l-1.811-5.156l-1.811,5.156v0.006c-0.012,0.027-0.025,0.057-0.041,0.088
		c-0.004,0.008-0.008,0.014-0.012,0.018c-0.016,0.027-0.031,0.053-0.047,0.076c0.008-0.012,0.004-0.006-0.012,0.018
		c-0.02,0.02-0.039,0.039-0.059,0.059c-0.012,0.012-0.016,0.016-0.012,0.012c-0.02,0.02-0.043,0.039-0.07,0.059
		c0.008-0.004,0.002,0-0.018,0.012c-0.023,0.016-0.047,0.029-0.07,0.041c-0.012,0.004-0.016,0.006-0.012,0.006
		c-0.027,0.012-0.051,0.021-0.07,0.029s-0.023,0.01-0.012,0.006c-0.023,0.008-0.051,0.014-0.082,0.018
		c-0.027,0.008-0.037,0.01-0.029,0.006c-0.035,0.008-0.07,0.012-0.105,0.012c-0.039,0-0.076-0.004-0.111-0.012
		c0.012,0.004,0.002,0.002-0.029-0.006c-0.031-0.004-0.059-0.01-0.082-0.018c0.012,0.004,0.01,0.002-0.006-0.006
		c-0.023-0.008-0.049-0.018-0.076-0.029c0.004,0,0-0.002-0.012-0.006c-0.023-0.012-0.047-0.025-0.07-0.041
		c-0.004-0.004-0.008-0.006-0.012-0.006c0-0.004-0.002-0.006-0.006-0.006c-0.023-0.02-0.047-0.039-0.07-0.059
		c0.004,0.004,0,0-0.012-0.012c-0.02-0.02-0.039-0.041-0.059-0.064l-0.006-0.012c-0.02-0.023-0.037-0.049-0.053-0.076
		c-0.004-0.008-0.008-0.014-0.012-0.018c-0.016-0.031-0.027-0.061-0.035-0.088l-0.006-0.006l-2.461-7.014
		c-0.063-0.18-0.053-0.355,0.029-0.527s0.213-0.291,0.393-0.357c0.18-0.063,0.355-0.053,0.527,0.029
		c0.172,0.086,0.291,0.219,0.357,0.398l1.811,5.156l1.811-5.156v-0.006c0.004-0.008,0.008-0.02,0.012-0.035
		c0.012-0.023,0.016-0.033,0.012-0.029c0.004,0,0.01-0.008,0.018-0.023c0.031-0.063,0.07-0.117,0.117-0.164
		c0.051-0.051,0.109-0.094,0.176-0.129c0.016-0.008,0.021-0.012,0.018-0.012l0.029-0.012c0.02-0.008,0.031-0.012,0.035-0.012
		c-0.004,0-0.002-0.002,0.006-0.006c-0.004,0.004,0.004,0.002,0.023-0.006c0.016-0.004,0.027-0.008,0.035-0.012
		c0.008,0,0.02-0.002,0.035-0.006c0.012-0.004,0.021-0.006,0.029-0.006s0.021-0.002,0.041-0.006c0.012,0,0.021,0,0.029,0h0.064
		c0.012,0,0.025,0.002,0.041,0.006h0.029c0.008,0,0.021,0.002,0.041,0.006l0.023,0.006c0.012,0.004,0.027,0.008,0.047,0.012
		c0,0.004,0.002,0.006,0.006,0.006s0.008,0,0.012,0v0.006h0.006c0.008,0.004,0.02,0.01,0.035,0.018l0.029,0.006l0.023,0.018
		c0.063,0.031,0.119,0.072,0.17,0.123c0.047,0.047,0.086,0.1,0.117,0.158l0.012,0.029l0.012,0.023
		c0.008,0.02,0.014,0.033,0.018,0.041v0.006l1.811,5.156l1.811-5.156c0.063-0.18,0.18-0.313,0.352-0.398
		c0.172-0.082,0.258-0.123,0.258-0.123S61.459,74.245,61.643,74.308z"/>
	<path fill="#33254E" d="M68.697,81.28c0.191,0,0.354,0.068,0.486,0.205c0.137,0.137,0.205,0.301,0.205,0.492
		s-0.068,0.354-0.205,0.486c-0.133,0.137-0.295,0.205-0.486,0.205h-4.242c-0.191,0-0.354-0.068-0.486-0.205
		c-0.137-0.133-0.205-0.295-0.205-0.486v-7.025c0-0.195,0.068-0.359,0.205-0.492c0.133-0.137,0.295-0.205,0.486-0.205h0.006
		l4.236,0.012c0.191,0,0.355,0.068,0.492,0.205c0.133,0.137,0.199,0.301,0.199,0.492s-0.068,0.354-0.205,0.486
		c-0.133,0.137-0.295,0.205-0.486,0.205h-0.006l-3.539-0.012v2.127h2.555c0.191,0,0.355,0.066,0.492,0.199
		c0.137,0.137,0.205,0.301,0.205,0.492s-0.068,0.355-0.205,0.492c-0.137,0.133-0.301,0.199-0.492,0.199h-2.555v2.127H68.697z"/>
	<path fill="#33254E" d="M76.924,76.698c0,0.516-0.16,0.982-0.48,1.4c-0.309,0.414-0.715,0.709-1.219,0.885l1.33,2.695
		c0.082,0.168,0.092,0.342,0.029,0.521c-0.059,0.18-0.174,0.313-0.346,0.398c-0.098,0.047-0.199,0.07-0.305,0.07
		c-0.285,0-0.49-0.129-0.615-0.387l-1.553-3.146h-1.189v2.795c0,0.188-0.068,0.35-0.205,0.486c-0.133,0.133-0.295,0.199-0.486,0.199
		c-0.188,0-0.35-0.066-0.486-0.199c-0.133-0.137-0.199-0.299-0.199-0.486v-6.984c0-0.191,0.066-0.354,0.199-0.486
		c0.137-0.137,0.299-0.205,0.486-0.205h2.426c0.723,0,1.338,0.238,1.846,0.715C76.668,75.446,76.924,76.022,76.924,76.698z
		 M74.357,77.759c0.328-0.012,0.609-0.119,0.844-0.322c0.23-0.207,0.346-0.453,0.346-0.738c0-0.297-0.121-0.549-0.363-0.756
		s-0.533-0.311-0.873-0.311h-1.734v2.127H74.357z"/>
</g>
<rect x="32.248" y="31.52" fill="#DBDCDC" width="48.943" height="17.373"/>
<rect x="32.059" y="55.874" fill="#DBDCDC" width="49.132" height="9.931"/>
</svg>
