<?xml version="1.0" encoding="utf-8"?>
<!-- Generator: Adobe Illustrator 17.0.0, SVG Export Plug-In . SVG Version: 6.00 Build 0)  -->
<!DOCTYPE svg PUBLIC "-//W3C//DTD SVG 1.1//EN" "http://www.w3.org/Graphics/SVG/1.1/DTD/svg11.dtd">
<svg version="1.1" id="图层_1" xmlns="http://www.w3.org/2000/svg" xmlns:xlink="http://www.w3.org/1999/xlink" x="0px" y="0px"
	 width="110px" height="110px" viewBox="0 0 110 110" enable-background="new 0 0 110 110" xml:space="preserve">
<g>
	<g opacity="0.1">
		<circle fill="#231815" cx="50.941" cy="58.349" r="43.375"/>
		<circle fill="none" stroke="#231815" stroke-width="4" stroke-miterlimit="10" cx="50.941" cy="58.349" r="43.375"/>
	</g>
	<g>
		<circle fill="#FFFFFF" cx="55.941" cy="56.349" r="43.375"/>
		<circle fill="none" stroke="#352650" stroke-width="4" stroke-miterlimit="10" cx="55.941" cy="56.349" r="43.375"/>
	</g>
</g>
<circle fill="#B0B3D0" stroke="#352650" stroke-width="2" stroke-miterlimit="10" stroke-dasharray="6" cx="55.941" cy="56.457" r="34.163"/>
<g>
	<path fill="#352650" d="M56.299,36.085c3.696,0,7.104,0.911,10.226,2.732c3.121,1.821,5.592,4.293,7.414,7.414
		c1.821,3.121,2.732,6.53,2.732,10.226c0,3.696-0.911,7.104-2.732,10.226c-1.821,3.121-4.293,5.592-7.414,7.414
		c-3.121,1.821-6.53,2.732-10.226,2.732c-3.696,0-7.104-0.911-10.226-2.732c-3.121-1.821-5.592-4.293-7.414-7.414
		c-1.821-3.121-2.732-6.53-2.732-10.226c0-3.696,0.911-7.104,2.732-10.226c1.821-3.121,4.293-5.592,7.414-7.414
		C49.194,36.996,52.603,36.085,56.299,36.085z M63.567,49.905c-0.035,0.018-0.119,0.102-0.252,0.252
		c-0.133,0.15-0.252,0.234-0.358,0.252c0.035,0,0.075-0.044,0.119-0.133c0.044-0.088,0.088-0.186,0.133-0.292
		s0.075-0.168,0.093-0.186c0.106-0.124,0.301-0.256,0.584-0.398c0.248-0.106,0.707-0.212,1.379-0.318
		c0.601-0.141,1.052-0.044,1.353,0.292c-0.035-0.035,0.049-0.15,0.252-0.345c0.203-0.195,0.332-0.301,0.385-0.318
		c0.053-0.035,0.186-0.075,0.398-0.119c0.212-0.044,0.345-0.111,0.398-0.199l0.053-0.584c-0.212,0.018-0.367-0.044-0.464-0.186
		s-0.155-0.327-0.172-0.557c0,0.035-0.053,0.106-0.159,0.212c0-0.124-0.04-0.195-0.119-0.212s-0.181-0.009-0.305,0.027
		c-0.124,0.035-0.203,0.044-0.239,0.027c-0.177-0.053-0.309-0.119-0.398-0.199c-0.088-0.08-0.159-0.225-0.212-0.438
		c-0.053-0.212-0.088-0.345-0.106-0.398c-0.035-0.088-0.119-0.181-0.252-0.279s-0.217-0.19-0.252-0.279
		c-0.018-0.035-0.04-0.084-0.066-0.146s-0.053-0.119-0.08-0.172c-0.027-0.053-0.062-0.102-0.106-0.146
		c-0.044-0.044-0.093-0.066-0.146-0.066c-0.053,0-0.115,0.044-0.186,0.133c-0.071,0.088-0.137,0.177-0.199,0.265
		c-0.062,0.088-0.102,0.133-0.119,0.133c-0.053-0.035-0.106-0.049-0.159-0.04c-0.053,0.009-0.093,0.018-0.119,0.027
		s-0.066,0.035-0.119,0.08c-0.053,0.044-0.097,0.075-0.133,0.093c-0.053,0.035-0.128,0.062-0.225,0.08
		c-0.097,0.018-0.172,0.035-0.225,0.053c0.265-0.088,0.256-0.186-0.027-0.292c-0.177-0.071-0.318-0.097-0.424-0.08
		c0.159-0.071,0.225-0.177,0.199-0.318c-0.027-0.141-0.102-0.265-0.225-0.371h0.133c-0.018-0.071-0.093-0.146-0.225-0.225
		c-0.133-0.08-0.287-0.155-0.464-0.225c-0.177-0.071-0.292-0.124-0.345-0.159c-0.141-0.088-0.442-0.172-0.902-0.252
		c-0.46-0.08-0.752-0.084-0.875-0.013c-0.088,0.106-0.128,0.199-0.119,0.279c0.009,0.08,0.044,0.203,0.106,0.371
		c0.062,0.168,0.093,0.279,0.093,0.332c0.018,0.106-0.031,0.221-0.146,0.345c-0.115,0.124-0.172,0.23-0.172,0.318
		c0,0.124,0.124,0.261,0.371,0.411c0.248,0.15,0.336,0.34,0.265,0.57c-0.053,0.141-0.195,0.283-0.424,0.424
		c-0.23,0.141-0.371,0.248-0.424,0.318c-0.088,0.141-0.102,0.305-0.04,0.491c0.062,0.186,0.155,0.332,0.279,0.438
		c0.035,0.035,0.049,0.071,0.04,0.106s-0.04,0.075-0.093,0.119c-0.053,0.044-0.102,0.08-0.146,0.106
		c-0.044,0.027-0.102,0.057-0.172,0.093l-0.08,0.053c-0.195,0.088-0.376,0.035-0.544-0.159s-0.287-0.424-0.358-0.69
		c-0.124-0.442-0.265-0.707-0.424-0.796c-0.407-0.141-0.663-0.133-0.769,0.027c-0.088-0.23-0.451-0.46-1.088-0.69
		c-0.442-0.159-0.955-0.195-1.538-0.106c0.106-0.018,0.106-0.15,0-0.398c-0.124-0.265-0.292-0.371-0.504-0.318
		c0.053-0.106,0.088-0.261,0.106-0.464c0.018-0.203,0.027-0.323,0.027-0.358c0.053-0.23,0.159-0.433,0.318-0.61
		c0.018-0.018,0.08-0.093,0.186-0.225c0.106-0.133,0.19-0.252,0.252-0.358s0.066-0.159,0.013-0.159
		c0.619,0.071,1.061-0.027,1.326-0.292c0.088-0.088,0.19-0.239,0.305-0.451s0.208-0.363,0.279-0.451
		c0.159-0.106,0.283-0.155,0.371-0.146c0.088,0.009,0.217,0.057,0.385,0.146c0.168,0.088,0.296,0.133,0.385,0.133
		c0.248,0.018,0.385-0.08,0.411-0.292c0.027-0.212-0.04-0.389-0.199-0.531c0.212,0.018,0.239-0.133,0.08-0.451
		c-0.088-0.124-0.159-0.203-0.212-0.239c-0.212-0.071-0.451-0.027-0.716,0.133c-0.141,0.071-0.124,0.141,0.053,0.212
		c-0.018-0.018-0.102,0.075-0.252,0.279c-0.15,0.203-0.296,0.358-0.438,0.464c-0.141,0.106-0.283,0.062-0.424-0.133
		c-0.018-0.018-0.066-0.137-0.146-0.358c-0.08-0.221-0.164-0.34-0.252-0.358c-0.141,0-0.283,0.133-0.424,0.398
		c0.053-0.141-0.044-0.274-0.292-0.398c-0.248-0.124-0.46-0.195-0.637-0.212c0.336-0.212,0.265-0.451-0.212-0.716
		c-0.124-0.071-0.305-0.115-0.544-0.133c-0.239-0.018-0.411,0.018-0.517,0.106c-0.088,0.124-0.137,0.225-0.146,0.305
		c-0.009,0.08,0.035,0.15,0.133,0.212c0.097,0.062,0.19,0.111,0.279,0.146c0.088,0.035,0.19,0.071,0.305,0.106
		c0.115,0.035,0.19,0.062,0.225,0.08c0.248,0.177,0.318,0.301,0.212,0.371c-0.035,0.018-0.111,0.049-0.225,0.093
		c-0.115,0.044-0.217,0.084-0.305,0.119c-0.088,0.035-0.141,0.071-0.159,0.106c-0.053,0.071-0.053,0.195,0,0.371
		c0.053,0.177,0.035,0.301-0.053,0.371c-0.088-0.088-0.168-0.243-0.239-0.464s-0.133-0.367-0.186-0.438
		c0.124,0.159-0.097,0.212-0.663,0.159l-0.265-0.027c-0.071,0-0.212,0.018-0.424,0.053s-0.393,0.044-0.544,0.027
		c-0.15-0.018-0.27-0.088-0.358-0.212c-0.071-0.141-0.071-0.318,0-0.531c0.018-0.071,0.053-0.088,0.106-0.053
		c-0.071-0.053-0.168-0.137-0.292-0.252c-0.124-0.115-0.212-0.19-0.265-0.225c-0.813,0.265-1.645,0.628-2.493,1.088
		c0.106,0.018,0.212,0.009,0.318-0.027c0.088-0.035,0.203-0.093,0.345-0.172c0.141-0.08,0.23-0.128,0.265-0.146
		c0.601-0.248,0.973-0.309,1.114-0.186l0.133-0.133c0.248,0.283,0.424,0.504,0.531,0.663c-0.124-0.071-0.389-0.08-0.796-0.027
		c-0.354,0.106-0.548,0.212-0.584,0.318c0.124,0.212,0.168,0.371,0.133,0.477c-0.071-0.053-0.172-0.141-0.305-0.265
		c-0.133-0.124-0.261-0.221-0.385-0.292s-0.256-0.115-0.398-0.133c-0.283,0-0.477,0.009-0.584,0.027
		c-2.582,1.415-4.66,3.378-6.234,5.889c0.124,0.124,0.23,0.195,0.318,0.212c0.071,0.018,0.115,0.097,0.133,0.239
		c0.018,0.141,0.04,0.239,0.066,0.292c0.027,0.053,0.128,0.027,0.305-0.08c0.159,0.141,0.186,0.309,0.08,0.504
		c0.018-0.018,0.407,0.221,1.167,0.716c0.336,0.301,0.522,0.486,0.557,0.557c0.053,0.195-0.035,0.354-0.265,0.477
		c-0.018-0.035-0.097-0.115-0.239-0.239c-0.141-0.124-0.221-0.159-0.239-0.106c-0.053,0.088-0.049,0.252,0.013,0.491
		c0.062,0.239,0.155,0.349,0.279,0.332c-0.124,0-0.208,0.141-0.252,0.424s-0.066,0.597-0.066,0.942s-0.009,0.553-0.027,0.623
		l0.053,0.027c-0.053,0.212-0.004,0.517,0.146,0.915c0.15,0.398,0.34,0.57,0.57,0.517c-0.23,0.053-0.053,0.433,0.531,1.141
		c0.106,0.141,0.177,0.221,0.212,0.239c0.053,0.035,0.159,0.102,0.318,0.199c0.159,0.097,0.292,0.186,0.398,0.265
		c0.106,0.08,0.195,0.172,0.265,0.279c0.071,0.088,0.159,0.287,0.265,0.597c0.106,0.309,0.23,0.517,0.371,0.623
		c-0.035,0.106,0.049,0.283,0.252,0.531c0.203,0.248,0.296,0.451,0.279,0.61c-0.018,0-0.04,0.009-0.066,0.027
		c-0.027,0.018-0.049,0.027-0.066,0.027c0.053,0.124,0.19,0.248,0.411,0.371s0.358,0.239,0.411,0.345
		c0.018,0.053,0.035,0.141,0.053,0.265c0.018,0.124,0.044,0.221,0.08,0.292c0.035,0.071,0.106,0.088,0.212,0.053
		c0.035-0.354-0.177-0.902-0.637-1.645c-0.265-0.442-0.416-0.699-0.451-0.769c-0.053-0.088-0.102-0.225-0.146-0.411
		c-0.044-0.186-0.084-0.314-0.119-0.385c0.035,0,0.088,0.013,0.159,0.04c0.071,0.027,0.146,0.057,0.225,0.093
		c0.08,0.035,0.146,0.071,0.199,0.106c0.053,0.035,0.071,0.062,0.053,0.08c-0.053,0.124-0.035,0.279,0.053,0.464
		c0.088,0.186,0.195,0.349,0.318,0.491c0.124,0.141,0.274,0.309,0.451,0.504c0.177,0.195,0.283,0.309,0.318,0.345
		c0.106,0.106,0.23,0.279,0.371,0.517c0.141,0.239,0.141,0.358,0,0.358c0.159,0,0.336,0.088,0.531,0.265
		c0.195,0.177,0.345,0.354,0.451,0.531c0.088,0.141,0.159,0.371,0.212,0.69c0.053,0.318,0.097,0.531,0.133,0.637
		c0.035,0.124,0.111,0.243,0.225,0.358c0.115,0.115,0.225,0.199,0.332,0.252l0.424,0.212l0.345,0.186
		c0.088,0.035,0.252,0.128,0.491,0.279c0.239,0.15,0.429,0.252,0.57,0.305c0.177,0.071,0.318,0.106,0.424,0.106
		c0.106,0,0.234-0.022,0.385-0.066c0.15-0.044,0.27-0.075,0.358-0.093c0.265-0.035,0.522,0.097,0.769,0.398
		c0.248,0.301,0.433,0.486,0.557,0.557c0.637,0.336,1.123,0.433,1.459,0.292c-0.035,0.018-0.031,0.084,0.013,0.199
		s0.115,0.252,0.212,0.411c0.097,0.159,0.177,0.287,0.239,0.385s0.111,0.172,0.146,0.225c0.088,0.106,0.248,0.239,0.477,0.398
		c0.23,0.159,0.389,0.292,0.477,0.398c0.106-0.071,0.168-0.15,0.186-0.239c-0.053,0.141,0.009,0.318,0.186,0.531
		s0.336,0.301,0.477,0.265c0.248-0.053,0.371-0.336,0.371-0.849c-0.548,0.265-0.981,0.106-1.3-0.477
		c0-0.018-0.022-0.066-0.066-0.146c-0.044-0.08-0.08-0.155-0.106-0.225c-0.027-0.071-0.049-0.146-0.066-0.225
		c-0.018-0.08-0.018-0.146,0-0.199c0.018-0.053,0.062-0.08,0.133-0.08c0.159,0,0.248-0.031,0.265-0.093
		c0.018-0.062,0-0.172-0.053-0.332c-0.053-0.159-0.088-0.274-0.106-0.345c-0.018-0.141-0.115-0.318-0.292-0.531
		c-0.177-0.212-0.283-0.345-0.318-0.398c-0.088,0.159-0.23,0.23-0.424,0.212c-0.195-0.018-0.336-0.097-0.424-0.239
		c0,0.018-0.013,0.066-0.04,0.146c-0.027,0.08-0.04,0.137-0.04,0.172c-0.23,0-0.363-0.009-0.398-0.027
		c0.018-0.053,0.04-0.208,0.066-0.464c0.027-0.256,0.057-0.455,0.093-0.597c0.018-0.071,0.066-0.177,0.146-0.318
		c0.08-0.141,0.146-0.27,0.199-0.385c0.053-0.115,0.088-0.225,0.106-0.332c0.018-0.106-0.022-0.19-0.119-0.252
		c-0.097-0.062-0.252-0.084-0.464-0.066c-0.336,0.018-0.566,0.195-0.69,0.531c-0.018,0.053-0.044,0.146-0.08,0.279
		c-0.035,0.133-0.08,0.234-0.133,0.305c-0.053,0.071-0.133,0.133-0.239,0.186c-0.124,0.053-0.336,0.071-0.637,0.053
		c-0.301-0.018-0.513-0.062-0.637-0.133c-0.23-0.141-0.429-0.398-0.597-0.769s-0.252-0.699-0.252-0.981
		c0-0.177,0.022-0.411,0.066-0.703c0.044-0.292,0.071-0.513,0.08-0.663c0.009-0.15-0.04-0.367-0.146-0.65
		c0.053-0.035,0.133-0.119,0.239-0.252c0.106-0.133,0.195-0.225,0.265-0.279c0.035-0.018,0.075-0.031,0.119-0.04
		s0.084-0.009,0.119,0s0.071-0.004,0.106-0.04s0.062-0.088,0.08-0.159c-0.018-0.018-0.053-0.044-0.106-0.08
		c-0.053-0.053-0.088-0.08-0.106-0.08c0.124,0.053,0.376,0.04,0.756-0.04c0.38-0.08,0.623-0.066,0.729,0.04
		c0.265,0.195,0.46,0.177,0.584-0.053c0-0.018-0.022-0.102-0.066-0.252c-0.044-0.15-0.049-0.27-0.013-0.358
		c0.088,0.477,0.345,0.557,0.769,0.239c0.053,0.053,0.19,0.097,0.411,0.133s0.376,0.08,0.464,0.133
		c0.053,0.035,0.115,0.084,0.186,0.146s0.119,0.102,0.146,0.119c0.027,0.018,0.071,0.013,0.133-0.013
		c0.062-0.027,0.137-0.084,0.225-0.172c0.177,0.248,0.283,0.46,0.318,0.637c0.195,0.707,0.363,1.096,0.504,1.167
		c0.124,0.053,0.221,0.071,0.292,0.053c0.071-0.018,0.111-0.102,0.119-0.252c0.009-0.15,0.009-0.274,0-0.371
		c-0.009-0.097-0.022-0.208-0.04-0.332l-0.027-0.212v-0.477l-0.027-0.212c-0.265-0.053-0.429-0.159-0.491-0.318
		s-0.049-0.323,0.04-0.491s0.221-0.332,0.398-0.491c0.018-0.018,0.088-0.049,0.212-0.093c0.124-0.044,0.261-0.102,0.411-0.172
		c0.15-0.071,0.261-0.141,0.332-0.212c0.371-0.336,0.504-0.645,0.398-0.928c0.124,0,0.221-0.08,0.292-0.239
		c-0.018,0-0.062-0.027-0.133-0.08c-0.071-0.053-0.137-0.097-0.199-0.133c-0.062-0.035-0.102-0.053-0.119-0.053
		c0.159-0.088,0.177-0.23,0.053-0.424c0.088-0.053,0.155-0.15,0.199-0.292c0.044-0.141,0.111-0.23,0.199-0.265
		c0.159,0.212,0.345,0.23,0.557,0.053c0.124-0.141,0.133-0.283,0.027-0.424c0.088-0.124,0.27-0.217,0.544-0.279
		c0.274-0.062,0.438-0.146,0.491-0.252c0.124,0.035,0.195,0.018,0.212-0.053c0.018-0.071,0.027-0.177,0.027-0.318
		c0-0.141,0.027-0.248,0.08-0.318c0.071-0.088,0.203-0.168,0.398-0.239c0.195-0.071,0.309-0.115,0.345-0.133l0.451-0.292
		c0.053-0.071,0.053-0.106,0-0.106c0.318,0.035,0.592-0.062,0.822-0.292c0.177-0.195,0.124-0.371-0.159-0.531
		c0.053-0.106,0.027-0.19-0.08-0.252s-0.239-0.111-0.398-0.146c0.053-0.018,0.155-0.022,0.305-0.013
		c0.15,0.009,0.243-0.004,0.279-0.04c0.265-0.177,0.203-0.318-0.186-0.424C64.407,49.498,64.027,49.604,63.567,49.905z
		 M59.243,73.168c3.643-0.637,6.746-2.308,9.31-5.013c-0.053-0.053-0.164-0.093-0.332-0.119c-0.168-0.027-0.279-0.057-0.332-0.093
		c-0.318-0.124-0.531-0.195-0.637-0.212c0.018-0.124-0.004-0.239-0.066-0.345c-0.062-0.106-0.133-0.186-0.212-0.239
		c-0.08-0.053-0.19-0.124-0.332-0.212c-0.141-0.088-0.239-0.15-0.292-0.186c-0.035-0.035-0.097-0.088-0.186-0.159
		c-0.088-0.071-0.15-0.119-0.186-0.146c-0.035-0.027-0.102-0.066-0.199-0.119c-0.097-0.053-0.172-0.071-0.225-0.053
		c-0.053,0.018-0.141,0.027-0.265,0.027l-0.08,0.027c-0.053,0.018-0.102,0.04-0.146,0.066c-0.044,0.027-0.093,0.053-0.146,0.08
		c-0.053,0.027-0.088,0.053-0.106,0.08c-0.018,0.027-0.018,0.049,0,0.066c-0.371-0.301-0.69-0.495-0.955-0.584
		c-0.088-0.018-0.186-0.066-0.292-0.146c-0.106-0.08-0.199-0.141-0.279-0.186c-0.08-0.044-0.168-0.057-0.265-0.04
		s-0.199,0.08-0.305,0.186c-0.088,0.088-0.141,0.221-0.159,0.398c-0.018,0.177-0.035,0.292-0.053,0.345
		c-0.124-0.088-0.124-0.243,0-0.464c0.124-0.221,0.141-0.385,0.053-0.491c-0.053-0.106-0.146-0.146-0.279-0.119
		c-0.133,0.027-0.239,0.066-0.318,0.119c-0.08,0.053-0.181,0.128-0.305,0.225c-0.124,0.097-0.203,0.155-0.239,0.172
		c-0.035,0.018-0.111,0.066-0.225,0.146c-0.115,0.08-0.19,0.146-0.225,0.199c-0.053,0.071-0.106,0.177-0.159,0.318
		c-0.053,0.141-0.097,0.239-0.133,0.292c-0.035-0.071-0.137-0.128-0.305-0.172c-0.168-0.044-0.252-0.093-0.252-0.146
		c0.035,0.177,0.071,0.486,0.106,0.928s0.08,0.778,0.133,1.008c0.124,0.548,0.018,0.973-0.318,1.273
		c-0.477,0.442-0.734,0.796-0.769,1.061c-0.071,0.389,0.035,0.619,0.318,0.69c0,0.124-0.071,0.305-0.212,0.544
		c-0.141,0.239-0.203,0.429-0.186,0.57C59.19,72.849,59.208,72.991,59.243,73.168z"/>
</g>
</svg>
