<?xml version="1.0" encoding="utf-8"?>
<!-- Generator: Adobe Illustrator 17.0.0, SVG Export Plug-In . SVG Version: 6.00 Build 0)  -->
<!DOCTYPE svg PUBLIC "-//W3C//DTD SVG 1.1//EN" "http://www.w3.org/Graphics/SVG/1.1/DTD/svg11.dtd">
<svg version="1.1" id="图层_1" xmlns="http://www.w3.org/2000/svg" xmlns:xlink="http://www.w3.org/1999/xlink" x="0px" y="0px"
	 width="110px" height="110px" viewBox="-21.806 -24.806 110 110" enable-background="new -21.806 -24.806 110 110"
	 xml:space="preserve">
<g>
	<g opacity="0.1">
		<path fill="#231815" stroke="#231815" stroke-width="5" stroke-miterlimit="10" d="M70.548,50.125c2.26,1.13,2.26,2.962,0,4.092
			L31.816,73.583c-2.26,1.13-5.924,1.13-8.184,0l-38.732-19.366c-2.26-1.13-2.26-2.962,0-4.092l38.732-19.366
			c2.26-1.13,5.924-1.13,8.184,0L70.548,50.125z"/>
		<path fill="#231815" stroke="#231815" stroke-width="2" stroke-miterlimit="10" d="M71.958,29.866c2.26,1.13,2.26,2.962,0,4.092
			L33.226,53.324c-2.26,1.13-5.924,1.13-8.184,0L-13.69,33.958c-2.26-1.13-2.26-2.962,0-4.092L25.042,10.5
			c2.26-1.13,5.924-1.13,8.184,0L71.958,29.866z"/>
		<path fill="#231815" stroke="#231815" stroke-width="5" stroke-miterlimit="10" d="M71.958,11.629c2.26,1.13,2.26,2.962,0,4.092
			L33.226,35.087c-2.26,1.13-5.924,1.13-8.184,0L-13.69,15.721c-2.26-1.13-2.26-2.962,0-4.092L25.042-7.737
			c2.26-1.13,5.924-1.13,8.184,0L71.958,11.629z"/>
	</g>
	<g>
		<g>
			<path fill="#B0B3D0" stroke="#352650" stroke-width="5" stroke-miterlimit="10" d="M75.548,48.125c2.26,1.13,2.26,2.962,0,4.092
				L36.816,71.583c-2.26,1.13-5.924,1.13-8.184,0l-38.732-19.366c-2.26-1.13-2.26-2.962,0-4.092l38.732-19.366
				c2.26-1.13,5.924-1.13,8.184,0L75.548,48.125z"/>
			<path fill="#FFFFFF" stroke="#33254E" stroke-width="2" stroke-miterlimit="10" d="M76.958,27.866c2.26,1.13,2.26,2.962,0,4.092
				L38.226,51.324c-2.26,1.13-5.924,1.13-8.184,0L-8.69,31.958c-2.26-1.13-2.26-2.962,0-4.092L30.042,8.5
				c2.26-1.13,5.924-1.13,8.184,0L76.958,27.866z"/>
			<path fill="#FFFFFF" stroke="#352650" stroke-width="5" stroke-miterlimit="10" d="M76.958,9.629c2.26,1.13,2.26,2.962,0,4.092
				L38.226,33.087c-2.26,1.13-5.924,1.13-8.184,0L-8.69,13.721c-2.26-1.13-2.26-2.962,0-4.092L30.042-9.737
				c2.26-1.13,5.924-1.13,8.184,0L76.958,9.629z"/>
		</g>
	</g>
</g>
<g>
	<rect x="-17.616" y="2.935" fill="none" width="103.5" height="33"/>
	<path fill="#CBCBCB" d="M19.885,9.121c0.788,0,1.46,0.28,2.017,0.841c0.561,0.556,0.841,1.229,0.841,2.017s-0.28,1.461-0.841,2.017
		c-0.557,0.561-1.229,0.841-2.017,0.841c-0.789,0-1.461-0.28-2.017-0.841c-0.561-0.556-0.841-1.229-0.841-2.017
		c0-0.314,0.05-0.62,0.15-0.916c0.004-0.014,0.007-0.019,0.007-0.014l0.007-0.027c0.009-0.019,0.014-0.029,0.014-0.034l1.921-5.421
		c0.072-0.21,0.209-0.362,0.41-0.458c0.2-0.096,0.405-0.107,0.615-0.034c0.209,0.073,0.362,0.21,0.458,0.41s0.106,0.408,0.034,0.622
		L19.57,9.142C19.675,9.128,19.779,9.121,19.885,9.121z M19.885,13.223c0.342,0,0.636-0.121,0.882-0.362
		c0.241-0.246,0.362-0.54,0.362-0.882s-0.121-0.636-0.362-0.882c-0.246-0.241-0.54-0.362-0.882-0.362s-0.636,0.121-0.882,0.362
		c-0.242,0.246-0.362,0.54-0.362,0.882s0.12,0.636,0.362,0.882C19.249,13.102,19.543,13.223,19.885,13.223z"/>
	<path fill="#CBCBCB" d="M28.546,12.252h-3.083c-0.324,0-0.561-0.144-0.711-0.431c-0.15-0.292-0.135-0.569,0.048-0.834l3.89-5.605
		c0.104-0.142,0.239-0.241,0.403-0.301c0.168-0.055,0.337-0.057,0.506-0.007c0.168,0.055,0.303,0.152,0.403,0.294
		c0.104,0.142,0.157,0.301,0.157,0.479v8.183c0,0.224-0.078,0.412-0.232,0.567c-0.16,0.159-0.352,0.239-0.574,0.239
		c-0.219,0-0.408-0.08-0.567-0.239c-0.16-0.155-0.239-0.344-0.239-0.567V12.252z M28.546,10.639V8.417l-1.538,2.222H28.546z"/>
	<path fill="#CBCBCB" d="M41.664,5.033c0.173,0.05,0.314,0.148,0.424,0.294c0.109,0.142,0.164,0.303,0.164,0.485v8.217
		c0,0.224-0.078,0.412-0.232,0.567c-0.16,0.159-0.352,0.239-0.574,0.239c-0.224,0-0.415-0.08-0.574-0.239
		c-0.155-0.155-0.232-0.344-0.232-0.567V8.711l-2.55,4.211v0.007l-0.007,0.007l-0.007,0.007l-0.007,0.007
		c-0.014,0.022-0.023,0.039-0.027,0.048l-0.021,0.027c-0.019,0.019-0.03,0.029-0.034,0.034c-0.005,0.005-0.014,0.014-0.027,0.027
		s-0.023,0.022-0.027,0.027c-0.01,0.009-0.023,0.021-0.041,0.034l-0.021,0.021c-0.014,0.009-0.03,0.019-0.048,0.027
		c0,0.005-0.003,0.007-0.007,0.007l-0.007,0.007h-0.007c-0.01,0.009-0.025,0.019-0.048,0.027c-0.019,0.009-0.025,0.014-0.021,0.014
		c-0.005,0-0.019,0.005-0.041,0.014c-0.105,0.046-0.215,0.066-0.328,0.062h-0.014c0.009,0,0-0.002-0.027-0.007
		c-0.06-0.005-0.119-0.016-0.178-0.034c-0.023-0.005-0.032-0.007-0.027-0.007c0.009,0.005,0,0.002-0.027-0.007
		c-0.023-0.009-0.039-0.016-0.048-0.021c0.004,0,0-0.005-0.014-0.014c-0.023-0.009-0.041-0.019-0.055-0.027h-0.007l-0.007-0.007
		l-0.007-0.007c-0.019-0.009-0.034-0.021-0.048-0.034c0,0.005-0.007,0-0.021-0.014c-0.019-0.014-0.032-0.025-0.041-0.034
		c-0.005-0.005-0.014-0.014-0.027-0.027s-0.023-0.022-0.027-0.027c-0.005-0.009-0.017-0.021-0.034-0.034
		c-0.01-0.014-0.014-0.022-0.014-0.027c-0.01-0.009-0.021-0.025-0.034-0.048l-0.007-0.007c0-0.005-0.003-0.007-0.007-0.007v-0.007
		c0-0.005-0.003-0.007-0.007-0.007l-2.543-4.211v5.318c0,0.224-0.08,0.412-0.239,0.567c-0.16,0.159-0.352,0.239-0.574,0.239
		c-0.224,0-0.413-0.08-0.567-0.239c-0.16-0.155-0.239-0.344-0.239-0.567V5.813c0-0.183,0.055-0.344,0.164-0.485
		c0.109-0.146,0.253-0.244,0.431-0.294c0.173-0.046,0.344-0.036,0.513,0.027c0.168,0.068,0.301,0.18,0.396,0.335l3.363,5.558
		l3.363-5.558c0.091-0.155,0.221-0.267,0.39-0.335c0.168-0.063,0.253-0.096,0.253-0.096S41.487,4.987,41.664,5.033z"/>
	<path fill="#CBCBCB" d="M45.349,14.836c-0.224,0-0.413-0.08-0.567-0.239c-0.16-0.155-0.239-0.344-0.239-0.567V5.861
		c0-0.219,0.077-0.408,0.232-0.567c0.159-0.155,0.349-0.234,0.567-0.239l2.871-0.014c0.856,0,1.581,0.273,2.174,0.82
		c0.588,0.547,0.882,1.217,0.882,2.01c0,0.766-0.28,1.429-0.841,1.989c0.674,0.556,1.012,1.26,1.012,2.112
		c0,0.788-0.301,1.463-0.902,2.023c-0.598,0.561-1.317,0.841-2.16,0.841H45.349z M46.155,9.149h2.064
		c0.387,0,0.725-0.125,1.012-0.376c0.282-0.255,0.424-0.556,0.424-0.902c0-0.342-0.14-0.629-0.417-0.861
		C48.96,6.772,48.62,6.654,48.22,6.654l-2.064,0.014V9.149z M46.155,13.223h2.222c0.4,0,0.742-0.123,1.025-0.369
		c0.282-0.241,0.424-0.535,0.424-0.882c0-0.337-0.14-0.622-0.417-0.854c-0.278-0.237-0.618-0.355-1.019-0.355
		c-0.023,0-0.044,0-0.062,0c-0.037,0-0.073,0-0.109,0h-2.064V13.223z"/>
</g>
</svg>
