<?xml version="1.0" encoding="utf-8"?>
<!-- Generator: Adobe Illustrator 17.0.0, SVG Export Plug-In . SVG Version: 6.00 Build 0)  -->
<!DOCTYPE svg PUBLIC "-//W3C//DTD SVG 1.1//EN" "http://www.w3.org/Graphics/SVG/1.1/DTD/svg11.dtd">
<svg version="1.1" id="图层_1" xmlns="http://www.w3.org/2000/svg" xmlns:xlink="http://www.w3.org/1999/xlink" x="0px" y="0px"
	 width="328.571px" height="157.143px" viewBox="0 0 328.571 157.143" enable-background="new 0 0 328.571 157.143"
	 xml:space="preserve">
<circle fill="#FFFFFF" stroke="#312F73" stroke-miterlimit="10" cx="136.07" cy="81.58" r="17.32"/>
<g>
	<g>
		<line fill="none" stroke="#535353" stroke-width="2" stroke-miterlimit="10" x1="153.385" y1="75.684" x2="154.736" y2="75.034"/>
		
			<line fill="none" stroke="#535353" stroke-width="2" stroke-miterlimit="10" stroke-dasharray="2.9603,2.9603" x1="157.405" y1="73.752" x2="209.439" y2="48.762"/>
		<line fill="none" stroke="#535353" stroke-width="2" stroke-miterlimit="10" x1="210.774" y1="48.121" x2="212.127" y2="47.471"/>
		<g>
			<path fill="#535353" d="M215.935,45.643c-1.473,1.525-3.151,3.727-3.952,5.591l-0.355-3.523l-2.527-2.479
				C211.056,45.772,213.824,45.838,215.935,45.643z"/>
		</g>
	</g>
</g>
<g>
	<path fill="#EFEFEF" d="M257.469,59.791c0,3.43-2.78,6.211-6.209,6.211h-29.182c-3.429,0-6.209-2.781-6.209-6.211V30.61
		c0-3.429,2.78-6.209,6.209-6.209h29.182c3.429,0,6.209,2.78,6.209,6.209V59.791z"/>
	<path fill="none" stroke="#7A1974" stroke-miterlimit="10" stroke-dasharray="2.9939,2.9939" d="M257.469,59.791
		c0,3.43-2.78,6.211-6.209,6.211h-29.182c-3.429,0-6.209-2.781-6.209-6.211V30.61c0-3.429,2.78-6.209,6.209-6.209h29.182
		c3.429,0,6.209,2.78,6.209,6.209V59.791z"/>
</g>
<g>
	<rect x="193.858" y="41.514" fill="none" width="85.621" height="27.449"/>
	<path fill="#951B84" d="M229.735,42.892c0.135,0.051,0.232,0.14,0.294,0.269s0.069,0.261,0.022,0.396l-1.851,5.26v0.005
		c-0.006,0.021-0.015,0.043-0.026,0.065c-0.006,0.007-0.009,0.011-0.009,0.014c-0.012,0.021-0.024,0.039-0.039,0.057
		c0.006-0.008,0.003-0.004-0.009,0.014c-0.012,0.015-0.025,0.029-0.04,0.044c-0.009,0.009-0.012,0.012-0.009,0.009
		c-0.018,0.015-0.035,0.029-0.053,0.044c0.003-0.003-0.001,0-0.013,0.009c-0.018,0.012-0.035,0.021-0.053,0.031
		c-0.009,0.003-0.012,0.004-0.009,0.004c-0.021,0.009-0.04,0.017-0.058,0.021c-0.012,0.007-0.013,0.008-0.004,0.005
		c-0.018,0.006-0.038,0.011-0.062,0.013c-0.023,0.007-0.031,0.008-0.022,0.005c-0.029,0.006-0.057,0.009-0.083,0.009
		s-0.055-0.003-0.084-0.009c0.009,0.003,0.002,0.002-0.021-0.005c-0.023-0.002-0.043-0.007-0.058-0.013
		c0.006,0.003,0.003,0.002-0.009-0.005c-0.018-0.005-0.035-0.013-0.053-0.021l-0.013-0.004c-0.018-0.01-0.035-0.02-0.053-0.031
		c0-0.003-0.002-0.004-0.005-0.004l-0.004-0.005c-0.021-0.015-0.038-0.029-0.053-0.044c0,0.003-0.005,0-0.014-0.009
		c-0.015-0.015-0.027-0.03-0.039-0.048l-0.009-0.01c-0.012-0.018-0.023-0.036-0.035-0.057c-0.003-0.006-0.006-0.01-0.009-0.014
		c-0.012-0.022-0.022-0.045-0.031-0.065v-0.005l-1.357-3.867l-1.358,3.867v0.005c-0.009,0.021-0.019,0.043-0.03,0.065
		c-0.003,0.007-0.006,0.011-0.009,0.014c-0.012,0.021-0.023,0.039-0.035,0.057c0.006-0.008,0.003-0.004-0.009,0.014
		c-0.015,0.015-0.029,0.029-0.044,0.044c-0.009,0.009-0.012,0.012-0.009,0.009c-0.015,0.015-0.032,0.029-0.053,0.044
		c0.006-0.003,0.001,0-0.014,0.009c-0.018,0.012-0.035,0.021-0.053,0.031c-0.009,0.003-0.012,0.004-0.009,0.004
		c-0.021,0.009-0.038,0.017-0.053,0.021c-0.015,0.007-0.018,0.008-0.009,0.005c-0.018,0.006-0.038,0.011-0.062,0.013
		c-0.021,0.007-0.027,0.008-0.021,0.005c-0.026,0.006-0.053,0.009-0.079,0.009c-0.029,0-0.058-0.003-0.084-0.009
		c0.009,0.003,0.002,0.002-0.021-0.005c-0.023-0.002-0.044-0.007-0.062-0.013c0.009,0.003,0.007,0.002-0.005-0.005
		c-0.018-0.005-0.036-0.013-0.057-0.021c0.003,0,0-0.001-0.009-0.004c-0.018-0.01-0.035-0.02-0.053-0.031
		c-0.003-0.003-0.006-0.004-0.009-0.004c0-0.003-0.002-0.005-0.005-0.005c-0.018-0.015-0.035-0.029-0.053-0.044
		c0.003,0.003,0,0-0.009-0.009c-0.015-0.015-0.029-0.03-0.044-0.048l-0.004-0.01c-0.015-0.018-0.028-0.036-0.04-0.057
		c-0.003-0.006-0.006-0.01-0.009-0.014c-0.012-0.022-0.021-0.045-0.026-0.065l-0.004-0.005l-1.846-5.26
		c-0.047-0.135-0.04-0.267,0.021-0.396s0.16-0.218,0.295-0.269c0.135-0.046,0.267-0.039,0.396,0.022
		c0.129,0.064,0.218,0.164,0.268,0.299l1.358,3.867l1.357-3.867v-0.005c0.003-0.005,0.006-0.014,0.009-0.025
		c0.009-0.018,0.012-0.025,0.009-0.022c0.003,0,0.008-0.006,0.014-0.018c0.023-0.047,0.053-0.088,0.088-0.123
		c0.038-0.038,0.082-0.07,0.132-0.097c0.012-0.006,0.016-0.009,0.013-0.009l0.022-0.009c0.015-0.006,0.023-0.009,0.026-0.009
		c-0.003,0-0.002-0.001,0.004-0.005c-0.003,0.004,0.003,0.002,0.018-0.004c0.012-0.003,0.021-0.006,0.026-0.009
		c0.006,0,0.015-0.001,0.026-0.005c0.009-0.002,0.017-0.004,0.022-0.004s0.016-0.001,0.03-0.004c0.009,0,0.017,0,0.022,0h0.048
		c0.009,0,0.02,0.001,0.031,0.004h0.021c0.006,0,0.017,0.002,0.031,0.004l0.018,0.005c0.009,0.003,0.021,0.006,0.035,0.009
		c0,0.003,0.001,0.004,0.004,0.004s0.006,0,0.009,0v0.005h0.005c0.006,0.003,0.015,0.008,0.026,0.013l0.021,0.005l0.018,0.013
		c0.047,0.024,0.09,0.055,0.128,0.093c0.035,0.035,0.064,0.075,0.088,0.118l0.009,0.022l0.009,0.018
		c0.006,0.015,0.01,0.025,0.013,0.03v0.005l1.358,3.867l1.357-3.867c0.047-0.135,0.135-0.234,0.264-0.299
		c0.129-0.062,0.193-0.093,0.193-0.093S229.597,42.846,229.735,42.892z"/>
	<path fill="#951B84" d="M234.748,48.123c0.144,0,0.266,0.051,0.365,0.153c0.103,0.103,0.153,0.226,0.153,0.369
		s-0.051,0.266-0.153,0.364c-0.1,0.104-0.222,0.154-0.365,0.154h-3.182c-0.144,0-0.265-0.051-0.364-0.154
		c-0.103-0.099-0.154-0.221-0.154-0.364v-5.269c0-0.146,0.052-0.27,0.154-0.369c0.1-0.103,0.221-0.154,0.364-0.154h0.005
		l3.177,0.009c0.144,0,0.267,0.052,0.369,0.153c0.1,0.104,0.149,0.227,0.149,0.369c0,0.145-0.051,0.266-0.153,0.365
		c-0.1,0.103-0.222,0.154-0.365,0.154h-0.004l-2.654-0.01v1.596h1.916c0.144,0,0.267,0.05,0.369,0.149
		c0.103,0.103,0.153,0.226,0.153,0.369s-0.051,0.267-0.153,0.369c-0.103,0.1-0.226,0.149-0.369,0.149h-1.916v1.596H234.748z"/>
	<path fill="#951B84" d="M236.766,49.164c-0.144,0-0.266-0.051-0.365-0.154c-0.103-0.099-0.153-0.221-0.153-0.364v-5.251
		c0-0.141,0.05-0.263,0.149-0.365c0.103-0.1,0.224-0.15,0.364-0.154l1.846-0.008c0.551,0,1.017,0.176,1.397,0.527
		c0.378,0.352,0.567,0.781,0.567,1.291c0,0.492-0.181,0.919-0.541,1.279c0.434,0.357,0.65,0.811,0.65,1.357
		c0,0.508-0.193,0.941-0.58,1.301c-0.384,0.361-0.847,0.541-1.389,0.541H236.766z M237.284,45.507h1.327
		c0.249,0,0.466-0.08,0.65-0.242c0.182-0.163,0.272-0.356,0.272-0.58c0-0.219-0.09-0.404-0.269-0.553
		c-0.179-0.152-0.396-0.229-0.654-0.229l-1.327,0.008V45.507z M237.284,48.127h1.428c0.258,0,0.478-0.079,0.659-0.237
		c0.182-0.155,0.272-0.344,0.272-0.567c0-0.216-0.089-0.399-0.268-0.549c-0.179-0.152-0.397-0.229-0.655-0.229
		c-0.015,0-0.027,0-0.039,0c-0.023,0-0.047,0-0.07,0h-1.327V48.127z"/>
	<path fill="#951B84" d="M244.865,45.486c0.144,0,0.266,0.051,0.365,0.153c0.103,0.1,0.153,0.222,0.153,0.364
		c0,0.145-0.051,0.266-0.153,0.365c-0.1,0.103-0.222,0.154-0.365,0.154h-2.201c-0.144,0-0.266-0.052-0.365-0.154
		c-0.103-0.1-0.153-0.221-0.153-0.365c0-0.143,0.051-0.265,0.153-0.364c0.1-0.103,0.222-0.153,0.365-0.153H244.865z"/>
	<path fill="#951B84" d="M248.415,44.382c-0.135,0.047-0.267,0.041-0.396-0.018c-0.129-0.062-0.218-0.159-0.268-0.295
		c-0.047-0.134-0.041-0.266,0.018-0.395c0.062-0.129,0.159-0.219,0.294-0.269l1.354-0.492c0.17-0.059,0.328-0.036,0.475,0.065
		c0.146,0.104,0.22,0.244,0.22,0.422v5.243c0,0.144-0.05,0.266-0.149,0.364c-0.103,0.104-0.226,0.154-0.369,0.154
		s-0.265-0.051-0.364-0.154c-0.103-0.099-0.154-0.221-0.154-0.364V44.14L248.415,44.382z"/>
</g>
<g>
	<rect x="93.626" y="77.947" fill="none" width="85.622" height="27.449"/>
	<path fill="#312F73" d="M133.938,79.445c0.16,0,0.296,0.057,0.41,0.171c0.111,0.114,0.166,0.251,0.166,0.41
		s-0.057,0.295-0.171,0.405c-0.111,0.114-0.246,0.171-0.405,0.171h-0.005l-2.949-0.01v1.772h2.129c0.16,0,0.296,0.056,0.41,0.166
		c0.114,0.114,0.171,0.251,0.171,0.41s-0.057,0.296-0.171,0.41c-0.114,0.11-0.25,0.166-0.41,0.166h-2.129v2.354
		c0,0.159-0.057,0.295-0.171,0.405c-0.114,0.114-0.25,0.171-0.41,0.171s-0.294-0.057-0.405-0.171
		c-0.114-0.11-0.171-0.246-0.171-0.405v-5.854c0-0.163,0.057-0.3,0.171-0.41c0.111-0.114,0.246-0.171,0.405-0.171h0.005
		L133.938,79.445z"/>
	<path fill="#312F73" d="M136.053,86.446c-0.16,0-0.294-0.057-0.405-0.171c-0.114-0.11-0.171-0.246-0.171-0.405v-5.825
		c0-0.159,0.057-0.295,0.171-0.405c0.111-0.114,0.246-0.171,0.405-0.171s0.294,0.057,0.405,0.171
		c0.114,0.11,0.171,0.246,0.171,0.405v5.825c0,0.159-0.057,0.295-0.171,0.405C136.347,86.39,136.212,86.446,136.053,86.446z"/>
	<path fill="#312F73" d="M140.755,79.43c0.605,0,1.122,0.2,1.548,0.601c0.43,0.4,0.645,0.882,0.645,1.445
		c0,0.554-0.207,1.028-0.62,1.426c-0.41,0.394-0.908,0.601-1.494,0.62h-0.005h-0.005h-0.01c-0.036,0.003-0.055,0.005-0.059,0.005
		l-0.029-0.005h-1.431v2.349c0,0.159-0.055,0.295-0.166,0.405c-0.114,0.114-0.25,0.171-0.41,0.171s-0.294-0.057-0.405-0.171
		c-0.114-0.11-0.171-0.246-0.171-0.405v-5.864c0-0.159,0.057-0.295,0.171-0.405c0.111-0.114,0.246-0.171,0.405-0.171H140.755z
		 M140.789,82.369c0.277-0.007,0.513-0.096,0.708-0.269c0.195-0.176,0.293-0.384,0.293-0.625c0-0.244-0.101-0.454-0.303-0.629
		c-0.202-0.176-0.446-0.264-0.732-0.264h-1.46v1.787H140.789z"/>
</g>
<path fill="#312F73" d="M257.469,133.525c0,3.43-2.78,6.211-6.209,6.211h-29.182c-3.429,0-6.209-2.781-6.209-6.211v-29.181
	c0-3.429,2.78-6.209,6.209-6.209h29.182c3.429,0,6.209,2.78,6.209,6.209V133.525z"/>
<g>
	<rect x="193.858" y="115.248" fill="none" width="85.621" height="27.449"/>
	<path fill="#FFFFFF" d="M229.735,116.626c0.135,0.051,0.232,0.14,0.294,0.269s0.069,0.261,0.022,0.396l-1.851,5.26v0.005
		c-0.006,0.021-0.015,0.043-0.026,0.065c-0.006,0.007-0.009,0.011-0.009,0.014c-0.012,0.021-0.024,0.039-0.039,0.057
		c0.006-0.008,0.003-0.004-0.009,0.014c-0.012,0.015-0.025,0.029-0.04,0.044c-0.009,0.009-0.012,0.012-0.009,0.009
		c-0.018,0.015-0.035,0.029-0.053,0.044c0.003-0.003-0.001,0-0.013,0.009c-0.018,0.012-0.035,0.021-0.053,0.031
		c-0.009,0.003-0.012,0.004-0.009,0.004c-0.021,0.009-0.04,0.017-0.058,0.021c-0.012,0.007-0.013,0.008-0.004,0.005
		c-0.018,0.006-0.038,0.011-0.062,0.013c-0.023,0.007-0.031,0.008-0.022,0.005c-0.029,0.006-0.057,0.009-0.083,0.009
		s-0.055-0.003-0.084-0.009c0.009,0.003,0.002,0.002-0.021-0.005c-0.023-0.002-0.043-0.007-0.058-0.013
		c0.006,0.003,0.003,0.002-0.009-0.005c-0.018-0.005-0.035-0.013-0.053-0.021l-0.013-0.004c-0.018-0.01-0.035-0.02-0.053-0.031
		c0-0.003-0.002-0.004-0.005-0.004l-0.004-0.005c-0.021-0.015-0.038-0.029-0.053-0.044c0,0.003-0.005,0-0.014-0.009
		c-0.015-0.015-0.027-0.03-0.039-0.048l-0.009-0.01c-0.012-0.018-0.023-0.036-0.035-0.057c-0.003-0.006-0.006-0.01-0.009-0.014
		c-0.012-0.022-0.022-0.045-0.031-0.065v-0.005l-1.357-3.867l-1.358,3.867v0.005c-0.009,0.021-0.019,0.043-0.03,0.065
		c-0.003,0.007-0.006,0.011-0.009,0.014c-0.012,0.021-0.023,0.039-0.035,0.057c0.006-0.008,0.003-0.004-0.009,0.014
		c-0.015,0.015-0.029,0.029-0.044,0.044c-0.009,0.009-0.012,0.012-0.009,0.009c-0.015,0.015-0.032,0.029-0.053,0.044
		c0.006-0.003,0.001,0-0.014,0.009c-0.018,0.012-0.035,0.021-0.053,0.031c-0.009,0.003-0.012,0.004-0.009,0.004
		c-0.021,0.009-0.038,0.017-0.053,0.021c-0.015,0.007-0.018,0.008-0.009,0.005c-0.018,0.006-0.038,0.011-0.062,0.013
		c-0.021,0.007-0.027,0.008-0.021,0.005c-0.026,0.006-0.053,0.009-0.079,0.009c-0.029,0-0.058-0.003-0.084-0.009
		c0.009,0.003,0.002,0.002-0.021-0.005c-0.023-0.002-0.044-0.007-0.062-0.013c0.009,0.003,0.007,0.002-0.005-0.005
		c-0.018-0.005-0.036-0.013-0.057-0.021c0.003,0,0-0.001-0.009-0.004c-0.018-0.01-0.035-0.02-0.053-0.031
		c-0.003-0.003-0.006-0.004-0.009-0.004c0-0.003-0.002-0.005-0.005-0.005c-0.018-0.015-0.035-0.029-0.053-0.044
		c0.003,0.003,0,0-0.009-0.009c-0.015-0.015-0.029-0.03-0.044-0.048l-0.004-0.01c-0.015-0.018-0.028-0.036-0.04-0.057
		c-0.003-0.006-0.006-0.01-0.009-0.014c-0.012-0.022-0.021-0.045-0.026-0.065l-0.004-0.005l-1.846-5.26
		c-0.047-0.135-0.04-0.267,0.021-0.396s0.16-0.218,0.295-0.269c0.135-0.046,0.267-0.039,0.396,0.022
		c0.129,0.064,0.218,0.164,0.268,0.299l1.358,3.867l1.357-3.867v-0.005c0.003-0.005,0.006-0.014,0.009-0.025
		c0.009-0.018,0.012-0.025,0.009-0.022c0.003,0,0.008-0.006,0.014-0.018c0.023-0.047,0.053-0.088,0.088-0.123
		c0.038-0.038,0.082-0.07,0.132-0.097c0.012-0.006,0.016-0.009,0.013-0.009l0.022-0.009c0.015-0.006,0.023-0.009,0.026-0.009
		c-0.003,0-0.002-0.001,0.004-0.005c-0.003,0.004,0.003,0.002,0.018-0.004c0.012-0.003,0.021-0.006,0.026-0.009
		c0.006,0,0.015-0.001,0.026-0.005c0.009-0.002,0.017-0.004,0.022-0.004s0.016-0.001,0.03-0.004c0.009,0,0.017,0,0.022,0h0.048
		c0.009,0,0.02,0.001,0.031,0.004h0.021c0.006,0,0.017,0.002,0.031,0.004l0.018,0.005c0.009,0.003,0.021,0.006,0.035,0.009
		c0,0.003,0.001,0.004,0.004,0.004s0.006,0,0.009,0v0.005h0.005c0.006,0.003,0.015,0.008,0.026,0.013l0.021,0.005l0.018,0.013
		c0.047,0.024,0.09,0.055,0.128,0.093c0.035,0.035,0.064,0.075,0.088,0.118l0.009,0.022l0.009,0.018
		c0.006,0.015,0.01,0.025,0.013,0.03v0.005l1.358,3.867l1.357-3.867c0.047-0.135,0.135-0.234,0.264-0.299
		c0.129-0.062,0.193-0.093,0.193-0.093S229.597,116.58,229.735,116.626z"/>
	<path fill="#FFFFFF" d="M234.748,121.857c0.144,0,0.266,0.051,0.365,0.153c0.103,0.103,0.153,0.226,0.153,0.369
		s-0.051,0.266-0.153,0.364c-0.1,0.104-0.222,0.154-0.365,0.154h-3.182c-0.144,0-0.265-0.051-0.364-0.154
		c-0.103-0.099-0.154-0.221-0.154-0.364v-5.269c0-0.146,0.052-0.27,0.154-0.369c0.1-0.103,0.221-0.154,0.364-0.154h0.005
		l3.177,0.009c0.144,0,0.267,0.052,0.369,0.153c0.1,0.104,0.149,0.227,0.149,0.369c0,0.145-0.051,0.266-0.153,0.365
		c-0.1,0.103-0.222,0.154-0.365,0.154h-0.004l-2.654-0.01v1.596h1.916c0.144,0,0.267,0.05,0.369,0.149
		c0.103,0.103,0.153,0.226,0.153,0.369s-0.051,0.267-0.153,0.369c-0.103,0.1-0.226,0.149-0.369,0.149h-1.916v1.596H234.748z"/>
	<path fill="#FFFFFF" d="M236.766,122.898c-0.144,0-0.266-0.051-0.365-0.154c-0.103-0.099-0.153-0.221-0.153-0.364v-5.251
		c0-0.141,0.05-0.263,0.149-0.365c0.103-0.1,0.224-0.15,0.364-0.154l1.846-0.008c0.551,0,1.017,0.176,1.397,0.527
		c0.378,0.352,0.567,0.781,0.567,1.291c0,0.492-0.181,0.919-0.541,1.279c0.434,0.357,0.65,0.811,0.65,1.357
		c0,0.508-0.193,0.941-0.58,1.301c-0.384,0.361-0.847,0.541-1.389,0.541H236.766z M237.284,119.241h1.327
		c0.249,0,0.466-0.08,0.65-0.242c0.182-0.163,0.272-0.356,0.272-0.58c0-0.219-0.09-0.404-0.269-0.553
		c-0.179-0.152-0.396-0.229-0.654-0.229l-1.327,0.008V119.241z M237.284,121.86h1.428c0.258,0,0.478-0.079,0.659-0.237
		c0.182-0.155,0.272-0.344,0.272-0.567c0-0.216-0.089-0.399-0.268-0.549c-0.179-0.152-0.397-0.229-0.655-0.229
		c-0.015,0-0.027,0-0.039,0c-0.023,0-0.047,0-0.07,0h-1.327V121.86z"/>
	<path fill="#FFFFFF" d="M244.865,119.22c0.144,0,0.266,0.051,0.365,0.153c0.103,0.1,0.153,0.222,0.153,0.364
		c0,0.145-0.051,0.266-0.153,0.365c-0.1,0.103-0.222,0.154-0.365,0.154h-2.201c-0.144,0-0.266-0.052-0.365-0.154
		c-0.103-0.1-0.153-0.221-0.153-0.365c0-0.143,0.051-0.265,0.153-0.364c0.1-0.103,0.222-0.153,0.365-0.153H244.865z"/>
	<path fill="#FFFFFF" d="M251.21,122.379c0,0.144-0.051,0.266-0.153,0.364c-0.1,0.104-0.222,0.154-0.365,0.154h-2.649
		c-0.208,0-0.36-0.092-0.457-0.277c-0.097-0.184-0.087-0.362,0.03-0.535l2.343-3.406c0.035-0.088,0.053-0.18,0.053-0.277
		c0-0.213-0.076-0.396-0.229-0.549c-0.152-0.149-0.336-0.225-0.55-0.225c-0.211,0-0.393,0.075-0.545,0.225
		c-0.152,0.152-0.229,0.336-0.229,0.549c0,0.018,0.002,0.035,0.005,0.053c0.009,0.145-0.035,0.269-0.132,0.374
		c-0.094,0.108-0.213,0.167-0.356,0.176s-0.268-0.033-0.373-0.128c-0.108-0.093-0.167-0.212-0.176-0.355
		c-0.003-0.041-0.005-0.08-0.005-0.119c0-0.5,0.178-0.928,0.532-1.283c0.354-0.354,0.78-0.531,1.278-0.531
		c0.501,0,0.929,0.178,1.283,0.531c0.354,0.355,0.532,0.783,0.532,1.283c0,0.259-0.053,0.505-0.158,0.738
		c-0.012,0.03-0.026,0.058-0.044,0.084l-1.815,2.637h1.661c0.144,0,0.266,0.05,0.365,0.149
		C251.159,122.112,251.21,122.235,251.21,122.379z"/>
</g>
<g>
	<g>
		<line fill="none" stroke="#535353" stroke-width="2" stroke-miterlimit="10" x1="153.385" y1="90.375" x2="154.736" y2="91.025"/>
		
			<line fill="none" stroke="#535353" stroke-width="2" stroke-miterlimit="10" stroke-dasharray="2.9602,2.9602" x1="157.405" y1="92.307" x2="209.44" y2="117.297"/>
		
			<line fill="none" stroke="#535353" stroke-width="2" stroke-miterlimit="10" x1="210.774" y1="117.938" x2="212.126" y2="118.588"/>
		<g>
			<path fill="#535353" d="M215.935,120.416c-2.111-0.195-4.88-0.129-6.835,0.41l2.527-2.479l0.355-3.521
				C212.783,116.69,214.462,118.891,215.935,120.416z"/>
		</g>
	</g>
</g>
<g>
	<g>
		<path fill="#FFFFFF" stroke="#383381" stroke-miterlimit="10" d="M54.659,84.748c-1.393,0.791-3.003,1.244-4.719,1.244
			c-1.716,0-3.327-0.452-4.719-1.243c-3.694,1.128-6.516,3.632-7.349,6.9h24.137C61.175,88.381,58.353,85.875,54.659,84.748z"/>
		<g>
			<path fill="#FFFFFF" stroke="#383381" stroke-miterlimit="10" d="M49.94,67.513c-4.581,0-8.294,3.716-8.294,8.298
				c0,4.582,3.713,8.295,8.294,8.295c4.58,0,8.293-3.713,8.293-8.295C58.233,71.229,54.52,67.513,49.94,67.513z M49.94,82.031
				c-2.638,0-4.891-1.633-5.796-3.959h11.592C54.83,80.398,52.577,82.031,49.94,82.031z"/>
		</g>
	</g>
</g>
<g>
	<g>
		<line fill="none" stroke="#535353" stroke-width="2" stroke-miterlimit="10" x1="57.899" y1="81.58" x2="59.399" y2="81.58"/>
		
			<line fill="none" stroke="#535353" stroke-width="2" stroke-miterlimit="10" stroke-dasharray="3.1545,3.1545" x1="62.553" y1="81.58" x2="111.448" y2="81.58"/>
		<line fill="none" stroke="#535353" stroke-width="2" stroke-miterlimit="10" x1="113.025" y1="81.58" x2="114.525" y2="81.58"/>
		<g>
			<path fill="#535353" d="M118.75,81.58c-1.988,0.737-4.454,1.996-5.983,3.329l1.205-3.329l-1.205-3.328
				C114.296,79.585,116.762,80.843,118.75,81.58z"/>
		</g>
	</g>
</g>
<g>
	<rect x="260.438" y="21.692" fill="none" width="26.436" height="49.02"/>
	<path fill="#C30D23" d="M272.321,48.012l-5.789,5.789l-2.32-2.32L270,45.692l-5.789-5.813l2.32-2.297l5.789,5.789l5.813-5.789
		l2.297,2.32l-5.789,5.789l5.789,5.789l-2.32,2.32L272.321,48.012z"/>
</g>
<g>
</g>
<g>
</g>
<g>
</g>
<g>
</g>
<g>
</g>
<g>
</g>
<g>
</g>
</svg>
