<?xml version="1.0" encoding="utf-8"?>
<!-- Generator: Adobe Illustrator 17.0.0, SVG Export Plug-In . SVG Version: 6.00 Build 0)  -->
<!DOCTYPE svg PUBLIC "-//W3C//DTD SVG 1.1//EN" "http://www.w3.org/Graphics/SVG/1.1/DTD/svg11.dtd">
<svg version="1.1" id="图层_1" xmlns="http://www.w3.org/2000/svg" xmlns:xlink="http://www.w3.org/1999/xlink" x="0px" y="0px"
	 width="328.571px" height="157.143px" viewBox="0 0 328.571 157.143" enable-background="new 0 0 328.571 157.143"
	 xml:space="preserve">
<g>
	<g>
		<line fill="none" stroke="#535353" stroke-width="2" stroke-miterlimit="10" x1="76.924" y1="81.759" x2="78.424" y2="81.759"/>
		
			<line fill="none" stroke="#535353" stroke-width="2" stroke-miterlimit="10" stroke-dasharray="2.836,2.836" x1="81.26" y1="81.759" x2="119.546" y2="81.759"/>
		<line fill="none" stroke="#535353" stroke-width="2" stroke-miterlimit="10" x1="120.964" y1="81.759" x2="122.464" y2="81.759"/>
		<g>
			<path fill="#535353" d="M126.689,81.759c-1.988,0.737-4.454,1.996-5.983,3.329l1.204-3.329l-1.204-3.328
				C122.235,79.764,124.701,81.022,126.689,81.759z"/>
		</g>
	</g>
</g>
<g>
	<g>
		<line fill="none" stroke="#535353" stroke-width="2" stroke-miterlimit="10" x1="180.773" y1="75.176" x2="182.126" y2="74.526"/>
		
			<line fill="none" stroke="#535353" stroke-width="2" stroke-miterlimit="10" stroke-dasharray="2.9603,2.9603" x1="184.794" y1="73.245" x2="236.829" y2="48.253"/>
		<line fill="none" stroke="#535353" stroke-width="2" stroke-miterlimit="10" x1="238.163" y1="47.613" x2="239.515" y2="46.963"/>
		<g>
			<path fill="#535353" d="M243.323,45.134c-1.473,1.525-3.151,3.728-3.952,5.591l-0.356-3.522l-2.526-2.479
				C238.444,45.264,241.212,45.331,243.323,45.134z"/>
		</g>
	</g>
</g>
<path fill="#EFEFEF" stroke="#35317A" stroke-miterlimit="10" d="M284.858,59.284c0,3.429-2.781,6.211-6.21,6.211h-29.181
	c-3.429,0-6.21-2.782-6.21-6.211V30.103c0-3.429,2.78-6.209,6.21-6.209h29.181c3.429,0,6.21,2.78,6.21,6.209V59.284z"/>
<g>
	<rect x="221.247" y="41.005" fill="none" width="85.621" height="27.449"/>
	<path fill="#35317A" d="M257.123,42.384c0.135,0.051,0.232,0.14,0.294,0.269s0.069,0.261,0.022,0.396l-1.851,5.26v0.005
		c-0.006,0.021-0.015,0.043-0.026,0.065c-0.006,0.007-0.009,0.011-0.009,0.014c-0.012,0.021-0.024,0.039-0.039,0.057
		c0.006-0.008,0.003-0.004-0.009,0.014c-0.012,0.015-0.025,0.029-0.04,0.044c-0.009,0.009-0.012,0.012-0.009,0.009
		c-0.018,0.015-0.035,0.029-0.053,0.044c0.003-0.003-0.001,0-0.013,0.009c-0.018,0.012-0.035,0.021-0.053,0.031
		c-0.009,0.003-0.012,0.004-0.009,0.004c-0.021,0.009-0.04,0.017-0.058,0.021c-0.012,0.007-0.013,0.008-0.004,0.005
		c-0.018,0.006-0.038,0.011-0.062,0.013c-0.023,0.007-0.031,0.008-0.022,0.005c-0.029,0.006-0.057,0.009-0.083,0.009
		s-0.055-0.003-0.084-0.009c0.009,0.003,0.002,0.002-0.021-0.005c-0.023-0.002-0.043-0.007-0.058-0.013
		c0.006,0.003,0.003,0.002-0.009-0.005c-0.018-0.005-0.035-0.013-0.053-0.021l-0.013-0.004c-0.018-0.01-0.035-0.02-0.053-0.031
		c0-0.003-0.002-0.004-0.005-0.004l-0.004-0.005c-0.021-0.015-0.038-0.029-0.053-0.044c0,0.003-0.005,0-0.014-0.009
		c-0.015-0.015-0.027-0.03-0.039-0.048l-0.009-0.01c-0.012-0.018-0.023-0.036-0.035-0.057c-0.003-0.006-0.006-0.01-0.009-0.014
		c-0.012-0.022-0.022-0.045-0.031-0.065v-0.005l-1.357-3.867l-1.358,3.867v0.005c-0.009,0.021-0.019,0.043-0.03,0.065
		c-0.003,0.007-0.006,0.011-0.009,0.014c-0.012,0.021-0.023,0.039-0.035,0.057c0.006-0.008,0.003-0.004-0.009,0.014
		c-0.015,0.015-0.029,0.029-0.044,0.044c-0.009,0.009-0.012,0.012-0.009,0.009c-0.015,0.015-0.032,0.029-0.053,0.044
		c0.006-0.003,0.001,0-0.014,0.009c-0.018,0.012-0.035,0.021-0.053,0.031c-0.009,0.003-0.012,0.004-0.009,0.004
		c-0.021,0.009-0.038,0.017-0.053,0.021c-0.015,0.007-0.018,0.008-0.009,0.005c-0.018,0.006-0.038,0.011-0.062,0.013
		c-0.021,0.007-0.027,0.008-0.021,0.005c-0.026,0.006-0.053,0.009-0.079,0.009c-0.029,0-0.058-0.003-0.084-0.009
		c0.009,0.003,0.002,0.002-0.021-0.005c-0.023-0.002-0.044-0.007-0.062-0.013c0.009,0.003,0.007,0.002-0.005-0.005
		c-0.018-0.005-0.036-0.013-0.057-0.021c0.003,0,0-0.001-0.009-0.004c-0.018-0.01-0.035-0.02-0.053-0.031
		c-0.003-0.003-0.006-0.004-0.009-0.004c0-0.003-0.002-0.005-0.005-0.005c-0.018-0.015-0.035-0.029-0.053-0.044
		c0.003,0.003,0,0-0.009-0.009c-0.015-0.015-0.029-0.03-0.044-0.048l-0.004-0.01c-0.015-0.018-0.028-0.036-0.04-0.057
		c-0.003-0.006-0.006-0.01-0.009-0.014c-0.012-0.022-0.021-0.045-0.026-0.065l-0.004-0.005l-1.846-5.26
		c-0.047-0.135-0.04-0.267,0.021-0.396s0.16-0.218,0.295-0.269c0.135-0.046,0.267-0.039,0.396,0.022
		c0.129,0.064,0.218,0.164,0.268,0.299l1.358,3.867l1.357-3.867v-0.005c0.003-0.005,0.006-0.014,0.009-0.025
		c0.009-0.018,0.012-0.025,0.009-0.022c0.003,0,0.008-0.006,0.014-0.018c0.023-0.047,0.053-0.088,0.088-0.123
		c0.038-0.038,0.082-0.07,0.132-0.097c0.012-0.006,0.016-0.009,0.013-0.009l0.022-0.009c0.015-0.006,0.023-0.009,0.026-0.009
		c-0.003,0-0.002-0.001,0.004-0.005c-0.003,0.004,0.003,0.002,0.018-0.004c0.012-0.003,0.021-0.006,0.026-0.009
		c0.006,0,0.015-0.001,0.026-0.005c0.009-0.002,0.017-0.004,0.022-0.004s0.016-0.001,0.03-0.004c0.009,0,0.017,0,0.022,0h0.048
		c0.009,0,0.02,0.001,0.031,0.004h0.021c0.006,0,0.017,0.002,0.031,0.004l0.018,0.005c0.009,0.003,0.021,0.006,0.035,0.009
		c0,0.003,0.001,0.004,0.004,0.004s0.006,0,0.009,0v0.005h0.005c0.006,0.003,0.015,0.008,0.026,0.013l0.021,0.005l0.018,0.013
		c0.047,0.024,0.09,0.055,0.128,0.093c0.035,0.035,0.064,0.075,0.088,0.118l0.009,0.022l0.009,0.018
		c0.006,0.015,0.01,0.025,0.013,0.03v0.005l1.358,3.867l1.357-3.867c0.047-0.135,0.135-0.234,0.264-0.299
		c0.129-0.062,0.193-0.093,0.193-0.093S256.986,42.338,257.123,42.384z"/>
	<path fill="#35317A" d="M262.137,47.615c0.144,0,0.266,0.051,0.365,0.153c0.103,0.103,0.153,0.226,0.153,0.369
		s-0.051,0.266-0.153,0.364c-0.1,0.104-0.222,0.154-0.365,0.154h-3.182c-0.144,0-0.265-0.051-0.364-0.154
		c-0.103-0.099-0.154-0.221-0.154-0.364v-5.269c0-0.146,0.052-0.27,0.154-0.369c0.1-0.103,0.221-0.154,0.364-0.154h0.005
		l3.177,0.009c0.144,0,0.267,0.052,0.369,0.153c0.1,0.104,0.149,0.227,0.149,0.369c0,0.145-0.051,0.266-0.153,0.365
		c-0.1,0.103-0.222,0.154-0.365,0.154h-0.004l-2.654-0.01v1.596h1.916c0.144,0,0.267,0.05,0.369,0.149
		c0.103,0.103,0.153,0.226,0.153,0.369s-0.051,0.267-0.153,0.369c-0.103,0.1-0.226,0.149-0.369,0.149h-1.916v1.596H262.137z"/>
	<path fill="#35317A" d="M264.155,48.656c-0.144,0-0.266-0.051-0.365-0.154c-0.103-0.099-0.153-0.221-0.153-0.364v-5.251
		c0-0.141,0.05-0.263,0.149-0.365c0.103-0.1,0.224-0.15,0.364-0.154l1.846-0.008c0.551,0,1.017,0.176,1.397,0.527
		c0.378,0.352,0.567,0.781,0.567,1.291c0,0.492-0.181,0.919-0.541,1.279c0.434,0.357,0.65,0.811,0.65,1.357
		c0,0.508-0.193,0.941-0.58,1.301c-0.384,0.361-0.847,0.541-1.389,0.541H264.155z M264.673,45H266c0.249,0,0.466-0.08,0.65-0.242
		c0.182-0.163,0.272-0.356,0.272-0.58c0-0.219-0.09-0.404-0.269-0.553c-0.179-0.152-0.396-0.229-0.654-0.229l-1.327,0.008V45z
		 M264.673,47.619h1.428c0.258,0,0.478-0.079,0.659-0.237c0.182-0.155,0.272-0.344,0.272-0.567c0-0.216-0.089-0.399-0.268-0.549
		c-0.179-0.152-0.397-0.229-0.655-0.229c-0.015,0-0.027,0-0.039,0c-0.023,0-0.047,0-0.07,0h-1.327V47.619z"/>
	<path fill="#35317A" d="M272.253,44.978c0.144,0,0.266,0.051,0.365,0.153c0.103,0.1,0.153,0.222,0.153,0.364
		c0,0.145-0.051,0.266-0.153,0.365c-0.1,0.103-0.222,0.154-0.365,0.154h-2.201c-0.144,0-0.266-0.052-0.365-0.154
		c-0.103-0.1-0.153-0.221-0.153-0.365c0-0.143,0.051-0.265,0.153-0.364c0.1-0.103,0.222-0.153,0.365-0.153H272.253z"/>
	<path fill="#35317A" d="M275.804,43.875c-0.135,0.047-0.267,0.041-0.396-0.018c-0.129-0.062-0.218-0.159-0.268-0.295
		c-0.047-0.134-0.041-0.266,0.018-0.395c0.062-0.129,0.159-0.219,0.294-0.269l1.354-0.492c0.17-0.059,0.328-0.036,0.475,0.065
		c0.146,0.104,0.22,0.244,0.22,0.422v5.243c0,0.144-0.05,0.266-0.149,0.364c-0.103,0.104-0.226,0.154-0.369,0.154
		s-0.265-0.051-0.364-0.154c-0.103-0.099-0.154-0.221-0.154-0.364v-4.505L275.804,43.875z"/>
</g>
<g>
	<rect x="15.18" y="76.439" fill="none" width="85.622" height="27.449"/>
	<path fill="#951B84" d="M55.493,77.937c0.16,0,0.296,0.057,0.41,0.171c0.111,0.114,0.166,0.251,0.166,0.41
		s-0.057,0.295-0.171,0.405c-0.111,0.114-0.246,0.171-0.405,0.171h-0.005l-2.949-0.01v1.772h2.129c0.16,0,0.296,0.056,0.41,0.166
		c0.114,0.114,0.171,0.251,0.171,0.41s-0.057,0.296-0.171,0.41c-0.114,0.11-0.25,0.166-0.41,0.166h-2.129v2.354
		c0,0.159-0.057,0.295-0.171,0.405c-0.114,0.114-0.25,0.171-0.41,0.171s-0.294-0.057-0.405-0.171
		c-0.114-0.11-0.171-0.246-0.171-0.405v-5.854c0-0.163,0.057-0.3,0.171-0.41c0.111-0.114,0.246-0.171,0.405-0.171h0.005
		L55.493,77.937z"/>
	<path fill="#951B84" d="M57.607,84.939c-0.16,0-0.294-0.057-0.405-0.171c-0.114-0.11-0.171-0.246-0.171-0.405v-5.825
		c0-0.159,0.057-0.295,0.171-0.405c0.111-0.114,0.246-0.171,0.405-0.171s0.294,0.057,0.405,0.171
		c0.114,0.11,0.171,0.246,0.171,0.405v5.825c0,0.159-0.057,0.295-0.171,0.405C57.902,84.882,57.767,84.939,57.607,84.939z"/>
	<path fill="#951B84" d="M62.309,77.922c0.605,0,1.122,0.2,1.548,0.601c0.43,0.4,0.645,0.882,0.645,1.445
		c0,0.554-0.207,1.028-0.62,1.425c-0.41,0.394-0.908,0.601-1.494,0.62h-0.005h-0.005h-0.01c-0.036,0.003-0.055,0.005-0.059,0.005
		l-0.029-0.005h-1.431v2.349c0,0.159-0.055,0.295-0.166,0.405c-0.114,0.114-0.25,0.171-0.41,0.171s-0.294-0.057-0.405-0.171
		c-0.114-0.11-0.171-0.246-0.171-0.405v-5.864c0-0.159,0.057-0.295,0.171-0.405c0.111-0.114,0.246-0.171,0.405-0.171H62.309z
		 M62.344,80.862c0.277-0.007,0.513-0.096,0.708-0.269c0.195-0.176,0.293-0.384,0.293-0.625c0-0.244-0.101-0.454-0.303-0.63
		s-0.446-0.264-0.732-0.264h-1.46v1.787H62.344z"/>
</g>
<circle fill="none" stroke="#7A1974" stroke-miterlimit="10" cx="57.625" cy="80.073" r="17.32"/>
<path fill="#EFEFEF" stroke="#35317A" stroke-miterlimit="10" d="M284.857,133.018c0,3.43-2.78,6.211-6.209,6.211h-29.181
	c-3.429,0-6.21-2.781-6.21-6.211v-29.181c0-3.429,2.78-6.209,6.21-6.209h29.181c3.429,0,6.209,2.78,6.209,6.209V133.018z"/>
<g>
	<rect x="221.247" y="114.74" fill="none" width="85.621" height="27.449"/>
	<path fill="#35317A" d="M257.123,116.118c0.135,0.051,0.232,0.14,0.294,0.269s0.069,0.261,0.022,0.396l-1.851,5.26v0.005
		c-0.006,0.021-0.015,0.043-0.026,0.065c-0.006,0.007-0.009,0.011-0.009,0.014c-0.012,0.021-0.024,0.039-0.039,0.057
		c0.006-0.008,0.003-0.004-0.009,0.014c-0.012,0.015-0.025,0.029-0.04,0.044c-0.009,0.009-0.012,0.012-0.009,0.009
		c-0.018,0.015-0.035,0.029-0.053,0.044c0.003-0.003-0.001,0-0.013,0.009c-0.018,0.012-0.035,0.021-0.053,0.031
		c-0.009,0.003-0.012,0.004-0.009,0.004c-0.021,0.009-0.04,0.017-0.058,0.021c-0.012,0.007-0.013,0.008-0.004,0.005
		c-0.018,0.006-0.038,0.011-0.062,0.013c-0.023,0.007-0.031,0.008-0.022,0.005c-0.029,0.006-0.057,0.009-0.083,0.009
		s-0.055-0.003-0.084-0.009c0.009,0.003,0.002,0.002-0.021-0.005c-0.023-0.002-0.043-0.007-0.058-0.013
		c0.006,0.003,0.003,0.002-0.009-0.005c-0.018-0.005-0.035-0.013-0.053-0.021l-0.013-0.004c-0.018-0.01-0.035-0.02-0.053-0.031
		c0-0.003-0.002-0.004-0.005-0.004l-0.004-0.005c-0.021-0.015-0.038-0.029-0.053-0.044c0,0.003-0.005,0-0.014-0.009
		c-0.015-0.015-0.027-0.03-0.039-0.048l-0.009-0.01c-0.012-0.018-0.023-0.036-0.035-0.057c-0.003-0.006-0.006-0.01-0.009-0.014
		c-0.012-0.022-0.022-0.045-0.031-0.065v-0.005l-1.357-3.867l-1.358,3.867v0.005c-0.009,0.021-0.019,0.043-0.03,0.065
		c-0.003,0.007-0.006,0.011-0.009,0.014c-0.012,0.021-0.023,0.039-0.035,0.057c0.006-0.008,0.003-0.004-0.009,0.014
		c-0.015,0.015-0.029,0.029-0.044,0.044c-0.009,0.009-0.012,0.012-0.009,0.009c-0.015,0.015-0.032,0.029-0.053,0.044
		c0.006-0.003,0.001,0-0.014,0.009c-0.018,0.012-0.035,0.021-0.053,0.031c-0.009,0.003-0.012,0.004-0.009,0.004
		c-0.021,0.009-0.038,0.017-0.053,0.021c-0.015,0.007-0.018,0.008-0.009,0.005c-0.018,0.006-0.038,0.011-0.062,0.013
		c-0.021,0.007-0.027,0.008-0.021,0.005c-0.026,0.006-0.053,0.009-0.079,0.009c-0.029,0-0.058-0.003-0.084-0.009
		c0.009,0.003,0.002,0.002-0.021-0.005c-0.023-0.002-0.044-0.007-0.062-0.013c0.009,0.003,0.007,0.002-0.005-0.005
		c-0.018-0.005-0.036-0.013-0.057-0.021c0.003,0,0-0.001-0.009-0.004c-0.018-0.01-0.035-0.02-0.053-0.031
		c-0.003-0.003-0.006-0.004-0.009-0.004c0-0.003-0.002-0.005-0.005-0.005c-0.018-0.015-0.035-0.029-0.053-0.044
		c0.003,0.003,0,0-0.009-0.009c-0.015-0.015-0.029-0.03-0.044-0.048l-0.004-0.01c-0.015-0.018-0.028-0.036-0.04-0.057
		c-0.003-0.006-0.006-0.01-0.009-0.014c-0.012-0.022-0.021-0.045-0.026-0.065l-0.004-0.005l-1.846-5.26
		c-0.047-0.135-0.04-0.267,0.021-0.396s0.16-0.218,0.295-0.269c0.135-0.046,0.267-0.039,0.396,0.022
		c0.129,0.064,0.218,0.164,0.268,0.299l1.358,3.867l1.357-3.867v-0.005c0.003-0.005,0.006-0.014,0.009-0.025
		c0.009-0.018,0.012-0.025,0.009-0.022c0.003,0,0.008-0.006,0.014-0.018c0.023-0.047,0.053-0.088,0.088-0.123
		c0.038-0.038,0.082-0.07,0.132-0.097c0.012-0.006,0.016-0.009,0.013-0.009l0.022-0.009c0.015-0.006,0.023-0.009,0.026-0.009
		c-0.003,0-0.002-0.001,0.004-0.005c-0.003,0.004,0.003,0.002,0.018-0.004c0.012-0.003,0.021-0.006,0.026-0.009
		c0.006,0,0.015-0.001,0.026-0.005c0.009-0.002,0.017-0.004,0.022-0.004s0.016-0.001,0.03-0.004c0.009,0,0.017,0,0.022,0h0.048
		c0.009,0,0.02,0.001,0.031,0.004h0.021c0.006,0,0.017,0.002,0.031,0.004l0.018,0.005c0.009,0.003,0.021,0.006,0.035,0.009
		c0,0.003,0.001,0.004,0.004,0.004s0.006,0,0.009,0v0.005h0.005c0.006,0.003,0.015,0.008,0.026,0.013l0.021,0.005l0.018,0.013
		c0.047,0.024,0.09,0.055,0.128,0.093c0.035,0.035,0.064,0.075,0.088,0.118l0.009,0.022l0.009,0.018
		c0.006,0.015,0.01,0.025,0.013,0.03v0.005l1.358,3.867l1.357-3.867c0.047-0.135,0.135-0.234,0.264-0.299
		c0.129-0.062,0.193-0.093,0.193-0.093S256.986,116.072,257.123,116.118z"/>
	<path fill="#35317A" d="M262.137,121.349c0.144,0,0.266,0.051,0.365,0.153c0.103,0.103,0.153,0.226,0.153,0.369
		s-0.051,0.266-0.153,0.364c-0.1,0.104-0.222,0.154-0.365,0.154h-3.182c-0.144,0-0.265-0.051-0.364-0.154
		c-0.103-0.099-0.154-0.221-0.154-0.364v-5.269c0-0.146,0.052-0.27,0.154-0.369c0.1-0.103,0.221-0.154,0.364-0.154h0.005
		l3.177,0.009c0.144,0,0.267,0.052,0.369,0.153c0.1,0.104,0.149,0.227,0.149,0.369c0,0.145-0.051,0.266-0.153,0.365
		c-0.1,0.103-0.222,0.154-0.365,0.154h-0.004l-2.654-0.01v1.596h1.916c0.144,0,0.267,0.05,0.369,0.149
		c0.103,0.103,0.153,0.226,0.153,0.369s-0.051,0.267-0.153,0.369c-0.103,0.1-0.226,0.149-0.369,0.149h-1.916v1.596H262.137z"/>
	<path fill="#35317A" d="M264.155,122.39c-0.144,0-0.266-0.051-0.365-0.154c-0.103-0.099-0.153-0.221-0.153-0.364v-5.251
		c0-0.141,0.05-0.263,0.149-0.365c0.103-0.1,0.224-0.15,0.364-0.154l1.846-0.008c0.551,0,1.017,0.176,1.397,0.527
		c0.378,0.352,0.567,0.781,0.567,1.291c0,0.492-0.181,0.919-0.541,1.279c0.434,0.357,0.65,0.811,0.65,1.357
		c0,0.508-0.193,0.941-0.58,1.301c-0.384,0.361-0.847,0.541-1.389,0.541H264.155z M264.673,118.734H266
		c0.249,0,0.466-0.08,0.65-0.242c0.182-0.163,0.272-0.356,0.272-0.58c0-0.219-0.09-0.404-0.269-0.553
		c-0.179-0.152-0.396-0.229-0.654-0.229l-1.327,0.008V118.734z M264.673,121.353h1.428c0.258,0,0.478-0.079,0.659-0.237
		c0.182-0.155,0.272-0.344,0.272-0.567c0-0.216-0.089-0.399-0.268-0.549c-0.179-0.152-0.397-0.229-0.655-0.229
		c-0.015,0-0.027,0-0.039,0c-0.023,0-0.047,0-0.07,0h-1.327V121.353z"/>
	<path fill="#35317A" d="M272.253,118.712c0.144,0,0.266,0.051,0.365,0.153c0.103,0.1,0.153,0.222,0.153,0.364
		c0,0.145-0.051,0.266-0.153,0.365c-0.1,0.103-0.222,0.154-0.365,0.154h-2.201c-0.144,0-0.266-0.052-0.365-0.154
		c-0.103-0.1-0.153-0.221-0.153-0.365c0-0.143,0.051-0.265,0.153-0.364c0.1-0.103,0.222-0.153,0.365-0.153H272.253z"/>
	<path fill="#35317A" d="M278.599,121.871c0,0.144-0.051,0.266-0.153,0.364c-0.1,0.104-0.222,0.154-0.365,0.154h-2.649
		c-0.208,0-0.36-0.092-0.457-0.277c-0.097-0.184-0.087-0.362,0.03-0.535l2.343-3.406c0.035-0.088,0.053-0.18,0.053-0.277
		c0-0.213-0.076-0.396-0.229-0.549c-0.152-0.149-0.336-0.225-0.55-0.225c-0.211,0-0.393,0.075-0.545,0.225
		c-0.152,0.152-0.229,0.336-0.229,0.549c0,0.018,0.002,0.035,0.005,0.053c0.009,0.145-0.035,0.269-0.132,0.374
		c-0.094,0.108-0.213,0.167-0.356,0.176s-0.268-0.033-0.373-0.128c-0.108-0.093-0.167-0.212-0.176-0.355
		c-0.003-0.041-0.005-0.08-0.005-0.119c0-0.5,0.178-0.928,0.532-1.283c0.354-0.354,0.78-0.531,1.278-0.531
		c0.501,0,0.929,0.178,1.283,0.531c0.354,0.355,0.532,0.783,0.532,1.283c0,0.259-0.053,0.505-0.158,0.738
		c-0.012,0.03-0.026,0.058-0.044,0.084l-1.815,2.637h1.661c0.144,0,0.266,0.05,0.365,0.149
		C278.548,121.605,278.599,121.728,278.599,121.871z"/>
</g>
<g>
	<g>
		<line fill="none" stroke="#535353" stroke-width="2" stroke-miterlimit="10" x1="180.773" y1="89.868" x2="182.126" y2="90.517"/>
		
			<line fill="none" stroke="#535353" stroke-width="2" stroke-miterlimit="10" stroke-dasharray="2.9602,2.9602" x1="184.794" y1="91.799" x2="236.829" y2="116.79"/>
		<line fill="none" stroke="#535353" stroke-width="2" stroke-miterlimit="10" x1="238.163" y1="117.43" x2="239.515" y2="118.08"/>
		<g>
			<path fill="#535353" d="M243.323,119.909c-2.111-0.195-4.88-0.129-6.835,0.41l2.527-2.479l0.355-3.521
				C240.172,116.181,241.851,118.383,243.323,119.909z"/>
		</g>
	</g>
</g>
<path fill="#FFFFFF" stroke="#35317A" stroke-miterlimit="10" d="M178.497,99.425c0,4.152-3.367,7.52-7.518,7.52h-35.331
	c-4.152,0-7.518-3.368-7.518-7.52V64.094c0-4.151,3.366-7.518,7.518-7.518h35.331c4.151,0,7.518,3.366,7.518,7.518V99.425z"/>
<g>
	<rect x="111.502" y="75.439" fill="none" width="85.622" height="27.449"/>
	<path fill="#35317A" d="M148.761,77.237c0.191,0,0.354,0.068,0.486,0.205c0.137,0.133,0.205,0.295,0.205,0.486v6.328h3.1
		c0.191,0,0.355,0.068,0.492,0.205c0.133,0.133,0.199,0.295,0.199,0.486s-0.066,0.354-0.199,0.486
		c-0.137,0.137-0.301,0.205-0.492,0.205h-3.791c-0.191,0-0.354-0.068-0.486-0.205c-0.137-0.133-0.205-0.295-0.205-0.486v-7.019
		c0-0.191,0.068-0.354,0.205-0.486C148.407,77.305,148.569,77.237,148.761,77.237z"/>
	<path fill="#35317A" d="M155.048,85.639c-0.191,0-0.354-0.068-0.486-0.205c-0.137-0.133-0.205-0.295-0.205-0.486v-7.001
		c0-0.188,0.066-0.35,0.199-0.486c0.137-0.133,0.299-0.201,0.486-0.205l2.461-0.012c0.734,0,1.355,0.234,1.863,0.703
		c0.504,0.469,0.756,1.043,0.756,1.723c0,0.656-0.24,1.225-0.721,1.705c0.578,0.477,0.867,1.08,0.867,1.811
		c0,0.676-0.258,1.254-0.773,1.734c-0.512,0.48-1.129,0.721-1.852,0.721H155.048z M155.739,80.764h1.77
		c0.332,0,0.621-0.107,0.867-0.322c0.242-0.219,0.363-0.477,0.363-0.773c0-0.293-0.119-0.539-0.357-0.738
		c-0.238-0.203-0.529-0.305-0.873-0.305l-1.77,0.012V80.764z M155.739,84.256h1.904c0.344,0,0.637-0.105,0.879-0.316
		c0.242-0.207,0.363-0.459,0.363-0.756c0-0.289-0.119-0.533-0.357-0.732c-0.238-0.203-0.529-0.305-0.873-0.305
		c-0.02,0-0.037,0-0.053,0c-0.031,0-0.063,0-0.094,0h-1.77V84.256z"/>
</g>
<g>
</g>
<g>
</g>
<g>
</g>
<g>
</g>
<g>
</g>
<g>
</g>
<g>
</g>
</svg>
