<?xml version="1.0" encoding="utf-8"?>
<!-- Generator: Adobe Illustrator 17.0.0, SVG Export Plug-In . SVG Version: 6.00 Build 0)  -->
<!DOCTYPE svg PUBLIC "-//W3C//DTD SVG 1.1//EN" "http://www.w3.org/Graphics/SVG/1.1/DTD/svg11.dtd">
<svg version="1.1" id="图层_1" xmlns="http://www.w3.org/2000/svg" xmlns:xlink="http://www.w3.org/1999/xlink" x="0px" y="0px"
	 width="328.571px" height="157.143px" viewBox="0 0 328.571 157.143" enable-background="new 0 0 328.571 157.143"
	 xml:space="preserve">
<g>
	<g>
		<line fill="none" stroke="#535353" stroke-width="2" stroke-miterlimit="10" x1="192.214" y1="76.539" x2="193.213" y2="76.58"/>
		
			<line fill="none" stroke="#535353" stroke-width="2" stroke-miterlimit="10" stroke-dasharray="1.8497,1.8497" x1="195.062" y1="76.652" x2="208.924" y2="77.203"/>
		<line fill="none" stroke="#535353" stroke-width="2" stroke-miterlimit="10" x1="209.848" y1="77.24" x2="210.848" y2="77.279"/>
		<g>
			<path fill="#535353" d="M215.068,77.447c-2.016,0.658-4.529,1.816-6.11,3.088l1.335-3.277l-1.07-3.375
				C210.697,75.275,213.111,76.631,215.068,77.447z"/>
		</g>
	</g>
</g>
<g>
	<path fill="#EFEFEF" d="M109.412,79.953c0,5.757-4.668,10.427-10.425,10.427H49.996c-5.757,0-10.425-4.67-10.425-10.427v-48.99
		c0-5.756,4.668-10.424,10.425-10.424h48.991c5.757,0,10.425,4.667,10.425,10.424V79.953z"/>
	<path fill="none" stroke="#35317A" stroke-miterlimit="10" stroke-dasharray="2.971,2.971" d="M109.412,79.953
		c0,5.757-4.668,10.427-10.425,10.427H49.996c-5.757,0-10.425-4.67-10.425-10.427v-48.99c0-5.756,4.668-10.424,10.425-10.424h48.991
		c5.757,0,10.425,4.667,10.425,10.424V79.953z"/>
</g>
<path fill="#35317A" d="M105.458,75.993c0,5.823-4.455,10.543-9.951,10.543H53.725c-5.496,0-9.951-4.72-9.951-10.543l0,0
	c0-5.823,4.455-10.543,9.951-10.543h41.782C101.003,65.45,105.458,70.17,105.458,75.993L105.458,75.993z"/>
<g>
	<rect x="31.681" y="44.735" fill="none" width="85.622" height="13.725"/>
	<path fill="#35317A" d="M51.427,51.536c-0.768,0-1.426-0.272-1.973-0.816c-0.544-0.547-0.816-1.204-0.816-1.973
		c0-0.771,0.272-1.429,0.816-1.973c0.547-0.547,1.205-0.82,1.973-0.82c0.633,0,1.201,0.192,1.703,0.578
		c0.099,0.078,0.158,0.18,0.176,0.305c0.016,0.128-0.016,0.242-0.094,0.344s-0.18,0.16-0.305,0.176
		c-0.127,0.016-0.242-0.015-0.344-0.09c-0.333-0.258-0.712-0.387-1.137-0.387c-0.513,0-0.952,0.183-1.316,0.547
		s-0.547,0.805-0.547,1.32c0,0.513,0.182,0.952,0.547,1.316s0.803,0.547,1.316,0.547c0.484,0,0.904-0.161,1.258-0.484
		c0.094-0.086,0.205-0.126,0.332-0.121s0.234,0.056,0.32,0.152c0.086,0.094,0.126,0.204,0.121,0.332s-0.055,0.234-0.148,0.32
		C52.776,51.294,52.148,51.536,51.427,51.536z"/>
	<path fill="#35317A" d="M57.072,51.536c-0.773,0-1.434-0.274-1.98-0.824c-0.549-0.547-0.824-1.207-0.824-1.98
		s0.275-1.435,0.824-1.984c0.547-0.547,1.207-0.82,1.98-0.82s1.435,0.273,1.984,0.82c0.547,0.55,0.82,1.211,0.82,1.984
		s-0.273,1.434-0.82,1.98C58.507,51.262,57.845,51.536,57.072,51.536z M57.072,46.849c-0.518,0-0.961,0.184-1.328,0.551
		c-0.37,0.37-0.555,0.813-0.555,1.332s0.185,0.961,0.555,1.328c0.367,0.37,0.81,0.555,1.328,0.555s0.962-0.185,1.332-0.555
		c0.367-0.367,0.551-0.81,0.551-1.328s-0.184-0.962-0.551-1.332C58.034,47.032,57.59,46.849,57.072,46.849z"/>
	<path fill="#35317A" d="M64.993,51.36H64.99v-0.004l-2.809-3.613v3.332c0,0.128-0.045,0.235-0.137,0.324
		c-0.088,0.091-0.197,0.137-0.324,0.137s-0.236-0.046-0.324-0.137c-0.091-0.089-0.137-0.196-0.137-0.324v-4.68
		c0-0.099,0.029-0.188,0.086-0.266c0.057-0.081,0.133-0.137,0.227-0.168c0.091-0.034,0.185-0.036,0.281-0.008
		c0.094,0.028,0.17,0.082,0.23,0.16l2.809,3.617v-3.336c0-0.128,0.044-0.235,0.133-0.324c0.091-0.091,0.201-0.137,0.328-0.137
		s0.236,0.046,0.324,0.137c0.091,0.089,0.137,0.196,0.137,0.324v4.688c0,0.005-0.001,0.013-0.004,0.023c0,0.011,0,0.017,0,0.02
		c0,0.005-0.001,0.013-0.004,0.023c0,0.011-0.001,0.019-0.004,0.023l-0.004,0.02c-0.002,0.013-0.005,0.021-0.008,0.023
		c0,0.003-0.002,0.009-0.008,0.02c-0.002,0.011-0.005,0.019-0.008,0.023l-0.008,0.02l-0.012,0.02
		c-0.002,0.005-0.006,0.013-0.012,0.023l-0.012,0.012c-0.002,0.005-0.008,0.013-0.016,0.023l-0.012,0.016
		c-0.002,0.003-0.008,0.008-0.016,0.016c-0.008,0.011-0.013,0.016-0.016,0.016c0,0.003-0.005,0.008-0.016,0.016
		c-0.008,0.008-0.014,0.013-0.02,0.016c0.008-0.005,0.006-0.004-0.004,0.004l-0.004,0.004c-0.021,0.016-0.041,0.028-0.059,0.039
		h-0.004c-0.021,0.011-0.042,0.02-0.063,0.027c-0.01,0.005-0.013,0.007-0.008,0.004c-0.021,0.008-0.043,0.013-0.066,0.016
		l-0.012,0.004c-0.023,0.003-0.045,0.004-0.066,0.004c-0.016,0-0.033-0.001-0.051-0.004c0.005,0.003,0.002,0.003-0.008,0
		c-0.016-0.003-0.029-0.005-0.039-0.008c0.002,0.003-0.002,0.001-0.016-0.004c-0.013-0.003-0.023-0.005-0.031-0.008
		c-0.002,0-0.008-0.003-0.016-0.008c-0.013-0.003-0.023-0.007-0.031-0.012c-0.005,0-0.01-0.003-0.016-0.008
		c-0.01-0.005-0.02-0.009-0.027-0.012c-0.008-0.005-0.013-0.009-0.016-0.012c-0.008-0.005-0.017-0.012-0.027-0.02
		c-0.008-0.005-0.013-0.009-0.016-0.012c-0.013-0.011-0.025-0.021-0.035-0.031l-0.004-0.004v-0.004
		c-0.01-0.011-0.016-0.016-0.016-0.016S65.001,51.371,64.993,51.36z"/>
	<path fill="#35317A" d="M68.587,46.849h-1.16c-0.127,0-0.237-0.046-0.328-0.137c-0.088-0.089-0.133-0.196-0.133-0.324
		s0.044-0.235,0.133-0.324c0.091-0.091,0.201-0.137,0.328-0.137h3.246c0.125,0,0.233,0.046,0.324,0.137
		c0.088,0.089,0.133,0.196,0.133,0.324s-0.044,0.235-0.133,0.324c-0.091,0.091-0.199,0.137-0.324,0.137h-1.164v4.227
		c0,0.128-0.045,0.237-0.137,0.328c-0.088,0.089-0.197,0.133-0.324,0.133s-0.236-0.044-0.324-0.133
		c-0.091-0.091-0.137-0.2-0.137-0.328V46.849z"/>
	<path fill="#35317A" d="M72.06,51.501c-0.117-0.05-0.201-0.133-0.25-0.25c-0.047-0.117-0.047-0.234,0-0.352l0.496-1.191v-0.004
		l1.438-3.469c0.005-0.013,0.012-0.026,0.02-0.039l0.008-0.02c0.008-0.011,0.013-0.017,0.016-0.02c0-0.003,0.004-0.009,0.012-0.02
		c0.008-0.008,0.013-0.013,0.016-0.016c0-0.003,0.004-0.008,0.012-0.016c0.01-0.011,0.016-0.017,0.016-0.02
		c0.002-0.003,0.008-0.007,0.016-0.012c0.01-0.011,0.017-0.016,0.02-0.016c-0.002,0,0.002-0.004,0.016-0.012
		c0.01-0.008,0.017-0.013,0.02-0.016l0.016-0.012c0.013-0.008,0.021-0.012,0.023-0.012c0.005-0.003,0.014-0.007,0.027-0.012
		c0.013-0.008,0.017-0.011,0.012-0.008s0,0,0.016-0.008c0.013-0.003,0.022-0.005,0.027-0.008c0.002,0,0.012-0.003,0.027-0.008
		l0.016-0.004c0.005,0,0.014-0.001,0.027-0.004l0.02-0.004c0.002,0,0.01,0,0.023,0c0.01,0,0.017,0,0.02,0c0.005,0,0.013,0,0.023,0
		h0.023l0.023,0.004l0.02,0.004c0.005,0,0.014,0.003,0.027,0.008c0.016,0.003,0.021,0.004,0.016,0.004
		c0.031,0.008,0.06,0.02,0.086,0.035c-0.002-0.003,0.002,0,0.016,0.008s0.021,0.013,0.023,0.016l0.016,0.012
		c0.01,0.008,0.017,0.013,0.02,0.016c0.002,0,0.008,0.004,0.016,0.012s0.014,0.013,0.02,0.016c0,0.003,0.004,0.008,0.012,0.016
		c0.01,0.011,0.016,0.017,0.016,0.02l0.012,0.016c0.01,0.011,0.016,0.017,0.016,0.02s0.004,0.009,0.012,0.02s0.012,0.017,0.012,0.02
		c0.008,0.013,0.014,0.026,0.02,0.039l1.438,3.469v0.004l0.496,1.191c0.047,0.117,0.047,0.234,0,0.352
		c-0.049,0.117-0.133,0.2-0.25,0.25c-0.057,0.023-0.116,0.035-0.176,0.035c-0.206,0-0.348-0.095-0.426-0.285l-0.375-0.906h-2.262
		l-0.375,0.906c-0.078,0.19-0.22,0.285-0.426,0.285c-0.06,0-0.09,0-0.09,0S72.117,51.525,72.06,51.501z M74.919,49.427l-0.754-1.813
		l-0.75,1.813H74.919z"/>
	<path fill="#35317A" d="M78.115,51.536c-0.127,0-0.236-0.046-0.324-0.137c-0.091-0.089-0.137-0.196-0.137-0.324v-4.66
		c0-0.128,0.045-0.235,0.137-0.324c0.088-0.091,0.197-0.137,0.324-0.137S78.35,46,78.439,46.091
		c0.091,0.089,0.137,0.196,0.137,0.324v4.66c0,0.128-0.045,0.235-0.137,0.324C78.35,51.49,78.242,51.536,78.115,51.536z"/>
	<path fill="#35317A" d="M83.997,51.36h-0.004v-0.004l-2.809-3.613v3.332c0,0.128-0.045,0.235-0.137,0.324
		c-0.088,0.091-0.197,0.137-0.324,0.137S80.488,51.49,80.4,51.4c-0.091-0.089-0.137-0.196-0.137-0.324v-4.68
		c0-0.099,0.029-0.188,0.086-0.266c0.057-0.081,0.133-0.137,0.227-0.168c0.091-0.034,0.185-0.036,0.281-0.008
		c0.094,0.028,0.17,0.082,0.23,0.16l2.809,3.617v-3.336c0-0.128,0.044-0.235,0.133-0.324c0.091-0.091,0.201-0.137,0.328-0.137
		s0.236,0.046,0.324,0.137c0.091,0.089,0.137,0.196,0.137,0.324v4.688c0,0.005-0.001,0.013-0.004,0.023c0,0.011,0,0.017,0,0.02
		c0,0.005-0.001,0.013-0.004,0.023c0,0.011-0.001,0.019-0.004,0.023l-0.004,0.02c-0.002,0.013-0.005,0.021-0.008,0.023
		c0,0.003-0.002,0.009-0.008,0.02c-0.002,0.011-0.005,0.019-0.008,0.023l-0.008,0.02l-0.012,0.02
		c-0.002,0.005-0.006,0.013-0.012,0.023l-0.012,0.012c-0.002,0.005-0.008,0.013-0.016,0.023l-0.012,0.016
		c-0.002,0.003-0.008,0.008-0.016,0.016c-0.008,0.011-0.013,0.016-0.016,0.016c0,0.003-0.005,0.008-0.016,0.016
		c-0.008,0.008-0.014,0.013-0.02,0.016c0.008-0.005,0.006-0.004-0.004,0.004l-0.004,0.004c-0.021,0.016-0.041,0.028-0.059,0.039
		h-0.004c-0.021,0.011-0.042,0.02-0.063,0.027c-0.01,0.005-0.013,0.007-0.008,0.004c-0.021,0.008-0.043,0.013-0.066,0.016
		l-0.012,0.004c-0.023,0.003-0.045,0.004-0.066,0.004c-0.016,0-0.033-0.001-0.051-0.004c0.005,0.003,0.002,0.003-0.008,0
		c-0.016-0.003-0.029-0.005-0.039-0.008c0.002,0.003-0.002,0.001-0.016-0.004c-0.013-0.003-0.023-0.005-0.031-0.008
		c-0.002,0-0.008-0.003-0.016-0.008c-0.013-0.003-0.023-0.007-0.031-0.012c-0.005,0-0.01-0.003-0.016-0.008
		c-0.01-0.005-0.02-0.009-0.027-0.012c-0.008-0.005-0.013-0.009-0.016-0.012c-0.008-0.005-0.017-0.012-0.027-0.02
		c-0.008-0.005-0.013-0.009-0.016-0.012c-0.013-0.011-0.025-0.021-0.035-0.031l-0.004-0.004v-0.004
		c-0.01-0.011-0.016-0.016-0.016-0.016S84.005,51.371,83.997,51.36z"/>
	<path fill="#35317A" d="M89.798,50.61c0.127,0,0.236,0.046,0.324,0.137c0.091,0.091,0.137,0.2,0.137,0.328
		s-0.045,0.235-0.137,0.324c-0.088,0.091-0.197,0.137-0.324,0.137H86.97c-0.127,0-0.236-0.046-0.324-0.137
		c-0.091-0.089-0.137-0.196-0.137-0.324v-4.684c0-0.13,0.045-0.239,0.137-0.328c0.088-0.091,0.197-0.137,0.324-0.137h0.004
		l2.824,0.008c0.127,0,0.237,0.046,0.328,0.137c0.088,0.091,0.133,0.2,0.133,0.328s-0.045,0.235-0.137,0.324
		c-0.088,0.091-0.197,0.137-0.324,0.137h-0.004l-2.359-0.008v1.418h1.703c0.127,0,0.237,0.044,0.328,0.133
		c0.091,0.091,0.137,0.2,0.137,0.328s-0.045,0.237-0.137,0.328c-0.091,0.089-0.201,0.133-0.328,0.133h-1.703v1.418H89.798z"/>
	<path fill="#35317A" d="M95.283,47.556c0,0.344-0.107,0.655-0.32,0.934c-0.206,0.276-0.477,0.473-0.813,0.59l0.887,1.797
		c0.055,0.112,0.061,0.228,0.02,0.348c-0.039,0.12-0.116,0.208-0.23,0.266c-0.065,0.031-0.133,0.047-0.203,0.047
		c-0.19,0-0.327-0.086-0.41-0.258l-1.035-2.098h-0.793v1.863c0,0.125-0.045,0.233-0.137,0.324c-0.088,0.089-0.197,0.133-0.324,0.133
		c-0.125,0-0.233-0.044-0.324-0.133c-0.088-0.091-0.133-0.199-0.133-0.324v-4.656c0-0.128,0.044-0.235,0.133-0.324
		c0.091-0.091,0.199-0.137,0.324-0.137h1.617c0.482,0,0.892,0.159,1.23,0.477C95.112,46.721,95.283,47.106,95.283,47.556z
		 M93.572,48.263c0.219-0.008,0.406-0.079,0.563-0.215c0.154-0.138,0.23-0.302,0.23-0.492c0-0.198-0.081-0.366-0.242-0.504
		s-0.355-0.207-0.582-0.207h-1.156v1.418H93.572z"/>
	<path fill="#35317A" d="M97.47,47.286c-0.12,0.042-0.237,0.036-0.352-0.016c-0.115-0.055-0.194-0.142-0.238-0.262
		c-0.042-0.12-0.037-0.237,0.016-0.352c0.055-0.114,0.142-0.194,0.262-0.238l1.203-0.438c0.151-0.052,0.292-0.032,0.422,0.059
		s0.195,0.216,0.195,0.375v4.66c0,0.128-0.044,0.235-0.133,0.324c-0.091,0.091-0.201,0.137-0.328,0.137s-0.236-0.046-0.324-0.137
		c-0.091-0.089-0.137-0.196-0.137-0.324v-4.004L97.47,47.286z"/>
</g>
<g>
	<rect x="32.681" y="72.15" fill="none" width="85.622" height="13.725"/>
	<path fill="#FFFFFF" d="M60.421,73.396c0.12,0.042,0.207,0.12,0.262,0.234s0.061,0.231,0.02,0.352l-1.637,4.66v0.004
		c-0.008,0.019-0.017,0.038-0.027,0.059c-0.002,0.005-0.005,0.009-0.008,0.012c-0.01,0.019-0.021,0.035-0.031,0.051
		c0.005-0.005,0.002-0.001-0.008,0.012c-0.013,0.013-0.026,0.026-0.039,0.039c-0.008,0.008-0.01,0.011-0.008,0.008
		c-0.013,0.013-0.029,0.026-0.047,0.039c0.005-0.003,0.002,0-0.008,0.008c-0.016,0.011-0.033,0.02-0.051,0.027l-0.008,0.004
		c-0.016,0.008-0.031,0.015-0.047,0.02c-0.01,0.005-0.013,0.007-0.008,0.004c-0.013,0.005-0.03,0.009-0.051,0.012
		c-0.021,0.005-0.027,0.007-0.02,0.004c-0.026,0.005-0.051,0.008-0.074,0.008s-0.048-0.003-0.074-0.008
		c0.008,0.003,0.001,0.001-0.02-0.004c-0.021-0.003-0.038-0.007-0.051-0.012c0.005,0.003,0.002,0.001-0.008-0.004
		c-0.016-0.005-0.031-0.012-0.047-0.02L58.421,78.9c-0.016-0.008-0.031-0.017-0.047-0.027l-0.004-0.004l-0.004-0.004
		c-0.018-0.011-0.034-0.023-0.047-0.039c0,0.003-0.004,0-0.012-0.008c-0.013-0.013-0.025-0.026-0.035-0.039
		c-0.005-0.005-0.008-0.009-0.008-0.012c-0.01-0.016-0.021-0.032-0.031-0.051c-0.002-0.003-0.005-0.007-0.008-0.012
		c-0.01-0.021-0.02-0.04-0.027-0.059v-0.004l-1.637-4.66c-0.042-0.12-0.035-0.237,0.02-0.352s0.142-0.192,0.262-0.234
		s0.237-0.035,0.352,0.02s0.193,0.142,0.234,0.262l1.203,3.426l1.203-3.426c0.042-0.12,0.12-0.207,0.234-0.262
		s0.172-0.082,0.172-0.082S60.302,73.354,60.421,73.396z"/>
	<path fill="#FFFFFF" d="M64.339,78.951c-0.773,0-1.434-0.274-1.98-0.824c-0.549-0.547-0.824-1.207-0.824-1.98
		s0.275-1.435,0.824-1.984c0.547-0.547,1.207-0.82,1.98-0.82c0.773,0,1.435,0.273,1.984,0.82c0.547,0.55,0.82,1.211,0.82,1.984
		s-0.273,1.434-0.82,1.98C65.774,78.676,65.113,78.951,64.339,78.951z M64.339,74.263c-0.518,0-0.961,0.184-1.328,0.551
		c-0.37,0.37-0.555,0.813-0.555,1.332s0.185,0.961,0.555,1.328c0.367,0.37,0.81,0.555,1.328,0.555c0.518,0,0.962-0.185,1.332-0.555
		c0.367-0.367,0.551-0.81,0.551-1.328s-0.184-0.962-0.551-1.332C65.302,74.447,64.857,74.263,64.339,74.263z"/>
	<path fill="#FFFFFF" d="M68.995,73.349c0.127,0,0.236,0.046,0.324,0.137c0.091,0.089,0.137,0.196,0.137,0.324v4.219h2.066
		c0.127,0,0.237,0.046,0.328,0.137c0.088,0.089,0.133,0.196,0.133,0.324s-0.044,0.235-0.133,0.324
		c-0.091,0.091-0.201,0.137-0.328,0.137h-2.527c-0.127,0-0.236-0.046-0.324-0.137c-0.091-0.089-0.137-0.196-0.137-0.324v-4.68
		c0-0.128,0.045-0.235,0.137-0.324C68.76,73.395,68.868,73.349,68.995,73.349z"/>
	<path fill="#FFFFFF" d="M76.449,73.349c0.125,0,0.232,0.044,0.32,0.133s0.133,0.195,0.133,0.32v3.148
		c0,0.552-0.195,1.023-0.586,1.414s-0.861,0.586-1.41,0.586c-0.552,0-1.023-0.195-1.414-0.586s-0.586-0.862-0.586-1.414v-3.148
		c0-0.125,0.044-0.231,0.133-0.32s0.195-0.133,0.32-0.133s0.232,0.044,0.32,0.133s0.133,0.195,0.133,0.32v3.148
		c0,0.302,0.107,0.56,0.32,0.773s0.471,0.32,0.773,0.32c0.299,0,0.556-0.106,0.77-0.32s0.32-0.472,0.32-0.773v-3.148
		c0-0.125,0.044-0.231,0.133-0.32S76.324,73.349,76.449,73.349z"/>
	<path fill="#FFFFFF" d="M83.695,73.349c0.099,0.028,0.18,0.085,0.242,0.168c0.063,0.081,0.094,0.173,0.094,0.277v4.695
		c0,0.128-0.044,0.235-0.133,0.324c-0.091,0.091-0.201,0.137-0.328,0.137s-0.237-0.046-0.328-0.137
		c-0.088-0.089-0.133-0.196-0.133-0.324v-3.039l-1.457,2.406v0.004l-0.004,0.004l-0.004,0.004l-0.004,0.004
		c-0.008,0.013-0.013,0.022-0.016,0.027l-0.012,0.016c-0.01,0.011-0.017,0.017-0.02,0.02s-0.008,0.008-0.016,0.016
		s-0.013,0.013-0.016,0.016c-0.005,0.005-0.013,0.012-0.023,0.02l-0.012,0.012c-0.008,0.005-0.017,0.011-0.027,0.016
		c0,0.003-0.001,0.004-0.004,0.004l-0.004,0.004h-0.004c-0.005,0.005-0.014,0.011-0.027,0.016c-0.01,0.005-0.014,0.008-0.012,0.008
		c-0.002,0-0.01,0.003-0.023,0.008c-0.06,0.026-0.123,0.038-0.188,0.035H81.23c0.005,0,0-0.001-0.016-0.004
		c-0.034-0.003-0.068-0.009-0.102-0.02c-0.013-0.003-0.018-0.004-0.016-0.004c0.005,0.003,0,0.001-0.016-0.004
		c-0.013-0.005-0.022-0.009-0.027-0.012c0.002,0,0-0.003-0.008-0.008c-0.013-0.005-0.023-0.011-0.031-0.016h-0.004l-0.004-0.004
		l-0.004-0.004c-0.01-0.005-0.02-0.012-0.027-0.02c0,0.003-0.004,0-0.012-0.008c-0.01-0.008-0.018-0.015-0.023-0.02
		c-0.002-0.003-0.008-0.008-0.016-0.016s-0.013-0.013-0.016-0.016c-0.002-0.005-0.009-0.012-0.02-0.02
		c-0.005-0.008-0.008-0.013-0.008-0.016c-0.005-0.005-0.012-0.015-0.02-0.027l-0.004-0.004c0-0.003-0.001-0.004-0.004-0.004v-0.004
		c0-0.003-0.001-0.004-0.004-0.004l-1.453-2.406v3.039c0,0.128-0.045,0.235-0.137,0.324c-0.091,0.091-0.201,0.137-0.328,0.137
		s-0.236-0.046-0.324-0.137c-0.091-0.089-0.137-0.196-0.137-0.324v-4.695c0-0.104,0.031-0.196,0.094-0.277
		c0.063-0.083,0.145-0.14,0.246-0.168c0.099-0.026,0.197-0.021,0.293,0.016c0.096,0.039,0.172,0.103,0.227,0.191l1.922,3.176
		l1.922-3.176c0.052-0.089,0.126-0.152,0.223-0.191c0.096-0.036,0.145-0.055,0.145-0.055S83.593,73.323,83.695,73.349z"/>
	<path fill="#FFFFFF" d="M89.011,78.025c0.127,0,0.236,0.046,0.324,0.137c0.091,0.091,0.137,0.2,0.137,0.328
		s-0.045,0.235-0.137,0.324c-0.088,0.091-0.197,0.137-0.324,0.137h-2.828c-0.127,0-0.236-0.046-0.324-0.137
		c-0.091-0.089-0.137-0.196-0.137-0.324v-4.684c0-0.13,0.045-0.239,0.137-0.328c0.088-0.091,0.197-0.137,0.324-0.137h0.004
		l2.824,0.008c0.127,0,0.237,0.046,0.328,0.137c0.088,0.091,0.133,0.2,0.133,0.328s-0.045,0.235-0.137,0.324
		c-0.088,0.091-0.197,0.137-0.324,0.137h-0.004l-2.359-0.008v1.418h1.703c0.127,0,0.237,0.044,0.328,0.133
		c0.091,0.091,0.137,0.2,0.137,0.328s-0.045,0.237-0.137,0.328c-0.091,0.089-0.201,0.133-0.328,0.133h-1.703v1.418H89.011z"/>
	<path fill="#FFFFFF" d="M91.538,74.701c-0.12,0.042-0.237,0.036-0.352-0.016c-0.115-0.055-0.194-0.142-0.238-0.262
		c-0.042-0.12-0.037-0.237,0.016-0.352c0.055-0.114,0.142-0.194,0.262-0.238l1.203-0.438c0.151-0.052,0.292-0.032,0.422,0.059
		s0.195,0.216,0.195,0.375v4.66c0,0.128-0.044,0.235-0.133,0.324c-0.091,0.091-0.201,0.137-0.328,0.137s-0.236-0.046-0.324-0.137
		c-0.091-0.089-0.137-0.196-0.137-0.324v-4.004L91.538,74.701z"/>
</g>
<g>
	<rect x="62.727" y="79.702" fill="none" width="26.436" height="49.02"/>
	<path fill="#C30D23" d="M74.61,106.023l-5.789,5.789l-2.32-2.32l5.789-5.789L66.5,97.89l2.32-2.297l5.789,5.789l5.813-5.789
		l2.297,2.32l-5.789,5.789l5.789,5.789l-2.32,2.32L74.61,106.023z"/>
</g>
<path fill="#EFEFEF" stroke="#35317A" stroke-miterlimit="10" d="M284.79,80.644c0,5.757-4.668,10.427-10.425,10.427h-48.991
	c-5.757,0-10.425-4.67-10.425-10.427v-48.99c0-5.756,4.668-10.424,10.425-10.424h48.991c5.757,0,10.425,4.667,10.425,10.424V80.644z
	"/>
<path fill="#35317A" d="M280.836,76.684c0,5.823-4.455,10.543-9.95,10.543h-41.783c-5.496,0-9.951-4.72-9.951-10.543l0,0
	c0-5.823,4.455-10.543,9.951-10.543h41.783C276.381,66.141,280.836,70.86,280.836,76.684L280.836,76.684z"/>
<g>
	<rect x="207.059" y="45.426" fill="none" width="85.622" height="13.725"/>
	<path fill="#35317A" d="M226.806,52.227c-0.769,0-1.426-0.272-1.973-0.816c-0.545-0.547-0.816-1.204-0.816-1.973
		c0-0.771,0.271-1.429,0.816-1.973c0.547-0.547,1.204-0.82,1.973-0.82c0.633,0,1.2,0.192,1.703,0.578
		c0.099,0.078,0.157,0.18,0.176,0.305c0.016,0.128-0.016,0.242-0.094,0.344s-0.18,0.16-0.305,0.176
		c-0.128,0.016-0.242-0.015-0.344-0.09c-0.334-0.258-0.713-0.387-1.137-0.387c-0.514,0-0.952,0.183-1.316,0.547
		c-0.365,0.364-0.547,0.805-0.547,1.32c0,0.513,0.182,0.952,0.547,1.316c0.364,0.364,0.803,0.547,1.316,0.547
		c0.484,0,0.903-0.161,1.258-0.484c0.094-0.086,0.204-0.126,0.332-0.121c0.127,0.005,0.234,0.056,0.32,0.152
		c0.086,0.094,0.126,0.204,0.121,0.332c-0.006,0.128-0.055,0.234-0.148,0.32C228.155,51.984,227.527,52.227,226.806,52.227z"/>
	<path fill="#35317A" d="M232.45,52.227c-0.773,0-1.434-0.274-1.98-0.824c-0.55-0.547-0.824-1.207-0.824-1.98
		s0.274-1.435,0.824-1.984c0.547-0.547,1.207-0.82,1.98-0.82s1.435,0.273,1.984,0.82c0.547,0.55,0.82,1.211,0.82,1.984
		s-0.273,1.434-0.82,1.98C233.885,51.952,233.224,52.227,232.45,52.227z M232.45,47.539c-0.519,0-0.961,0.184-1.328,0.551
		c-0.37,0.37-0.555,0.813-0.555,1.332s0.185,0.961,0.555,1.328c0.367,0.37,0.81,0.555,1.328,0.555c0.518,0,0.962-0.185,1.332-0.555
		c0.367-0.367,0.551-0.81,0.551-1.328s-0.184-0.962-0.551-1.332C233.412,47.723,232.968,47.539,232.45,47.539z"/>
	<path fill="#35317A" d="M240.372,52.051h-0.004v-0.004l-2.809-3.613v3.332c0,0.128-0.046,0.235-0.137,0.324
		c-0.089,0.091-0.197,0.137-0.324,0.137c-0.128,0-0.236-0.046-0.324-0.137c-0.092-0.089-0.137-0.196-0.137-0.324v-4.68
		c0-0.099,0.028-0.188,0.086-0.266c0.057-0.081,0.133-0.137,0.227-0.168c0.091-0.034,0.185-0.036,0.281-0.008
		c0.094,0.028,0.17,0.082,0.23,0.16l2.809,3.617v-3.336c0-0.128,0.044-0.235,0.133-0.324c0.091-0.091,0.2-0.137,0.328-0.137
		c0.127,0,0.235,0.046,0.324,0.137c0.091,0.089,0.137,0.196,0.137,0.324v4.688c0,0.005-0.002,0.013-0.004,0.023
		c0,0.011,0,0.017,0,0.02c0,0.005-0.002,0.013-0.004,0.023c0,0.011-0.002,0.019-0.004,0.023l-0.004,0.02
		c-0.003,0.013-0.006,0.021-0.008,0.023c0,0.003-0.003,0.009-0.008,0.02c-0.003,0.011-0.006,0.019-0.008,0.023l-0.008,0.02
		l-0.012,0.02c-0.003,0.005-0.007,0.013-0.012,0.023l-0.012,0.012c-0.003,0.005-0.008,0.013-0.016,0.023l-0.012,0.016
		c-0.003,0.003-0.008,0.008-0.016,0.016c-0.008,0.011-0.014,0.016-0.016,0.016c0,0.003-0.006,0.008-0.016,0.016
		c-0.008,0.008-0.015,0.013-0.02,0.016c0.008-0.005,0.006-0.004-0.004,0.004l-0.004,0.004c-0.021,0.016-0.041,0.028-0.059,0.039
		h-0.004c-0.021,0.011-0.042,0.02-0.063,0.027c-0.011,0.005-0.014,0.007-0.008,0.004c-0.021,0.008-0.043,0.013-0.066,0.016
		l-0.012,0.004c-0.023,0.003-0.046,0.004-0.066,0.004c-0.016,0-0.033-0.001-0.051-0.004c0.005,0.003,0.002,0.003-0.008,0
		c-0.016-0.003-0.029-0.005-0.039-0.008c0.002,0.003-0.003,0.001-0.016-0.004c-0.014-0.003-0.023-0.005-0.031-0.008
		c-0.003,0-0.008-0.003-0.016-0.008c-0.014-0.003-0.023-0.007-0.031-0.012c-0.006,0-0.011-0.003-0.016-0.008
		c-0.011-0.005-0.02-0.009-0.027-0.012c-0.008-0.005-0.014-0.009-0.016-0.012c-0.008-0.005-0.018-0.012-0.027-0.02
		c-0.008-0.005-0.014-0.009-0.016-0.012c-0.014-0.011-0.025-0.021-0.035-0.031l-0.004-0.004v-0.004
		c-0.011-0.011-0.016-0.016-0.016-0.016S240.38,52.062,240.372,52.051z"/>
	<path fill="#35317A" d="M243.966,47.539h-1.16c-0.128,0-0.237-0.046-0.328-0.137c-0.089-0.089-0.133-0.196-0.133-0.324
		s0.044-0.235,0.133-0.324c0.091-0.091,0.2-0.137,0.328-0.137h3.246c0.125,0,0.232,0.046,0.324,0.137
		c0.088,0.089,0.133,0.196,0.133,0.324s-0.045,0.235-0.133,0.324c-0.092,0.091-0.199,0.137-0.324,0.137h-1.164v4.227
		c0,0.128-0.046,0.237-0.137,0.328c-0.089,0.089-0.197,0.133-0.324,0.133c-0.128,0-0.236-0.044-0.324-0.133
		c-0.092-0.091-0.137-0.2-0.137-0.328V47.539z"/>
	<path fill="#35317A" d="M247.439,52.192c-0.117-0.05-0.201-0.133-0.25-0.25c-0.047-0.117-0.047-0.234,0-0.352l0.496-1.191v-0.004
		l1.438-3.469c0.005-0.013,0.012-0.026,0.02-0.039l0.008-0.02c0.008-0.011,0.013-0.017,0.016-0.02c0-0.003,0.004-0.009,0.012-0.02
		c0.008-0.008,0.013-0.013,0.016-0.016c0-0.003,0.004-0.008,0.012-0.016c0.01-0.011,0.016-0.017,0.016-0.02
		c0.002-0.003,0.008-0.007,0.016-0.012c0.01-0.011,0.017-0.016,0.02-0.016c-0.003,0,0.002-0.004,0.016-0.012
		c0.01-0.008,0.017-0.013,0.02-0.016l0.016-0.012c0.013-0.008,0.021-0.012,0.023-0.012c0.005-0.003,0.014-0.007,0.027-0.012
		c0.013-0.008,0.017-0.011,0.012-0.008c-0.006,0.003,0,0,0.016-0.008c0.013-0.003,0.021-0.005,0.027-0.008
		c0.002,0,0.012-0.003,0.027-0.008l0.016-0.004c0.005,0,0.014-0.001,0.027-0.004l0.02-0.004c0.002,0,0.01,0,0.023,0
		c0.01,0,0.017,0,0.02,0c0.005,0,0.013,0,0.023,0h0.023l0.023,0.004l0.02,0.004c0.005,0,0.014,0.003,0.027,0.008
		c0.016,0.003,0.021,0.004,0.016,0.004c0.031,0.008,0.06,0.02,0.086,0.035c-0.003-0.003,0.002,0,0.016,0.008
		c0.013,0.008,0.021,0.013,0.023,0.016l0.016,0.012c0.01,0.008,0.017,0.013,0.02,0.016c0.002,0,0.008,0.004,0.016,0.012
		s0.014,0.013,0.02,0.016c0,0.003,0.004,0.008,0.012,0.016c0.01,0.011,0.016,0.017,0.016,0.02l0.012,0.016
		c0.01,0.011,0.016,0.017,0.016,0.02s0.004,0.009,0.012,0.02s0.012,0.017,0.012,0.02c0.008,0.013,0.014,0.026,0.02,0.039
		l1.438,3.469v0.004l0.496,1.191c0.047,0.117,0.047,0.234,0,0.352c-0.05,0.117-0.133,0.2-0.25,0.25
		c-0.058,0.023-0.116,0.035-0.176,0.035c-0.206,0-0.348-0.095-0.426-0.285l-0.375-0.906h-2.262l-0.375,0.906
		c-0.078,0.19-0.221,0.285-0.426,0.285c-0.061,0-0.09,0-0.09,0S247.495,52.215,247.439,52.192z M250.298,50.117l-0.754-1.813
		l-0.75,1.813H250.298z"/>
	<path fill="#35317A" d="M253.493,52.227c-0.128,0-0.236-0.046-0.324-0.137c-0.092-0.089-0.137-0.196-0.137-0.324v-4.66
		c0-0.128,0.045-0.235,0.137-0.324c0.088-0.091,0.196-0.137,0.324-0.137c0.127,0,0.235,0.046,0.324,0.137
		c0.091,0.089,0.137,0.196,0.137,0.324v4.66c0,0.128-0.046,0.235-0.137,0.324C253.729,52.181,253.62,52.227,253.493,52.227z"/>
	<path fill="#35317A" d="M259.376,52.051h-0.004v-0.004l-2.809-3.613v3.332c0,0.128-0.046,0.235-0.137,0.324
		c-0.089,0.091-0.197,0.137-0.324,0.137c-0.128,0-0.236-0.046-0.324-0.137c-0.092-0.089-0.137-0.196-0.137-0.324v-4.68
		c0-0.099,0.028-0.188,0.086-0.266c0.057-0.081,0.133-0.137,0.227-0.168c0.091-0.034,0.185-0.036,0.281-0.008
		c0.094,0.028,0.17,0.082,0.23,0.16l2.809,3.617v-3.336c0-0.128,0.044-0.235,0.133-0.324c0.091-0.091,0.2-0.137,0.328-0.137
		c0.127,0,0.235,0.046,0.324,0.137c0.091,0.089,0.137,0.196,0.137,0.324v4.688c0,0.005-0.002,0.013-0.004,0.023
		c0,0.011,0,0.017,0,0.02c0,0.005-0.002,0.013-0.004,0.023c0,0.011-0.002,0.019-0.004,0.023l-0.004,0.02
		c-0.003,0.013-0.006,0.021-0.008,0.023c0,0.003-0.003,0.009-0.008,0.02c-0.003,0.011-0.006,0.019-0.008,0.023l-0.008,0.02
		l-0.012,0.02c-0.003,0.005-0.007,0.013-0.012,0.023l-0.012,0.012c-0.003,0.005-0.008,0.013-0.016,0.023l-0.012,0.016
		c-0.003,0.003-0.008,0.008-0.016,0.016c-0.008,0.011-0.014,0.016-0.016,0.016c0,0.003-0.006,0.008-0.016,0.016
		c-0.008,0.008-0.015,0.013-0.02,0.016c0.008-0.005,0.006-0.004-0.004,0.004l-0.004,0.004c-0.021,0.016-0.041,0.028-0.059,0.039
		h-0.004c-0.021,0.011-0.042,0.02-0.063,0.027c-0.011,0.005-0.014,0.007-0.008,0.004c-0.021,0.008-0.043,0.013-0.066,0.016
		l-0.012,0.004c-0.023,0.003-0.046,0.004-0.066,0.004c-0.016,0-0.033-0.001-0.051-0.004c0.005,0.003,0.002,0.003-0.008,0
		c-0.016-0.003-0.029-0.005-0.039-0.008c0.002,0.003-0.003,0.001-0.016-0.004c-0.014-0.003-0.023-0.005-0.031-0.008
		c-0.003,0-0.008-0.003-0.016-0.008c-0.014-0.003-0.023-0.007-0.031-0.012c-0.006,0-0.011-0.003-0.016-0.008
		c-0.011-0.005-0.02-0.009-0.027-0.012c-0.008-0.005-0.014-0.009-0.016-0.012c-0.008-0.005-0.018-0.012-0.027-0.02
		c-0.008-0.005-0.014-0.009-0.016-0.012c-0.014-0.011-0.025-0.021-0.035-0.031l-0.004-0.004v-0.004
		c-0.011-0.011-0.016-0.016-0.016-0.016S259.384,52.062,259.376,52.051z"/>
	<path fill="#35317A" d="M265.177,51.301c0.127,0,0.235,0.046,0.324,0.137c0.091,0.091,0.137,0.2,0.137,0.328
		s-0.046,0.235-0.137,0.324c-0.089,0.091-0.197,0.137-0.324,0.137h-2.828c-0.128,0-0.236-0.046-0.324-0.137
		c-0.092-0.089-0.137-0.196-0.137-0.324v-4.684c0-0.13,0.045-0.239,0.137-0.328c0.088-0.091,0.196-0.137,0.324-0.137h0.004
		l2.824,0.008c0.127,0,0.236,0.046,0.328,0.137c0.088,0.091,0.133,0.2,0.133,0.328s-0.046,0.235-0.137,0.324
		c-0.089,0.091-0.197,0.137-0.324,0.137h-0.004l-2.359-0.008v1.418h1.703c0.127,0,0.236,0.044,0.328,0.133
		c0.091,0.091,0.137,0.2,0.137,0.328s-0.046,0.237-0.137,0.328c-0.092,0.089-0.201,0.133-0.328,0.133h-1.703v1.418H265.177z"/>
	<path fill="#35317A" d="M270.661,48.246c0,0.344-0.107,0.655-0.32,0.934c-0.206,0.276-0.477,0.473-0.813,0.59l0.887,1.797
		c0.055,0.112,0.061,0.228,0.02,0.348c-0.039,0.12-0.116,0.208-0.23,0.266c-0.065,0.031-0.133,0.047-0.203,0.047
		c-0.19,0-0.327-0.086-0.41-0.258l-1.035-2.098h-0.793v1.863c0,0.125-0.046,0.233-0.137,0.324c-0.089,0.089-0.197,0.133-0.324,0.133
		c-0.125,0-0.233-0.044-0.324-0.133c-0.089-0.091-0.133-0.199-0.133-0.324v-4.656c0-0.128,0.044-0.235,0.133-0.324
		c0.091-0.091,0.199-0.137,0.324-0.137h1.617c0.481,0,0.892,0.159,1.23,0.477C270.491,47.411,270.661,47.796,270.661,48.246z
		 M268.95,48.953c0.219-0.008,0.406-0.079,0.563-0.215c0.153-0.138,0.23-0.302,0.23-0.492c0-0.198-0.081-0.366-0.242-0.504
		c-0.162-0.138-0.355-0.207-0.582-0.207h-1.156v1.418H268.95z"/>
	<path fill="#35317A" d="M275.333,51.766c0,0.128-0.046,0.235-0.137,0.324c-0.089,0.091-0.197,0.137-0.324,0.137h-2.355
		c-0.186,0-0.32-0.082-0.406-0.246s-0.077-0.323,0.027-0.477l2.082-3.027c0.031-0.078,0.047-0.16,0.047-0.246
		c0-0.19-0.068-0.353-0.203-0.488c-0.136-0.133-0.299-0.199-0.488-0.199c-0.188,0-0.35,0.066-0.484,0.199
		c-0.136,0.136-0.203,0.298-0.203,0.488c0,0.016,0.001,0.031,0.004,0.047c0.008,0.128-0.031,0.238-0.117,0.332
		c-0.084,0.097-0.189,0.148-0.316,0.156c-0.128,0.008-0.238-0.03-0.332-0.113c-0.097-0.083-0.148-0.188-0.156-0.316
		c-0.003-0.036-0.004-0.071-0.004-0.105c0-0.445,0.157-0.825,0.473-1.141c0.314-0.315,0.693-0.473,1.137-0.473
		c0.445,0,0.825,0.157,1.141,0.473c0.314,0.315,0.473,0.695,0.473,1.141c0,0.229-0.047,0.448-0.141,0.656
		c-0.011,0.026-0.023,0.051-0.039,0.074l-1.613,2.344h1.477c0.127,0,0.235,0.044,0.324,0.133
		C275.287,51.528,275.333,51.638,275.333,51.766z"/>
</g>
<g>
	<rect x="208.059" y="72.841" fill="none" width="85.622" height="13.725"/>
	<path fill="#FFFFFF" d="M235.8,74.087c0.119,0.042,0.207,0.12,0.262,0.234s0.061,0.231,0.02,0.352l-1.637,4.66v0.004
		c-0.008,0.019-0.018,0.038-0.027,0.059c-0.003,0.005-0.006,0.009-0.008,0.012c-0.011,0.019-0.021,0.035-0.031,0.051
		c0.005-0.005,0.002-0.001-0.008,0.012c-0.014,0.013-0.026,0.026-0.039,0.039c-0.008,0.008-0.011,0.011-0.008,0.008
		c-0.014,0.013-0.029,0.026-0.047,0.039c0.005-0.003,0.002,0-0.008,0.008c-0.016,0.011-0.033,0.02-0.051,0.027l-0.008,0.004
		c-0.016,0.008-0.031,0.015-0.047,0.02c-0.011,0.005-0.014,0.007-0.008,0.004c-0.014,0.005-0.03,0.009-0.051,0.012
		c-0.021,0.005-0.027,0.007-0.02,0.004c-0.026,0.005-0.051,0.008-0.074,0.008s-0.049-0.003-0.074-0.008
		c0.008,0.003,0.001,0.001-0.02-0.004c-0.021-0.003-0.038-0.007-0.051-0.012c0.005,0.003,0.002,0.001-0.008-0.004
		c-0.016-0.005-0.031-0.012-0.047-0.02L233.8,79.59c-0.016-0.008-0.031-0.017-0.047-0.027l-0.004-0.004l-0.004-0.004
		c-0.019-0.011-0.034-0.023-0.047-0.039c0,0.003-0.004,0-0.012-0.008c-0.014-0.013-0.025-0.026-0.035-0.039
		c-0.006-0.005-0.008-0.009-0.008-0.012c-0.011-0.016-0.021-0.032-0.031-0.051c-0.003-0.003-0.006-0.007-0.008-0.012
		c-0.011-0.021-0.02-0.04-0.027-0.059v-0.004l-1.637-4.66c-0.042-0.12-0.035-0.237,0.02-0.352s0.142-0.192,0.262-0.234
		c0.119-0.042,0.236-0.035,0.352,0.02c0.114,0.055,0.192,0.142,0.234,0.262l1.203,3.426l1.203-3.426
		c0.041-0.12,0.119-0.207,0.234-0.262c0.114-0.055,0.172-0.082,0.172-0.082S235.68,74.045,235.8,74.087z"/>
	<path fill="#FFFFFF" d="M239.718,79.641c-0.773,0-1.434-0.274-1.98-0.824c-0.55-0.547-0.824-1.207-0.824-1.98
		s0.274-1.435,0.824-1.984c0.547-0.547,1.207-0.82,1.98-0.82s1.435,0.273,1.984,0.82c0.547,0.55,0.82,1.211,0.82,1.984
		s-0.273,1.434-0.82,1.98C241.153,79.367,240.491,79.641,239.718,79.641z M239.718,74.954c-0.519,0-0.961,0.184-1.328,0.551
		c-0.37,0.37-0.555,0.813-0.555,1.332s0.185,0.961,0.555,1.328c0.367,0.37,0.81,0.555,1.328,0.555c0.518,0,0.962-0.185,1.332-0.555
		c0.367-0.367,0.551-0.81,0.551-1.328s-0.184-0.962-0.551-1.332C240.68,75.137,240.236,74.954,239.718,74.954z"/>
	<path fill="#FFFFFF" d="M244.374,74.04c0.127,0,0.235,0.046,0.324,0.137c0.091,0.089,0.137,0.196,0.137,0.324v4.219h2.066
		c0.127,0,0.236,0.046,0.328,0.137c0.088,0.089,0.133,0.196,0.133,0.324s-0.045,0.235-0.133,0.324
		c-0.092,0.091-0.201,0.137-0.328,0.137h-2.527c-0.128,0-0.236-0.046-0.324-0.137c-0.092-0.089-0.137-0.196-0.137-0.324v-4.68
		c0-0.128,0.045-0.235,0.137-0.324C244.138,74.086,244.246,74.04,244.374,74.04z"/>
	<path fill="#FFFFFF" d="M251.827,74.04c0.125,0,0.231,0.044,0.32,0.133c0.088,0.089,0.133,0.195,0.133,0.32v3.148
		c0,0.552-0.195,1.023-0.586,1.414s-0.861,0.586-1.41,0.586c-0.553,0-1.023-0.195-1.414-0.586s-0.586-0.862-0.586-1.414v-3.148
		c0-0.125,0.044-0.231,0.133-0.32c0.088-0.089,0.195-0.133,0.32-0.133s0.231,0.044,0.32,0.133c0.088,0.089,0.133,0.195,0.133,0.32
		v3.148c0,0.302,0.106,0.56,0.32,0.773c0.213,0.214,0.471,0.32,0.773,0.32c0.299,0,0.556-0.106,0.77-0.32
		c0.213-0.214,0.32-0.472,0.32-0.773v-3.148c0-0.125,0.044-0.231,0.133-0.32C251.595,74.084,251.702,74.04,251.827,74.04z"/>
	<path fill="#FFFFFF" d="M259.074,74.04c0.099,0.028,0.18,0.085,0.242,0.168c0.063,0.081,0.094,0.173,0.094,0.277v4.695
		c0,0.128-0.045,0.235-0.133,0.324c-0.092,0.091-0.201,0.137-0.328,0.137c-0.128,0-0.237-0.046-0.328-0.137
		c-0.089-0.089-0.133-0.196-0.133-0.324v-3.039l-1.457,2.406v0.004l-0.004,0.004l-0.004,0.004l-0.004,0.004
		c-0.008,0.013-0.014,0.022-0.016,0.027l-0.012,0.016c-0.011,0.011-0.018,0.017-0.02,0.02c-0.003,0.003-0.008,0.008-0.016,0.016
		s-0.014,0.013-0.016,0.016c-0.006,0.005-0.014,0.012-0.023,0.02l-0.012,0.012c-0.008,0.005-0.018,0.011-0.027,0.016
		c0,0.003-0.002,0.004-0.004,0.004l-0.004,0.004h-0.004c-0.006,0.005-0.015,0.011-0.027,0.016c-0.011,0.005-0.015,0.008-0.012,0.008
		c-0.003,0-0.011,0.003-0.023,0.008c-0.061,0.026-0.123,0.038-0.188,0.035h-0.008c0.005,0,0-0.001-0.016-0.004
		c-0.034-0.003-0.068-0.009-0.102-0.02c-0.014-0.003-0.019-0.004-0.016-0.004c0.005,0.003,0,0.001-0.016-0.004
		c-0.014-0.005-0.022-0.009-0.027-0.012c0.002,0,0-0.003-0.008-0.008c-0.014-0.005-0.023-0.011-0.031-0.016h-0.004l-0.004-0.004
		l-0.004-0.004c-0.011-0.005-0.02-0.012-0.027-0.02c0,0.003-0.004,0-0.012-0.008c-0.011-0.008-0.019-0.015-0.023-0.02
		c-0.003-0.003-0.008-0.008-0.016-0.016s-0.014-0.013-0.016-0.016c-0.003-0.005-0.01-0.012-0.02-0.02
		c-0.006-0.008-0.008-0.013-0.008-0.016c-0.006-0.005-0.012-0.015-0.02-0.027l-0.004-0.004c0-0.003-0.002-0.004-0.004-0.004v-0.004
		c0-0.003-0.002-0.004-0.004-0.004l-1.453-2.406v3.039c0,0.128-0.046,0.235-0.137,0.324c-0.092,0.091-0.201,0.137-0.328,0.137
		c-0.128,0-0.236-0.046-0.324-0.137c-0.092-0.089-0.137-0.196-0.137-0.324v-4.695c0-0.104,0.031-0.196,0.094-0.277
		c0.063-0.083,0.145-0.14,0.246-0.168c0.099-0.026,0.196-0.021,0.293,0.016c0.096,0.039,0.172,0.103,0.227,0.191l1.922,3.176
		l1.922-3.176c0.052-0.089,0.126-0.152,0.223-0.191c0.096-0.036,0.145-0.055,0.145-0.055S258.972,74.013,259.074,74.04z"/>
	<path fill="#FFFFFF" d="M264.39,78.715c0.127,0,0.235,0.046,0.324,0.137c0.091,0.091,0.137,0.2,0.137,0.328
		s-0.046,0.235-0.137,0.324c-0.089,0.091-0.197,0.137-0.324,0.137h-2.828c-0.128,0-0.236-0.046-0.324-0.137
		c-0.092-0.089-0.137-0.196-0.137-0.324v-4.684c0-0.13,0.045-0.239,0.137-0.328c0.088-0.091,0.196-0.137,0.324-0.137h0.004
		l2.824,0.008c0.127,0,0.236,0.046,0.328,0.137c0.088,0.091,0.133,0.2,0.133,0.328s-0.046,0.235-0.137,0.324
		c-0.089,0.091-0.197,0.137-0.324,0.137h-0.004l-2.359-0.008v1.418h1.703c0.127,0,0.236,0.044,0.328,0.133
		c0.091,0.091,0.137,0.2,0.137,0.328s-0.046,0.237-0.137,0.328c-0.092,0.089-0.201,0.133-0.328,0.133h-1.703v1.418H264.39z"/>
	<path fill="#FFFFFF" d="M269.402,79.18c0,0.128-0.046,0.235-0.137,0.324c-0.089,0.091-0.197,0.137-0.324,0.137h-2.355
		c-0.186,0-0.32-0.082-0.406-0.246s-0.077-0.323,0.027-0.477l2.082-3.027c0.031-0.078,0.047-0.16,0.047-0.246
		c0-0.19-0.068-0.353-0.203-0.488c-0.136-0.133-0.299-0.199-0.488-0.199c-0.188,0-0.35,0.066-0.484,0.199
		c-0.136,0.136-0.203,0.298-0.203,0.488c0,0.016,0.001,0.031,0.004,0.047c0.008,0.128-0.031,0.238-0.117,0.332
		c-0.084,0.097-0.189,0.148-0.316,0.156c-0.128,0.008-0.238-0.03-0.332-0.113c-0.097-0.083-0.148-0.188-0.156-0.316
		c-0.003-0.036-0.004-0.071-0.004-0.105c0-0.445,0.157-0.825,0.473-1.141c0.314-0.315,0.693-0.473,1.137-0.473
		c0.445,0,0.825,0.157,1.141,0.473c0.314,0.315,0.473,0.695,0.473,1.141c0,0.229-0.047,0.448-0.141,0.656
		c-0.011,0.026-0.023,0.051-0.039,0.074l-1.613,2.344h1.477c0.127,0,0.235,0.044,0.324,0.133
		C269.356,78.943,269.402,79.052,269.402,79.18z"/>
</g>
<path fill="#35317A" d="M194.214,76.993c0,5.823-4.455,10.543-9.95,10.543h-41.783c-5.496,0-9.951-4.72-9.951-10.543l0,0
	c0-5.823,4.455-10.543,9.951-10.543h41.783C189.759,66.45,194.214,71.17,194.214,76.993L194.214,76.993z"/>
<g>
	<rect x="138.788" y="72.81" fill="none" width="49.17" height="13.725"/>
	<path fill="#FFFFFF" d="M148.24,79.611c-0.127,0-0.236-0.046-0.324-0.137c-0.091-0.089-0.137-0.196-0.137-0.324v-4.668
		c0-0.125,0.044-0.233,0.133-0.324c0.091-0.089,0.199-0.134,0.324-0.137l1.641-0.008c0.49,0,0.904,0.156,1.242,0.469
		c0.336,0.313,0.504,0.695,0.504,1.148c0,0.438-0.16,0.816-0.48,1.137c0.385,0.317,0.578,0.72,0.578,1.207
		c0,0.45-0.172,0.836-0.516,1.156c-0.341,0.32-0.752,0.48-1.234,0.48H148.24z M148.701,76.361h1.18c0.221,0,0.414-0.071,0.578-0.215
		c0.162-0.146,0.242-0.317,0.242-0.516c0-0.195-0.08-0.359-0.238-0.492c-0.159-0.136-0.353-0.203-0.582-0.203l-1.18,0.008V76.361z
		 M148.701,78.689h1.27c0.229,0,0.424-0.07,0.586-0.211c0.162-0.138,0.242-0.306,0.242-0.504c0-0.192-0.08-0.355-0.238-0.488
		c-0.159-0.136-0.353-0.203-0.582-0.203c-0.013,0-0.025,0-0.035,0c-0.021,0-0.042,0-0.063,0h-1.18V78.689z"/>
	<path fill="#FFFFFF" d="M153.002,79.576c-0.117-0.05-0.201-0.133-0.25-0.25c-0.047-0.117-0.047-0.234,0-0.352l0.496-1.191v-0.004
		l1.438-3.469c0.005-0.013,0.012-0.026,0.02-0.039l0.008-0.02c0.008-0.011,0.013-0.017,0.016-0.02c0-0.003,0.004-0.009,0.012-0.02
		c0.008-0.008,0.013-0.013,0.016-0.016c0-0.003,0.004-0.008,0.012-0.016c0.01-0.011,0.016-0.017,0.016-0.02
		c0.002-0.003,0.008-0.007,0.016-0.012c0.01-0.011,0.017-0.016,0.02-0.016c-0.002,0,0.002-0.004,0.016-0.012
		c0.01-0.008,0.017-0.013,0.02-0.016l0.016-0.012c0.013-0.008,0.021-0.012,0.023-0.012c0.005-0.003,0.014-0.007,0.027-0.012
		c0.013-0.008,0.017-0.011,0.012-0.008s0,0,0.016-0.008c0.013-0.003,0.022-0.005,0.027-0.008c0.002,0,0.012-0.003,0.027-0.008
		l0.016-0.004c0.005,0,0.014-0.001,0.027-0.004l0.02-0.004c0.002,0,0.01,0,0.023,0c0.01,0,0.017,0,0.02,0c0.005,0,0.013,0,0.023,0
		h0.023l0.023,0.004l0.02,0.004c0.005,0,0.014,0.003,0.027,0.008c0.016,0.003,0.021,0.004,0.016,0.004
		c0.031,0.008,0.06,0.02,0.086,0.035c-0.002-0.003,0.002,0,0.016,0.008s0.021,0.013,0.023,0.016l0.016,0.012
		c0.01,0.008,0.017,0.013,0.02,0.016c0.002,0,0.008,0.004,0.016,0.012s0.014,0.013,0.02,0.016c0,0.003,0.004,0.008,0.012,0.016
		c0.01,0.011,0.016,0.017,0.016,0.02l0.012,0.016c0.01,0.011,0.016,0.017,0.016,0.02s0.004,0.009,0.012,0.02s0.012,0.017,0.012,0.02
		c0.008,0.013,0.014,0.026,0.02,0.039l1.438,3.469v0.004l0.496,1.191c0.047,0.117,0.047,0.234,0,0.352
		c-0.049,0.117-0.133,0.2-0.25,0.25c-0.057,0.023-0.116,0.035-0.176,0.035c-0.206,0-0.348-0.095-0.426-0.285l-0.375-0.906h-2.262
		l-0.375,0.906c-0.078,0.19-0.22,0.285-0.426,0.285c-0.06,0-0.09,0-0.09,0S153.059,79.599,153.002,79.576z M155.861,77.502
		l-0.754-1.813l-0.75,1.813H155.861z"/>
	<path fill="#FFFFFF" d="M161.021,79.611c-0.768,0-1.426-0.272-1.973-0.816c-0.544-0.547-0.816-1.204-0.816-1.973
		c0-0.771,0.272-1.429,0.816-1.973c0.547-0.547,1.205-0.82,1.973-0.82c0.633,0,1.201,0.192,1.703,0.578
		c0.099,0.078,0.158,0.18,0.176,0.305c0.016,0.128-0.016,0.242-0.094,0.344s-0.18,0.16-0.305,0.176
		c-0.127,0.016-0.242-0.015-0.344-0.09c-0.333-0.258-0.712-0.387-1.137-0.387c-0.513,0-0.952,0.183-1.316,0.547
		s-0.547,0.805-0.547,1.32c0,0.513,0.182,0.952,0.547,1.316s0.803,0.547,1.316,0.547c0.484,0,0.904-0.161,1.258-0.484
		c0.094-0.086,0.205-0.126,0.332-0.121s0.234,0.056,0.32,0.152c0.086,0.094,0.126,0.204,0.121,0.332s-0.055,0.234-0.148,0.32
		C162.37,79.369,161.742,79.611,161.021,79.611z"/>
	<path fill="#FFFFFF" d="M164.818,79.576c-0.125,0-0.233-0.046-0.324-0.137c-0.088-0.089-0.133-0.195-0.133-0.32v-4.641
		c0-0.125,0.044-0.231,0.133-0.32c0.091-0.091,0.199-0.137,0.324-0.137s0.233,0.046,0.324,0.137c0.088,0.089,0.133,0.195,0.133,0.32
		v2.055l2.234-2.348c0.086-0.091,0.193-0.14,0.32-0.145c0.125-0.003,0.233,0.04,0.324,0.129c0.091,0.086,0.138,0.191,0.141,0.316
		c0.005,0.128-0.037,0.237-0.125,0.328l-1.875,1.973l1.949,2.051c0.086,0.094,0.127,0.203,0.125,0.328s-0.049,0.231-0.141,0.32
		c-0.088,0.083-0.194,0.125-0.316,0.125c-0.13,0-0.241-0.047-0.332-0.141l-1.918-2.02l-0.387,0.41v1.258
		c0,0.125-0.044,0.231-0.133,0.32C165.051,79.53,164.943,79.576,164.818,79.576z"/>
	<path fill="#FFFFFF" d="M173.041,74.009c0.125,0,0.231,0.044,0.32,0.133c0.088,0.089,0.133,0.195,0.133,0.32v3.148
		c0,0.552-0.195,1.023-0.586,1.414s-0.861,0.586-1.41,0.586c-0.553,0-1.023-0.195-1.415-0.586c-0.391-0.391-0.586-0.862-0.586-1.414
		v-3.148c0-0.125,0.044-0.231,0.133-0.32s0.195-0.133,0.32-0.133s0.232,0.044,0.321,0.133c0.088,0.089,0.133,0.195,0.133,0.32v3.148
		c0,0.302,0.106,0.56,0.32,0.773c0.213,0.214,0.471,0.32,0.773,0.32c0.299,0,0.556-0.106,0.77-0.32
		c0.213-0.214,0.32-0.472,0.32-0.773v-3.148c0-0.125,0.044-0.231,0.133-0.32C172.809,74.053,172.916,74.009,173.041,74.009z"/>
	<path fill="#FFFFFF" d="M177.155,73.998c0.484,0,0.896,0.16,1.238,0.48c0.344,0.32,0.516,0.706,0.516,1.156
		c0,0.442-0.166,0.823-0.496,1.141c-0.328,0.315-0.727,0.48-1.195,0.496h-0.004h-0.004h-0.008c-0.029,0.003-0.045,0.004-0.047,0.004
		l-0.023-0.004h-1.145v1.879c0,0.128-0.045,0.235-0.133,0.324c-0.092,0.091-0.201,0.137-0.328,0.137
		c-0.128,0-0.236-0.046-0.324-0.137c-0.092-0.089-0.137-0.196-0.137-0.324v-4.691c0-0.128,0.045-0.235,0.137-0.324
		c0.088-0.091,0.196-0.137,0.324-0.137H177.155z M177.182,76.349c0.221-0.005,0.41-0.077,0.566-0.215
		c0.156-0.141,0.234-0.308,0.234-0.5c0-0.195-0.081-0.363-0.242-0.504c-0.162-0.141-0.357-0.211-0.586-0.211h-1.168v1.43H177.182z"
		/>
</g>
<g>
	<rect x="74.492" y="119.837" fill="none" width="85.622" height="27.45"/>
	<path fill="#35317A" d="M101.826,128.337c-0.96,0-1.782-0.34-2.466-1.021c-0.68-0.684-1.021-1.506-1.021-2.466
		c0-0.964,0.34-1.785,1.021-2.466c0.684-0.684,1.505-1.025,2.466-1.025c0.791,0,1.5,0.241,2.129,0.723
		c0.124,0.098,0.197,0.225,0.22,0.381c0.02,0.159-0.02,0.303-0.117,0.43s-0.225,0.2-0.381,0.22c-0.16,0.02-0.303-0.018-0.43-0.112
		c-0.417-0.322-0.89-0.483-1.421-0.483c-0.641,0-1.19,0.228-1.646,0.684s-0.684,1.006-0.684,1.65c0,0.642,0.228,1.189,0.684,1.646
		s1.004,0.684,1.646,0.684c0.605,0,1.129-0.202,1.572-0.605c0.117-0.107,0.255-0.158,0.415-0.151s0.293,0.07,0.4,0.19
		c0.107,0.117,0.158,0.256,0.151,0.415s-0.068,0.293-0.186,0.4C103.512,128.034,102.728,128.337,101.826,128.337z"/>
	<path fill="#35317A" d="M110.581,123.361c0,0.43-0.133,0.818-0.4,1.167c-0.257,0.345-0.596,0.591-1.016,0.737l1.108,2.246
		c0.068,0.14,0.077,0.285,0.024,0.435c-0.049,0.149-0.145,0.261-0.288,0.332c-0.082,0.039-0.166,0.059-0.254,0.059
		c-0.238,0-0.409-0.107-0.513-0.322l-1.294-2.622h-0.991v2.329c0,0.156-0.057,0.291-0.171,0.405
		c-0.111,0.11-0.246,0.166-0.405,0.166c-0.156,0-0.292-0.056-0.405-0.166c-0.111-0.114-0.166-0.249-0.166-0.405v-5.82
		c0-0.159,0.055-0.295,0.166-0.405c0.114-0.114,0.249-0.171,0.405-0.171h2.021c0.602,0,1.115,0.198,1.538,0.596
		C110.367,122.318,110.581,122.798,110.581,123.361z M108.442,124.245c0.273-0.01,0.508-0.1,0.703-0.269
		c0.192-0.173,0.288-0.378,0.288-0.615c0-0.247-0.101-0.457-0.303-0.63s-0.444-0.259-0.728-0.259h-1.445v1.772H108.442z"/>
	<path fill="#35317A" d="M116.362,127.18c0.16,0,0.294,0.057,0.405,0.171c0.114,0.114,0.171,0.251,0.171,0.41
		s-0.057,0.295-0.171,0.405c-0.111,0.114-0.246,0.171-0.405,0.171h-3.535c-0.16,0-0.294-0.057-0.405-0.171
		c-0.114-0.11-0.171-0.246-0.171-0.405v-5.854c0-0.163,0.057-0.3,0.171-0.41c0.111-0.114,0.246-0.171,0.405-0.171h0.005l3.53,0.01
		c0.16,0,0.296,0.057,0.41,0.171c0.111,0.114,0.166,0.251,0.166,0.41s-0.057,0.295-0.171,0.405
		c-0.111,0.114-0.246,0.171-0.405,0.171h-0.005l-2.949-0.01v1.772h2.129c0.16,0,0.296,0.056,0.41,0.166
		c0.114,0.114,0.171,0.251,0.171,0.41s-0.057,0.296-0.171,0.41c-0.114,0.11-0.25,0.166-0.41,0.166h-2.129v1.772H116.362z"/>
	<path fill="#35317A" d="M118.345,128.293c-0.146-0.062-0.25-0.166-0.313-0.312c-0.059-0.146-0.059-0.293,0-0.439l0.62-1.489v-0.005
		l1.797-4.336c0.006-0.017,0.015-0.032,0.024-0.049l0.01-0.024c0.01-0.013,0.016-0.021,0.02-0.024c0-0.003,0.005-0.012,0.015-0.024
		c0.01-0.01,0.016-0.017,0.02-0.02c0-0.003,0.005-0.01,0.015-0.02c0.013-0.013,0.02-0.021,0.02-0.024
		c0.003-0.003,0.01-0.008,0.02-0.015c0.013-0.013,0.021-0.02,0.024-0.02c-0.003,0,0.003-0.005,0.02-0.015
		c0.013-0.01,0.021-0.017,0.024-0.02l0.02-0.015c0.016-0.01,0.026-0.015,0.029-0.015c0.006-0.003,0.018-0.008,0.034-0.015
		c0.016-0.01,0.021-0.013,0.015-0.01s0,0,0.02-0.01c0.016-0.003,0.028-0.007,0.034-0.01c0.003,0,0.015-0.003,0.034-0.01l0.02-0.005
		c0.006,0,0.018-0.002,0.034-0.005l0.024-0.005c0.003,0,0.013,0,0.029,0c0.013,0,0.021,0,0.024,0c0.006,0,0.016,0,0.029,0h0.029
		l0.029,0.005l0.024,0.005c0.006,0,0.018,0.003,0.034,0.01c0.02,0.003,0.026,0.005,0.02,0.005c0.039,0.01,0.075,0.024,0.107,0.044
		c-0.003-0.003,0.003,0,0.02,0.01s0.026,0.017,0.029,0.02l0.02,0.015c0.013,0.01,0.021,0.017,0.024,0.02
		c0.003,0,0.01,0.005,0.02,0.015s0.018,0.017,0.024,0.02c0,0.003,0.005,0.01,0.015,0.02c0.013,0.013,0.02,0.021,0.02,0.024
		l0.015,0.02c0.013,0.013,0.02,0.021,0.02,0.024s0.005,0.012,0.015,0.024s0.015,0.021,0.015,0.024
		c0.01,0.017,0.018,0.032,0.024,0.049l1.797,4.336v0.005l0.62,1.489c0.059,0.146,0.059,0.293,0,0.439
		c-0.062,0.146-0.166,0.251-0.313,0.312c-0.072,0.029-0.145,0.044-0.22,0.044c-0.257,0-0.435-0.119-0.532-0.356l-0.469-1.133h-2.827
		l-0.469,1.133c-0.098,0.237-0.275,0.356-0.532,0.356c-0.075,0-0.112,0-0.112,0S118.416,128.322,118.345,128.293z M121.919,125.7
		l-0.942-2.266l-0.938,2.266H121.919z"/>
	<path fill="#35317A" d="M126.684,122.478h-1.45c-0.16,0-0.296-0.057-0.41-0.171c-0.111-0.11-0.166-0.246-0.166-0.405
		s0.055-0.295,0.166-0.405c0.114-0.114,0.25-0.171,0.41-0.171h4.058c0.156,0,0.292,0.057,0.405,0.171
		c0.111,0.11,0.166,0.246,0.166,0.405s-0.055,0.295-0.166,0.405c-0.114,0.114-0.249,0.171-0.405,0.171h-1.455v5.283
		c0,0.159-0.057,0.296-0.171,0.41c-0.111,0.11-0.246,0.166-0.405,0.166s-0.294-0.056-0.405-0.166
		c-0.114-0.114-0.171-0.251-0.171-0.41V122.478z"/>
	<path fill="#35317A" d="M135.249,127.18c0.16,0,0.294,0.057,0.405,0.171c0.114,0.114,0.171,0.251,0.171,0.41
		s-0.057,0.295-0.171,0.405c-0.111,0.114-0.246,0.171-0.405,0.171h-3.535c-0.16,0-0.294-0.057-0.405-0.171
		c-0.114-0.11-0.171-0.246-0.171-0.405v-5.854c0-0.163,0.057-0.3,0.171-0.41c0.111-0.114,0.246-0.171,0.405-0.171h0.005l3.53,0.01
		c0.16,0,0.296,0.057,0.41,0.171c0.111,0.114,0.166,0.251,0.166,0.41s-0.057,0.295-0.171,0.405
		c-0.111,0.114-0.246,0.171-0.405,0.171h-0.005l-2.949-0.01v1.772h2.129c0.16,0,0.296,0.056,0.41,0.166
		c0.114,0.114,0.171,0.251,0.171,0.41s-0.057,0.296-0.171,0.41c-0.114,0.11-0.25,0.166-0.41,0.166h-2.129v1.772H135.249z"/>
	<path fill="#35317A" d="M95.039,138.252c-0.026,0.583-0.259,1.076-0.698,1.479c-0.443,0.403-0.97,0.605-1.582,0.605
		c-0.531,0-1.006-0.114-1.426-0.342c-0.504-0.273-0.825-0.671-0.962-1.191c-0.039-0.153-0.02-0.298,0.059-0.435
		c0.082-0.137,0.199-0.225,0.352-0.264s0.298-0.02,0.435,0.059c0.137,0.081,0.225,0.198,0.264,0.352
		c0.059,0.218,0.218,0.389,0.479,0.513c0.234,0.107,0.501,0.161,0.801,0.161c0.306,0,0.568-0.096,0.786-0.288
		c0.221-0.188,0.338-0.423,0.352-0.703c0.006-0.169-0.054-0.32-0.181-0.454c-0.202-0.215-0.541-0.325-1.016-0.332h-0.005
		c-0.013,0-0.016,0-0.01,0c-0.003,0-0.006,0-0.01,0c-0.797-0.013-1.408-0.242-1.831-0.688c-0.348-0.371-0.511-0.803-0.488-1.294
		c0.026-0.586,0.259-1.081,0.698-1.484s0.967-0.605,1.582-0.605c0.531,0,1.006,0.114,1.426,0.342
		c0.504,0.273,0.825,0.671,0.962,1.191c0.039,0.153,0.018,0.298-0.063,0.435c-0.078,0.137-0.194,0.225-0.347,0.264
		s-0.298,0.02-0.435-0.059c-0.137-0.081-0.225-0.198-0.264-0.352c-0.059-0.218-0.22-0.389-0.483-0.513
		c-0.231-0.107-0.497-0.161-0.796-0.161c-0.306,0-0.57,0.096-0.791,0.288c-0.218,0.192-0.333,0.427-0.347,0.703
		c-0.006,0.169,0.054,0.322,0.181,0.459c0.202,0.212,0.541,0.32,1.016,0.327h0.024c0.797,0.013,1.408,0.244,1.831,0.693
		C94.899,137.326,95.062,137.757,95.039,138.252z"/>
	<path fill="#35317A" d="M101.357,140.117h-0.005v-0.005l-3.511-4.517v4.165c0,0.159-0.057,0.295-0.171,0.405
		c-0.111,0.114-0.246,0.171-0.405,0.171s-0.294-0.057-0.405-0.171c-0.114-0.11-0.171-0.246-0.171-0.405v-5.85
		c0-0.124,0.036-0.234,0.107-0.332c0.072-0.101,0.166-0.171,0.283-0.21c0.114-0.042,0.231-0.046,0.352-0.01
		c0.117,0.036,0.213,0.103,0.288,0.2l3.511,4.521v-4.17c0-0.159,0.055-0.295,0.166-0.405c0.114-0.114,0.25-0.171,0.41-0.171
		s0.294,0.057,0.405,0.171c0.114,0.11,0.171,0.246,0.171,0.405v5.859c0,0.007-0.001,0.017-0.005,0.029c0,0.013,0,0.021,0,0.024
		c0,0.007-0.001,0.017-0.005,0.029c0,0.013-0.001,0.022-0.005,0.029l-0.005,0.024c-0.003,0.017-0.006,0.026-0.01,0.029
		c0,0.003-0.003,0.012-0.01,0.024c-0.003,0.013-0.006,0.022-0.01,0.029l-0.01,0.024l-0.015,0.024
		c-0.003,0.007-0.008,0.017-0.015,0.029l-0.015,0.015c-0.003,0.007-0.01,0.017-0.02,0.029l-0.015,0.02
		c-0.003,0.003-0.01,0.01-0.02,0.02c-0.01,0.013-0.016,0.02-0.02,0.02c0,0.003-0.006,0.01-0.02,0.02
		c-0.01,0.01-0.018,0.017-0.024,0.02c0.01-0.007,0.008-0.005-0.005,0.005l-0.005,0.005c-0.026,0.02-0.05,0.036-0.073,0.049h-0.005
		c-0.026,0.013-0.052,0.024-0.078,0.034c-0.013,0.007-0.016,0.008-0.01,0.005c-0.026,0.01-0.054,0.017-0.083,0.02l-0.015,0.005
		c-0.029,0.003-0.057,0.005-0.083,0.005c-0.02,0-0.041-0.002-0.063-0.005c0.006,0.003,0.003,0.003-0.01,0
		c-0.02-0.003-0.036-0.007-0.049-0.01c0.003,0.003-0.003,0.002-0.02-0.005c-0.016-0.003-0.029-0.007-0.039-0.01
		c-0.003,0-0.01-0.003-0.02-0.01c-0.016-0.003-0.029-0.008-0.039-0.015c-0.006,0-0.013-0.003-0.02-0.01
		c-0.013-0.007-0.024-0.012-0.034-0.015c-0.01-0.007-0.016-0.012-0.02-0.015c-0.01-0.007-0.021-0.015-0.034-0.024
		c-0.01-0.007-0.016-0.012-0.02-0.015c-0.016-0.013-0.031-0.026-0.044-0.039l-0.005-0.005v-0.005c-0.013-0.013-0.02-0.02-0.02-0.02
		S101.367,140.13,101.357,140.117z"/>
	<path fill="#35317A" d="M104.385,140.293c-0.146-0.062-0.25-0.166-0.313-0.313c-0.059-0.146-0.059-0.293,0-0.439l0.62-1.489v-0.005
		l1.797-4.336c0.006-0.017,0.015-0.032,0.024-0.049l0.01-0.024c0.01-0.013,0.016-0.021,0.02-0.024c0-0.003,0.005-0.012,0.015-0.024
		c0.01-0.01,0.016-0.017,0.02-0.02c0-0.003,0.005-0.01,0.015-0.02c0.013-0.013,0.02-0.021,0.02-0.024
		c0.003-0.003,0.01-0.008,0.02-0.015c0.013-0.013,0.021-0.02,0.024-0.02c-0.003,0,0.003-0.005,0.02-0.015
		c0.013-0.01,0.021-0.017,0.024-0.02l0.02-0.015c0.016-0.01,0.026-0.015,0.029-0.015c0.006-0.003,0.018-0.008,0.034-0.015
		c0.016-0.01,0.021-0.013,0.015-0.01s0,0,0.02-0.01c0.016-0.003,0.028-0.007,0.034-0.01c0.003,0,0.015-0.003,0.034-0.01l0.02-0.005
		c0.006,0,0.018-0.002,0.034-0.005l0.024-0.005c0.003,0,0.013,0,0.029,0c0.013,0,0.021,0,0.024,0c0.006,0,0.016,0,0.029,0h0.029
		l0.029,0.005l0.024,0.005c0.006,0,0.018,0.003,0.034,0.01c0.02,0.003,0.026,0.005,0.02,0.005c0.039,0.01,0.075,0.024,0.107,0.044
		c-0.003-0.003,0.003,0,0.02,0.01s0.026,0.017,0.029,0.02l0.02,0.015c0.013,0.01,0.021,0.017,0.024,0.02
		c0.003,0,0.01,0.005,0.02,0.015s0.018,0.017,0.024,0.02c0,0.003,0.005,0.01,0.015,0.02c0.013,0.013,0.02,0.021,0.02,0.024
		l0.015,0.02c0.013,0.013,0.02,0.021,0.02,0.024s0.005,0.012,0.015,0.024s0.015,0.021,0.015,0.024
		c0.01,0.017,0.018,0.032,0.024,0.049l1.797,4.336v0.005l0.62,1.489c0.059,0.146,0.059,0.293,0,0.439
		c-0.062,0.146-0.166,0.251-0.313,0.313c-0.072,0.029-0.145,0.044-0.22,0.044c-0.257,0-0.435-0.119-0.532-0.356l-0.469-1.133h-2.827
		l-0.469,1.133c-0.098,0.237-0.275,0.356-0.532,0.356c-0.075,0-0.112,0-0.112,0S104.456,140.322,104.385,140.293z M107.959,137.7
		l-0.942-2.266l-0.938,2.266H107.959z"/>
	<path fill="#35317A" d="M113.989,133.32c0.605,0,1.122,0.2,1.548,0.601c0.43,0.4,0.645,0.882,0.645,1.445
		c0,0.554-0.207,1.028-0.62,1.426c-0.41,0.394-0.908,0.601-1.494,0.62h-0.005h-0.005h-0.01c-0.036,0.003-0.055,0.005-0.059,0.005
		l-0.029-0.005h-1.431v2.349c0,0.159-0.055,0.295-0.166,0.405c-0.114,0.114-0.25,0.171-0.41,0.171s-0.294-0.057-0.405-0.171
		c-0.114-0.11-0.171-0.246-0.171-0.405v-5.864c0-0.159,0.057-0.295,0.171-0.405c0.111-0.114,0.246-0.171,0.405-0.171H113.989z
		 M114.023,136.26c0.277-0.007,0.513-0.096,0.708-0.269c0.195-0.176,0.293-0.384,0.293-0.625c0-0.244-0.101-0.454-0.303-0.63
		s-0.446-0.264-0.732-0.264h-1.46v1.787H114.023z"/>
	<path fill="#35317A" d="M122.08,138.252c-0.026,0.583-0.259,1.076-0.698,1.479c-0.443,0.403-0.97,0.605-1.582,0.605
		c-0.531,0-1.006-0.114-1.426-0.342c-0.504-0.273-0.825-0.671-0.962-1.191c-0.039-0.153-0.02-0.298,0.059-0.435
		c0.082-0.137,0.199-0.225,0.352-0.264s0.298-0.02,0.435,0.059c0.137,0.081,0.225,0.198,0.264,0.352
		c0.059,0.218,0.218,0.389,0.479,0.513c0.234,0.107,0.501,0.161,0.801,0.161c0.306,0,0.568-0.096,0.786-0.288
		c0.221-0.188,0.338-0.423,0.352-0.703c0.006-0.169-0.054-0.32-0.181-0.454c-0.202-0.215-0.541-0.325-1.016-0.332h-0.005
		c-0.013,0-0.016,0-0.01,0c-0.003,0-0.006,0-0.01,0c-0.797-0.013-1.408-0.242-1.831-0.688c-0.348-0.371-0.511-0.803-0.488-1.294
		c0.026-0.586,0.259-1.081,0.698-1.484s0.967-0.605,1.582-0.605c0.531,0,1.006,0.114,1.426,0.342
		c0.504,0.273,0.825,0.671,0.962,1.191c0.039,0.153,0.018,0.298-0.063,0.435c-0.078,0.137-0.194,0.225-0.347,0.264
		s-0.298,0.02-0.435-0.059c-0.137-0.081-0.225-0.198-0.264-0.352c-0.059-0.218-0.22-0.389-0.483-0.513
		c-0.231-0.107-0.497-0.161-0.796-0.161c-0.306,0-0.57,0.096-0.791,0.288c-0.218,0.192-0.333,0.427-0.347,0.703
		c-0.006,0.169,0.054,0.322,0.181,0.459c0.202,0.212,0.541,0.32,1.016,0.327h0.024c0.797,0.013,1.408,0.244,1.831,0.693
		C121.94,137.326,122.103,137.757,122.08,138.252z"/>
	<path fill="#35317A" d="M128.662,140.337c-0.16,0-0.296-0.057-0.41-0.171s-0.171-0.251-0.171-0.41v-2.339h-3.008v2.339
		c0,0.159-0.055,0.296-0.166,0.41c-0.114,0.114-0.25,0.171-0.41,0.171s-0.296-0.057-0.41-0.171s-0.171-0.251-0.171-0.41v-5.835
		c0-0.159,0.057-0.296,0.171-0.41s0.25-0.171,0.41-0.171s0.296,0.057,0.41,0.171c0.111,0.114,0.166,0.251,0.166,0.41v2.339h3.008
		v-2.339c0-0.159,0.057-0.296,0.171-0.41s0.25-0.171,0.41-0.171s0.296,0.057,0.41,0.171s0.171,0.251,0.171,0.41v5.835
		c0,0.159-0.057,0.296-0.171,0.41S128.822,140.337,128.662,140.337z"/>
	<path fill="#35317A" d="M134.414,140.337c-0.967,0-1.792-0.344-2.476-1.03c-0.687-0.684-1.03-1.509-1.03-2.476
		s0.343-1.794,1.03-2.48c0.684-0.684,1.509-1.025,2.476-1.025s1.793,0.342,2.48,1.025c0.684,0.687,1.025,1.514,1.025,2.48
		s-0.342,1.792-1.025,2.476C136.207,139.993,135.381,140.337,134.414,140.337z M134.414,134.478c-0.648,0-1.201,0.229-1.66,0.688
		c-0.462,0.462-0.693,1.018-0.693,1.665s0.231,1.201,0.693,1.66c0.459,0.462,1.012,0.693,1.66,0.693s1.203-0.231,1.665-0.693
		c0.459-0.459,0.688-1.013,0.688-1.66s-0.229-1.203-0.688-1.665C135.616,134.707,135.062,134.478,134.414,134.478z"/>
	<path fill="#35317A" d="M140.996,134.478h-1.45c-0.16,0-0.296-0.057-0.41-0.171c-0.111-0.11-0.166-0.246-0.166-0.405
		s0.055-0.295,0.166-0.405c0.114-0.114,0.25-0.171,0.41-0.171h4.058c0.156,0,0.292,0.057,0.405,0.171
		c0.111,0.11,0.166,0.246,0.166,0.405s-0.055,0.295-0.166,0.405c-0.114,0.114-0.249,0.171-0.405,0.171h-1.455v5.283
		c0,0.159-0.057,0.296-0.171,0.41c-0.111,0.11-0.246,0.166-0.405,0.166s-0.294-0.056-0.405-0.166
		c-0.114-0.114-0.171-0.251-0.171-0.41V134.478z"/>
</g>
<g>
	<g>
		<line fill="none" stroke="#535353" stroke-width="2" stroke-miterlimit="10" x1="109.544" y1="75.811" x2="110.544" y2="75.851"/>
		
			<line fill="none" stroke="#535353" stroke-width="2" stroke-miterlimit="10" stroke-dasharray="1.8497,1.8497" x1="112.392" y1="75.924" x2="126.254" y2="76.474"/>
		<line fill="none" stroke="#535353" stroke-width="2" stroke-miterlimit="10" x1="127.178" y1="76.511" x2="128.177" y2="76.55"/>
		<g>
			<path fill="#535353" d="M132.398,76.718c-2.016,0.658-4.53,1.817-6.11,3.089l1.335-3.278l-1.071-3.374
				C128.027,74.547,130.441,75.902,132.398,76.718z"/>
		</g>
	</g>
</g>
<g>
	<rect x="160.831" y="119.837" fill="none" width="85.621" height="27.45"/>
	<path fill="#35317A" d="M188.165,128.337c-0.961,0-1.782-0.34-2.466-1.021c-0.681-0.684-1.021-1.506-1.021-2.466
		c0-0.964,0.34-1.785,1.021-2.466c0.684-0.684,1.505-1.025,2.466-1.025c0.791,0,1.5,0.241,2.129,0.723
		c0.123,0.098,0.196,0.225,0.22,0.381c0.02,0.159-0.02,0.303-0.117,0.43s-0.225,0.2-0.381,0.22c-0.16,0.02-0.303-0.018-0.43-0.112
		c-0.417-0.322-0.891-0.483-1.421-0.483c-0.642,0-1.19,0.228-1.646,0.684c-0.456,0.456-0.684,1.006-0.684,1.65
		c0,0.642,0.228,1.189,0.684,1.646c0.455,0.456,1.004,0.684,1.646,0.684c0.605,0,1.129-0.202,1.572-0.605
		c0.117-0.107,0.255-0.158,0.415-0.151c0.159,0.007,0.293,0.07,0.4,0.19c0.107,0.117,0.157,0.256,0.151,0.415
		c-0.007,0.159-0.068,0.293-0.186,0.4C189.851,128.034,189.067,128.337,188.165,128.337z"/>
	<path fill="#35317A" d="M196.92,123.361c0,0.43-0.134,0.818-0.4,1.167c-0.258,0.345-0.596,0.591-1.016,0.737l1.108,2.246
		c0.068,0.14,0.076,0.285,0.024,0.435c-0.049,0.149-0.146,0.261-0.288,0.332c-0.082,0.039-0.166,0.059-0.254,0.059
		c-0.238,0-0.409-0.107-0.513-0.322l-1.294-2.622h-0.991v2.329c0,0.156-0.058,0.291-0.171,0.405
		c-0.111,0.11-0.246,0.166-0.405,0.166c-0.156,0-0.292-0.056-0.405-0.166c-0.111-0.114-0.166-0.249-0.166-0.405v-5.82
		c0-0.159,0.055-0.295,0.166-0.405c0.113-0.114,0.249-0.171,0.405-0.171h2.021c0.602,0,1.114,0.198,1.538,0.596
		C196.706,122.318,196.92,122.798,196.92,123.361z M194.782,124.245c0.273-0.01,0.508-0.1,0.703-0.269
		c0.191-0.173,0.288-0.378,0.288-0.615c0-0.247-0.102-0.457-0.303-0.63c-0.202-0.173-0.444-0.259-0.728-0.259h-1.445v1.772H194.782z
		"/>
	<path fill="#35317A" d="M202.701,127.18c0.159,0,0.294,0.057,0.405,0.171c0.113,0.114,0.171,0.251,0.171,0.41
		s-0.058,0.295-0.171,0.405c-0.111,0.114-0.246,0.171-0.405,0.171h-3.535c-0.16,0-0.295-0.057-0.405-0.171
		c-0.114-0.11-0.171-0.246-0.171-0.405v-5.854c0-0.163,0.057-0.3,0.171-0.41c0.11-0.114,0.245-0.171,0.405-0.171h0.005l3.53,0.01
		c0.159,0,0.296,0.057,0.41,0.171c0.11,0.114,0.166,0.251,0.166,0.41s-0.058,0.295-0.171,0.405
		c-0.111,0.114-0.246,0.171-0.405,0.171h-0.005l-2.949-0.01v1.772h2.129c0.159,0,0.296,0.056,0.41,0.166
		c0.113,0.114,0.171,0.251,0.171,0.41s-0.058,0.296-0.171,0.41c-0.114,0.11-0.251,0.166-0.41,0.166h-2.129v1.772H202.701z"/>
	<path fill="#35317A" d="M204.684,128.293c-0.146-0.062-0.251-0.166-0.313-0.312c-0.059-0.146-0.059-0.293,0-0.439l0.62-1.489
		v-0.005l1.797-4.336c0.006-0.017,0.015-0.032,0.024-0.049l0.01-0.024c0.01-0.013,0.016-0.021,0.02-0.024
		c0-0.003,0.005-0.012,0.015-0.024c0.01-0.01,0.016-0.017,0.02-0.02c0-0.003,0.005-0.01,0.015-0.02
		c0.013-0.013,0.02-0.021,0.02-0.024c0.003-0.003,0.01-0.008,0.02-0.015c0.013-0.013,0.021-0.02,0.024-0.02
		c-0.004,0,0.003-0.005,0.02-0.015c0.013-0.01,0.021-0.017,0.024-0.02l0.02-0.015c0.016-0.01,0.025-0.015,0.029-0.015
		c0.006-0.003,0.018-0.008,0.034-0.015c0.016-0.01,0.021-0.013,0.015-0.01c-0.007,0.003,0,0,0.02-0.01
		c0.016-0.003,0.027-0.007,0.034-0.01c0.003,0,0.015-0.003,0.034-0.01l0.02-0.005c0.006,0,0.018-0.002,0.034-0.005l0.024-0.005
		c0.003,0,0.013,0,0.029,0c0.013,0,0.021,0,0.024,0c0.006,0,0.016,0,0.029,0h0.029l0.029,0.005l0.024,0.005
		c0.006,0,0.018,0.003,0.034,0.01c0.02,0.003,0.025,0.005,0.02,0.005c0.039,0.01,0.074,0.024,0.107,0.044
		c-0.004-0.003,0.003,0,0.02,0.01c0.016,0.01,0.025,0.017,0.029,0.02l0.02,0.015c0.013,0.01,0.021,0.017,0.024,0.02
		c0.003,0,0.01,0.005,0.02,0.015s0.018,0.017,0.024,0.02c0,0.003,0.005,0.01,0.015,0.02c0.013,0.013,0.02,0.021,0.02,0.024
		l0.015,0.02c0.013,0.013,0.02,0.021,0.02,0.024s0.005,0.012,0.015,0.024s0.015,0.021,0.015,0.024
		c0.01,0.017,0.018,0.032,0.024,0.049l1.797,4.336v0.005l0.62,1.489c0.059,0.146,0.059,0.293,0,0.439
		c-0.063,0.146-0.166,0.251-0.313,0.312c-0.072,0.029-0.146,0.044-0.22,0.044c-0.258,0-0.435-0.119-0.532-0.356l-0.469-1.133h-2.827
		l-0.469,1.133c-0.098,0.237-0.275,0.356-0.532,0.356c-0.075,0-0.112,0-0.112,0S204.755,128.322,204.684,128.293z M208.258,125.7
		l-0.942-2.266l-0.938,2.266H208.258z"/>
	<path fill="#35317A" d="M213.024,122.478h-1.45c-0.16,0-0.297-0.057-0.41-0.171c-0.111-0.11-0.166-0.246-0.166-0.405
		s0.055-0.295,0.166-0.405c0.113-0.114,0.25-0.171,0.41-0.171h4.058c0.156,0,0.291,0.057,0.405,0.171
		c0.11,0.11,0.166,0.246,0.166,0.405s-0.056,0.295-0.166,0.405c-0.114,0.114-0.249,0.171-0.405,0.171h-1.455v5.283
		c0,0.159-0.058,0.296-0.171,0.41c-0.111,0.11-0.246,0.166-0.405,0.166c-0.16,0-0.295-0.056-0.405-0.166
		c-0.114-0.114-0.171-0.251-0.171-0.41V122.478z"/>
	<path fill="#35317A" d="M221.588,127.18c0.159,0,0.294,0.057,0.405,0.171c0.113,0.114,0.171,0.251,0.171,0.41
		s-0.058,0.295-0.171,0.405c-0.111,0.114-0.246,0.171-0.405,0.171h-3.535c-0.16,0-0.295-0.057-0.405-0.171
		c-0.114-0.11-0.171-0.246-0.171-0.405v-5.854c0-0.163,0.057-0.3,0.171-0.41c0.11-0.114,0.245-0.171,0.405-0.171h0.005l3.53,0.01
		c0.159,0,0.296,0.057,0.41,0.171c0.11,0.114,0.166,0.251,0.166,0.41s-0.058,0.295-0.171,0.405
		c-0.111,0.114-0.246,0.171-0.405,0.171h-0.005l-2.949-0.01v1.772h2.129c0.159,0,0.296,0.056,0.41,0.166
		c0.113,0.114,0.171,0.251,0.171,0.41s-0.058,0.296-0.171,0.41c-0.114,0.11-0.251,0.166-0.41,0.166h-2.129v1.772H221.588z"/>
	<path fill="#35317A" d="M187.672,133.394c0.149,0.052,0.259,0.149,0.327,0.293s0.076,0.29,0.024,0.439l-2.046,5.825v0.005
		c-0.01,0.022-0.021,0.047-0.034,0.073c-0.004,0.007-0.007,0.012-0.01,0.015c-0.014,0.022-0.026,0.044-0.039,0.063
		c0.006-0.007,0.003-0.002-0.01,0.015c-0.017,0.017-0.033,0.032-0.049,0.049c-0.01,0.01-0.014,0.013-0.01,0.01
		c-0.017,0.017-0.036,0.032-0.059,0.049c0.006-0.003,0.003,0-0.01,0.01c-0.02,0.013-0.041,0.024-0.063,0.034l-0.01,0.005
		c-0.02,0.01-0.039,0.018-0.059,0.024c-0.014,0.007-0.017,0.008-0.01,0.005c-0.017,0.007-0.038,0.012-0.063,0.015
		c-0.026,0.007-0.034,0.008-0.024,0.005c-0.033,0.007-0.063,0.01-0.093,0.01s-0.061-0.003-0.093-0.01
		c0.01,0.003,0.001,0.002-0.024-0.005c-0.026-0.003-0.048-0.008-0.063-0.015c0.006,0.003,0.003,0.002-0.01-0.005
		c-0.02-0.007-0.039-0.015-0.059-0.024l-0.015-0.005c-0.02-0.01-0.039-0.021-0.059-0.034l-0.005-0.005l-0.005-0.005
		c-0.023-0.013-0.043-0.029-0.059-0.049c0,0.003-0.005,0-0.015-0.01c-0.017-0.017-0.031-0.032-0.044-0.049
		c-0.007-0.007-0.01-0.012-0.01-0.015c-0.014-0.02-0.026-0.041-0.039-0.063c-0.004-0.003-0.007-0.008-0.01-0.015
		c-0.014-0.026-0.024-0.051-0.034-0.073v-0.005l-2.046-5.825c-0.053-0.149-0.044-0.296,0.024-0.439s0.177-0.241,0.327-0.293
		c0.149-0.052,0.296-0.044,0.439,0.024c0.143,0.068,0.24,0.178,0.293,0.327l1.504,4.282l1.504-4.282
		c0.052-0.149,0.149-0.259,0.293-0.327c0.143-0.068,0.215-0.103,0.215-0.103S187.522,133.342,187.672,133.394z"/>
	<path fill="#35317A" d="M192.57,140.337c-0.967,0-1.792-0.344-2.476-1.03c-0.688-0.684-1.03-1.509-1.03-2.476
		s0.343-1.794,1.03-2.48c0.684-0.684,1.509-1.025,2.476-1.025s1.793,0.342,2.48,1.025c0.684,0.687,1.025,1.514,1.025,2.48
		s-0.342,1.792-1.025,2.476C194.363,139.993,193.536,140.337,192.57,140.337z M192.57,134.478c-0.648,0-1.201,0.229-1.66,0.688
		c-0.463,0.462-0.693,1.018-0.693,1.665s0.23,1.201,0.693,1.66c0.459,0.462,1.012,0.693,1.66,0.693c0.647,0,1.202-0.231,1.665-0.693
		c0.459-0.459,0.688-1.013,0.688-1.66s-0.229-1.203-0.688-1.665C193.772,134.707,193.217,134.478,192.57,134.478z"/>
	<path fill="#35317A" d="M198.39,133.335c0.159,0,0.294,0.057,0.405,0.171c0.113,0.11,0.171,0.246,0.171,0.405v5.273h2.583
		c0.159,0,0.296,0.057,0.41,0.171c0.11,0.11,0.166,0.246,0.166,0.405s-0.056,0.295-0.166,0.405c-0.114,0.114-0.251,0.171-0.41,0.171
		h-3.159c-0.16,0-0.295-0.057-0.405-0.171c-0.114-0.11-0.171-0.246-0.171-0.405v-5.85c0-0.159,0.057-0.295,0.171-0.405
		C198.095,133.392,198.23,133.335,198.39,133.335z"/>
	<path fill="#35317A" d="M207.706,133.335c0.156,0,0.289,0.056,0.4,0.166c0.11,0.11,0.166,0.244,0.166,0.4v3.936
		c0,0.69-0.244,1.279-0.732,1.768s-1.076,0.732-1.763,0.732c-0.69,0-1.279-0.244-1.768-0.732s-0.732-1.077-0.732-1.768v-3.936
		c0-0.156,0.055-0.29,0.166-0.4c0.11-0.11,0.244-0.166,0.4-0.166s0.289,0.056,0.4,0.166c0.11,0.11,0.166,0.244,0.166,0.4v3.936
		c0,0.378,0.133,0.7,0.4,0.967c0.267,0.267,0.589,0.4,0.967,0.4c0.374,0,0.694-0.134,0.962-0.4c0.267-0.267,0.4-0.589,0.4-0.967
		v-3.936c0-0.156,0.055-0.29,0.166-0.4C207.416,133.391,207.55,133.335,207.706,133.335z"/>
	<path fill="#35317A" d="M216.764,133.335c0.123,0.036,0.225,0.105,0.303,0.21c0.078,0.101,0.117,0.217,0.117,0.347v5.869
		c0,0.159-0.056,0.295-0.166,0.405c-0.114,0.114-0.251,0.171-0.41,0.171c-0.16,0-0.297-0.057-0.41-0.171
		c-0.111-0.11-0.166-0.246-0.166-0.405v-3.799l-1.821,3.008v0.005l-0.005,0.005l-0.005,0.005l-0.005,0.005
		c-0.01,0.017-0.017,0.027-0.02,0.034l-0.015,0.02c-0.014,0.013-0.021,0.021-0.024,0.024c-0.004,0.003-0.01,0.01-0.02,0.02
		s-0.017,0.017-0.02,0.02c-0.007,0.007-0.017,0.015-0.029,0.024l-0.015,0.015c-0.01,0.007-0.021,0.013-0.034,0.02
		c0,0.003-0.002,0.005-0.005,0.005l-0.005,0.005h-0.005c-0.007,0.007-0.019,0.013-0.034,0.02c-0.014,0.007-0.019,0.01-0.015,0.01
		c-0.004,0-0.014,0.003-0.029,0.01c-0.075,0.032-0.153,0.047-0.234,0.044h-0.01c0.006,0,0-0.002-0.02-0.005
		c-0.043-0.003-0.085-0.012-0.127-0.024c-0.017-0.003-0.023-0.005-0.02-0.005c0.006,0.003,0,0.002-0.02-0.005
		c-0.017-0.007-0.028-0.012-0.034-0.015c0.003,0,0-0.003-0.01-0.01c-0.017-0.007-0.029-0.013-0.039-0.02h-0.005l-0.005-0.005
		l-0.005-0.005c-0.014-0.007-0.024-0.015-0.034-0.024c0,0.003-0.005,0-0.015-0.01c-0.014-0.01-0.023-0.018-0.029-0.024
		c-0.004-0.003-0.01-0.01-0.02-0.02s-0.017-0.017-0.02-0.02c-0.004-0.007-0.012-0.015-0.024-0.024c-0.007-0.01-0.01-0.017-0.01-0.02
		c-0.007-0.007-0.015-0.018-0.024-0.034l-0.005-0.005c0-0.003-0.002-0.005-0.005-0.005v-0.005c0-0.003-0.002-0.005-0.005-0.005
		l-1.816-3.008v3.799c0,0.159-0.058,0.295-0.171,0.405c-0.114,0.114-0.251,0.171-0.41,0.171c-0.16,0-0.295-0.057-0.405-0.171
		c-0.114-0.11-0.171-0.246-0.171-0.405v-5.869c0-0.13,0.039-0.246,0.117-0.347c0.078-0.104,0.181-0.174,0.308-0.21
		c0.123-0.032,0.245-0.026,0.366,0.02c0.12,0.049,0.215,0.129,0.283,0.239l2.402,3.97l2.402-3.97c0.064-0.11,0.157-0.19,0.278-0.239
		c0.12-0.046,0.181-0.068,0.181-0.068S216.637,133.303,216.764,133.335z"/>
	<path fill="#35317A" d="M223.409,139.18c0.159,0,0.294,0.057,0.405,0.171c0.113,0.114,0.171,0.251,0.171,0.41
		s-0.058,0.295-0.171,0.405c-0.111,0.114-0.246,0.171-0.405,0.171h-3.535c-0.16,0-0.295-0.057-0.405-0.171
		c-0.114-0.11-0.171-0.246-0.171-0.405v-5.854c0-0.163,0.057-0.3,0.171-0.41c0.11-0.114,0.245-0.171,0.405-0.171h0.005l3.53,0.01
		c0.159,0,0.296,0.057,0.41,0.171c0.11,0.114,0.166,0.251,0.166,0.41s-0.058,0.295-0.171,0.405
		c-0.111,0.114-0.246,0.171-0.405,0.171h-0.005l-2.949-0.01v1.772h2.129c0.159,0,0.296,0.056,0.41,0.166
		c0.113,0.114,0.171,0.251,0.171,0.41s-0.058,0.296-0.171,0.41c-0.114,0.11-0.251,0.166-0.41,0.166h-2.129v1.772H223.409z"/>
</g>
<g>
	<g>
		<line fill="none" stroke="#535353" stroke-miterlimit="10" x1="118.261" y1="79.041" x2="118.261" y2="80.041"/>
		
			<line fill="none" stroke="#535353" stroke-miterlimit="10" stroke-dasharray="2.0387,2.0387" x1="118.261" y1="82.08" x2="118.261" y2="113.68"/>
		<line fill="none" stroke="#535353" stroke-miterlimit="10" x1="118.261" y1="114.699" x2="118.261" y2="115.699"/>
	</g>
</g>
<g>
	<g>
		<line fill="none" stroke="#535353" stroke-miterlimit="10" x1="203.642" y1="79.041" x2="203.642" y2="80.041"/>
		
			<line fill="none" stroke="#535353" stroke-miterlimit="10" stroke-dasharray="2.0387,2.0387" x1="203.642" y1="82.08" x2="203.642" y2="113.68"/>
		<line fill="none" stroke="#535353" stroke-miterlimit="10" x1="203.642" y1="114.699" x2="203.642" y2="115.699"/>
	</g>
</g>
<g>
</g>
<g>
</g>
<g>
</g>
<g>
</g>
<g>
</g>
<g>
</g>
<g>
</g>
</svg>
