<?xml version="1.0" standalone="no"?>
<!DOCTYPE svg PUBLIC "-//W3C//DTD SVG 1.1//EN" "http://www.w3.org/Graphics/SVG/1.1/DTD/svg11.dtd" >
<svg>
<metadata>
Created by FontForge 20090622 at Mon Jun 20 09:18:29 2016
 By deploy user
Moon &#194;&#169; Jack Harvatt  2015. All Rights Reserved
</metadata>
<defs>
<font id="Moon-Light" horiz-adv-x="1014" >
  <font-face 
    font-family="Moon"
    font-weight="300"
    font-stretch="normal"
    units-per-em="2048"
    panose-1="2 0 5 0 0 0 0 0 0 0"
    ascent="1638"
    descent="-410"
    x-height="1431"
    cap-height="1430"
    bbox="-342 -418 2048 1716"
    underline-thickness="150"
    underline-position="-142"
    unicode-range="U+001D-U+F002"
  />
<missing-glyph horiz-adv-x="1024" 
d="M100 0v1434h824v-1434h-824zM150 50h724v1334h-724v-1334zM325 1148q31 28 58 43q53 30 112 30q92 0 148 -47.5t56 -127.5q0 -49 -23 -98.5t-87 -129.5q-63 -80 -99 -132t-36 -99q0 -38 24 -133h-32q-35 97 -35 148q0 76 81.5 218t81.5 217q0 57 -33 90t-91 33
q-38 0 -69 -17q-26 -15 -56 -40v45zM389 334l57 58q11 10 20 10q10 0 22 -11l56 -60q9 -11 9 -20q0 -11 -10 -22l-56 -62q-14 -14 -21 -14q-11 0 -20 10l-61 71q-7 9 -7 18q0 10 11 22z" />
    <glyph glyph-name=".notdef" horiz-adv-x="1024" 
d="M100 0v1434h824v-1434h-824zM150 50h724v1334h-724v-1334zM325 1148q31 28 58 43q53 30 112 30q92 0 148 -47.5t56 -127.5q0 -49 -23 -98.5t-87 -129.5q-63 -80 -99 -132t-36 -99q0 -38 24 -133h-32q-35 97 -35 148q0 76 81.5 218t81.5 217q0 57 -33 90t-91 33
q-38 0 -69 -17q-26 -15 -56 -40v45zM389 334l57 58q11 10 20 10q10 0 22 -11l56 -60q9 -11 9 -20q0 -11 -10 -22l-56 -62q-14 -14 -21 -14q-11 0 -20 10l-61 71q-7 9 -7 18q0 10 11 22z" />
    <glyph glyph-name=".null" horiz-adv-x="0" 
 />
    <glyph glyph-name=".null" horiz-adv-x="0" 
 />
    <glyph glyph-name="nonmarkingreturn" horiz-adv-x="508" 
 />
    <glyph glyph-name="space" unicode=" " horiz-adv-x="508" 
 />
    <glyph glyph-name="space" unicode="&#xa0;" horiz-adv-x="508" 
 />
    <glyph glyph-name="exclam" unicode="!" horiz-adv-x="824" 
d="M356 1437q-25 0 -43 -17q-17 -18 -17 -43l4 -953q0 -24 18 -42q17 -17 42 -17v0q25 0 42 17q18 18 18 43l-4 953q0 24 -18 42q-17 17 -42 17v0zM297 60q0 -25 18 -42q18 -18 42 -18q25 0 43 18q17 17 17 42t-17 42t-43 17q-25 0 -42 -17q-18 -17 -18 -42z" />
    <glyph glyph-name="quotedbl" unicode="&#x22;" horiz-adv-x="965" 
d="M254 1413q-17 -18 -17 -42v-204q0 -24 17 -42q18 -17 42 -17q25 0 42 17q17 18 17 42v204q0 24 -17 42q-17 17 -42 17q-24 0 -42 -17zM563 1413q-17 -18 -17 -42v-204q0 -24 17 -42q17 -17 42 -17q24 0 42 17q17 18 17 42v204q0 24 -17 42q-18 17 -42 17q-25 0 -42 -17z
" />
    <glyph glyph-name="numbersign" unicode="#" horiz-adv-x="1425" 
d="M853 524h-452l32 390h452zM1015 1034l27 337q2 25 -14 44q-16 18 -41 20q-24 2 -43 -14t-21 -40l-29 -347h-451l28 337q2 25 -15 44q-16 18 -40 20q-25 2 -44 -14t-21 -40l-28 -347h-218q-24 0 -42 -18q-17 -18 -17 -42q0 -25 17 -43q18 -17 42 -17h208l-32 -390h-217
q-25 0 -42 -18q-18 -17 -18 -42t18 -42q17 -18 42 -18h207l-27 -339q-2 -25 14 -44t40 -21h5q24 0 41 16t19 39l28 349h452l-28 -339q-2 -25 14 -44t41 -21h5q23 0 40 16q18 16 19 39l29 349h211q25 0 42 18q18 17 18 42t-18 42q-17 18 -42 18h-201l32 390h210q25 0 43 17
q17 18 17 43q0 24 -17 42q-18 18 -43 18h-200z" />
    <glyph glyph-name="dollar" unicode="$" horiz-adv-x="1038" 
d="M734 465q-3 -82 -61 -144q-57 -61 -142 -76v407q105 -15 158 -71q48 -51 45 -116zM206 967q3 82 62 144q57 61 143 76v-407q-107 13 -160 70q-48 51 -45 117zM764 998q21 -13 45 -7q24 7 37 28q12 21 6 45q-28 107 -125 172q-82 55 -196 70v67q0 25 -18 43q-17 17 -42 17
t-42 -17q-18 -18 -18 -43v-65q-134 -17 -226 -111q-93 -95 -99 -225q-5 -116 78 -204q87 -93 247 -109v-413q-175 29 -207 151q-7 24 -28 37q-21 12 -45 6t-37 -28q-12 -21 -6 -45q28 -108 126 -172q82 -55 197 -70v-65q0 -25 18 -43q17 -17 42 -17t42 17q18 18 18 43v64
q133 17 225 111q92 95 98 224q5 117 -78 204q-87 92 -245 109v413q174 -29 205 -151q7 -24 28 -36z" />
    <glyph glyph-name="percent" unicode="%" horiz-adv-x="1583" 
d="M418 1278q40 -41 40 -97q0 -57 -40 -97q-40 -41 -97 -41t-97 41q-40 40 -40 97q0 56 40 97q40 40 97 40t97 -40zM502 999q76 75 76 182q0 106 -76 181q-75 76 -181 76t-182 -76q-75 -75 -75 -181q0 -107 75 -182q76 -75 182 -75t181 75zM1086 169q-40 41 -40 97
q0 57 40 97q41 41 97 41q57 0 97 -41q41 -40 41 -97q0 -56 -41 -97q-40 -40 -97 -40q-56 0 -97 40zM1002 448q-75 -75 -75 -182q0 -106 75 -181t181 -75q107 0 182 75t75 181q0 107 -75 182t-182 75q-106 0 -181 -75zM278 0q30 0 48 25l956 1315q15 20 11 44t-24 39t-44 11
q-25 -4 -39 -24l-957 -1315q-14 -20 -10 -45q4 -24 24 -39q15 -11 35 -11z" />
    <glyph glyph-name="ampersand" unicode="&#x26;" horiz-adv-x="1323" 
d="M262 211q-88 88 -88 212t88 212t212 88t212 -88t88 -212t-88 -212t-212 -88t-212 88zM715 1250q59 -58 59 -141t-59 -141q-59 -59 -141 -59q-83 0 -142 59q-59 58 -59 141t59 141q59 59 142 59q82 0 141 -59zM729 816l-6 6q79 42 126 117q48 78 48 170q0 134 -95 229
t-228 95q-134 0 -229 -95t-95 -229q0 -174 147 -270q-149 -28 -247 -144q-99 -118 -99 -272q0 -175 124 -299t299 -124q163 0 284 110q120 109 137 269l245 -335q18 -26 50 -26q20 0 36 12q20 15 24 40q4 26 -11 46z" />
    <glyph glyph-name="quotesingle" unicode="'" horiz-adv-x="682" 
d="M276 1414q-17 -17 -17 -41v-204q0 -25 17 -42q18 -18 42 -18q25 0 42 18q17 17 17 42v204q0 24 -17 41q-17 18 -42 18q-24 0 -42 -18z" />
    <glyph glyph-name="parenleft" unicode="(" horiz-adv-x="881" 
d="M544 1341q13 21 7 45t-27 37t-45 7t-37 -28q-176 -293 -176 -686t176 -687q18 -29 51 -29q17 0 31 8q21 13 27 37t-7 45q-159 266 -159 626t159 625z" />
    <glyph glyph-name="parenright" unicode=")" horiz-adv-x="915" 
d="M249 1390q-6 -24 7 -46q160 -266 160 -627t-160 -627q-13 -21 -7 -45t27 -36q14 -9 31 -9q33 0 51 29q177 294 177 688t-177 689q-13 21 -37 27t-45 -7t-27 -36z" />
    <glyph glyph-name="asterisk" unicode="*" horiz-adv-x="1044" 
d="M681 1433q-24 0 -42 -17l-157 -157l-156 157q-18 17 -43 17q-24 0 -42 -17q-17 -18 -17 -42q0 -25 17 -42l157 -157l-157 -157q-17 -17 -17 -42q0 -24 17 -42q18 -17 42 -17q25 0 43 17l156 157l157 -157q18 -17 42 -17q25 0 42 17q18 18 18 42q0 25 -18 42l-157 157
l157 157q18 17 18 42q0 24 -18 42q-17 17 -42 17z" />
    <glyph glyph-name="plus" unicode="+" horiz-adv-x="1052" 
d="M520 798v215q0 25 -18 42q-17 18 -42 18t-42 -18q-17 -17 -17 -42v-215h-215q-25 0 -43 -17q-17 -18 -17 -42q0 -25 17 -43q18 -17 43 -17h215v-215q0 -25 17 -42q17 -18 42 -18t42 18q18 17 18 42v215h215q24 0 42 17q17 18 17 43q0 24 -17 42q-18 17 -42 17h-215z" />
    <glyph glyph-name="comma" unicode="," horiz-adv-x="704" 
d="M281 306q-17 -17 -17 -42v-205q0 -24 17 -42q18 -17 42 -17q25 0 43 17q17 18 17 42v205q0 25 -17 42q-18 18 -43 18q-24 0 -42 -18z" />
    <glyph glyph-name="hyphen" unicode="-" horiz-adv-x="1081" 
d="M202 799q-25 0 -42 -17q-18 -18 -18 -42q0 -25 18 -43q17 -17 42 -17h550q24 0 42 17q17 18 17 43q0 24 -17 42q-18 17 -42 17h-550z" />
    <glyph glyph-name="hyphen" unicode="&#xad;" horiz-adv-x="1081" 
d="M202 799q-25 0 -42 -17q-18 -18 -18 -42q0 -25 18 -43q17 -17 42 -17h550q24 0 42 17q17 18 17 43q0 24 -17 42q-18 17 -42 17h-550z" />
    <glyph glyph-name="period" unicode="." horiz-adv-x="592" 
d="M199 60q0 -25 17 -42q18 -18 43 -18q24 0 42 18q17 17 17 42q0 24 -17 42q-17 16 -42 16q-26 0 -43 -16q-17 -18 -17 -42z" />
    <glyph glyph-name="slash" unicode="/" horiz-adv-x="868" 
d="M397 1418q-18 -16 -20 -40l-108 -1313q-2 -25 14 -44t41 -21h5q23 0 40 16t19 39l108 1313q2 25 -14 43q-16 19 -41 21t-44 -14z" />
    <glyph glyph-name="zero" unicode="0" horiz-adv-x="1096" 
d="M831 390q0 -112 -79 -191q-80 -79 -191 -79q-112 0 -191 79t-79 191v659q0 112 79 191t191 79q111 0 191 -79q79 -79 79 -191v-659zM285 1325q-114 -114 -114 -276v-659q0 -161 114 -276q115 -114 276 -114t275 114q114 115 114 276v659q0 162 -114 276t-275 114
t-276 -114z" />
    <glyph glyph-name="one" unicode="1" horiz-adv-x="1096" 
d="M580 60q0 -25 18 -42q17 -18 42 -18t43 18q17 17 17 42v1317q0 31 -25 49q-26 18 -55 7l-340 -123q-24 -9 -34 -31q-11 -23 -2 -46q8 -23 31 -34q22 -10 46 -2l259 94v-1231z" />
    <glyph glyph-name="two" unicode="2" horiz-adv-x="1096" 
d="M945 102q-18 18 -42 18h-548l528 767l6 10q33 74 33 156q0 158 -112 271q-113 112 -271 112t-271 -112q-112 -113 -112 -271q0 -12 1 -25q1 -25 20 -41t43 -15q25 2 41 20q17 19 15 44v17q0 109 77 186t186 77t186 -77t77 -186q0 -54 -21 -103l-589 -856q-20 -30 -4 -62
q17 -32 53 -32h662q24 0 42 18q17 17 17 42t-17 42z" />
    <glyph glyph-name="three" unicode="3" horiz-adv-x="1096" 
d="M875 633q-85 106 -216 136l268 582q14 30 -4 58q-17 27 -50 27h-632q-25 0 -42 -17q-18 -18 -18 -43t18 -42q17 -18 42 -18h539l-264 -571q-13 -30 4 -58q18 -27 51 -27q111 0 191 -79q79 -80 79 -191q0 -112 -79 -191q-80 -79 -191 -79q-112 0 -191 79t-79 191
q0 24 -18 42q-17 18 -42 18t-42 -18q-18 -18 -18 -42q0 -161 114 -276q115 -114 276 -114t275 114q114 115 114 276q0 137 -85 243z" />
    <glyph glyph-name="four" unicode="4" horiz-adv-x="1096" 
d="M304 533l450 647v-647h-450zM754 60q0 -25 17 -43q18 -17 42 -17q25 0 43 17q17 18 17 43v1311q0 44 -42 57t-67 -23l-623 -897q-20 -30 -4 -62q17 -32 53 -32h564v-354z" />
    <glyph glyph-name="five" unicode="5" horiz-adv-x="1096" 
d="M843 665q-114 114 -275 114h-231v534h558q25 0 42 18q18 18 18 42q0 25 -18 43q-17 17 -42 17h-617q-25 0 -43 -17q-17 -18 -17 -43v-653q0 -25 17 -43q18 -17 43 -17h290q111 0 191 -79q79 -80 79 -191q0 -112 -79 -191q-80 -79 -191 -79q-112 0 -191 79t-79 191
q0 24 -18 42q-17 18 -42 18t-42 -18q-18 -18 -18 -42q0 -161 114 -276q115 -114 276 -114t275 114q114 115 114 276t-114 275z" />
    <glyph glyph-name="six" unicode="6" horiz-adv-x="1096" 
d="M374 198q-79 79 -79 190t79 190t190 79t190 -79t79 -190t-79 -190t-190 -79t-190 79zM404 741l216 612q9 23 -2 45q-11 23 -34 31t-45 -3q-23 -10 -31 -34l-311 -879q0 2 -1 -2q-20 -61 -20 -123q0 -160 114 -274t274 -114q161 0 275 114q113 114 113 274q0 161 -113 275
q-114 113 -275 113q-83 0 -160 -35z" />
    <glyph glyph-name="seven" unicode="7" horiz-adv-x="1096" 
d="M196 1431q-25 0 -43 -18q-17 -17 -17 -42t17 -42q18 -18 43 -18h585l-475 -1230q-9 -23 1 -45q10 -23 33 -32q10 -4 21 -4q41 0 56 38l506 1312q12 29 -6 55t-49 26h-672z" />
    <glyph glyph-name="eight" unicode="8" horiz-adv-x="1096" 
d="M376 859q-79 79 -79 190q0 112 79 191t191 79q111 0 191 -79q79 -79 79 -191q0 -111 -79 -190q-80 -80 -191 -80q-112 0 -191 80zM758 199q-80 -79 -191 -79q-112 0 -191 79t-79 191q0 111 79 191q79 79 191 79q111 0 191 -79q79 -80 79 -191q0 -112 -79 -191zM842 1325
q-114 114 -275 114t-276 -114q-114 -114 -114 -276q0 -102 50 -191q49 -86 133 -138q-84 -53 -133 -139q-50 -89 -50 -191q0 -161 114 -276q115 -114 276 -114t275 114q114 115 114 276q0 102 -50 191q-49 86 -133 139q84 52 133 138q50 89 50 191q0 162 -114 276z" />
    <glyph glyph-name="nine" unicode="9" horiz-adv-x="1096" 
d="M378 1239q79 79 191 79q111 0 191 -79q79 -79 79 -191t-79 -191q-80 -79 -191 -79q-112 0 -191 79t-79 191t79 191zM293 1323q-114 -114 -114 -275t114 -275q115 -115 276 -115q83 0 161 36l-218 -614q-8 -24 3 -46q10 -22 34 -31q9 -3 20 -3q42 0 56 40l313 882
q-2 -4 0 3q20 61 20 123q0 161 -114 275q-114 115 -275 115t-276 -115z" />
    <glyph glyph-name="colon" unicode=":" horiz-adv-x="431" 
d="M106 435q0 -25 18 -42q17 -18 42 -18q24 0 42 18q17 17 17 42t-17 42t-42 17q-26 0 -42 -17q-18 -17 -18 -42zM106 1002q0 -25 18 -42q17 -18 42 -18q24 0 42 18q17 17 17 42t-17 42t-42 17q-26 0 -42 -17q-18 -17 -18 -42z" />
    <glyph glyph-name="semicolon" unicode=";" horiz-adv-x="460" 
d="M129 999q0 -25 17 -42q18 -18 43 -18q24 0 42 18q17 17 17 42t-17 42t-43 17q-25 0 -42 -17t-17 -42zM146 476q-17 -18 -17 -42v-136q0 -25 17 -42q18 -18 42 -18q25 0 43 18q17 17 17 42v136q0 24 -17 42q-18 17 -43 17q-24 0 -42 -17z" />
    <glyph glyph-name="semicolon" unicode="&#x37e;" horiz-adv-x="460" 
d="M129 999q0 -25 17 -42q18 -18 43 -18q24 0 42 18q17 17 17 42t-17 42t-43 17q-25 0 -42 -17t-17 -42zM146 476q-17 -18 -17 -42v-136q0 -25 17 -42q18 -18 42 -18q25 0 43 18q17 17 17 42v136q0 24 -17 42q-18 17 -43 17q-24 0 -42 -17z" />
    <glyph glyph-name="less" unicode="&#x3c;" horiz-adv-x="754" 
d="M538 1073q-24 5 -45 -8l-455 -297v0q-2 -2 -7 -5q-4 -4 -3 -3t-2 -3q-4 -4 -5 -6v-1q1 2 -2 -3q-3 -4 -4 -7l-1 -5q-2 -5 -2 -6t-1 -5v-6v-6q1 -4 1 -5t2 -6l1 -5q1 -2 4 -7t2 -3v-1v0q3 -5 9 -10q-1 0 3 -3l5 -4l455 -297q15 -10 33 -10q32 0 50 27q13 21 8 45t-26 38
l-379 247l379 247q21 14 26 38t-8 45q-14 20 -38 25z" />
    <glyph glyph-name="equal" unicode="=" horiz-adv-x="912" 
d="M128 567q-25 0 -43 -18q-17 -17 -17 -42t17 -42q18 -18 43 -18h548q25 0 42 18q18 17 18 42t-18 42q-17 18 -42 18h-548zM128 993q-25 0 -43 -17q-17 -17 -17 -42t17 -42q18 -18 43 -18h548q25 0 42 18q18 17 18 42t-18 42q-17 17 -42 17h-548z" />
    <glyph glyph-name="greater" unicode="&#x3e;" horiz-adv-x="770" 
d="M644 730q0 1 -1 6l-2 5q-1 3 -4 7q-3 5 -1 4h-1q-1 2 -5 6q-3 4 -2 3t-3 3q-4 3 -6 5h-1v0l-456 297q-21 14 -45 9t-37 -26q-14 -21 -9 -45t26 -37l380 -248l-380 -248q-21 -13 -26 -37t9 -45q17 -27 50 -27q17 0 32 10l456 297q1 0 5 4l4 3q5 5 8 10l1 1q-2 -3 1 3
q3 4 4 7l2 5q1 5 1 6t1 5v6v6q-1 4 -1 5z" />
    <glyph glyph-name="question" unicode="?" horiz-adv-x="999" 
d="M390 60q0 -25 18 -43q17 -17 42 -17q24 0 42 17q17 18 17 43q0 24 -17 42q-17 16 -42 16q-26 0 -42 -16q-18 -18 -18 -42zM178 1317q-114 -114 -114 -274q0 -25 17 -42q18 -18 43 -18q24 0 42 18q17 17 17 42q0 111 79 190t190 79t190 -79t79 -190t-79 -190t-190 -79
q-25 0 -42 -18q-17 -17 -17 -42v-280q0 -24 17 -42q17 -17 42 -17t42 17q18 18 18 42v225q140 22 234 130q94 109 94 254q0 160 -113 274q-114 114 -275 114q-160 0 -274 -114z" />
    <glyph glyph-name="at" unicode="@" horiz-adv-x="1703" 
d="M642 574q-60 59 -60 143t60 144q59 59 143 59t144 -59q59 -60 59 -144t-59 -143q-60 -60 -144 -60t-143 60zM278 1224q-210 -210 -210 -507q0 -296 210 -507q211 -210 507 -210q150 0 287 60q22 9 31 33q10 23 0 45q-10 23 -33 32q-24 9 -46 -1q-114 -49 -239 -49
q-247 0 -422 175t-175 422t175 422t422 175t422 -175t175 -422q0 -150 -70 -282l-229 159q25 59 25 123q0 134 -95 228q-94 95 -228 95q-133 0 -228 -95q-95 -94 -95 -228q0 -133 95 -228t228 -95q137 0 233 100l278 -194q21 -14 45 -9q25 4 39 25q122 181 122 401
q0 297 -210 507t-507 210q-296 0 -507 -210z" />
    <glyph glyph-name="A" unicode="A" horiz-adv-x="1322" 
d="M311 455l316 762l316 -762h-632zM83 0q40 0 55 37l124 298h730l124 -298q15 -37 55 -37q12 0 23 5q23 9 32 32q10 23 0 46l-139 335v1l-405 977q-2 5 -5 11q0 -1 -4 4q-3 4 -4 5q-1 0 -5 4l-4 3q-10 7 -22 9q1 0 -5 0q-5 1 -6 1t-7 -1h-5q-11 -2 -21 -9q1 1 -4 -3
q-4 -3 -5 -4t-4 -5l-4 -4q-3 -6 -5 -11l-405 -977v-1l-139 -335q-10 -23 0 -46q9 -23 32 -32q11 -5 23 -5z" />
    <glyph glyph-name="B" unicode="B" horiz-adv-x="1237" 
d="M226 655h401h20h8q126 0 213 -77q87 -76 87 -188t-88 -191q-89 -79 -214 -79h-427v535zM226 1313l401 2q127 0 214 -76q87 -77 87 -188q0 -114 -88 -195t-213 -81l-401 -1v539zM653 0q175 0 298 115q124 114 124 275q0 107 -57 197q-56 88 -153 138q85 54 133 139
q50 87 50 187q0 161 -122 273q-122 111 -299 111l-461 -2q-25 0 -43 -18q-17 -17 -17 -42v-1313q0 -25 18 -42q17 -18 42 -18h487z" />
    <glyph glyph-name="C" unicode="C" horiz-adv-x="1335" 
d="M1205 187q19 17 20 42t-16 43q-17 19 -42 20t-43 -16q-171 -155 -403 -155q-247 0 -422 175t-175 422q0 248 175 423t422 175q204 0 365 -123q19 -16 44 -12q25 3 40 23q15 19 12 44t-23 40q-193 149 -438 149q-297 0 -507 -211q-211 -210 -211 -508q0 -297 211 -507
q210 -211 507 -211q279 0 484 187z" />
    <glyph glyph-name="D" unicode="D" horiz-adv-x="1392" 
d="M226 1315h273q246 0 421 -174q175 -175 175 -421t-175 -421q-175 -174 -422 -174l-272 -4v1194zM167 0l332 4q296 0 506 210t210 506t-210 506t-506 210h-333q-25 0 -42 -18q-18 -18 -18 -43v-1315q0 -25 18 -43q17 -17 42 -17h1z" />
    <glyph glyph-name="E" unicode="E" horiz-adv-x="1125" 
d="M959 0q25 0 42 18q18 17 18 42t-18 42q-17 18 -42 18h-734v538h549q25 0 42 18q18 17 18 42t-18 42q-17 18 -42 18h-549v538l734 -2v0q25 0 42 17q18 18 18 43q0 24 -18 42q-17 18 -42 18l-794 2q-24 1 -42 -18q-18 -17 -18 -42v-1316q0 -25 18 -42q17 -18 42 -18h794z
" />
    <glyph glyph-name="F" unicode="F" horiz-adv-x="1103" 
d="M227 658h549q25 0 42 18q18 17 18 42t-18 42q-17 18 -42 18h-549v538l734 -2v0q25 0 42 17q18 18 18 43q0 24 -18 42q-17 18 -42 18l-794 2q-23 1 -42 -18q-18 -17 -18 -42v-1316q0 -25 18 -42q17 -18 42 -18t42 18q18 17 18 42v598z" />
    <glyph glyph-name="G" unicode="G" horiz-adv-x="1415" 
d="M222 211q-211 210 -211 507t211 508q210 210 507 210q244 0 437 -148q20 -16 23 -40q4 -25 -12 -45q-15 -20 -40 -23q-24 -3 -44 12q-161 124 -364 124q-247 0 -422 -176q-175 -175 -175 -422t175 -422t422 -175q232 0 402 155q19 17 44 16t42 -20q16 -18 15 -43t-19 -42
q-206 -187 -484 -187q-297 0 -507 211zM1141 18q-17 17 -17 42v634h-502q-25 0 -43 17q-18 18 -18 43t18 42q18 18 43 18h562q25 0 43 -18q17 -17 17 -42v-694q0 -25 -17 -42q-18 -18 -43 -18t-43 18z" />
    <glyph glyph-name="H" unicode="H" horiz-adv-x="1375" 
d="M1147 18q18 17 18 42v1313q0 25 -18 42q-17 18 -42 18t-43 -18q-17 -17 -17 -42v-596h-817v596q0 25 -17 42q-18 18 -43 18t-42 -18q-18 -17 -18 -42v-1313q0 -25 18 -42q17 -18 42 -18t43 18q17 17 17 42v596h817v-596q0 -25 17 -42q18 -18 43 -18t42 18z" />
    <glyph glyph-name="I" unicode="I" horiz-adv-x="441" 
d="M229 1370q0 25 -18 42q-17 18 -42 18t-42 -18q-18 -17 -18 -42v-1310q0 -25 18 -42q17 -18 42 -18t42 18q18 17 18 42v1310z" />
    <glyph glyph-name="J" unicode="J" horiz-adv-x="628" 
d="M308 408q0 -119 -85 -204q-84 -84 -203 -84q-25 0 -42 -17q-18 -18 -18 -43t18 -42q17 -18 42 -18q169 0 288 120q120 119 120 288v967q0 25 -18 43q-17 18 -42 18t-43 -18q-17 -18 -17 -43v-967z" />
    <glyph glyph-name="K" unicode="K" horiz-adv-x="1200" 
d="M209 28q18 17 18 42v382l178 188l591 -622q18 -18 43 -18q24 0 41 16q18 17 19 42q0 25 -17 42l-595 626l575 604q17 18 16 43q0 24 -18 41t-43 17q-24 -1 -41 -19l-749 -788v753q0 24 -18 42q-17 17 -42 17q-24 0 -42 -17q-17 -18 -17 -42v-1307q0 -25 17 -42
q18 -18 42 -18q25 0 42 18z" />
    <glyph glyph-name="L" unicode="L" horiz-adv-x="1017" 
d="M124 1413q-17 -17 -17 -42v-1311q0 -25 17 -43q18 -17 43 -17h708q25 0 42 17q18 18 18 43q0 24 -18 42q-17 17 -42 17h-649v1252q0 25 -17 42q-18 18 -42 18q-25 0 -43 -18z" />
    <glyph glyph-name="M" unicode="M" horiz-adv-x="1730" 
d="M226 1157l537 -887l1 -1v-1q2 -2 4 -5l4 -4l4 -4q3 -2 5 -4q5 -3 2 -1q1 0 1 -1h2q3 -2 6 -3q2 -1 5 -2t6 -1q2 -1 5 -1q3 -1 6 -1t6 1q3 0 5 1q3 0 6 1t5 2q3 1 6 3q4 2 3 1q-3 -2 2 1q2 2 5 4l4 4l4 4q2 3 4 5v1l1 1l537 887v-1097q0 -25 17 -43q18 -17 42 -17
q25 0 42 17q18 18 18 43v1311q0 45 -44 57q-43 12 -67 -27l-596 -985l-596 985q-24 39 -67 27q-44 -12 -44 -57v-1311q0 -25 17 -43q18 -17 43 -17q24 0 42 17q17 18 17 43v1097z" />
    <glyph glyph-name="N" unicode="N" horiz-adv-x="1458" 
d="M1150 15q3 -2 4 -3q3 -2 7 -4q3 -2 4 -3q3 -1 8 -3l4 -1q6 -1 12 -1v0q5 0 11 1q1 0 4 1q4 1 7 2l4 2q3 1 6 3q2 1 3 2q4 3 2 2q-2 -2 3 2l4 4q2 2 4 5t3 5q2 2 3 5t2 5t2 6q1 3 1 5q1 3 1 6q0 6 0 4v1317q0 25 -17 42q-18 18 -43 18q-24 0 -42 -18q-17 -17 -17 -42
v-1142l-916 1179q-26 34 -67 20q-40 -14 -40 -57v-1317q0 -25 18 -42q17 -18 42 -18t42 18q18 17 18 42v1142l915 -1179l1 -1l1 -1z" />
    <glyph glyph-name="O" unicode="O" horiz-adv-x="1614" 
d="M1141 1139q176 -175 176 -422t-176 -422q-175 -175 -422 -175t-422 175t-175 422t175 422q175 176 422 176t422 -176zM1226 210q210 210 210 507t-210 507t-507 210t-507 -210t-210 -507t210 -507t507 -210t507 210z" />
    <glyph glyph-name="P" unicode="P" horiz-adv-x="1186" 
d="M227 775v540h396q125 0 214 -79t89 -191q0 -110 -87 -189q-86 -78 -208 -81h-404zM167 1435q-25 0 -42 -18q-18 -17 -18 -42v-1315q0 -25 18 -42q17 -18 42 -18t42 18q18 17 18 42v596h393q6 -1 3 -1q2 0 4 1h12h8q166 9 282 121q116 113 116 268q0 161 -123 275
q-124 115 -299 115h-456z" />
    <glyph glyph-name="Q" unicode="Q" horiz-adv-x="1612" 
d="M298 295q-175 176 -175 423q0 248 175 423q176 176 423 176q248 0 423 -176q176 -175 176 -423q0 -203 -125 -364l-147 147q-18 18 -43 18q-24 0 -42 -18q-17 -17 -17 -42t17 -42l150 -150q-169 -147 -392 -147q-247 0 -423 175zM1281 268q158 198 158 450
q0 297 -210 508q-211 210 -508 210t-507 -210q-211 -211 -211 -508t211 -507q210 -211 507 -211q273 0 477 182l164 -164q18 -18 42 -18q25 0 43 18q17 17 17 42t-17 42z" />
    <glyph glyph-name="R" unicode="R" horiz-adv-x="1171" 
d="M833 859q-85 -78 -207 -80h-400v535h393q124 0 212 -79q88 -78 88 -189q0 -109 -86 -187zM166 1432q-24 0 -42 -17q-17 -17 -17 -42v-1304q0 -24 17 -42q18 -17 42 -17q25 0 42 17q18 18 18 42v591h334l309 -627q16 -33 53 -33q14 0 26 6q22 11 30 34t-3 45l-285 581
q149 23 247 130q100 108 100 250q0 160 -122 273q-123 113 -296 113h-453z" />
    <glyph glyph-name="S" unicode="S" horiz-adv-x="1121" 
d="M246 65q-149 79 -188 228q-6 23 6 45q13 21 37 27q23 6 45 -6q21 -13 27 -36q27 -104 140 -159q94 -45 215 -45q131 0 225 84t100 205q4 87 -60 154q-87 93 -277 96q-25 0 -42 18t-17 42q1 25 19 42q17 17 42 17q240 -4 362 -134q98 -103 91 -240q-7 -169 -136 -286
q-128 -117 -307 -117q-158 0 -282 65zM510 658q-240 3 -362 133q-98 104 -92 241q8 169 137 286q128 117 307 117q158 0 282 -66q149 -78 188 -227q6 -24 -6 -45q-13 -21 -37 -27q-24 -7 -45 6q-21 12 -27 36q-27 104 -140 158q-94 46 -215 46q-131 0 -225 -84t-100 -206
q-4 -86 60 -153q87 -93 277 -96q25 -1 42 -18q17 -18 17 -43q-1 -24 -18 -41q-18 -17 -42 -17h-1z" />
    <glyph glyph-name="T" unicode="T" horiz-adv-x="1071" 
d="M432 60q0 -25 17 -43q18 -17 42 -17q25 0 43 17q17 18 17 43v1255h395q25 0 42 17q18 17 18 42t-18 42q-17 18 -42 18h-909q-25 0 -43 -18q-17 -17 -17 -42t17 -42q18 -17 43 -17h395v-1255z" />
    <glyph glyph-name="U" unicode="U" horiz-adv-x="1260" 
d="M967 1414q-17 -17 -17 -42v-881q0 -155 -110 -264q-110 -110 -264 -110q-155 0 -264 110q-110 109 -110 264v881q0 25 -17 42t-41 17q-25 0 -42 -17t-17 -42v-881q0 -203 144 -347t347 -144t347 144t144 347v881q0 25 -17 42q-18 17 -42 17t-41 -17z" />
    <glyph glyph-name="V" unicode="V" horiz-adv-x="1175" 
d="M982 1428q-22 -10 -30 -34l-406 -1154l-405 1154q-8 24 -30 34q-22 11 -46 3q-23 -8 -34 -31q-11 -22 -2 -45l461 -1315q0 1 2 -4q1 -2 1 -3q2 -4 5 -7v-1l1 -1q3 -4 7 -8q-1 1 2 -2l6 -4q1 -1 3 -2l8 -4h1l1 -1q-1 1 0 0q3 -1 7 -2q4 0 3 0q5 -1 9 -1q5 0 10 1q-1 0 3 0
q4 1 6 2t1 0l1 1h1q4 2 7 4l4 2l6 4q3 3 2 2q4 4 7 8q-1 -2 1 2q3 3 5 7q0 1 1 3q2 6 2 4l461 1315q8 23 -2 45q-11 23 -34 31q-24 8 -46 -3z" />
    <glyph glyph-name="W" unicode="W" horiz-adv-x="2084" 
d="M1910 1431q-23 -11 -31 -34l-406 -1156l-406 1156q2 -3 -1 3q-1 3 -3 6q-1 2 -3 4q-1 3 -3 5l-4 4l-4 4q-3 2 -5 4q-2 1 -5 3q-2 1 -5 2q-1 1 -2 1l-1 1q1 -1 -3 0q-2 1 -6 2q-4 0 -5 1h-6h-6q-2 -1 -6 -1l-6 -2q-4 -1 -2 0q4 1 -3 -2q-3 -1 -5 -2q-3 -1 -6 -3l-4 -4
l-4 -4q-2 -1 -4 -4q-2 -2 -4 -5q-1 -2 -3 -4l-2 -6q-3 -6 -2 -3l-406 -1156l-405 1156q-9 23 -31 34t-46 3q-23 -8 -34 -31q-11 -22 -2 -46l462 -1317q0 1 2 -4q1 -2 1 -3q2 -4 4 -7l1 -1q0 -1 1 -1q3 -4 7 -8q-1 1 2 -2l6 -4q1 -1 3 -2l8 -4h1l1 -1q-1 1 0 0q3 -1 7 -2
q4 0 3 0q5 -1 9 -1q5 0 10 1q-1 0 3 0q4 1 6 2t1 0l1 1h1l8 4q1 1 3 2l6 4q3 3 2 2q4 4 7 8l1 1v1q3 3 5 7q0 1 1 3q2 5 2 4l406 1156l406 -1156q0 1 1 -4q2 -2 2 -3q2 -4 4 -7q0 -1 1 -1v-1l8 -8q-1 1 2 -2l6 -4q1 -1 3 -2q3 -2 8 -4v0q1 0 1 -1q0 1 1 0q3 -1 7 -2q4 0 3 0
q5 -1 9 -1q5 0 10 1q-1 0 3 0q4 1 6 2q1 1 1 0q0 1 1 1h1q4 2 7 4q2 1 3 2q4 2 7 4q3 3 2 2q4 4 7 8l1 1v1q3 3 5 7q0 1 1 3q2 5 2 4l462 1317q8 24 -2 46q-11 23 -35 31q-23 8 -45 -3z" />
    <glyph glyph-name="X" unicode="X" horiz-adv-x="1200" 
d="M1031 1438q-24 -4 -39 -25l-418 -590l-418 590q-14 21 -39 25q-24 4 -45 -10q-20 -15 -24 -39q-4 -25 10 -45l443 -625l-443 -624q-14 -21 -10 -45q4 -25 24 -39q16 -11 35 -11q31 0 49 25l418 591l418 -591q18 -25 49 -25q19 0 35 11q20 14 24 39q5 24 -10 45l-442 624
l442 625q15 20 10 45q-4 24 -24 39q-20 14 -45 10z" />
    <glyph glyph-name="Y" unicode="Y" horiz-adv-x="1232" 
d="M1068 1434q-24 -2 -40 -22l-459 -574l-458 574q-16 20 -41 22q-24 3 -43 -12q-20 -16 -23 -40q-2 -25 13 -44l493 -617v-661q0 -25 17 -42q18 -18 42 -18q25 0 43 18q17 17 17 42v661l493 617q15 19 13 44q-3 24 -23 40q-19 15 -44 12z" />
    <glyph glyph-name="Z" unicode="Z" horiz-adv-x="1265" 
d="M106 1436q-25 0 -42 -17q-18 -18 -18 -43q0 -24 18 -42q17 -17 42 -17h881l-955 -1220q-24 -30 -7 -63q16 -34 54 -34h1004q24 0 42 18q17 17 17 42t-17 42q-18 18 -42 18h-881l955 1219q23 30 7 64q-16 33 -54 33h-1004z" />
    <glyph glyph-name="bracketleft" unicode="[" horiz-adv-x="537" 
d="M214 119h-95v1193h96q25 0 42 17q18 17 18 42t-18 42q-17 17 -42 17h-156q-24 0 -42 -17q-17 -17 -17 -42v-1312q0 -24 18 -42q17 -17 41 -17h156q25 0 42 18q17 17 17 42q0 24 -18 42q-17 17 -41 17h-1z" />
    <glyph glyph-name="backslash" unicode="\" horiz-adv-x="355" 
d="M14 1409q-16 -19 -14 -44l107 -1310q2 -24 20 -39q17 -16 40 -16h5q24 2 40 21t14 43l-107 1311q-2 24 -21 40t-43 14q-25 -2 -41 -20z" />
    <glyph glyph-name="bracketright" unicode="]" horiz-adv-x="559" 
d="M61 119h95v1193h-97q-24 0 -42 17q-17 17 -17 42t17 42q18 17 42 17h156q25 0 42 -17q18 -17 18 -42v-1312q0 -24 -18 -42q-17 -17 -42 -17h-155q-25 0 -42 18q-17 17 -17 42q0 24 18 42q17 17 41 17h1z" />
    <glyph glyph-name="asciicircum" unicode="^" horiz-adv-x="806" 
d="M407 1392v0v1q-1 1 -5 6q-3 3 -2 3q0 -1 -3 2q-5 4 -7 5v1h-1q-1 1 -2 1q-5 3 -7 4q-1 0 -5 2q-5 1 -6 1t-6 1h-6h-5q-5 -1 -6 -1t-6 -1q-4 -2 -5 -2q-3 -1 -7 -4q-5 -3 -3 -1v0v-1q-2 -1 -7 -5t-3 -2q1 0 -2 -3q-4 -5 -5 -6v-1v0l-298 -456q-14 -21 -9 -45t26 -38
q15 -9 33 -9q32 0 50 27l247 380l248 -380q18 -27 50 -27q18 0 33 9q20 14 25 38q6 24 -8 45z" />
    <glyph glyph-name="underscore" unicode="_" horiz-adv-x="759" 
d="M60 69q-25 0 -43 -17q-17 -18 -17 -42q0 -25 17 -43q18 -17 43 -17h549q25 0 43 17q17 18 17 43q0 24 -17 42q-18 17 -43 17h-549z" />
    <glyph glyph-name="grave" unicode="`" horiz-adv-x="1024" 
d="M673 1079h-69l-330 202q-31 20 -46.5 40t-15.5 42q0 31 20.5 51t53.5 20q20 0 40.5 -12t55.5 -47z" />
    <glyph glyph-name="a" unicode="a" horiz-adv-x="1377" 
d="M377 455l316 762l316 -762h-632zM149 0q40 0 55 37l124 298h730l124 -298q15 -37 55 -37q12 0 23 5q23 9 32 32q10 23 0 46l-139 335v1l-405 977q-2 5 -5 11q0 -1 -4 4q-3 4 -4 5q-1 0 -5 4l-4 3q-10 7 -22 9q1 0 -5 0q-5 1 -6 1t-7 -1h-5q-11 -2 -21 -9q1 1 -4 -3
q-4 -3 -5 -4t-4 -5l-4 -4q-3 -6 -5 -11l-405 -977v-1l-139 -335q-10 -23 0 -46q9 -23 32 -32q11 -5 23 -5z" />
    <glyph glyph-name="b" unicode="b" horiz-adv-x="1332" 
d="M297 655h401h20h8q126 0 213 -77q87 -76 87 -188t-88 -191q-89 -79 -214 -79h-427v535zM297 1313l401 2q127 0 214 -76q87 -77 87 -188q0 -114 -88 -195t-213 -81l-401 -1v539zM724 0q175 0 298 115q124 114 124 275q0 107 -57 197q-56 88 -153 138q85 54 133 139
q50 87 50 187q0 161 -122 273q-122 111 -299 111l-461 -2q-25 0 -43 -18q-17 -17 -17 -42v-1313q0 -25 18 -42q17 -18 42 -18h487z" />
    <glyph glyph-name="c" unicode="c" horiz-adv-x="1437" 
d="M1296 187q19 17 20 42t-16 43q-17 19 -42 20t-43 -16q-171 -155 -403 -155q-247 0 -422 175t-175 422q0 248 175 423t422 175q204 0 365 -123q19 -16 44 -12q25 3 40 23q15 19 12 44t-23 40q-193 149 -438 149q-297 0 -507 -211q-211 -210 -211 -508q0 -297 211 -507
q210 -211 507 -211q279 0 484 187z" />
    <glyph glyph-name="d" unicode="d" horiz-adv-x="1460" 
d="M299 1315h273q246 0 421 -174q175 -175 175 -421t-175 -421q-175 -174 -422 -174l-272 -4v1194zM240 0l332 4q296 0 506 210t210 506t-210 506t-506 210h-333q-25 0 -42 -18q-18 -18 -18 -43v-1315q0 -25 18 -43q17 -17 42 -17h1z" />
    <glyph glyph-name="e" unicode="e" horiz-adv-x="1208" 
d="M1028 0q25 0 42 18q18 17 18 42t-18 42q-17 18 -42 18h-734v538h549q25 0 42 18q18 17 18 42t-18 42q-17 18 -42 18h-549v538l734 -2v0q25 0 42 17q18 18 18 43q0 24 -18 42q-17 18 -42 18l-794 2q-24 1 -42 -18q-18 -17 -18 -42v-1316q0 -25 18 -42q17 -18 42 -18h794z
" />
    <glyph glyph-name="f" unicode="f" horiz-adv-x="1139" 
d="M298 658h549q25 0 42 18q18 17 18 42t-18 42q-17 18 -42 18h-549v538l734 -2v0q25 0 42 17q18 18 18 43q0 24 -18 42q-17 18 -42 18l-794 2q-23 1 -42 -18q-18 -17 -18 -42v-1316q0 -25 18 -42q17 -18 42 -18t42 18q18 17 18 42v598z" />
    <glyph glyph-name="g" unicode="g" horiz-adv-x="1516" 
d="M305 211q-211 210 -211 507t211 508q210 210 507 210q244 0 437 -148q20 -16 23 -40q4 -25 -12 -45q-15 -20 -40 -23q-24 -3 -44 12q-161 124 -364 124q-247 0 -422 -176q-175 -175 -175 -422t175 -422t422 -175q232 0 402 155q19 17 44 16t42 -20q16 -18 15 -43t-19 -42
q-206 -187 -484 -187q-297 0 -507 211zM1224 18q-17 17 -17 42v634h-502q-25 0 -43 17q-18 18 -18 43t18 42q18 18 43 18h562q25 0 43 -18q17 -17 17 -42v-694q0 -25 -17 -42q-18 -18 -43 -18t-43 18z" />
    <glyph glyph-name="h" unicode="h" horiz-adv-x="1443" 
d="M1217 18q18 17 18 42v1313q0 25 -18 42q-17 18 -42 18t-43 -18q-17 -17 -17 -42v-596h-817v596q0 25 -17 42q-18 18 -43 18t-42 -18q-18 -17 -18 -42v-1313q0 -25 18 -42q17 -18 42 -18t43 18q17 17 17 42v596h817v-596q0 -25 17 -42q18 -18 43 -18t42 18z" />
    <glyph glyph-name="i" unicode="i" horiz-adv-x="528" 
d="M300 1370q0 25 -18 42q-17 18 -42 18t-42 -18q-18 -17 -18 -42v-1310q0 -25 18 -42q17 -18 42 -18t42 18q18 17 18 42v1310z" />
    <glyph glyph-name="j" unicode="j" horiz-adv-x="701" 
d="M369 408q0 -119 -85 -204q-84 -84 -203 -84q-25 0 -42 -17q-18 -18 -18 -43t18 -42q17 -18 42 -18q169 0 288 120q120 119 120 288v967q0 25 -18 43q-17 18 -42 18t-43 -18q-17 -18 -17 -43v-967z" />
    <glyph glyph-name="k" unicode="k" horiz-adv-x="1272" 
d="M279 28q18 17 18 42v382l178 188l591 -622q18 -18 43 -18q24 0 41 16q18 17 19 42q0 25 -17 42l-595 626l575 604q17 18 16 43q0 24 -18 41t-43 17q-24 -1 -41 -19l-749 -788v753q0 24 -18 42q-17 17 -42 17q-24 0 -42 -17q-17 -18 -17 -42v-1307q0 -25 17 -42
q18 -18 42 -18q25 0 42 18z" />
    <glyph glyph-name="l" unicode="l" horiz-adv-x="1079" 
d="M196 1413q-17 -17 -17 -42v-1311q0 -25 17 -43q18 -17 43 -17h708q25 0 42 17q18 18 18 43q0 24 -18 42q-17 17 -42 17h-649v1252q0 25 -17 42q-18 18 -42 18q-25 0 -43 -18z" />
    <glyph glyph-name="m" unicode="m" horiz-adv-x="1818" 
d="M297 1157l537 -887l1 -1v-1q2 -2 4 -5l4 -4l4 -4q3 -2 5 -4q5 -3 2 -1q1 0 1 -1h2q3 -2 6 -3q2 -1 5 -2t6 -1q2 -1 5 -1q3 -1 6 -1t6 1q3 0 5 1q3 0 6 1t5 2q3 1 6 3q4 2 3 1q-3 -2 2 1q2 2 5 4l4 4l4 4q2 3 4 5v1l1 1l537 887v-1097q0 -25 17 -43q18 -17 42 -17
q25 0 42 17q18 18 18 43v1311q0 45 -44 57q-43 12 -67 -27l-596 -985l-596 985q-24 39 -67 27q-44 -12 -44 -57v-1311q0 -25 17 -43q18 -17 43 -17q24 0 42 17q17 18 17 43v1097z" />
    <glyph glyph-name="n" unicode="n" horiz-adv-x="1522" 
d="M1220 15q3 -2 4 -3q3 -2 7 -4q3 -2 4 -3q3 -1 8 -3l4 -1q6 -1 12 -1v0q5 0 11 1q1 0 4 1q4 1 7 2l4 2q3 1 6 3q2 1 3 2q4 3 2 2q-2 -2 3 2l4 4q2 2 4 5t3 5q2 2 3 5t2 5t2 6q1 3 1 5q1 3 1 6q0 6 0 4v1317q0 25 -17 42q-18 18 -43 18q-24 0 -42 -18q-17 -17 -17 -42
v-1142l-916 1179q-26 34 -67 20q-40 -14 -40 -57v-1317q0 -25 18 -42q17 -18 42 -18t42 18q18 17 18 42v1142l915 -1179l1 -1l1 -1z" />
    <glyph glyph-name="o" unicode="o" horiz-adv-x="1678" 
d="M1222 1139q176 -175 176 -422t-176 -422q-175 -175 -422 -175t-422 175t-175 422t175 422q175 176 422 176t422 -176zM1307 210q210 210 210 507t-210 507t-507 210t-507 -210t-210 -507t210 -507t507 -210t507 210z" />
    <glyph glyph-name="p" unicode="p" horiz-adv-x="1239" 
d="M298 775v540h396q125 0 214 -79t89 -191q0 -110 -87 -189q-86 -78 -208 -81h-404zM238 1435q-25 0 -42 -18q-18 -17 -18 -42v-1315q0 -25 18 -42q17 -18 42 -18t42 18q18 17 18 42v596h393q6 -1 3 -1q2 0 4 1h12h8q166 9 282 121q116 113 116 268q0 161 -123 275
q-124 115 -299 115h-456z" />
    <glyph glyph-name="q" unicode="q" horiz-adv-x="1708" 
d="M389 295q-175 176 -175 423q0 248 175 423q176 176 423 176q248 0 423 -176q176 -175 176 -423q0 -203 -125 -364l-147 147q-18 18 -43 18q-24 0 -42 -18q-17 -17 -17 -42t17 -42l150 -150q-169 -147 -392 -147q-247 0 -423 175zM1372 268q158 198 158 450
q0 297 -210 508q-211 210 -508 210t-507 -210q-211 -211 -211 -508t211 -507q210 -211 507 -211q273 0 477 182l164 -164q18 -18 42 -18q25 0 43 18q17 17 17 42t-17 42z" />
    <glyph glyph-name="r" unicode="r" horiz-adv-x="1251" 
d="M903 859q-85 -78 -207 -80h-400v535h393q124 0 212 -79q88 -78 88 -189q0 -109 -86 -187zM236 1432q-24 0 -42 -17q-17 -17 -17 -42v-1304q0 -24 17 -42q18 -17 42 -17q25 0 42 17q18 18 18 42v591h334l309 -627q16 -33 53 -33q14 0 26 6q22 11 30 34t-3 45l-285 581
q149 23 247 130q100 108 100 250q0 160 -122 273q-123 113 -296 113h-453z" />
    <glyph glyph-name="s" unicode="s" horiz-adv-x="1211" 
d="M319 65q-149 79 -188 228q-6 23 6 45q13 21 37 27q23 6 45 -6q21 -13 27 -36q27 -104 140 -159q94 -45 215 -45q131 0 225 84t100 205q4 87 -60 154q-87 93 -277 96q-25 0 -42 18t-17 42q1 25 19 42q17 17 42 17q240 -4 362 -134q98 -103 91 -240q-7 -169 -136 -286
q-128 -117 -307 -117q-158 0 -282 65zM583 658q-240 3 -362 133q-98 104 -92 241q8 169 137 286q128 117 307 117q158 0 282 -66q149 -78 188 -227q6 -24 -6 -45q-13 -21 -37 -27q-24 -7 -45 6q-21 12 -27 36q-27 104 -140 158q-94 46 -215 46q-131 0 -225 -84t-100 -206
q-4 -86 60 -153q87 -93 277 -96q25 -1 42 -18q17 -18 17 -43q-1 -24 -18 -41q-18 -17 -42 -17h-1z" />
    <glyph glyph-name="t" unicode="t" horiz-adv-x="1110" 
d="M489 60q0 -25 17 -43q18 -17 42 -17q25 0 43 17q17 18 17 43v1255h395q25 0 42 17q18 17 18 42t-18 42q-17 18 -42 18h-909q-25 0 -43 -18q-17 -17 -17 -42t17 -42q18 -17 43 -17h395v-1255z" />
    <glyph glyph-name="u" unicode="u" horiz-adv-x="1344" 
d="M1034 1414q-17 -17 -17 -42v-881q0 -155 -110 -264q-110 -110 -264 -110q-155 0 -264 110q-110 109 -110 264v881q0 25 -17 42t-41 17q-25 0 -42 -17t-17 -42v-881q0 -203 144 -347t347 -144t347 144t144 347v881q0 25 -17 42q-18 17 -42 17t-41 -17z" />
    <glyph glyph-name="v" unicode="v" horiz-adv-x="1220" 
d="M1035 1428q-22 -10 -30 -34l-406 -1154l-405 1154q-8 24 -30 34q-22 11 -46 3q-23 -8 -34 -31q-11 -22 -2 -45l461 -1315q0 1 2 -4q1 -2 1 -3q2 -4 5 -7v-1l1 -1q3 -4 7 -8q-1 1 2 -2l6 -4q1 -1 3 -2l8 -4h1l1 -1q-1 1 0 0q3 -1 7 -2q4 0 3 0q5 -1 9 -1q5 0 10 1
q-1 0 3 0q4 1 6 2t1 0l1 1h1q4 2 7 4l4 2l6 4q3 3 2 2q4 4 7 8q-1 -2 1 2q3 3 5 7q0 1 1 3q2 6 2 4l461 1315q8 23 -2 45q-11 23 -34 31q-24 8 -46 -3z" />
    <glyph glyph-name="w" unicode="w" horiz-adv-x="2131" 
d="M1961 1431q-23 -11 -31 -34l-406 -1156l-406 1156q2 -3 -1 3q-1 3 -3 6q-1 2 -3 4q-1 3 -3 5l-4 4l-4 4q-3 2 -5 4q-2 1 -5 3q-2 1 -5 2q-1 1 -2 1l-1 1q1 -1 -3 0q-2 1 -6 2q-4 0 -5 1h-6h-6q-2 -1 -6 -1l-6 -2q-4 -1 -2 0q4 1 -3 -2q-3 -1 -5 -2q-3 -1 -6 -3l-4 -4
l-4 -4q-2 -1 -4 -4q-2 -2 -4 -5q-1 -2 -3 -4l-2 -6q-3 -6 -2 -3l-406 -1156l-405 1156q-9 23 -31 34t-46 3q-23 -8 -34 -31q-11 -22 -2 -46l462 -1317q0 1 2 -4q1 -2 1 -3q2 -4 4 -7l1 -1q0 -1 1 -1q3 -4 7 -8q-1 1 2 -2l6 -4q1 -1 3 -2l8 -4h1l1 -1q-1 1 0 0q3 -1 7 -2
q4 0 3 0q5 -1 9 -1q5 0 10 1q-1 0 3 0q4 1 6 2t1 0l1 1h1l8 4q1 1 3 2l6 4q3 3 2 2q4 4 7 8l1 1v1q3 3 5 7q0 1 1 3q2 5 2 4l406 1156l406 -1156q0 1 1 -4q2 -2 2 -3q2 -4 4 -7q0 -1 1 -1v-1l8 -8q-1 1 2 -2l6 -4q1 -1 3 -2q3 -2 8 -4v0q1 0 1 -1q0 1 1 0q3 -1 7 -2q4 0 3 0
q5 -1 9 -1q5 0 10 1q-1 0 3 0q4 1 6 2q1 1 1 0q0 1 1 1h1q4 2 7 4q2 1 3 2q4 2 7 4q3 3 2 2q4 4 7 8l1 1v1q3 3 5 7q0 1 1 3q2 5 2 4l462 1317q8 24 -2 46q-11 23 -35 31q-23 8 -45 -3z" />
    <glyph glyph-name="x" unicode="x" horiz-adv-x="1285" 
d="M1094 1438q-24 -4 -39 -25l-418 -590l-418 590q-14 21 -39 25q-24 4 -45 -10q-20 -15 -24 -39q-4 -25 10 -45l443 -625l-443 -624q-14 -21 -10 -45q4 -25 24 -39q16 -11 35 -11q31 0 49 25l418 591l418 -591q18 -25 49 -25q19 0 35 11q20 14 24 39q5 24 -10 45l-442 624
l442 625q15 20 10 45q-4 24 -24 39q-20 14 -45 10z" />
    <glyph glyph-name="y" unicode="y" horiz-adv-x="1295" 
d="M1128 1434q-24 -2 -40 -22l-459 -574l-458 574q-16 20 -41 22q-24 3 -43 -12q-20 -16 -23 -40q-2 -25 13 -44l493 -617v-661q0 -25 17 -42q18 -18 42 -18q25 0 43 18q17 17 17 42v661l493 617q15 19 13 44q-3 24 -23 40q-19 15 -44 12z" />
    <glyph glyph-name="z" unicode="z" horiz-adv-x="1349" 
d="M170 1436q-25 0 -42 -17q-18 -18 -18 -43q0 -24 18 -42q17 -17 42 -17h881l-955 -1220q-24 -30 -7 -63q16 -34 54 -34h1004q24 0 42 18q17 17 17 42t-17 42q-18 18 -42 18h-881l955 1219q23 30 7 64q-16 33 -54 33h-1004z" />
    <glyph glyph-name="braceleft" unicode="{" horiz-adv-x="550" 
d="M242 656q-20 16 -75 44q-15 7 -14 7h2q59 19 81 32q36 23 39 60q18 310 156 542q13 21 7 44q-6 24 -27 37t-45 7t-36 -27q-147 -245 -172 -569q-12 -4 -38 -12q-61 -19 -83 -33q-37 -24 -37 -63v-20q1 -36 34 -64q21 -17 79 -47q35 -18 47 -25q30 -307 170 -540
q17 -29 51 -29q16 0 30 8q21 13 27 37t-6 45q-131 216 -155 507q-3 33 -35 59z" />
    <glyph glyph-name="bar" unicode="|" horiz-adv-x="247" 
d="M15 1419q-15 -14 -15 -35v-1334q0 -21 15 -35q14 -15 35 -15q20 0 35 15q15 14 15 35v1334q0 21 -15 35q-15 15 -35 15q-21 0 -35 -15z" />
    <glyph glyph-name="braceright" unicode="}" horiz-adv-x="550" 
d="M280 862q-30 307 -170 540q-12 21 -36 27t-45 -7t-27 -37q-6 -23 7 -44q130 -217 154 -507q3 -33 36 -60q20 -16 75 -44q14 -7 13 -6l-2 -1q-59 -18 -81 -32q-36 -22 -38 -59q-19 -311 -157 -542q-13 -21 -7 -45t27 -37q14 -8 31 -8q33 0 51 29q147 245 171 568
q12 5 38 13q61 18 83 33q37 23 37 62v21q0 36 -34 64q-21 17 -79 46q-35 18 -47 26z" />
    <glyph glyph-name="asciitilde" unicode="~" 
d="M923 878v-156q-63 -72 -122 -97.5t-116 -25.5q-60 0 -177.5 48.5t-176.5 48.5q-51 0 -107.5 -28t-129.5 -112v156q64 73 123 99t114 26q64 0 181.5 -49.5t172.5 -49.5q52 0 108.5 28t129.5 112z" />
    <glyph glyph-name="exclamdown" unicode="&#xa1;" horiz-adv-x="672" 
 />
    <glyph glyph-name="cent" unicode="&#xa2;" horiz-adv-x="1139" 
 />
    <glyph glyph-name="sterling" unicode="&#xa3;" horiz-adv-x="823" 
d="M539 1272q68 -44 100 -120q9 -22 32 -32q23 -9 46 1q23 9 32 32q10 23 0 46q-46 109 -144 173q-97 65 -215 65q-161 0 -276 -114q-114 -114 -114 -276v-987q0 -25 18 -42q17 -18 42 -18h631q25 0 43 18q17 17 17 42t-17 42q-18 18 -43 18h-571v439h297q25 0 42 17
q18 18 18 43t-18 42q-17 18 -42 18h-297v368q0 112 79 191t191 79q82 0 149 -45z" />
    <glyph glyph-name="currency" unicode="&#xa4;" 
d="M350 560q41 -40 99 -57q29 -8 58 -8t58 8q58 17 99 57q40 41 57 99q9 29 9 58t-9 58q-17 58 -57 99q-41 40 -100 57q-29 8 -58 8t-58 -9q-58 -17 -98 -56q-39 -40 -56 -98q-10 -30 -10 -60q0 -28 9 -56q16 -59 57 -100zM240 903l-118 118l80 81l118 -118q44 30 99 46
q44 14 89 14q41 0 83 -12q57 -17 102 -48l118 118l80 -81l-117 -117q31 -46 48 -102q12 -42 12 -85q0 -42 -12 -85q-17 -56 -48 -102l117 -117l-80 -81l-118 118q-45 -32 -101 -48q-42 -12 -85 -12q-42 0 -85 12q-57 16 -102 48l-118 -118l-80 81l118 117q-32 46 -48 103
q-12 42 -12 84q0 44 13 87q16 55 47 99z" />
    <glyph glyph-name="yen" unicode="&#xa5;" horiz-adv-x="1262" 
d="M547 225l-2 242q0 19 -1.5 35t-4.5 32l-484 1q-14 0 -21 6.5t-7 19.5t6.5 19t21.5 6h467l-121 172h-344q-17 0 -23.5 5.5t-6.5 18.5q0 14 6 19.5t22 5.5h307q-43 57 -108 155q-131 197 -227 197q-7 0 -13 5.5t-6 11.5q0 19 10.5 27.5t32.5 8.5q27 0 123 -8t164 -8h88
q33 0 41 -6.5t8 -26.5q0 -8 -15 -14t-38 -6q-6 0 -18.5 2t-18.5 2q-24 0 -37.5 -9.5t-13.5 -25.5q0 -18 16.5 -52t46.5 -77l158 -221q13 -19 33 -53q41 -70 71 -70q9 0 16.5 5t14.5 15l277 396q8 12 13 26.5t5 24.5q0 18 -10 27t-37 14q-15 2 -41 4q-47 3 -47 25
q0 15 8 22.5t25 7.5q3 0 15 -1q56 -7 108 -7h139q30 0 65 1t37 1q11 0 18.5 -4.5t8.5 -11.5q0 -28 -38 -34q-18 -3 -27 -5q-63 -15 -147 -117l-12 -15l-169 -206h323q15 0 24 -6t9 -17q0 -15 -6 -20.5t-23 -5.5h-366q-46 -57 -96.5 -112.5t-52.5 -59.5h511q18 0 25.5 -5.5
t7.5 -17.5q0 -14 -7 -21t-22 -7h-530q0 -11 -1 -30.5t-1 -29.5l2 -215q0 -114 5.5 -150t20.5 -44q30 -17 107.5 -19t77.5 -31q0 -12 -10 -20t-25 -8q-2 0 -35.5 4t-64.5 4q-91 0 -208.5 -4t-142.5 -4q-31 0 -40 4t-9 16t8 18.5t37 12.5q9 2 25 5q74 16 92 32q17 13 24 47
t7 102z" />
    <glyph glyph-name="brokenbar" unicode="&#xa6;" 
d="M427 371h160v-789h-160v789zM427 1578h160v-789h-160v789z" />
    <glyph glyph-name="section" unicode="&#xa7;" 
d="M545 321q56 16 97 53q73 65 73 166q0 5 -1 10h-2q-1 14 -4 27q-22 61 -113 127q-59 29 -126 29q-78 0 -125 -44.5t-47 -117.5q0 -123 248 -250zM466 -346q113 6 185 69q72 64 72 165q0 125 -316 276q-123 64 -175.5 137t-52.5 177q0 148 89 237q67 65 170 82l-40 19
q-123 64 -175.5 137t-52.5 177q0 148 89 237q82 79 216 86q8 1 17 1h3q66 0 163 -16.5t97 -41.5v-194h-51q-5 81 -80 132q-70 47 -149 51h-15q-78 0 -125 -44.5t-47 -117.5q0 -132 287 -269q149 -67 204.5 -143.5t55.5 -187.5q0 -171 -101 -282q-47 -39 -99 -64
q108 -56 154 -118q55 -77 55 -187q0 -171 -101 -283q-124 -102 -277 -105v1q-6 -1 -13 -1h-3q-66 0 -163 16.5t-97 41.5v194h51q5 -81 80 -132q68 -45 145 -50z" />
    <glyph glyph-name="dieresis" unicode="&#xa8;" horiz-adv-x="1024" 
d="M223 1289l71 72q13 12 25 12q11 0 27 -14l69 -73q10 -14 10 -25q0 -13 -12 -27l-69 -75q-17 -17 -25 -17q-14 0 -25 12l-76 86q-9 12 -9 23q0 13 14 26zM588 1289l71 72q13 12 25 12q11 0 27 -13l69 -74q10 -14 10 -25q0 -13 -12 -26l-69 -76q-17 -17 -25 -17
q-14 0 -25 12l-76 87q-9 11 -9 22q0 13 14 26z" />
    <glyph glyph-name="copyright" unicode="&#xa9;" horiz-adv-x="2012" 
d="M723 947q-95 -95 -95 -229q0 -135 95 -230t230 -95q114 0 203 72q20 16 22 40q3 25 -13 44q-15 20 -40 22q-25 3 -44 -13q-56 -45 -128 -45q-85 0 -145 60t-60 145q0 84 60 144t145 60q96 0 158 -75q15 -19 40 -21q25 -3 44 13t22 41q2 24 -14 44q-97 118 -250 118
q-135 0 -230 -95zM530 295q-175 175 -175 423q0 247 175 422t423 175q247 0 422 -175t175 -422q0 -248 -175 -423t-422 -175q-248 0 -423 175zM445 1225q-210 -211 -210 -507q0 -297 210 -508q211 -210 508 -210q296 0 507 210q210 211 210 508q0 296 -210 507
q-211 210 -507 210q-297 0 -508 -210z" />
    <glyph glyph-name="ordfeminine" unicode="&#xaa;" horiz-adv-x="648" 
 />
    <glyph glyph-name="guillemotleft" unicode="&#xab;" horiz-adv-x="944" 
d="M174 479l342 303h14v-37l-205 -266l205 -266v-37h-14zM487 479l342 303h14v-37l-205 -266l205 -266v-37h-14z" />
    <glyph glyph-name="logicalnot" unicode="&#xac;" 
d="M87 767h840v-491l-1 -1h-98v392h-741v100z" />
    <glyph glyph-name="registered" unicode="&#xae;" horiz-adv-x="1674" 
d="M751 1099v-374l3 -8q23 -56 56 -81q29 -22 56 -22h6q31 4 61.5 38.5t46.5 97.5q13 50 13 103q0 13 -1 27q-4 67 -28 124.5t-56.5 76t-63.5 18.5h-93zM984 576l82 -116q100 -141 150 -141h34v-50h-346v50h45q30 0 30 22q0 29 -69 114l-75 102q-42 0 -84 42v-159
q0 -121 36 -121h53v-50h-316v50h43q37 0 37 121v538q0 121 -37 121h-43v70h356q64 -1 125 -42q60 -41 92.5 -114t32.5 -152q0 -78 -32 -150.5t-114 -134.5zM840 1456q145 0 280 -56.5t239 -160.5q102 -101 158.5 -238t56.5 -283q0 -147 -56.5 -282t-162.5 -240
q-105 -105 -239 -159.5t-283 -54.5q-146 0 -278 55.5t-238 160.5q-106 104 -161.5 237.5t-55.5 282.5q0 148 55.5 283t159.5 238q102 104 238.5 160.5t286.5 56.5zM357 1197q-95 -96 -146 -219.5t-51 -259.5q0 -137 51 -259t148 -219q98 -96 219 -147t256 -51
q137 0 259.5 50.5t219.5 145.5q97 98 149 221.5t52 258.5q0 134 -52 259.5t-145 219.5q-96 96 -220 147.5t-258 51.5q-137 0 -262 -51.5t-220 -147.5z" />
    <glyph glyph-name="macron" unicode="&#xaf;" horiz-adv-x="670" 
 />
    <glyph glyph-name="degree" unicode="&#xb0;" horiz-adv-x="674" 
d="M339 1372q-86 0 -147.5 -61t-61.5 -148t61 -147t148 -60t147 60t60 147t-60.5 148t-146.5 61zM339 1442q115 0 196 -81.5t81 -196.5q0 -114 -82 -196t-197 -82q-117 0 -197 81t-80 197t81.5 197t197.5 81z" />
    <glyph glyph-name="plusminus" unicode="&#xb1;" 
 />
    <glyph glyph-name="uni00B2" unicode="&#xb2;" 
 />
    <glyph glyph-name="uni00B3" unicode="&#xb3;" 
 />
    <glyph glyph-name="acute" unicode="&#xb4;" horiz-adv-x="1024" 
d="M607 1375q35 35 55.5 47t40.5 12q33 0 53.5 -20t20.5 -51q0 -22 -15.5 -42t-46.5 -40l-330 -203h-69z" />
    <glyph glyph-name="mu" unicode="&#xb5;" horiz-adv-x="1180" 
 />
    <glyph glyph-name="paragraph" unicode="&#xb6;" horiz-adv-x="1024" 
d="M929 1435v-70h-127v-1365h-82v1365h-166v-1365h-84v738q-174 8 -275.5 102.5t-101.5 245.5q0 157 107.5 253t285.5 96h443z" />
    <glyph glyph-name="periodcentered" unicode="&#xb7;" horiz-adv-x="508" 
d="M145 740l82 84q15 14 29 14q13 0 31 -16l80 -86q12 -16 12 -29q0 -15 -14 -31l-80 -88q-20 -20 -29 -20q-16 0 -29 14l-88 101q-10 13 -10 26q0 15 16 31z" />
    <glyph glyph-name="periodcentered" unicode="&#x2219;" horiz-adv-x="508" 
d="M145 740l82 84q15 14 29 14q13 0 31 -16l80 -86q12 -16 12 -29q0 -15 -14 -31l-80 -88q-20 -20 -29 -20q-16 0 -29 14l-88 101q-10 13 -10 26q0 15 16 31z" />
    <glyph glyph-name="cedilla" unicode="&#xb8;" horiz-adv-x="1024" 
d="M360 -290q85 -52 152 -52q66 0 94.5 21.5t28.5 66.5t-49 64q-40 16 -102 16q-16 0 -34 -2l48 176h63l-37 -104q32 4 62 5q86 0 134 -40.5t48 -113.5q0 -76 -58.5 -120.5t-160.5 -44.5q-109 0 -189 32v96z" />
    <glyph glyph-name="uni00B9" unicode="&#xb9;" 
 />
    <glyph glyph-name="ordmasculine" unicode="&#xba;" horiz-adv-x="718" 
 />
    <glyph glyph-name="guillemotright" unicode="&#xbb;" horiz-adv-x="944" 
d="M115 176h-14v37l205 266l-205 266v37h14l342 -303zM428 176h-14v37l205 266l-205 266v37h14l342 -303z" />
    <glyph glyph-name="onequarter" unicode="&#xbc;" horiz-adv-x="1708" 
 />
    <glyph glyph-name="onehalf" unicode="&#xbd;" horiz-adv-x="1964" 
 />
    <glyph glyph-name="threequarters" unicode="&#xbe;" horiz-adv-x="1708" 
 />
    <glyph glyph-name="questiondown" unicode="&#xbf;" horiz-adv-x="748" 
 />
    <glyph glyph-name="Agrave" unicode="&#xc0;" horiz-adv-x="1540" 
 />
    <glyph glyph-name="Aacute" unicode="&#xc1;" horiz-adv-x="1540" 
 />
    <glyph glyph-name="Acircumflex" unicode="&#xc2;" horiz-adv-x="1540" 
 />
    <glyph glyph-name="Atilde" unicode="&#xc3;" horiz-adv-x="1540" 
 />
    <glyph glyph-name="Adieresis" unicode="&#xc4;" horiz-adv-x="1540" 
 />
    <glyph glyph-name="Aring" unicode="&#xc5;" horiz-adv-x="1540" 
 />
    <glyph glyph-name="AE" unicode="&#xc6;" horiz-adv-x="2118" 
 />
    <glyph glyph-name="Ccedilla" unicode="&#xc7;" horiz-adv-x="1399" 
 />
    <glyph glyph-name="Egrave" unicode="&#xc8;" horiz-adv-x="1151" 
 />
    <glyph glyph-name="Eacute" unicode="&#xc9;" horiz-adv-x="1151" 
 />
    <glyph glyph-name="Ecircumflex" unicode="&#xca;" horiz-adv-x="1151" 
 />
    <glyph glyph-name="Edieresis" unicode="&#xcb;" horiz-adv-x="1151" 
 />
    <glyph glyph-name="Igrave" unicode="&#xcc;" horiz-adv-x="657" 
 />
    <glyph glyph-name="Iacute" unicode="&#xcd;" horiz-adv-x="657" 
 />
    <glyph glyph-name="Icircumflex" unicode="&#xce;" horiz-adv-x="657" 
 />
    <glyph glyph-name="Idieresis" unicode="&#xcf;" horiz-adv-x="657" 
 />
    <glyph glyph-name="Eth" unicode="&#xd0;" horiz-adv-x="1518" 
 />
    <glyph glyph-name="Ntilde" unicode="&#xd1;" horiz-adv-x="1554" 
 />
    <glyph glyph-name="Ograve" unicode="&#xd2;" horiz-adv-x="1614" 
 />
    <glyph glyph-name="Oacute" unicode="&#xd3;" horiz-adv-x="1614" 
 />
    <glyph glyph-name="Ocircumflex" unicode="&#xd4;" horiz-adv-x="1614" 
 />
    <glyph glyph-name="Otilde" unicode="&#xd5;" horiz-adv-x="1614" 
 />
    <glyph glyph-name="Odieresis" unicode="&#xd6;" horiz-adv-x="1614" 
 />
    <glyph glyph-name="multiply" unicode="&#xd7;" 
d="M507 618l-247 -247l-99 99l247 247l-247 248l99 98l247 -247l248 247l98 -99l-247 -247l247 -247l-99 -99z" />
    <glyph glyph-name="Oslash" unicode="&#xd8;" horiz-adv-x="1614" 
 />
    <glyph glyph-name="Ugrave" unicode="&#xd9;" horiz-adv-x="1501" 
 />
    <glyph glyph-name="Uacute" unicode="&#xda;" horiz-adv-x="1501" 
 />
    <glyph glyph-name="Ucircumflex" unicode="&#xdb;" horiz-adv-x="1501" 
 />
    <glyph glyph-name="Udieresis" unicode="&#xdc;" horiz-adv-x="1501" 
 />
    <glyph glyph-name="Yacute" unicode="&#xdd;" horiz-adv-x="1233" 
 />
    <glyph glyph-name="Thorn" unicode="&#xde;" horiz-adv-x="1120" 
 />
    <glyph glyph-name="germandbls" unicode="&#xdf;" horiz-adv-x="1251" 
 />
    <glyph glyph-name="agrave" unicode="&#xe0;" horiz-adv-x="922" 
 />
    <glyph glyph-name="aacute" unicode="&#xe1;" horiz-adv-x="922" 
 />
    <glyph glyph-name="acircumflex" unicode="&#xe2;" horiz-adv-x="922" 
 />
    <glyph glyph-name="atilde" unicode="&#xe3;" horiz-adv-x="922" 
 />
    <glyph glyph-name="adieresis" unicode="&#xe4;" horiz-adv-x="922" 
 />
    <glyph glyph-name="aring" unicode="&#xe5;" horiz-adv-x="922" 
 />
    <glyph glyph-name="ae" unicode="&#xe6;" horiz-adv-x="1454" 
 />
    <glyph glyph-name="ccedilla" unicode="&#xe7;" horiz-adv-x="905" 
 />
    <glyph glyph-name="egrave" unicode="&#xe8;" horiz-adv-x="909" 
 />
    <glyph glyph-name="eacute" unicode="&#xe9;" horiz-adv-x="909" 
 />
    <glyph glyph-name="ecircumflex" unicode="&#xea;" horiz-adv-x="909" 
 />
    <glyph glyph-name="edieresis" unicode="&#xeb;" horiz-adv-x="909" 
 />
    <glyph glyph-name="igrave" unicode="&#xec;" horiz-adv-x="514" 
 />
    <glyph glyph-name="iacute" unicode="&#xed;" horiz-adv-x="514" 
 />
    <glyph glyph-name="icircumflex" unicode="&#xee;" horiz-adv-x="514" 
 />
    <glyph glyph-name="idieresis" unicode="&#xef;" horiz-adv-x="514" 
 />
    <glyph glyph-name="eth" unicode="&#xf0;" horiz-adv-x="1139" 
 />
    <glyph glyph-name="ntilde" unicode="&#xf1;" horiz-adv-x="1108" 
 />
    <glyph glyph-name="ograve" unicode="&#xf2;" horiz-adv-x="1010" 
 />
    <glyph glyph-name="oacute" unicode="&#xf3;" horiz-adv-x="1010" 
 />
    <glyph glyph-name="ocircumflex" unicode="&#xf4;" horiz-adv-x="1010" 
 />
    <glyph glyph-name="otilde" unicode="&#xf5;" horiz-adv-x="1010" 
 />
    <glyph glyph-name="odieresis" unicode="&#xf6;" horiz-adv-x="1010" 
 />
    <glyph glyph-name="divide" unicode="&#xf7;" 
d="M87 647v140h839l1 -1v-139h-840zM398 408l82 84q15 14 29 14q13 0 31 -16l80 -86q12 -16 12 -29q0 -15 -14 -31l-80 -88q-20 -20 -29 -20q-16 0 -29 14l-88 101q-10 13 -10 26q0 15 16 31zM398 1101l82 84q15 14 29 14q13 0 31 -16l80 -86q12 -16 12 -29q0 -15 -14 -31
l-80 -88q-20 -20 -29 -20q-16 0 -29 14l-88 101q-10 13 -10 26q0 15 16 31z" />
    <glyph glyph-name="oslash" unicode="&#xf8;" horiz-adv-x="1010" 
 />
    <glyph glyph-name="ugrave" unicode="&#xf9;" horiz-adv-x="1059" 
 />
    <glyph glyph-name="uacute" unicode="&#xfa;" horiz-adv-x="1059" 
 />
    <glyph glyph-name="ucircumflex" unicode="&#xfb;" horiz-adv-x="1059" 
 />
    <glyph glyph-name="udieresis" unicode="&#xfc;" horiz-adv-x="1059" 
 />
    <glyph glyph-name="yacute" unicode="&#xfd;" horiz-adv-x="868" 
 />
    <glyph glyph-name="thorn" unicode="&#xfe;" horiz-adv-x="1010" 
 />
    <glyph glyph-name="ydieresis" unicode="&#xff;" horiz-adv-x="868" 
 />
    <glyph glyph-name="dotlessi" unicode="&#x131;" horiz-adv-x="514" 
d="M328 223q0 -173 100 -173h46v-50h-442v50h46q100 0 100 173v432q0 77 -111 77h-48v44q222 69 261 182h48v-735z" />
    <glyph glyph-name="circumflex" unicode="&#x2c6;" horiz-adv-x="1024" 
d="M221 1079l232 355h118l232 -355h-58l-233 216l-233 -216h-58z" />
    <glyph glyph-name="caron" unicode="&#x2c7;" horiz-adv-x="1024" 
d="M221 1434h58l233 -214l233 214h58l-232 -356h-118z" />
    <glyph glyph-name="uni02C9" unicode="&#x2c9;" horiz-adv-x="1024" 
d="M254 1195v125h516v-125h-516z" />
    <glyph glyph-name="breve" unicode="&#x2d8;" horiz-adv-x="1024" 
d="M219 1349h51q17 -73 75 -107t167 -34t166 33.5t74 107.5h51q-20 -133 -94 -201.5t-197 -68.5q-122 0 -197 69t-96 201z" />
    <glyph glyph-name="dotaccent" unicode="&#x2d9;" horiz-adv-x="1024" 
d="M422 1289l69 72q6 6 13 9t14 3q6 0 12.5 -3t12.5 -9l71 -76q5 -4 7 -10t2 -14q-1 -9 -3 -15t-8 -12l-71 -76q-12 -11 -16 -13.5t-7 -2.5q-10 0 -16.5 2.5t-10.5 8.5l-75 87q-4 4 -6 9.5t-2 13.5q0 6 3 12.5t11 13.5z" />
    <glyph glyph-name="ring" unicode="&#x2da;" horiz-adv-x="1024" 
d="M411 1257q0 -42 29 -71t71 -29t71 29t29 71q0 40 -29.5 69.5t-70.5 29.5t-70.5 -29.5t-29.5 -69.5zM335 1257q0 75 51 126t125 51q76 0 127.5 -51.5t51.5 -125.5q0 -75 -51.5 -126.5t-127.5 -51.5q-74 0 -125 51.5t-51 126.5z" />
    <glyph glyph-name="ogonek" unicode="&#x2db;" horiz-adv-x="1024" 
d="M640 0q-71 -62 -110.5 -119.5t-39.5 -112.5q0 -47 27 -75t73 -28q40 0 69.5 15.5t49.5 48.5l28 -16q-36 -63 -90.5 -97t-119.5 -34q-70 0 -114 35.5t-44 90.5q0 76 60.5 156.5t161.5 135.5h49z" />
    <glyph glyph-name="tilde" unicode="&#x2dc;" horiz-adv-x="1024" 
d="M808 1382q-20 -103 -68.5 -154t-126.5 -51h-4q-50 0 -113 23q-66 24 -114 24q-39 0 -60.5 -20.5t-33.5 -71.5h-54q19 106 68 158.5t129 52.5q46 -1 113 -24q64 -23 112 -23h4q36 0 58 20t36 66h54z" />
    <glyph glyph-name="hungarumlaut" unicode="&#x2dd;" horiz-adv-x="1072" 
d="M17 1413q-17 -18 -17 -42v-204q0 -24 17 -42q18 -17 42 -17q25 0 42 17q17 18 17 42v204q0 24 -17 42q-17 17 -42 17q-24 0 -42 -17zM326 1413q-17 -18 -17 -42v-204q0 -24 17 -42q17 -17 42 -17q24 0 42 17q17 18 17 42v204q0 24 -17 42q-18 17 -42 17q-25 0 -42 -17z
" />
    <glyph glyph-name="endash" unicode="&#x2013;" horiz-adv-x="1108" 
d="M56 419v120h996v-120h-996z" />
    <glyph glyph-name="emdash" unicode="&#x2014;" horiz-adv-x="2048" 
d="M0 419v120h2048v-120h-2048z" />
    <glyph glyph-name="quoteleft" unicode="&#x2018;" horiz-adv-x="801" 
d="M17 1414q-17 -17 -17 -41v-204q0 -25 17 -42q18 -18 42 -18q25 0 42 18q17 17 17 42v204q0 24 -17 41q-17 18 -42 18q-24 0 -42 -18z" />
    <glyph glyph-name="quoteright" unicode="&#x2019;" horiz-adv-x="801" 
d="M17 1414q-17 -17 -17 -41v-204q0 -25 17 -42q18 -18 42 -18q25 0 42 18q17 17 17 42v204q0 24 -17 41q-17 18 -42 18q-24 0 -42 -18z" />
    <glyph glyph-name="quotesinglbase" unicode="&#x201a;" horiz-adv-x="813" 
d="M17 306q-17 -17 -17 -42v-205q0 -24 17 -42q18 -17 42 -17q25 0 43 17q17 18 17 42v205q0 25 -17 42q-18 18 -43 18q-24 0 -42 -18z" />
    <glyph glyph-name="quotedblleft" unicode="&#x201c;" horiz-adv-x="1072" 
d="M17 1413q-17 -18 -17 -42v-204q0 -24 17 -42q18 -17 42 -17q25 0 42 17q17 18 17 42v204q0 24 -17 42q-17 17 -42 17q-24 0 -42 -17zM326 1413q-17 -18 -17 -42v-204q0 -24 17 -42q17 -17 42 -17q24 0 42 17q17 18 17 42v204q0 24 -17 42q-18 17 -42 17q-25 0 -42 -17z
" />
    <glyph glyph-name="quotedblright" unicode="&#x201d;" horiz-adv-x="1072" 
d="M17 1413q-17 -18 -17 -42v-204q0 -24 17 -42q18 -17 42 -17q25 0 42 17q17 18 17 42v204q0 24 -17 42q-17 17 -42 17q-24 0 -42 -17zM326 1413q-17 -18 -17 -42v-204q0 -24 17 -42q17 -17 42 -17q24 0 42 17q17 18 17 42v204q0 24 -17 42q-18 17 -42 17q-25 0 -42 -17z
" />
    <glyph glyph-name="quotedblbase" unicode="&#x201e;" horiz-adv-x="910" 
d="M238 281q44 0 88.5 -65.5t44.5 -151.5q0 -109 -71 -226.5t-139 -117.5v43q73 43 87 190q0 119 -129 161v42zM591 281q44 0 88.5 -65.5t44.5 -151.5q0 -109 -71 -226.5t-139 -117.5v43q73 43 87 190q0 119 -129 161v42z" />
    <glyph glyph-name="dagger" unicode="&#x2020;" 
d="M486 1022q-8 97 -54 178q-57 101 -57 129q0 49 36 78.5t96 29.5q57 0 94.5 -27.5t37.5 -71.5q0 -32 -55 -137q-46 -85 -55 -179q96 8 177 54q101 57 129 57q49 0 79 -36t30 -96q0 -57 -27.5 -94.5t-72.5 -37.5q-32 0 -136 55q-85 46 -179 57q8 -176 110 -277
q-106 -460 -112 -974h-38q-6 514 -114 974q102 101 111 277q-96 -10 -178 -55q-101 -57 -129 -57q-49 0 -78.5 36t-29.5 96q0 57 27.5 94.5t71.5 37.5q32 0 137 -56q85 -46 179 -55z" />
    <glyph glyph-name="daggerdbl" unicode="&#x2021;" 
d="M528 186q94 11 179 57q104 55 136 55q45 0 72.5 -37.5t27.5 -94.5q0 -60 -30 -96t-79 -36q-28 0 -129 57q-81 46 -177 54q9 -94 55 -179q55 -105 55 -137q0 -44 -37.5 -71.5t-94.5 -27.5q-60 0 -96 29.5t-36 78.5q0 28 57 129q46 81 54 178q-94 -9 -179 -55
q-105 -56 -137 -56q-44 0 -71.5 37.5t-27.5 94.5q0 60 29.5 96t78.5 36q28 0 129 -57q82 -45 178 -55q-9 226 -111 398q102 171 111 397q-96 -10 -178 -55q-101 -57 -129 -57q-49 0 -78.5 36t-29.5 96q0 57 27.5 94.5t71.5 37.5q32 0 137 -56q85 -46 179 -55q-8 97 -54 178
q-57 101 -57 129q0 49 36 78.5t96 29.5q57 0 94.5 -27.5t37.5 -71.5q0 -32 -55 -137q-46 -85 -55 -179q96 8 177 54q101 57 129 57q49 0 79 -36t30 -96q0 -57 -27.5 -94.5t-72.5 -37.5q-32 0 -136 55q-85 46 -179 57q8 -226 110 -397q-102 -172 -110 -398z" />
    <glyph glyph-name="bullet" unicode="&#x2022;" horiz-adv-x="1024" 
d="M216 718q0 123 87 209t210 86q122 0 208.5 -86.5t86.5 -208.5t-87.5 -209.5t-209.5 -87.5q-123 0 -209 87t-86 210z" />
    <glyph glyph-name="ellipsis" unicode="&#x2026;" horiz-adv-x="2048" 
d="M145 167l82 84q15 14 29 14q13 0 31 -16l80 -86q12 -16 12 -29q0 -15 -14 -31l-80 -88q-20 -20 -29 -20q-16 0 -29 14l-88 101q-10 13 -10 26q0 15 16 31zM828 167l82 84q15 14 29 14q13 0 31 -16l80 -86q12 -16 12 -29q0 -15 -14 -31l-80 -88q-20 -20 -29 -20
q-16 0 -29 14l-88 101q-10 13 -10 26q0 15 16 31zM1511 167l82 84q15 14 29 14q13 0 31 -16l80 -86q12 -16 12 -29q0 -15 -14 -31l-80 -88q-20 -20 -29 -20q-16 0 -29 14l-88 101q-10 13 -10 26q0 15 16 31z" />
    <glyph glyph-name="guilsinglleft" unicode="&#x2039;" horiz-adv-x="631" 
d="M174 479l342 303h14v-37l-205 -266l205 -266v-37h-14z" />
    <glyph glyph-name="guilsinglright" unicode="&#x203a;" horiz-adv-x="631" 
d="M115 176h-14v37l205 266l-205 266v37h14l342 -303z" />
    <glyph glyph-name="fraction" unicode="&#x2044;" horiz-adv-x="342" 
d="M-342 -29l940 1461h84l-938 -1461h-86z" />
    <glyph glyph-name="fraction" unicode="&#x2215;" horiz-adv-x="342" 
d="M-342 -29l940 1461h84l-938 -1461h-86z" />
    <glyph glyph-name="franc" unicode="&#x20a3;" 
d="M247 357h-194v60h194v732q0 235 -103 235h-96v50h915l103 -231h-49q-59 182 -190 182l-316 -1q-102 0 -102 -235v-352h361q100 0 100 63v58h50v-342h-50v60q0 62 -100 62h-361v-281h194v-60h-194v-72q0 -235 102 -235h97v-50h-560v50h96q103 0 103 235v72z" />
    <glyph glyph-name="lira" unicode="&#x20a4;" 
d="M748 1347q-72 31 -160 31h-2q-100 0 -190 -101q-84 -93 -84 -241q0 -15 1 -30q0 -106 33 -213h380v-60h-360q12 -30 26 -60h352v-60h-321q35 -63 35 -138q0 -161 -162 -375h402q130 0 189 132l49 -1l-103 -231h-719l1 50q187 238 187 418q0 77 -34 143l-2 2h-172v60h143
l-26 60h-135v60h113q-36 107 -36 193q0 226 123.5 347t310.5 121q75 0 185.5 -14t110.5 -34v-161h-58q-5 61 -77 102z" />
    <glyph glyph-name="peseta" unicode="&#x20a7;" horiz-adv-x="2028" 
d="M409 1384v-662q3 -9 7 -17q41 -102 108 -153q57 -44 116 -44q10 0 19 1q68 8 127 75t87 177q22 87 22 179q0 24 -1 47q-7 116 -49.5 218.5t-108.5 144.5q-56 35 -112 35q-10 0 -21 -1h-194zM1496 908h-179v-685q0 -81 34 -119q28 -31 81 -37l-71 192l49 1
q55 -130 114 -174q57 -44 127 -44h7q92 0 151 52q59 53 59 136q0 102 -259 226q-101 52 -144 112t-43 145q0 121 73 194zM1039 910q-7 -101 -48 -194q-50 -114 -141 -177.5t-190 -63.5q-100 0 -191 64q-33 22 -60 51v-305q0 -235 102 -235h97v-50h-560v50h96q103 0 103 235
v864q0 235 -103 235h-96v50h618q92 -2 181 -62q91 -62 143 -177q50 -113 51 -237h10q216 0 216 355h50v-355h259q42 19 110 20h2q54 0 133.5 -13.5t79.5 -33.5v-159h-42q-4 66 -65.5 108t-133.5 42q-64 0 -102.5 -36.5t-38.5 -96.5q0 -108 235 -220q122 -55 167.5 -117.5
t45.5 -153.5q0 -140 -83 -231q-102 -84 -228 -86q-58 0 -105 11q-28 6 -56 6q-18 0 -36 -3q-28 -5 -59 -5q-124 0 -173.5 57t-57.5 176h-1v687h-129z" />
    <glyph glyph-name="Euro" unicode="&#x20ac;" horiz-adv-x="1497" 
d="M860 120q-178 0 -327 99q-145 95 -216 254h309q25 0 43 17q17 18 17 43t-17 42q-18 18 -43 18h-348q-13 61 -13 123q0 90 26 175h352q25 0 43 18q17 17 17 42t-17 43q-18 17 -43 17h-299q78 137 214 217q139 83 302 83q207 0 368 -128q20 -15 45 -12q24 3 40 22
q15 20 12 45q-3 24 -22 40q-195 153 -443 153q-213 0 -392 -117q-173 -114 -259 -303h-101q-25 0 -42 -17q-18 -18 -18 -43t18 -42q17 -18 42 -18h59q-22 -86 -22 -175q0 -61 10 -123h-64q-25 0 -42 -18q-18 -17 -18 -42t18 -43q17 -17 42 -17h96q76 -210 258 -340
q186 -133 415 -133q253 0 449 158q20 16 22 41q3 24 -13 44q-15 19 -40 22t-44 -13q-164 -132 -374 -132z" />
    <glyph glyph-name="uni2116" unicode="&#x2116;" horiz-adv-x="2271" 
 />
    <glyph glyph-name="trademark" unicode="&#x2122;" horiz-adv-x="1497" 
 />
    <glyph glyph-name="partialdiff" unicode="&#x2202;" 
d="M232 537q0 -41 5 -79q14 -122 61.5 -230t118.5 -165q64 -53 128 -53q6 0 13 1q70 5 127.5 70.5t80.5 179.5q16 73 16 149q0 42 -5 85q-14 122 -62.5 231.5t-119.5 165.5q-65 50 -128 50h-11q-68 -5 -126 -69.5t-82 -178.5q-16 -84 -16 -157zM937 477q0 -132 -56.5 -251
t-159 -185t-214.5 -66t-214.5 66t-159 185t-56.5 251q0 131 58 251t161 185t211 65q109 0 212 -65q29 -18 54 -41q-84 235 -233.5 377t-326.5 155v55q306 0 515 -285t209 -697z" />
    <glyph glyph-name="Delta" unicode="&#x2206;" horiz-adv-x="1081" 
d="M514 1195l-406 -1072h801zM547 1434l526 -1434h-1067z" />
    <glyph glyph-name="product" unicode="&#x220f;" horiz-adv-x="1515" 
d="M511 1384q-102 0 -102 -235v-1281q0 -235 102 -235h97v-51h-560v51h96q103 0 103 235v1281q0 235 -103 235h-96v50h1419v-50h-97q-102 0 -102 -235v-1281q0 -235 102 -235h97v-50h-560v50h96q103 0 103 235v1281q0 235 -103 235h-492z" />
    <glyph glyph-name="summation" unicode="&#x2211;" horiz-adv-x="1206" 
d="M1059 548l-788 -914h635q130 0 189 182h49l-103 -232h-921v50q62 0 106 53l663 781l-663 859q-44 57 -106 57v50h921l103 -232h-49q-59 182 -189 182h-485z" />
    <glyph glyph-name="minus" unicode="&#x2212;" 
d="M87 647v140h839l1 -1v-139h-840z" />
    <glyph glyph-name="radical" unicode="&#x221a;" 
d="M181 0l-164 359l74 35l85 -185l728 1470h150v-60h-72z" />
    <glyph glyph-name="infinity" unicode="&#x221e;" 
d="M439 755q-15 103 -74 133q-46 22 -84 22q-12 0 -23 -2q-49 -10 -92.5 -44.5t-65.5 -84.5q-20 -46 -20 -90v-8q2 -48 27.5 -89t71.5 -58q29 -11 61 -11q16 0 33 3q47 10 90.5 43.5t75.5 185.5zM466 687q12 -96 94 -153q69 -48 123 -48q11 0 21 2q62 12 117.5 52t84.5 101
q26 54 26 108v11q-2 60 -35.5 108.5t-91.5 68.5q-37 13 -76 13q-22 0 -44 -4q-67 -9 -127 -62t-92 -197zM450 827q9 35 21 69q34 88 95 137t128 49t128 -48t95 -135t34 -182t-34 -182t-95 -135t-128 -48t-128 49t-95 136q-12 35 -21 70q-5 -21 -12 -41q-27 -73 -74 -113
t-99 -40t-100 41t-73.5 113.5t-25.5 149.5q0 76 25.5 149t73.5 114t100 41t99 -40t74 -112q7 -21 12 -42z" />
    <glyph glyph-name="integral" unicode="&#x222b;" horiz-adv-x="665" 
d="M-12 -281q-60 0 -60 29v159h36q1 -43 34.5 -64.5t63.5 -21.5h1q82 0 115 162q32 162 40 316l70 734l8 62q27 238 135 429.5t234 191.5q60 0 60 -29v-159h-36q-1 43 -35 64.5t-63 21.5q-71 0 -116 -155.5t-49 -363.5l-73 -767q-20 -231 -130.5 -420t-234.5 -189z" />
    <glyph glyph-name="approxequal" unicode="&#x2248;" 
d="M923 1053v-156q-63 -72 -122 -97.5t-116 -25.5q-60 0 -177.5 48.5t-176.5 48.5q-51 0 -107.5 -28t-129.5 -112v156q64 73 123 99t114 26q64 0 181.5 -49.5t172.5 -49.5q52 0 108.5 28t129.5 112zM923 705v-156q-63 -72 -122 -97.5t-116 -25.5q-60 0 -177.5 48.5
t-176.5 48.5q-51 0 -107.5 -28t-129.5 -112v156q64 73 123 99t114 26q64 0 181.5 -49.5t172.5 -49.5q52 0 108.5 28t129.5 112z" />
    <glyph glyph-name="lessequal" unicode="&#x2264;" 
d="M927 1074l-625 -359l625 -355v-167l-840 481v83l840 484v-167zM87 1v140h839l1 -1v-139h-840z" />
    <glyph glyph-name="greaterequal" unicode="&#x2265;" 
d="M87 1241l840 -484v-83l-840 -481v167l625 355l-625 359v167zM87 2v140h839l1 -1v-139h-840z" />
    <glyph glyph-name="uniF001" unicode="&#xf001;" horiz-adv-x="1073" 
 />
    <glyph glyph-name="uniF001" unicode="&#xfb01;" horiz-adv-x="1073" 
 />
    <glyph glyph-name="uniF002" unicode="&#xf002;" horiz-adv-x="1081" 
 />
    <glyph glyph-name="uniF002" unicode="&#xfb02;" horiz-adv-x="1081" 
 />
  </font>
</defs>
</svg>
