<svg xmlns="http://www.w3.org/2000/svg" width="68" height="68" viewBox="0 0 68 68">
  <g fill="none" fill-rule="evenodd" transform="translate(1 1)">
    <circle cx="33" cy="33" r="33" fill="#F4EEFF" stroke="#6D3BC6"/>
    <g transform="translate(17 17)">
      <path fill="#FEFEFE" d="M16.4994441,32 C7.93928635,32 1,25.0607136 1,16.4994441 C1,7.93928635 7.93928635,1 16.4994441,1 C25.0607136,1 32,7.93928635 32,16.4994441 C32,25.0607136 25.0607136,32 16.4994441,32 Z"/>
      <path fill="#6D3BC6" d="M24.1441635,28.1581495 C24.3313609,26.887574 24.5443787,25.0511027 24.5831092,23.1167294 C25.3265196,22.9069392 25.8719742,22.2237762 25.8719742,21.4136633 L25.8719742,21.408284 C27.2286175,21.2071006 28.5723507,20.9349112 29.8999462,20.5938677 C28.8671329,23.7073696 26.8176439,26.3614847 24.1441635,28.1581495 M5.26089295,25.9354492 C5.67939753,25.0446477 6.46906939,23.5061861 7.6492738,21.8203335 C7.86013986,21.5190963 8.077461,21.2210866 8.30123722,20.9284562 C8.60462614,21.133943 8.96180742,21.2426036 9.32759548,21.2415277 C10.0301237,21.2415277 10.6401291,20.8466918 10.9488973,20.267886 C12.9747176,20.9284562 15.0747714,21.3770845 17.2296934,21.6083916 C17.2436794,23.2598171 17.4244217,24.9069392 17.767617,26.5228618 C17.3587951,26.7283486 17.1457773,27.1877353 17.2512103,27.6331361 C17.3577192,28.0785368 17.7547068,28.3926842 18.2119419,28.3905325 C18.2237762,28.3905325 18.2345347,28.3894567 18.246369,28.3894567 C18.492738,29.2071006 18.7401829,29.8644432 18.9381388,30.3421194 C17.972028,30.5389995 16.9865519,30.6390533 16,30.6379774 C11.7611619,30.6379774 7.93652501,28.8262507 5.26089295,25.9354492 M1.39322216,15.0543303 C2.01183432,15.5739645 2.65519096,16.063475 3.3211404,16.5207101 C3.38676708,16.7584723 3.51371705,16.9757934 3.68908015,17.1511565 C3.14039806,18.5174825 2.71436256,19.9494352 2.40882195,21.4427111 C1.59655729,19.415815 1.24905863,17.2318451 1.39322216,15.0543303 M6.59601937,4.79074771 C7.99569661,5.29747176 9.38246369,5.83647122 10.7573964,6.40882195 C10.6745562,6.76707907 10.7423346,7.14254976 10.9488973,7.44809037 C9.21247983,8.84776762 7.70306616,10.4217321 6.44755245,12.1527703 C5.85476062,12.9704142 5.31468531,13.8257127 4.8337816,14.7143626 C4.78859602,14.711135 4.74233459,14.7089833 4.69607316,14.7089833 C4.12910167,14.7089833 3.61699839,15.0435718 3.38784293,15.563206 C2.56697149,14.9736417 1.93222162,14.4475524 1.49004841,14.0548682 C1.98601399,10.3507262 3.86767079,7.08337816 6.59601937,4.79074771 M20.9413663,2.21947283 C19.3082302,2.70360409 16.3539537,3.76438946 13.2200108,5.80096826 C13.1780527,5.82894029 13.1350188,5.85798817 13.0930608,5.88488435 C12.8703604,5.60193653 12.5411512,5.42011834 12.1807423,5.38461538 C11.8203335,5.34911243 11.4620764,5.46207639 11.1877353,5.69876278 C9.92038731,5.16837009 8.6422808,4.66917698 7.35341581,4.1958042 C9.77729962,2.41420118 12.7681549,1.36094675 16,1.36094675 C17.6847768,1.3598709 19.3566434,1.65034965 20.9413663,2.21947283 M4.69822485,17.5653577 C4.77568585,17.5653577 4.85207101,17.5567509 4.92522862,17.5449166 C5.77622378,18.0505648 6.65411512,18.5131791 7.55029586,18.9306079 C7.51048951,19.084454 7.48897257,19.2436794 7.48897257,19.4029048 C7.48897257,19.7374933 7.57934373,20.0505648 7.73641743,20.3216783 C7.47175901,20.6637977 7.21570737,21.0134481 6.96718666,21.3684777 C5.8838085,22.9176977 5.12963959,24.3249059 4.67455621,25.2619688 C4.03227542,24.4798279 3.47498655,23.6320602 3.00699301,22.7348037 C3.30715438,20.8305541 3.79666487,19.1027434 4.42173211,17.5373857 C4.51210328,17.5556751 4.60570199,17.5653577 4.69822485,17.5653577 M24.429263,19.6729424 C24.2065627,17.8988704 23.7235073,16.2850995 22.8122647,15.2243141 L22.1925767,15.7568585 C22.9822485,16.6788596 23.4115116,18.1108123 23.6148467,19.7116729 C23.02851,19.880581 22.570199,20.3388919 22.401291,20.9252286 C20.8682087,21.0016138 19.4168908,20.9693384 18.0516407,20.8542227 C18.0849919,19.2974718 18.2721893,17.7461001 18.6121571,16.2259279 L17.8149543,16.0484131 C17.4685315,17.6019365 17.2759548,19.1855836 17.2383002,20.7767617 C14.9488973,20.5260893 12.9176977,20.0484131 11.1662184,19.4792899 C11.1672942,19.4556213 11.1672942,19.429801 11.1672942,19.4050565 C11.1672942,18.9467456 11.0005379,18.5293168 10.7229693,18.2065627 C12.2022593,16.7864443 14.013986,15.4513179 16.1570737,14.5745024 L15.8472297,13.8181818 C13.5481442,14.7595481 11.6191501,16.1958042 10.0559441,17.7159763 C9.82571275,17.6180742 9.57826789,17.5664336 9.32867133,17.5664336 C8.79182356,17.5664336 8.28294782,17.8009683 7.93437332,18.2076385 C7.19741797,17.8655191 6.47337278,17.4911243 5.76654115,17.0866057 C6.02689618,16.7950511 6.154922,16.4131253 6.12479828,16.0247445 C6.09467456,15.6363636 5.90747714,15.2781065 5.60731576,15.0317375 C7.29101668,11.964497 9.49004841,9.65788058 11.6202259,7.9612695 C11.7557827,8.00753093 11.8999462,8.03442711 12.0516407,8.03442711 C12.4895105,8.03442711 12.8983324,7.81925767 13.1457773,7.45884884 C14.5691232,8.11941904 15.9429801,8.83162991 16.9994621,9.5330823 L17.4502421,8.85099516 C16.3259817,8.10435718 14.8768155,7.35449166 13.3921463,6.66810113 C13.4749866,6.61323292 13.5578268,6.55728886 13.640667,6.5034965 C17.5373857,3.96557289 21.2415277,2.96180742 22.182894,2.73372781 C23.6955352,3.44271114 25.0769231,4.40451856 26.2668101,5.57719204 L22.373319,8.88004303 L22.9026358,9.50403443 L26.8337816,6.16675632 C28.1753631,7.64174287 29.2017214,9.37493276 29.8493814,11.2598171 L24.0677784,11.7461001 L24.1366326,12.5605164 L30.0989779,12.0580958 C30.4572351,13.3415815 30.6390533,14.6670253 30.6379774,16 C30.6379774,17.2694997 30.4744486,18.5024207 30.1699839,19.6772458 C28.6121571,20.0946746 27.1135019,20.3980635 25.67617,20.6046261 C25.4276493,20.1183432 24.9671867,19.7751479 24.429263,19.6729424 M18.605702,26.4981173 C18.2571275,24.9176977 18.0699301,23.3060785 18.0473373,21.6869285 C18.0710059,21.690156 18.0946746,21.6912318 18.1183432,21.6933835 C19.5309306,21.8052717 20.951049,21.8257127 22.3657881,21.7525551 C22.5045724,22.4593868 23.056482,23.0112964 23.7633136,23.1500807 C23.7073696,25.4007531 23.4179666,27.5341581 23.2275417,28.7261969 C22.1344809,29.3501883 20.965035,29.8289403 19.7504034,30.1506186 C19.5438408,29.6643357 19.2651963,28.9370629 18.993007,28.0086068 C19.1285637,27.8364712 19.2017214,27.6223776 19.2017214,27.4029048 C19.1995697,27.0102205 18.9661108,26.655191 18.605702,26.4981173 M27.3136095,4.68639053 C24.2915546,1.66325982 20.2732652,0 16,0 C11.7267348,0 7.7084454,1.66325982 4.68639053,4.68639053 C1.66325982,7.70736955 0,11.725659 0,16 C0,20.2732652 1.66325982,24.2915546 4.68639053,27.3136095 C7.7084454,30.3356643 11.725659,32 16,32 C20.2732652,32 24.2915546,30.3356643 27.3136095,27.3136095 C30.3367402,24.2915546 32,20.274341 32,16 C32,11.725659 30.3367402,7.70736955 27.3136095,4.68639053"/>
      <path fill="#6D3BC6" d="M20,13.5719661 C19.1331828,13.5719661 18.4277652,12.8664158 18.4277652,11.9994356 C18.4277652,11.1324553 19.1331828,10.4280339 20,10.4280339 C20.8668172,10.4280339 21.5722348,11.1324553 21.5722348,11.9994356 C21.5711061,12.8664158 20.8668172,13.5719661 20,13.5719661 M20,9 C18.3453725,9 17,10.3456256 17,11.9994356 C17,13.6543744 18.3453725,15 20,15 C21.6546275,15 23,13.6543744 23,11.9994356 C23,10.3456256 21.6534989,9 20,9"/>
    </g>
  </g>
</svg>
