<svg xmlns="http://www.w3.org/2000/svg" xmlns:xlink="http://www.w3.org/1999/xlink" width="67" height="52" viewBox="0 0 67 52">
  <defs>
    <rect id="k8s-a" width="67" height="52" rx="5"/>
  </defs>
  <g fill="none" fill-rule="evenodd">
    <use fill="#F9F6FF" xlink:href="#k8s-a"/>
    <rect width="66" height="51" x=".5" y=".5" stroke="#6D3BC6" rx="5"/>
    <g fill="#6D3BC6" fill-opacity=".5" transform="translate(5 5)">
      <circle cx="2" cy="2" r="2"/>
      <circle cx="8" cy="2" r="2"/>
      <circle cx="13" cy="2" r="2"/>
    </g>
    <g fill-rule="nonzero" stroke="#FFF" transform="translate(16 13)">
      <path fill="#326CE5" d="M17.3786656,0.00290878841 C17.0692546,0.01805466 16.7660974,0.0926006953 16.4869789,0.222173635 L4.31926696,5.87164582 C3.68131377,6.16769912 3.21794726,6.72760806 3.0603235,7.39289021 L0.0584669655,20.0830322 C-0.0815766503,20.6737413 0.0323735772,21.2939287 0.37436996,21.8023711 C0.415415714,21.8638933 0.459560037,21.9234432 0.506644613,21.9808073 L8.92864958,32.1562083 C9.37025193,32.6895721 10.0398052,33.000134 10.7478151,33 L24.2538353,32.9969756 C24.9615803,32.9974768 25.6310864,32.6874934 26.0730008,32.1546962 L34.4918934,21.9777829 C34.933732,21.4441518 35.099275,20.7455981 34.9416272,20.0800079 L31.9351022,7.38986586 C31.7774784,6.72458371 31.3141119,6.16467477 30.6761587,5.86862148 L18.5068906,0.222173635 C18.1558016,0.0591811545 17.7678586,-0.0162136122 17.3786656,0.00290878841 Z"/>
      <path fill="#FFF" stroke-width=".25" d="M17.9992294,3 C17.5916667,3.0000391 17.2612048,3.34691801 17.2612532,3.77480585 C17.2612537,3.78137287 17.2626762,3.78764808 17.2628276,3.794176 C17.2622271,3.85231552 17.259255,3.92235797 17.2612532,3.97297735 C17.2709728,4.21977089 17.3279057,4.40865616 17.362173,4.63603235 C17.4242528,5.12268958 17.4762714,5.5260988 17.4441704,5.90105191 C17.4129513,6.04244325 17.3027373,6.17175286 17.2044858,6.26163463 L17.1871402,6.55665686 C16.7442627,6.59132858 16.2984226,6.65481832 15.8531064,6.75035832 C13.9369111,7.16146697 12.2871007,8.09413724 11.0310314,9.35340797 C10.9495276,9.30086756 10.8069375,9.20420945 10.7645375,9.17460662 C10.6327781,9.19141967 10.4996124,9.22983431 10.3261671,9.13437632 C9.99591151,8.9243143 9.69512202,8.63435572 9.33116075,8.28506991 C9.16439177,8.11798887 9.04362405,7.95888809 8.84548414,7.79783623 C8.80048803,7.76126205 8.73181916,7.71179463 8.68148944,7.67416529 C8.52658358,7.55746428 8.34387733,7.49660268 8.16742912,7.49089391 C7.94056693,7.483554 7.72217392,7.56736606 7.57925582,7.73674577 C7.32517959,8.03786536 7.4065255,8.49810814 7.76059612,8.76485353 C7.76418886,8.76755701 7.76801473,8.76965876 7.77163422,8.77230359 C7.82028867,8.80957151 7.8798687,8.85732387 7.92459082,8.88852446 C8.13485069,9.03521548 8.32691776,9.11030728 8.5364172,9.22675702 C8.97779002,9.48431726 9.34369348,9.69787998 9.6339202,9.95537252 C9.74725416,10.0695274 9.76706271,10.2706789 9.78214618,10.3576756 L10.018677,10.5573371 C8.75246534,12.3579229 8.16645222,14.5820105 8.51276664,16.8481646 L8.20369971,16.9330952 C8.12224228,17.0324902 8.00713768,17.1888879 7.88674589,17.2355675 C7.50702852,17.34858 7.07967801,17.39008 6.56375017,17.441189 C6.32152697,17.4602207 6.11252859,17.4488632 5.85573459,17.4948295 C5.79921545,17.5049463 5.7204657,17.5243326 5.65862557,17.5380398 C5.65647598,17.5384689 5.65446767,17.5390697 5.65231808,17.5395274 C5.64894736,17.5402664 5.644519,17.5418113 5.64127998,17.5425074 C5.20630851,17.6418156 4.92688172,18.0195971 5.01683862,18.3918138 C5.10681671,18.7641178 5.53168812,18.9905252 5.96926938,18.9013977 C5.97242817,18.9007159 5.97701498,18.9006014 5.98030748,18.8999101 C5.98524751,18.898842 5.98959665,18.8965772 5.99449933,18.8954424 C6.05549779,18.88279 6.13194052,18.8687128 6.18530086,18.8552121 C6.43776894,18.7913381 6.62061546,18.6974874 6.84758715,18.6153203 C7.33588466,18.4498327 7.74031022,18.3115859 8.13431481,18.2577176 C8.29887365,18.2455391 8.47225036,18.3536581 8.55849341,18.3992687 L8.88017533,18.3471183 C9.62043126,20.5157555 11.1717697,22.2685904 13.1361532,23.3684562 L13.0021191,23.6724185 C13.0504304,23.7904474 13.1037155,23.9501423 13.067728,24.0667026 C12.9244885,24.4176873 12.6791378,24.7881527 12.3997539,25.20117 C12.2644785,25.391983 12.1260326,25.5400634 12.003959,25.7584342 C11.9747478,25.8106867 11.9375447,25.8909532 11.9093467,25.9461757 C11.719676,26.3296383 11.858804,26.7712938 12.2231442,26.9370331 C12.5897733,27.1038133 13.0448571,26.92791 13.2418036,26.5436702 C13.2421064,26.5431266 13.2431004,26.5427261 13.243378,26.5421825 C13.2435798,26.5417534 13.2431761,26.5411097 13.243378,26.5406949 C13.2714302,26.4862177 13.3111724,26.4146104 13.3348366,26.3633836 C13.439396,26.1370439 13.4741871,25.9430783 13.5477143,25.7241687 C13.742975,25.260709 13.8502553,24.7744222 14.1190506,24.4714097 C14.1926555,24.3884349 14.3126557,24.3565239 14.4370702,24.3250482 L14.6042186,24.038966 C16.3167391,24.6600885 18.2336313,24.8267629 20.148501,24.4159389 C20.5853309,24.3222198 21.0070481,24.2009267 21.4147293,24.0553561 C21.4617065,24.1340922 21.5490097,24.2854473 21.5724165,24.3235582 C21.6988484,24.3624262 21.8368487,24.3824978 21.949289,24.5396098 C22.1503914,24.8642644 22.2879204,25.2483383 22.4554649,25.7122487 C22.5290042,25.9311544 22.5653474,26.1251286 22.6699195,26.3514635 C22.6937538,26.4030512 22.7332972,26.4756641 22.7613781,26.5302648 C22.9579104,26.9157529 23.4144363,27.0922575 23.7816144,26.9251178 C24.1459097,26.7592903 24.2851912,26.3176748 24.095412,25.9342603 C24.0672104,25.8790398 24.0284365,25.7987699 23.9992228,25.7465189 C23.877137,25.5281543 23.7387134,25.3815505 23.6034278,25.1907447 C23.3240207,24.7777413 23.0922851,24.4346439 22.9490259,24.0836664 C22.8891245,23.9026445 22.959132,23.7900631 23.0057933,23.6724232 C22.9778496,23.6421572 22.9180531,23.4712078 22.8827973,23.3908111 C24.924274,22.2518151 26.4300562,20.4336137 27.1371983,18.3337129 C27.2326886,18.347894 27.3986583,18.3756411 27.4525727,18.3858633 C27.5635613,18.3166934 27.6656114,18.2264431 27.8657132,18.2413322 C28.2597203,18.295181 28.6641343,18.4334712 29.1524409,18.5989349 C29.3794171,18.6810911 29.5622561,18.7764551 29.8147272,18.8403168 C29.868088,18.8538146 29.9445292,18.8664075 30.0055287,18.8790571 C30.0104334,18.8801918 30.014778,18.8824614 30.0197205,18.8835247 C30.0230156,18.8842208 30.0275998,18.8843305 30.0307586,18.8850123 C30.4683651,18.9740292 30.8933122,18.7477544 30.9831894,18.3754285 C31.0730454,18.0031898 30.7937478,17.6253206 30.358748,17.5261221 C30.2954748,17.512527 30.205741,17.4894378 30.1442934,17.4784417 C29.8874969,17.4324883 29.6785021,17.443821 29.4362778,17.4248013 C28.9203475,17.3737175 28.4930056,17.3321731 28.1132821,17.2191798 C27.958458,17.1624268 27.8483156,16.9883477 27.7947514,16.9167075 L27.4967226,16.8347569 C27.651244,15.7784261 27.6095787,14.6790639 27.3421891,13.5790823 C27.0723099,12.4688589 26.5953638,11.4534518 25.9592723,10.5588295 C26.0357216,10.4931598 26.1800944,10.3723559 26.2210331,10.3368178 C26.2330001,10.2116964 26.2227184,10.0805106 26.3597978,9.9419648 C26.6500099,9.68445796 27.0159426,9.47093148 27.4573008,9.2133493 C27.6667937,9.09688907 27.8604523,9.02181825 28.0707041,8.87511675 C28.1182499,8.84194266 28.1831741,8.78940701 28.2331219,8.75144581 C28.5871173,8.48461078 28.6686202,8.02439566 28.4144622,7.72333805 C28.1603042,7.42228044 27.6678009,7.39392255 27.3138054,7.66075758 C27.2634182,7.69846559 27.1950465,7.74765599 27.1498107,7.78442851 C26.9516799,7.94549086 26.8293172,8.10457304 26.6625573,8.27166219 C26.2986157,8.62096612 25.9977949,8.9123799 25.6675509,9.12245861 C25.5244461,9.20118175 25.3148382,9.17394291 25.2197167,9.16864896 L24.9390335,9.35788039 C23.3385058,7.77200444 21.1593512,6.75808683 18.8128954,6.56112689 C18.8063326,6.46821122 18.7977347,6.30025953 18.7955498,6.24971454 C18.6994887,6.16285761 18.5834456,6.08870464 18.5542883,5.90105191 C18.5221873,5.5260988 18.5757828,5.12268958 18.6378626,4.63603235 C18.6721299,4.40865616 18.7290628,4.21977089 18.7387824,3.97297735 C18.7409925,3.9168752 18.7374452,3.83546671 18.737208,3.77480585 C18.7371596,3.34691801 18.4067945,2.9999609 17.9992319,3 L17.9992294,3 Z M17.0751823,8.40874084 L16.8559971,12.0667185 L16.8402283,12.0741685 C16.8255274,12.4014155 16.5404985,12.662723 16.190557,12.662723 C16.04721,12.662723 15.9148976,12.6192246 15.8073771,12.5450121 L15.8010696,12.5479921 L12.626826,10.421746 C13.6024002,9.51528757 14.8502364,8.84541474 16.2883231,8.53688181 C16.5510169,8.48052219 16.8135936,8.43870318 17.0751823,8.40874084 Z M18.9248533,8.40874084 C20.6038295,8.60386413 22.1565586,9.32224028 23.3464027,10.4232361 L20.1926585,12.536072 L20.1816204,12.5316044 C19.9016966,12.7247904 19.5073029,12.6768573 19.2891108,12.4183635 C19.1997301,12.3124673 19.1528327,12.1879534 19.1471923,12.0622508 L19.1440385,12.0607632 L18.9248533,8.40874084 Z M11.4757094,11.7880864 L14.3740003,14.2376649 L14.3708466,14.252565 C14.6324494,14.4674589 14.6710265,14.8403656 14.4528439,15.0988914 C14.3634694,15.2047918 14.243835,15.2758208 14.1153933,15.3089829 L14.1122396,15.320903 L10.3971288,16.3341107 C10.2080414,14.700335 10.6155471,13.1121752 11.4757094,11.7880864 Z M24.50225,11.789574 C24.9328799,12.4491154 25.2589745,13.185757 25.4531039,13.9843606 C25.644905,14.7733885 25.6930403,15.5610056 25.6139449,16.3221882 L21.8799117,15.3060005 L21.8767579,15.2911004 C21.5423853,15.2047494 21.3368909,14.8833561 21.4147344,14.5609949 C21.4466266,14.4289384 21.5208122,14.3172224 21.6213046,14.2346824 L21.6197303,14.2272324 L24.5022525,11.789574 L24.50225,11.789574 Z M17.4047486,14.4268939 L18.5921333,14.4268939 L19.3301094,15.2985505 L19.0651949,16.3862587 L17.9992294,16.8705124 L16.9301101,16.3847687 L16.6651955,15.2970605 L17.4047486,14.4268939 Z M21.2113179,17.4098964 C21.2617763,17.4074886 21.3120147,17.4117846 21.3611207,17.4203265 L21.3674282,17.4128764 L25.2102656,18.0267611 C24.6478647,19.519781 23.5716906,20.8132099 22.1337881,21.6787787 L20.642067,18.274103 L20.6467951,18.2681429 C20.5097657,17.9672803 20.6468961,17.6144661 20.9621696,17.4709869 C21.0428878,17.4342535 21.1272184,17.413913 21.2113154,17.4098964 L21.2113179,17.4098964 Z M14.7571803,17.4247965 C15.0504401,17.4286825 15.3134816,17.6210131 15.3816216,17.9030901 C15.4135219,18.0351447 15.3979959,18.1659877 15.3453536,18.281553 L15.3563917,18.2949631 L13.8804394,21.6653686 C12.5005042,20.828645 11.4013809,19.575823 10.8134231,18.0386836 L14.6231461,17.4277789 L14.6294536,17.435229 C14.6720675,17.427819 14.7152859,17.4242434 14.7571803,17.4247989 L14.7571803,17.4247965 Z M17.9755763,18.9014001 C18.0777298,18.8978527 18.1813846,18.9176581 18.2799126,18.9624905 C18.4090652,19.021258 18.5088356,19.1137894 18.5716339,19.2247325 L18.5858258,19.2247325 L20.4638805,22.4312367 C20.2201445,22.5084422 19.9695707,22.5744247 19.7132894,22.6294082 C18.2769718,22.9375616 16.8452178,22.8441925 15.5487701,22.4267667 L17.4220942,19.2262225 L17.4252479,19.2262225 C17.5376559,19.027662 17.7508389,18.909202 17.9755763,18.9014001 Z"/>
    </g>
  </g>
</svg>
