<svg xmlns="http://www.w3.org/2000/svg" width="70" height="70" viewBox="0 0 70 70">
  <g fill="none" fill-rule="evenodd" transform="translate(1 1)">
    <path fill="#FFF" fill-rule="nonzero" stroke="#6D3BC6" stroke-dasharray="2" d="M65.6013219,19.18098 C67.4389123,18.5684499 68.4315501,19.5610877 67.81902,21.3986781 L57.3224809,52.8870848 C56.7099507,54.7246752 54.7246752,56.7099507 52.8870848,57.3224809 L21.3986781,67.81902 C19.5610877,68.4315501 18.5684499,67.4389123 19.18098,65.6013219 L29.6775191,34.1129152 C30.2900493,32.2753248 32.2753248,30.2900493 34.1129152,29.6775191 L65.6013219,19.18098 Z"/>
    <path fill="#E1E0E0" fill-rule="nonzero" d="M39.330222,39.330222 C40.4597026,38.2007414 41.6883034,37.345371 43.0148006,36.7641107 C44.3412978,36.1828503 45.6029387,35.9332143 46.7984994,36.0152026 C47.9940601,36.0971909 48.9705774,36.5169221 49.7268277,37.2731723 C50.4830779,38.0294226 50.9028091,39.0059399 50.9847974,40.2015006 C51.0667857,41.3970613 50.8171497,42.6587022 50.2358893,43.9851994 C49.654629,45.3116966 48.7992586,46.5402974 47.669778,47.669778 C46.5402974,48.7992586 45.3116966,49.654629 43.9851994,50.2358893 C42.6587022,50.8171497 41.3970613,51.0667857 40.2015006,50.9847974 C39.0059399,50.9028091 38.0294226,50.4830779 37.2731723,49.7268277 C36.5169221,48.9705774 36.0971909,47.9940601 36.0152026,46.7984994 C35.9332143,45.6029387 36.1828503,44.3412978 36.7641107,43.0148006 C37.345371,41.6883034 38.2007414,40.4597026 39.330222,39.330222 Z M44.3804564,39.9371802 C44.3731142,39.9518646 44.3645482,39.9946943 44.3547586,40.0656693 C44.344969,40.1366442 44.3253897,40.1904873 44.2972444,40.2271985 C44.3082578,40.2161851 44.3107052,40.1953821 44.3070341,40.1635658 C44.3021392,40.1317494 44.2960207,40.0987093 44.2874548,40.0632219 C44.2788888,40.0277344 44.2764414,40.0057077 44.2776651,39.9971418 C44.2850074,39.9396276 44.3168237,39.8527445 44.3743379,39.7377161 C44.428181,39.6398196 44.5468804,39.4782904 44.7304363,39.2506811 C44.885847,39.0377563 45.0424813,38.9202805 45.2040105,38.8970301 C45.1856549,38.9007012 45.1881023,38.851753 45.210129,38.7489617 C45.2321558,38.6473941 45.2505113,38.5862088 45.2627484,38.5666295 C45.2713143,38.5433791 45.3043544,38.4944309 45.3594212,38.4210085 C45.4157116,38.3475861 45.4426332,38.2925194 45.4401858,38.2582556 L45.3373945,38.1224243 C45.2762092,38.1909518 45.2162476,38.2252156 45.1575097,38.2264393 C45.0987718,38.227663 45.043705,38.20686 44.9910857,38.165254 C44.9984279,38.1725962 44.9959805,38.2031888 44.9861909,38.2570319 C44.960493,38.2313341 44.9347952,38.2288867 44.90665,38.2496897 C44.8785047,38.2704927 44.8491358,38.3035327 44.8185431,38.3488099 C44.7879505,38.394087 44.7659238,38.4197848 44.7512393,38.427127 C44.6863829,38.4699567 44.6325398,38.4968783 44.5884864,38.5078916 C44.544433,38.518905 44.4942611,38.510339 44.4342995,38.4834175 C44.3743379,38.456496 44.336403,38.4393641 44.3204948,38.4344693 C44.2911259,38.427127 44.2470725,38.4344693 44.1858872,38.4540486 C44.1247019,38.4736279 44.0806485,38.4809701 44.0512795,38.4736279 C44.0390425,38.4724042 44.0219106,38.468733 44.0011076,38.4638382 C43.9803046,38.4589434 43.9607253,38.4552723 43.941146,38.4528249 C43.9227904,38.4503774 43.9019874,38.4503774 43.878737,38.4552723 C43.8567103,38.4601671 43.837131,38.4699567 43.8199991,38.4858649 C43.8040909,38.5017731 43.7943013,38.5299183 43.7906302,38.5703006 C43.786959,38.6106829 43.7845116,38.6486178 43.7845116,38.685329 C43.7845116,38.7220402 43.7808405,38.7440669 43.774722,38.7489617 C43.7514716,38.7575276 43.7318923,38.7709884 43.7184315,38.789344 C43.703747,38.8076996 43.6939574,38.8211603 43.6878389,38.83095 C43.6817203,38.8407396 43.6743781,38.8578715 43.6670359,38.8835693 C43.6596936,38.9092672 43.6523514,38.9288465 43.6450092,38.9435309 C43.6364432,38.9667814 43.6180876,38.9949266 43.5923898,39.0291904 C43.566692,39.0622304 43.5471127,39.0891519 43.5348756,39.1087312 C43.5972846,39.0096111 43.5752579,38.9924792 43.4675718,39.0573356 C43.3990443,39.0964942 43.350096,39.1344291 43.3219508,39.1711402 C43.3562146,39.1075075 43.3549908,39.0659015 43.317056,39.0450985 C43.2803448,39.0242955 43.2313965,39.0218481 43.1726587,39.0377563 L43.213041,38.997374 C43.1934617,38.9888081 43.1543031,38.9961503 43.0980126,39.0206244 C43.0417221,39.0450985 42.9780894,39.0769149 42.9095619,39.1160735 C42.8410344,39.1552321 42.7945335,39.1797062 42.7712831,39.1894958 C42.7100978,39.2151937 42.601188,39.2898397 42.4445536,39.413434 C42.2879193,39.5370283 42.197365,39.6263589 42.1741146,39.6777545 C42.1692198,39.7267027 42.1753383,39.7572954 42.1949176,39.7707562 C42.2144969,39.7842169 42.2499844,39.7989014 42.3038274,39.8148096 C42.3576705,39.8307177 42.3894869,39.8429548 42.4005002,39.8539682 C42.4274217,39.8698763 42.4359877,39.9090349 42.426198,39.9689965 C42.4164084,40.0289581 42.4200795,40.0693404 42.4384351,40.0864723 C42.4641329,40.1121701 42.530213,40.1023805 42.6366755,40.0571033 C42.7431379,40.0118262 42.809218,40.0240633 42.8349158,40.0925908 C42.8471529,40.1378679 42.8336921,40.2100666 42.7920861,40.3091868 C42.7504801,40.4083069 42.7296771,40.4731634 42.7272297,40.503756 C42.7296771,40.5600465 42.7590461,40.5967577 42.8153365,40.616337 C42.8728507,40.6359163 42.9303649,40.63714 42.9903265,40.6212318 C43.0086821,40.6175607 43.0196954,40.6212318 43.0245902,40.6310214 C43.0294851,40.6408111 43.0282614,40.6591667 43.0209191,40.6836408 C43.0135769,40.7093386 43.0062347,40.7313653 42.9976687,40.7497209 C42.9891028,40.7680765 42.9780894,40.7925506 42.9634049,40.8219196 L42.9499442,40.857407 C42.9083382,40.9345005 42.8422581,40.9797776 42.7517038,40.990791 C42.6611496,41.0018043 42.5767139,40.9920147 42.5008441,40.9589746 C42.372355,40.9063553 42.2744585,40.8953419 42.2083784,40.9259346 C42.0554151,41.0213836 41.9783217,41.1009245 41.9783217,41.1670046 C41.9036756,41.1474253 41.7458175,41.211058 41.5047475,41.3579028 C41.3370998,41.4606941 41.1731232,41.6099862 41.0128177,41.8070028 C41.0421866,41.7715154 41.0140414,41.7433701 40.9308294,41.7250145 C40.8390514,41.7091064 40.7656291,41.7384753 40.711786,41.8143451 C40.7068912,41.7764102 40.6848645,41.7335805 40.649377,41.6870797 C40.6138895,41.6405788 40.5918628,41.6124336 40.5845206,41.6050914 C40.553928,41.5414586 40.5441383,41.4680363 40.5563754,41.3823769 C40.5575991,41.3738109 40.5612702,41.3395472 40.5673887,41.2795856 C40.5722835,41.219624 40.5735072,41.169452 40.5710598,41.1290697 C40.5686124,41.0886874 40.5588228,41.0764504 40.5429146,41.0923586 C40.7460498,40.9173686 40.8623018,40.7631817 40.8879997,40.6273503 C40.8965656,40.5820732 40.8977893,40.5208879 40.8892234,40.441347 C40.8806574,40.3618061 40.87821,40.3030682 40.8818811,40.2639096 C40.9088027,40.1941584 40.9369479,40.1452102 40.9650931,40.1207361 C40.9944621,40.0950382 41.0434103,40.066893 41.1119379,40.0326292 C41.1816891,39.9995892 41.2294136,39.9689965 41.2563352,39.942075 C41.335876,39.8698763 41.3579028,39.808691 41.3224153,39.7572954 C41.2869278,39.7058997 41.2306373,39.6899916 41.1535439,39.7095709 C41.2220714,39.6483856 41.198821,39.609227 41.0850163,39.5933188 C41.032397,39.5945425 40.9944621,39.600661 40.9712117,39.609227 C40.8916708,39.6593989 40.8280381,39.7413872 40.7790898,39.8551919 C40.7497209,39.912706 40.7705239,39.9224957 40.8390514,39.8821134 C40.8304855,39.8833371 40.8231433,39.9286142 40.8194721,40.016721 C40.8145773,40.1048279 40.8023403,40.1806976 40.7803136,40.2455541 C40.7582868,40.3104105 40.7068912,40.3446742 40.6236792,40.3483454 C40.6151132,40.3495691 40.5759547,40.3410031 40.5062034,40.3202001 C40.4364522,40.2993971 40.3862802,40.3006208 40.3556876,40.3238712 C40.3128579,40.3667009 40.2969497,40.4376759 40.3079631,40.5355724 C40.295726,40.4902952 40.2382118,40.4927427 40.1378679,40.5429146 C40.0363003,40.5930865 39.9579832,40.6432585 39.900469,40.6946541 C39.9592069,40.5490331 39.8894556,40.5208879 39.6887679,40.6126658 C39.6361485,40.6359163 39.5725158,40.6824171 39.4954223,40.7521683 C39.4183288,40.8219196 39.3730517,40.8818811 39.359591,40.9320531 C39.3583673,40.9846724 39.3632621,41.0201599 39.3779465,41.0385155 C39.392631,41.0568711 39.4195525,41.0580948 39.4623823,41.0409629 C39.505212,41.023831 39.5431468,41.0054754 39.5774106,40.9858961 C39.6116744,40.9663169 39.6496093,40.9418427 39.692439,40.9149212 C39.7352687,40.886776 39.7634139,40.8696441 39.7780984,40.8623018 C39.8894556,40.8231433 39.9371802,40.8268144 39.9188246,40.8733152 C39.9114823,40.8879997 39.8955742,40.9173686 39.8686526,40.961422 C39.8429548,41.0054754 39.8197044,41.044634 39.8001251,41.0788978 C39.7805458,41.1131616 39.7707562,41.136412 39.7732036,41.148649 C39.7719799,41.1792417 39.796454,41.2049395 39.8490733,41.2245188 C39.9016927,41.2440981 39.921272,41.2746908 39.9090349,41.3162968 C39.8637578,41.3248627 39.8074673,41.3175205 39.7413872,41.29427 C39.6740834,41.2710196 39.6263589,41.2600063 39.5945425,41.26123 C39.6655174,41.2563352 39.6080033,41.3346523 39.4244474,41.4961815 L39.3375643,41.5720513 C39.3155375,41.594078 39.276379,41.6405788 39.2188648,41.7127775 C39.1613506,41.7849761 39.1075075,41.8424903 39.0585593,41.8840963 C39.0083874,41.926926 38.9582154,41.9489527 38.9055961,41.9501764 C38.8554241,41.9428342 38.8187129,41.906123 38.7966862,41.8412666 C38.7881203,41.8216873 38.7942388,41.8070028 38.8187129,41.7984369 C38.7856729,41.8094502 38.739172,41.8216873 38.6779867,41.8363718 C38.6168015,41.8510562 38.5739717,41.8620696 38.5507213,41.8718592 C38.3561521,42.1753383 38.1762673,42.5032915 38.011067,42.8569425 C38.0465545,42.8275736 38.0771471,42.7933098 38.102845,42.7541512 C38.1224243,42.7198875 38.1456747,42.6733866 38.1725962,42.613425 C38.1995177,42.5534635 38.2166496,42.5167523 38.2239918,42.5020678 C38.3573758,42.2671163 38.4577197,42.1410746 38.5262472,42.1239427 L38.539708,42.0566388 C38.6730919,42.0382833 38.7722121,42.0297173 38.8370685,42.0297173 C38.7844492,42.0529677 38.7024609,42.1325086 38.5886562,42.2671163 C38.5017731,42.3968291 38.4650619,42.4775937 38.4748516,42.5106337 C38.5556162,42.5167523 38.602117,42.5351079 38.6131303,42.5681479 C38.5800903,42.5791613 38.531142,42.5913983 38.4650619,42.6073065 C38.3989818,42.6232147 38.3402439,42.6415703 38.2876246,42.6648207 C38.2350052,42.6880711 38.186057,42.7198875 38.1383324,42.7590461 C38.0514493,42.8459292 37.9939351,42.9071145 37.9657899,42.9426019 C37.4665179,44.0206869 37.23279,45.0583895 37.2658301,46.0532624 C37.3294628,46.0410254 37.3759636,46.0226698 37.4065563,45.9994194 C37.4322541,45.9810638 37.461623,45.9847349 37.4958868,46.0079853 C37.5301506,46.0312357 37.5570721,46.0446965 37.5754277,46.0471439 C37.5937833,46.0495913 37.6194811,46.0128801 37.6525212,45.9370104 C37.7296146,45.9174311 37.7724444,45.9431289 37.7797866,46.0153276 C37.7810103,46.0067616 37.9498817,45.9357867 38.2827297,45.8048501 C38.4467063,45.7632441 38.5421554,45.7448885 38.5666295,45.7485597 C38.62292,45.7718101 38.6278148,45.8317717 38.5837614,45.9272207 C38.5715243,45.925997 38.5299183,45.9333393 38.4613908,45.9516948 C38.3928633,45.9700504 38.3610469,45.9871823 38.3671654,46.0030905 C38.3696129,46.0373543 38.4038766,46.0691706 38.4711804,46.0997633 C38.5384843,46.1291322 38.5898799,46.1242374 38.6241437,46.0826314 C38.5862088,46.1205663 38.5898799,46.175633 38.6339333,46.246608 C38.6779867,46.3175829 38.7355009,46.3885579 38.8064759,46.4595328 C38.8774508,46.5305078 38.9166094,46.5757849 38.9263991,46.5953642 L38.9484258,46.5843508 C38.9753473,46.6443124 39.0524408,46.6920369 39.1797062,46.7275244 C39.3069716,46.7630119 39.3999733,46.7397615 39.4599348,46.6589969 C39.3999733,46.7397615 39.5321335,46.7642356 39.8551919,46.7299718 C39.9163772,46.7263007 39.954312,46.7214059 39.9689965,46.7140636 C39.9922469,46.7054977 40.0387478,46.6859184 40.1072753,46.6577732 C40.1758028,46.6296279 40.2345407,46.6063775 40.2834889,46.5904693 C40.3324372,46.5745612 40.3777143,46.5659952 40.4217677,46.5659952 C40.4609263,46.5623241 40.5294538,46.5757849 40.6249029,46.6076012 C40.720352,46.6381939 40.8011166,46.6430887 40.865973,46.621062 C40.8769863,46.6541021 40.9381716,46.6638917 41.0519763,46.6528784 C41.1645572,46.641865 41.2343085,46.6541021 41.2624537,46.6920369 C41.2575589,46.6969318 41.252664,46.7054977 41.2477692,46.7177348 C41.2428744,46.7299718 41.2379796,46.7385378 41.2330847,46.7434326 C41.2746908,46.7519985 41.3419946,46.7360904 41.4349962,46.6932606 C41.5279979,46.6504309 41.5928543,46.6320753 41.6307892,46.6381939 C41.6466974,46.6430887 41.6699478,46.6565495 41.7017641,46.6761288 C41.7335805,46.6957081 41.760502,46.7079451 41.7861998,46.7116162 C41.8118977,46.7152874 41.8363718,46.6969318 41.8620696,46.6577732 C41.8008843,46.5745612 41.6234469,46.5268366 41.3309812,46.5158233 C41.1596624,46.5060336 41.0605422,46.4999151 41.0360681,46.496244 C41.0018043,46.4937966 40.9589746,46.4815595 40.907579,46.4570854 C40.8561833,46.4326113 40.8182484,46.4179268 40.7925506,46.4142557 C40.803564,46.4032423 40.8219196,46.3897816 40.8488411,46.3738734 C40.8757626,46.3579652 40.9051316,46.3408333 40.9369479,46.3237015 C40.9687643,46.3065696 40.9956858,46.2931088 41.0189362,46.2845429 C41.0421866,46.2759769 41.0532,46.2759769 41.0519763,46.2845429 C41.0605422,46.3261489 41.0984771,46.3518467 41.1633335,46.36286 C41.2281899,46.3738734 41.29427,46.3750971 41.3615739,46.3665312 C41.4288777,46.3579652 41.5084186,46.3457282 41.6026439,46.3322674 C41.6968693,46.3175829 41.7519361,46.309017 41.7702917,46.3053459 C41.8241347,46.2943325 41.8975571,46.2918851 41.989335,46.2980036 C42.081113,46.3041222 42.1055871,46.3285963 42.0627574,46.371426 C42.1117056,46.3224777 42.1839043,46.2869903 42.2793533,46.2637399 C42.3748024,46.2404894 42.4567907,46.2306998 42.5253182,46.2343709 C42.5816087,46.2368183 42.6501362,46.2612925 42.7309008,46.3102407 C42.8116654,46.3591889 42.8691796,46.3885579 42.9022196,46.3995712 C42.9389308,46.4142557 42.9854317,46.4154794 43.0441695,46.404466 C43.1029074,46.3934527 43.1543031,46.3763208 43.1971328,46.3542941 L43.3696753,46.267411 L43.5128489,46.2001072 C43.5471127,46.1805279 43.6156402,46.1487115 43.7196552,46.1071055 C43.8236702,46.0654995 43.9019874,46.0275646 43.9558305,45.9957483 C44.024358,45.9565897 44.0745299,45.9198785 44.10757,45.8880621 C44.1406101,45.8550221 44.1748738,45.8121924 44.211585,45.7571256 C44.2482962,45.7020588 44.2788888,45.6592291 44.3021392,45.6286365 C44.3755616,45.5405297 44.482024,45.489134 44.6190791,45.4744495 C44.7561341,45.4597651 44.8515832,45.4414095 44.9029789,45.4181591 C45.1660756,45.2921173 45.3349471,45.1636282 45.4083694,45.031468 C45.4010272,45.0461525 45.4157116,45.0583895 45.4536465,45.0681792 C45.4903577,45.0779688 45.5405297,45.0840873 45.6029387,45.0877585 C45.6653477,45.0902059 45.7155196,45.0926533 45.7546782,45.093877 C45.7938368,45.0951007 45.8232057,45.0951007 45.8452324,45.0951007 C45.8941807,45.0902059 45.9700504,45.0681792 46.0728417,45.0302443 C46.175633,44.9923094 46.2515028,44.9715064 46.300451,44.9653879 C46.3188066,44.918887 46.321254,44.8833996 46.3077933,44.8601492 C46.3200303,44.9054263 46.3750971,44.9225582 46.4729936,44.9115448 C46.5708901,44.9005314 46.6369702,44.8699388 46.6736814,44.8197669 C46.7385378,44.7328837 46.7189585,44.6374347 46.6137198,44.532196 C46.4999151,44.7536867 46.3359385,44.8540306 46.1193426,44.8320039 C46.1156714,44.8283328 46.0985396,44.8246617 46.0691706,44.8222143 C46.0398017,44.8197669 46.0128801,44.814872 45.9908534,44.8087535 C45.9688267,44.802635 45.9455763,44.794069 45.9247733,44.7830557 C45.9039703,44.7720423 45.8892858,44.7585816 45.884391,44.7426734 C45.8794962,44.7267652 45.8868384,44.7071859 45.9088651,44.6863829 C45.9578134,44.6374347 45.9786164,44.6043946 45.9712741,44.586039 C45.9639319,44.5676834 45.9357867,44.5505515 45.8868384,44.5346434 C45.8378902,44.5187352 45.8036264,44.5052744 45.7840471,44.4967085 C45.7497834,44.4734581 45.6837032,44.4661158 45.5858068,44.4771292 C45.4879103,44.4881425 45.4291724,44.4930374 45.4071457,44.4930374 C45.4132642,44.552999 45.3838953,44.6105131 45.3202626,44.6655799 C45.2566299,44.7218704 45.197892,44.7487919 45.1416015,44.7463445 C45.1452726,44.7500156 45.1513912,44.7634764 45.1587334,44.7879505 C45.1660756,44.8124246 45.1746416,44.8283328 45.1819838,44.835675 C45.1122326,44.9054263 45.0694029,44.9445849 45.0547184,44.9519271 C45.0498236,44.9360189 45.0241257,44.8968603 44.9800723,44.8368987 C44.9360189,44.7757134 44.9042026,44.7255415 44.885847,44.6863829 C44.877281,44.6668036 44.8699388,44.6300924 44.865044,44.5762494 C44.8601492,44.5224063 44.8540306,44.4759055 44.8466884,44.4367469 C44.8393461,44.3975883 44.8271091,44.3633245 44.8112009,44.336403 C44.7952927,44.3094815 44.7659238,44.3045867 44.7230941,44.3217185 C44.6802644,44.3388504 44.6288687,44.3816801 44.5676834,44.4502077 C44.4685633,44.5566701 44.4342995,44.6631325 44.4648921,44.7695949 C44.469787,44.7855031 44.4808003,44.8124246 44.4979322,44.8503595 C44.5138404,44.8882944 44.5211826,44.9225582 44.5199589,44.9531508 C44.5187352,44.9837435 44.5064981,45.0204546 44.4844714,45.064508 C44.4575499,45.1134563 44.3963646,45.1819838 44.3009155,45.2700906 C44.2054665,45.3581975 44.1320441,45.4144879 44.0794248,45.4377384 C43.9803046,45.4793444 43.8664999,45.4879103 43.7392345,45.4622125 C43.6119691,45.4377384 43.5189674,45.3961324 43.4614533,45.3386182 C43.4247421,45.301907 43.3843598,45.2480639 43.337859,45.1746416 C43.2913581,45.1012192 43.254647,45.0485999 43.2265017,45.0143361 C43.1983565,44.981296 43.1396186,44.9519271 43.0490644,44.9262293 C43.0576303,44.9029789 43.0649725,44.8613729 43.0698674,44.8014113 C43.0747622,44.7414497 43.0833281,44.6961726 43.0943415,44.6631325 C43.1016837,44.648448 43.1114734,44.6337636 43.1224867,44.6190791 C43.1335001,44.6043946 43.1469608,44.5921576 43.1591979,44.5823679 C43.171435,44.573802 43.1800009,44.5603412 43.183672,44.5419856 C43.1873431,44.52363 43.1848957,44.5052744 43.1751061,44.4856951 C43.1665401,44.4869188 43.1494082,44.4930374 43.1261578,44.5016033 C43.0992363,44.5064981 43.0833281,44.5126167 43.0772096,44.5175115 C43.1261578,44.49059 43.2008039,44.4110491 43.2999241,44.2788888 C43.400268,44.1467286 43.4773614,44.0745299 43.5312045,44.0635166 C43.6523514,44.0219106 43.7074182,43.9595016 43.6988522,43.8738422 C43.6951811,43.870171 43.670707,43.8603814 43.6266536,43.8420258 C43.5826002,43.8248939 43.5569023,43.8016435 43.5495601,43.7722746 C43.6743781,43.8432495 43.7686035,43.7808405 43.8334599,43.5862713 C43.8603814,43.5813764 43.911777,43.5483364 43.9864231,43.4871511 C44.0610692,43.4259658 44.1173596,43.3880309 44.1552945,43.3721227 C44.1785449,43.3635568 44.2079139,43.3537671 44.2421777,43.3452012 C44.2764414,43.3366353 44.2996918,43.329293 44.3107052,43.3256219 C44.3229422,43.3207271 44.3351793,43.3072663 44.3486401,43.2827922 C44.3621008,43.2583181 44.3731142,43.2240543 44.3816801,43.1787772 C44.4869188,43.1751061 44.5627886,43.1861194 44.6092894,43.2118173 C44.8136483,43.2974767 44.9445849,43.3256219 45.002099,43.296253 C45.0510473,43.2693314 45.0840873,43.2436336 45.1024429,43.2179358 C45.1207985,43.192238 45.1159037,43.162869 45.0877585,43.129829 C45.0596132,43.0967889 45.0339154,43.0710911 45.0118887,43.0539592 C44.989862,43.0368273 44.9629404,43.0184717 44.9323478,42.9976687 L44.8809522,42.9621812 L44.7830557,42.8642848 L44.73166,42.8287973 C44.6398821,42.8985485 44.5676834,42.9266938 44.5162878,42.913233 C44.4648921,42.8997722 44.4355232,42.8618374 44.428181,42.8006521 C44.4208387,42.7394668 44.428181,42.6648207 44.448984,42.5791613 C44.4502077,42.5705953 44.4661158,42.5424501 44.4942611,42.4947256 C44.52363,42.4482247 44.552999,42.3943817 44.5848153,42.3331964 C44.6166317,42.2732348 44.6349873,42.2242866 44.6423295,42.1887991 C44.6876066,42.0064669 44.6643562,41.9024519 44.573802,41.8767541 C44.6117368,41.8388192 44.6251976,41.7923184 44.6141843,41.7384753 C44.6092894,41.7433701 44.5897101,41.7519361 44.5578938,41.7629494 C44.5248537,41.7739628 44.4967085,41.7849761 44.469787,41.7972132 C44.4440891,41.8094502 44.428181,41.8180162 44.4220624,41.822911 C44.4526551,41.7556072 44.4294047,41.7213434 44.3510875,41.7201197 C44.3669957,41.6821848 44.3682194,41.6418025 44.3523112,41.6001965 C44.336403,41.5585905 44.3388504,41.5194319 44.3584297,41.4851682 C44.4502077,41.4802733 44.511393,41.4264303 44.5395382,41.3260864 C44.5481041,41.2587826 44.5224063,41.2281899 44.461221,41.2306373 C44.4624447,41.178018 44.4991559,41.1033719 44.5701308,41.0079229 C44.6411058,40.9112501 44.6741458,40.8439463 44.6680273,40.8060114 C44.7133044,40.7754187 44.73166,40.7497209 44.7218704,40.7301416 C44.7133044,40.7105623 44.6937251,40.6860882 44.6643562,40.6567193 C44.6349873,40.6273503 44.6215265,40.5979814 44.6239739,40.5673887 C44.627645,40.5282301 44.6521191,40.4707159 44.6961726,40.3972936 C44.7414497,40.3238712 44.7671475,40.2785941 44.7744897,40.2651334 L44.8528069,40.0681167 C44.8540306,40.037524 44.8479121,40.0301818 44.8307802,40.04609 C44.9347952,39.9555357 44.9996516,39.8527445 45.022902,39.7352687 C45.0375865,39.6410433 44.9849672,39.621464 44.8662677,39.6753071 C44.8613729,39.6373722 44.835675,39.6288063 44.7903979,39.6483856 C44.7451208,39.6679649 44.6949488,39.6985575 44.6386584,39.7401635 C44.6508954,39.7205842 44.6814881,39.6887679 44.7292126,39.6447144 C44.7769371,39.600661 44.802635,39.5700684 44.8063061,39.5517128 C44.8515832,39.434237 44.8038587,39.4244474 44.6631325,39.5211201 C44.552999,39.5969899 44.4587736,39.7352687 44.3804564,39.9371802 Z M47.8190701,46.0189987 C48.801706,44.7757134 49.4086641,43.4847037 49.6387208,42.1471931 C49.6117993,42.1520879 49.5701933,42.1777857 49.5126791,42.2242866 C49.4551649,42.2707874 49.4160064,42.2977089 49.3927559,42.3062749 C49.2703854,42.3784735 49.1908445,42.4286455 49.155357,42.4580144 C49.1357777,42.4274217 49.1051851,42.4102899 49.0648028,42.4078424 C49.0244205,42.405395 48.9864856,42.4102899 48.9509981,42.4237506 C48.9155106,42.4372114 48.8677861,42.4567907 48.8066008,42.4812648 C48.7454155,42.5069626 48.7025858,42.5228708 48.6793354,42.5326605 C48.6609798,42.5363316 48.6316109,42.5448975 48.5900049,42.5571346 C48.5483988,42.5693716 48.5190299,42.5791613 48.5031217,42.5840561 C48.4872136,42.5889509 48.4590683,42.601188 48.4174623,42.6207673 C48.37708,42.6391229 48.3501585,42.6587022 48.3379214,42.6782815 C48.3256844,42.6978608 48.2999865,42.7272297 48.2620517,42.7651646 L48.2436961,42.7945335 C48.231459,42.8141128 48.2204457,42.8336921 48.2131034,42.8532714 C48.2045375,42.871627 48.1959715,42.89243 48.1849582,42.9144567 C48.1739448,42.9364834 48.16905,42.9523916 48.16905,42.9634049 C48.16905,42.9744183 48.1739448,42.9793131 48.1825108,42.9768657 C48.0075208,43.0282614 47.8704658,43.0857755 47.7713456,43.1494082 C47.7407529,43.1726587 47.7015943,43.192238 47.6526461,43.2081461 C47.6036979,43.2240543 47.5633156,43.2399625 47.5290518,43.2558707 C47.4960117,43.2705551 47.4654191,43.2950293 47.4397213,43.329293 C47.4140234,43.3623331 47.3956679,43.4063865 47.3846545,43.4602296 C47.3760886,43.5055067 47.3871019,43.5483364 47.4176946,43.5899424 C47.4482872,43.6315484 47.4666428,43.6609173 47.4715376,43.6768255 C47.4152472,43.6964048 47.3834308,43.6645884 47.3760886,43.5813764 C47.3687463,43.4981644 47.3406011,43.4590059 47.2916529,43.4651244 C47.253718,43.4602296 47.2170068,43.4798089 47.1815193,43.5263097 C47.1460318,43.5728105 47.1215577,43.6131928 47.108097,43.6474566 C47.0946362,43.682944 47.078728,43.7294449 47.0615961,43.786959 C47.0444643,43.8444732 47.0310035,43.8811844 47.0236612,43.8946452 C47.016319,43.9093296 47.0028582,43.9423697 46.9845027,43.9937653 C46.9661471,44.045161 46.9563574,44.0818722 46.9563574,44.1038989 C46.9551337,44.1344915 46.9600285,44.1724264 46.9722656,44.2177035 C46.9845027,44.2629807 46.9918449,44.2960207 46.9918449,44.3180474 C46.9661471,44.3143763 46.9233174,44.3339556 46.8633558,44.3755616 C46.8033942,44.4171676 46.7679067,44.4330758 46.7568934,44.4232861 C46.8033942,44.448984 46.8780402,44.5016033 46.9796078,44.5811442 C47.0811754,44.6606851 47.1631637,44.7157518 47.2267964,44.7463445 C47.3773123,44.8209906 47.4311553,44.93969 47.3895493,45.1036666 C47.3344826,45.3398419 47.328364,45.4903577 47.3711937,45.5564378 C47.4287079,45.6580054 47.5082488,45.6726899 47.6098164,45.6004912 C47.6355142,45.6261891 47.6501987,45.684927 47.6563172,45.7767049 C47.6624357,45.8684828 47.682015,45.9272207 47.7162788,45.9504711 C47.7383055,45.9700504 47.7725693,45.9945246 47.8190701,46.0189987 Z"/>
    <path fill="#F9F6FF" fill-rule="nonzero" stroke="#6D3BC6" d="M46.6012627,0.180984517 C48.4388985,-0.431560748 49.4315607,0.56110154 48.8190155,2.39873734 L38.3222171,33.887922 C37.7096718,35.7255578 35.7243472,37.7108824 33.8867114,38.3234276 L2.39873734,48.8190155 C0.56110154,49.4315607 -0.431560748,48.4388985 0.180984517,46.6012627 L10.6777829,15.112078 C11.2903282,13.2744422 13.2756528,11.2891176 15.1132886,10.6765724 L46.6012627,0.180984517 Z"/>
    <path stroke="#6D3BC6" stroke-dasharray="2" d="M3,3 L24,24"/>
    <path fill="#6D3BC6" fill-rule="nonzero" d="M20.330222,20.330222 C21.4597026,19.2007414 22.6883034,18.345371 24.0148006,17.7641107 C25.3412978,17.1828503 26.6029387,16.9332143 27.7984994,17.0152026 C28.9940601,17.0971909 29.9705774,17.5169221 30.7268277,18.2731723 C31.4830779,19.0294226 31.9028091,20.0059399 31.9847974,21.2015006 C32.0667857,22.3970613 31.8171497,23.6587022 31.2358893,24.9851994 C30.654629,26.3116966 29.7992586,27.5402974 28.669778,28.669778 C27.5402974,29.7992586 26.3116966,30.654629 24.9851994,31.2358893 C23.6587022,31.8171497 22.3970613,32.0667857 21.2015006,31.9847974 C20.0059399,31.9028091 19.0294226,31.4830779 18.2731723,30.7268277 C17.5169221,29.9705774 17.0971909,28.9940601 17.0152026,27.7984994 C16.9332143,26.6029387 17.1828503,25.3412978 17.7641107,24.0148006 C18.3441473,22.6883034 19.2007414,21.4597026 20.330222,20.330222 Z M25.3792327,20.9371802 C25.3718905,20.9518646 25.3633245,20.9946943 25.3535349,21.0656693 C25.3437452,21.1366442 25.3241659,21.1904873 25.2960207,21.2271985 C25.3070341,21.2161851 25.3094815,21.1953821 25.3058104,21.1635658 C25.3009155,21.1317494 25.294797,21.0987093 25.2862311,21.0632219 C25.2776651,21.0277344 25.2752177,21.0057077 25.2764414,20.9971418 C25.2837837,20.9396276 25.3156,20.8527445 25.3731142,20.7377161 C25.4269572,20.6398196 25.5456567,20.4782904 25.7292126,20.2506811 C25.8846233,20.0377563 26.0412576,19.9202805 26.2027868,19.8970301 C26.1844312,19.9007012 26.1868786,19.851753 26.2089053,19.7489617 C26.2309321,19.6461704 26.2492876,19.5862088 26.2615247,19.5666295 C26.2700906,19.5433791 26.3031307,19.4944309 26.3581975,19.4210085 C26.4132642,19.3475861 26.4414095,19.2925194 26.4389621,19.2582556 L26.3361708,19.1224243 C26.2749855,19.1909518 26.2150239,19.2252156 26.156286,19.2264393 C26.0975481,19.227663 26.0424813,19.20686 25.989862,19.165254 C25.9972042,19.1725962 25.9947568,19.2031888 25.9849672,19.2570319 C25.9592693,19.2313341 25.9335715,19.2288867 25.9054263,19.2496897 C25.877281,19.2704927 25.8479121,19.3035327 25.8173194,19.3488099 C25.7867268,19.394087 25.7647001,19.4197848 25.7500156,19.427127 C25.6851592,19.4699567 25.6313161,19.4968783 25.5872627,19.5078916 C25.544433,19.518905 25.4930374,19.510339 25.4330758,19.4834175 C25.3731142,19.456496 25.3351793,19.4393641 25.3192711,19.4344693 C25.2899022,19.427127 25.2458488,19.4332456 25.1846635,19.4540486 C25.1234782,19.4748516 25.0794248,19.4809701 25.0500558,19.4736279 C25.0378188,19.4724042 25.0206869,19.468733 24.9998839,19.4638382 C24.9790809,19.4589434 24.9595016,19.4552723 24.9399223,19.4528249 C24.9215667,19.4503774 24.9007637,19.4503774 24.8775133,19.4552723 C24.8554866,19.4601671 24.8359073,19.4699567 24.8187754,19.4858649 C24.8028672,19.5017731 24.7930776,19.5299183 24.7894065,19.5703006 C24.7857353,19.6094592 24.7832879,19.6486178 24.7832879,19.685329 C24.7820642,19.7220402 24.7796168,19.7440669 24.7734983,19.7489617 C24.7502479,19.7575276 24.7306686,19.7709884 24.7172078,19.789344 C24.7025233,19.8076996 24.6927337,19.8211603 24.6866152,19.83095 C24.6804966,19.8407396 24.6731544,19.8578715 24.6658122,19.8835693 C24.6584699,19.9092672 24.6511277,19.9288465 24.6437854,19.9435309 C24.6352195,19.9667814 24.6168639,19.9949266 24.5911661,20.0291904 C24.5654683,20.0634541 24.545889,20.0891519 24.5336519,20.1087312 C24.5960609,20.0096111 24.5740342,19.9924792 24.4663481,20.0573356 C24.3978206,20.0964942 24.3488723,20.1344291 24.3207271,20.1711402 C24.3549908,20.1075075 24.3537671,20.0659015 24.3158323,20.0450985 C24.2791211,20.0242955 24.2301728,20.0218481 24.171435,20.0377563 L24.2118173,19.997374 C24.192238,19.9888081 24.1530794,19.9961503 24.0967889,20.0206244 C24.0404984,20.0450985 23.9768657,20.0769149 23.9083382,20.1160735 C23.8398106,20.1552321 23.7933098,20.1797062 23.7700594,20.1894958 C23.7088741,20.2151937 23.5999643,20.2898397 23.4433299,20.413434 C23.2866956,20.538252 23.1961413,20.6263589 23.1728909,20.6777545 C23.1679961,20.7267027 23.1741146,20.7572954 23.1936939,20.7707562 C23.2132732,20.7842169 23.2487607,20.7989014 23.3026037,20.8148096 C23.3564468,20.8307177 23.3882632,20.8429548 23.3992765,20.8539682 C23.426198,20.8698763 23.434764,20.9090349 23.4249743,20.9689965 C23.4151847,21.0289581 23.4188558,21.0693404 23.4372114,21.0864723 C23.4629092,21.1121701 23.5289893,21.1023805 23.6354518,21.0571033 C23.7419142,21.0118262 23.8079943,21.0240633 23.8336921,21.0925908 C23.8459292,21.1378679 23.8324684,21.2100666 23.7908624,21.3091868 C23.7492564,21.4083069 23.7284534,21.4731634 23.726006,21.503756 C23.7284534,21.5600465 23.7578223,21.5967577 23.8141128,21.616337 C23.8704033,21.6359163 23.9291412,21.63714 23.9891028,21.6212318 C24.0074584,21.6175607 24.0184717,21.6212318 24.0233665,21.6310214 C24.0282614,21.6408111 24.0270377,21.6591667 24.0196954,21.6836408 C24.0123532,21.7093386 24.0050109,21.7313653 23.996445,21.7497209 C23.9878791,21.7680765 23.9768657,21.7925506 23.9621812,21.8219196 L23.9487205,21.857407 C23.9071145,21.9345005 23.8410344,21.9797776 23.7504801,21.990791 C23.6599259,22.0018043 23.5754902,21.9920147 23.4996204,21.9589746 C23.3711313,21.9063553 23.2732348,21.8953419 23.2071547,21.9259346 C23.0541914,22.0213836 22.977098,22.1009245 22.977098,22.1670046 C22.9024519,22.1474253 22.7445938,22.211058 22.5035238,22.3579028 C22.335876,22.4606941 22.1718995,22.6099862 22.011594,22.8070028 C22.0409629,22.7715154 22.0128177,22.7433701 21.9296057,22.7250145 C21.8378277,22.7091064 21.7644054,22.7384753 21.7105623,22.8143451 C21.7056675,22.7764102 21.6836408,22.7335805 21.6481533,22.6870797 C21.6126658,22.6405788 21.5906391,22.6124336 21.5832969,22.6050914 C21.5527042,22.5414586 21.5429146,22.4680363 21.5551517,22.3823769 C21.5563754,22.3738109 21.5600465,22.3395472 21.566165,22.2795856 C21.5710598,22.219624 21.5722835,22.169452 21.5698361,22.1290697 C21.5673887,22.0886874 21.5575991,22.0764504 21.5416909,22.0923586 C21.7448261,21.9173686 21.8610781,21.7631817 21.886776,21.6273503 C21.8953419,21.5820732 21.8965656,21.5208879 21.8879997,21.441347 C21.8794337,21.3630298 21.8769863,21.3030682 21.8806574,21.2639096 C21.907579,21.1941584 21.9357242,21.1452102 21.9638694,21.1207361 C21.9932384,21.0950382 22.0421866,21.066893 22.1107142,21.0326292 C22.1804654,20.9995892 22.2281899,20.9689965 22.2551115,20.942075 C22.3346523,20.8698763 22.356679,20.808691 22.3211916,20.7572954 C22.2857041,20.7058997 22.2294136,20.6899916 22.1523202,20.7095709 C22.2208477,20.6483856 22.1975973,20.609227 22.0837926,20.5933188 C22.0311733,20.5945425 21.9932384,20.600661 21.969988,20.609227 C21.8904471,20.6593989 21.8268144,20.7413872 21.7778661,20.8551919 C21.7484972,20.912706 21.7693002,20.9224957 21.8378277,20.8821134 C21.8292618,20.8833371 21.8219196,20.9286142 21.8182484,21.016721 C21.8133536,21.1048279 21.8011166,21.1806976 21.7790898,21.2455541 C21.7570631,21.3104105 21.7056675,21.3446742 21.6224555,21.3483454 C21.6138895,21.3495691 21.574731,21.3410031 21.5049797,21.3202001 C21.4352285,21.2993971 21.3850565,21.3006208 21.3544639,21.3238712 C21.3116342,21.3667009 21.295726,21.4376759 21.3067394,21.5355724 C21.2945023,21.4902952 21.2369881,21.4927427 21.1366442,21.5429146 C21.0350766,21.5930865 20.9567595,21.6432585 20.8992453,21.6946541 C20.9579832,21.5490331 20.8882319,21.5208879 20.6875441,21.6126658 C20.6349248,21.6359163 20.5712921,21.6824171 20.4941986,21.7521683 C20.4171051,21.8219196 20.371828,21.8818811 20.3583673,21.9320531 C20.3571435,21.9846724 20.3620384,22.0201599 20.3767228,22.0385155 C20.3901836,22.0580948 20.4183288,22.0580948 20.4611585,22.0409629 C20.5039883,22.023831 20.5419231,22.0054754 20.5761869,21.9858961 C20.6104507,21.9663169 20.6483856,21.9418427 20.6912153,21.9149212 C20.734045,21.886776 20.7621902,21.8696441 20.7768747,21.8623018 C20.8882319,21.8231433 20.9359565,21.8268144 20.9176009,21.8733152 C20.9102586,21.8879997 20.8943505,21.9173686 20.8674289,21.961422 C20.8405074,22.0054754 20.8184807,22.044634 20.7989014,22.0788978 C20.7793221,22.1131616 20.7695324,22.136412 20.7719799,22.148649 C20.7707562,22.1792417 20.7952303,22.2049395 20.8478496,22.2245188 C20.900469,22.2440981 20.9200483,22.2746908 20.9078112,22.3162968 C20.8625341,22.3248627 20.8062436,22.3175205 20.7401635,22.29427 C20.6740834,22.2710196 20.6251351,22.2600063 20.5933188,22.26123 C20.6642937,22.2563352 20.6067796,22.3346523 20.4232237,22.4961815 L20.3363405,22.5720513 C20.3143138,22.594078 20.2751552,22.6405788 20.2176411,22.7127775 C20.1601269,22.7849761 20.1062838,22.8424903 20.0573356,22.8840963 C20.0071636,22.926926 19.9569917,22.9489527 19.9043723,22.9501764 C19.8542004,22.9428342 19.8174892,22.906123 19.7954625,22.8412666 C19.7868966,22.8216873 19.7930151,22.8070028 19.8174892,22.7984369 C19.7844492,22.8094502 19.7379483,22.8216873 19.676763,22.8363718 C19.6155777,22.8510562 19.572748,22.8620696 19.5494976,22.8718592 C19.3549284,23.1753383 19.1750436,23.5032915 19.0098433,23.8569425 C19.0453308,23.8275736 19.0759234,23.7933098 19.1016213,23.7541512 C19.1212005,23.7198875 19.144451,23.6733866 19.1713725,23.613425 C19.198294,23.5534635 19.2154259,23.5167523 19.2227681,23.5020678 C19.3561521,23.2671163 19.456496,23.1410746 19.5250235,23.1239427 L19.5384843,23.0566388 C19.6718682,23.0382833 19.7709884,23.0297173 19.8358448,23.0297173 C19.7832255,23.0529677 19.7012372,23.1325086 19.5874325,23.2671163 C19.5005494,23.3968291 19.4638382,23.4775937 19.4736279,23.5106337 C19.5543924,23.5167523 19.6008933,23.5351079 19.6119066,23.5681479 C19.5788666,23.5791613 19.5299183,23.5913983 19.4638382,23.6073065 C19.3977581,23.621991 19.3390202,23.6415703 19.2864008,23.6648207 C19.2337815,23.6880711 19.1848333,23.7198875 19.1371087,23.7590461 C19.0502256,23.8459292 18.9927114,23.9071145 18.9645662,23.9426019 C18.4652942,25.0206869 18.2315663,26.0583895 18.2646064,27.0532624 C18.3282391,27.0410254 18.3747399,27.0226698 18.4053326,26.9994194 C18.4310304,26.9810638 18.4603993,26.9847349 18.4946631,27.0079853 C18.5289269,27.0312357 18.5558484,27.0446965 18.574204,27.0471439 C18.5925596,27.0495913 18.6182574,27.0128801 18.6512975,26.9370104 C18.7283909,26.9174311 18.7712206,26.9431289 18.7785629,27.0153276 C18.7797866,27.0067616 18.948658,26.9357867 19.281506,26.8048501 C19.4454826,26.7632441 19.5409317,26.7448885 19.5654058,26.7485597 C19.6216963,26.7718101 19.6265911,26.8317717 19.5825377,26.9272207 C19.5703006,26.925997 19.5286946,26.9333393 19.4601671,26.9516948 C19.3916396,26.9700504 19.3598232,26.9871823 19.3659417,27.0030905 C19.3683891,27.0373543 19.4026529,27.0691706 19.4699567,27.0997633 C19.5372606,27.1291322 19.5886562,27.1242374 19.62292,27.0826314 C19.5849851,27.1205663 19.5886562,27.175633 19.6327096,27.246608 C19.676763,27.3175829 19.7342772,27.3885579 19.8052522,27.4595328 C19.8762271,27.5305078 19.9153857,27.5757849 19.9251753,27.5953642 L19.9472021,27.5843508 C19.9741236,27.6443124 20.0512171,27.6920369 20.1784825,27.7275244 C20.3057479,27.7630119 20.3987495,27.7397615 20.4587111,27.6589969 C20.3987495,27.7397615 20.5309098,27.7642356 20.8539682,27.7299718 C20.9151535,27.7263007 20.9530883,27.7214059 20.9677728,27.7140636 C20.9910232,27.7054977 21.037524,27.6859184 21.1060516,27.6577732 C21.1745791,27.6296279 21.233317,27.6063775 21.2822652,27.5904693 C21.3312135,27.5745612 21.3764906,27.5659952 21.420544,27.5659952 C21.4597026,27.5623241 21.5282301,27.5757849 21.6236792,27.6076012 C21.7191283,27.6381939 21.7998928,27.6430887 21.8647493,27.6222857 C21.8757626,27.6553258 21.9369479,27.6651154 22.0507526,27.6541021 C22.1645572,27.6430887 22.2330847,27.6553258 22.26123,27.6932606 C22.2563352,27.6981555 22.2514403,27.7067214 22.2465455,27.7189585 C22.2416507,27.7311955 22.2367559,27.7397615 22.231861,27.7446563 C22.273467,27.7532222 22.3407709,27.7373141 22.4337725,27.6944844 C22.5267742,27.6516546 22.5916306,27.6332991 22.6295655,27.6394176 C22.6454737,27.6443124 22.6687241,27.6577732 22.7005404,27.6773525 C22.7311331,27.6969318 22.7592783,27.7091688 22.7849761,27.7128399 C22.810674,27.7165111 22.8351481,27.6981555 22.8608459,27.6589969 C22.7996606,27.5757849 22.6222232,27.5280603 22.3297575,27.517047 C22.1584387,27.5072573 22.0593185,27.5011388 22.0348444,27.4974677 C22.0005806,27.4950203 21.9577509,27.4827832 21.9063553,27.4583091 C21.8549596,27.433835 21.8170247,27.4191505 21.7913269,27.4154794 C21.8023403,27.404466 21.8206958,27.3910053 21.8476174,27.3750971 C21.8745389,27.3591889 21.9039079,27.342057 21.9357242,27.3249252 C21.9675406,27.3077933 21.9944621,27.2943325 22.0177125,27.2857666 C22.0409629,27.2772006 22.0519763,27.2772006 22.0507526,27.2857666 C22.0593185,27.3273726 22.0972534,27.3530704 22.1621098,27.3640837 C22.2269662,27.3750971 22.2930463,27.3763208 22.3603502,27.3677549 C22.427654,27.3591889 22.5071949,27.3469519 22.6014202,27.3334911 C22.6956456,27.3188066 22.7507124,27.3102407 22.7690679,27.3065696 C22.822911,27.2955562 22.8963334,27.2931088 22.9881113,27.2992273 C23.0798893,27.3053459 23.1043634,27.32982 23.0615337,27.3726497 C23.1104819,27.3237015 23.1826806,27.288214 23.2781296,27.2649636 C23.3735787,27.2417132 23.455567,27.2319235 23.5240945,27.2355946 C23.580385,27.238042 23.6489125,27.2625162 23.7296771,27.3114644 C23.8104417,27.3604126 23.8679559,27.3897816 23.9009959,27.4007949 C23.9377071,27.4154794 23.9842079,27.4167031 24.0429458,27.4056898 C24.1016837,27.3946764 24.1530794,27.3775445 24.1959091,27.3555178 L24.3684516,27.2686347 L24.5116252,27.2013309 C24.545889,27.1817516 24.6144165,27.1511589 24.7184315,27.1083292 C24.8224465,27.0667232 24.9007637,27.0287883 24.9546068,26.996972 C25.0231343,26.9578134 25.0733062,26.9211022 25.1063463,26.8892858 C25.1393864,26.8562458 25.1736501,26.8134161 25.2103613,26.7583493 C25.2470725,26.7032825 25.2776651,26.6604528 25.3009155,26.6298602 C25.3743379,26.5417534 25.4808003,26.4903577 25.6178554,26.4756732 C25.7549104,26.4609888 25.8503595,26.4426332 25.9017552,26.4193828 C26.1648519,26.2933411 26.3337233,26.1648519 26.4071457,26.0326917 C26.3998035,26.0473762 26.4144879,26.0596132 26.4524228,26.0694029 C26.489134,26.0791925 26.5393059,26.085311 26.6017149,26.0889822 C26.664124,26.0914296 26.7142959,26.093877 26.7534545,26.0951007 C26.7926131,26.0963244 26.821982,26.0963244 26.8440087,26.0963244 C26.892957,26.0914296 26.9688267,26.0694029 27.071618,26.031468 C27.1744093,25.9935331 27.2502791,25.9727301 27.2992273,25.9666116 C27.3175829,25.9201107 27.3200303,25.8846233 27.3065696,25.8613729 C27.3188066,25.90665 27.3738734,25.9237819 27.4717699,25.9127685 C27.5696663,25.9017552 27.6357465,25.8711625 27.6724576,25.8209906 C27.7373141,25.7341074 27.7177348,25.6386584 27.6124961,25.5334197 C27.4986914,25.7549104 27.3347148,25.8552543 27.1181189,25.8332276 C27.1144477,25.8295565 27.0973159,25.8258854 27.0679469,25.823438 C27.038578,25.8209906 27.0116564,25.8160957 26.9896297,25.8099772 C26.967603,25.8038587 26.9443526,25.7952927 26.9235496,25.7842794 C26.9027466,25.773266 26.8880621,25.7598053 26.8831673,25.7438971 C26.8782725,25.7279889 26.8856147,25.7084096 26.9076414,25.6876066 C26.9565897,25.6386584 26.9773927,25.6056183 26.9700504,25.5872627 C26.9627082,25.5689071 26.934563,25.5517753 26.8856147,25.5358671 C26.8366665,25.5199589 26.8024027,25.5064981 26.7828234,25.4979322 C26.7448885,25.4759055 26.6788084,25.4685633 26.5809119,25.4795766 C26.4830155,25.49059 26.4242776,25.4954848 26.4022509,25.4954848 C26.4083694,25.5554464 26.3790005,25.6129606 26.3153678,25.6680273 C26.2517351,25.7243178 26.1929972,25.7512393 26.1367067,25.7487919 C26.1403778,25.752463 26.1464963,25.7659238 26.1538386,25.7903979 C26.1611808,25.814872 26.1697468,25.8307802 26.177089,25.8381224 C26.1073378,25.9078737 26.064508,25.9470323 26.0498236,25.9543745 C26.0449287,25.9384663 26.0192309,25.8993077 25.9751775,25.8393461 C25.9311241,25.7781609 25.8993077,25.7279889 25.8809522,25.6888303 C25.8723862,25.669251 25.865044,25.6325398 25.8601492,25.5786968 C25.8552543,25.5248537 25.8491358,25.4783529 25.8417936,25.4391943 C25.8344513,25.4000357 25.8222143,25.365772 25.8063061,25.3388504 C25.7903979,25.3119289 25.761029,25.3070341 25.7181993,25.3241659 C25.6753696,25.3412978 25.6239739,25.3841275 25.5627886,25.4526551 C25.4636684,25.5591175 25.4294047,25.6655799 25.4599973,25.7720423 C25.4648921,25.7879505 25.4759055,25.814872 25.4930374,25.8528069 C25.5089455,25.8907418 25.5162878,25.9250056 25.5150641,25.9555982 C25.5138404,25.9861909 25.5016033,26.022902 25.4795766,26.0669555 C25.4526551,26.1159037 25.3914698,26.1844312 25.2960207,26.2725381 C25.2005716,26.3606449 25.1271493,26.4169354 25.0745299,26.4401858 C24.9754098,26.4817918 24.8616051,26.4903577 24.7343397,26.4646599 C24.6070743,26.4401858 24.5140726,26.3985798 24.4565584,26.3410656 C24.4198473,26.3043544 24.379465,26.2505113 24.3329641,26.177089 C24.2864633,26.1036666 24.2497521,26.0510473 24.2216069,26.0167835 C24.1934617,25.9837435 24.1347238,25.9543745 24.0441695,25.9286767 C24.0527355,25.9054263 24.0600777,25.8638203 24.0649725,25.8038587 C24.0698674,25.7438971 24.0784333,25.69862 24.0894467,25.6655799 C24.0967889,25.6508954 24.1065785,25.636211 24.1175919,25.6215265 C24.129829,25.6056183 24.142066,25.594605 24.1543031,25.5848153 C24.1665401,25.5762494 24.1751061,25.5627886 24.1787772,25.544433 C24.1824483,25.5260774 24.1800009,25.5077218 24.1702112,25.4881425 C24.1616453,25.4893663 24.1445134,25.4954848 24.121263,25.5040507 C24.0943415,25.5089455 24.0784333,25.5150641 24.0723148,25.5199589 C24.121263,25.4930374 24.1959091,25.4134965 24.2950293,25.2813362 C24.3953731,25.149176 24.4724666,25.0769774 24.5263097,25.065964 C24.6474566,25.024358 24.7025233,24.961949 24.6939574,24.8762896 C24.6902863,24.8726185 24.6658122,24.8628288 24.6217587,24.8444732 C24.5777053,24.8261176 24.5520075,24.8040909 24.5446653,24.774722 C24.6694833,24.8456969 24.7637086,24.7832879 24.828565,24.5887187 C24.8554866,24.5838239 24.9068822,24.5507838 24.9815283,24.4895985 C25.0561743,24.4284132 25.1124648,24.3904783 25.1503997,24.3745701 C25.1736501,24.3660042 25.2030191,24.3562146 25.2372828,24.3476486 C25.2715466,24.3390827 25.294797,24.3317404 25.3058104,24.3280693 C25.3168237,24.3243982 25.3302845,24.3097137 25.3437452,24.2852396 C25.357206,24.2607655 25.3682194,24.2265017 25.3767853,24.1812246 C25.482024,24.1775535 25.5578938,24.1885668 25.6043946,24.2142647 C25.8087535,24.2999241 25.93969,24.3280693 25.9972042,24.2987004 C26.0461525,24.2717788 26.0791925,24.246081 26.0975481,24.2203832 C26.1159037,24.1946854 26.1110089,24.1653164 26.0828636,24.1322764 C26.0547184,24.0992363 26.0290206,24.0735385 26.0069939,24.0564066 C25.9849672,24.0392747 25.9580456,24.0209191 25.927453,24.0001161 L25.8760573,23.9646287 L25.7781609,23.8667322 L25.7267652,23.8312447 C25.6349873,23.9009959 25.5627886,23.9291412 25.511393,23.9156804 C25.4599973,23.9022196 25.4306284,23.8642848 25.4232861,23.8030995 C25.4159439,23.7419142 25.4232861,23.6672681 25.4440891,23.5816087 C25.4453128,23.5730428 25.461221,23.5448975 25.4893663,23.497173 C25.5175115,23.4494485 25.5481041,23.3968291 25.5799205,23.3356438 C25.6117368,23.2756822 25.6300924,23.226734 25.6374347,23.1912465 C25.6827118,23.0089143 25.6594614,22.9048993 25.5689071,22.8792015 C25.606842,22.8412666 25.6203028,22.7947658 25.6092894,22.7409227 C25.6043946,22.7458175 25.5848153,22.7543835 25.552999,22.7653968 C25.5199589,22.7764102 25.4918137,22.7874235 25.4648921,22.7996606 C25.4379706,22.8118977 25.4232861,22.8204636 25.4171676,22.8253584 C25.4477602,22.7580546 25.4245098,22.7237908 25.3461927,22.7225671 C25.3621008,22.6846322 25.3633245,22.6442499 25.3474164,22.6026439 C25.3315082,22.5610379 25.3339556,22.5218794 25.3535349,22.4876156 C25.4453128,22.4827208 25.5064981,22.4288777 25.5346434,22.3285338 C25.5432093,22.26123 25.5175115,22.2306373 25.4563262,22.2330847 C25.4575499,22.1804654 25.4942611,22.1058193 25.565236,22.0103703 C25.636211,21.9136975 25.669251,21.8463937 25.6631325,21.8084588 C25.7084096,21.7778661 25.7267652,21.7521683 25.7169756,21.732589 C25.7084096,21.7130097 25.6888303,21.6885356 25.6594614,21.6591667 C25.6300924,21.6297977 25.6166317,21.6004288 25.6190791,21.5698361 C25.6227502,21.5306775 25.6472243,21.4731634 25.6912777,21.399741 C25.7365549,21.3263186 25.7622527,21.2810415 25.7695949,21.2675808 L25.8479121,21.0705641 C25.8491358,21.0399715 25.8430173,21.0326292 25.8258854,21.0485374 C25.9299004,20.9579832 25.9947568,20.8551919 26.0180072,20.7377161 C26.0326917,20.6434907 25.9800723,20.6239114 25.8613729,20.6777545 C25.856478,20.6398196 25.8307802,20.6312537 25.7855031,20.650833 C25.740226,20.6704123 25.690054,20.7010049 25.6337636,20.7426109 C25.6460006,20.7230316 25.6765933,20.6912153 25.7243178,20.6471619 C25.7720423,20.6031084 25.7977401,20.5725158 25.8014113,20.5541602 C25.8466884,20.4366844 25.7989639,20.4268948 25.6582377,20.5235676 C25.552999,20.5969899 25.4587736,20.7352687 25.3792327,20.9371802 Z M28.8190701,27.0202224 C29.801706,25.7769371 30.4086641,24.4859274 30.6387208,23.1484168 C30.6117993,23.1533116 30.5701933,23.1790094 30.5126791,23.2255103 C30.4563887,23.2720111 30.4160064,23.2989326 30.3927559,23.3074986 C30.2703854,23.3796972 30.1908445,23.4298692 30.155357,23.4592381 C30.1357777,23.4286455 30.1051851,23.4115136 30.0648028,23.4090662 C30.0244205,23.4066187 29.9864856,23.4115136 29.9509981,23.4249743 C29.9155106,23.4384351 29.8677861,23.4580144 29.8066008,23.4824885 C29.7454155,23.5081863 29.7025858,23.5240945 29.6793354,23.5338842 C29.6609798,23.5375553 29.6316109,23.5461212 29.5900049,23.5583583 C29.5483988,23.5705953 29.5190299,23.580385 29.5031217,23.5852798 C29.4872136,23.5901746 29.4590683,23.6024117 29.4174623,23.621991 C29.3758563,23.6415703 29.3501585,23.6599259 29.3379214,23.6795052 C29.3256844,23.6990845 29.2999865,23.7284534 29.2620517,23.7663883 L29.2436961,23.7957572 C29.231459,23.8153365 29.2204457,23.8349158 29.2131034,23.8544951 C29.2057612,23.8740744 29.1959715,23.8936537 29.1849582,23.9156804 C29.1739448,23.9377071 29.16905,23.9536153 29.16905,23.9646287 C29.16905,23.975642 29.1739448,23.9805368 29.1825108,23.9780894 C29.0075208,24.0294851 28.8704658,24.0869992 28.7713456,24.150632 C28.7407529,24.1738824 28.7015943,24.1934617 28.6526461,24.2093698 C28.6036979,24.225278 28.5633156,24.2411862 28.5290518,24.2570944 C28.4960117,24.2717788 28.4654191,24.296253 28.4397213,24.3305167 C28.4140234,24.3647805 28.3956679,24.4076102 28.3846545,24.4614533 C28.3760886,24.5067304 28.3871019,24.5495601 28.4176946,24.5911661 C28.4482872,24.6327721 28.4666428,24.662141 28.4715376,24.6780492 C28.4152472,24.6976285 28.3834308,24.6658122 28.3760886,24.5826002 C28.3687463,24.4993881 28.3406011,24.4602296 28.2916529,24.4663481 C28.253718,24.4614533 28.2170068,24.4810326 28.1815193,24.5275334 C28.1460318,24.5740342 28.1215577,24.6144165 28.108097,24.6486803 C28.0946362,24.6841677 28.078728,24.7306686 28.0615961,24.7881827 C28.0432405,24.8456969 28.0310035,24.8824081 28.0236612,24.8958689 C28.016319,24.9105533 28.0028582,24.9435934 27.9845027,24.9949891 C27.9661471,25.0463847 27.9563574,25.0830959 27.9563574,25.1051226 C27.9551337,25.1357152 27.9600285,25.1736501 27.9722656,25.2189272 C27.9845027,25.2642044 27.9918449,25.2972444 27.9918449,25.3192711 C27.9661471,25.3156 27.9233174,25.3351793 27.8633558,25.3767853 C27.8033942,25.419615 27.7679067,25.4342995 27.7568934,25.4245098 C27.8033942,25.4502077 27.8780402,25.502827 27.9796078,25.5823679 C28.0811754,25.6619088 28.1631637,25.7169756 28.2267964,25.7475682 C28.3773123,25.8222143 28.4311553,25.9409137 28.3895493,26.1048903 C28.3344826,26.3410656 28.328364,26.4915814 28.3711937,26.5576615 C28.4287079,26.6592291 28.5082488,26.6739136 28.6098164,26.6017149 C28.6355142,26.6274128 28.6501987,26.6861507 28.6563172,26.7779286 C28.6624357,26.8697065 28.682015,26.9284444 28.7162788,26.9516948 C28.7383055,26.9712741 28.7725693,26.9945246 28.8190701,27.0202224 Z"/>
    <path stroke="#6D3BC6" stroke-dasharray="2" d="M38 37L43 42M56 55L63 61"/>
  </g>
</svg>
