<svg xmlns="http://www.w3.org/2000/svg" xmlns:xlink="http://www.w3.org/1999/xlink" width="59" height="70" viewBox="0 0 59 70">
  <defs>
    <rect id="group-3-a" width="59" height="70" rx="5"/>
    <rect id="group-3-b" width="19" height="19" x="16" y="4" rx="6"/>
    <rect id="group-3-c" width="19" height="19" x="11" y="4" rx="6"/>
    <rect id="group-3-d" width="19" height="19" x="4" y="4" rx="6"/>
  </defs>
  <g fill="none" fill-rule="evenodd">
    <use fill="#F9F6FF" xlink:href="#group-3-a"/>
    <rect width="58" height="69" x=".5" y=".5" stroke="#5A29A7" rx="5"/>
    <rect width="42" height="5" x="9" y="11" fill="#E8E8E8" rx="2.5"/>
    <rect width="42" height="5" x="9" y="20" fill="#E8E8E8" rx="2.5"/>
    <g transform="translate(10 35)">
      <g opacity=".3" transform="rotate(45 25.5 13.5)">
        <use fill="#DAC6FF" xlink:href="#group-3-b"/>
        <rect width="18" height="18" x="16.5" y="4.5" stroke="#6D3BC6" rx="6"/>
      </g>
      <g opacity=".6" transform="rotate(45 20.5 13.5)">
        <use fill="#DAC6FF" xlink:href="#group-3-c"/>
        <rect width="18" height="18" x="11.5" y="4.5" stroke="#6D3BC6" rx="6"/>
      </g>
      <g transform="rotate(45 13.5 13.5)">
        <use fill="#DAC6FF" xlink:href="#group-3-d"/>
        <rect width="18" height="18" x="4.5" y="4.5" stroke="#6D3BC6" rx="6"/>
      </g>
    </g>
  </g>
</svg>
