<?xml version="1.0" encoding="UTF-8"?>
<svg width="82px" height="80px" viewBox="0 0 82 80" version="1.1" xmlns="http://www.w3.org/2000/svg" xmlns:xlink="http://www.w3.org/1999/xlink">
    <!-- Generator: Sketch 48.2 (47327) - http://www.bohemiancoding.com/sketch -->
    <title>Group 2</title>
    <desc>Created with Sketch.</desc>
    <defs>
        <filter x="-9.5%" y="-6.9%" width="118.9%" height="119.4%" filterUnits="objectBoundingBox" id="filter-1">
            <feOffset dx="0" dy="2" in="SourceAlpha" result="shadowOffsetOuter1"></feOffset>
            <feGaussianBlur stdDeviation="2" in="shadowOffsetOuter1" result="shadowBlurOuter1"></feGaussianBlur>
            <feColorMatrix values="0 0 0 0 0   0 0 0 0 0   0 0 0 0 0  0 0 0 0.5 0" type="matrix" in="shadowBlurOuter1" result="shadowMatrixOuter1"></feColorMatrix>
            <feMerge>
                <feMergeNode in="shadowMatrixOuter1"></feMergeNode>
                <feMergeNode in="SourceGraphic"></feMergeNode>
            </feMerge>
        </filter>
        <path d="M19.4401708,23.3804352 L30.5750346,34.1673346 C32.4749885,36.0079149 32.4749885,38.9920851 30.5750346,40.8326654 L19.4401708,51.6195648 C17.5402169,53.4601451 14.4597831,53.4601451 12.5598292,51.6195648 L1.42496538,40.8326654 C-0.474988461,38.9920851 -0.474988461,36.0079149 1.42496538,34.1673346 L12.5598292,23.3804352 C14.4597831,21.5398549 17.5402169,21.5398549 19.4401708,23.3804352 Z" id="path-2"></path>
        <path d="M40.4401708,42.3804352 L51.5750346,53.1673346 C53.4749885,55.0079149 53.4749885,57.9920851 51.5750346,59.8326654 L40.4401708,70.6195648 C38.5402169,72.4601451 35.4597831,72.4601451 33.5598292,70.6195648 L22.4249654,59.8326654 C20.5250115,57.9920851 20.5250115,55.0079149 22.4249654,53.1673346 L33.5598292,42.3804352 C35.4597831,40.5398549 38.5402169,40.5398549 40.4401708,42.3804352 Z" id="path-3"></path>
        <path d="M40.4401708,1.38043521 L51.5750346,12.1673346 C53.4749885,14.0079149 53.4749885,16.9920851 51.5750346,18.8326654 L40.4401708,29.6195648 C38.5402169,31.4601451 35.4597831,31.4601451 33.5598292,29.6195648 L22.4249654,18.8326654 C20.5250115,16.9920851 20.5250115,14.0079149 22.4249654,12.1673346 L33.5598292,1.38043521 C35.4597831,-0.460145071 38.5402169,-0.460145071 40.4401708,1.38043521 Z" id="path-4"></path>
        <path d="M61.4401708,23.3804352 L72.5750346,34.1673346 C74.4749885,36.0079149 74.4749885,38.9920851 72.5750346,40.8326654 L61.4401708,51.6195648 C59.5402169,53.4601451 56.4597831,53.4601451 54.5598292,51.6195648 L43.4249654,40.8326654 C41.5250115,38.9920851 41.5250115,36.0079149 43.4249654,34.1673346 L54.5598292,23.3804352 C56.4597831,21.5398549 59.5402169,21.5398549 61.4401708,23.3804352 Z" id="path-5"></path>
    </defs>
    <g id="kubernetes.hyper.sh" stroke="none" stroke-width="1" fill="none" fill-rule="evenodd">
        <g id="Group-2" filter="url(#filter-1)" transform="translate(4.000000, 2.000000)">
            <g id="Rectangle-4">
                <use fill="#F9F6FF" fill-rule="evenodd" xlink:href="#path-2"></use>
                <path stroke="#6D3BC6" stroke-width="1" d="M19.0922731,23.7395553 C17.3862185,22.0868149 14.6137815,22.0868149 12.9077269,23.7395553 L1.77286299,34.5264547 C0.0757123366,36.1705694 0.0757123366,38.8294306 1.77286299,40.4735453 L12.9077269,51.2604447 C14.6137815,52.9131851 17.3862185,52.9131851 19.0922731,51.2604447 L30.227137,40.4735453 C31.9242877,38.8294306 31.9242877,36.1705694 30.227137,34.5264547 L19.0922731,23.7395553 Z"></path>
            </g>
            <g id="Rectangle-4">
                <use fill="#DAC6FF" fill-rule="evenodd" xlink:href="#path-3"></use>
                <path stroke="#6D3BC6" stroke-width="1" d="M40.0922731,42.7395553 C38.3862185,41.0868149 35.6137815,41.0868149 33.9077269,42.7395553 L22.772863,53.5264547 C21.0757123,55.1705694 21.0757123,57.8294306 22.772863,59.4735453 L33.9077269,70.2604447 C35.6137815,71.9131851 38.3862185,71.9131851 40.0922731,70.2604447 L51.227137,59.4735453 C52.9242877,57.8294306 52.9242877,55.1705694 51.227137,53.5264547 L40.0922731,42.7395553 Z"></path>
            </g>
            <g id="Rectangle-4">
                <use fill="#DAC6FF" fill-rule="evenodd" xlink:href="#path-4"></use>
                <path stroke="#6D3BC6" stroke-width="1" d="M40.0922731,1.73955533 C38.3862185,0.0868148915 35.6137815,0.0868148915 33.9077269,1.73955533 L22.772863,12.5264547 C21.0757123,14.1705694 21.0757123,16.8294306 22.772863,18.4735453 L33.9077269,29.2604447 C35.6137815,30.9131851 38.3862185,30.9131851 40.0922731,29.2604447 L51.227137,18.4735453 C52.9242877,16.8294306 52.9242877,14.1705694 51.227137,12.5264547 L40.0922731,1.73955533 Z"></path>
            </g>
            <g id="Rectangle-4">
                <use fill="#F9F6FF" fill-rule="evenodd" xlink:href="#path-5"></use>
                <path stroke="#6D3BC6" stroke-width="1" d="M61.0922731,23.7395553 C59.3862185,22.0868149 56.6137815,22.0868149 54.9077269,23.7395553 L43.772863,34.5264547 C42.0757123,36.1705694 42.0757123,38.8294306 43.772863,40.4735453 L54.9077269,51.2604447 C56.6137815,52.9131851 59.3862185,52.9131851 61.0922731,51.2604447 L72.227137,40.4735453 C73.9242877,38.8294306 73.9242877,36.1705694 72.227137,34.5264547 L61.0922731,23.7395553 Z"></path>
            </g>
        </g>
    </g>
</svg>