<?xml version="1.0" encoding="utf-8"?>
<!-- Generator: Adobe Illustrator 17.0.0, SVG Export Plug-In . SVG Version: 6.00 Build 0)  -->
<!DOCTYPE svg PUBLIC "-//W3C//DTD SVG 1.1//EN" "http://www.w3.org/Graphics/SVG/1.1/DTD/svg11.dtd">
<svg version="1.1" id="图层_1" xmlns="http://www.w3.org/2000/svg" xmlns:xlink="http://www.w3.org/1999/xlink" x="0px" y="0px"
	 width="28.333px" height="28.333px" viewBox="22.798 23.465 28.333 28.333" enable-background="new 22.798 23.465 28.333 28.333"
	 xml:space="preserve">
<path fill="#FFFFFF" stroke="#383380" stroke-miterlimit="10" d="M47.482,45.396c0,1.459-1.182,2.641-2.641,2.641H29.229
	c-1.459,0-2.641-1.182-2.641-2.641V29.785c0-1.459,1.182-2.641,2.641-2.641h15.611c1.459,0,2.641,1.182,2.641,2.641V45.396z"/>
<line fill="none" stroke="#383380" stroke-miterlimit="10" x1="31.536" y1="27.299" x2="31.536" y2="25.465"/>
<line fill="none" stroke="#383380" stroke-miterlimit="10" x1="34.474" y1="27.31" x2="34.474" y2="25.475"/>
<line fill="none" stroke="#383380" stroke-miterlimit="10" x1="37.304" y1="27.241" x2="37.304" y2="25.406"/>
<line fill="none" stroke="#383380" stroke-miterlimit="10" x1="39.884" y1="27.31" x2="39.884" y2="25.475"/>
<line fill="none" stroke="#383380" stroke-miterlimit="10" x1="42.761" y1="27.241" x2="42.761" y2="25.406"/>
<line fill="none" stroke="#383380" stroke-miterlimit="10" x1="47.565" y1="32.444" x2="49.197" y2="32.444"/>
<line fill="none" stroke="#383380" stroke-miterlimit="10" x1="47.555" y1="35.382" x2="49.187" y2="35.382"/>
<line fill="none" stroke="#383380" stroke-miterlimit="10" x1="47.617" y1="38.212" x2="49.249" y2="38.212"/>
<line fill="none" stroke="#383380" stroke-miterlimit="10" x1="47.555" y1="40.792" x2="49.187" y2="40.792"/>
<line fill="none" stroke="#383380" stroke-miterlimit="10" x1="47.617" y1="43.669" x2="49.249" y2="43.669"/>
<line fill="none" stroke="#383380" stroke-miterlimit="10" x1="31.692" y1="49.657" x2="31.692" y2="47.896"/>
<line fill="none" stroke="#383380" stroke-miterlimit="10" x1="34.629" y1="49.667" x2="34.629" y2="47.906"/>
<line fill="none" stroke="#383380" stroke-miterlimit="10" x1="37.46" y1="49.601" x2="37.46" y2="47.84"/>
<line fill="none" stroke="#383380" stroke-miterlimit="10" x1="40.04" y1="49.667" x2="40.04" y2="47.906"/>
<line fill="none" stroke="#383380" stroke-miterlimit="10" x1="42.917" y1="49.601" x2="42.917" y2="47.84"/>
<line fill="none" stroke="#383380" stroke-miterlimit="10" x1="25.056" y1="32.089" x2="26.827" y2="32.089"/>
<line fill="none" stroke="#383380" stroke-miterlimit="10" x1="25.046" y1="35.026" x2="26.817" y2="35.026"/>
<line fill="none" stroke="#383380" stroke-miterlimit="10" x1="25.112" y1="37.857" x2="26.883" y2="37.857"/>
<line fill="none" stroke="#383380" stroke-miterlimit="10" x1="25.046" y1="40.437" x2="26.817" y2="40.437"/>
<line fill="none" stroke="#383380" stroke-miterlimit="10" x1="25.112" y1="43.313" x2="26.883" y2="43.313"/>
<g>
	<rect x="27.49" y="38.148" fill="none" width="19.089" height="6.651"/>
	<path fill="#383380" d="M33.724,42.9c-0.537,0-0.996-0.19-1.378-0.57c-0.38-0.383-0.57-0.842-0.57-1.379
		c0-0.538,0.19-0.998,0.57-1.378c0.382-0.383,0.842-0.573,1.378-0.573c0.442,0,0.839,0.135,1.19,0.403
		c0.069,0.055,0.11,0.126,0.123,0.213c0.011,0.09-0.011,0.17-0.065,0.24c-0.055,0.071-0.125,0.112-0.213,0.123
		c-0.089,0.011-0.169-0.01-0.24-0.063c-0.233-0.181-0.498-0.271-0.794-0.271c-0.358,0-0.665,0.128-0.92,0.382
		c-0.254,0.255-0.382,0.563-0.382,0.923c0,0.358,0.127,0.665,0.382,0.92c0.255,0.255,0.562,0.383,0.92,0.383
		c0.339,0,0.632-0.113,0.879-0.339c0.066-0.061,0.143-0.088,0.232-0.085c0.089,0.004,0.164,0.039,0.224,0.106
		c0.06,0.065,0.088,0.144,0.084,0.232c-0.003,0.089-0.038,0.164-0.104,0.224C34.667,42.731,34.228,42.9,33.724,42.9z"/>
	<path fill="#383380" d="M37.218,38.977c0.339,0,0.627,0.112,0.866,0.336c0.24,0.224,0.36,0.493,0.36,0.809
		c0,0.309-0.115,0.574-0.347,0.797c-0.229,0.22-0.507,0.336-0.835,0.347h-0.003h-0.002h-0.006c-0.02,0.002-0.031,0.002-0.033,0.002
		l-0.016-0.002h-0.8v1.313c0,0.089-0.031,0.165-0.093,0.227c-0.064,0.063-0.14,0.096-0.229,0.096c-0.089,0-0.165-0.032-0.227-0.096
		c-0.063-0.062-0.095-0.138-0.095-0.227v-3.278c0-0.089,0.032-0.164,0.095-0.227c0.062-0.063,0.138-0.096,0.227-0.096H37.218z
		 M37.237,40.62c0.154-0.004,0.286-0.054,0.396-0.15c0.109-0.098,0.164-0.215,0.164-0.349c0-0.137-0.057-0.254-0.169-0.353
		s-0.25-0.147-0.41-0.147h-0.816v0.999H37.237z"/>
	<path fill="#383380" d="M41.526,38.986c0.087,0,0.162,0.03,0.224,0.093c0.062,0.062,0.093,0.137,0.093,0.224v2.2
		c0,0.386-0.137,0.715-0.409,0.988c-0.273,0.272-0.602,0.409-0.985,0.409c-0.386,0-0.716-0.137-0.988-0.409
		c-0.273-0.273-0.409-0.603-0.409-0.988v-2.2c0-0.087,0.03-0.162,0.093-0.224c0.062-0.063,0.136-0.093,0.224-0.093
		c0.087,0,0.162,0.03,0.224,0.093c0.062,0.062,0.093,0.137,0.093,0.224v2.2c0,0.211,0.074,0.392,0.224,0.54
		c0.149,0.149,0.33,0.225,0.541,0.225c0.209,0,0.389-0.075,0.537-0.225c0.149-0.148,0.225-0.329,0.225-0.54v-2.2
		c0-0.087,0.03-0.162,0.093-0.224C41.363,39.016,41.438,38.986,41.526,38.986z"/>
</g>
<rect x="31.164" y="33.414" fill="#E2E1E1" width="11.898" height="2.961"/>
</svg>
