<?xml version="1.0" encoding="utf-8"?>
<!-- Generator: Adobe Illustrator 17.0.0, SVG Export Plug-In . SVG Version: 6.00 Build 0)  -->
<!DOCTYPE svg PUBLIC "-//W3C//DTD SVG 1.1//EN" "http://www.w3.org/Graphics/SVG/1.1/DTD/svg11.dtd">
<svg version="1.1" id="图层_1" xmlns="http://www.w3.org/2000/svg" xmlns:xlink="http://www.w3.org/1999/xlink" x="0px" y="0px"
	 width="28.333px" height="28.333px" viewBox="22.798 23.465 28.333 28.333" enable-background="new 22.798 23.465 28.333 28.333"
	 xml:space="preserve">
<path fill="#FFFFFF" stroke="#383380" stroke-miterlimit="10" d="M46.883,47.561c0,1.459-1.182,2.641-2.641,2.641H29.806
	c-1.459,0-2.641-1.182-2.641-2.641v-19.06c0-1.459,1.182-2.641,2.641-2.641h14.436c1.459,0,2.641,1.182,2.641,2.641V47.561z"/>
<rect x="29.806" y="47.508" fill="#FFFFFF" stroke="#383380" stroke-miterlimit="10" width="14.113" height="2.708"/>
<rect x="30.108" y="29.121" fill="#E1DFDF" width="13.368" height="16.072"/>
<g>
	<rect x="27.444" y="38.497" fill="none" width="19.089" height="6.651"/>
	<path fill="#383380" d="M34.621,42.083c-0.015,0.326-0.145,0.602-0.391,0.827c-0.248,0.226-0.542,0.339-0.884,0.339
		c-0.296,0-0.563-0.063-0.797-0.191c-0.282-0.152-0.461-0.375-0.538-0.666c-0.021-0.085-0.011-0.166,0.033-0.242
		c0.046-0.077,0.111-0.126,0.197-0.147c0.085-0.022,0.167-0.012,0.243,0.032c0.076,0.046,0.125,0.111,0.147,0.196
		c0.033,0.122,0.122,0.218,0.268,0.287c0.131,0.06,0.28,0.09,0.448,0.09c0.171,0,0.317-0.054,0.439-0.161
		c0.124-0.105,0.189-0.236,0.197-0.393c0.003-0.095-0.03-0.18-0.101-0.254c-0.113-0.12-0.302-0.183-0.568-0.186h-0.003
		c-0.007,0-0.009,0-0.005,0c-0.002,0-0.003,0-0.005,0c-0.446-0.008-0.787-0.136-1.023-0.385c-0.195-0.208-0.286-0.449-0.273-0.724
		c0.014-0.328,0.145-0.604,0.39-0.83s0.541-0.338,0.884-0.338c0.297,0,0.563,0.063,0.797,0.19c0.282,0.153,0.461,0.375,0.538,0.666
		c0.022,0.086,0.01,0.167-0.036,0.243c-0.043,0.076-0.108,0.126-0.194,0.147c-0.085,0.021-0.167,0.011-0.243-0.033
		c-0.077-0.045-0.125-0.11-0.147-0.196c-0.033-0.122-0.123-0.218-0.27-0.286c-0.129-0.061-0.278-0.091-0.445-0.091
		c-0.171,0-0.318,0.054-0.442,0.161c-0.122,0.107-0.187,0.238-0.194,0.394c-0.004,0.095,0.03,0.18,0.101,0.257
		c0.113,0.118,0.302,0.179,0.567,0.183h0.014c0.446,0.007,0.787,0.137,1.024,0.388C34.543,41.566,34.634,41.807,34.621,42.083z"/>
	<path fill="#383380" d="M37.826,42.083c-0.015,0.326-0.145,0.602-0.391,0.827c-0.248,0.226-0.542,0.339-0.884,0.339
		c-0.296,0-0.563-0.063-0.797-0.191c-0.282-0.152-0.461-0.375-0.538-0.666c-0.021-0.085-0.011-0.166,0.033-0.242
		c0.046-0.077,0.111-0.126,0.197-0.147c0.085-0.022,0.167-0.012,0.243,0.032c0.076,0.046,0.125,0.111,0.147,0.196
		c0.033,0.122,0.122,0.218,0.268,0.287c0.131,0.06,0.28,0.09,0.448,0.09c0.171,0,0.317-0.054,0.439-0.161
		c0.124-0.105,0.189-0.236,0.197-0.393c0.003-0.095-0.03-0.18-0.101-0.254c-0.113-0.12-0.302-0.183-0.568-0.186h-0.003
		c-0.007,0-0.009,0-0.005,0c-0.002,0-0.003,0-0.005,0c-0.446-0.008-0.787-0.136-1.023-0.385c-0.195-0.208-0.286-0.449-0.273-0.724
		c0.014-0.328,0.145-0.604,0.39-0.83s0.541-0.338,0.884-0.338c0.297,0,0.563,0.063,0.797,0.19c0.282,0.153,0.461,0.375,0.538,0.666
		c0.022,0.086,0.01,0.167-0.036,0.243c-0.043,0.076-0.108,0.126-0.194,0.147c-0.085,0.021-0.167,0.011-0.243-0.033
		c-0.077-0.045-0.125-0.11-0.147-0.196c-0.033-0.122-0.123-0.218-0.27-0.286c-0.129-0.061-0.278-0.091-0.445-0.091
		c-0.171,0-0.318,0.054-0.442,0.161c-0.122,0.107-0.187,0.238-0.194,0.394c-0.004,0.095,0.03,0.18,0.101,0.257
		c0.113,0.118,0.302,0.179,0.567,0.183h0.014c0.446,0.007,0.787,0.137,1.024,0.388C37.747,41.566,37.839,41.807,37.826,42.083z"/>
	<path fill="#383380" d="M38.876,43.249c-0.087,0-0.163-0.031-0.227-0.093c-0.063-0.063-0.096-0.141-0.096-0.229v-3.268
		c0-0.089,0.032-0.165,0.096-0.229c0.063-0.063,0.138-0.093,0.227-0.093h0.827c0.539,0,0.999,0.189,1.382,0.57
		c0.38,0.382,0.57,0.842,0.57,1.378c0,0.539-0.19,0.998-0.57,1.379c-0.383,0.382-0.843,0.573-1.382,0.573l-0.821,0.011H38.876z
		 M39.201,42.6l0.499-0.009c0.362,0,0.671-0.127,0.926-0.382s0.382-0.563,0.382-0.923c0-0.358-0.127-0.665-0.382-0.92
		c-0.255-0.256-0.563-0.385-0.923-0.385h-0.502V42.6z"/>
</g>
<circle fill="#FFFFFF" stroke="#3D3588" stroke-miterlimit="10" cx="32.565" cy="31.683" r="1.438"/>
<circle fill="#FFFFFF" stroke="#3D3588" stroke-miterlimit="10" cx="40.931" cy="31.683" r="1.438"/>
</svg>
