<?xml version="1.0" encoding="utf-8"?>
<!-- Generator: Adobe Illustrator 17.0.0, SVG Export Plug-In . SVG Version: 6.00 Build 0)  -->
<!DOCTYPE svg PUBLIC "-//W3C//DTD SVG 1.1//EN" "http://www.w3.org/Graphics/SVG/1.1/DTD/svg11.dtd">
<svg version="1.1" id="图层_1" xmlns="http://www.w3.org/2000/svg" xmlns:xlink="http://www.w3.org/1999/xlink" x="0px" y="0px"
	 width="28.333px" height="28.333px" viewBox="22.798 23.465 28.333 28.333" enable-background="new 22.798 23.465 28.333 28.333"
	 xml:space="preserve">
<path fill="#FFFFFF" stroke="#383380" stroke-miterlimit="10" d="M46.477,47.026c0,1.459-1.182,2.641-2.641,2.641H29.401
	c-1.459,0-2.641-1.182-2.641-2.641v-19.06c0-1.459,1.182-2.641,2.641-2.641h14.436c1.459,0,2.641,1.182,2.641,2.641V47.026z"/>
<rect x="46.564" y="28.233" fill="#FFFFFF" stroke="#3D3588" stroke-miterlimit="10" width="1.921" height="6.027"/>
<rect x="46.564" y="36.745" fill="#FFFFFF" stroke="#3D3588" stroke-miterlimit="10" width="1.921" height="10.648"/>
<rect x="30.145" y="29.014" fill="#E2E1E1" width="13.276" height="2.961"/>
<rect x="30.145" y="33.546" fill="#E2E1E1" width="13.276" height="2.961"/>
<rect x="29.98" y="37.902" fill="#E2E1E1" width="13.276" height="2.961"/>
<g>
	<rect x="18.437" y="42.605" fill="none" width="36.362" height="8.048"/>
	<path fill="#383380" d="M34.425,43.355c0.062,0.018,0.112,0.053,0.151,0.104c0.039,0.051,0.059,0.108,0.059,0.174v2.935
		c0,0.08-0.028,0.147-0.083,0.202c-0.057,0.058-0.125,0.086-0.205,0.086s-0.148-0.028-0.205-0.086
		c-0.055-0.055-0.083-0.122-0.083-0.202v-1.899l-0.911,1.504v0.002l-0.002,0.003l-0.002,0.003l-0.002,0.002
		c-0.005,0.008-0.008,0.014-0.01,0.018l-0.007,0.01c-0.006,0.006-0.011,0.01-0.012,0.012s-0.005,0.005-0.01,0.01
		s-0.008,0.008-0.01,0.01c-0.003,0.003-0.008,0.008-0.015,0.012L33.07,46.26c-0.005,0.003-0.011,0.007-0.017,0.01
		c0,0.002-0.001,0.002-0.002,0.002l-0.002,0.003h-0.002c-0.003,0.003-0.009,0.007-0.017,0.01c-0.006,0.003-0.009,0.005-0.007,0.005
		c-0.001,0-0.006,0.002-0.015,0.005c-0.038,0.017-0.077,0.023-0.117,0.022h-0.005c0.003,0,0-0.001-0.01-0.003
		c-0.021-0.002-0.042-0.006-0.063-0.013c-0.008-0.001-0.011-0.002-0.01-0.002c0.003,0.002,0,0.001-0.01-0.002
		c-0.008-0.004-0.014-0.006-0.017-0.008c0.001,0,0-0.002-0.005-0.005c-0.008-0.003-0.015-0.007-0.02-0.01h-0.002l-0.002-0.003
		l-0.002-0.002c-0.006-0.003-0.012-0.008-0.017-0.012c0,0.001-0.002,0-0.007-0.006c-0.006-0.004-0.011-0.009-0.015-0.012
		c-0.001-0.002-0.005-0.005-0.01-0.01s-0.008-0.008-0.01-0.01c-0.001-0.003-0.006-0.008-0.012-0.012
		c-0.003-0.006-0.005-0.009-0.005-0.01c-0.003-0.004-0.007-0.01-0.012-0.018l-0.002-0.002c0-0.002-0.001-0.003-0.002-0.003v-0.003
		c0-0.001-0.001-0.002-0.002-0.002l-0.908-1.504v1.899c0,0.08-0.028,0.147-0.085,0.202c-0.057,0.058-0.125,0.086-0.205,0.086
		s-0.147-0.028-0.203-0.086c-0.057-0.055-0.085-0.122-0.085-0.202v-2.935c0-0.065,0.02-0.123,0.059-0.174
		c0.039-0.052,0.09-0.087,0.154-0.104c0.062-0.017,0.123-0.013,0.183,0.01c0.06,0.024,0.107,0.064,0.142,0.12l1.201,1.984
		l1.201-1.984c0.033-0.056,0.079-0.096,0.139-0.12c0.06-0.022,0.09-0.034,0.09-0.034S34.361,43.338,34.425,43.355z"/>
	<path fill="#383380" d="M37.508,46.277c0.08,0,0.147,0.028,0.203,0.085c0.057,0.057,0.085,0.125,0.085,0.205
		s-0.028,0.147-0.085,0.202c-0.055,0.058-0.123,0.086-0.203,0.086h-1.768c-0.08,0-0.147-0.028-0.203-0.086
		c-0.057-0.055-0.085-0.122-0.085-0.202v-2.927c0-0.082,0.028-0.15,0.085-0.205c0.055-0.058,0.123-0.086,0.203-0.086h0.002
		l1.765,0.005c0.08,0,0.148,0.028,0.205,0.085c0.055,0.058,0.083,0.126,0.083,0.205c0,0.08-0.028,0.147-0.085,0.203
		c-0.055,0.057-0.123,0.086-0.203,0.086h-0.002l-1.475-0.006v0.887h1.064c0.08,0,0.148,0.027,0.205,0.083
		c0.057,0.057,0.085,0.125,0.085,0.205s-0.028,0.148-0.085,0.205c-0.057,0.056-0.125,0.083-0.205,0.083h-1.064v0.887H37.508z"/>
	<path fill="#383380" d="M41.606,43.355c0.062,0.018,0.112,0.053,0.151,0.104c0.039,0.051,0.059,0.108,0.059,0.174v2.935
		c0,0.08-0.028,0.147-0.083,0.202c-0.058,0.058-0.126,0.086-0.205,0.086c-0.08,0-0.148-0.028-0.205-0.086
		c-0.056-0.055-0.083-0.122-0.083-0.202v-1.899l-0.911,1.504v0.002l-0.002,0.003l-0.003,0.003l-0.002,0.002
		c-0.005,0.008-0.009,0.014-0.01,0.018l-0.008,0.01c-0.006,0.006-0.011,0.01-0.012,0.012c-0.002,0.002-0.005,0.005-0.01,0.01
		s-0.009,0.008-0.01,0.01c-0.004,0.003-0.009,0.008-0.015,0.012L40.25,46.26c-0.005,0.003-0.011,0.007-0.017,0.01
		c0,0.002-0.001,0.002-0.003,0.002l-0.002,0.003h-0.003c-0.003,0.003-0.009,0.007-0.017,0.01c-0.007,0.003-0.009,0.005-0.008,0.005
		c-0.001,0-0.006,0.002-0.015,0.005c-0.037,0.017-0.076,0.023-0.117,0.022h-0.005c0.004,0,0-0.001-0.01-0.003
		c-0.021-0.002-0.042-0.006-0.063-0.013c-0.008-0.001-0.011-0.002-0.01-0.002c0.004,0.002,0,0.001-0.01-0.002
		c-0.008-0.004-0.014-0.006-0.017-0.008c0.001,0,0-0.002-0.005-0.005c-0.009-0.003-0.015-0.007-0.02-0.01h-0.003l-0.002-0.003
		l-0.003-0.002c-0.006-0.003-0.012-0.008-0.017-0.012c0,0.001-0.003,0-0.008-0.006c-0.006-0.004-0.011-0.009-0.015-0.012
		c-0.001-0.002-0.005-0.005-0.01-0.01s-0.008-0.008-0.01-0.01c-0.001-0.003-0.006-0.008-0.012-0.012
		c-0.004-0.006-0.005-0.009-0.005-0.01c-0.004-0.004-0.008-0.01-0.013-0.018l-0.002-0.002c0-0.002-0.001-0.003-0.003-0.003v-0.003
		c0-0.001-0.001-0.002-0.002-0.002l-0.908-1.504v1.899c0,0.08-0.028,0.147-0.086,0.202c-0.057,0.058-0.125,0.086-0.205,0.086
		c-0.079,0-0.147-0.028-0.203-0.086c-0.057-0.055-0.085-0.122-0.085-0.202v-2.935c0-0.065,0.02-0.123,0.059-0.174
		c0.039-0.052,0.091-0.087,0.154-0.104c0.062-0.017,0.123-0.013,0.183,0.01c0.061,0.024,0.107,0.064,0.142,0.12l1.201,1.984
		l1.201-1.984c0.033-0.056,0.079-0.096,0.14-0.12c0.06-0.022,0.09-0.034,0.09-0.034S41.542,43.338,41.606,43.355z"/>
</g>
</svg>
