<?xml version="1.0" encoding="utf-8"?>
<!-- Generator: Adobe Illustrator 17.0.0, SVG Export Plug-In . SVG Version: 6.00 Build 0)  -->
<!DOCTYPE svg PUBLIC "-//W3C//DTD SVG 1.1//EN" "http://www.w3.org/Graphics/SVG/1.1/DTD/svg11.dtd">
<svg version="1.1" id="图层_1" xmlns="http://www.w3.org/2000/svg" xmlns:xlink="http://www.w3.org/1999/xlink" x="0px" y="0px"
	 width="28.333px" height="28.333px" viewBox="22.798 23.465 28.333 28.333" enable-background="new 22.798 23.465 28.333 28.333"
	 xml:space="preserve">
<circle fill="#FFFFFF" stroke="#3D3588" stroke-miterlimit="10" cx="36.546" cy="38.205" r="11.88"/>
<circle fill="#F4F4F4" stroke="#3D3588" stroke-miterlimit="10" stroke-dasharray="2" cx="36.546" cy="38.234" r="9.357"/>
<g>
	<path fill="#34317A" d="M36.644,32.655c1.012,0,1.946,0.249,2.801,0.748c0.855,0.499,1.532,1.176,2.031,2.031
		s0.748,1.788,0.748,2.801c0,1.012-0.249,1.946-0.748,2.801c-0.499,0.855-1.176,1.532-2.031,2.031
		c-0.855,0.499-1.788,0.748-2.801,0.748s-1.946-0.249-2.801-0.748c-0.855-0.499-1.532-1.176-2.031-2.031
		c-0.499-0.855-0.748-1.788-0.748-2.801c0-1.012,0.249-1.946,0.748-2.801c0.499-0.855,1.176-1.532,2.031-2.031
		C34.698,32.904,35.632,32.655,36.644,32.655z M38.635,36.44c-0.01,0.005-0.033,0.028-0.069,0.069
		c-0.036,0.041-0.069,0.064-0.098,0.069c0.01,0,0.021-0.012,0.033-0.036c0.012-0.024,0.024-0.051,0.036-0.08
		s0.021-0.046,0.025-0.051c0.029-0.034,0.082-0.07,0.16-0.109c0.068-0.029,0.194-0.058,0.378-0.087
		c0.165-0.039,0.288-0.012,0.371,0.08c-0.01-0.01,0.013-0.041,0.069-0.094c0.056-0.053,0.091-0.082,0.105-0.087
		c0.015-0.01,0.051-0.021,0.109-0.033s0.094-0.03,0.109-0.054l0.015-0.16c-0.058,0.005-0.1-0.012-0.127-0.051
		c-0.027-0.039-0.042-0.09-0.047-0.153c0,0.01-0.015,0.029-0.044,0.058c0-0.034-0.011-0.053-0.033-0.058
		c-0.022-0.005-0.05-0.002-0.084,0.007c-0.034,0.01-0.056,0.012-0.065,0.007c-0.048-0.015-0.085-0.033-0.109-0.054
		c-0.024-0.022-0.044-0.062-0.058-0.12c-0.015-0.058-0.024-0.094-0.029-0.109c-0.01-0.024-0.033-0.05-0.069-0.076
		c-0.036-0.027-0.059-0.052-0.069-0.076c-0.005-0.01-0.011-0.023-0.018-0.04c-0.007-0.017-0.015-0.033-0.022-0.047
		c-0.007-0.015-0.017-0.028-0.029-0.04c-0.012-0.012-0.025-0.018-0.04-0.018s-0.031,0.012-0.051,0.036
		c-0.019,0.024-0.038,0.048-0.054,0.073c-0.017,0.024-0.028,0.036-0.033,0.036c-0.015-0.01-0.029-0.013-0.044-0.011
		s-0.025,0.005-0.033,0.007c-0.007,0.002-0.018,0.01-0.033,0.022s-0.027,0.021-0.036,0.025c-0.015,0.01-0.035,0.017-0.062,0.022
		s-0.047,0.01-0.062,0.015c0.073-0.024,0.07-0.051-0.007-0.08c-0.048-0.019-0.087-0.027-0.116-0.022
		c0.044-0.019,0.062-0.048,0.054-0.087c-0.007-0.039-0.028-0.073-0.062-0.102h0.036c-0.005-0.019-0.025-0.04-0.062-0.062
		c-0.036-0.022-0.079-0.042-0.127-0.062c-0.048-0.019-0.08-0.034-0.094-0.044c-0.039-0.024-0.121-0.047-0.247-0.069
		c-0.126-0.022-0.206-0.023-0.24-0.004c-0.024,0.029-0.035,0.054-0.033,0.076c0.002,0.022,0.012,0.056,0.029,0.102
		s0.025,0.076,0.025,0.091c0.005,0.029-0.008,0.061-0.04,0.094c-0.031,0.034-0.047,0.063-0.047,0.087
		c0,0.034,0.034,0.071,0.102,0.113c0.068,0.041,0.092,0.093,0.073,0.156c-0.015,0.039-0.053,0.077-0.116,0.116
		c-0.063,0.039-0.102,0.068-0.116,0.087c-0.024,0.039-0.028,0.084-0.011,0.134c0.017,0.051,0.042,0.091,0.076,0.12
		c0.01,0.01,0.013,0.019,0.011,0.029c-0.002,0.01-0.011,0.021-0.025,0.033c-0.015,0.012-0.028,0.022-0.04,0.029
		c-0.012,0.007-0.028,0.016-0.047,0.025l-0.022,0.015c-0.053,0.024-0.103,0.01-0.149-0.044c-0.046-0.053-0.079-0.116-0.098-0.189
		c-0.034-0.121-0.073-0.194-0.116-0.218c-0.111-0.039-0.182-0.036-0.211,0.007c-0.024-0.063-0.124-0.126-0.298-0.189
		c-0.121-0.044-0.262-0.053-0.421-0.029c0.029-0.005,0.029-0.041,0-0.109c-0.034-0.073-0.08-0.102-0.138-0.087
		c0.015-0.029,0.024-0.071,0.029-0.127c0.005-0.056,0.007-0.088,0.007-0.098c0.015-0.063,0.044-0.119,0.087-0.167
		c0.005-0.005,0.022-0.025,0.051-0.062c0.029-0.036,0.052-0.069,0.069-0.098s0.018-0.044,0.004-0.044
		c0.17,0.019,0.291-0.007,0.363-0.08c0.024-0.024,0.052-0.065,0.084-0.124s0.057-0.099,0.076-0.124
		c0.044-0.029,0.077-0.042,0.102-0.04c0.024,0.002,0.059,0.016,0.105,0.04c0.046,0.024,0.081,0.036,0.105,0.036
		c0.068,0.005,0.105-0.022,0.113-0.08c0.007-0.058-0.011-0.107-0.054-0.145c0.058,0.005,0.065-0.036,0.022-0.124
		c-0.024-0.034-0.044-0.056-0.058-0.065c-0.058-0.019-0.124-0.007-0.196,0.036c-0.039,0.019-0.034,0.039,0.015,0.058
		c-0.005-0.005-0.028,0.021-0.069,0.076s-0.081,0.098-0.12,0.127c-0.039,0.029-0.077,0.017-0.116-0.036
		c-0.005-0.005-0.018-0.038-0.04-0.098c-0.022-0.061-0.045-0.093-0.069-0.098c-0.039,0-0.077,0.036-0.116,0.109
		c0.015-0.039-0.012-0.075-0.08-0.109c-0.068-0.034-0.126-0.053-0.174-0.058c0.092-0.058,0.073-0.124-0.058-0.196
		c-0.034-0.019-0.084-0.031-0.149-0.036c-0.065-0.005-0.113,0.005-0.142,0.029c-0.024,0.034-0.038,0.062-0.04,0.084
		c-0.002,0.022,0.01,0.041,0.036,0.058c0.027,0.017,0.052,0.03,0.076,0.04c0.024,0.01,0.052,0.019,0.084,0.029
		c0.031,0.01,0.052,0.017,0.062,0.022c0.068,0.048,0.087,0.082,0.058,0.102c-0.01,0.005-0.03,0.013-0.062,0.025
		c-0.031,0.012-0.059,0.023-0.084,0.033c-0.024,0.01-0.039,0.019-0.044,0.029c-0.015,0.019-0.015,0.053,0,0.102
		s0.01,0.082-0.015,0.102c-0.024-0.024-0.046-0.067-0.065-0.127c-0.019-0.061-0.036-0.1-0.051-0.12
		c0.034,0.044-0.027,0.058-0.182,0.044l-0.073-0.007c-0.019,0-0.058,0.005-0.116,0.015s-0.108,0.012-0.149,0.007
		c-0.041-0.005-0.074-0.024-0.098-0.058c-0.019-0.039-0.019-0.087,0-0.145c0.005-0.019,0.015-0.024,0.029-0.015
		c-0.019-0.015-0.046-0.038-0.08-0.069c-0.034-0.031-0.058-0.052-0.073-0.062c-0.223,0.073-0.45,0.172-0.683,0.298
		c0.029,0.005,0.058,0.002,0.087-0.007c0.024-0.01,0.056-0.025,0.094-0.047c0.039-0.022,0.063-0.035,0.073-0.04
		c0.165-0.068,0.266-0.085,0.305-0.051l0.036-0.036c0.068,0.077,0.116,0.138,0.145,0.182c-0.034-0.019-0.107-0.022-0.218-0.007
		c-0.097,0.029-0.15,0.058-0.16,0.087c0.034,0.058,0.046,0.102,0.036,0.131c-0.019-0.015-0.047-0.039-0.084-0.073
		c-0.036-0.034-0.071-0.061-0.105-0.08c-0.034-0.019-0.07-0.031-0.109-0.036c-0.077,0-0.131,0.002-0.16,0.007
		c-0.707,0.387-1.276,0.925-1.707,1.613c0.034,0.034,0.063,0.053,0.087,0.058c0.019,0.005,0.031,0.027,0.036,0.065
		c0.005,0.039,0.011,0.065,0.018,0.08c0.007,0.015,0.035,0.007,0.084-0.022c0.044,0.039,0.051,0.085,0.022,0.138
		c0.005-0.005,0.111,0.061,0.32,0.196c0.092,0.082,0.143,0.133,0.153,0.153c0.015,0.053-0.01,0.097-0.073,0.131
		c-0.005-0.01-0.027-0.031-0.065-0.065s-0.061-0.044-0.065-0.029c-0.015,0.024-0.013,0.069,0.004,0.134s0.042,0.096,0.076,0.091
		c-0.034,0-0.057,0.039-0.069,0.116c-0.012,0.077-0.018,0.163-0.018,0.258s-0.002,0.151-0.007,0.171l0.015,0.007
		c-0.015,0.058-0.001,0.142,0.04,0.251s0.093,0.156,0.156,0.142c-0.063,0.015-0.015,0.119,0.145,0.312
		c0.029,0.039,0.048,0.061,0.058,0.065c0.015,0.01,0.044,0.028,0.087,0.054s0.08,0.051,0.109,0.073s0.053,0.047,0.073,0.076
		c0.019,0.024,0.044,0.079,0.073,0.163c0.029,0.085,0.063,0.142,0.102,0.171c-0.01,0.029,0.013,0.077,0.069,0.145
		c0.056,0.068,0.081,0.124,0.076,0.167c-0.005,0-0.011,0.002-0.018,0.007c-0.007,0.005-0.013,0.007-0.018,0.007
		c0.015,0.034,0.052,0.068,0.113,0.102c0.061,0.034,0.098,0.065,0.113,0.094c0.005,0.015,0.01,0.039,0.015,0.073
		c0.005,0.034,0.012,0.061,0.022,0.08c0.01,0.019,0.029,0.024,0.058,0.015c0.01-0.097-0.048-0.247-0.174-0.45
		c-0.073-0.121-0.114-0.191-0.124-0.211c-0.015-0.024-0.028-0.062-0.04-0.113s-0.023-0.086-0.033-0.105
		c0.01,0,0.024,0.004,0.044,0.011c0.019,0.007,0.04,0.016,0.062,0.025c0.022,0.01,0.04,0.019,0.054,0.029
		c0.015,0.01,0.019,0.017,0.015,0.022c-0.015,0.034-0.01,0.076,0.015,0.127s0.053,0.096,0.087,0.134
		c0.034,0.039,0.075,0.085,0.124,0.138c0.048,0.053,0.077,0.085,0.087,0.094c0.029,0.029,0.063,0.076,0.102,0.142
		s0.039,0.098,0,0.098c0.044,0,0.092,0.024,0.145,0.073c0.053,0.048,0.094,0.097,0.124,0.145c0.024,0.039,0.044,0.102,0.058,0.189
		c0.015,0.087,0.027,0.145,0.036,0.174c0.01,0.034,0.03,0.067,0.062,0.098s0.062,0.054,0.091,0.069L35.344,40l0.094,0.051
		c0.024,0.01,0.069,0.035,0.134,0.076s0.117,0.069,0.156,0.084c0.048,0.019,0.087,0.029,0.116,0.029
		c0.029,0,0.064-0.006,0.105-0.018s0.074-0.021,0.098-0.025c0.073-0.01,0.143,0.027,0.211,0.109s0.119,0.133,0.153,0.153
		c0.174,0.092,0.308,0.119,0.4,0.08c-0.01,0.005-0.008,0.023,0.004,0.054s0.031,0.069,0.058,0.113
		c0.027,0.044,0.048,0.079,0.065,0.105s0.03,0.047,0.04,0.062c0.024,0.029,0.068,0.065,0.131,0.109s0.107,0.08,0.131,0.109
		c0.029-0.019,0.046-0.041,0.051-0.065c-0.015,0.039,0.002,0.087,0.051,0.145c0.048,0.058,0.092,0.082,0.131,0.073
		c0.068-0.015,0.102-0.092,0.102-0.232c-0.15,0.073-0.269,0.029-0.356-0.131c0-0.005-0.006-0.018-0.018-0.04
		s-0.022-0.042-0.029-0.062c-0.007-0.019-0.013-0.04-0.018-0.062c-0.005-0.022-0.005-0.04,0-0.054
		c0.005-0.015,0.017-0.022,0.036-0.022c0.044,0,0.068-0.008,0.073-0.025c0.005-0.017,0-0.047-0.015-0.091
		c-0.015-0.044-0.024-0.075-0.029-0.094c-0.005-0.039-0.031-0.087-0.08-0.145c-0.048-0.058-0.077-0.094-0.087-0.109
		c-0.024,0.044-0.063,0.063-0.116,0.058c-0.053-0.005-0.092-0.027-0.116-0.065c0,0.005-0.004,0.018-0.011,0.04
		c-0.007,0.022-0.011,0.038-0.011,0.047c-0.063,0-0.099-0.002-0.109-0.007c0.005-0.015,0.011-0.057,0.018-0.127
		c0.007-0.07,0.016-0.125,0.025-0.163c0.005-0.019,0.018-0.048,0.04-0.087c0.022-0.039,0.04-0.074,0.054-0.105
		s0.024-0.062,0.029-0.091c0.005-0.029-0.006-0.052-0.033-0.069c-0.027-0.017-0.069-0.023-0.127-0.018
		c-0.092,0.005-0.155,0.053-0.189,0.145c-0.005,0.015-0.012,0.04-0.022,0.076c-0.01,0.036-0.022,0.064-0.036,0.084
		c-0.015,0.019-0.036,0.036-0.065,0.051c-0.034,0.015-0.092,0.019-0.174,0.015c-0.082-0.005-0.14-0.017-0.174-0.036
		c-0.063-0.039-0.117-0.109-0.163-0.211c-0.046-0.102-0.069-0.191-0.069-0.269c0-0.048,0.006-0.113,0.018-0.193
		c0.012-0.08,0.019-0.14,0.022-0.182c0.002-0.041-0.011-0.1-0.04-0.178c0.015-0.01,0.036-0.033,0.065-0.069s0.053-0.062,0.073-0.076
		c0.01-0.005,0.021-0.008,0.033-0.011c0.012-0.002,0.023-0.002,0.033,0c0.01,0.002,0.019-0.001,0.029-0.011
		c0.01-0.01,0.017-0.024,0.022-0.044c-0.005-0.005-0.015-0.012-0.029-0.022c-0.015-0.015-0.024-0.022-0.029-0.022
		c0.034,0.015,0.103,0.011,0.207-0.011c0.104-0.022,0.171-0.018,0.2,0.011c0.073,0.053,0.126,0.048,0.16-0.015
		c0-0.005-0.006-0.028-0.018-0.069s-0.013-0.074-0.004-0.098c0.024,0.131,0.094,0.153,0.211,0.065
		c0.015,0.015,0.052,0.027,0.113,0.036c0.061,0.01,0.103,0.022,0.127,0.036c0.015,0.01,0.031,0.023,0.051,0.04
		c0.019,0.017,0.033,0.028,0.04,0.033c0.007,0.005,0.019,0.004,0.036-0.004c0.017-0.007,0.038-0.023,0.062-0.047
		c0.048,0.068,0.077,0.126,0.087,0.174c0.053,0.194,0.099,0.3,0.138,0.32c0.034,0.015,0.061,0.019,0.08,0.015
		c0.019-0.005,0.03-0.028,0.033-0.069c0.002-0.041,0.002-0.075,0-0.102c-0.002-0.027-0.006-0.057-0.011-0.091l-0.007-0.058V38.67
		l-0.007-0.058c-0.073-0.015-0.117-0.044-0.134-0.087s-0.013-0.088,0.011-0.134c0.024-0.046,0.061-0.091,0.109-0.134
		c0.005-0.005,0.024-0.013,0.058-0.025c0.034-0.012,0.071-0.028,0.113-0.047s0.071-0.039,0.091-0.058
		c0.102-0.092,0.138-0.177,0.109-0.254c0.034,0,0.061-0.022,0.08-0.065c-0.005,0-0.017-0.007-0.036-0.022
		c-0.019-0.015-0.038-0.027-0.054-0.036s-0.028-0.015-0.033-0.015c0.044-0.024,0.048-0.063,0.015-0.116
		c0.024-0.015,0.042-0.041,0.054-0.08c0.012-0.039,0.03-0.063,0.054-0.073c0.044,0.058,0.094,0.063,0.153,0.015
		c0.034-0.039,0.036-0.077,0.007-0.116c0.024-0.034,0.074-0.059,0.149-0.076c0.075-0.017,0.12-0.04,0.134-0.069
		c0.034,0.01,0.053,0.005,0.058-0.015c0.005-0.019,0.007-0.048,0.007-0.087s0.007-0.068,0.022-0.087
		c0.019-0.024,0.056-0.046,0.109-0.065c0.053-0.019,0.085-0.031,0.094-0.036l0.124-0.08c0.015-0.019,0.015-0.029,0-0.029
		c0.087,0.01,0.162-0.017,0.225-0.08c0.048-0.053,0.034-0.102-0.044-0.145c0.015-0.029,0.007-0.052-0.022-0.069
		s-0.065-0.03-0.109-0.04c0.015-0.005,0.042-0.006,0.084-0.004c0.041,0.002,0.067-0.001,0.076-0.011
		c0.073-0.048,0.056-0.087-0.051-0.116C38.865,36.329,38.761,36.358,38.635,36.44z M37.451,42.811
		c0.998-0.174,1.848-0.632,2.55-1.373c-0.015-0.015-0.045-0.025-0.091-0.033c-0.046-0.007-0.076-0.016-0.091-0.025
		c-0.087-0.034-0.145-0.053-0.174-0.058c0.005-0.034-0.001-0.065-0.018-0.094s-0.036-0.051-0.058-0.065
		c-0.022-0.015-0.052-0.034-0.091-0.058c-0.039-0.024-0.065-0.041-0.08-0.051c-0.01-0.01-0.027-0.024-0.051-0.044
		c-0.024-0.019-0.041-0.033-0.051-0.04c-0.01-0.007-0.028-0.018-0.054-0.033s-0.047-0.019-0.062-0.015
		c-0.015,0.005-0.039,0.007-0.073,0.007l-0.022,0.007c-0.015,0.005-0.028,0.011-0.04,0.018c-0.012,0.007-0.025,0.015-0.04,0.022
		c-0.015,0.007-0.024,0.015-0.029,0.022c-0.005,0.007-0.005,0.013,0,0.018c-0.102-0.082-0.189-0.136-0.262-0.16
		c-0.024-0.005-0.051-0.018-0.08-0.04c-0.029-0.022-0.054-0.039-0.076-0.051c-0.022-0.012-0.046-0.016-0.073-0.011
		c-0.027,0.005-0.054,0.022-0.084,0.051c-0.024,0.024-0.039,0.061-0.044,0.109c-0.005,0.048-0.01,0.08-0.015,0.094
		c-0.034-0.024-0.034-0.067,0-0.127c0.034-0.061,0.039-0.105,0.015-0.134c-0.015-0.029-0.04-0.04-0.076-0.033
		c-0.036,0.007-0.065,0.018-0.087,0.033c-0.022,0.015-0.05,0.035-0.084,0.062c-0.034,0.027-0.056,0.042-0.065,0.047
		c-0.01,0.005-0.03,0.018-0.062,0.04c-0.031,0.022-0.052,0.04-0.062,0.054c-0.015,0.019-0.029,0.048-0.044,0.087
		c-0.015,0.039-0.027,0.065-0.036,0.08c-0.01-0.019-0.038-0.035-0.084-0.047s-0.069-0.025-0.069-0.04
		c0.01,0.048,0.019,0.133,0.029,0.254c0.01,0.121,0.022,0.213,0.036,0.276c0.034,0.15,0.005,0.266-0.087,0.349
		c-0.131,0.121-0.201,0.218-0.211,0.291c-0.019,0.107,0.01,0.17,0.087,0.189c0,0.034-0.019,0.084-0.058,0.149
		c-0.039,0.065-0.056,0.117-0.051,0.156C37.436,42.724,37.441,42.763,37.451,42.811z"/>
</g>
</svg>
