<?xml version="1.0" encoding="utf-8"?>
<!-- Generator: Adobe Illustrator 16.0.0, SVG Export Plug-In . SVG Version: 6.00 Build 0)  -->
<!DOCTYPE svg PUBLIC "-//W3C//DTD SVG 1.1//EN" "http://www.w3.org/Graphics/SVG/1.1/DTD/svg11.dtd">
<svg version="1.1" id="图层_1" xmlns="http://www.w3.org/2000/svg" xmlns:xlink="http://www.w3.org/1999/xlink" x="0px" y="0px"
	 width="75.93px" height="75.93px" viewBox="0 0 75.93 75.93" enable-background="new 0 0 75.93 75.93" xml:space="preserve">
<path fill="#F4F4F4" d="M69.035,19.367c1.639,0.818,1.639,2.147,0,2.966L40.949,36.376c-1.637,0.82-4.295,0.82-5.933,0L6.931,22.333
	c-1.64-0.818-1.64-2.147,0-2.966L35.016,5.324c1.637-0.82,4.296-0.82,5.933,0L69.035,19.367z"/>
<path fill="none" stroke="#3D3689" stroke-width="2" stroke-miterlimit="10" d="M69.035,19.367c1.639,0.818,1.639,2.147,0,2.966
	L40.949,36.376c-1.637,0.82-4.295,0.82-5.933,0L6.931,22.333c-1.64-0.818-1.64-2.147,0-2.966L35.016,5.324
	c1.637-0.82,4.296-0.82,5.933,0L69.035,19.367z"/>
<path fill="#3D3689" d="M69.518,56.015c-0.014,0.054-0.15,0.261-0.608,0.489L40.823,70.547c-1.264,0.633-3.676,0.633-4.94,0
	L7.797,56.504c-0.471-0.235-0.606-0.453-0.616-0.481c0-0.002,0.004-0.006,0.004-0.008H4.962c0,0.581,0.239,1.675,1.842,2.478
	L34.89,72.533c0.943,0.474,2.174,0.733,3.463,0.733c1.291,0,2.519-0.26,3.465-0.733l28.082-14.041
	c1.604-0.803,1.843-1.896,1.843-2.478H69.518z"/>
<line fill="none" stroke="#3D3689" stroke-width="2" stroke-miterlimit="10" x1="5.701" y1="56.756" x2="5.701" y2="21.59"/>
<line fill="none" stroke="#3D3689" stroke-width="2" stroke-miterlimit="10" x1="70.264" y1="56.055" x2="70.264" y2="20.889"/>
<line fill="none" stroke="#3D3689" stroke-width="2" stroke-miterlimit="10" x1="37.982" y1="36.991" x2="37.982" y2="73.265"/>
<ellipse fill="none" stroke="#383381" stroke-miterlimit="10" cx="26.401" cy="21.338" rx="7.237" ry="3.623"/>
<ellipse fill="none" stroke="#383381" stroke-miterlimit="10" cx="47.224" cy="21.338" rx="7.237" ry="3.623"/>
<polygon fill="none" stroke="#383381" stroke-miterlimit="10" points="13.75,49.828 19.702,42.422 25.655,55.634 "/>
</svg>
