<?xml version="1.0" encoding="utf-8"?>
<!-- Generator: Adobe Illustrator 16.0.0, SVG Export Plug-In . SVG Version: 6.00 Build 0)  -->
<!DOCTYPE svg PUBLIC "-//W3C//DTD SVG 1.1//EN" "http://www.w3.org/Graphics/SVG/1.1/DTD/svg11.dtd">
<svg version="1.1" id="图层_1" xmlns="http://www.w3.org/2000/svg" xmlns:xlink="http://www.w3.org/1999/xlink" x="0px" y="0px"
	 width="75.93px" height="75.93px" viewBox="0 0 75.93 75.93" enable-background="new 0 0 75.93 75.93" xml:space="preserve">
<path fill="#FFFFFF" d="M72.584,58.186c0,5.14-4.166,9.303-9.304,9.303H12.964c-5.139,0-9.303-4.163-9.303-9.303V20.059
	c0-5.138,4.164-9.303,9.303-9.303H63.28c5.138,0,9.304,4.165,9.304,9.303V58.186z"/>
<path fill="none" stroke="#3D3689" stroke-width="2" stroke-miterlimit="10" d="M72.584,58.186c0,5.14-4.166,9.303-9.304,9.303
	H12.964c-5.139,0-9.303-4.163-9.303-9.303V20.059c0-5.138,4.164-9.303,9.303-9.303H63.28c5.138,0,9.304,4.165,9.304,9.303V58.186z"
	/>
<path fill="#F4F4F4" d="M36.633,21.192c0,1.811-1.467,3.277-3.277,3.277c-1.809,0-3.276-1.466-3.276-3.277
	c0-1.81,1.467-3.277,3.276-3.277C35.166,17.915,36.633,19.383,36.633,21.192"/>
<circle fill="none" stroke="#3D3689" stroke-miterlimit="10" cx="33.356" cy="21.192" r="3.277"/>
<path fill="#F4F4F4" d="M17.739,20.966c0,1.811-1.467,3.277-3.277,3.277c-1.809,0-3.276-1.466-3.276-3.277
	c0-1.81,1.467-3.277,3.276-3.277C16.271,17.689,17.739,19.157,17.739,20.966"/>
<circle fill="none" stroke="#3D3689" stroke-miterlimit="10" cx="14.462" cy="20.966" r="3.277"/>
<path fill="#F4F4F4" d="M26.993,20.966c0,1.811-1.467,3.277-3.277,3.277c-1.808,0-3.275-1.466-3.275-3.277
	c0-1.81,1.467-3.277,3.275-3.277C25.526,17.689,26.993,19.157,26.993,20.966"/>
<circle fill="none" stroke="#3D3689" stroke-miterlimit="10" cx="23.717" cy="20.966" r="3.276"/>
<rect x="11.186" y="32.183" fill="#E2E2E1" width="52.646" height="4.251"/>
<rect x="11.186" y="40.803" fill="#E2E2E1" width="52.646" height="4.251"/>
<rect x="11.799" y="49.618" fill="#E2E2E1" width="26.322" height="4.252"/>
</svg>
