<?xml version="1.0" encoding="utf-8"?>
<!-- Generator: Adobe Illustrator 16.0.0, SVG Export Plug-In . SVG Version: 6.00 Build 0)  -->
<!DOCTYPE svg PUBLIC "-//W3C//DTD SVG 1.1//EN" "http://www.w3.org/Graphics/SVG/1.1/DTD/svg11.dtd">
<svg version="1.1" id="图层_1" xmlns="http://www.w3.org/2000/svg" xmlns:xlink="http://www.w3.org/1999/xlink" x="0px" y="0px"
	 width="75.93px" height="75.93px" viewBox="0 0 75.93 75.93" enable-background="new 0 0 75.93 75.93" xml:space="preserve">
<path fill="#F4F4F4" d="M61.15,22.567c1.222,0.61,1.222,1.601,0,2.208L40.242,35.232c-1.22,0.608-3.198,0.608-4.417,0l-20.91-10.456
	c-1.221-0.607-1.221-1.598,0-2.208l20.91-10.454c1.219-0.609,3.197-0.609,4.417,0L61.15,22.567z"/>
<path fill="none" stroke="#3D3689" stroke-width="2" stroke-miterlimit="10" stroke-dasharray="2.057,2.057" d="M61.15,22.567
	c1.222,0.61,1.222,1.601,0,2.208L40.242,35.232c-1.22,0.608-3.198,0.608-4.417,0l-20.91-10.456c-1.221-0.607-1.221-1.598,0-2.208
	l20.91-10.454c1.219-0.609,3.197-0.609,4.417,0L61.15,22.567z"/>
<line fill="none" stroke="#3D3689" stroke-miterlimit="10" x1="14.166" y1="62.317" x2="14.166" y2="60.558"/>
<line fill="none" stroke="#3D3689" stroke-width="2" stroke-miterlimit="10" stroke-dasharray="2.167,2.167" x1="14.166" y1="56.742" x2="14.166" y2="28.136"/>
<line fill="none" stroke="#3D3689" stroke-miterlimit="10" x1="14.166" y1="26.228" x2="14.166" y2="24.468"/>
<line fill="none" stroke="#3D3689" stroke-miterlimit="10" x1="62.066" y1="61.561" x2="62.066" y2="59.801"/>
<line fill="none" stroke="#3D3689" stroke-width="2" stroke-miterlimit="10" stroke-dasharray="2.167,2.167" x1="62.066" y1="55.987" x2="62.066" y2="27.381"/>
<line fill="none" stroke="#3D3689" stroke-miterlimit="10" x1="62.066" y1="25.474" x2="62.066" y2="23.714"/>
<line fill="none" stroke="#3D3689" stroke-miterlimit="10" x1="38.034" y1="34.592" x2="38.034" y2="36.353"/>
<line fill="none" stroke="#3D3689" stroke-width="2" stroke-miterlimit="10" stroke-dasharray="1.835,1.835" x1="38.034" y1="39.582" x2="38.034" y2="70.261"/>
<line fill="none" stroke="#3D3689" stroke-miterlimit="10" x1="38.034" y1="71.876" x2="38.034" y2="73.636"/>
<path fill="none" stroke="#3D3689" stroke-width="2" stroke-miterlimit="10" stroke-dasharray="2.057,2.057" d="M61.15,60.457
	c1.222,0.609,1.222,1.599,0,2.209L40.242,73.12c-1.22,0.609-3.198,0.609-4.417,0l-20.91-10.454c-1.221-0.61-1.221-1.6,0-2.209
	l20.91-10.454c1.219-0.61,3.197-0.61,4.417,0L61.15,60.457z"/>
<path fill="#FFFFFF" d="M61.15,14.071c1.222,0.61,1.222,1.601,0,2.208L40.242,26.735c-1.22,0.608-3.198,0.608-4.417,0l-20.91-10.456
	c-1.221-0.607-1.221-1.598,0-2.208l20.91-10.452c1.219-0.612,3.197-0.612,4.417,0L61.15,14.071z"/>
<path fill="none" stroke="#3D3689" stroke-width="2" stroke-miterlimit="10" d="M61.15,14.071c1.222,0.61,1.222,1.601,0,2.208
	L40.242,26.735c-1.22,0.608-3.198,0.608-4.417,0l-20.91-10.456c-1.221-0.607-1.221-1.598,0-2.208l20.91-10.452
	c1.219-0.612,3.197-0.612,4.417,0L61.15,14.071z"/>
<ellipse fill="none" stroke="#3D3689" stroke-miterlimit="10" cx="26.035" cy="14.672" rx="3.254" ry="2.054"/>
<ellipse fill="none" stroke="#3D3689" stroke-miterlimit="10" cx="34.925" cy="18.733" rx="3.253" ry="2.054"/>
</svg>
