<svg xmlns="http://www.w3.org/2000/svg" width="112" height="100" viewBox="0 0 112 100">
  <g fill="none" fill-rule="evenodd" opacity=".2">
    <path fill="#9C5CFF" fill-opacity=".3" d="M70.2837587,26.7627761 L104.54164,44.0460316 C109.334553,46.4640779 110.573538,47.5926888 111.388659,48.9494596 C112.20378,50.3062304 112.20378,51.6937696 111.388659,53.0505404 C110.573538,54.4073112 109.334553,55.5359221 104.54164,57.9539684 L70.2837587,75.2372239 C65.4908455,77.6552702 63.2537776,78.2803434 60.564464,78.6915757 C57.8751505,79.1028081 55.1248495,79.1028081 52.435536,78.6915757 C49.7462224,78.2803434 47.5091545,77.6552702 42.7162413,75.2372239 L8.45835981,57.9539684 C3.66544662,55.5359221 2.42646226,54.4073112 1.61134097,53.0505404 C0.796219677,51.6937696 0.796219677,50.3062304 1.61134097,48.9494596 C2.42646226,47.5926888 3.66544662,46.4640779 8.45835981,44.0460316 L42.7162413,26.7627761 C47.5091545,24.3447298 49.7462224,23.7196566 52.435536,23.3084243 C55.1248495,22.8971919 57.8751505,22.8971919 60.564464,23.3084243 C63.2537776,23.7196566 65.4908455,24.3447298 70.2837587,26.7627761 Z"/>
    <path fill="#9C5CFF" fill-opacity=".1" d="M70.2837587,47.7627761 L104.54164,65.0460316 C109.334553,67.4640779 110.573538,68.5926888 111.388659,69.9494596 C112.20378,71.3062304 112.20378,72.6937696 111.388659,74.0505404 C110.573538,75.4073112 109.334553,76.5359221 104.54164,78.9539684 L70.2837587,96.2372239 C65.4908455,98.6552702 63.2537776,99.2803434 60.564464,99.6915757 C57.8751505,100.102808 55.1248495,100.102808 52.435536,99.6915757 C49.7462224,99.2803434 47.5091545,98.6552702 42.7162413,96.2372239 L8.45835981,78.9539684 C3.66544662,76.5359221 2.42646226,75.4073112 1.61134097,74.0505404 C0.796219677,72.6937696 0.796219677,71.3062304 1.61134097,69.9494596 C2.42646226,68.5926888 3.66544662,67.4640779 8.45835981,65.0460316 L42.7162413,47.7627761 C47.5091545,45.3447298 49.7462224,44.7196566 52.435536,44.3084243 C55.1248495,43.8971919 57.8751505,43.8971919 60.564464,44.3084243 C63.2537776,44.7196566 65.4908455,45.3447298 70.2837587,47.7627761 Z"/>
    <path fill="#BC92FF" fill-opacity=".9" d="M69.2837587,3.76277612 L103.54164,21.0460316 C108.334553,23.4640779 109.573538,24.5926888 110.388659,25.9494596 C111.20378,27.3062304 111.20378,28.6937696 110.388659,30.0505404 C109.573538,31.4073112 108.334553,32.5359221 103.54164,34.9539684 L69.2837587,52.2372239 C64.4908455,54.6552702 62.2537776,55.2803434 59.564464,55.6915757 C56.8751505,56.1028081 54.1248495,56.1028081 51.435536,55.6915757 C48.7462224,55.2803434 46.5091545,54.6552702 41.7162413,52.2372239 L7.45835981,34.9539684 C2.66544662,32.5359221 1.42646226,31.4073112 0.611340968,30.0505404 C-0.203780323,28.6937696 -0.203780323,27.3062304 0.611340968,25.9494596 C1.42646226,24.5926888 2.66544662,23.4640779 7.45835981,21.0460316 L41.7162413,3.76277612 C46.5091545,1.34472983 48.7462224,0.719656636 51.435536,0.308424272 C54.1248495,-0.102808091 56.8751505,-0.102808091 59.564464,0.308424272 C62.2537776,0.719656636 64.4908455,1.34472983 69.2837587,3.76277612 Z"/>
  </g>
</svg>
