<svg xmlns="http://www.w3.org/2000/svg" width="202" height="185" viewBox="0 0 202 185">
  <g fill="none" fill-rule="evenodd">
    <g opacity=".2" transform="translate(101)">
      <path fill="#9C5CFF" fill-opacity=".3" d="M63.3808896,22.7483597 L94.2741577,37.4391269 C98.5963383,39.4944662 99.7136367,40.4537855 100.448701,41.6070406 C101.183766,42.7602958 101.183766,43.9397042 100.448701,45.0929594 C99.7136367,46.2462145 98.5963383,47.2055338 94.2741577,49.2608731 L63.3808896,63.9516403 C59.0587089,66.0069796 57.041353,66.5382919 54.6161685,66.8878394 C52.1909839,67.2373869 49.7108018,67.2373869 47.2856172,66.8878394 C44.8604327,66.5382919 42.8430768,66.0069796 38.5208962,63.9516403 L7.62762805,49.2608731 C3.3054474,47.2055338 2.188149,46.2462145 1.45308427,45.0929594 C0.71801953,43.9397042 0.71801953,42.7602958 1.45308427,41.6070406 C2.188149,40.4537855 3.3054474,39.4944662 7.62762805,37.4391269 L38.5208962,22.7483597 C42.8430768,20.6930204 44.8604327,20.1617081 47.2856172,19.8121606 C49.7108018,19.4626131 52.1909839,19.4626131 54.6161685,19.8121606 C57.041353,20.1617081 59.0587089,20.6930204 63.3808896,22.7483597 Z"/>
      <path fill="#9C5CFF" fill-opacity=".1" d="M63.3808896,40.5983597 L94.2741577,55.2891269 C98.5963383,57.3444662 99.7136367,58.3037855 100.448701,59.4570406 C101.183766,60.6102958 101.183766,61.7897042 100.448701,62.9429594 C99.7136367,64.0962145 98.5963383,65.0555338 94.2741577,67.1108731 L63.3808896,81.8016403 C59.0587089,83.8569796 57.041353,84.3882919 54.6161685,84.7378394 C52.1909839,85.0873869 49.7108018,85.0873869 47.2856172,84.7378394 C44.8604327,84.3882919 42.8430768,83.8569796 38.5208962,81.8016403 L7.62762805,67.1108731 C3.3054474,65.0555338 2.188149,64.0962145 1.45308427,62.9429594 C0.71801953,61.7897042 0.71801953,60.6102958 1.45308427,59.4570406 C2.188149,58.3037855 3.3054474,57.3444662 7.62762805,55.2891269 L38.5208962,40.5983597 C42.8430768,38.5430204 44.8604327,38.0117081 47.2856172,37.6621606 C49.7108018,37.3126131 52.1909839,37.3126131 54.6161685,37.6621606 C57.041353,38.0117081 59.0587089,38.5430204 63.3808896,40.5983597 Z"/>
      <path fill="#BC92FF" fill-opacity=".9" d="M62.4791038,3.1983597 L93.372372,17.8891269 C97.6945526,19.9444662 98.811851,20.9037855 99.5469157,22.0570406 C100.28198,23.2102958 100.28198,24.3897042 99.5469157,25.5429594 C98.811851,26.6962145 97.6945526,27.6555338 93.372372,29.7108731 L62.4791038,44.4016403 C58.1569232,46.4569796 56.1395673,46.9882919 53.7143828,47.3378394 C51.2891982,47.6873869 48.8090161,47.6873869 46.3838315,47.3378394 C43.958647,46.9882919 41.9412911,46.4569796 37.6191104,44.4016403 L6.72584233,29.7108731 C2.40366169,27.6555338 1.28636329,26.6962145 0.551298552,25.5429594 C-0.183766184,24.3897042 -0.183766184,23.2102958 0.551298552,22.0570406 C1.28636329,20.9037855 2.40366169,19.9444662 6.72584233,17.8891269 L37.6191104,3.1983597 C41.9412911,1.14302035 43.958647,0.61170814 46.3838315,0.262160632 C48.8090161,-0.0873868772 51.2891982,-0.0873868772 53.7143828,0.262160632 C56.1395673,0.61170814 58.1569232,1.14302035 62.4791038,3.1983597 Z"/>
    </g>
    <g opacity=".4" transform="translate(0 49)">
      <path fill="#9C5CFF" fill-opacity=".3" d="M63.3808896,22.7483597 L94.2741577,37.4391269 C98.5963383,39.4944662 99.7136367,40.4537855 100.448701,41.6070406 C101.183766,42.7602958 101.183766,43.9397042 100.448701,45.0929594 C99.7136367,46.2462145 98.5963383,47.2055338 94.2741577,49.2608731 L63.3808896,63.9516403 C59.0587089,66.0069796 57.041353,66.5382919 54.6161685,66.8878394 C52.1909839,67.2373869 49.7108018,67.2373869 47.2856172,66.8878394 C44.8604327,66.5382919 42.8430768,66.0069796 38.5208962,63.9516403 L7.62762805,49.2608731 C3.3054474,47.2055338 2.188149,46.2462145 1.45308427,45.0929594 C0.71801953,43.9397042 0.71801953,42.7602958 1.45308427,41.6070406 C2.188149,40.4537855 3.3054474,39.4944662 7.62762805,37.4391269 L38.5208962,22.7483597 C42.8430768,20.6930204 44.8604327,20.1617081 47.2856172,19.8121606 C49.7108018,19.4626131 52.1909839,19.4626131 54.6161685,19.8121606 C57.041353,20.1617081 59.0587089,20.6930204 63.3808896,22.7483597 Z"/>
      <path fill="#9C5CFF" fill-opacity=".1" d="M63.3808896,40.5983597 L94.2741577,55.2891269 C98.5963383,57.3444662 99.7136367,58.3037855 100.448701,59.4570406 C101.183766,60.6102958 101.183766,61.7897042 100.448701,62.9429594 C99.7136367,64.0962145 98.5963383,65.0555338 94.2741577,67.1108731 L63.3808896,81.8016403 C59.0587089,83.8569796 57.041353,84.3882919 54.6161685,84.7378394 C52.1909839,85.0873869 49.7108018,85.0873869 47.2856172,84.7378394 C44.8604327,84.3882919 42.8430768,83.8569796 38.5208962,81.8016403 L7.62762805,67.1108731 C3.3054474,65.0555338 2.188149,64.0962145 1.45308427,62.9429594 C0.71801953,61.7897042 0.71801953,60.6102958 1.45308427,59.4570406 C2.188149,58.3037855 3.3054474,57.3444662 7.62762805,55.2891269 L38.5208962,40.5983597 C42.8430768,38.5430204 44.8604327,38.0117081 47.2856172,37.6621606 C49.7108018,37.3126131 52.1909839,37.3126131 54.6161685,37.6621606 C57.041353,38.0117081 59.0587089,38.5430204 63.3808896,40.5983597 Z"/>
      <path fill="#BC92FF" fill-opacity=".9" d="M62.4791038,3.1983597 L93.372372,17.8891269 C97.6945526,19.9444662 98.811851,20.9037855 99.5469157,22.0570406 C100.28198,23.2102958 100.28198,24.3897042 99.5469157,25.5429594 C98.811851,26.6962145 97.6945526,27.6555338 93.372372,29.7108731 L62.4791038,44.4016403 C58.1569232,46.4569796 56.1395673,46.9882919 53.7143828,47.3378394 C51.2891982,47.6873869 48.8090161,47.6873869 46.3838315,47.3378394 C43.958647,46.9882919 41.9412911,46.4569796 37.6191104,44.4016403 L6.72584233,29.7108731 C2.40366169,27.6555338 1.28636329,26.6962145 0.551298552,25.5429594 C-0.183766184,24.3897042 -0.183766184,23.2102958 0.551298552,22.0570406 C1.28636329,20.9037855 2.40366169,19.9444662 6.72584233,17.8891269 L37.6191104,3.1983597 C41.9412911,1.14302035 43.958647,0.61170814 46.3838315,0.262160632 C48.8090161,-0.0873868772 51.2891982,-0.0873868772 53.7143828,0.262160632 C56.1395673,0.61170814 58.1569232,1.14302035 62.4791038,3.1983597 Z"/>
    </g>
    <g opacity=".4" transform="translate(101 100)">
      <path fill="#9C5CFF" fill-opacity=".3" d="M63.3808896,22.7483597 L94.2741577,37.4391269 C98.5963383,39.4944662 99.7136367,40.4537855 100.448701,41.6070406 C101.183766,42.7602958 101.183766,43.9397042 100.448701,45.0929594 C99.7136367,46.2462145 98.5963383,47.2055338 94.2741577,49.2608731 L63.3808896,63.9516403 C59.0587089,66.0069796 57.041353,66.5382919 54.6161685,66.8878394 C52.1909839,67.2373869 49.7108018,67.2373869 47.2856172,66.8878394 C44.8604327,66.5382919 42.8430768,66.0069796 38.5208962,63.9516403 L7.62762805,49.2608731 C3.3054474,47.2055338 2.188149,46.2462145 1.45308427,45.0929594 C0.71801953,43.9397042 0.71801953,42.7602958 1.45308427,41.6070406 C2.188149,40.4537855 3.3054474,39.4944662 7.62762805,37.4391269 L38.5208962,22.7483597 C42.8430768,20.6930204 44.8604327,20.1617081 47.2856172,19.8121606 C49.7108018,19.4626131 52.1909839,19.4626131 54.6161685,19.8121606 C57.041353,20.1617081 59.0587089,20.6930204 63.3808896,22.7483597 Z"/>
      <path fill="#9C5CFF" fill-opacity=".1" d="M63.3808896,40.5983597 L94.2741577,55.2891269 C98.5963383,57.3444662 99.7136367,58.3037855 100.448701,59.4570406 C101.183766,60.6102958 101.183766,61.7897042 100.448701,62.9429594 C99.7136367,64.0962145 98.5963383,65.0555338 94.2741577,67.1108731 L63.3808896,81.8016403 C59.0587089,83.8569796 57.041353,84.3882919 54.6161685,84.7378394 C52.1909839,85.0873869 49.7108018,85.0873869 47.2856172,84.7378394 C44.8604327,84.3882919 42.8430768,83.8569796 38.5208962,81.8016403 L7.62762805,67.1108731 C3.3054474,65.0555338 2.188149,64.0962145 1.45308427,62.9429594 C0.71801953,61.7897042 0.71801953,60.6102958 1.45308427,59.4570406 C2.188149,58.3037855 3.3054474,57.3444662 7.62762805,55.2891269 L38.5208962,40.5983597 C42.8430768,38.5430204 44.8604327,38.0117081 47.2856172,37.6621606 C49.7108018,37.3126131 52.1909839,37.3126131 54.6161685,37.6621606 C57.041353,38.0117081 59.0587089,38.5430204 63.3808896,40.5983597 Z"/>
      <path fill="#BC92FF" fill-opacity=".9" d="M62.4791038,3.1983597 L93.372372,17.8891269 C97.6945526,19.9444662 98.811851,20.9037855 99.5469157,22.0570406 C100.28198,23.2102958 100.28198,24.3897042 99.5469157,25.5429594 C98.811851,26.6962145 97.6945526,27.6555338 93.372372,29.7108731 L62.4791038,44.4016403 C58.1569232,46.4569796 56.1395673,46.9882919 53.7143828,47.3378394 C51.2891982,47.6873869 48.8090161,47.6873869 46.3838315,47.3378394 C43.958647,46.9882919 41.9412911,46.4569796 37.6191104,44.4016403 L6.72584233,29.7108731 C2.40366169,27.6555338 1.28636329,26.6962145 0.551298552,25.5429594 C-0.183766184,24.3897042 -0.183766184,23.2102958 0.551298552,22.0570406 C1.28636329,20.9037855 2.40366169,19.9444662 6.72584233,17.8891269 L37.6191104,3.1983597 C41.9412911,1.14302035 43.958647,0.61170814 46.3838315,0.262160632 C48.8090161,-0.0873868772 51.2891982,-0.0873868772 53.7143828,0.262160632 C56.1395673,0.61170814 58.1569232,1.14302035 62.4791038,3.1983597 Z"/>
    </g>
  </g>
</svg>
