<svg xmlns="http://www.w3.org/2000/svg" width="762" height="256" viewBox="0 0 762 256">
  <g fill="none" fill-rule="evenodd">
    <g transform="translate(116 98)">
      <path fill="#9C5CFF" fill-opacity=".3" d="M92.1270594,34.9744767 L137.185527,57.8233387 C143.489516,61.0200516 145.119119,62.5121011 146.191226,64.3057834 C147.263333,66.0994657 147.263333,67.9338245 146.191226,69.7275067 C145.119119,71.521189 143.489516,73.0132385 137.185527,76.2099515 L92.1270594,99.0588134 C85.8230699,102.255526 82.8807148,103.081887 79.3435332,103.625546 C75.8063516,104.169205 72.1889549,104.169205 68.6517733,103.625546 C65.1145917,103.081887 62.1722366,102.255526 55.8682471,99.0588134 L10.8097795,76.2099515 C4.50579006,73.0132385 2.87618734,71.521189 1.80408029,69.7275067 C0.731973237,67.9338245 0.731973237,66.0994657 1.80408029,64.3057834 C2.87618734,62.5121011 4.50579006,61.0200516 10.8097795,57.8233387 L55.8682471,34.9744767 C62.1722366,31.7777638 65.1145917,30.9514027 68.6517733,30.407744 C72.1889549,29.8640853 75.8063516,29.8640853 79.3435332,30.407744 C82.8807148,30.9514027 85.8230699,31.7777638 92.1270594,34.9744767 Z"/>
      <path fill="#9C5CFF" fill-opacity=".1" d="M92.1270594,62.9744767 L137.185527,85.8233387 C143.489516,89.0200516 145.119119,90.5121011 146.191226,92.3057834 C147.263333,94.0994657 147.263333,95.9338245 146.191226,97.7275067 C145.119119,99.521189 143.489516,101.013239 137.185527,104.209951 L92.1270594,127.058813 C85.8230699,130.255526 82.8807148,131.081887 79.3435332,131.625546 C75.8063516,132.169205 72.1889549,132.169205 68.6517733,131.625546 C65.1145917,131.081887 62.1722366,130.255526 55.8682471,127.058813 L10.8097795,104.209951 C4.50579006,101.013239 2.87618734,99.521189 1.80408029,97.7275067 C0.731973237,95.9338245 0.731973237,94.0994657 1.80408029,92.3057834 C2.87618734,90.5121011 4.50579006,89.0200516 10.8097795,85.8233387 L55.8682471,62.9744767 C62.1722366,59.7777638 65.1145917,58.9514027 68.6517733,58.407744 C72.1889549,57.8640853 75.8063516,57.8640853 79.3435332,58.407744 C82.8807148,58.9514027 85.8230699,59.7777638 92.1270594,62.9744767 Z"/>
      <path fill="#FFF" fill-opacity=".9" d="M91.6294061,5.62970069 L136.687874,28.4785627 C142.991863,31.6752756 144.621466,33.1673251 145.693573,34.9610074 C146.76568,36.7546896 146.76568,38.5890485 145.693573,40.3827307 C144.621466,42.176413 142.991863,43.6684625 136.687874,46.8651754 L91.6294061,69.7140374 C85.3254166,72.9107503 82.3830615,73.7371115 78.8458799,74.2807701 C75.3086984,74.8244288 71.6913016,74.8244288 68.1541201,74.2807701 C64.6169385,73.7371115 61.6745834,72.9107503 55.3705939,69.7140374 L10.3121263,46.8651754 C4.00813681,43.6684625 2.37853409,42.176413 1.30642704,40.3827307 C0.234319987,38.5890485 0.234319987,36.7546896 1.30642704,34.9610074 C2.37853409,33.1673251 4.00813681,31.6752756 10.3121263,28.4785627 L55.3705939,5.62970069 C61.6745834,2.43298778 64.6169385,1.60662662 68.1541201,1.06296796 C71.6913016,0.519309304 75.3086984,0.519309304 78.8458799,1.06296796 C82.3830615,1.60662662 85.3254166,2.43298778 91.6294061,5.62970069 Z"/>
    </g>
    <g transform="translate(501 98)">
      <path fill="#9C5CFF" fill-opacity=".3" d="M92.1270594,34.9744767 L137.185527,57.8233387 C143.489516,61.0200516 145.119119,62.5121011 146.191226,64.3057834 C147.263333,66.0994657 147.263333,67.9338245 146.191226,69.7275067 C145.119119,71.521189 143.489516,73.0132385 137.185527,76.2099515 L92.1270594,99.0588134 C85.8230699,102.255526 82.8807148,103.081887 79.3435332,103.625546 C75.8063516,104.169205 72.1889549,104.169205 68.6517733,103.625546 C65.1145917,103.081887 62.1722366,102.255526 55.8682471,99.0588134 L10.8097795,76.2099515 C4.50579006,73.0132385 2.87618734,71.521189 1.80408029,69.7275067 C0.731973237,67.9338245 0.731973237,66.0994657 1.80408029,64.3057834 C2.87618734,62.5121011 4.50579006,61.0200516 10.8097795,57.8233387 L55.8682471,34.9744767 C62.1722366,31.7777638 65.1145917,30.9514027 68.6517733,30.407744 C72.1889549,29.8640853 75.8063516,29.8640853 79.3435332,30.407744 C82.8807148,30.9514027 85.8230699,31.7777638 92.1270594,34.9744767 Z"/>
      <path fill="#9C5CFF" fill-opacity=".1" d="M92.1270594,62.9744767 L137.185527,85.8233387 C143.489516,89.0200516 145.119119,90.5121011 146.191226,92.3057834 C147.263333,94.0994657 147.263333,95.9338245 146.191226,97.7275067 C145.119119,99.521189 143.489516,101.013239 137.185527,104.209951 L92.1270594,127.058813 C85.8230699,130.255526 82.8807148,131.081887 79.3435332,131.625546 C75.8063516,132.169205 72.1889549,132.169205 68.6517733,131.625546 C65.1145917,131.081887 62.1722366,130.255526 55.8682471,127.058813 L10.8097795,104.209951 C4.50579006,101.013239 2.87618734,99.521189 1.80408029,97.7275067 C0.731973237,95.9338245 0.731973237,94.0994657 1.80408029,92.3057834 C2.87618734,90.5121011 4.50579006,89.0200516 10.8097795,85.8233387 L55.8682471,62.9744767 C62.1722366,59.7777638 65.1145917,58.9514027 68.6517733,58.407744 C72.1889549,57.8640853 75.8063516,57.8640853 79.3435332,58.407744 C82.8807148,58.9514027 85.8230699,59.7777638 92.1270594,62.9744767 Z"/>
      <path fill="#FFF" fill-opacity=".9" d="M91.6294061,5.62970069 L136.687874,28.4785627 C142.991863,31.6752756 144.621466,33.1673251 145.693573,34.9610074 C146.76568,36.7546896 146.76568,38.5890485 145.693573,40.3827307 C144.621466,42.176413 142.991863,43.6684625 136.687874,46.8651754 L91.6294061,69.7140374 C85.3254166,72.9107503 82.3830615,73.7371115 78.8458799,74.2807701 C75.3086984,74.8244288 71.6913016,74.8244288 68.1541201,74.2807701 C64.6169385,73.7371115 61.6745834,72.9107503 55.3705939,69.7140374 L10.3121263,46.8651754 C4.00813681,43.6684625 2.37853409,42.176413 1.30642704,40.3827307 C0.234319987,38.5890485 0.234319987,36.7546896 1.30642704,34.9610074 C2.37853409,33.1673251 4.00813681,31.6752756 10.3121263,28.4785627 L55.3705939,5.62970069 C61.6745834,2.43298778 64.6169385,1.60662662 68.1541201,1.06296796 C71.6913016,0.519309304 75.3086984,0.519309304 78.8458799,1.06296796 C82.3830615,1.60662662 85.3254166,2.43298778 91.6294061,5.62970069 Z"/>
    </g>
    <g opacity=".4" transform="translate(537 33)">
      <path fill="#9C5CFF" fill-opacity=".3" d="M70.2837587,26.7627761 L104.54164,44.0460316 C109.334553,46.4640779 110.573538,47.5926888 111.388659,48.9494596 C112.20378,50.3062304 112.20378,51.6937696 111.388659,53.0505404 C110.573538,54.4073112 109.334553,55.5359221 104.54164,57.9539684 L70.2837587,75.2372239 C65.4908455,77.6552702 63.2537776,78.2803434 60.564464,78.6915757 C57.8751505,79.1028081 55.1248495,79.1028081 52.435536,78.6915757 C49.7462224,78.2803434 47.5091545,77.6552702 42.7162413,75.2372239 L8.45835981,57.9539684 C3.66544662,55.5359221 2.42646226,54.4073112 1.61134097,53.0505404 C0.796219677,51.6937696 0.796219677,50.3062304 1.61134097,48.9494596 C2.42646226,47.5926888 3.66544662,46.4640779 8.45835981,44.0460316 L42.7162413,26.7627761 C47.5091545,24.3447298 49.7462224,23.7196566 52.435536,23.3084243 C55.1248495,22.8971919 57.8751505,22.8971919 60.564464,23.3084243 C63.2537776,23.7196566 65.4908455,24.3447298 70.2837587,26.7627761 Z"/>
      <path fill="#9C5CFF" fill-opacity=".1" d="M70.2837587,47.7627761 L104.54164,65.0460316 C109.334553,67.4640779 110.573538,68.5926888 111.388659,69.9494596 C112.20378,71.3062304 112.20378,72.6937696 111.388659,74.0505404 C110.573538,75.4073112 109.334553,76.5359221 104.54164,78.9539684 L70.2837587,96.2372239 C65.4908455,98.6552702 63.2537776,99.2803434 60.564464,99.6915757 C57.8751505,100.102808 55.1248495,100.102808 52.435536,99.6915757 C49.7462224,99.2803434 47.5091545,98.6552702 42.7162413,96.2372239 L8.45835981,78.9539684 C3.66544662,76.5359221 2.42646226,75.4073112 1.61134097,74.0505404 C0.796219677,72.6937696 0.796219677,71.3062304 1.61134097,69.9494596 C2.42646226,68.5926888 3.66544662,67.4640779 8.45835981,65.0460316 L42.7162413,47.7627761 C47.5091545,45.3447298 49.7462224,44.7196566 52.435536,44.3084243 C55.1248495,43.8971919 57.8751505,43.8971919 60.564464,44.3084243 C63.2537776,44.7196566 65.4908455,45.3447298 70.2837587,47.7627761 Z"/>
      <path fill="#BC92FF" fill-opacity=".9" d="M69.2837587,3.76277612 L103.54164,21.0460316 C108.334553,23.4640779 109.573538,24.5926888 110.388659,25.9494596 C111.20378,27.3062304 111.20378,28.6937696 110.388659,30.0505404 C109.573538,31.4073112 108.334553,32.5359221 103.54164,34.9539684 L69.2837587,52.2372239 C64.4908455,54.6552702 62.2537776,55.2803434 59.564464,55.6915757 C56.8751505,56.1028081 54.1248495,56.1028081 51.435536,55.6915757 C48.7462224,55.2803434 46.5091545,54.6552702 41.7162413,52.2372239 L7.45835981,34.9539684 C2.66544662,32.5359221 1.42646226,31.4073112 0.611340968,30.0505404 C-0.203780323,28.6937696 -0.203780323,27.3062304 0.611340968,25.9494596 C1.42646226,24.5926888 2.66544662,23.4640779 7.45835981,21.0460316 L41.7162413,3.76277612 C46.5091545,1.34472983 48.7462224,0.719656636 51.435536,0.308424272 C54.1248495,-0.102808091 56.8751505,-0.102808091 59.564464,0.308424272 C62.2537776,0.719656636 64.4908455,1.34472983 69.2837587,3.76277612 Z"/>
    </g>
    <g opacity=".4" transform="translate(112 33)">
      <path fill="#9C5CFF" fill-opacity=".3" d="M70.2837587,26.7627761 L104.54164,44.0460316 C109.334553,46.4640779 110.573538,47.5926888 111.388659,48.9494596 C112.20378,50.3062304 112.20378,51.6937696 111.388659,53.0505404 C110.573538,54.4073112 109.334553,55.5359221 104.54164,57.9539684 L70.2837587,75.2372239 C65.4908455,77.6552702 63.2537776,78.2803434 60.564464,78.6915757 C57.8751505,79.1028081 55.1248495,79.1028081 52.435536,78.6915757 C49.7462224,78.2803434 47.5091545,77.6552702 42.7162413,75.2372239 L8.45835981,57.9539684 C3.66544662,55.5359221 2.42646226,54.4073112 1.61134097,53.0505404 C0.796219677,51.6937696 0.796219677,50.3062304 1.61134097,48.9494596 C2.42646226,47.5926888 3.66544662,46.4640779 8.45835981,44.0460316 L42.7162413,26.7627761 C47.5091545,24.3447298 49.7462224,23.7196566 52.435536,23.3084243 C55.1248495,22.8971919 57.8751505,22.8971919 60.564464,23.3084243 C63.2537776,23.7196566 65.4908455,24.3447298 70.2837587,26.7627761 Z"/>
      <path fill="#9C5CFF" fill-opacity=".1" d="M70.2837587,47.7627761 L104.54164,65.0460316 C109.334553,67.4640779 110.573538,68.5926888 111.388659,69.9494596 C112.20378,71.3062304 112.20378,72.6937696 111.388659,74.0505404 C110.573538,75.4073112 109.334553,76.5359221 104.54164,78.9539684 L70.2837587,96.2372239 C65.4908455,98.6552702 63.2537776,99.2803434 60.564464,99.6915757 C57.8751505,100.102808 55.1248495,100.102808 52.435536,99.6915757 C49.7462224,99.2803434 47.5091545,98.6552702 42.7162413,96.2372239 L8.45835981,78.9539684 C3.66544662,76.5359221 2.42646226,75.4073112 1.61134097,74.0505404 C0.796219677,72.6937696 0.796219677,71.3062304 1.61134097,69.9494596 C2.42646226,68.5926888 3.66544662,67.4640779 8.45835981,65.0460316 L42.7162413,47.7627761 C47.5091545,45.3447298 49.7462224,44.7196566 52.435536,44.3084243 C55.1248495,43.8971919 57.8751505,43.8971919 60.564464,44.3084243 C63.2537776,44.7196566 65.4908455,45.3447298 70.2837587,47.7627761 Z"/>
      <path fill="#BC92FF" fill-opacity=".9" d="M69.2837587,3.76277612 L103.54164,21.0460316 C108.334553,23.4640779 109.573538,24.5926888 110.388659,25.9494596 C111.20378,27.3062304 111.20378,28.6937696 110.388659,30.0505404 C109.573538,31.4073112 108.334553,32.5359221 103.54164,34.9539684 L69.2837587,52.2372239 C64.4908455,54.6552702 62.2537776,55.2803434 59.564464,55.6915757 C56.8751505,56.1028081 54.1248495,56.1028081 51.435536,55.6915757 C48.7462224,55.2803434 46.5091545,54.6552702 41.7162413,52.2372239 L7.45835981,34.9539684 C2.66544662,32.5359221 1.42646226,31.4073112 0.611340968,30.0505404 C-0.203780323,28.6937696 -0.203780323,27.3062304 0.611340968,25.9494596 C1.42646226,24.5926888 2.66544662,23.4640779 7.45835981,21.0460316 L41.7162413,3.76277612 C46.5091545,1.34472983 48.7462224,0.719656636 51.435536,0.308424272 C54.1248495,-0.102808091 56.8751505,-0.102808091 59.564464,0.308424272 C62.2537776,0.719656636 64.4908455,1.34472983 69.2837587,3.76277612 Z"/>
    </g>
    <g transform="translate(307)">
      <path fill="#9C5CFF" fill-opacity=".3" d="M92.1270594,34.9744767 L137.185527,57.8233387 C143.489516,61.0200516 145.119119,62.5121011 146.191226,64.3057834 C147.263333,66.0994657 147.263333,67.9338245 146.191226,69.7275067 C145.119119,71.521189 143.489516,73.0132385 137.185527,76.2099515 L92.1270594,99.0588134 C85.8230699,102.255526 82.8807148,103.081887 79.3435332,103.625546 C75.8063516,104.169205 72.1889549,104.169205 68.6517733,103.625546 C65.1145917,103.081887 62.1722366,102.255526 55.8682471,99.0588134 L10.8097795,76.2099515 C4.50579006,73.0132385 2.87618734,71.521189 1.80408029,69.7275067 C0.731973237,67.9338245 0.731973237,66.0994657 1.80408029,64.3057834 C2.87618734,62.5121011 4.50579006,61.0200516 10.8097795,57.8233387 L55.8682471,34.9744767 C62.1722366,31.7777638 65.1145917,30.9514027 68.6517733,30.407744 C72.1889549,29.8640853 75.8063516,29.8640853 79.3435332,30.407744 C82.8807148,30.9514027 85.8230699,31.7777638 92.1270594,34.9744767 Z"/>
      <path fill="#9C5CFF" fill-opacity=".1" d="M92.1270594,62.9744767 L137.185527,85.8233387 C143.489516,89.0200516 145.119119,90.5121011 146.191226,92.3057834 C147.263333,94.0994657 147.263333,95.9338245 146.191226,97.7275067 C145.119119,99.521189 143.489516,101.013239 137.185527,104.209951 L92.1270594,127.058813 C85.8230699,130.255526 82.8807148,131.081887 79.3435332,131.625546 C75.8063516,132.169205 72.1889549,132.169205 68.6517733,131.625546 C65.1145917,131.081887 62.1722366,130.255526 55.8682471,127.058813 L10.8097795,104.209951 C4.50579006,101.013239 2.87618734,99.521189 1.80408029,97.7275067 C0.731973237,95.9338245 0.731973237,94.0994657 1.80408029,92.3057834 C2.87618734,90.5121011 4.50579006,89.0200516 10.8097795,85.8233387 L55.8682471,62.9744767 C62.1722366,59.7777638 65.1145917,58.9514027 68.6517733,58.407744 C72.1889549,57.8640853 75.8063516,57.8640853 79.3435332,58.407744 C82.8807148,58.9514027 85.8230699,59.7777638 92.1270594,62.9744767 Z"/>
      <path fill="#FFF" fill-opacity=".9" d="M91.6294061,5.62970069 L136.687874,28.4785627 C142.991863,31.6752756 144.621466,33.1673251 145.693573,34.9610074 C146.76568,36.7546896 146.76568,38.5890485 145.693573,40.3827307 C144.621466,42.176413 142.991863,43.6684625 136.687874,46.8651754 L91.6294061,69.7140374 C85.3254166,72.9107503 82.3830615,73.7371115 78.8458799,74.2807701 C75.3086984,74.8244288 71.6913016,74.8244288 68.1541201,74.2807701 C64.6169385,73.7371115 61.6745834,72.9107503 55.3705939,69.7140374 L10.3121263,46.8651754 C4.00813681,43.6684625 2.37853409,42.176413 1.30642704,40.3827307 C0.234319987,38.5890485 0.234319987,36.7546896 1.30642704,34.9610074 C2.37853409,33.1673251 4.00813681,31.6752756 10.3121263,28.4785627 L55.3705939,5.62970069 C61.6745834,2.43298778 64.6169385,1.60662662 68.1541201,1.06296796 C71.6913016,0.519309304 75.3086984,0.519309304 78.8458799,1.06296796 C82.3830615,1.60662662 85.3254166,2.43298778 91.6294061,5.62970069 Z"/>
    </g>
    <g opacity=".6" transform="translate(400 49)">
      <path fill="#9C5CFF" fill-opacity=".3" d="M92.1270594,34.9744767 L137.185527,57.8233387 C143.489516,61.0200516 145.119119,62.5121011 146.191226,64.3057834 C147.263333,66.0994657 147.263333,67.9338245 146.191226,69.7275067 C145.119119,71.521189 143.489516,73.0132385 137.185527,76.2099515 L92.1270594,99.0588134 C85.8230699,102.255526 82.8807148,103.081887 79.3435332,103.625546 C75.8063516,104.169205 72.1889549,104.169205 68.6517733,103.625546 C65.1145917,103.081887 62.1722366,102.255526 55.8682471,99.0588134 L10.8097795,76.2099515 C4.50579006,73.0132385 2.87618734,71.521189 1.80408029,69.7275067 C0.731973237,67.9338245 0.731973237,66.0994657 1.80408029,64.3057834 C2.87618734,62.5121011 4.50579006,61.0200516 10.8097795,57.8233387 L55.8682471,34.9744767 C62.1722366,31.7777638 65.1145917,30.9514027 68.6517733,30.407744 C72.1889549,29.8640853 75.8063516,29.8640853 79.3435332,30.407744 C82.8807148,30.9514027 85.8230699,31.7777638 92.1270594,34.9744767 Z"/>
      <path fill="#9C5CFF" fill-opacity=".1" d="M92.1270594,62.9744767 L137.185527,85.8233387 C143.489516,89.0200516 145.119119,90.5121011 146.191226,92.3057834 C147.263333,94.0994657 147.263333,95.9338245 146.191226,97.7275067 C145.119119,99.521189 143.489516,101.013239 137.185527,104.209951 L92.1270594,127.058813 C85.8230699,130.255526 82.8807148,131.081887 79.3435332,131.625546 C75.8063516,132.169205 72.1889549,132.169205 68.6517733,131.625546 C65.1145917,131.081887 62.1722366,130.255526 55.8682471,127.058813 L10.8097795,104.209951 C4.50579006,101.013239 2.87618734,99.521189 1.80408029,97.7275067 C0.731973237,95.9338245 0.731973237,94.0994657 1.80408029,92.3057834 C2.87618734,90.5121011 4.50579006,89.0200516 10.8097795,85.8233387 L55.8682471,62.9744767 C62.1722366,59.7777638 65.1145917,58.9514027 68.6517733,58.407744 C72.1889549,57.8640853 75.8063516,57.8640853 79.3435332,58.407744 C82.8807148,58.9514027 85.8230699,59.7777638 92.1270594,62.9744767 Z"/>
      <path fill="#BC92FF" fill-opacity=".9" d="M91.6294061,5.62970069 L136.687874,28.4785627 C142.991863,31.6752756 144.621466,33.1673251 145.693573,34.9610074 C146.76568,36.7546896 146.76568,38.5890485 145.693573,40.3827307 C144.621466,42.176413 142.991863,43.6684625 136.687874,46.8651754 L91.6294061,69.7140374 C85.3254166,72.9107503 82.3830615,73.7371115 78.8458799,74.2807701 C75.3086984,74.8244288 71.6913016,74.8244288 68.1541201,74.2807701 C64.6169385,73.7371115 61.6745834,72.9107503 55.3705939,69.7140374 L10.3121263,46.8651754 C4.00813681,43.6684625 2.37853409,42.176413 1.30642704,40.3827307 C0.234319987,38.5890485 0.234319987,36.7546896 1.30642704,34.9610074 C2.37853409,33.1673251 4.00813681,31.6752756 10.3121263,28.4785627 L55.3705939,5.62970069 C61.6745834,2.43298778 64.6169385,1.60662662 68.1541201,1.06296796 C71.6913016,0.519309304 75.3086984,0.519309304 78.8458799,1.06296796 C82.3830615,1.60662662 85.3254166,2.43298778 91.6294061,5.62970069 Z"/>
    </g>
    <g opacity=".4" transform="translate(325 156)">
      <path fill="#9C5CFF" fill-opacity=".3" d="M70.2837587,26.7627761 L104.54164,44.0460316 C109.334553,46.4640779 110.573538,47.5926888 111.388659,48.9494596 C112.20378,50.3062304 112.20378,51.6937696 111.388659,53.0505404 C110.573538,54.4073112 109.334553,55.5359221 104.54164,57.9539684 L70.2837587,75.2372239 C65.4908455,77.6552702 63.2537776,78.2803434 60.564464,78.6915757 C57.8751505,79.1028081 55.1248495,79.1028081 52.435536,78.6915757 C49.7462224,78.2803434 47.5091545,77.6552702 42.7162413,75.2372239 L8.45835981,57.9539684 C3.66544662,55.5359221 2.42646226,54.4073112 1.61134097,53.0505404 C0.796219677,51.6937696 0.796219677,50.3062304 1.61134097,48.9494596 C2.42646226,47.5926888 3.66544662,46.4640779 8.45835981,44.0460316 L42.7162413,26.7627761 C47.5091545,24.3447298 49.7462224,23.7196566 52.435536,23.3084243 C55.1248495,22.8971919 57.8751505,22.8971919 60.564464,23.3084243 C63.2537776,23.7196566 65.4908455,24.3447298 70.2837587,26.7627761 Z"/>
      <path fill="#9C5CFF" fill-opacity=".1" d="M70.2837587,47.7627761 L104.54164,65.0460316 C109.334553,67.4640779 110.573538,68.5926888 111.388659,69.9494596 C112.20378,71.3062304 112.20378,72.6937696 111.388659,74.0505404 C110.573538,75.4073112 109.334553,76.5359221 104.54164,78.9539684 L70.2837587,96.2372239 C65.4908455,98.6552702 63.2537776,99.2803434 60.564464,99.6915757 C57.8751505,100.102808 55.1248495,100.102808 52.435536,99.6915757 C49.7462224,99.2803434 47.5091545,98.6552702 42.7162413,96.2372239 L8.45835981,78.9539684 C3.66544662,76.5359221 2.42646226,75.4073112 1.61134097,74.0505404 C0.796219677,72.6937696 0.796219677,71.3062304 1.61134097,69.9494596 C2.42646226,68.5926888 3.66544662,67.4640779 8.45835981,65.0460316 L42.7162413,47.7627761 C47.5091545,45.3447298 49.7462224,44.7196566 52.435536,44.3084243 C55.1248495,43.8971919 57.8751505,43.8971919 60.564464,44.3084243 C63.2537776,44.7196566 65.4908455,45.3447298 70.2837587,47.7627761 Z"/>
      <path fill="#BC92FF" fill-opacity=".9" d="M69.2837587,3.76277612 L103.54164,21.0460316 C108.334553,23.4640779 109.573538,24.5926888 110.388659,25.9494596 C111.20378,27.3062304 111.20378,28.6937696 110.388659,30.0505404 C109.573538,31.4073112 108.334553,32.5359221 103.54164,34.9539684 L69.2837587,52.2372239 C64.4908455,54.6552702 62.2537776,55.2803434 59.564464,55.6915757 C56.8751505,56.1028081 54.1248495,56.1028081 51.435536,55.6915757 C48.7462224,55.2803434 46.5091545,54.6552702 41.7162413,52.2372239 L7.45835981,34.9539684 C2.66544662,32.5359221 1.42646226,31.4073112 0.611340968,30.0505404 C-0.203780323,28.6937696 -0.203780323,27.3062304 0.611340968,25.9494596 C1.42646226,24.5926888 2.66544662,23.4640779 7.45835981,21.0460316 L41.7162413,3.76277612 C46.5091545,1.34472983 48.7462224,0.719656636 51.435536,0.308424272 C54.1248495,-0.102808091 56.8751505,-0.102808091 59.564464,0.308424272 C62.2537776,0.719656636 64.4908455,1.34472983 69.2837587,3.76277612 Z"/>
    </g>
    <g opacity=".4" transform="translate(650 90)">
      <path fill="#9C5CFF" fill-opacity=".3" d="M70.2837587,26.7627761 L104.54164,44.0460316 C109.334553,46.4640779 110.573538,47.5926888 111.388659,48.9494596 C112.20378,50.3062304 112.20378,51.6937696 111.388659,53.0505404 C110.573538,54.4073112 109.334553,55.5359221 104.54164,57.9539684 L70.2837587,75.2372239 C65.4908455,77.6552702 63.2537776,78.2803434 60.564464,78.6915757 C57.8751505,79.1028081 55.1248495,79.1028081 52.435536,78.6915757 C49.7462224,78.2803434 47.5091545,77.6552702 42.7162413,75.2372239 L8.45835981,57.9539684 C3.66544662,55.5359221 2.42646226,54.4073112 1.61134097,53.0505404 C0.796219677,51.6937696 0.796219677,50.3062304 1.61134097,48.9494596 C2.42646226,47.5926888 3.66544662,46.4640779 8.45835981,44.0460316 L42.7162413,26.7627761 C47.5091545,24.3447298 49.7462224,23.7196566 52.435536,23.3084243 C55.1248495,22.8971919 57.8751505,22.8971919 60.564464,23.3084243 C63.2537776,23.7196566 65.4908455,24.3447298 70.2837587,26.7627761 Z"/>
      <path fill="#9C5CFF" fill-opacity=".1" d="M70.2837587,47.7627761 L104.54164,65.0460316 C109.334553,67.4640779 110.573538,68.5926888 111.388659,69.9494596 C112.20378,71.3062304 112.20378,72.6937696 111.388659,74.0505404 C110.573538,75.4073112 109.334553,76.5359221 104.54164,78.9539684 L70.2837587,96.2372239 C65.4908455,98.6552702 63.2537776,99.2803434 60.564464,99.6915757 C57.8751505,100.102808 55.1248495,100.102808 52.435536,99.6915757 C49.7462224,99.2803434 47.5091545,98.6552702 42.7162413,96.2372239 L8.45835981,78.9539684 C3.66544662,76.5359221 2.42646226,75.4073112 1.61134097,74.0505404 C0.796219677,72.6937696 0.796219677,71.3062304 1.61134097,69.9494596 C2.42646226,68.5926888 3.66544662,67.4640779 8.45835981,65.0460316 L42.7162413,47.7627761 C47.5091545,45.3447298 49.7462224,44.7196566 52.435536,44.3084243 C55.1248495,43.8971919 57.8751505,43.8971919 60.564464,44.3084243 C63.2537776,44.7196566 65.4908455,45.3447298 70.2837587,47.7627761 Z"/>
      <path fill="#BC92FF" fill-opacity=".9" d="M69.2837587,3.76277612 L103.54164,21.0460316 C108.334553,23.4640779 109.573538,24.5926888 110.388659,25.9494596 C111.20378,27.3062304 111.20378,28.6937696 110.388659,30.0505404 C109.573538,31.4073112 108.334553,32.5359221 103.54164,34.9539684 L69.2837587,52.2372239 C64.4908455,54.6552702 62.2537776,55.2803434 59.564464,55.6915757 C56.8751505,56.1028081 54.1248495,56.1028081 51.435536,55.6915757 C48.7462224,55.2803434 46.5091545,54.6552702 41.7162413,52.2372239 L7.45835981,34.9539684 C2.66544662,32.5359221 1.42646226,31.4073112 0.611340968,30.0505404 C-0.203780323,28.6937696 -0.203780323,27.3062304 0.611340968,25.9494596 C1.42646226,24.5926888 2.66544662,23.4640779 7.45835981,21.0460316 L41.7162413,3.76277612 C46.5091545,1.34472983 48.7462224,0.719656636 51.435536,0.308424272 C54.1248495,-0.102808091 56.8751505,-0.102808091 59.564464,0.308424272 C62.2537776,0.719656636 64.4908455,1.34472983 69.2837587,3.76277612 Z"/>
    </g>
    <g opacity=".4" transform="translate(0 90)">
      <path fill="#9C5CFF" fill-opacity=".3" d="M70.2837587,26.7627761 L104.54164,44.0460316 C109.334553,46.4640779 110.573538,47.5926888 111.388659,48.9494596 C112.20378,50.3062304 112.20378,51.6937696 111.388659,53.0505404 C110.573538,54.4073112 109.334553,55.5359221 104.54164,57.9539684 L70.2837587,75.2372239 C65.4908455,77.6552702 63.2537776,78.2803434 60.564464,78.6915757 C57.8751505,79.1028081 55.1248495,79.1028081 52.435536,78.6915757 C49.7462224,78.2803434 47.5091545,77.6552702 42.7162413,75.2372239 L8.45835981,57.9539684 C3.66544662,55.5359221 2.42646226,54.4073112 1.61134097,53.0505404 C0.796219677,51.6937696 0.796219677,50.3062304 1.61134097,48.9494596 C2.42646226,47.5926888 3.66544662,46.4640779 8.45835981,44.0460316 L42.7162413,26.7627761 C47.5091545,24.3447298 49.7462224,23.7196566 52.435536,23.3084243 C55.1248495,22.8971919 57.8751505,22.8971919 60.564464,23.3084243 C63.2537776,23.7196566 65.4908455,24.3447298 70.2837587,26.7627761 Z"/>
      <path fill="#9C5CFF" fill-opacity=".1" d="M70.2837587,47.7627761 L104.54164,65.0460316 C109.334553,67.4640779 110.573538,68.5926888 111.388659,69.9494596 C112.20378,71.3062304 112.20378,72.6937696 111.388659,74.0505404 C110.573538,75.4073112 109.334553,76.5359221 104.54164,78.9539684 L70.2837587,96.2372239 C65.4908455,98.6552702 63.2537776,99.2803434 60.564464,99.6915757 C57.8751505,100.102808 55.1248495,100.102808 52.435536,99.6915757 C49.7462224,99.2803434 47.5091545,98.6552702 42.7162413,96.2372239 L8.45835981,78.9539684 C3.66544662,76.5359221 2.42646226,75.4073112 1.61134097,74.0505404 C0.796219677,72.6937696 0.796219677,71.3062304 1.61134097,69.9494596 C2.42646226,68.5926888 3.66544662,67.4640779 8.45835981,65.0460316 L42.7162413,47.7627761 C47.5091545,45.3447298 49.7462224,44.7196566 52.435536,44.3084243 C55.1248495,43.8971919 57.8751505,43.8971919 60.564464,44.3084243 C63.2537776,44.7196566 65.4908455,45.3447298 70.2837587,47.7627761 Z"/>
      <path fill="#BC92FF" fill-opacity=".9" d="M69.2837587,3.76277612 L103.54164,21.0460316 C108.334553,23.4640779 109.573538,24.5926888 110.388659,25.9494596 C111.20378,27.3062304 111.20378,28.6937696 110.388659,30.0505404 C109.573538,31.4073112 108.334553,32.5359221 103.54164,34.9539684 L69.2837587,52.2372239 C64.4908455,54.6552702 62.2537776,55.2803434 59.564464,55.6915757 C56.8751505,56.1028081 54.1248495,56.1028081 51.435536,55.6915757 C48.7462224,55.2803434 46.5091545,54.6552702 41.7162413,52.2372239 L7.45835981,34.9539684 C2.66544662,32.5359221 1.42646226,31.4073112 0.611340968,30.0505404 C-0.203780323,28.6937696 -0.203780323,27.3062304 0.611340968,25.9494596 C1.42646226,24.5926888 2.66544662,23.4640779 7.45835981,21.0460316 L41.7162413,3.76277612 C46.5091545,1.34472983 48.7462224,0.719656636 51.435536,0.308424272 C54.1248495,-0.102808091 56.8751505,-0.102808091 59.564464,0.308424272 C62.2537776,0.719656636 64.4908455,1.34472983 69.2837587,3.76277612 Z"/>
    </g>
    <g opacity=".6" transform="translate(211 48)">
      <path fill="#9C5CFF" fill-opacity=".3" d="M92.1270594,34.9744767 L137.185527,57.8233387 C143.489516,61.0200516 145.119119,62.5121011 146.191226,64.3057834 C147.263333,66.0994657 147.263333,67.9338245 146.191226,69.7275067 C145.119119,71.521189 143.489516,73.0132385 137.185527,76.2099515 L92.1270594,99.0588134 C85.8230699,102.255526 82.8807148,103.081887 79.3435332,103.625546 C75.8063516,104.169205 72.1889549,104.169205 68.6517733,103.625546 C65.1145917,103.081887 62.1722366,102.255526 55.8682471,99.0588134 L10.8097795,76.2099515 C4.50579006,73.0132385 2.87618734,71.521189 1.80408029,69.7275067 C0.731973237,67.9338245 0.731973237,66.0994657 1.80408029,64.3057834 C2.87618734,62.5121011 4.50579006,61.0200516 10.8097795,57.8233387 L55.8682471,34.9744767 C62.1722366,31.7777638 65.1145917,30.9514027 68.6517733,30.407744 C72.1889549,29.8640853 75.8063516,29.8640853 79.3435332,30.407744 C82.8807148,30.9514027 85.8230699,31.7777638 92.1270594,34.9744767 Z"/>
      <path fill="#9C5CFF" fill-opacity=".1" d="M92.1270594,62.9744767 L137.185527,85.8233387 C143.489516,89.0200516 145.119119,90.5121011 146.191226,92.3057834 C147.263333,94.0994657 147.263333,95.9338245 146.191226,97.7275067 C145.119119,99.521189 143.489516,101.013239 137.185527,104.209951 L92.1270594,127.058813 C85.8230699,130.255526 82.8807148,131.081887 79.3435332,131.625546 C75.8063516,132.169205 72.1889549,132.169205 68.6517733,131.625546 C65.1145917,131.081887 62.1722366,130.255526 55.8682471,127.058813 L10.8097795,104.209951 C4.50579006,101.013239 2.87618734,99.521189 1.80408029,97.7275067 C0.731973237,95.9338245 0.731973237,94.0994657 1.80408029,92.3057834 C2.87618734,90.5121011 4.50579006,89.0200516 10.8097795,85.8233387 L55.8682471,62.9744767 C62.1722366,59.7777638 65.1145917,58.9514027 68.6517733,58.407744 C72.1889549,57.8640853 75.8063516,57.8640853 79.3435332,58.407744 C82.8807148,58.9514027 85.8230699,59.7777638 92.1270594,62.9744767 Z"/>
      <path fill="#BC92FF" d="M91.6294061,5.62970069 L136.687874,28.4785627 C142.991863,31.6752756 144.621466,33.1673251 145.693573,34.9610074 C146.76568,36.7546896 146.76568,38.5890485 145.693573,40.3827307 C144.621466,42.176413 142.991863,43.6684625 136.687874,46.8651754 L91.6294061,69.7140374 C85.3254166,72.9107503 82.3830615,73.7371115 78.8458799,74.2807701 C75.3086984,74.8244288 71.6913016,74.8244288 68.1541201,74.2807701 C64.6169385,73.7371115 61.6745834,72.9107503 55.3705939,69.7140374 L10.3121263,46.8651754 C4.00813681,43.6684625 2.37853409,42.176413 1.30642704,40.3827307 C0.234319987,38.5890485 0.234319987,36.7546896 1.30642704,34.9610074 C2.37853409,33.1673251 4.00813681,31.6752756 10.3121263,28.4785627 L55.3705939,5.62970069 C61.6745834,2.43298778 64.6169385,1.60662662 68.1541201,1.06296796 C71.6913016,0.519309304 75.3086984,0.519309304 78.8458799,1.06296796 C82.3830615,1.60662662 85.3254166,2.43298778 91.6294061,5.62970069 Z"/>
    </g>
  </g>
</svg>
