<svg xmlns="http://www.w3.org/2000/svg" width="15" height="17" viewBox="0 0 15 17">
  <g>
    <path d="M7.00000001 9.5C6.99996592 9.67862143 7.09525792 9.84368903 7.24997246 9.93300958 7.40468699 10.0223301 7.59531301 10.0223301 7.75002754 9.93300958 7.90474208 9.84368903 8.00003408 9.67862143 7.99999999 9.5 8.00003408 9.32137857 7.90474208 9.15631097 7.75002754 9.06699042 7.59531301 8.97766986 7.40468699 8.97766986 7.24997246 9.06699042 7.09525792 9.15631097 6.99996592 9.32137857 7.00000001 9.5zM5 9.49999999C4.99999999 9.67863279 5.09529945 9.8436963 5.24999999 9.9330127 5.40470054 10.0223291 5.59529946 10.0223291 5.75000001 9.9330127 5.90470055 9.8436963 6.00000001 9.67863279 6 9.49999999 6 9.22385762 5.77614237 9 5.5 9 5.22385763 9 5 9.22385762 5 9.49999999zM3.00000001 9.5C2.99996592 9.67862143 3.09525792 9.84368903 3.24997246 9.93300958 3.40468699 10.0223301 3.59531301 10.0223301 3.75002754 9.93300958 3.90474208 9.84368903 4.00003408 9.67862143 3.99999999 9.5 4.00003408 9.32137857 3.90474208 9.15631097 3.75002754 9.06699042 3.59531301 8.97766986 3.40468699 8.97766986 3.24997246 9.06699042 3.09525792 9.15631097 2.99996592 9.32137857 3.00000001 9.5zM11.4550173 3L3.54498269 3C3.24913495 3 3 3.22857143 3 3.50000001 3 3.77142859 3.24913495 4 3.54498269 4L11.4550173 4C11.750865 4 12 3.77142857 12 3.50000001 12 3.22857145 11.750865 3.00000002 11.4550173 3zM11.4550173 6L3.54498269 6C3.24913495 6 3 6.22857143 3 6.49999999 3 6.77142855 3.24913495 6.99999998 3.54498269 7L11.4550173 7C11.750865 7 12 6.77142857 12 6.49999999 12 6.22857141 11.750865 6 11.4550173 6z"/>
    <path d="M13.5032538,0 L1.49674622,0 C0.667028217,0 2.25128372e-08,0.644773353 0,1.4468085 L0,15.5531915 C0,16.3552266 0.667028194,17 1.49674622,17 L13.5032538,17 C14.3329718,17 15,16.3552266 15,15.5531915 L15,1.4468085 C14.983731,0.644773353 14.3167028,0 13.5032538,0 Z M13.8449024,15.5374653 C13.8449024,15.7261795 13.6822126,15.8834413 13.4869848,15.8834413 L1.49674622,15.8834413 C1.30151845,15.8834413 1.13882864,15.7261795 1.13882864,15.5374653 L1.13882864,1.4468085 C1.13882864,1.25809435 1.30151845,1.10083255 1.49674622,1.10083255 L13.5032538,1.10083255 C13.6984816,1.10083255 13.8611714,1.25809435 13.8611714,1.4468085 L13.8611714,15.5374653 L13.8449024,15.5374653 Z"/>
  </g>
</svg>
