<svg xmlns="http://www.w3.org/2000/svg" width="15" height="15" viewBox="0 0 15 15">
  <path d="M3.83074418,6.41301421e-16 L3.38680064,6.41301421e-16 C1.51931454,6.41301421e-16 0,1.51985162 0,3.38799787 L0,3.83209834 C0,5.70024459 1.51931454,7.22009621 3.38680064,7.22009621 L3.83074418,7.22009621 C5.69823027,7.22009621 7.21754481,5.70024459 7.21754481,3.83209834 L7.21754481,3.38799787 C7.21756737,1.51985162 5.69825283,0 3.83074418,6.41301421e-16 Z M6.3153348,3.83209834 C6.3153348,5.20257769 5.20076179,6.3175447 3.83076673,6.3175447 L3.38682319,6.3175447 C2.01682814,6.3175447 0.90225513,5.20257769 0.90225513,3.83209834 L0.90225513,3.38799787 C0.90225513,2.01751852 2.01682814,0.902551513 3.38682319,0.902551513 L3.83076673,0.902551513 C5.20076179,0.902551513 6.3153348,2.01751852 6.3153348,3.38799787 L6.3153348,3.83209834 Z M3.83074418,7.77990379 L3.38680064,7.77990379 C1.51931454,7.77990379 0,9.29975541 0,11.1679017 L0,11.6120021 C0,13.4801484 1.51931454,15 3.38680064,15 L3.83074418,15 C5.69823027,15 7.21754481,13.4801484 7.21754481,11.6120021 L7.21754481,11.1679017 C7.21756737,9.29977797 5.69825283,7.77990379 3.83074418,7.77990379 Z M6.3153348,11.6120021 C6.3153348,12.9824815 5.20076179,14.0974485 3.83076673,14.0974485 L3.38682319,14.0974485 C2.01682814,14.0974485 0.90225513,12.9824815 0.90225513,11.6120021 L0.90225513,11.1679017 C0.90225513,9.79742231 2.01682814,8.6824553 3.38682319,8.6824553 L3.83076673,8.6824553 C5.20076179,8.6824553 6.3153348,9.79742231 6.3153348,11.1679017 L6.3153348,11.6120021 Z M9.00827347,6.15874076 C9.64479855,6.79549085 10.4910702,7.14615468 11.3912276,7.14615468 C12.291385,7.14615468 13.1376792,6.79549085 13.7741817,6.15874076 L13.9390196,5.9938446 C15.252986,4.6794137 15.252986,2.54065995 13.9390196,1.22625161 L13.7741817,1.06135545 C13.1376566,0.424627923 12.291385,0.0739640965 11.3912276,0.0739640965 C10.4910702,0.0739640965 9.644776,0.424627923 9.00827347,1.06135545 L8.84345814,1.22625161 C8.20693306,1.86297914 7.85637059,2.70957246 7.85637059,3.61004811 C7.85637059,4.51052375 8.20693306,5.35711707 8.84343558,5.9938446 L9.00827347,6.15874076 Z M9.48144935,1.86444579 L9.64626468,1.69954963 C10.1123806,1.23329152 10.7321016,0.97651561 11.3912501,0.97651561 C12.0503987,0.97651561 12.6701197,1.23329152 13.1362356,1.69954963 L13.3010735,1.86444579 C14.2632369,2.82697185 14.2632369,4.39312436 13.3010735,5.35565042 L13.1362356,5.52054659 C12.6701197,5.98682726 12.0503987,6.24360317 11.3912501,6.24360317 C10.7321016,6.24360317 10.1123806,5.98682726 9.64628724,5.52054659 L9.48144935,5.35565042 C9.01533344,4.88936975 8.75862572,4.26945224 8.75862572,3.61004811 C8.75862572,2.95064397 9.01533344,2.3307039 9.48144935,1.86444579 Z M11.6131994,7.77990379 L11.1692558,7.77990379 C9.30176973,7.77990379 7.78245519,9.29975541 7.78245519,11.1679017 L7.78245519,11.6120021 C7.78245519,13.4801484 9.30176973,15 11.1692558,15 L11.6131994,15 C13.4806855,15 15,13.4801484 15,11.6120021 L15,11.1679017 C15.0000226,9.29977797 13.4806855,7.77990379 11.6131994,7.77990379 Z M14.09779,11.6120021 C14.09779,12.9824815 12.983217,14.0974485 11.6132219,14.0974485 L11.1692784,14.0974485 C9.79928333,14.0974485 8.68471032,12.9824815 8.68471032,11.6120021 L8.68471032,11.1679017 C8.68471032,9.79742231 9.79928333,8.6824553 11.1692784,8.6824553 L11.6132219,8.6824553 C12.983217,8.6824553 14.09779,9.79742231 14.09779,11.1679017 L14.09779,11.6120021 Z"/>
</svg>
