<svg xmlns="http://www.w3.org/2000/svg" xmlns:xlink="http://www.w3.org/1999/xlink" width="144" height="143" viewBox="0 0 144 143">
  <defs>
    <circle id="guide-2-b" cx="116.5" cy="111.5" r="25.5"/>
    <filter id="guide-2-a" width="111.8%" height="119.6%" x="-5.9%" y="-5.9%" filterUnits="objectBoundingBox">
      <feMorphology in="SourceAlpha" operator="dilate" radius="1" result="shadowSpreadOuter1"/>
      <feOffset dy="4" in="shadowSpreadOuter1" result="shadowOffsetOuter1"/>
      <feComposite in="shadowOffsetOuter1" in2="SourceAlpha" operator="out" result="shadowOffsetOuter1"/>
      <feColorMatrix in="shadowOffsetOuter1" values="0 0 0 0 0.894117647   0 0 0 0 0.823529412   0 0 0 0 1  0 0 0 0.5 0"/>
    </filter>
  </defs>
  <g fill="none" fill-rule="evenodd" transform="translate(1 1)">
    <ellipse cx="67.5" cy="68.5" fill="#F6F1FF" stroke="#5A29A7" stroke-dasharray="5" stroke-linecap="round" stroke-width="2" rx="67.5" ry="68.5"/>
    <text fill="#FFF" stroke="#5A29A7" font-family="Moon-Bold, Moon" font-size="80" font-weight="bold">
      <tspan x="44" y="96">2</tspan>
    </text>
    <use fill="#000" filter="url(#guide-2-a)" xlink:href="#guide-2-b"/>
    <use fill="#FFF" stroke="#5A29A7" stroke-width="2" xlink:href="#guide-2-b"/>
    <path fill="#FFF" d="M114.42755,111.331293 C105.056795,118.372596 106.702983,113.984177 106,122.518364 C111.599241,122.751654 108.209107,123.173161 115.187886,117.706958 C119.446824,113.114864 125.547427,116.077012 125.774655,108.109935 C121.282497,99.4717569 114.614639,102.592468 113.871887,111.450992"/>
    <g fill="#5A29A7" fill-rule="nonzero" transform="translate(104 101)">
      <path d="M21.9802821,6.59380052 C21.6941651,2.67471924 18.3622205,-0.272674612 14.5473266,0.0200483894 C10.7348002,0.314509654 7.86652759,3.74201097 8.15264464,7.66109223 C8.18258892,8.068163 8.24628909,8.47186248 8.34305114,8.86779242 C8.25588826,8.89860157 8.17586359,8.94760323 8.10800225,9.01172035 L0.253311658,16.3993259 C0.113635136,16.5307383 0,16.7167322 0,16.911765 L0,21.4892992 C0,21.873107 0.370666986,22 0.74437779,22 L4.80277552,22 C5.17614811,22 5.41119698,21.8734547 5.41119698,21.4892992 L5.41119698,20.2617399 L7.45696762,20.2617399 C7.65582911,20.2617399 7.8445446,20.2179357 7.97306053,20.0621876 C8.10157645,19.9060918 8.15670302,19.7458243 8.12423586,19.5441861 L7.91725757,18.1758277 L9.14796669,18.1758277 C9.33938777,18.1758277 9.52235389,18.1726989 9.65053161,18.0263374 L13.2391698,14.0022652 C14.0026919,14.2173888 14.7965153,14.295944 15.5859383,14.2344967 C19.3981265,13.9393402 22.2667373,10.5118388 21.9802821,6.59380052 Z M15.4848165,12.8477128 C14.3906081,12.9336474 13.2961287,12.6848284 12.3392201,12.1325926 C12.0148213,11.9578634 11.6140623,12.0801183 11.434899,12.4084636 C11.2557356,12.7368088 11.363186,13.1520882 11.6773631,13.3455505 C11.7328278,13.3775345 11.7896454,13.4053466 11.8457866,13.4355924 L8.84663064,16.7852196 L7.11910603,16.7852196 C6.92024454,16.7852196 6.73152904,16.9214992 6.60301311,17.0772473 C6.47449719,17.2333431 6.41937062,17.4853908 6.45183779,17.687029 L6.65881608,18.8711318 L4.80277552,18.8711318 C4.42940292,18.8711318 4.05839773,19.3672312 4.05839773,19.751039 L4.05839773,20.6093919 L1.35279925,20.6093919 L1.35279925,17.2176987 L8.81483987,10.2114675 C8.87334844,10.3362746 8.93490081,10.4603863 9.00084976,10.5824122 C9.18301168,10.9161206 9.59324872,11.0358048 9.91878655,10.8502147 C10.2443244,10.6646246 10.3627946,10.2435229 10.1838727,9.90796729 C9.79312827,9.184425 9.5602439,8.3821376 9.50138549,7.55679663 C9.27107142,4.4025498 11.5799615,1.64358335 14.6484484,1.40683231 C17.7189645,1.17355781 20.4005508,3.54384931 20.6312031,6.69774848 C20.8618553,9.85164765 18.5529652,12.6102665 15.4848165,12.8477128 Z"/>
      <path d="M16.6470747,5.01230095 C15.7860632,5.01309608 15.0882132,5.73538066 15.0872528,6.6267386 C15.0872528,7.05776028 15.2496109,7.46353383 15.5447123,7.76867552 C15.8364631,8.07226954 16.2334113,8.24241169 16.6470747,8.24117628 C17.5081425,8.24018239 18.2059365,7.51779443 18.2068966,6.62637793 C18.2057442,5.73516085 17.5079503,5.01309571 16.6470747,5.01230095 Z M16.6470747,7.51944042 C16.3388767,7.51956928 16.0540237,7.34947161 15.8998169,7.07322154 C15.7456101,6.79697147 15.7454773,6.45653797 15.8994685,6.18015904 C16.0534597,5.90378012 16.3381799,5.7334443 16.6463779,5.73331544 C17.1228106,5.73311625 17.5091916,6.13279246 17.5093841,6.62601724 C17.5095765,7.11924203 17.1235074,7.5192412 16.6470747,7.51944042 Z M14.8224629,3.14285714 C14.7113208,3.14285714 14.5998303,3.14754607 14.4907786,3.15728465 C14.3642254,3.16483707 14.2516204,3.24295143 14.1967513,3.36125209 C14.1418822,3.47955276 14.1534082,3.61937024 14.2268472,3.72633499 C14.3002862,3.83329973 14.4240486,3.89053121 14.550008,3.87577433 C14.6406384,3.86811829 14.7315313,3.8642678 14.8224629,3.86423233 C15.0148832,3.86423233 15.1708707,3.702747 15.1708707,3.50354474 C15.1708707,3.30434248 15.0148832,3.14285714 14.8224629,3.14285714 Z M13.16439,3.51652949 C11.7518802,4.19080644 10.8460206,5.65272953 10.8429486,7.26299152 C10.8429486,7.46219378 10.9989361,7.62367912 11.1913565,7.62367912 C11.3837768,7.62367912 11.5397643,7.46219378 11.5397643,7.26299152 C11.542302,5.93463769 12.2896667,4.72868687 13.4549621,4.17262021 C13.5681714,4.11888507 13.6450896,4.00670665 13.6567426,3.87834148 C13.6683955,3.74997632 13.6130128,3.62492613 13.5114565,3.55029611 C13.4099002,3.4756661 13.2775992,3.46279434 13.16439,3.51652949 Z M8.4047906,12.8085633 L3.74657788,17.0062455 C3.6494962,17.089908 3.6037594,17.221415 3.62704358,17.3499423 C3.65032777,17.4784697 3.73898539,17.5838832 3.8587525,17.625443 C3.97851961,17.6670029 4.11063423,17.6381986 4.20403735,17.5501624 L8.86190168,13.3524802 C9.00698662,13.2218035 9.02227339,12.9941092 8.89604565,12.8439107 C8.76981791,12.6937122 8.54987553,12.6778866 8.4047906,12.8085633 Z M2.97450613,17.7023726 L2.40137524,18.2192379 C2.30429357,18.3029003 2.25855676,18.4344073 2.28184095,18.5629347 C2.30512514,18.6914621 2.39378276,18.7968756 2.51354987,18.8384354 C2.63331698,18.8799953 2.76543159,18.851191 2.85883472,18.7631548 L3.4319656,18.2462895 C3.52904728,18.162627 3.57478408,18.03112 3.5514999,17.9025926 C3.52821571,17.7740652 3.43955809,17.6686518 3.31979098,17.6270919 C3.20002387,17.5855321 3.06790925,17.6143363 2.97450613,17.7023726 Z"/>
    </g>
  </g>
</svg>
