<svg xmlns="http://www.w3.org/2000/svg" xmlns:xlink="http://www.w3.org/1999/xlink" width="155" height="146" viewBox="0 0 155 146">
  <defs>
    <circle id="guide-3-b" cx="128.5" cy="114.5" r="25.5"/>
    <filter id="guide-3-a" width="111.8%" height="119.6%" x="-5.9%" y="-5.9%" filterUnits="objectBoundingBox">
      <feMorphology in="SourceAlpha" operator="dilate" radius="1" result="shadowSpreadOuter1"/>
      <feOffset dy="4" in="shadowSpreadOuter1" result="shadowOffsetOuter1"/>
      <feComposite in="shadowOffsetOuter1" in2="SourceAlpha" operator="out" result="shadowOffsetOuter1"/>
      <feColorMatrix in="shadowOffsetOuter1" values="0 0 0 0 0.893156829   0 0 0 0 0.82516572   0 0 0 0 1  0 0 0 0.5 0"/>
    </filter>
  </defs>
  <g fill="none" fill-rule="evenodd" transform="translate(0 1)">
    <ellipse cx="82.5" cy="68.5" fill="#F6F1FF" stroke="#5A29A7" stroke-dasharray="5" stroke-linecap="round" stroke-width="2" rx="67.5" ry="68.5"/>
    <text fill="#FFF" stroke="#5A29A7" font-family="Moon-Bold, Moon" font-size="80" font-weight="bold">
      <tspan x="59" y="102">3</tspan>
    </text>
    <use fill="#000" filter="url(#guide-3-a)" xlink:href="#guide-3-b"/>
    <use fill="#FFF" stroke="#5A29A7" stroke-width="2" xlink:href="#guide-3-b"/>
    <rect width="19" height="15" y="96" fill="#FFF"/>
    <g fill="#5A29A7" fill-rule="nonzero" transform="translate(118 104)">
      <path d="M0,1.33046601 L0,20.669534 C0,21.40474 0.595259994,22 1.33046601,22 L20.669534,22 C21.40474,22 22,21.40474 22,20.669534 L22,1.33046601 C22,0.595259994 21.40474,0 20.669534,0 L1.33046601,0 C0.595259994,0 0,0.595259994 0,1.33046601 Z M19.9900142,20.4827586 L2.76860645,20.4827586 C2.4966116,20.4827586 2.27586207,20.2591209 2.27586207,19.9835679 L2.27586207,5.80953559 C2.27586207,5.53398257 2.4966116,5.31034483 2.76860645,5.31034483 L19.9900142,5.31034483 C20.2620091,5.31034483 20.4827586,5.53398257 20.4827586,5.80953559 L20.4827586,19.9835679 C20.4827586,20.2591209 20.2620091,20.4827586 19.9900142,20.4827586 Z M4.96145225,14.2093714 C4.69437131,14.4819337 4.26049437,14.4819337 3.99341343,14.2093714 C3.72633345,13.936808 3.72633345,13.4940233 3.99341343,13.221461 L5.54473101,11.6372535 C5.68492221,11.4952276 5.68492221,11.2633931 5.54473101,11.1203233 L3.99341343,9.53715967 C3.72633345,9.26459734 3.72633345,8.82181267 3.99341343,8.54924933 C4.26049437,8.27668701 4.69437131,8.27668701 4.96145225,8.54924933 L7.4818309,11.1203233 C7.6209989,11.2633931 7.6209989,11.4952276 7.4818309,11.6372535 L4.96145225,14.2093714 Z M15.1724138,11 C15.1724138,11.6276486 14.8553783,12.137931 14.4654246,12.137931 L10.5690582,12.137931 C10.1780477,12.137931 9.86206897,11.6276486 9.86206897,11 C9.86206897,10.3706513 10.1780477,9.86206897 10.5690582,9.86206897 L14.4654246,9.86206897 C14.8553783,9.86206897 15.1724138,10.3706513 15.1724138,11 Z"/>
    </g>
  </g>
</svg>
