<svg xmlns="http://www.w3.org/2000/svg" width="62" height="65" viewBox="0 0 62 65">
  <path fill="#F6F6FF" stroke="#D0D0FF" stroke-dasharray="4" d="M60,31.5 C60,32.9557125 59.4972826,34.182285 58.4918478,35.1797176 L31.9565217,61.5038511 C30.8967391,62.5012837 29.6603261,63 28.2472826,63 C26.861413,63 25.638587,62.5012837 24.5788043,61.5038511 L21.5217391,58.4711168 C20.4891304,57.4467266 19.9728261,56.220154 19.9728261,54.7913992 C19.9728261,53.3626444 20.4891304,52.1360719 21.5217391,51.1116816 L33.4646739,39.2637997 L4.76902174,39.2637997 C3.35597826,39.2637997 2.20788043,38.758344 1.32472826,37.7474326 C0.441576087,36.7365212 0,35.5166881 0,34.0879332 L0,28.9120668 C0,27.4833119 0.441576087,26.2634788 1.32472826,25.2525674 C2.20788043,24.241656 3.35597826,23.7362003 4.76902174,23.7362003 L33.4646739,23.7362003 L21.5217391,11.8478819 C20.4891304,10.8774069 19.9728261,9.66431322 19.9728261,8.20860077 C19.9728261,6.75288832 20.4891304,5.53979461 21.5217391,4.56931964 L24.5788043,1.53658537 C25.611413,0.512195122 26.8342391,0 28.2472826,0 C29.6875,0 30.923913,0.512195122 31.9565217,1.53658537 L58.4918478,27.8607189 C59.4972826,28.8042362 60,30.0173299 60,31.5 Z" transform="translate(1 1)"/>
</svg>
