<?xml version="1.0" encoding="UTF-8"?>
<svg width="18px" height="18px" viewBox="0 0 18 18" version="1.1" xmlns="http://www.w3.org/2000/svg" xmlns:xlink="http://www.w3.org/1999/xlink">
    <!-- Generator: Sketch 48.2 (47327) - http://www.bohemiancoding.com/sketch -->
    <title>价格，标签</title>
    <desc>Created with Sketch.</desc>
    <defs></defs>
    <g id="Artboard" stroke="none" stroke-width="1" fill="none" fill-rule="evenodd" transform="translate(-1001.000000, -253.000000)">
        <g id="价格，标签" transform="translate(1001.000000, 253.000000)" fill="#000000" fill-rule="nonzero">
            <path d="M7.86478436,18 C7.28497537,18 6.79282943,17.6267066 6.23198797,17.0657353 L0.938475992,11.7707714 C-0.312825331,10.5193867 -0.312825331,9.75603435 0.938475992,8.50467028 L9.28052607,0.160462714 C9.39653735,0.04440397 9.5569368,-0.0136047967 9.72162458,0.00270695908 L16.7983951,0.702709496 C16.819548,0.704586071 16.8404123,0.707514338 16.8609673,0.711803652 C17.1063909,0.761254407 17.2865826,0.972234703 17.2991383,1.22008653 L17.9973707,8.28005907 C18.01339,8.44342394 17.9556421,8.60520092 17.8396515,8.72125967 L9.49706534,17.0657353 C8.9364919,17.6264385 8.44459335,18 7.86478436,18 Z M9.87155064,1.11792678 L1.71264048,9.27901394 C0.894376449,10.097488 0.894376449,10.1779537 1.71264048,10.9964277 L7.00617307,16.2913917 C7.26947145,16.5547716 7.64504946,16.9047832 7.86478436,16.9047832 C8.08427185,16.9047832 8.45960245,16.5547716 8.72290085,16.2913917 L16.8823471,8.13005704 L16.2509134,1.74923852 L9.87155064,1.11792678 Z" id="Shape"></path>
            <path d="M3.75606666,11 C3.67616063,11 3.59623106,10.9757949 3.53526068,10.927422 C2.71451255,10.2765323 2.91123148,9.89135793 3.62796297,9.32291104 L6.46687361,7.07254537 C6.58888497,6.97581821 6.78649776,6.97581821 6.90850912,7.07254537 C7.03049696,7.16925388 7.03049696,7.325953 6.90850912,7.42266151 L4.06957496,9.67304583 C3.49343763,10.130015 3.4873453,10.1890173 3.97687267,10.5773058 C4.09886051,10.6740517 4.09886051,10.8307135 3.97687267,10.927422 C3.91587875,10.9758136 3.83597269,11 3.75606666,11 Z" id="Shape"></path>
            <path d="M6.35557301,7 C6.26460614,7 6.17396059,6.96529186 6.1045237,6.89625021 C5.96527503,6.75779228 5.96527503,6.53260411 6.10382745,6.39382505 L6.3927149,6.10443887 C6.53158868,5.96496404 6.75658242,5.96563305 6.8954562,6.10376985 C7.03473167,6.24220103 7.03473167,6.46736242 6.89615245,6.60614148 L6.607265,6.89552766 C6.53782811,6.96529186 6.44651312,7 6.35557301,7 Z" id="Shape"></path>
            <path d="M13.5002952,8 C12.121486,8 11,6.87853672 11,5.5 C11,4.12146328 12.1215087,3 13.5002952,3 C14.8785367,3 16,4.121486 16,5.5 C16,6.8785367 14.8785367,8 13.5002952,8 Z M13.5002952,4.2060039 C12.7865934,4.2060039 12.2059585,4.78659339 12.2059585,5.5 C12.2059585,6.21340661 12.7865934,6.7940188 13.5002952,6.7940188 C14.2137245,6.7940188 14.7940188,6.21340661 14.7940188,5.5 C14.7940188,4.78657069 14.2137245,4.2060039 13.5002952,4.2060039 Z" id="Shape"></path>
        </g>
    </g>
</svg>