<?xml version="1.0" encoding="utf-8"?>
<!-- Generator: Adobe Illustrator 17.0.0, SVG Export Plug-In . SVG Version: 6.00 Build 0)  -->
<!DOCTYPE svg PUBLIC "-//W3C//DTD SVG 1.1//EN" "http://www.w3.org/Graphics/SVG/1.1/DTD/svg11.dtd">
<svg version="1.1" id="图层_1" xmlns="http://www.w3.org/2000/svg" xmlns:xlink="http://www.w3.org/1999/xlink" x="0px" y="0px"
	 width="515.719px" height="202.092px" viewBox="0 0 515.719 202.092" enable-background="new 0 0 515.719 202.092"
	 xml:space="preserve">
<g>
	<g>
		<path fill="#FFFFFF" d="M515.662,89.604c0-12.13,0-24.261,0-36.391c-1.612-0.118-1.956,1.352-2.726,2.238
			c-2.656,3.056-5.926,4.03-9.482,2.734c-3.471-1.264-5.337-3.863-5.364-7.878c-0.069-10.598-0.071-21.197-0.001-31.795
			c0.03-4.578,1.882-7.235,5.576-8.427c3.835-1.238,7.167-0.028,9.821,3.522c0.575,0.768,0.824,1.972,2.176,1.842
			c0-3.662-0.066-7.325,0.038-10.985c0.034-1.196-0.215-1.609-1.414-1.392c-0.553,0.1-1.141,0.017-1.714,0.017
			c-170.626,0-341.252,0-511.878,0c-0.729,0.86-0.678,1.906-0.676,2.932c0.04,22.493-0.116,44.987,0.074,67.47
			c1.43,2.556,2.179,0.153,2.753-0.557c2.017-2.496,4.478-3.805,7.705-3.642c4.288,0.217,7.435,2.971,7.631,7.274
			c0.318,6.948,0.204,13.913,0.046,20.868c-0.078,3.449-2.047,5.702-5.162,6.997c-3.075,1.279-5.734,0.46-8.295-1.484
			c-1.351-1.025-1.91-3.23-4.187-2.936c-0.496,0.558-0.554,1.246-0.552,1.933c0.033,8.912-0.179,17.823,0.104,26.728
			c0.418,1.066,1.063,1.025,1.801,0.335c0.836-0.781,1.393-1.813,2.254-2.573c2.653-2.337,5.705-2.863,8.941-1.619
			c3.324,1.277,4.995,3.917,5.102,7.433c0.164,5.364-0.017,10.733,0.077,16.099c0.094,5.387,1.316,10.513,4.947,14.623
			c2.534,2.87,5.371,5.67,9.823,5.051c1.08-1.399,0.779-3.053,0.814-4.629c0.096-4.346-0.256-8.708,0.168-13.037
			c0.451-4.595,3.746-7.828,7.927-8.139c3.929-0.294,7.4,2.49,8.624,6.884c0.528,1.896,0.636,3.827,0.634,5.78
			c-0.007,7.667,0.394,15.36-0.108,22.994c-0.569,8.649,7.048,17.859,17.236,18.954c8.757,0.941,17.678-5.878,19.713-15.159
			c0.368-1.677,0.586-3.381,0.864-5.074c0.55-3.339,2.367-5.639,5.694-6.615c3.311-0.972,6.073-0.067,8.401,2.412
			c0.785,0.836,1.409,1.806,2.221,2.614c0.544,0.542,1.12,0.799,1.656-0.039c1.017-6.823,0.66-13.66,0.243-20.49
			c-1.415-2.588-2.174-0.299-2.809,0.523c-2.342,3.031-5.12,4.898-9.128,3.991c-3.806-0.861-6.066-3.38-6.418-7.07
			c-0.41-4.306,1.241-7.318,4.879-8.895c3.63-1.574,6.807-0.753,9.664,2.069c0.979,0.967,1.01,3.648,3.544,2.453
			c0.722-1.637,0.412-3.382,0.543-5.079c0.358-4.613,3.377-7.621,7.919-7.888c4.602-0.27,7.751,2.311,8.537,7.068
			c0.261,1.578,0.453,3.167,0.789,4.733c1.676,7.817,8.151,13.938,15.66,14.806c8.716,1.008,16.011-2.931,19.707-10.596
			c1.169-2.424,1.617-4.961,1.606-7.638c-0.032-7.887-0.011-15.774-0.013-23.66c0-1.949,0.078-3.885,0.623-5.774
			c1.137-3.943,4.129-6.359,7.923-6.389c3.744-0.029,6.937,2.38,8.169,6.155c0.579,1.772,0.56,3.603,0.56,5.432
			c0.003,14.745-0.01,29.49,0.015,44.234c0.003,1.689-0.286,3.452,0.772,4.991c1.946,1,3.584-0.039,5.135-0.934
			c6.533-3.778,9.54-9.658,9.727-17.046c0.144-5.719-0.063-11.443,0.076-17.163c0.102-4.207,2.16-7.059,5.622-8.145
			c5.57-1.748,10.615,1.627,10.855,7.491c0.252,6.172,0.035,12.357,0.087,18.535c0.013,1.582-0.241,3.224,0.695,4.676
			c1.717,0.743,2.123-0.884,2.866-1.698c2.35-2.577,5.082-3.912,8.566-2.829c3.61,1.123,5.747,3.636,6.309,7.376
			c0.272,1.808,0.434,3.628,0.912,5.403c2.439,9.056,11.126,15.099,20.165,14.01c9.179-1.106,16.33-8.788,16.578-18.14
			c0.218-8.228,0.04-16.463,0.06-24.695c0.004-1.6-0.039-3.203,0.327-4.78c0.9-3.873,4.207-6.736,7.973-6.899
			c3.311-0.143,6.822,2.374,8.091,5.841c0.716,1.955,0.948,3.992,0.944,6.068c-0.007,4.916-0.023,9.833,0.011,14.749
			c0.01,1.466-0.216,2.995,0.737,4.309c1.497,0.48,1.632-0.872,2.108-1.646c2.576-4.204,5.574-5.635,9.946-4.671
			c3.507,0.773,5.703,3.565,6.3,8.033c0.181,1.36,0.13,2.729,0.132,4.096c0.008,4.899-0.066,9.799,0.023,14.696
			c0.123,6.713,3.478,11.649,8.842,15.333c1.48,1.017,3.143,1.9,5.108,1.481c1.161-1.21,0.898-2.754,0.891-4.196
			c-0.009-2.287,0.214-4.539,0.789-6.744c0.903-3.459,3.353-5.344,6.701-6.003c3.285-0.646,5.996,0.482,8.104,3.148
			c0.804,1.017,0.901,3.005,3.006,2.498c0.943-1.455,0.675-3.097,0.683-4.677c0.043-8.353-0.055-16.707,0.054-25.059
			c0.048-3.722,1.987-6.271,5.393-7.617c3.188-1.26,6.086-0.505,8.585,1.747c2.007,1.81,2.634,4.163,2.624,6.815
			c-0.031,8.467-0.114,16.937,0.019,25.403c0.162,10.27,6.268,17.752,15.822,19.639c10.058,1.987,20.646-5.865,21.684-16.11
			c0.173-1.708,0.201-3.427,0.849-5.053c2.357-5.914,9.029-7.435,13.738-3.171c0.939,0.85,1.518,2.416,3.266,1.98
			c1.082-1.529,0.771-3.293,0.775-4.977c0.03-11.299,0.012-22.599,0.017-33.898c0.001-1.828,0.009-3.654,0.612-5.416
			c1.262-3.695,4.941-6.014,8.832-5.556c3.883,0.458,6.905,3.557,7.057,7.578c0.215,5.702-0.083,11.415,0.113,17.117
			c0.277,8.063,3.254,14.648,10.815,18.484c1.202,0.61,2.419,1.375,3.881,0.747c1.262-1.456,0.928-3.24,0.932-4.917
			c0.031-13.598,0.014-27.197,0.02-40.795c0.001-1.827-0.051-3.66,0.546-5.43c1.267-3.759,4.019-5.734,8.01-5.732
			c3.777,0.001,6.775,2.225,7.879,5.912c0.525,1.756,0.677,3.588,0.967,5.393c1.349,8.383,8.73,15.114,16.871,15.427
			c9.818,0.378,17.616-5.153,19.775-14.023c0.625-2.567,0.901-5.164,0.891-7.811c-0.03-7.656-0.047-15.312,0.004-22.969
			c0.031-4.757,1.898-7.716,5.486-8.935c3.817-1.296,6.983-0.071,10.033,3.862C514.164,88.75,514.49,89.743,515.662,89.604z"/>
		<path fill="#E44A4A" d="M515.662,89.604c-1.873-3.514-4.064-6.62-8.55-6.923c-5.761-0.388-10.059,3.499-10.143,9.519
			c-0.123,8.805,0.035,17.615-0.065,26.42c-0.129,11.415-8.543,19.248-19.656,18.448c-7.93-0.572-14.893-7.2-15.87-15.111
			c-0.154-1.247-0.229-2.509-0.447-3.744c-0.963-5.424-4.846-8.555-10.08-8.172c-4.853,0.355-8.464,4.2-8.548,9.458
			c-0.118,7.433-0.019,14.868-0.04,22.303c-0.024,8.69-0.078,17.381-0.119,26.071c-1.14,1.335-1.04,2.967-1.045,4.551
			c-0.026,9.334-0.027,18.667,0,28.001c0.005,1.586-0.078,3.217,1.093,4.533c23.689,0,47.377-0.033,71.066,0.058
			c2.048,0.008,2.464-0.413,2.46-2.462C515.641,164.904,515.662,127.254,515.662,89.604z"/>
		<path fill="#ED6C29" d="M179.946,167.976c-0.047-17.148-0.084-34.297-0.148-51.445c-0.022-5.977-3.452-10.131-8.585-10.502
			c-6.078-0.44-10.284,3.745-10.343,10.48c-0.077,8.919,0.087,17.84-0.077,26.756c-0.156,8.419-6.261,15.505-14.28,16.98
			c-8.347,1.535-16.574-2.854-19.883-10.6c-1.003-2.346-1.314-4.83-1.529-7.342c-0.476-5.558-4.352-9.132-9.677-8.961
			c-5.242,0.168-8.896,4.085-9.016,9.667c-0.036,1.715-0.058,3.429-0.087,5.143c-1.112,1.709-1.112,3.417,0,5.126
			c-0.003,7.401-0.006,14.801-0.01,22.202c-1.003,1.119-0.95,2.517-0.958,3.866c-0.044,7.145-0.038,14.291-0.006,21.436
			c0.007,1.475,0,2.972,1.084,4.176c24.49,0,48.979,0,73.469,0c1.085-1.205,1.081-2.705,1.086-4.181
			c0.033-9.539,0.034-19.078-0.003-28.618C180.981,170.696,181.081,169.173,179.946,167.976z"/>
		<path fill="#F7C776" d="M285.715,154.138c-0.069-6.745-0.145-13.49-0.205-20.234c-0.019-2.188-0.214-4.348-1.153-6.351
			c-1.823-3.884-6.149-6.065-10.155-5.184c-4.815,1.06-7.683,4.457-7.729,9.496c-0.078,8.575-0.009,17.151-0.028,25.727
			c-0.023,10.817-7.336,18.936-17.26,19.197c-10.086,0.265-17.819-7.3-18.468-18.068c-0.272-4.499-2.869-7.727-7.18-8.928
			c-3.855-1.073-7.506,0.38-10.064,4.012c-0.392,0.557-0.753,1.137-1.128,1.706c-1.274,0.963-1.237,2.399-1.244,3.749
			c-0.069,13.943-0.052,27.887-0.015,41.829c0.004,1.378,0.081,2.758,1.088,3.865c24.49,0,48.979,0,73.469,0
			c0.913-1.002,1.068-2.247,1.074-3.514c0.064-14.595,0.057-29.189,0-43.783C286.712,156.413,286.689,155.129,285.715,154.138z"/>
		<path fill="#195C87" d="M106.434,204.957c-0.04-9.827-0.08-19.653-0.12-29.48c-0.484-0.894-0.901-1.834-1.465-2.677
			c-2.188-3.275-6.188-4.888-9.851-4.031c-3.977,0.93-6.744,4.027-7.23,8.147c-0.268,2.265-0.364,4.544-1.112,6.74
			c-2.685,7.878-10.725,13.163-18.602,12.177c-8.891-1.113-15.622-7.773-15.968-16.504c-0.352-8.903-0.153-17.826-0.181-26.742
			c-0.006-1.836-0.045-3.665-0.716-5.4c-1.514-3.915-5.816-6.487-9.84-5.913c-4.758,0.679-8.165,4.417-8.298,9.431
			c-0.152,5.71-0.096,11.426-0.13,17.14c-1.124,1.34-1.045,2.968-1.049,4.556c-0.024,9.34-0.026,18.679,0.001,28.019
			c0.005,1.587-0.079,3.219,1.094,4.536C57.455,204.957,81.945,204.957,106.434,204.957z"/>
		<path fill="#6BA1CB" d="M409.817,174.068c-4.697-6.569-11.446-7.504-15.998-2.221c-1.559,1.81-2.401,3.96-2.324,6.287
			c0.274,8.218-6.599,17.626-18.094,17.666c-9.955,0.035-17.576-8.335-17.648-18.928c-0.056-8.452,0.004-16.906-0.018-25.358
			c-0.016-6.286-3.722-10.391-9.316-10.391c-5.592,0-9.303,4.103-9.338,10.384c-0.053,9.593-0.076,19.188-0.112,28.781
			c-0.19,0.279-0.48,0.518-0.515,0.865c-0.745,7.44-0.528,14.885-0.108,22.33c0.032,0.57,0.432,1.034,0.793,1.475
			c24.49,0,48.979,0,73.469,0c1.084-1.208,1.068-2.709,1.073-4.184c0.027-7.041,0.064-14.081-0.021-21.121
			C411.636,177.635,411.721,175.501,409.817,174.068z"/>
		<path fill="#95D2CE" d="M32.966,204.957c-0.015-12.371-0.031-24.74-0.046-37.111c-8.394-2.312-13.409-8.977-13.571-18.219
			c-0.093-5.356,0.004-10.715-0.026-16.073c-0.03-5.429-2.484-9.04-6.845-10.177c-4.489-1.17-8.329,0.672-11.064,5.287
			c-0.163,0.277-0.448,0.482-0.676,0.721c-1.155,1.266-0.704,2.83-0.706,4.267C0.001,154.926,0.011,176.2,0.01,197.472
			c0.452,2.558-1.309,5.726,2.057,7.486C12.367,204.957,22.666,204.957,32.966,204.957z"/>
		<path fill="#95D2CE" d="M212.174,204.957c-0.026-16.482-0.351-32.963,0.17-49.443c-0.03-7.543-0.042-15.086-0.099-22.628
			c-0.045-5.985-3.526-9.656-9.133-9.706c-5.694-0.052-9.441,3.783-9.482,9.781c-0.037,5.486-0.001,10.973-0.012,16.459
			c-0.019,9.453-4.615,15.682-13.672,18.555c-0.014,12.328-0.029,24.654-0.043,36.982
			C190.661,204.957,201.417,204.957,212.174,204.957z"/>
		<path fill="#F7C776" d="M409.817,174.068c1.423,7.882,0.368,15.835,0.676,23.75c0.092,2.377,0.08,4.76,0.116,7.139
			c10.528,0,21.057,0,31.584,0c-0.016-12.362-0.032-24.723-0.048-37.084c-8.953-3.077-13.462-9.287-13.543-18.756
			c-0.047-5.48,0.032-10.963-0.022-16.443c-0.057-5.712-3.877-9.695-9.232-9.74c-5.29-0.044-9.36,4.031-9.401,9.688
			C409.845,146.437,409.853,160.253,409.817,174.068z"/>
		<path fill="#95D2CE" d="M285.715,154.138c-0.024,16.94-0.048,33.879-0.071,50.818c10.986,0,21.972,0,32.958,0
			c1.435-4.63,2.193-9.238-0.432-13.74c-9.028-3.038-13.328-8.941-13.355-18.368c-0.016-5.484,0.121-10.972-0.047-16.451
			c-0.121-3.958-1.465-7.482-5.468-9.131c-3.626-1.494-7.097-1.14-10.294,1.388C287.174,150.1,286.836,152.329,285.715,154.138z"/>
		<path fill="#E44A4A" d="M515.662,15.448c-1.209-2.037-2.27-4.155-4.425-5.474c-6-3.673-13.973,0.133-14.16,7.187
			c-0.302,11.402-0.172,22.819-0.031,34.227c0.049,3.961,2.963,7.107,6.744,8.064c3.965,1.005,7.952-0.452,10.236-3.754
			c0.564-0.816,1.092-1.656,1.637-2.486C515.662,40.625,515.662,28.037,515.662,15.448z"/>
		<path fill="#ED6C29" d="M318.169,191.217c0.833,4.558,0.004,9.169,0.432,13.74c6.179,0,12.36,0,18.539,0
			c-0.056-8.223-0.112-16.446-0.169-24.669c-2.568-5.297-5.454-7.28-10.127-6.957c-4.189,0.289-7.794,3.396-8.309,7.681
			C318.13,184.379,318.271,187.813,318.169,191.217z"/>
		<path fill="#40AFAE" d="M2.068,204.957c-2.051-1.974-1.175-4.552-1.423-6.898c-0.573-1.201-0.289-2.48-0.29-3.719
			c-0.019-23.676,0.142-47.353-0.076-71.027c-0.12-13.029,1.122-26.038,0.632-39.043C-0.08,57.989,0.572,31.704,0.335,5.424
			C0.328,4.637,0.501,3.813,0.008,3.09c-1.437,0.759-0.644,2.08-0.645,3.083c-0.047,63.406-0.042,126.813-0.042,190.22
			c0,1.942,0.2,3.91-0.05,5.82C-1.042,204.596-0.269,205.47,2.068,204.957z"/>
		<path fill="#39ABAB" d="M0.008,3.09c0,63.568-0.004,127.137,0.027,190.705c0.001,1.422-0.56,2.987,0.611,4.264
			c0.03-22.891,0.061-45.783,0.092-68.674c-0.014-9.012-0.041-18.024-0.022-27.034c0.002-0.832-0.425-1.865,0.664-2.435
			c0.934-4.591,0.179-9.229,0.37-13.844c0.111-2.71,0.068-5.431-0.011-8.146c-0.036-1.233,0.004-2.517-1.001-3.483
			C0.722,50.657,0.708,26.874,0.694,3.09C0.465,3.09,0.237,3.09,0.008,3.09z"/>
		<path fill="#1A5C87" d="M33.011,53.223c0,5.024-0.042,10.05,0.011,15.074c0.062,5.921,3.952,10.135,9.293,10.171
			c5.38,0.035,9.476-4.06,9.545-9.961c0.123-10.39,0.112-20.784,0.007-31.174c-0.062-6.171-4.133-10.314-9.642-10.169
			c-5.309,0.139-9.141,4.383-9.202,10.301C32.968,42.716,33.011,47.97,33.011,53.223z"/>
		<path fill="#F7C776" d="M267.152,92.457c0,3.538-0.064,7.079,0.015,10.615c0.121,5.453,3.895,9.497,9.021,9.791
			c4.662,0.268,9.015-3.15,9.604-8.336c0.916-8.052,0.754-16.192,0.111-24.248c-0.419-5.249-5.221-8.857-9.901-8.444
			c-5.093,0.448-8.74,4.534-8.839,10.008C267.1,85.379,267.152,88.918,267.152,92.457z"/>
		<path fill="#6BA1CB" d="M410.571,112.817c-0.001-3.083,0.063-6.168-0.015-9.249c-0.134-5.285-3.855-9.448-8.663-9.806
			c-5.202-0.388-9.436,2.96-10.026,8.586c-0.726,6.922-0.707,13.926-0.031,20.843c0.549,5.615,4.748,8.693,10.202,8.34
			c4.916-0.319,8.432-4.332,8.525-9.806C410.613,118.755,410.572,115.785,410.571,112.817z"/>
		<path fill="#95D2CE" d="M0.736,74.442C0.722,81.841,0.72,89.24,0.68,96.64c-0.006,1.161,0.067,2.268,0.699,3.275
			c1.593,4.566,6.896,6.783,10.35,6.026c4.751-1.041,7.535-4.423,7.581-9.572c0.055-6.164,0.05-12.33,0.005-18.494
			c-0.035-4.846-2.415-8.205-6.486-9.345c-4.46-1.249-8.623,0.48-11.099,4.589C1.448,73.589,1.07,74.002,0.736,74.442z"/>
		<path fill="#ED6C29" d="M160.755,63.507c0,2.397-0.081,4.798,0.017,7.191c0.213,5.193,3.84,9.032,8.681,9.307
			c5.187,0.295,9.6-2.985,9.977-8.221c0.417-5.784,0.409-11.646-0.014-17.429c-0.377-5.148-4.602-8.332-9.681-8.135
			c-4.744,0.183-8.54,3.781-8.911,8.73c-0.213,2.837-0.038,5.704-0.038,8.558C160.776,63.507,160.765,63.507,160.755,63.507z"/>
		<path fill="#F7C776" d="M410.484,84.512c0.002,2.51-0.06,5.022,0.015,7.53c0.159,5.247,4.174,9.178,9.197,9.089
			c4.999-0.089,9.257-4.061,9.403-9.054c0.146-5.015,0.169-10.044-0.005-15.058c-0.181-5.198-4.308-9.049-9.317-9.031
			c-5.249,0.019-9.16,3.926-9.287,9.336C410.436,79.719,410.482,82.116,410.484,84.512z"/>
		<path fill="#ED6C29" d="M125.079,107.54c0-2.168,0.12-4.343-0.024-6.502c-0.329-4.921-4.455-8.677-9.335-8.641
			c-4.824,0.036-9.057,3.902-9.251,8.764c-0.178,4.444-0.175,8.905,0.002,13.348c0.188,4.747,4.233,8.48,8.99,8.625
			c4.835,0.147,9.194-3.6,9.567-8.41c0.184-2.381,0.032-4.79,0.032-7.185C125.066,107.54,125.072,107.54,125.079,107.54z"/>
		<path fill="#ED6C29" d="M337.414,130.074c0-1.713,0.164-3.444-0.031-5.135c-0.592-5.111-4.572-8.624-9.48-8.527
			c-4.82,0.095-8.88,3.893-9.194,8.895c-0.208,3.302-0.189,6.636-0.007,9.941c0.275,4.993,4.004,8.56,8.844,8.734
			c5.155,0.186,9.099-3.016,9.782-8.093c0.258-1.916,0.207-3.874,0.296-5.813C337.555,130.077,337.484,130.075,337.414,130.074z"/>
		<path fill="#1A5C87" d="M106.323,153.276c0-1.709,0-3.418,0-5.126c-2.779-5.231-6.344-7.505-10.615-6.772
			c-4.476,0.768-7.644,4.154-7.97,8.52c-0.345,4.621,2.12,8.438,6.306,9.765c4.378,1.388,8.703-0.289,11.132-4.327
			C105.582,154.663,105.942,153.963,106.323,153.276z"/>
		<path fill="#E44A4B" d="M452.345,82.884c5.393,0.063,9.727-4.137,9.679-9.378c-0.047-5.116-4.285-9.32-9.412-9.336
			c-5.144-0.016-9.366,4.116-9.477,9.275C443.023,78.61,447.134,82.822,452.345,82.884z"/>
		<path fill="#6BA1CB" d="M337.092,92.613c0.048,5.044,4.485,9.379,9.46,9.243c5.036-0.137,9.209-4.493,9.183-9.585
			c-0.025-5.066-4.349-9.451-9.319-9.451C341.326,82.82,337.041,87.319,337.092,92.613z"/>
	</g>
</g>
</svg>
