<?xml version="1.0" encoding="utf-8"?>
<!-- Generator: Adobe Illustrator 17.0.0, SVG Export Plug-In . SVG Version: 6.00 Build 0)  -->
<!DOCTYPE svg PUBLIC "-//W3C//DTD SVG 1.1//EN" "http://www.w3.org/Graphics/SVG/1.1/DTD/svg11.dtd">
<svg version="1.1" id="图层_1" xmlns="http://www.w3.org/2000/svg" xmlns:xlink="http://www.w3.org/1999/xlink" x="0px" y="0px"
	 width="515.719px" height="202.092px" viewBox="0 0 515.719 202.092" enable-background="new 0 0 515.719 202.092"
	 xml:space="preserve">
<g>
	<g>
		<path fill="#FFFFFF" d="M513.628,120.06c-3.05,3.933-6.216,5.158-10.033,3.862c-3.588-1.219-5.455-4.178-5.486-8.935
			c-0.051-7.657-0.034-15.313-0.004-22.969c0.01-2.647-0.266-5.244-0.891-7.811c-2.159-8.87-9.957-14.401-19.775-14.023
			c-8.141,0.313-15.522,7.044-16.871,15.427c-0.29,1.805-0.442,3.637-0.967,5.393c-1.104,3.687-4.102,5.911-7.879,5.912
			c-3.991,0.002-6.743-1.973-8.01-5.732c-0.597-1.77-0.545-3.603-0.546-5.43c-0.006-13.598,0.011-27.197-0.02-40.795
			c-0.004-1.677,0.33-3.461-0.932-4.917c-1.462-0.628-2.679,0.137-3.881,0.747c-7.561,3.836-10.538,10.421-10.815,18.484
			c-0.196,5.702,0.102,11.415-0.113,17.117c-0.152,4.021-3.174,7.12-7.057,7.578c-3.891,0.458-7.57-1.861-8.832-5.556
			c-0.603-1.762-0.611-3.588-0.612-5.416c-0.005-11.299,0.013-22.599-0.017-33.898c-0.004-1.684,0.307-3.448-0.775-4.977
			c-1.748-0.436-2.327,1.13-3.266,1.98c-4.709,4.264-11.381,2.743-13.738-3.171c-0.648-1.626-0.676-3.345-0.849-5.053
			c-1.038-10.245-11.626-18.097-21.684-16.11c-9.554,1.887-15.66,9.369-15.822,19.639c-0.133,8.466-0.05,16.936-0.019,25.403
			c0.01,2.652-0.617,5.005-2.624,6.815c-2.499,2.252-5.397,3.007-8.585,1.747c-3.406-1.346-5.345-3.895-5.393-7.617
			c-0.109-8.352-0.011-16.706-0.054-25.059c-0.008-1.58,0.26-3.222-0.683-4.677c-2.105-0.507-2.202,1.481-3.006,2.498
			c-2.108,2.666-4.819,3.794-8.104,3.148c-3.348-0.659-5.798-2.544-6.701-6.003c-0.575-2.205-0.798-4.457-0.789-6.744
			c0.007-1.442,0.27-2.986-0.891-4.196c-1.965-0.419-3.628,0.464-5.108,1.481c-5.364,3.684-8.719,8.62-8.842,15.333
			c-0.089,4.897-0.015,9.797-0.023,14.696c-0.002,1.367,0.049,2.736-0.132,4.096c-0.597,4.468-2.793,7.26-6.3,8.033
			c-4.372,0.964-7.37-0.467-9.946-4.671c-0.476-0.774-0.611-2.126-2.108-1.646c-0.953,1.314-0.727,2.843-0.737,4.309
			c-0.034,4.916-0.018,9.833-0.011,14.749c0.004,2.076-0.228,4.113-0.944,6.068c-1.269,3.467-4.78,5.984-8.091,5.841
			c-3.766-0.163-7.073-3.026-7.973-6.899c-0.366-1.577-0.323-3.18-0.327-4.78c-0.02-8.232,0.158-16.467-0.06-24.695
			c-0.248-9.352-7.399-17.034-16.578-18.14c-9.039-1.089-17.726,4.954-20.165,14.01c-0.478,1.775-0.64,3.595-0.912,5.403
			c-0.562,3.74-2.699,6.253-6.309,7.376c-3.484,1.083-6.216-0.252-8.566-2.829c-0.743-0.814-1.149-2.441-2.866-1.698
			c-0.936,1.452-0.682,3.094-0.695,4.676c-0.052,6.178,0.165,12.363-0.087,18.535c-0.24,5.864-5.285,9.239-10.855,7.491
			c-3.462-1.086-5.52-3.938-5.622-8.145c-0.139-5.72,0.068-11.444-0.076-17.163c-0.187-7.388-3.194-13.268-9.727-17.046
			c-1.551-0.895-3.189-1.934-5.135-0.934c-1.058,1.539-0.769,3.302-0.772,4.991c-0.025,14.744-0.012,29.489-0.015,44.234
			c0,1.829,0.019,3.66-0.56,5.432c-1.232,3.775-4.425,6.184-8.169,6.155c-3.794-0.03-6.786-2.446-7.923-6.389
			c-0.545-1.889-0.623-3.825-0.623-5.774c0.002-7.886-0.019-15.773,0.013-23.66c0.011-2.677-0.437-5.214-1.606-7.638
			c-3.696-7.665-10.991-11.604-19.707-10.596c-7.509,0.868-13.984,6.989-15.66,14.806c-0.336,1.566-0.528,3.155-0.789,4.733
			c-0.786,4.757-3.935,7.338-8.537,7.068c-4.542-0.267-7.561-3.275-7.919-7.888c-0.131-1.697,0.179-3.442-0.543-5.079
			c-2.534-1.195-2.565,1.486-3.544,2.453c-2.857,2.822-6.034,3.643-9.664,2.069c-3.638-1.577-5.289-4.589-4.879-8.895
			c0.352-3.69,2.612-6.209,6.418-7.07c4.008-0.907,6.786,0.96,9.128,3.991c0.635,0.822,1.394,3.111,2.809,0.523
			c0.417-6.83,0.774-13.667-0.243-20.49c-0.536-0.838-1.112-0.581-1.656-0.039c-0.812,0.808-1.436,1.778-2.221,2.614
			c-2.328,2.479-5.09,3.384-8.401,2.412c-3.327-0.976-5.144-3.276-5.694-6.615c-0.278-1.693-0.496-3.397-0.864-5.074
			c-2.035-9.281-10.956-16.1-19.713-15.159C58.187,12.382,50.57,21.592,51.139,30.241c0.502,7.634,0.101,15.327,0.108,22.994
			c0.002,1.953-0.106,3.884-0.634,5.78c-1.224,4.394-4.695,7.178-8.624,6.884c-4.181-0.311-7.476-3.544-7.927-8.139
			c-0.424-4.329-0.072-8.691-0.168-13.037c-0.035-1.576,0.266-3.23-0.814-4.629c-4.452-0.619-7.289,2.181-9.823,5.051
			c-3.631,4.11-4.853,9.236-4.947,14.623c-0.094,5.366,0.087,10.735-0.077,16.099c-0.107,3.516-1.778,6.156-5.102,7.433
			c-3.236,1.244-6.288,0.718-8.941-1.619c-0.861-0.76-1.418-1.792-2.254-2.573c-0.738-0.69-1.383-0.731-1.801,0.335
			c-0.283,8.905-0.071,17.816-0.104,26.728c-0.002,0.687,0.056,1.375,0.552,1.933c2.277,0.294,2.836-1.911,4.187-2.936
			c2.561-1.944,5.22-2.763,8.295-1.484c3.115,1.295,5.084,3.548,5.162,6.997c0.158,6.955,0.272,13.92-0.046,20.868
			c-0.196,4.303-3.343,7.057-7.631,7.274c-3.227,0.163-5.688-1.146-7.705-3.642c-0.574-0.71-1.323-3.113-2.753-0.557
			c-0.19,22.483-0.034,44.977-0.074,67.47c-0.002,1.026-0.053,2.072,0.676,2.932c170.626,0,341.252,0,511.878,0
			c0.573,0,1.161-0.083,1.714,0.017c1.199,0.217,1.448-0.196,1.414-1.392c-0.104-3.66-0.038-7.323-0.038-10.985
			c-1.352-0.13-1.601,1.074-2.176,1.842c-2.654,3.55-5.986,4.76-9.821,3.522c-3.694-1.192-5.546-3.849-5.576-8.427
			c-0.07-10.598-0.068-21.197,0.001-31.795c0.027-4.015,1.893-6.614,5.364-7.878c3.556-1.296,6.826-0.322,9.482,2.734
			c0.77,0.886,1.114,2.356,2.726,2.238c0-12.13,0-24.261,0-36.391C514.49,118.372,514.164,119.365,513.628,120.06z"/>
		<path fill="#E44A4A" d="M515.718,5.561c0.004-2.049-0.412-2.47-2.46-2.462c-23.689,0.091-47.377,0.058-71.066,0.058
			c-1.171,1.316-1.088,2.947-1.093,4.533c-0.027,9.334-0.026,18.667,0,28.001c0.005,1.584-0.095,3.216,1.045,4.551
			c0.041,8.69,0.095,17.381,0.119,26.071c0.021,7.435-0.078,14.87,0.04,22.303c0.084,5.258,3.695,9.103,8.548,9.458
			c5.234,0.383,9.117-2.748,10.08-8.172c0.218-1.235,0.293-2.497,0.447-3.744c0.977-7.911,7.94-14.539,15.87-15.111
			c11.113-0.8,19.527,7.033,19.656,18.448c0.1,8.805-0.058,17.615,0.065,26.42c0.084,6.02,4.382,9.907,10.143,9.519
			c4.486-0.303,6.677-3.409,8.55-6.923C515.662,80.861,515.641,43.211,515.718,5.561z"/>
		<path fill="#ED6C29" d="M180.983,35.956c0.037-9.54,0.036-19.079,0.003-28.618c-0.005-1.476-0.001-2.976-1.086-4.181
			c-24.49,0-48.979,0-73.469,0c-1.084,1.204-1.077,2.701-1.084,4.176c-0.032,7.145-0.038,14.291,0.006,21.436
			c0.008,1.349-0.045,2.747,0.958,3.866c0.004,7.401,0.007,14.801,0.01,22.202c-1.112,1.709-1.112,3.417,0,5.126
			c0.029,1.714,0.051,3.428,0.087,5.143c0.12,5.582,3.774,9.499,9.016,9.667c5.325,0.171,9.201-3.403,9.677-8.961
			c0.215-2.512,0.526-4.996,1.529-7.342c3.309-7.746,11.536-12.135,19.883-10.6c8.019,1.475,14.124,8.561,14.28,16.98
			c0.164,8.916,0,17.837,0.077,26.756c0.059,6.735,4.265,10.92,10.343,10.48c5.133-0.371,8.563-4.525,8.585-10.502
			c0.064-17.148,0.101-34.297,0.148-51.445C181.081,38.942,180.981,37.419,180.983,35.956z"/>
		<path fill="#F7C776" d="M286.717,50.458c0.057-14.594,0.064-29.188,0-43.783c-0.006-1.267-0.161-2.512-1.074-3.514
			c-24.49,0-48.979,0-73.469,0c-1.007,1.107-1.084,2.487-1.088,3.865c-0.037,13.942-0.054,27.886,0.015,41.829
			c0.007,1.35-0.03,2.786,1.244,3.749c0.375,0.569,0.736,1.149,1.128,1.706c2.558,3.632,6.209,5.085,10.064,4.012
			c4.311-1.201,6.908-4.429,7.18-8.928c0.649-10.768,8.382-18.333,18.468-18.068c9.924,0.261,17.237,8.38,17.26,19.197
			c0.019,8.576-0.05,17.152,0.028,25.727c0.046,5.039,2.914,8.436,7.729,9.496c4.006,0.881,8.332-1.3,10.155-5.184
			c0.939-2.003,1.134-4.163,1.153-6.351c0.06-6.744,0.136-13.489,0.205-20.234C286.689,52.986,286.712,51.702,286.717,50.458z"/>
		<path fill="#195C87" d="M32.967,3.159c-1.173,1.317-1.089,2.949-1.094,4.536c-0.027,9.34-0.025,18.679-0.001,28.019
			c0.004,1.588-0.075,3.216,1.049,4.556c0.034,5.714-0.022,11.43,0.13,17.14c0.133,5.014,3.54,8.752,8.298,9.431
			c4.024,0.574,8.326-1.998,9.84-5.913c0.671-1.735,0.71-3.564,0.716-5.4c0.028-8.916-0.171-17.839,0.181-26.742
			c0.346-8.731,7.077-15.391,15.968-16.504c7.877-0.986,15.917,4.299,18.602,12.177c0.748,2.196,0.844,4.475,1.112,6.74
			c0.486,4.12,3.253,7.217,7.23,8.147c3.663,0.857,7.663-0.756,9.851-4.031c0.564-0.843,0.981-1.783,1.465-2.677
			c0.04-9.827,0.08-19.653,0.12-29.48C81.945,3.158,57.455,3.158,32.967,3.159z"/>
		<path fill="#6BA1CB" d="M411.66,28.462c0.085-7.04,0.048-14.08,0.021-21.121c-0.005-1.475,0.011-2.976-1.073-4.184
			c-24.49,0-48.979,0-73.469,0c-0.361,0.441-0.761,0.905-0.793,1.475c-0.42,7.445-0.637,14.89,0.108,22.33
			c0.035,0.347,0.325,0.586,0.515,0.865c0.036,9.593,0.059,19.188,0.112,28.781c0.035,6.281,3.746,10.384,9.338,10.384
			c5.594,0,9.3-4.105,9.316-10.391c0.022-8.452-0.038-16.906,0.018-25.358c0.072-10.593,7.693-18.963,17.648-18.928
			c11.495,0.04,18.368,9.448,18.094,17.666c-0.077,2.327,0.765,4.477,2.324,6.287c4.552,5.283,11.301,4.348,15.998-2.221
			C411.721,32.614,411.636,30.48,411.66,28.462z"/>
		<path fill="#95D2CE" d="M2.067,3.157c-3.366,1.76-1.605,4.928-2.057,7.486c0.001,21.272-0.009,42.546,0.022,63.82
			c0.002,1.437-0.449,3.001,0.706,4.267c0.228,0.239,0.513,0.444,0.676,0.721c2.735,4.615,6.575,6.457,11.064,5.287
			c4.361-1.137,6.815-4.748,6.845-10.177c0.03-5.358-0.067-10.717,0.026-16.073c0.162-9.242,5.177-15.907,13.571-18.219
			c0.015-12.371,0.031-24.74,0.046-37.111C22.666,3.158,12.367,3.158,2.067,3.157z"/>
		<path fill="#95D2CE" d="M179.903,3.158c0.014,12.328,0.029,24.654,0.043,36.982c9.057,2.873,13.653,9.102,13.672,18.555
			c0.011,5.486-0.025,10.973,0.012,16.459c0.041,5.998,3.788,9.833,9.482,9.781c5.607-0.05,9.088-3.721,9.133-9.706
			c0.057-7.542,0.069-15.085,0.099-22.628c-0.521-16.48-0.196-32.961-0.17-49.443C201.417,3.158,190.661,3.158,179.903,3.158z"/>
		<path fill="#F7C776" d="M409.947,75.493c0.041,5.657,4.111,9.732,9.401,9.688c5.355-0.045,9.175-4.028,9.232-9.74
			c0.054-5.48-0.025-10.963,0.022-16.443c0.081-9.469,4.59-15.679,13.543-18.756c0.016-12.361,0.032-24.722,0.048-37.084
			c-10.527,0-21.056,0-31.584,0c-0.036,2.379-0.024,4.762-0.116,7.139c-0.308,7.915,0.747,15.868-0.676,23.75
			C409.853,47.862,409.845,61.678,409.947,75.493z"/>
		<path fill="#95D2CE" d="M289.006,59.461c3.197,2.528,6.668,2.882,10.294,1.388c4.003-1.649,5.347-5.173,5.468-9.131
			c0.168-5.479,0.031-10.967,0.047-16.451c0.027-9.427,4.327-15.33,13.355-18.368c2.625-4.502,1.867-9.11,0.432-13.74
			c-10.986,0-21.972,0-32.958,0c0.023,16.939,0.047,33.878,0.071,50.818C286.836,55.786,287.174,58.015,289.006,59.461z"/>
		<path fill="#E44A4A" d="M515.663,154.903c-0.545-0.83-1.073-1.67-1.637-2.486c-2.284-3.302-6.271-4.759-10.236-3.754
			c-3.781,0.957-6.695,4.103-6.744,8.064c-0.141,11.408-0.271,22.825,0.031,34.227c0.187,7.054,8.16,10.86,14.16,7.187
			c2.155-1.319,3.216-3.437,4.425-5.474C515.662,180.078,515.662,167.49,515.663,154.903z"/>
		<path fill="#ED6C29" d="M318.535,27.103c0.515,4.285,4.12,7.392,8.309,7.681c4.673,0.323,7.559-1.66,10.127-6.957
			c0.057-8.223,0.113-16.446,0.169-24.669c-6.179,0-12.36,0-18.539,0c-0.428,4.571,0.401,9.182-0.432,13.74
			C318.271,20.302,318.13,23.736,318.535,27.103z"/>
		<path fill="#40AFAE" d="M-0.729,5.902c0.25,1.91,0.05,3.878,0.05,5.82c0,63.407-0.005,126.814,0.042,190.22
			c0.001,1.003-0.792,2.324,0.645,3.083c0.493-0.723,0.32-1.547,0.327-2.334c0.237-26.28-0.415-52.565,0.576-78.846
			c0.49-13.005-0.752-26.014-0.632-39.043c0.218-23.674,0.057-47.351,0.076-71.027c0.001-1.239-0.283-2.518,0.29-3.719
			C0.893,7.71,0.017,5.132,2.068,3.158C-0.269,2.645-1.042,3.519-0.729,5.902z"/>
		<path fill="#39ABAB" d="M0.694,205.025c0.014-23.784,0.028-47.567,0.044-71.353c1.005-0.966,0.965-2.25,1.001-3.483
			c0.079-2.715,0.122-5.436,0.011-8.146c-0.191-4.615,0.564-9.253-0.37-13.844c-1.089-0.57-0.662-1.603-0.664-2.435
			c-0.019-9.01,0.008-18.022,0.022-27.034C0.707,55.839,0.676,32.947,0.646,10.056c-1.171,1.277-0.61,2.842-0.611,4.264
			C0.004,77.888,0.008,141.457,0.008,205.025C0.237,205.025,0.465,205.025,0.694,205.025z"/>
		<path fill="#1A5C87" d="M33.023,170.65c0.061,5.918,3.893,10.162,9.202,10.301c5.509,0.145,9.58-3.998,9.642-10.169
			c0.105-10.39,0.116-20.784-0.007-31.174c-0.069-5.901-4.165-9.996-9.545-9.961c-5.341,0.036-9.231,4.25-9.293,10.171
			c-0.053,5.024-0.011,10.05-0.011,15.074C33.011,160.145,32.968,165.399,33.023,170.65z"/>
		<path fill="#F7C776" d="M267.163,126.272c0.099,5.474,3.746,9.56,8.839,10.008c4.68,0.413,9.482-3.195,9.901-8.444
			c0.643-8.056,0.805-16.196-0.111-24.248c-0.589-5.186-4.942-8.604-9.604-8.336c-5.126,0.294-8.9,4.338-9.021,9.791
			c-0.079,3.536-0.015,7.077-0.015,10.615C267.152,119.197,267.1,122.736,267.163,126.272z"/>
		<path fill="#6BA1CB" d="M410.563,86.39c-0.093-5.474-3.609-9.487-8.525-9.806c-5.454-0.353-9.653,2.725-10.202,8.34
			c-0.676,6.917-0.695,13.921,0.031,20.843c0.59,5.626,4.824,8.974,10.026,8.586c4.808-0.358,8.529-4.521,8.663-9.806
			c0.078-3.081,0.014-6.166,0.015-9.249C410.572,92.33,410.613,89.36,410.563,86.39z"/>
		<path fill="#95D2CE" d="M1.73,134.996c2.476,4.109,6.639,5.838,11.099,4.589c4.071-1.14,6.451-4.499,6.486-9.345
			c0.045-6.164,0.05-12.33-0.005-18.494c-0.046-5.149-2.83-8.531-7.581-9.572c-3.454-0.757-8.757,1.46-10.35,6.026
			c-0.632,1.007-0.705,2.114-0.699,3.275c0.04,7.4,0.042,14.799,0.056,22.198C1.07,134.113,1.448,134.526,1.73,134.996z"/>
		<path fill="#ED6C29" d="M160.786,144.607c0,2.854-0.175,5.721,0.038,8.558c0.371,4.949,4.167,8.547,8.911,8.73
			c5.079,0.197,9.304-2.987,9.681-8.135c0.423-5.783,0.431-11.645,0.014-17.429c-0.377-5.236-4.79-8.516-9.977-8.221
			c-4.841,0.275-8.468,4.114-8.681,9.307c-0.098,2.393-0.017,4.794-0.017,7.191C160.765,144.608,160.776,144.608,160.786,144.607z"
			/>
		<path fill="#F7C776" d="M410.49,130.791c0.127,5.41,4.038,9.317,9.287,9.336c5.009,0.018,9.136-3.833,9.317-9.031
			c0.174-5.014,0.151-10.043,0.005-15.058c-0.146-4.993-4.404-8.965-9.403-9.054c-5.023-0.089-9.038,3.842-9.197,9.089
			c-0.075,2.508-0.013,5.02-0.015,7.53C410.482,125.999,410.436,128.396,410.49,130.791z"/>
		<path fill="#ED6C29" d="M125.06,100.576c0-2.395,0.152-4.804-0.032-7.185c-0.373-4.81-4.732-8.557-9.567-8.41
			c-4.757,0.145-8.802,3.878-8.99,8.625c-0.177,4.443-0.18,8.904-0.002,13.348c0.194,4.862,4.427,8.728,9.251,8.764
			c4.88,0.036,9.006-3.72,9.335-8.641c0.144-2.159,0.024-4.334,0.024-6.502C125.072,100.575,125.066,100.575,125.06,100.576z"/>
		<path fill="#ED6C29" d="M337.624,78.039c-0.089-1.939-0.038-3.897-0.296-5.813c-0.683-5.077-4.627-8.279-9.782-8.093
			c-4.84,0.174-8.569,3.741-8.844,8.734c-0.182,3.305-0.201,6.639,0.007,9.941c0.314,5.002,4.374,8.8,9.194,8.895
			c4.908,0.097,8.888-3.416,9.48-8.527c0.195-1.691,0.031-3.422,0.031-5.135C337.484,78.04,337.555,78.038,337.624,78.039z"/>
		<path fill="#1A5C87" d="M105.176,52.779c-2.429-4.038-6.754-5.715-11.132-4.327c-4.186,1.327-6.651,5.144-6.306,9.765
			c0.326,4.366,3.494,7.752,7.97,8.52c4.271,0.733,7.836-1.541,10.615-6.772c0-1.708,0-3.417,0-5.126
			C105.942,54.152,105.582,53.452,105.176,52.779z"/>
		<path fill="#E44A4B" d="M443.135,134.67c0.111,5.159,4.333,9.291,9.477,9.275c5.127-0.016,9.365-4.22,9.412-9.336
			c0.048-5.241-4.286-9.441-9.679-9.378C447.134,125.293,443.023,129.505,443.135,134.67z"/>
		<path fill="#6BA1CB" d="M346.416,125.295c4.97,0,9.294-4.385,9.319-9.451c0.026-5.092-4.147-9.448-9.183-9.585
			c-4.975-0.136-9.412,4.199-9.46,9.243C337.041,120.796,341.326,125.295,346.416,125.295z"/>
	</g>
</g>
</svg>
