<?xml version="1.0" encoding="utf-8"?>
<!-- Generator: Adobe Illustrator 17.0.0, SVG Export Plug-In . SVG Version: 6.00 Build 0)  -->
<!DOCTYPE svg PUBLIC "-//W3C//DTD SVG 1.1//EN" "http://www.w3.org/Graphics/SVG/1.1/DTD/svg11.dtd">
<svg version="1.1" id="图层_1" xmlns="http://www.w3.org/2000/svg" xmlns:xlink="http://www.w3.org/1999/xlink" x="0px" y="0px"
	 width="431.313px" height="431.313px" viewBox="70.278 180.5 431.313 431.313"
	 enable-background="new 70.278 180.5 431.313 431.313" xml:space="preserve">
<g id="图层_1_1_">
</g>
<g>
	
		<circle fill="#FFFFFF" stroke="#303E5C" stroke-width="3" stroke-miterlimit="10" stroke-dasharray="10" cx="285.934" cy="396.156" r="213.656"/>
	<g>
		<path fill="#303E5C" d="M308.382,413.558l45.083-76.298l-0.008-0.004c0.075-0.126,0.129-0.264,0.143-0.414
			c0.024-0.265-0.059-0.529-0.229-0.733l-8.668-10.333c-0.177-0.211-0.433-0.339-0.707-0.355c-0.27-0.015-0.544,0.081-0.744,0.269
			l-16.332,15.333c-0.111,0.104-0.19,0.232-0.243,0.369l-0.004-0.002l-24.241,62.484l1.838-40.41l-0.005,0
			c0.001-0.015,0.006-0.029,0.006-0.045v-9.667c0-0.259-0.1-0.508-0.28-0.694l-9-9.333c-0.224-0.232-0.548-0.343-0.865-0.295
			c-0.319,0.047-0.596,0.245-0.744,0.532l-6,11.667c-0.096,0.187-0.113,0.397-0.083,0.603l-0.017,0.002l7.167,48.008l-37.122-24.821
			l-0.001,0.002c-0.303-0.201-0.69-0.226-1.013-0.059l-22.25,11.5c-0.181,0.093-0.32,0.242-0.414,0.416l-0.006-0.003l-3.25,6
			l0.011,0.007c-0.176,0.325-0.171,0.724,0.044,1.036l22.145,32.218c0.191,0.276,0.501,0.434,0.824,0.434
			c0.051,0,0.102-0.016,0.153-0.023l0.002,0.012l62.938-9.881c0.477-0.075,0.832-0.48,0.844-0.962
			c0.009-0.352-0.168-0.668-0.446-0.853l0.002-0.004l-0.024-0.016l-0.001-0.001L308.382,413.558z M295.793,361.335l2.153,32.862
			l-5.612-27.892L295.793,361.335z M297.744,360.523l4.503,3.377l-1.755,38.563L297.744,360.523z M311.486,418.038l-57.104-12.068
			l3.168-23.994L311.486,418.038z M302.512,409.634l38.354-61.883l7.968-6.586l-42.117,71.28L302.512,409.634z M343.849,327.87
			l7.342,8.752l-11.256,9.304l-10.531-4.494L343.849,327.87z M328.162,343.077l10.478,4.471l-32.649,52.677L328.162,343.077z
			 M294.52,346.118l7.75,8.037v7.263l-5.066-3.8c-0.217-0.163-0.489-0.229-0.759-0.188c-0.268,0.043-0.507,0.193-0.662,0.416
			l-4.151,5.966l-2.289-7.629L294.52,346.118z M292.281,376.182l6.185,30.747l-1.773-1.186L292.281,376.182z M255.528,382.019
			l-3.017,22.85l-16.164-12.936L255.528,382.019z M234.829,393.279l12.401,9.925l-14.551-5.956L234.829,393.279z M233.991,399.947
			l18.283,7.483l0.121,19.291L233.991,399.947z M254.408,428.801l-0.13-20.809l56.552,11.951L254.408,428.801z"/>
		<path fill="#303E5C" d="M194.47,286.049c0-0.324-0.157-0.628-0.422-0.816l-14.764-10.458c-0.321-0.227-0.745-0.245-1.084-0.047
			l-17.84,10.458c-0.162,0.095-0.275,0.241-0.361,0.404l-0.017-0.009l-33.833,63.98c-0.201,0.38-0.137,0.846,0.159,1.156
			l15.781,16.608c0.19,0.2,0.453,0.312,0.725,0.312c0.036,0,0.071-0.002,0.107-0.006c0.083-0.009,0.153-0.052,0.23-0.08l0.009,0.024
			l11.286-4.152c0.194-0.071,0.362-0.202,0.48-0.373l39.37-57.367l-0.004-0.003c0.111-0.163,0.18-0.356,0.18-0.563V286.049z
			 M178.655,276.78l13.815,9.786v17.809l-14.888,4.495l-15.288-22.499L178.655,276.78z M128.254,349.862l32.719-61.876
			l15.006,22.084l-33.341,54.931L128.254,349.862z M153.456,361.658l-8.303,3.055l32.671-53.826l13.211-3.989L153.456,361.658z"/>
		<path fill="#303E5C" d="M220.209,465.987c0.072-0.309-0.006-0.634-0.212-0.876c-0.067-0.078-0.158-0.122-0.243-0.175l0.014-0.022
			l-62.666-39.5l-0.004,0.006c-0.144-0.09-0.307-0.151-0.483-0.159c-0.399-0.026-0.772,0.203-0.946,0.564l-20.667,42.727
			c-0.13,0.269-0.133,0.581-0.009,0.852l33.77,73.75l0.006-0.003c0.091,0.199,0.24,0.368,0.439,0.473
			c0.146,0.076,0.305,0.114,0.464,0.114c0.166,0,0.332-0.041,0.482-0.124l36.23-19.916c0.255-0.14,0.416-0.382,0.479-0.651
			l0.013,0.003L220.209,465.987z M205.842,518.683l-6.306-23.845c-0.045-0.17-0.134-0.325-0.258-0.45l-24.454-24.555l43.129-2.982
			L205.842,518.683z M173.213,471.051l13.209,13.264l-18.976,18.741L173.213,471.051z M173.244,467.938l-14.698-39.25l57.566,36.285
			L173.244,467.938z M171.536,469.079l-6.618,36.73c-0.017,0.093-0.02,0.187-0.01,0.279l3.151,30.725l-14.261-31.146l3.712-74.042
			L171.536,469.079z M166.946,506.362l19.894-19.647v45.444l-16.327,8.975L166.946,506.362z M188.84,486.741l8.082,8.116
			l-8.082,4.438V486.741z M156.452,428.799l0.62,1.654l-1.386-0.069L156.452,428.799z M155.557,430.65l-3.564,71.077l-14.986-32.729
			L155.557,430.65z M188.84,531.059v-29.48l9.09-4.992l6.806,25.734L188.84,531.059z"/>
		<path fill="#303E5C" d="M332.552,276.626c0.004-0.457-0.302-0.857-0.743-0.975l-22.391-5.963l13.388-43.062l-0.018-0.005
			c0.073-0.233,0.074-0.483-0.028-0.708l-6.467-14.114c-0.131-0.285-0.388-0.493-0.694-0.56c-0.307-0.067-0.626,0.013-0.864,0.216
			l-10.51,8.982l0.005,0.006c-0.092,0.079-0.175,0.168-0.234,0.277l-21.025,38.752v-38.275h-0.01c0-0.323-0.147-0.631-0.418-0.82
			l-15.629-10.911c-0.275-0.193-0.631-0.234-0.944-0.108c-0.313,0.125-0.542,0.4-0.608,0.73l-3.233,16.042
			c-0.014,0.066-0.014,0.132-0.014,0.198h-0.006v55.627L251.5,297.67c-0.229,0.34-0.228,0.786,0.004,1.124l8.622,12.61
			c0.008,0.011,0.021,0.016,0.029,0.026c0.081,0.11,0.179,0.202,0.295,0.27c0.019,0.011,0.037,0.016,0.056,0.025
			c0.112,0.056,0.234,0.092,0.363,0.103c0.014,0.001,0.024,0.01,0.038,0.011c0.015,0,0.029,0.001,0.044,0.001h17.246
			c0.073,0,0.147-0.008,0.22-0.024l47.426-10.683c0.368-0.083,0.658-0.366,0.75-0.732l5.929-23.54l-0.011-0.003
			C332.529,276.783,332.551,276.707,332.552,276.626z M269.919,301.488l7.278-8.871v17.223h-14.132L269.919,301.488z
			 M277.403,288.306l-12.607-6.315l15.76-15.749L277.403,288.306z M270.725,225.294l0.398,47.545l-7.016,7.011v-52.756
			L270.725,225.294z M282.801,264.67l7.112,1.894l-8.265,6.171L282.801,264.67z M280.97,262.999l-7.863,7.857l-0.386-46.105
			l8.249-2.245V262.999z M281.249,275.53l11.128-8.31l35.155,9.362l-48.135,11.913L281.249,275.53z M312.15,223.644l2.147,4.796
			l-15.556,38.405l-5.316-1.416L312.15,223.644z M300.688,267.364l15.447-38.135l4.188-1.354l-12.84,41.298L300.688,267.364z
			 M315.026,213.837l5.446,11.887l-4.542,1.469l-2.867-6.403c-0.161-0.36-0.518-0.591-0.913-0.591h-4.567L315.026,213.837z
			 M305.469,222.199h5.138l-19.14,42.71l-8.013-2.134L305.469,222.199z M272.317,222.788l-3.839-9.789l11.166,7.796L272.317,222.788
			z M266.65,213.814l3.726,9.502l-5.969,1.624L266.65,213.814z M263.445,283.551l13.184,6.604l-15.605,19.019l-7.486-10.948
			L263.445,283.551z M279.197,290.604l47.628-11.787l-22.483,25.108l-25.145,5.663V290.604z M324.804,299.317l-17.099,3.851
			l22.44-25.06L324.804,299.317z"/>
		<path fill="#303E5C" d="M459.705,477.855l0.003-0.002l-16-30.002l-0.013,0.007c-0.101-0.19-0.251-0.355-0.461-0.449l-64-28.667
			c-0.449-0.2-0.976-0.047-1.244,0.363c-6.843,10.39-18.249,27.286-19.72,28.385c-0.307,0.205-0.477,0.562-0.44,0.929
			c0.025,0.262,0.155,0.496,0.35,0.661l-0.003,0.003l52,44.303c0.187,0.158,0.417,0.238,0.648,0.238
			c0.101,0,0.201-0.015,0.299-0.046l47.986-14.295c0.477-0.143,0.776-0.612,0.704-1.104
			C459.798,478.063,459.758,477.955,459.705,477.855z M457.158,477.324h-24.855l10.652-26.633L457.158,477.324z M379.193,420.915
			l62.348,27.927l-11.267,28.168l-69.751-29.064C364.471,443.139,375.775,426.096,379.193,420.915z M410.879,491.357L364.332,451.7
			l64.449,26.856L410.879,491.357z M416.276,489.958l14.87-10.633h20.819L416.276,489.958z"/>
		<path fill="#303E5C" d="M329.887,524.22l-27.991-22.266c-0.01-0.008-0.024-0.009-0.034-0.017c-0.107-0.079-0.225-0.14-0.356-0.171
			c-0.008-0.002-0.016-0.002-0.024-0.003c-0.068-0.015-0.137-0.027-0.208-0.027h-24c-0.398,0-0.739,0.242-0.898,0.593l-0.012-0.006
			l-22.667,50c-0.059,0.13-0.089,0.271-0.089,0.413v20.508h0.009c0,0.307,0.134,0.607,0.392,0.8l15.333,11.492
			c0.176,0.133,0.387,0.2,0.6,0.2c0.024,0,0.047-0.015,0.072-0.017l0.001,0.014l36.667-2.666c0.035-0.002,0.066-0.016,0.099-0.022
			c0.046-0.008,0.09-0.014,0.134-0.028c0.05-0.016,0.096-0.04,0.143-0.063c0.027-0.015,0.058-0.021,0.084-0.038l14-8.826
			c0.045-0.028,0.08-0.067,0.119-0.103l0.007,0.009l8.667-7.605c0.216-0.19,0.34-0.464,0.34-0.752V525.01
			C330.274,524.693,330.125,524.405,329.887,524.22z M306.194,579.991l-33.553-40.872l42.704,10.803L306.194,579.991z
			 M289.826,526.257l23.142,21l-40.499-10.244L289.826,526.257z M316.321,547.599l-25.143-22.816l10.432-20.501l26.395,20.997
			L316.321,547.599z M289.175,524.307l-17.772,11.015l6.682-31.585h21.559L289.175,524.307z M274.396,511.505l-5.414,25.597
			l-13.375,31.263v-15.412L274.396,511.505z M268.94,582.737l-13.104-9.822l13.104-30.631V582.737z M270.94,583.661v-43.462
			l33.669,41.014L270.94,583.661z M308.346,579.792l7.976-26.209l3.19,19.17L308.346,579.792z M328.274,565.186l-6.976,6.121
			l-3.65-21.931l10.625-20.3V565.186z"/>
		<path fill="#303E5C" d="M453.789,308.247h-0.003c-0.001-0.258-0.097-0.511-0.283-0.7l-14-14.275
			c-0.215-0.219-0.518-0.329-0.821-0.294l-44,4.756c-0.017,0.002-0.03,0.01-0.047,0.013c-0.059,0.009-0.115,0.026-0.173,0.046
			c-0.036,0.013-0.072,0.023-0.107,0.039c-0.013,0.006-0.025,0.007-0.037,0.014c-0.043,0.023-0.077,0.056-0.116,0.083
			c-0.028,0.021-0.059,0.038-0.084,0.061c-0.06,0.054-0.109,0.116-0.154,0.182c-0.009,0.013-0.021,0.023-0.028,0.037
			c-0.051,0.083-0.087,0.173-0.112,0.268c-0.001,0.004-0.004,0.008-0.005,0.012c-0.006,0.023-0.002,0.047-0.006,0.071
			c-0.01,0.056-0.023,0.111-0.023,0.168v43.253c0,0.011,0.004,0.02,0.005,0.031c0,0.008-0.003,0.016-0.003,0.024
			c0.002,0.029,0.015,0.054,0.018,0.082c0.006,0.044,0.009,0.087,0.021,0.129c0.008,0.028,0.017,0.054,0.027,0.081
			c0.015,0.039,0.034,0.073,0.054,0.109c0.014,0.026,0.019,0.055,0.034,0.081c0.004,0.005,0.009,0.009,0.013,0.015
			c0.016,0.024,0.036,0.044,0.055,0.067c0.018,0.024,0.037,0.047,0.058,0.069c0.024,0.025,0.049,0.05,0.074,0.072
			c0.025,0.022,0.054,0.039,0.081,0.058c0.016,0.011,0.03,0.024,0.047,0.034c0.011,0.006,0.019,0.016,0.03,0.021
			c0.026,0.015,0.057,0.024,0.085,0.036c0.017,0.007,0.029,0.021,0.047,0.027c0.013,0.005,0.026,0.003,0.039,0.007
			c0.038,0.012,0.074,0.024,0.113,0.032c0.01,0.002,0.018,0.008,0.027,0.01l35.333,6.275c0.058,0.011,0.116,0.015,0.174,0.016h0.001
			c0,0,0,0,0.001,0l0,0h0.001c0.048-0.001,0.097-0.003,0.144-0.011l22.667-3.344c0.393-0.058,0.714-0.342,0.818-0.724
			c0.024-0.088,0.033-0.177,0.033-0.266h0.003V308.247z M397.835,340.047l21.012-23.767l14.008,13.493L397.835,340.047z
			 M417.283,315.029l-21.494,24.311v-38.736L417.283,315.029z M435.448,329.495l-14.579-14.043l30.92-5.992v33.349L435.448,329.495z
			 M450.772,307.619l-31.767,6.156l-21.379-14.348l40.789-4.409L450.772,307.619z M433.379,331.704l-3.993,15.407l-30.228-5.369
			L433.379,331.704z M431.469,347.048l3.898-15.041l15.032,12.248L431.469,347.048z"/>
	</g>
</g>
</svg>
