<?xml version="1.0" encoding="utf-8"?>
<!-- Generator: Adobe Illustrator 17.0.0, SVG Export Plug-In . SVG Version: 6.00 Build 0)  -->
<!DOCTYPE svg PUBLIC "-//W3C//DTD SVG 1.1//EN" "http://www.w3.org/Graphics/SVG/1.1/DTD/svg11.dtd">
<svg version="1.1" id="图层_1" xmlns="http://www.w3.org/2000/svg" xmlns:xlink="http://www.w3.org/1999/xlink" x="0px" y="0px"
	 width="1599.555px" height="752px" viewBox="0 0 1599.555 752" enable-background="new 0 0 1599.555 752" xml:space="preserve">
<pattern  x="-159.722" y="916.5" width="433.426" height="568.87" patternUnits="userSpaceOnUse" id="SVGID_2_" viewBox="122.865 -656.643 433.426 568.87" overflow="visible">
	<g>
		<polygon fill="none" points="122.865,-87.773 556.291,-87.773 556.291,-656.643 122.865,-656.643 		"/>
		<g>
			<polygon fill="none" points="122.865,-656.643 556.291,-656.643 556.291,-87.773 122.865,-87.773 			"/>
			<g>
				<polygon fill="none" points="122.865,-87.773 556.291,-87.773 556.291,-656.643 122.865,-656.643 				"/>
				<g>
					<polygon fill="none" points="122.865,-87.773 556.291,-87.773 556.291,-656.643 122.865,-656.643 					"/>
					<g>
						<g>
							<g>
								<g>
									<polygon fill="none" stroke="#68C5DA" stroke-linecap="round" stroke-linejoin="round" stroke-miterlimit="10" points="
										515.735,-588.259 597.402,-669.926 619.069,-588.259 									"/>
									<polygon fill="none" stroke="#68C5DA" stroke-linecap="round" stroke-linejoin="round" stroke-miterlimit="10" points="
										597.402,-669.926 551.291,-769.37 515.735,-588.259 									"/>
									<polygon fill="none" stroke="#68C5DA" stroke-linecap="round" stroke-linejoin="round" stroke-miterlimit="10" points="
										515.735,-588.259 457.957,-656.037 536.934,-696.238 									"/>
									<polygon fill="none" stroke="#68C5DA" stroke-linecap="round" stroke-linejoin="round" stroke-miterlimit="10" points="
										536.934,-696.238 457.957,-656.037 551.291,-769.37 									"/>
									<polygon fill="none" stroke="#68C5DA" stroke-linecap="round" stroke-linejoin="round" stroke-miterlimit="10" points="
										515.735,-588.259 567.402,-514.926 619.069,-588.259 									"/>
									<polygon fill="none" stroke="#68C5DA" stroke-linecap="round" stroke-linejoin="round" stroke-miterlimit="10" points="
										515.735,-588.259 365.735,-569.37 457.957,-656.037 									"/>
									<polygon fill="none" stroke="#68C5DA" stroke-linecap="round" stroke-linejoin="round" stroke-miterlimit="10" points="
										567.402,-514.926 436.425,-578.272 515.735,-588.259 									"/>
									<polygon fill="none" stroke="#68C5DA" stroke-linecap="round" stroke-linejoin="round" stroke-miterlimit="10" points="
										365.735,-569.37 342.402,-684.926 427.217,-627.148 									"/>
									<polygon fill="none" stroke="#68C5DA" stroke-linecap="round" stroke-linejoin="round" stroke-miterlimit="10" points="
										551.291,-769.37 457.957,-656.037 342.402,-684.926 									"/>
								</g>
								<polygon fill="none" stroke="#68C5DA" stroke-linecap="round" stroke-linejoin="round" stroke-miterlimit="10" points="
									427.217,-627.148 342.402,-684.926 457.957,-656.037 								"/>
							</g>
							<polygon fill="none" stroke="#68C5DA" stroke-linecap="round" stroke-linejoin="round" stroke-miterlimit="10" points="
								365.735,-569.37 336.291,-589.26 342.402,-684.926 							"/>
							<polygon fill="none" stroke="#68C5DA" stroke-linecap="round" stroke-linejoin="round" stroke-miterlimit="10" points="
								342.402,-684.926 299.791,-726.037 336.291,-589.26 							"/>
							<polygon fill="none" stroke="#68C5DA" stroke-linecap="round" stroke-linejoin="round" stroke-miterlimit="10" points="
								433.926,-512.292 567.753,-514.273 515.381,-441.997 							"/>
							<polygon fill="none" stroke="#68C5DA" stroke-linecap="round" stroke-linejoin="round" stroke-miterlimit="10" points="
								436.425,-578.272 433.926,-512.292 567.753,-514.273 							"/>
							<polygon fill="none" stroke="#68C5DA" stroke-linecap="round" stroke-linejoin="round" stroke-miterlimit="10" points="
								336.291,-485.643 365.735,-569.37 433.926,-512.292 							"/>
							<polygon fill="none" stroke="#68C5DA" stroke-linecap="round" stroke-linejoin="round" stroke-miterlimit="10" points="
								558.904,-401.752 567.753,-514.273 515.381,-441.997 							"/>
						</g>
						<g>
							<path fill="#E6217F" d="M368.559-569.37c0-1.56-1.264-2.824-2.824-2.824s-2.824,1.264-2.824,2.824s1.264,2.824,2.824,2.824
								S368.559-567.81,368.559-569.37z"/>
							<path fill="#E6217F" d="M430.041-627.148c0-1.56-1.264-2.824-2.824-2.824s-2.824,1.264-2.824,2.824s1.264,2.824,2.824,2.824
								S430.041-625.588,430.041-627.148z"/>
							<path fill="#E6217F" d="M439.249-578.272c0-1.56-1.264-2.824-2.824-2.824s-2.824,1.264-2.824,2.824s1.264,2.824,2.824,2.824
								S439.249-576.712,439.249-578.272z"/>
							<path fill="#E6217F" d="M460.782-656.037c0-1.56-1.264-2.824-2.824-2.824s-2.824,1.264-2.824,2.824s1.264,2.824,2.824,2.824
								S460.782-654.477,460.782-656.037z"/>
							<path fill="#E6217F" d="M518.559-589.26c0-1.56-1.264-2.824-2.824-2.824s-2.824,1.264-2.824,2.824s1.264,2.824,2.824,2.824
								S518.559-587.7,518.559-589.26z"/>
						</g>
					</g>
					<g>
						<g>
							<g>
								<g>
									<polygon fill="none" stroke="#68C5DA" stroke-linecap="round" stroke-linejoin="round" stroke-miterlimit="10" points="
										82.309,-588.259 163.976,-669.926 185.643,-588.259 									"/>
									<polygon fill="none" stroke="#68C5DA" stroke-linecap="round" stroke-linejoin="round" stroke-miterlimit="10" points="
										163.976,-669.926 117.865,-769.37 82.309,-588.259 									"/>
									<polygon fill="none" stroke="#68C5DA" stroke-linecap="round" stroke-linejoin="round" stroke-miterlimit="10" points="
										185.643,-588.259 191.198,-706.037 163.976,-669.926 									"/>
									<polygon fill="none" stroke="#68C5DA" stroke-linecap="round" stroke-linejoin="round" stroke-miterlimit="10" points="
										185.643,-588.259 241.765,-656.486 298.976,-726.037 191.198,-706.037 									"/>
									<polygon fill="none" stroke="#68C5DA" stroke-linecap="round" stroke-linejoin="round" stroke-miterlimit="10" points="
										336.754,-588.259 241.765,-656.486 298.976,-726.037 									"/>
									<polygon fill="none" stroke="#68C5DA" stroke-linecap="round" stroke-linejoin="round" stroke-miterlimit="10" points="
										82.309,-588.259 133.976,-514.926 185.643,-588.259 									"/>
									<polygon fill="none" stroke="#68C5DA" stroke-linecap="round" stroke-linejoin="round" stroke-miterlimit="10" points="
										336.754,-588.259 185.643,-588.259 241.765,-656.486 									"/>
									<polygon fill="none" stroke="#68C5DA" stroke-linecap="round" stroke-linejoin="round" stroke-miterlimit="10" points="
										133.976,-514.926 273.42,-588.259 185.643,-588.259 									"/>
									<polygon fill="none" stroke="#68C5DA" stroke-linecap="round" stroke-linejoin="round" stroke-miterlimit="10" points="
										133.976,-514.926 2.999,-578.272 82.309,-588.259 									"/>
								</g>
							</g>
							<polygon fill="none" stroke="#68C5DA" stroke-linecap="round" stroke-linejoin="round" stroke-miterlimit="10" points="
								0.5,-512.292 134.327,-514.273 81.955,-441.997 							"/>
							<polygon fill="none" stroke="#68C5DA" stroke-linecap="round" stroke-linejoin="round" stroke-miterlimit="10" points="
								2.999,-578.272 0.5,-512.292 134.327,-514.273 							"/>
							<polygon fill="none" stroke="#68C5DA" stroke-linecap="round" stroke-linejoin="round" stroke-miterlimit="10" points="
								271.597,-588.259 333.93,-485.643 336.754,-588.259 							"/>
							<polygon fill="none" stroke="#68C5DA" stroke-linecap="round" stroke-linejoin="round" stroke-miterlimit="10" points="
								134.327,-514.273 194.022,-428.643 190.681,-496.618 188.374,-543.533 							"/>
							<polygon fill="none" stroke="#68C5DA" stroke-linecap="round" stroke-linejoin="round" stroke-miterlimit="10" points="
								271.597,-588.259 190.681,-496.618 188.374,-543.533 							"/>
							<polygon fill="none" stroke="#68C5DA" stroke-linecap="round" stroke-linejoin="round" stroke-miterlimit="10" points="
								274.421,-460.643 301.8,-538.537 333.93,-485.643 							"/>
							<polygon fill="none" stroke="#68C5DA" stroke-linecap="round" stroke-linejoin="round" stroke-miterlimit="10" points="
								125.478,-401.752 134.327,-514.273 81.955,-441.997 							"/>
							<polygon fill="none" stroke="#68C5DA" stroke-linecap="round" stroke-linejoin="round" stroke-miterlimit="10" points="
								194.022,-428.643 274.421,-460.643 190.681,-496.618 							"/>
						</g>
						<g>
							<path fill="#E6217F" d="M244.589-656.037c0-1.56-1.264-2.824-2.824-2.824s-2.824,1.264-2.824,2.824s1.264,2.824,2.824,2.824
								S244.589-654.477,244.589-656.037z"/>
							<path fill="#E6217F" d="M339.578-588.259c0-1.56-1.264-2.824-2.824-2.824s-2.824,1.264-2.824,2.824
								c0,1.56,1.264,2.824,2.824,2.824S339.578-586.699,339.578-588.259z"/>
							<path fill="#E6217F" d="M274.421-588.259c0-1.56-1.264-2.824-2.824-2.824s-2.824,1.264-2.824,2.824
								c0,1.56,1.264,2.824,2.824,2.824S274.421-586.699,274.421-588.259z"/>
							<path fill="#E6217F" d="M188.467-589.26c0-1.56-1.264-2.824-2.824-2.824s-2.824,1.264-2.824,2.824s1.264,2.824,2.824,2.824
								S188.467-587.7,188.467-589.26z"/>
							<path fill="#E6217F" d="M194.022-496.955c0-1.56-1.264-2.824-2.824-2.824s-2.824,1.264-2.824,2.824s1.264,2.824,2.824,2.824
								S194.022-495.396,194.022-496.955z"/>
							<path fill="#E6217F" d="M196.846-428.643c0-1.56-1.264-2.824-2.824-2.824s-2.824,1.264-2.824,2.824s1.264,2.824,2.824,2.824
								S196.846-427.083,196.846-428.643z"/>
							<path fill="#E6217F" d="M136.8-514.426c0-1.56-1.264-2.824-2.824-2.824s-2.824,1.264-2.824,2.824
								c0,1.56,1.264,2.824,2.824,2.824S136.8-512.866,136.8-514.426z"/>
							<path fill="#E6217F" d="M277.245-461.63c0-1.56-1.264-2.824-2.824-2.824s-2.824,1.264-2.824,2.824s1.264,2.824,2.824,2.824
								S277.245-460.07,277.245-461.63z"/>
							<path fill="#E6217F" d="M304.624-538.537c0-1.56-1.264-2.824-2.824-2.824s-2.824,1.264-2.824,2.824s1.264,2.824,2.824,2.824
								S304.624-536.977,304.624-538.537z"/>
						</g>
					</g>
					<g>
						<g>
							<polygon fill="none" stroke="#68C5DA" stroke-linecap="round" stroke-linejoin="round" stroke-miterlimit="10" points="
								582.448,-284.935 553.004,-304.824 559.115,-400.49 							"/>
							<polygon fill="none" stroke="#68C5DA" stroke-linecap="round" stroke-linejoin="round" stroke-miterlimit="10" points="
								559.115,-400.49 516.504,-441.601 553.004,-304.824 							"/>
							<polygon fill="none" stroke="#68C5DA" stroke-linecap="round" stroke-linejoin="round" stroke-miterlimit="10" points="
								553.004,-201.208 582.448,-284.935 650.639,-227.857 							"/>
						</g>
					</g>
					<g>
						<g>
							<g>
								<g>
									<polygon fill="none" stroke="#68C5DA" stroke-linecap="round" stroke-linejoin="round" stroke-miterlimit="10" points="
										299.022,-303.824 380.689,-385.49 402.356,-303.824 									"/>
									<polygon fill="none" stroke="#68C5DA" stroke-linecap="round" stroke-linejoin="round" stroke-miterlimit="10" points="
										380.689,-385.49 334.578,-484.935 299.022,-303.824 									"/>
									<polygon fill="none" stroke="#68C5DA" stroke-linecap="round" stroke-linejoin="round" stroke-miterlimit="10" points="
										380.689,-385.49 407.911,-421.601 334.578,-484.935 									"/>
									<polygon fill="none" stroke="#68C5DA" stroke-linecap="round" stroke-linejoin="round" stroke-miterlimit="10" points="
										299.022,-303.824 241.244,-371.601 320.221,-411.802 									"/>
									<polygon fill="none" stroke="#68C5DA" stroke-linecap="round" stroke-linejoin="round" stroke-miterlimit="10" points="
										320.221,-411.802 241.244,-371.601 334.578,-484.935 									"/>
									<polygon fill="none" stroke="#68C5DA" stroke-linecap="round" stroke-linejoin="round" stroke-miterlimit="10" points="
										402.356,-303.824 407.911,-421.601 380.689,-385.49 									"/>
									<polygon fill="none" stroke="#68C5DA" stroke-linecap="round" stroke-linejoin="round" stroke-miterlimit="10" points="
										334.578,-484.935 433.467,-511.601 407.911,-421.601 									"/>
									<polygon fill="none" stroke="#68C5DA" stroke-linecap="round" stroke-linejoin="round" stroke-miterlimit="10" points="
										407.911,-421.601 515.689,-441.601 433.467,-511.601 									"/>
									<polygon fill="none" stroke="#68C5DA" stroke-linecap="round" stroke-linejoin="round" stroke-miterlimit="10" points="
										402.356,-303.824 458.478,-372.05 515.689,-441.601 407.911,-421.601 									"/>
									<polygon fill="none" stroke="#68C5DA" stroke-linecap="round" stroke-linejoin="round" stroke-miterlimit="10" points="
										553.467,-303.824 458.478,-372.05 515.689,-441.601 									"/>
									<polygon fill="none" stroke="#68C5DA" stroke-linecap="round" stroke-linejoin="round" stroke-miterlimit="10" points="
										299.022,-303.824 350.689,-230.49 402.356,-303.824 									"/>
									<polygon fill="none" stroke="#68C5DA" stroke-linecap="round" stroke-linejoin="round" stroke-miterlimit="10" points="
										553.467,-303.824 402.356,-303.824 458.478,-372.05 									"/>
									<polygon fill="none" stroke="#68C5DA" stroke-linecap="round" stroke-linejoin="round" stroke-miterlimit="10" points="
										350.689,-230.49 490.133,-303.824 402.356,-303.824 									"/>
									<polygon fill="none" stroke="#68C5DA" stroke-linecap="round" stroke-linejoin="round" stroke-miterlimit="10" points="
										299.022,-303.824 149.022,-284.935 241.244,-371.601 									"/>
									<polygon fill="none" stroke="#68C5DA" stroke-linecap="round" stroke-linejoin="round" stroke-miterlimit="10" points="
										350.689,-230.49 219.712,-293.836 299.022,-303.824 									"/>
									<polygon fill="none" stroke="#68C5DA" stroke-linecap="round" stroke-linejoin="round" stroke-miterlimit="10" points="
										149.022,-284.935 125.689,-400.49 210.504,-342.713 									"/>
									<polygon fill="none" stroke="#68C5DA" stroke-linecap="round" stroke-linejoin="round" stroke-miterlimit="10" points="
										334.578,-484.935 241.244,-371.601 125.689,-400.49 									"/>
								</g>
								<polygon fill="none" stroke="#68C5DA" stroke-linecap="round" stroke-linejoin="round" stroke-miterlimit="10" points="
									210.504,-342.713 125.689,-400.49 241.244,-371.601 								"/>
							</g>
							<polygon fill="none" stroke="#68C5DA" stroke-linecap="round" stroke-linejoin="round" stroke-miterlimit="10" points="
								149.022,-284.935 119.578,-304.824 125.689,-400.49 							"/>
							<polygon fill="none" stroke="#68C5DA" stroke-linecap="round" stroke-linejoin="round" stroke-miterlimit="10" points="
								125.689,-400.49 83.078,-441.601 119.578,-304.824 							"/>
							<polygon fill="none" stroke="#68C5DA" stroke-linecap="round" stroke-linejoin="round" stroke-miterlimit="10" points="
								217.213,-227.857 351.04,-229.838 298.668,-157.562 							"/>
							<polygon fill="none" stroke="#68C5DA" stroke-linecap="round" stroke-linejoin="round" stroke-miterlimit="10" points="
								219.712,-293.836 217.213,-227.857 351.04,-229.838 							"/>
							<polygon fill="none" stroke="#68C5DA" stroke-linecap="round" stroke-linejoin="round" stroke-miterlimit="10" points="
								119.578,-201.208 149.022,-284.935 217.213,-227.857 							"/>
							<polygon fill="none" stroke="#68C5DA" stroke-linecap="round" stroke-linejoin="round" stroke-miterlimit="10" points="
								488.31,-303.824 550.643,-201.208 553.467,-303.824 							"/>
							<polygon fill="none" stroke="#68C5DA" stroke-linecap="round" stroke-linejoin="round" stroke-miterlimit="10" points="
								351.04,-229.838 410.735,-144.208 407.393,-212.183 405.087,-259.098 							"/>
							<polygon fill="none" stroke="#68C5DA" stroke-linecap="round" stroke-linejoin="round" stroke-miterlimit="10" points="
								488.31,-303.824 407.393,-212.183 405.087,-259.098 							"/>
							<polygon fill="none" stroke="#68C5DA" stroke-linecap="round" stroke-linejoin="round" stroke-miterlimit="10" points="
								491.134,-176.208 518.513,-254.102 550.643,-201.208 							"/>
							<polygon fill="none" stroke="#68C5DA" stroke-linecap="round" stroke-linejoin="round" stroke-miterlimit="10" points="
								342.191,-117.317 351.04,-229.838 298.668,-157.562 							"/>
							<polygon fill="none" stroke="#68C5DA" stroke-linecap="round" stroke-linejoin="round" stroke-miterlimit="10" points="
								410.735,-144.208 491.134,-176.208 407.393,-212.183 							"/>
						</g>
						<g>
							<path fill="#E6217F" d="M151.846-284.935c0-1.56-1.264-2.824-2.824-2.824s-2.824,1.264-2.824,2.824s1.264,2.824,2.824,2.824
								S151.846-283.375,151.846-284.935z"/>
							<path fill="#E6217F" d="M213.328-342.713c0-1.56-1.264-2.824-2.824-2.824s-2.824,1.264-2.824,2.824s1.264,2.824,2.824,2.824
								S213.328-341.153,213.328-342.713z"/>
							<path fill="#E6217F" d="M222.536-293.836c0-1.56-1.264-2.824-2.824-2.824s-2.824,1.264-2.824,2.824s1.264,2.824,2.824,2.824
								S222.536-292.277,222.536-293.836z"/>
							<path fill="#E6217F" d="M128.513-400.49c0-1.56-1.264-2.824-2.824-2.824s-2.824,1.264-2.824,2.824s1.264,2.824,2.824,2.824
								S128.513-398.931,128.513-400.49z"/>
							<path fill="#E6217F" d="M244.069-371.601c0-1.56-1.264-2.824-2.824-2.824s-2.824,1.264-2.824,2.824s1.264,2.824,2.824,2.824
								S244.069-370.042,244.069-371.601z"/>
							<path fill="#E6217F" d="M337.402-484.935c0-1.56-1.264-2.824-2.824-2.824s-2.824,1.264-2.824,2.824s1.264,2.824,2.824,2.824
								S337.402-483.375,337.402-484.935z"/>
							<path fill="#E6217F" d="M323.045-411.802c0-1.56-1.264-2.824-2.824-2.824s-2.824,1.264-2.824,2.824s1.264,2.824,2.824,2.824
								S323.045-410.243,323.045-411.802z"/>
							<path fill="#E6217F" d="M383.513-385.49c0-1.56-1.264-2.824-2.824-2.824s-2.824,1.264-2.824,2.824s1.264,2.824,2.824,2.824
								S383.513-383.931,383.513-385.49z"/>
							<path fill="#E6217F" d="M410.735-421.601c0-1.56-1.264-2.824-2.824-2.824s-2.824,1.264-2.824,2.824s1.264,2.824,2.824,2.824
								S410.735-420.042,410.735-421.601z"/>
							<path fill="#E6217F" d="M436.291-511.601c0-1.56-1.264-2.824-2.824-2.824s-2.824,1.264-2.824,2.824
								c0,1.56,1.264,2.824,2.824,2.824S436.291-510.042,436.291-511.601z"/>
							<path fill="#E6217F" d="M518.513-441.601c0-1.56-1.264-2.824-2.824-2.824s-2.824,1.264-2.824,2.824s1.264,2.824,2.824,2.824
								S518.513-440.042,518.513-441.601z"/>
							<path fill="#E6217F" d="M461.302-371.601c0-1.56-1.264-2.824-2.824-2.824s-2.824,1.264-2.824,2.824s1.264,2.824,2.824,2.824
								S461.302-370.042,461.302-371.601z"/>
							<path fill="#E6217F" d="M556.291-303.824c0-1.56-1.264-2.824-2.824-2.824s-2.824,1.264-2.824,2.824s1.264,2.824,2.824,2.824
								S556.291-302.264,556.291-303.824z"/>
							<path fill="#E6217F" d="M491.134-303.824c0-1.56-1.264-2.824-2.824-2.824s-2.824,1.264-2.824,2.824S486.75-301,488.31-301
								S491.134-302.264,491.134-303.824z"/>
							<path fill="#E6217F" d="M405.18-304.824c0-1.56-1.264-2.824-2.824-2.824s-2.824,1.264-2.824,2.824s1.264,2.824,2.824,2.824
								C403.915-302,405.18-303.265,405.18-304.824z"/>
							<path fill="#E6217F" d="M301.846-304.824c0-1.56-1.264-2.824-2.824-2.824s-2.824,1.264-2.824,2.824s1.264,2.824,2.824,2.824
								S301.846-303.265,301.846-304.824z"/>
							<path fill="#E6217F" d="M410.735-212.52c0-1.56-1.264-2.824-2.824-2.824s-2.824,1.264-2.824,2.824s1.264,2.824,2.824,2.824
								S410.735-210.961,410.735-212.52z"/>
							<path fill="#E6217F" d="M413.559-144.208c0-1.56-1.264-2.824-2.824-2.824s-2.824,1.264-2.824,2.824s1.264,2.824,2.824,2.824
								S413.559-142.648,413.559-144.208z"/>
							<path fill="#E6217F" d="M353.513-229.99c0-1.56-1.264-2.824-2.824-2.824s-2.824,1.264-2.824,2.824s1.264,2.824,2.824,2.824
								S353.513-228.431,353.513-229.99z"/>
							<path fill="#E6217F" d="M493.958-177.195c0-1.56-1.264-2.824-2.824-2.824s-2.824,1.264-2.824,2.824s1.264,2.824,2.824,2.824
								S493.958-175.635,493.958-177.195z"/>
							<path fill="#E6217F" d="M521.337-254.102c0-1.56-1.264-2.824-2.824-2.824s-2.824,1.264-2.824,2.824s1.264,2.824,2.824,2.824
								S521.337-252.542,521.337-254.102z"/>
						</g>
					</g>
					<g>
						<g>
							<g>
								<g>
									<polygon fill="none" stroke="#68C5DA" stroke-linecap="round" stroke-linejoin="round" stroke-miterlimit="10" points="
										515.735,-19.388 597.402,-101.055 619.069,-19.388 									"/>
									<polygon fill="none" stroke="#68C5DA" stroke-linecap="round" stroke-linejoin="round" stroke-miterlimit="10" points="
										597.402,-101.055 551.291,-200.5 515.735,-19.388 									"/>
									<polygon fill="none" stroke="#68C5DA" stroke-linecap="round" stroke-linejoin="round" stroke-miterlimit="10" points="
										597.402,-101.055 624.624,-137.166 551.291,-200.5 									"/>
									<polygon fill="none" stroke="#68C5DA" stroke-linecap="round" stroke-linejoin="round" stroke-miterlimit="10" points="
										515.735,-19.388 457.957,-87.166 536.934,-127.367 									"/>
									<polygon fill="none" stroke="#68C5DA" stroke-linecap="round" stroke-linejoin="round" stroke-miterlimit="10" points="
										536.934,-127.367 457.957,-87.166 551.291,-200.5 									"/>
									<polygon fill="none" stroke="#68C5DA" stroke-linecap="round" stroke-linejoin="round" stroke-miterlimit="10" points="
										551.291,-200.5 650.18,-227.166 624.624,-137.166 									"/>
									<polygon fill="none" stroke="#68C5DA" stroke-linecap="round" stroke-linejoin="round" stroke-miterlimit="10" points="
										365.735,-0.5 342.402,-116.055 427.217,-58.277 									"/>
									<polygon fill="none" stroke="#68C5DA" stroke-linecap="round" stroke-linejoin="round" stroke-miterlimit="10" points="
										551.291,-200.5 457.957,-87.166 342.402,-116.055 									"/>
								</g>
								<polygon fill="none" stroke="#68C5DA" stroke-linecap="round" stroke-linejoin="round" stroke-miterlimit="10" points="
									427.217,-58.277 342.402,-116.055 457.957,-87.166 								"/>
							</g>
							<polygon fill="none" stroke="#68C5DA" stroke-linecap="round" stroke-linejoin="round" stroke-miterlimit="10" points="
								365.735,-0.5 336.291,-20.389 342.402,-116.055 							"/>
							<polygon fill="none" stroke="#68C5DA" stroke-linecap="round" stroke-linejoin="round" stroke-miterlimit="10" points="
								342.402,-116.055 299.791,-157.166 336.291,-20.389 							"/>
						</g>
						<g>
							<path fill="#E6217F" d="M345.226-116.055c0-1.56-1.264-2.824-2.824-2.824s-2.824,1.264-2.824,2.824s1.264,2.824,2.824,2.824
								S345.226-114.495,345.226-116.055z"/>
							<path fill="#E6217F" d="M460.782-87.166c0-1.56-1.264-2.824-2.824-2.824s-2.824,1.264-2.824,2.824s1.264,2.824,2.824,2.824
								S460.782-85.607,460.782-87.166z"/>
							<path fill="#E6217F" d="M554.115-200.5c0-1.56-1.264-2.824-2.824-2.824s-2.824,1.264-2.824,2.824s1.264,2.824,2.824,2.824
								S554.115-198.94,554.115-200.5z"/>
							<path fill="#E6217F" d="M539.758-127.367c0-1.56-1.264-2.824-2.824-2.824s-2.824,1.264-2.824,2.824s1.264,2.824,2.824,2.824
								S539.758-125.808,539.758-127.367z"/>
						</g>
					</g>
					<g>
						<g>
							<g>
								<g>
									<polygon fill="none" stroke="#68C5DA" stroke-linecap="round" stroke-linejoin="round" stroke-miterlimit="10" points="
										82.309,-19.388 163.976,-101.055 185.643,-19.388 									"/>
									<polygon fill="none" stroke="#68C5DA" stroke-linecap="round" stroke-linejoin="round" stroke-miterlimit="10" points="
										163.976,-101.055 117.865,-200.5 82.309,-19.388 									"/>
									<polygon fill="none" stroke="#68C5DA" stroke-linecap="round" stroke-linejoin="round" stroke-miterlimit="10" points="
										163.976,-101.055 191.198,-137.166 117.865,-200.5 									"/>
									<polygon fill="none" stroke="#68C5DA" stroke-linecap="round" stroke-linejoin="round" stroke-miterlimit="10" points="
										185.643,-19.388 191.198,-137.166 163.976,-101.055 									"/>
									<polygon fill="none" stroke="#68C5DA" stroke-linecap="round" stroke-linejoin="round" stroke-miterlimit="10" points="
										117.865,-200.5 216.754,-227.166 191.198,-137.166 									"/>
									<polygon fill="none" stroke="#68C5DA" stroke-linecap="round" stroke-linejoin="round" stroke-miterlimit="10" points="
										191.198,-137.166 298.976,-157.166 216.754,-227.166 									"/>
									<polygon fill="none" stroke="#68C5DA" stroke-linecap="round" stroke-linejoin="round" stroke-miterlimit="10" points="
										185.643,-19.388 241.765,-87.615 298.976,-157.166 191.198,-137.166 									"/>
									<polygon fill="none" stroke="#68C5DA" stroke-linecap="round" stroke-linejoin="round" stroke-miterlimit="10" points="
										336.754,-19.388 241.765,-87.615 298.976,-157.166 									"/>
									<polygon fill="none" stroke="#68C5DA" stroke-linecap="round" stroke-linejoin="round" stroke-miterlimit="10" points="
										336.754,-19.388 185.643,-19.388 241.765,-87.615 									"/>
								</g>
							</g>
						</g>
						<g>
							<path fill="#E6217F" d="M166.8-101.055c0-1.56-1.264-2.824-2.824-2.824s-2.824,1.264-2.824,2.824s1.264,2.824,2.824,2.824
								S166.8-99.495,166.8-101.055z"/>
							<path fill="#E6217F" d="M194.022-137.166c0-1.56-1.264-2.824-2.824-2.824s-2.824,1.264-2.824,2.824s1.264,2.824,2.824,2.824
								S194.022-135.607,194.022-137.166z"/>
							<path fill="#E6217F" d="M219.578-227.166c0-1.56-1.264-2.824-2.824-2.824s-2.824,1.264-2.824,2.824s1.264,2.824,2.824,2.824
								S219.578-225.607,219.578-227.166z"/>
							<path fill="#E6217F" d="M301.8-157.166c0-1.56-1.264-2.824-2.824-2.824s-2.824,1.264-2.824,2.824s1.264,2.824,2.824,2.824
								S301.8-155.607,301.8-157.166z"/>
							<path fill="#E6217F" d="M244.589-87.166c0-1.56-1.264-2.824-2.824-2.824s-2.824,1.264-2.824,2.824s1.264,2.824,2.824,2.824
								S244.589-85.607,244.589-87.166z"/>
						</g>
					</g>
				</g>
			</g>
		</g>
	</g>
</pattern>
<g id="图层_2">
	<pattern  id="SVGID_1_" xlink:href="#SVGID_2_" patternTransform="matrix(1 0 0 -1 -200.8718 -37979.3047)">
	</pattern>
	<rect opacity="0.1" fill="url(#SVGID_1_)" enable-background="new    " width="1599.555" height="752"/>
</g>
<g id="图层_1_1_">
</g>
</svg>
