<?xml version="1.0" encoding="utf-8"?>
<!-- Generator: Adobe Illustrator 17.0.0, SVG Export Plug-In . SVG Version: 6.00 Build 0)  -->
<!DOCTYPE svg PUBLIC "-//W3C//DTD SVG 1.1//EN" "http://www.w3.org/Graphics/SVG/1.1/DTD/svg11.dtd">
<svg version="1.1" id="图层_1" xmlns="http://www.w3.org/2000/svg" xmlns:xlink="http://www.w3.org/1999/xlink" x="0px" y="0px"
	 width="382.992px" height="396.657px" viewBox="608.021 176.745 382.992 396.657"
	 enable-background="new 608.021 176.745 382.992 396.657" xml:space="preserve">
<g id="图层_1_1_">
</g>
<g>
	<g>
		<g>
			<polygon fill="none" stroke="#372852" stroke-width="2" stroke-miterlimit="10" points="815.448,470.062 932.76,495.516 
				882.219,566.152 754.478,532.999 			"/>
			<polygon fill="none" stroke="#372852" stroke-width="2" stroke-miterlimit="10" points="815.448,470.062 706.729,447.325 
				638.202,503.503 754.478,532.999 			"/>
			<g>
				<polygon fill="none" stroke="#372852" stroke-width="2" stroke-miterlimit="10" points="815.448,470.062 932.76,495.516 
					975.762,438.811 864.739,417.78 				"/>
				<polygon fill="none" stroke="#372852" stroke-width="2" stroke-miterlimit="10" points="815.448,470.062 706.729,447.325 
					765.509,398.627 864.739,417.78 				"/>
			</g>
		</g>
		<polygon fill="none" stroke="#372852" stroke-width="2" stroke-miterlimit="10" points="864.739,311.268 979.263,330.123 
			983.763,210.313 864.739,195.842 		"/>
		<polygon fill="none" stroke="#372852" stroke-width="2" stroke-miterlimit="10" points="864.739,311.268 760.251,294.969 
			755.818,183.996 864.739,195.842 		"/>
		<polygon fill="none" stroke="#372852" stroke-width="2" stroke-miterlimit="10" points="864.739,311.268 979.263,330.123 
			976.623,438.811 864.883,417.78 		"/>
		<polygon fill="none" stroke="#372852" stroke-width="2" stroke-miterlimit="10" points="864.739,311.268 760.251,294.969 
			765.509,397.886 864.883,417.78 		"/>
		<polygon fill="none" stroke="#372852" stroke-width="2" stroke-miterlimit="10" points="748.678,411.857 882.219,438.811 
			882.219,295.606 742.194,275.135 		"/>
		<polygon fill="none" stroke="#372852" stroke-width="2" stroke-miterlimit="10" points="748.678,411.857 627.709,385.058 
			615.272,254.289 742.194,275.135 		"/>
		<polygon fill="none" stroke="#372852" stroke-width="2" stroke-miterlimit="10" points="811.922,231.063 939.463,247.517 
			882.219,295.606 742.194,275.135 		"/>
		<polygon fill="none" stroke="#372852" stroke-width="2" stroke-miterlimit="10" points="811.922,231.063 692.453,214.765 
			615.272,254.289 742.194,275.135 		"/>
		<polygon fill="none" stroke="#372852" stroke-width="2" stroke-miterlimit="10" points="748.678,411.857 882.219,438.811 
			882.219,566.152 754.478,532.999 		"/>
		<polygon fill="none" stroke="#372852" stroke-width="2" stroke-miterlimit="10" points="748.678,411.857 627.709,385.058 
			638.202,503.503 754.478,532.999 		"/>
		<polygon fill="none" stroke="#372852" stroke-width="2" stroke-miterlimit="10" points="935.76,379.626 882.219,438.811 
			882.219,295.606 939.478,247.769 		"/>
		<polygon fill="none" stroke="#372852" stroke-width="2" stroke-miterlimit="10" points="935.76,379.626 882.219,438.811 
			882.219,566.152 932.76,495.516 		"/>
		<polygon fill="none" stroke="#372852" stroke-width="2" stroke-miterlimit="10" points="935.76,379.626 979.263,330.123 
			983.763,210.313 939.478,247.769 		"/>
		<polygon fill="none" stroke="#372852" stroke-width="2" stroke-miterlimit="10" points="935.76,379.626 979.263,330.123 
			975.762,438.811 932.76,495.516 		"/>
		<polygon fill="none" stroke="#372852" stroke-width="2" stroke-miterlimit="10" points="811.922,231.063 939.463,247.517 
			983.763,210.313 864.739,195.842 		"/>
		<polygon fill="none" stroke="#372852" stroke-width="2" stroke-miterlimit="10" points="811.922,231.063 692.453,214.765 
			755.818,183.996 864.739,195.842 		"/>
		<g>
			<polygon fill="none" stroke="#372852" stroke-width="2" stroke-miterlimit="10" points="700.289,336.225 760.251,294.969 
				755.818,183.996 692.453,214.765 			"/>
			<polygon fill="none" stroke="#372852" stroke-width="2" stroke-miterlimit="10" points="700.289,336.225 760.251,294.969 
				765.509,397.886 706.747,447.63 			"/>
		</g>
		<g>
			<polygon fill="none" stroke="#372852" stroke-width="2" stroke-miterlimit="10" points="700.289,336.225 627.709,385.058 
				615.272,254.289 692.453,214.765 			"/>
			<polygon fill="none" stroke="#372852" stroke-width="2" stroke-miterlimit="10" points="700.289,336.225 627.709,385.058 
				638.202,503.503 706.747,447.63 			"/>
		</g>
	</g>
	<circle fill="#595757" cx="983.763" cy="210.313" r="7.25"/>
	<circle fill="#595757" cx="939.478" cy="247.769" r="7.251"/>
	<circle fill="#595757" cx="882.218" cy="295.606" r="7.25"/>
	<circle fill="#595757" cx="742.195" cy="275.135" r="7.251"/>
	<circle fill="#595757" cx="812.207" cy="231.063" r="7.25"/>
	<circle fill="#595757" cx="864.74" cy="195.842" r="7.251"/>
	<circle fill="#595757" cx="755.817" cy="183.996" r="7.251"/>
	<circle fill="#595757" cx="692.452" cy="214.765" r="7.251"/>
	<circle fill="#595757" cx="615.271" cy="254.289" r="7.25"/>
	<circle fill="#595757" cx="627.708" cy="385.058" r="7.25"/>
	<circle fill="#595757" cx="700.288" cy="336.04" r="7.251"/>
	<circle fill="#595757" cx="760.25" cy="295.606" r="7.25"/>
	<circle fill="#595757" cx="864.74" cy="311.268" r="7.251"/>
	<circle fill="#595757" cx="979.262" cy="330.123" r="7.25"/>
	<circle fill="#595757" cx="935.76" cy="379.626" r="7.251"/>
	<circle fill="#595757" cx="882.218" cy="438.811" r="7.25"/>
	<circle fill="#595757" cx="748.677" cy="411.857" r="7.251"/>
	<circle fill="#595757" cx="765.509" cy="398.627" r="7.25"/>
	<circle fill="#595757" cx="864.74" cy="416.392" r="7.251"/>
	<circle fill="#595757" cx="975.763" cy="438.811" r="7.25"/>
	<circle fill="#595757" cx="932.76" cy="495.516" r="7.25"/>
	<circle fill="#595757" cx="882.218" cy="566.152" r="7.25"/>
	<circle fill="#595757" cx="754.477" cy="532.999" r="7.25"/>
	<circle fill="#595757" cx="638.202" cy="502.767" r="7.251"/>
	<circle fill="#595757" cx="707.54" cy="447.63" r="7.25"/>
	<circle fill="#595757" cx="815.449" cy="470.062" r="7.25"/>
</g>
</svg>
