<?xml version="1.0" encoding="utf-8"?>
<!-- Generator: Adobe Illustrator 17.0.0, SVG Export Plug-In . SVG Version: 6.00 Build 0)  -->
<!DOCTYPE svg PUBLIC "-//W3C//DTD SVG 1.1//EN" "http://www.w3.org/Graphics/SVG/1.1/DTD/svg11.dtd">
<svg version="1.1" id="图层_1" xmlns="http://www.w3.org/2000/svg" xmlns:xlink="http://www.w3.org/1999/xlink" x="0px" y="0px"
	 width="1050px" height="313.964px" viewBox="0 0 1050 313.964" enable-background="new 0 0 1050 313.964" xml:space="preserve">
<g id="图层_2" display="none">
	<rect x="0" display="inline" fill="#009944" width="1050" height="313.964"/>
</g>
<path fill="#172B46" d="M260.125,42.088H64.458c-12,0-21.729,9.728-21.729,21.729v195.991c0,12,9.728,21.729,21.729,21.729h195.667
	c12,0,21.729-9.728,21.729-21.729V63.817C281.854,51.817,272.125,42.088,260.125,42.088z M155.138,172.06v43l-3.243,2.562
	l-3.243,2.562l-6.668,5.268l-4.105,3.243l-3.875,3.062v-59.753c-0.046-5.279-1.176-9.15-3.359-11.48
	c-2.12-2.262-5.68-3.409-10.579-3.409c-4.103,0-7.583,1.049-10.64,3.207c-2.932,2.069-5.291,4.791-7.02,8.098v46.791l-3.243,2.562
	l-3.243,2.562l-6.474,5.115l-4.105,3.243l-4.069,3.215v-80.437h-0.058v-50.284l4.143,2.646l5.077,3.243l5.077,3.243l0.41,0.262
	l3.243,2.072l3.243,2.072l0.104,0.067v30.735c6.146-4.868,13.511-7.33,21.99-7.33C138.357,138.2,154.921,144.075,155.138,172.06z
	 M241.991,231.702h-63.446l2.463-1.946l2.463-1.946l11.082-8.756l2.463-1.946l2.463-1.946h42.513L241.991,231.702L241.991,231.702z"
	/>
<rect x="362" y="79.462" fill="none" width="671" height="197.075"/>
<path fill="#172B46" d="M457.449,232.48c-2.871,0-5.332-1.024-7.383-3.076c-2.052-2.051-3.076-4.512-3.076-7.383v-42.1h-54.14v42.1
	c0,2.871-0.997,5.332-2.988,7.383c-2.052,2.052-4.513,3.076-7.383,3.076c-2.872,0-5.333-1.024-7.383-3.076
	c-2.052-2.051-3.076-4.512-3.076-7.383v-105.03c0-2.87,1.024-5.331,3.076-7.383c2.05-2.05,4.511-3.076,7.383-3.076
	c2.87,0,5.331,1.026,7.383,3.076c1.991,2.052,2.988,4.513,2.988,7.383v42.1h54.141v-42.1c0-2.87,1.024-5.331,3.076-7.383
	c2.051-2.05,4.512-3.076,7.383-3.076c2.87,0,5.331,1.026,7.383,3.076c2.051,2.052,3.076,4.513,3.076,7.383v105.03
	c0,2.871-1.025,5.332-3.076,7.383C462.78,231.456,460.319,232.48,457.449,232.48z"/>
<path fill="#172B46" d="M589.9,109.082c2.227,1.758,3.516,4.043,3.867,6.855c0.293,2.872-0.47,5.42-2.285,7.646l-38.057,47.637
	v50.889c0,2.871-1.025,5.332-3.076,7.383c-1.992,1.992-4.425,2.988-7.295,2.988c-2.871,0-5.304-0.996-7.295-2.988
	c-2.052-2.051-3.076-4.512-3.076-7.383V171.22l-38.057-47.637c-1.816-2.226-2.549-4.775-2.197-7.646
	c0.293-2.813,1.552-5.098,3.779-6.855c2.227-1.815,4.775-2.578,7.646-2.285c2.813,0.352,5.127,1.641,6.943,3.867l32.256,40.43
	l32.344-40.43c1.758-2.226,4.043-3.516,6.855-3.867C585.124,106.504,587.673,107.266,589.9,109.082z"/>
<path fill="#172B46" d="M665.486,106.181c10.898,0,20.185,3.604,27.861,10.811c7.734,7.207,11.602,15.879,11.602,26.016
	c0,9.962-3.722,18.516-11.162,25.665c-7.383,7.09-16.348,10.811-26.895,11.162h-0.088h-0.088h-0.176
	c-0.646,0.059-0.997,0.088-1.055,0.088l-0.527-0.088h-25.752v42.275c0,2.871-0.997,5.304-2.988,7.295
	c-2.052,2.052-4.513,3.076-7.383,3.076c-2.871,0-5.304-1.024-7.295-3.076c-2.052-1.991-3.076-4.424-3.076-7.295V116.552
	c0-2.87,1.024-5.302,3.076-7.295c1.991-2.05,4.424-3.076,7.295-3.076C628.835,106.181,665.486,106.181,665.486,106.181z
	 M666.102,159.091c4.979-0.117,9.229-1.728,12.744-4.834c3.516-3.164,5.273-6.913,5.273-11.25c0-4.395-1.816-8.174-5.449-11.338
	c-3.634-3.164-8.028-4.746-13.184-4.746h-26.279v32.168H666.102z"/>
<path fill="#172B46" d="M806.463,211.65c2.87,0,5.303,1.025,7.295,3.076c2.051,2.052,3.076,4.513,3.076,7.383
	c0,2.871-1.025,5.304-3.076,7.295c-1.992,2.052-4.425,3.076-7.295,3.076H742.83c-2.871,0-5.304-1.024-7.295-3.076
	c-2.052-1.991-3.076-4.424-3.076-7.295V116.728c0-2.929,1.024-5.39,3.076-7.383c1.991-2.05,4.424-3.076,7.295-3.076h0.088
	l63.545,0.176c2.87,0,5.331,1.026,7.383,3.076c1.991,2.052,2.988,4.513,2.988,7.383c0,2.872-1.025,5.304-3.076,7.295
	c-1.992,2.052-4.425,3.076-7.295,3.076h-0.088l-53.086-0.176v31.904h38.32c2.87,0,5.331,0.997,7.383,2.988
	c2.051,2.052,3.076,4.513,3.076,7.383c0,2.871-1.025,5.332-3.076,7.383c-2.052,1.992-4.513,2.988-7.383,2.988h-38.32v31.904h53.174
	V211.65z"/>
<path fill="#172B46" d="M929.861,142.919c0,7.734-2.403,14.737-7.207,21.006c-4.629,6.211-10.723,10.635-18.281,13.272l19.951,40.43
	c1.23,2.52,1.376,5.128,0.439,7.822c-0.879,2.695-2.607,4.688-5.186,5.977c-1.465,0.703-2.988,1.055-4.57,1.055
	c-4.277,0-7.354-1.934-9.229-5.801l-23.291-47.197h-17.842v41.924c0,2.813-1.025,5.244-3.076,7.295
	c-1.992,1.992-4.425,2.988-7.295,2.988c-2.813,0-5.244-0.996-7.295-2.988c-1.992-2.051-2.988-4.482-2.988-7.295V116.64
	c0-2.87,0.996-5.302,2.988-7.295c2.051-2.05,4.482-3.076,7.295-3.076h36.387c10.84,0,20.068,3.575,27.686,10.723
	C926.023,124.141,929.861,132.783,929.861,142.919z M891.365,158.828c4.922-0.176,9.141-1.787,12.656-4.834
	c3.457-3.105,5.186-6.796,5.186-11.074c0-4.452-1.816-8.231-5.449-11.338c-3.634-3.105-7.998-4.658-13.096-4.658h-26.016v31.904
	H891.365z"/>
<path fill="#172B46" d="M997.801,220.703c2.813,0,5.243,0.997,7.295,2.988c1.991,1.992,2.988,4.395,2.988,7.207
	c0,2.87-0.997,5.303-2.988,7.295c-2.052,1.991-4.482,2.988-7.295,2.988h-43.506c-2.871,0-5.304-0.997-7.295-2.988
	c-1.992-1.992-2.988-4.425-2.988-7.295c0-2.813,0.996-5.215,2.988-7.207c1.991-1.991,4.424-2.988,7.295-2.988H997.801z"/>
</svg>
