<?xml version="1.0" encoding="utf-8"?>
<!-- Generator: Adobe Illustrator 17.0.0, SVG Export Plug-In . SVG Version: 6.00 Build 0)  -->
<!DOCTYPE svg PUBLIC "-//W3C//DTD SVG 1.1//EN" "http://www.w3.org/Graphics/SVG/1.1/DTD/svg11.dtd">
<svg version="1.1" id="图层_1" xmlns="http://www.w3.org/2000/svg" xmlns:xlink="http://www.w3.org/1999/xlink" x="0px" y="0px"
	 width="239.125px" height="239.449px" viewBox="42.729 42.088 239.125 239.449"
	 enable-background="new 42.729 42.088 239.125 239.449" xml:space="preserve">
<g id="图层_2" display="none">
	<rect x="0" display="inline" fill="#009944" width="1050" height="313.964"/>
</g>
<path fill="#FFFFFF" d="M260.125,42.088H64.458c-12,0-21.729,9.728-21.729,21.729v195.991c0,12,9.728,21.729,21.729,21.729h195.667
	c12,0,21.729-9.728,21.729-21.729V63.817C281.854,51.817,272.125,42.088,260.125,42.088z M155.138,172.06v43l-3.243,2.562
	l-3.243,2.562l-6.668,5.268l-4.105,3.243l-3.875,3.062v-59.753c-0.046-5.279-1.176-9.15-3.359-11.48
	c-2.12-2.262-5.68-3.409-10.579-3.409c-4.103,0-7.583,1.049-10.64,3.207c-2.932,2.069-5.291,4.791-7.02,8.098v46.791l-3.243,2.562
	l-3.243,2.562l-6.474,5.115l-4.105,3.243l-4.069,3.215v-80.437h-0.058v-50.284l4.143,2.646l5.077,3.243l5.077,3.243l0.41,0.262
	l3.243,2.072l3.243,2.072l0.104,0.067v30.735c6.146-4.868,13.511-7.33,21.99-7.33C138.357,138.2,154.921,144.075,155.138,172.06z
	 M241.991,231.702h-63.446l2.463-1.946l2.463-1.946l11.082-8.756l2.463-1.946l2.463-1.946h42.513L241.991,231.702L241.991,231.702z"
	/>
</svg>
