<?xml version="1.0" encoding="UTF-8"?>
<svg width="145px" height="143px" viewBox="0 0 145 143" version="1.1" xmlns="http://www.w3.org/2000/svg" xmlns:xlink="http://www.w3.org/1999/xlink">
    <!-- Generator: Sketch 48.2 (47327) - http://www.bohemiancoding.com/sketch -->
    <title>step1</title>
    <desc>Created with Sketch.</desc>
    <defs>
        <circle id="path-1" cx="117.5" cy="111.5" r="25.5"></circle>
        <filter x="-5.9%" y="-5.9%" width="111.8%" height="119.6%" filterUnits="objectBoundingBox" id="filter-2">
            <feMorphology radius="1" operator="dilate" in="SourceAlpha" result="shadowSpreadOuter1"></feMorphology>
            <feOffset dx="0" dy="4" in="shadowSpreadOuter1" result="shadowOffsetOuter1"></feOffset>
            <feComposite in="shadowOffsetOuter1" in2="SourceAlpha" operator="out" result="shadowOffsetOuter1"></feComposite>
            <feColorMatrix values="0 0 0 0 0.894117647   0 0 0 0 0.823529412   0 0 0 0 1  0 0 0 0.5 0" type="matrix" in="shadowOffsetOuter1"></feColorMatrix>
        </filter>
    </defs>
    <g id="Artboard" stroke="none" stroke-width="1" fill="none" fill-rule="evenodd" transform="translate(-129.000000, -289.000000)">
        <g id="step1" transform="translate(130.000000, 290.000000)">
            <ellipse id="Oval" stroke="#5A29A7" stroke-width="2" fill="#F6F1FF" stroke-linecap="round" stroke-dasharray="5" cx="67.5" cy="68.5" rx="67.5" ry="68.5"></ellipse>
            <text id="1" stroke="#5A29A7" fill="#FFFFFF" font-family="Moon-Bold, Moon" font-size="80" font-weight="bold">
                <tspan x="44" y="99">1</tspan>
            </text>
            <g id="Oval-2">
                <use fill="black" fill-opacity="1" filter="url(#filter-2)" xlink:href="#path-1"></use>
                <use stroke="#5A29A7" stroke-width="2" fill="#FFFFFF" fill-rule="evenodd" xlink:href="#path-1"></use>
            </g>
            <g id="Group" transform="translate(105.000000, 100.000000)">
                <g id="Group-7" transform="translate(7.500000, 3.096774)">
                    <path d="M16.2837218,16.3320862 C16.3563913,16.6043041 16.408298,16.8818249 16.4377119,17.1611134 C16.4792373,17.4898961 16.5,17.8222141 16.5,18.1527644 C16.5,18.4674058 16.4775071,18.7820473 16.4290608,19.0931535 C16.4013771,19.3247155 16.3252472,19.5509745 16.2110523,19.7542541 C16.1453038,19.8497072 15.9601696,19.9469278 15.6435384,20.0494515 C15.2628887,20.1608133 14.8753182,20.2509634 14.482557,20.3163664 C14.0188566,20.3994459 13.5067098,20.4754548 12.9478469,20.5496961 C12.3889841,20.625705 11.8266608,20.6822697 11.260877,20.7317639 C10.6950933,20.7794904 10.1466118,20.821914 9.61889299,20.8554993 C9.09290442,20.887317 8.62920397,20.9032258 8.2312521,20.9032258 C7.83156999,20.9032258 7.37652067,20.8855493 6.85399256,20.8554993 C6.33319467,20.8236816 5.79682475,20.7794904 5.23969212,20.7317639 C4.68255949,20.6822697 4.13061754,20.6292403 3.58732672,20.5726755 C3.04230567,20.5178784 2.54746116,20.4507077 2.08895139,20.3817694 C1.63217185,20.3110635 1.25325245,20.2350546 0.941811852,20.1608133 C0.735915012,20.1254604 0.536939074,20.0565221 0.355265391,19.9522308 C0.2272287,19.8391013 0.123415167,19.4979451 0.0420945663,18.9269945 C-0.0323051323,18.1934203 -0.00808197461,17.4527755 0.114764039,16.7262718 C0.158019678,16.2666832 0.379488549,15.8459828 0.727263884,15.5543207 C1.07849967,15.2785675 1.46953065,15.0629144 1.88824523,14.9144319 C2.33291319,14.7518082 2.79488342,14.6103963 3.26377454,14.4901962 C3.71017273,14.3788343 4.13580822,14.1932312 4.52337874,13.9386898 C4.76041964,13.7849043 4.98015829,13.6046042 5.18086445,13.4013246 C5.31755227,13.258145 5.43001693,13.0937537 5.51652821,12.9152212 C5.58573723,12.7525975 5.62380219,12.5776002 5.62380219,12.3990677 C5.62380219,12.2223028 5.61342084,12.0137203 5.60130926,11.7892289 C5.584007,11.4993345 5.46462144,11.2235813 5.26391528,11.0167664 C5.07532069,10.8240927 4.8659634,10.6473278 4.64103408,10.4705629 C4.51472761,10.3538981 4.41264431,10.2124862 4.34170506,10.0551655 C4.25519378,9.88016827 4.17906386,9.6998681 4.11331529,9.51780028 C4.04929694,9.32159127 3.98700882,9.10240282 3.9247207,8.8584673 C3.82436762,8.82311432 3.72747499,8.77362016 3.63923349,8.71175245 C3.54234085,8.62690531 3.4575598,8.52791698 3.38835078,8.41655511 C3.27934657,8.25039613 3.19629574,8.07009596 3.13746808,7.8791899 C3.0578777,7.67414264 3.02500341,7.45318655 3.03884522,7.23223046 C3.04922657,7.05723323 3.08902176,6.88753895 3.15996101,6.73021822 C3.22224913,6.57112983 3.31049063,6.42264734 3.42295529,6.29184133 C3.40911349,5.76154671 3.43506687,5.22948444 3.49735499,4.70272511 C3.56656401,4.22015701 3.66691709,3.74289185 3.79668401,3.27446493 C3.92818115,2.77952328 4.14272912,2.31109637 4.42994656,1.89216362 C4.66352701,1.52626033 4.9542049,1.20278061 5.29332911,0.939400946 C5.87122445,0.481579923 6.55466354,0.182847286 7.27962804,0.0750207126 C7.59625932,0.0272941967 7.91635105,0.00254711433 8.23644277,0.000779465594 C8.99428156,-0.0133617243 9.74346923,0.165170798 10.4182572,0.515165249 C10.9580876,0.78031256 11.4390903,1.15505409 11.8301212,1.61641041 C12.1796268,2.05655495 12.4426211,2.55856719 12.6087227,3.09770006 C12.7661733,3.59794465 12.89421,4.10702749 12.9859119,4.62318092 C13.0655023,5.17468733 13.0966463,5.72972903 13.0810743,6.28653838 C13.1658554,6.36254728 13.2367946,6.45269736 13.2904316,6.55522099 C13.3440686,6.6789564 13.3890545,6.80799476 13.4201985,6.94056842 C13.4617239,7.12970683 13.4669146,7.32591584 13.4340403,7.51858955 C13.4132776,7.76429273 13.3509895,8.00646061 13.2454457,8.22918435 C13.1675856,8.37943449 13.070693,8.51907874 12.9564981,8.64281415 C12.8544148,8.75417602 12.7229176,8.83195257 12.5775787,8.86730554 C12.5135603,9.10947342 12.4512722,9.32866186 12.3889841,9.52487087 C12.3215053,9.71047399 12.2419149,9.88900651 12.1467525,10.0622361 C12.0723528,10.2124862 11.9668091,10.3432922 11.8387724,10.4475835 C11.7090055,10.5624807 11.5930803,10.661469 11.4892668,10.7392456 C11.390644,10.8152545 11.298942,10.9001016 11.2124307,10.9920193 C11.1311101,11.0821694 11.0636313,11.184693 11.0117246,11.2960549 C10.9494364,11.4303962 10.9044506,11.5700405 10.876767,11.7149877 C10.8421625,11.9288732 10.8300509,12.146294 10.8352415,12.3637147 C10.8421625,12.5864385 10.8957994,12.8056269 10.9909618,13.0071389 C11.1034265,13.2422362 11.2626073,13.4508187 11.4563925,13.620513 C11.7228473,13.846772 12.0290972,14.0200016 12.3561098,14.1313635 C12.7159967,14.2904519 13.0879952,14.4177226 13.4669146,14.5184786 C13.8648665,14.6245375 14.2576277,14.7518082 14.6417378,14.903826 C15.0016247,15.0434702 15.3390187,15.230841 15.6469988,15.4659383 C15.9394069,15.6904297 16.1608758,15.9962329 16.2819916,16.347995" id="Fill-4" fill="#FEFEFE"></path>
                    <path d="M16.4377119,17.1611134 C16.4792373,17.4898961 16.5,17.8222141 16.5,18.1527644 C16.5,18.4674058 16.4775071,18.7820473 16.4290608,19.0931535 C16.4013771,19.3247155 16.3252472,19.5509745 16.2110523,19.7542541 C16.1453038,19.8497072 15.9601696,19.9469278 15.6435384,20.0494515 C15.2628887,20.1608133 14.8753182,20.2509634 14.482557,20.3163664 C14.0188566,20.3994459 13.5067098,20.4754548 12.9478469,20.5496961 C12.3889841,20.625705 11.8266608,20.6822697 11.260877,20.7317639 C10.6950933,20.7794904 10.1466118,20.821914 9.61889299,20.8554993 C9.09290442,20.887317 8.62920397,20.9032258 8.2312521,20.9032258 C7.83156999,20.9032258 7.37652067,20.8855493 6.85399256,20.8554993 C6.33319467,20.8236816 5.79682475,20.7794904 5.23969212,20.7317639 C4.68255949,20.6822697 4.13061754,20.6292403 3.58732672,20.5726755 C3.04230567,20.5178784 2.54746116,20.4507077 2.08895139,20.3817694 C1.63217185,20.3110635 1.25325245,20.2350546 0.941811852,20.1608133 C0.735915012,20.1254604 0.536939074,20.0565221 0.355265391,19.9522308 C0.2272287,19.8391013 0.123415167,19.4979451 0.0420945663,18.9269945 C-0.0323051323,18.1934203 -0.00808197461,17.4527755 0.114764039,16.7262718 C0.158019678,16.2666832 0.379488549,15.8459828 0.727263884,15.5543207 C1.07849967,15.2785675 1.46953065,15.0629144 1.88824523,14.9144319 C2.33291319,14.7518082 2.79488342,14.6103963 3.26377454,14.4901962 C3.71017273,14.3788343 4.13580822,14.1932312 4.52337874,13.9386898 C4.76041964,13.7849043 4.98015829,13.6046042 5.18086445,13.4013246 C5.31755227,13.258145 5.43001693,13.0937537 5.51652821,12.9152212 C5.58573723,12.7525975 5.62380219,12.5776002 5.62380219,12.3990677 C5.62380219,12.2223028 5.61342084,12.0137203 5.60130926,11.7892289 C5.584007,11.4993345 5.46462144,11.2235813 5.26391528,11.0167664 C5.07532069,10.8240927 4.8659634,10.6473278 4.64103408,10.4705629 C4.51472761,10.3538981 4.41264431,10.2124862 4.34170506,10.0551655 C4.25519378,9.88016827 4.17906386,9.6998681 4.11331529,9.51780028 C4.04929694,9.32159127 3.98700882,9.10240282 3.9247207,8.8584673 C3.82436762,8.82311432 3.72747499,8.77362016 3.63923349,8.71175245 C3.54234085,8.62690531 3.4575598,8.52791698 3.38835078,8.41655511 C3.27934657,8.25039613 3.19629574,8.07009596 3.13746808,7.8791899 C3.0578777,7.67414264 3.02500341,7.45318655 3.03884522,7.23223046 C3.04922657,7.05723323 3.08902176,6.88753895 3.15996101,6.73021822 C3.22224913,6.57112983 3.31049063,6.42264734 3.42295529,6.29184133 C3.40911349,5.76154671 3.43506687,5.22948444 3.49735499,4.70272511 C3.56656401,4.22015701 3.66691709,3.74289185 3.79668401,3.27446493 C3.92818115,2.77952328 4.14272912,2.31109637 4.42994656,1.89216362 C4.66352701,1.52626033 4.9542049,1.20278061 5.29332911,0.939400946 C5.87122445,0.481579923 6.55466354,0.182847286 7.27962804,0.0750207126 C7.59625932,0.0272941967 7.91635105,0.00254711433 8.23644277,0.000779465594 C8.99428156,-0.0133617243 9.74346923,0.165170798 10.4182572,0.515165249 C10.9580876,0.78031256 11.4390903,1.15505409 11.8301212,1.61641041 C12.1796268,2.05655495 12.4426211,2.55856719 12.6087227,3.09770006 C12.7661733,3.59794465 12.89421,4.10702749 12.9859119,4.62318092 C13.0655023,5.17468733 13.0966463,5.72972903 13.0810743,6.28653838 C13.1658554,6.36254728 13.2367946,6.45269736 13.2904316,6.55522099 C13.3440686,6.6789564 13.3890545,6.80799476 13.4201985,6.94056842 C13.4617239,7.12970683 13.4669146,7.32591584 13.4340403,7.51858955 C13.4132776,7.76429273 13.3509895,8.00646061 13.2454457,8.22918435 C13.1675856,8.37943449 13.070693,8.51907874 12.9564981,8.64281415 C12.8544148,8.75417602 12.7229176,8.83195257 12.5775787,8.86730554 C12.5135603,9.10947342 12.4512722,9.32866186 12.3889841,9.52487087 C12.3215053,9.71047399 12.2419149,9.88900651 12.1467525,10.0622361 C12.0723528,10.2124862 11.9668091,10.3432922 11.8387724,10.4475835 C11.7090055,10.5624807 11.5930803,10.661469 11.4892668,10.7392456 C11.390644,10.8152545 11.298942,10.9001016 11.2124307,10.9920193 C11.1311101,11.0821694 11.0636313,11.184693 11.0117246,11.2960549 C10.9494364,11.4303962 10.9044506,11.5700405 10.876767,11.7149877 C10.8421625,11.9288732 10.8300509,12.146294 10.8352415,12.3637147 C10.8421625,12.5864385 10.8957994,12.8056269 10.9909618,13.0071389 C11.1034265,13.2422362 11.2626073,13.4508187 11.4563925,13.620513 C11.7228473,13.846772 12.0290972,14.0200016 12.3561098,14.1313635 C12.7159967,14.2904519 13.0879952,14.4177226 13.4669146,14.5184786 C13.8648665,14.6245375 14.2576277,14.7518082 14.6417378,14.903826 C15.0016247,15.0434702 15.3390187,15.230841 15.6469988,15.4659383 C15.9394069,15.6904297 16.1608758,15.9962329 16.2819916,16.347995 C16.3563913,16.6043041 16.408298,16.8818249 16.4377119,17.1611134 Z" id="Stroke-6" stroke="#5A29A7"></path>
                </g>
                <path d="M10.7758972,15.1016204 C10.7542169,15.2400365 10.7141918,15.375035 10.6591572,15.5014893 C10.5791069,15.6330701 10.46737,15.7390183 10.3356205,15.8107896 C9.93036577,16.065407 9.49675989,16.2721768 9.04480914,16.4225549 C8.58285211,16.5814772 8.1359045,16.755779 7.71564034,16.9437516 C7.30705018,17.1248888 6.93181432,17.3777973 6.60827763,17.6888065 C6.27306693,18.0425367 6.06460256,18.5039239 6.01957426,18.9943615 C5.9912231,19.1635368 5.97121052,19.3344209 5.96120423,19.5053051 C5.96120423,19.6710627 5.94119166,19.8231496 5.92784994,19.9666923 C5.9128405,19.9940338 5.89783107,20.0213752 5.8794862,20.0487167 C5.86614448,20.0709316 5.84946733,20.0982731 5.8344579,20.1290323 C5.2307451,20.0811847 4.62703229,20.0282106 4.0133132,19.9649835 C3.40126182,19.9017563 2.83257102,19.8282761 2.32058254,19.7513783 C1.80692634,19.6744804 1.36831732,19.592456 1.01476175,19.5138493 C0.779613944,19.4813813 0.551136999,19.4010658 0.346008062,19.2780292 C0.207587723,19.1669545 0.104189397,18.8388569 0.0358130852,18.2869011 C-0.030895512,17.5691876 -0.00421207313,16.8463476 0.114195687,16.1371784 C0.16589485,15.7031326 0.374359216,15.3032637 0.699563628,15.019596 C1.03310661,14.7478902 1.41001019,14.5377027 1.8135972,14.4009953 C2.24386765,14.2506173 2.6841444,14.1104923 3.14109829,13.9874557 C3.56970102,13.8746721 3.98162661,13.6986614 4.36186562,13.466259 C4.59201028,13.3175898 4.80381007,13.1432879 4.99893272,12.9501888 C5.13234991,12.8100638 5.23908367,12.646015 5.3091277,12.463169 C5.37083315,12.300829 5.40085202,12.1299449 5.40085202,11.955643 C5.40085202,11.7847589 5.40085202,11.5950775 5.37917172,11.3968519 C5.36583,11.1183107 5.2540931,10.8534402 5.06730903,10.6517969 C4.8855281,10.4655332 4.70374718,10.2775606 4.48027338,10.0912969 C4.34518847,9.99901946 4.23845471,9.8691475 4.16841068,9.71876944 C4.08669265,9.54959412 4.01164548,9.37529228 3.94827231,9.1992816 C3.88656686,9.00960019 3.82652912,8.79770384 3.76649139,8.56359254 C3.6680962,8.52770687 3.57470417,8.4798593 3.48798299,8.42175869 C3.39625867,8.33802545 3.31454064,8.24233033 3.24616433,8.13638215 C3.14109829,7.97062452 3.05771254,7.79290499 2.99600709,7.60664126 C2.92429535,7.40841564 2.89260876,7.19651929 2.90595048,6.98462293 C2.91595677,6.80690341 2.95431421,6.63431041 3.02269053,6.47367931 C3.07438969,6.31475704 3.15777544,6.16950551 3.27118005,6.04817776 C3.2545029,5.53552529 3.27785091,5.02287282 3.33955636,4.51363803 C3.40793268,4.04883312 3.50966329,3.59086358 3.63974505,3.14143825 C3.77149453,2.66808914 3.98329433,2.22037265 4.26347044,1.82050372 C4.48694424,1.46677352 4.76878806,1.15405551 5.09566019,0.897729277 C5.38250715,0.673871032 5.69770528,0.485898459 6.02958055,0.338938085 C6.33810781,0.209066126 6.66164451,0.118497523 6.99018435,0.0689411172 C7.30371475,0.0228023949 7.61891288,0.000587454591 7.93577871,0.000587454591 C8.65623156,-0.0113744364 9.37168127,0.15950972 10.0137515,0.49786035 C10.5390817,0.755895427 11.011045,1.116461 11.4012903,1.56246865 C11.5764004,1.78120037 11.7064822,2.03581776 11.7798616,2.30752357 C11.8348962,2.53650834 11.9049402,2.80137878 12,3.10042605 C11.6564507,3.31403125 11.3429203,3.57035749 11.0644119,3.86769592 C10.7508815,4.18724929 10.4623668,4.53072645 10.1988679,4.8947097 C9.89034061,5.34071735 9.65686052,5.8362814 9.50676618,6.36089576 C9.36501041,6.85133329 9.24993808,7.34860619 9.16154919,7.85271445 C9.08650202,8.40125259 9.04981229,8.95320842 9.04814457,9.50687309 C8.9280691,9.64358041 8.83300935,9.80250268 8.76963618,9.97509567 C8.62120955,10.3783823 8.61287098,10.8226811 8.7496236,11.2293854 C8.80299048,11.4446994 8.88971165,11.6514693 9.00144855,11.8428595 C9.07649573,11.9607696 9.16154919,12.0718443 9.25660894,12.1743748 C9.33332383,12.258108 9.42838358,12.323044 9.53511733,12.3606385 C9.59682278,12.6118382 9.65852824,12.851076 9.71689826,13.0715166 C9.77860371,13.2577803 9.84864774,13.4440441 9.9337012,13.6508139 C10.0020775,13.8199892 10.110479,13.9703673 10.2488993,14.0865685 C10.3556331,14.1805548 10.4290125,14.2608703 10.5007243,14.3223886 C10.5557589,14.3770715 10.607458,14.4351722 10.6541541,14.4966905 C10.6958469,14.5650441 10.7191949,14.641942 10.7208626,14.7222575 C10.7325367,14.8487118 10.7508815,14.9734573 10.7792327,15.0964938 L10.7758972,15.1016204 Z" id="Fill-8" fill="#5A29A7"></path>
            </g>
        </g>
    </g>
</svg>