<?xml version="1.0" encoding="utf-8"?>
<!-- Generator: Adobe Illustrator 17.0.0, SVG Export Plug-In . SVG Version: 6.00 Build 0)  -->
<!DOCTYPE svg PUBLIC "-//W3C//DTD SVG 1.1//EN" "http://www.w3.org/Graphics/SVG/1.1/DTD/svg11.dtd">
<svg version="1.1" id="图层_1" xmlns="http://www.w3.org/2000/svg" xmlns:xlink="http://www.w3.org/1999/xlink" x="0px" y="0px"
	 width="62.387px" height="62.387px" viewBox="0 0 62.387 62.387" enable-background="new 0 0 62.387 62.387" xml:space="preserve">
<circle fill="#FFFFFF" stroke="#3D3588" stroke-miterlimit="10" stroke-dasharray="2" cx="23.071" cy="30.669" r="19.488"/>
<circle fill="#FFFFFF" stroke="#3D3588" stroke-miterlimit="10" cx="40.082" cy="31.189" r="19.222"/>
<g>
	<path fill="#312F74" d="M42.085,26.484c0,0.556-0.181,1.034-0.542,1.436s-0.831,0.649-1.408,0.744v0.953
		c0,0.051-0.016,0.093-0.049,0.125c-0.033,0.033-0.074,0.049-0.125,0.049h-0.735c-0.047,0-0.088-0.017-0.123-0.052
		c-0.035-0.035-0.052-0.075-0.052-0.123v-0.953c-0.24-0.033-0.471-0.089-0.695-0.169c-0.223-0.08-0.408-0.161-0.553-0.242
		c-0.145-0.082-0.28-0.169-0.403-0.261c-0.123-0.093-0.208-0.161-0.253-0.204c-0.045-0.044-0.077-0.076-0.095-0.098
		c-0.062-0.076-0.065-0.151-0.011-0.223l0.561-0.735c0.025-0.036,0.067-0.058,0.125-0.065c0.054-0.007,0.098,0.009,0.131,0.049
		l0.011,0.011c0.41,0.36,0.852,0.587,1.324,0.681c0.134,0.029,0.269,0.044,0.403,0.044c0.294,0,0.553-0.078,0.776-0.234
		c0.223-0.156,0.335-0.378,0.335-0.665c0-0.102-0.027-0.198-0.082-0.289s-0.115-0.167-0.183-0.229
		c-0.067-0.062-0.173-0.13-0.319-0.204c-0.145-0.074-0.265-0.133-0.36-0.174c-0.094-0.042-0.24-0.101-0.436-0.177
		c-0.142-0.058-0.253-0.104-0.335-0.136c-0.082-0.033-0.193-0.081-0.335-0.144c-0.142-0.064-0.255-0.12-0.34-0.169
		s-0.188-0.113-0.308-0.193s-0.217-0.157-0.291-0.232s-0.153-0.163-0.237-0.267s-0.148-0.209-0.193-0.316
		c-0.045-0.107-0.084-0.228-0.114-0.362c-0.031-0.134-0.046-0.276-0.046-0.425c0-0.501,0.178-0.941,0.534-1.318
		s0.819-0.621,1.389-0.73v-0.981c0-0.047,0.017-0.088,0.052-0.123c0.035-0.035,0.075-0.052,0.123-0.052h0.735
		c0.051,0,0.093,0.016,0.125,0.049s0.049,0.074,0.049,0.125v0.959c0.207,0.022,0.408,0.064,0.602,0.125s0.352,0.123,0.474,0.183
		s0.237,0.128,0.346,0.204s0.18,0.129,0.212,0.158c0.033,0.029,0.06,0.054,0.082,0.076c0.062,0.065,0.071,0.134,0.027,0.207
		l-0.441,0.795c-0.029,0.054-0.071,0.084-0.125,0.087c-0.051,0.011-0.1-0.002-0.147-0.038c-0.011-0.011-0.037-0.033-0.079-0.065
		c-0.042-0.033-0.113-0.081-0.212-0.144c-0.1-0.064-0.206-0.122-0.319-0.174c-0.113-0.053-0.248-0.1-0.406-0.142
		s-0.313-0.063-0.466-0.063c-0.345,0-0.627,0.078-0.844,0.234c-0.218,0.156-0.327,0.358-0.327,0.605
		c0,0.094,0.015,0.182,0.046,0.261s0.084,0.155,0.161,0.226c0.076,0.071,0.148,0.131,0.215,0.18
		c0.067,0.049,0.169,0.105,0.305,0.169c0.136,0.064,0.246,0.113,0.33,0.147c0.084,0.035,0.211,0.084,0.381,0.15
		c0.192,0.073,0.34,0.13,0.441,0.172c0.102,0.042,0.24,0.105,0.414,0.191c0.174,0.085,0.311,0.163,0.411,0.232
		c0.1,0.069,0.212,0.16,0.338,0.272s0.222,0.228,0.289,0.346s0.124,0.257,0.172,0.417C42.062,26.131,42.085,26.302,42.085,26.484z"
		/>
</g>
<rect x="28.48" y="34.37" fill="none" width="22.433" height="18.716"/>
<text transform="matrix(1 0 0 1 32.629 42.6896)" fill="#312F74" font-family="'Roboto-Italic'" font-size="9.9395">36s</text>
</svg>
