<?xml version="1.0" encoding="utf-8"?>
<!-- Generator: Adobe Illustrator 17.0.0, SVG Export Plug-In . SVG Version: 6.00 Build 0)  -->
<!DOCTYPE svg PUBLIC "-//W3C//DTD SVG 1.1//EN" "http://www.w3.org/Graphics/SVG/1.1/DTD/svg11.dtd">
<svg version="1.1" id="图层_1" xmlns="http://www.w3.org/2000/svg" xmlns:xlink="http://www.w3.org/1999/xlink" x="0px" y="0px"
	 width="62.387px" height="62.387px" viewBox="7.078 6.078 62.387 62.387" enable-background="new 7.078 6.078 62.387 62.387"
	 xml:space="preserve">
<circle fill="#FFFFFF" stroke="#3D3588" stroke-miterlimit="10" cx="39.134" cy="38.066" r="27.18"/>
<circle fill="#F4F4F4" stroke="#3D3588" stroke-miterlimit="10" stroke-dasharray="2" cx="39.134" cy="38.134" r="21.407"/>
<g>
	<rect x="14.15" y="33.904" fill="none" width="49.967" height="19.502"/>
	<path fill="#312F74" d="M24.867,37.864c0.452-0.475,0.965-0.706,1.541-0.693c0.515,0.007,0.897,0.189,1.147,0.547
		c0.249,0.358,0.342,0.854,0.278,1.486l-0.582,3.493h-1.189l0.592-3.508c0.017-0.145,0.02-0.278,0.01-0.402
		c-0.043-0.408-0.284-0.617-0.723-0.627c-0.441-0.007-0.836,0.211-1.185,0.652l-0.677,3.885H22.89l1.335-7.709h1.194L24.867,37.864z
		"/>
	<path fill="#312F74" d="M31.155,35.947l-0.23,1.32h0.928l-0.155,0.904h-0.934l-0.512,3.033c-0.01,0.084-0.012,0.158-0.005,0.225
		c0.02,0.218,0.154,0.331,0.401,0.341c0.124,0,0.265-0.015,0.422-0.045l-0.081,0.962c-0.248,0.072-0.497,0.107-0.748,0.107
		c-0.415-0.008-0.726-0.148-0.931-0.424c-0.206-0.277-0.287-0.643-0.243-1.098l0.507-3.101h-0.869l0.161-0.904h0.863l0.231-1.32
		H31.155z"/>
	<path fill="#312F74" d="M34.523,35.947l-0.23,1.32h0.928l-0.155,0.904h-0.934l-0.512,3.033c-0.01,0.084-0.012,0.158-0.005,0.225
		c0.02,0.218,0.154,0.331,0.401,0.341c0.124,0,0.265-0.015,0.422-0.045l-0.081,0.962c-0.248,0.072-0.497,0.107-0.748,0.107
		c-0.415-0.008-0.726-0.148-0.931-0.424c-0.206-0.277-0.287-0.643-0.243-1.098l0.507-3.101h-0.869l0.161-0.904h0.863l0.231-1.32
		H34.523z"/>
	<path fill="#312F74" d="M40.311,40.002c-0.067,0.542-0.212,1.034-0.435,1.476c-0.223,0.442-0.505,0.775-0.848,1.001
		c-0.344,0.227-0.728,0.334-1.152,0.324c-0.565-0.014-1.011-0.215-1.335-0.603l-0.487,2.585H34.86l1.305-7.519l1.089-0.005
		l-0.09,0.562c0.415-0.452,0.909-0.67,1.48-0.657c0.345,0.003,0.645,0.091,0.898,0.263c0.255,0.172,0.449,0.423,0.585,0.75
		s0.208,0.693,0.219,1.094C40.349,39.479,40.337,39.721,40.311,40.002z M39.136,39.897l0.025-0.366
		c0.01-0.432-0.062-0.767-0.214-1.004s-0.38-0.359-0.685-0.366c-0.448-0.013-0.836,0.192-1.165,0.617l-0.421,2.424
		c0.15,0.405,0.457,0.614,0.918,0.628c0.395,0.01,0.727-0.144,0.996-0.462C38.861,41.049,39.042,40.559,39.136,39.897z"/>
	<path fill="#312F74" d="M44.135,41.192c0.057-0.331-0.158-0.561-0.646-0.689c-0.486-0.129-0.818-0.232-0.996-0.309
		c-0.689-0.295-1.022-0.743-0.999-1.346c0.017-0.488,0.238-0.893,0.665-1.212s0.938-0.476,1.533-0.469
		c0.576,0.007,1.045,0.169,1.408,0.487s0.541,0.734,0.534,1.249l-1.179-0.004c0.006-0.252-0.063-0.448-0.206-0.59
		c-0.144-0.142-0.342-0.216-0.593-0.223c-0.264,0-0.49,0.065-0.68,0.196c-0.189,0.13-0.299,0.301-0.329,0.512
		c-0.047,0.305,0.168,0.516,0.643,0.635c0.476,0.119,0.826,0.229,1.055,0.328c0.662,0.291,0.981,0.746,0.958,1.365
		c-0.017,0.345-0.13,0.645-0.339,0.901c-0.209,0.256-0.489,0.452-0.841,0.587c-0.351,0.136-0.724,0.198-1.119,0.188
		c-0.592-0.007-1.083-0.179-1.473-0.517s-0.581-0.771-0.575-1.301l1.149,0.006c0.007,0.291,0.094,0.512,0.262,0.662
		c0.167,0.15,0.396,0.228,0.688,0.23c0.294,0,0.539-0.061,0.735-0.184C43.986,41.574,44.101,41.406,44.135,41.192z"/>
	<path fill="#312F74" d="M46.217,42.11c0-0.203,0.064-0.369,0.193-0.498s0.294-0.197,0.494-0.204
		c0.197-0.007,0.362,0.053,0.495,0.179c0.132,0.125,0.198,0.287,0.198,0.484c0,0.193-0.064,0.355-0.191,0.484
		s-0.293,0.196-0.497,0.203c-0.197,0.006-0.361-0.053-0.494-0.176C46.283,42.458,46.217,42.301,46.217,42.11z M46.95,37.849
		c0-0.204,0.064-0.371,0.192-0.5c0.129-0.129,0.294-0.196,0.495-0.203c0.197-0.007,0.362,0.053,0.494,0.178s0.198,0.287,0.198,0.484
		c0,0.194-0.063,0.356-0.19,0.484c-0.128,0.129-0.293,0.197-0.497,0.203c-0.197,0.007-0.362-0.051-0.494-0.175
		C47.016,38.197,46.95,38.04,46.95,37.849z"/>
	<path fill="#888888" d="M49.033,43.324h-0.984l4.166-7.935h0.988L49.033,43.324z"/>
	<path fill="#888888" d="M51.783,43.324H50.8l4.165-7.935h0.989L51.783,43.324z"/>
</g>
</svg>
