<?xml version="1.0" encoding="utf-8"?>
<!-- Generator: Adobe Illustrator 17.0.0, SVG Export Plug-In . SVG Version: 6.00 Build 0)  -->
<!DOCTYPE svg PUBLIC "-//W3C//DTD SVG 1.1//EN" "http://www.w3.org/Graphics/SVG/1.1/DTD/svg11.dtd">
<svg version="1.1" id="图层_1" xmlns="http://www.w3.org/2000/svg" xmlns:xlink="http://www.w3.org/1999/xlink" x="0px" y="0px"
	 width="62.387px" height="62.387px" viewBox="0 0 62.387 62.387" enable-background="new 0 0 62.387 62.387" xml:space="preserve">
<circle fill="#FFFFFF" stroke="#3D3588" stroke-miterlimit="10" cx="31.193" cy="31.194" r="27.864"/>
<circle fill="#F4F4F4" stroke="#3D3588" stroke-miterlimit="10" stroke-dasharray="2" cx="31.193" cy="31.263" r="21.946"/>
<g>
	<path fill="#FFFFFF" stroke="#3D3588" stroke-miterlimit="10" d="M28.974,34.38c0,0.928-0.302,1.727-0.905,2.397
		c-0.603,0.67-1.387,1.084-2.352,1.242v1.592c0,0.085-0.027,0.155-0.082,0.209c-0.055,0.055-0.124,0.082-0.209,0.082h-1.228
		c-0.079,0-0.147-0.029-0.205-0.086s-0.086-0.126-0.086-0.205v-1.592c-0.4-0.055-0.787-0.149-1.16-0.282s-0.681-0.268-0.923-0.405
		s-0.467-0.282-0.673-0.437c-0.206-0.155-0.347-0.268-0.423-0.341c-0.076-0.073-0.129-0.127-0.159-0.164
		c-0.103-0.127-0.109-0.252-0.018-0.373l0.937-1.228c0.042-0.061,0.112-0.097,0.209-0.109c0.091-0.012,0.164,0.015,0.218,0.082
		l0.018,0.018c0.685,0.6,1.422,0.979,2.211,1.137c0.224,0.049,0.449,0.073,0.673,0.073c0.491,0,0.923-0.13,1.296-0.391
		c0.373-0.261,0.559-0.631,0.559-1.11c0-0.17-0.045-0.331-0.136-0.482c-0.091-0.152-0.193-0.279-0.305-0.382
		c-0.112-0.103-0.29-0.217-0.532-0.341s-0.443-0.221-0.6-0.291c-0.158-0.07-0.4-0.168-0.728-0.296
		c-0.237-0.097-0.423-0.173-0.559-0.227c-0.136-0.055-0.323-0.135-0.559-0.241c-0.237-0.106-0.426-0.2-0.569-0.282
		c-0.143-0.082-0.314-0.19-0.514-0.323c-0.2-0.133-0.362-0.262-0.487-0.387s-0.256-0.273-0.396-0.446
		c-0.139-0.173-0.247-0.349-0.323-0.528c-0.076-0.179-0.139-0.381-0.191-0.605s-0.077-0.461-0.077-0.71
		c0-0.837,0.297-1.571,0.892-2.202c0.594-0.631,1.368-1.037,2.32-1.219v-1.638c0-0.079,0.029-0.147,0.086-0.205
		s0.126-0.086,0.205-0.086h1.228c0.085,0,0.155,0.027,0.209,0.082c0.055,0.055,0.082,0.124,0.082,0.209v1.601
		c0.346,0.036,0.681,0.106,1.005,0.209c0.324,0.103,0.588,0.205,0.791,0.305c0.203,0.1,0.396,0.214,0.578,0.341
		c0.182,0.127,0.3,0.215,0.355,0.264c0.055,0.049,0.1,0.091,0.136,0.127c0.103,0.109,0.118,0.224,0.045,0.346l-0.737,1.328
		c-0.049,0.091-0.118,0.139-0.209,0.146c-0.085,0.018-0.167-0.003-0.246-0.064c-0.018-0.018-0.062-0.055-0.132-0.109
		c-0.07-0.055-0.188-0.135-0.355-0.241c-0.167-0.106-0.344-0.203-0.532-0.291c-0.188-0.088-0.414-0.167-0.678-0.237
		c-0.264-0.07-0.523-0.105-0.778-0.105c-0.576,0-1.046,0.13-1.41,0.391c-0.364,0.261-0.546,0.597-0.546,1.01
		c0,0.158,0.026,0.303,0.077,0.437c0.052,0.133,0.141,0.259,0.268,0.378c0.127,0.118,0.247,0.218,0.359,0.3s0.282,0.176,0.509,0.282
		c0.227,0.106,0.411,0.188,0.55,0.246c0.139,0.058,0.352,0.141,0.637,0.25c0.321,0.121,0.567,0.217,0.737,0.287
		c0.17,0.07,0.4,0.176,0.691,0.318c0.291,0.143,0.52,0.271,0.687,0.387c0.167,0.115,0.355,0.267,0.564,0.455s0.37,0.381,0.482,0.578
		c0.112,0.197,0.208,0.429,0.287,0.696S28.974,34.077,28.974,34.38z"/>
</g>
<g>
	<rect x="33.297" y="30.086" fill="none" width="19.704" height="19.632"/>
	<path fill="#312F74" d="M36.041,31.762c0.172,0.015,0.315,0.088,0.43,0.221c0.115,0.133,0.165,0.286,0.15,0.462l-0.525,6.413
		c-0.015,0.165-0.083,0.303-0.205,0.414c-0.121,0.11-0.263,0.166-0.424,0.166c-0.018,0-0.036,0-0.054,0
		c-0.172-0.015-0.315-0.09-0.43-0.226c-0.114-0.133-0.165-0.284-0.15-0.456l0.526-6.414c0.015-0.175,0.088-0.318,0.221-0.43
		C35.712,31.798,35.866,31.748,36.041,31.762z"/>
	<path fill="#312F74" d="M44.463,37.145c-0.028,0.641-0.284,1.183-0.768,1.627c-0.487,0.444-1.067,0.666-1.74,0.666
		c-0.584,0-1.106-0.125-1.568-0.376c-0.555-0.301-0.908-0.737-1.059-1.311c-0.043-0.168-0.021-0.327,0.064-0.478
		c0.09-0.15,0.219-0.248,0.387-0.291c0.169-0.043,0.328-0.021,0.479,0.064c0.15,0.09,0.247,0.219,0.29,0.387
		c0.064,0.24,0.24,0.429,0.526,0.564c0.258,0.118,0.552,0.178,0.881,0.178c0.337,0,0.625-0.106,0.865-0.317
		c0.243-0.208,0.372-0.466,0.387-0.773c0.007-0.187-0.06-0.353-0.199-0.499c-0.222-0.236-0.595-0.358-1.117-0.365h-0.006
		c-0.014,0-0.018,0-0.01,0c-0.004,0-0.008,0-0.012,0c-0.877-0.015-1.548-0.268-2.014-0.758c-0.383-0.408-0.563-0.883-0.537-1.424
		c0.028-0.645,0.285-1.188,0.768-1.633c0.484-0.443,1.064-0.666,1.74-0.666c0.584,0,1.107,0.126,1.568,0.377
		c0.556,0.301,0.908,0.737,1.059,1.311c0.043,0.168,0.02,0.327-0.07,0.478c-0.086,0.15-0.213,0.247-0.381,0.29
		s-0.328,0.021-0.479-0.064c-0.15-0.09-0.246-0.219-0.289-0.387c-0.064-0.24-0.242-0.428-0.532-0.564
		c-0.254-0.117-0.546-0.177-0.876-0.177c-0.336,0-0.626,0.105-0.869,0.317c-0.24,0.211-0.367,0.469-0.382,0.773
		c-0.007,0.186,0.06,0.354,0.198,0.504c0.223,0.233,0.595,0.354,1.117,0.36h0.027c0.877,0.015,1.549,0.269,2.014,0.763
		C44.31,36.125,44.488,36.6,44.463,37.145z"/>
</g>
</svg>
