<?xml version="1.0" encoding="utf-8"?>
<!-- Generator: Adobe Illustrator 17.0.0, SVG Export Plug-In . SVG Version: 6.00 Build 0)  -->
<!DOCTYPE svg PUBLIC "-//W3C//DTD SVG 1.1//EN" "http://www.w3.org/Graphics/SVG/1.1/DTD/svg11.dtd">
<svg version="1.1" id="图层_1" xmlns="http://www.w3.org/2000/svg" xmlns:xlink="http://www.w3.org/1999/xlink" x="0px" y="0px"
	 width="62.387px" height="62.387px" viewBox="7.078 6.078 62.387 62.387" enable-background="new 7.078 6.078 62.387 62.387"
	 xml:space="preserve">
<path fill="#FFFFFF" stroke="#3D3588" stroke-miterlimit="10" d="M66.674,53.544c0,4.145-3.36,7.504-7.504,7.504H18.583
	c-4.145,0-7.504-3.36-7.504-7.504V22.79c0-4.145,3.36-7.504,7.504-7.504h40.587c4.145,0,7.504,3.36,7.504,7.504V53.544z"/>
<circle fill="#F4F4F4" stroke="#3D3588" stroke-miterlimit="10" cx="51.386" cy="23.521" r="2.643"/>
<circle fill="#F4F4F4" stroke="#3D3588" stroke-miterlimit="10" cx="58.851" cy="23.521" r="2.643"/>
<rect x="24.756" y="36.453" fill="#E2E1E1" width="36.737" height="3.429"/>
<rect x="24.756" y="42.702" fill="#E2E1E1" width="18.369" height="3.429"/>
<rect x="24.756" y="29.97" fill="#E2E1E1" width="36.737" height="3.429"/>
<rect x="15.646" y="23.521" fill="none" width="12.796" height="13.678"/>
<text transform="matrix(1 0 0 1 15.6458 37.025)" fill="#383380" font-family="'Moon-Bold'" font-size="15.8844">&gt;</text>
</svg>
