<?xml version="1.0" encoding="utf-8"?>
<!-- Generator: Adobe Illustrator 17.0.0, SVG Export Plug-In . SVG Version: 6.00 Build 0)  -->
<!DOCTYPE svg PUBLIC "-//W3C//DTD SVG 1.1//EN" "http://www.w3.org/Graphics/SVG/1.1/DTD/svg11.dtd">
<svg version="1.1" id="图层_1" xmlns="http://www.w3.org/2000/svg" xmlns:xlink="http://www.w3.org/1999/xlink" x="0px" y="0px"
	 width="62.387px" height="62.387px" viewBox="0 0 62.387 62.387" enable-background="new 0 0 62.387 62.387" xml:space="preserve">
<path fill="#FFFFFF" stroke="#3D3588" stroke-miterlimit="10" d="M53.29,53.565c0,2.599-2.107,4.706-4.706,4.706H14.969
	c-2.599,0-4.706-2.107-4.706-4.706v-43.29c0-2.599,2.107-4.706,4.706-4.706h33.615c2.599,0,4.706,2.107,4.706,4.706V53.565z"/>
<rect x="17.4" y="47.518" fill="#E2E1E1" width="29.469" height="3.6"/>
<rect x="17.4" y="40.877" fill="#E2E1E1" width="29.469" height="3.6"/>
<rect x="17.4" y="33.812" fill="#E2E1E1" width="29.469" height="3.6"/>
<g>
	<rect x="6.609" y="13.961" fill="none" width="49.392" height="13.697"/>
	<path fill="#2E2D6E" d="M18.572,18.901c-0.558,0-1.036-0.198-1.433-0.593c-0.395-0.397-0.593-0.875-0.593-1.433
		c0-0.56,0.198-1.038,0.593-1.433c0.397-0.397,0.875-0.596,1.433-0.596c0.459,0,0.872,0.14,1.237,0.42
		c0.072,0.057,0.114,0.131,0.127,0.222c0.011,0.092-0.011,0.176-0.068,0.25c-0.057,0.074-0.131,0.116-0.222,0.127
		c-0.093,0.012-0.176-0.01-0.25-0.065c-0.242-0.188-0.518-0.281-0.826-0.281c-0.373,0-0.691,0.133-0.956,0.397
		c-0.265,0.265-0.397,0.584-0.397,0.959c0,0.373,0.132,0.691,0.397,0.956c0.265,0.265,0.583,0.397,0.956,0.397
		c0.352,0,0.656-0.117,0.914-0.352c0.068-0.063,0.148-0.092,0.241-0.088s0.17,0.041,0.232,0.111
		c0.063,0.068,0.092,0.148,0.088,0.241c-0.004,0.093-0.04,0.17-0.108,0.232C19.552,18.725,19.096,18.901,18.572,18.901z"/>
	<path fill="#2E2D6E" d="M22.672,18.901c-0.562,0-1.042-0.2-1.438-0.599c-0.399-0.397-0.599-0.877-0.599-1.438
		c0-0.562,0.2-1.042,0.599-1.441c0.397-0.397,0.876-0.596,1.438-0.596c0.562,0,1.042,0.198,1.441,0.596
		c0.397,0.399,0.596,0.879,0.596,1.441c0,0.562-0.199,1.041-0.596,1.438C23.714,18.701,23.234,18.901,22.672,18.901z M22.672,15.496
		c-0.376,0-0.698,0.133-0.965,0.4c-0.269,0.269-0.403,0.591-0.403,0.968s0.134,0.698,0.403,0.964
		c0.267,0.269,0.588,0.403,0.965,0.403c0.376,0,0.699-0.134,0.967-0.403c0.267-0.267,0.4-0.588,0.4-0.964s-0.133-0.699-0.4-0.968
		C23.371,15.629,23.048,15.496,22.672,15.496z"/>
	<path fill="#2E2D6E" d="M29.507,14.832c0.072,0.021,0.13,0.062,0.176,0.122c0.045,0.059,0.068,0.126,0.068,0.202v3.41
		c0,0.093-0.032,0.171-0.097,0.236c-0.066,0.066-0.146,0.099-0.238,0.099s-0.172-0.033-0.238-0.099
		c-0.064-0.064-0.096-0.143-0.096-0.236v-2.208l-1.059,1.748v0.003l-0.003,0.003l-0.003,0.002l-0.002,0.003
		c-0.006,0.01-0.01,0.016-0.012,0.02l-0.008,0.011c-0.008,0.008-0.012,0.012-0.014,0.014s-0.006,0.006-0.011,0.011
		c-0.006,0.006-0.01,0.01-0.012,0.012c-0.003,0.003-0.009,0.008-0.017,0.014l-0.009,0.008c-0.006,0.004-0.012,0.008-0.02,0.011
		c0,0.002-0.001,0.003-0.002,0.003l-0.003,0.003h-0.003c-0.004,0.004-0.01,0.008-0.02,0.011c-0.007,0.004-0.01,0.006-0.008,0.006
		c-0.002,0-0.008,0.002-0.017,0.005c-0.043,0.019-0.089,0.028-0.136,0.026h-0.006c0.004,0,0-0.001-0.011-0.003
		c-0.024-0.002-0.049-0.007-0.074-0.014c-0.009-0.002-0.013-0.003-0.011-0.003c0.004,0.002,0,0.001-0.011-0.003
		c-0.01-0.003-0.016-0.006-0.02-0.008c0.002,0,0-0.002-0.006-0.006c-0.009-0.003-0.017-0.007-0.022-0.011h-0.003l-0.003-0.003
		l-0.003-0.003c-0.007-0.003-0.014-0.008-0.02-0.014c0,0.002-0.003,0-0.009-0.005c-0.007-0.006-0.013-0.011-0.017-0.014
		c-0.001-0.002-0.005-0.006-0.011-0.012c-0.005-0.005-0.009-0.009-0.011-0.011c-0.002-0.004-0.007-0.008-0.014-0.014
		c-0.004-0.006-0.006-0.009-0.006-0.011c-0.003-0.004-0.008-0.01-0.014-0.02l-0.003-0.003c0-0.001-0.001-0.002-0.002-0.002v-0.003
		c0-0.002-0.001-0.003-0.003-0.003l-1.056-1.748v2.208c0,0.093-0.033,0.171-0.099,0.236c-0.066,0.066-0.146,0.099-0.238,0.099
		c-0.093,0-0.171-0.033-0.236-0.099c-0.066-0.064-0.099-0.143-0.099-0.236v-3.41c0-0.076,0.022-0.143,0.068-0.202
		c0.045-0.061,0.105-0.101,0.179-0.122c0.072-0.019,0.143-0.015,0.212,0.011c0.07,0.029,0.125,0.075,0.165,0.139l1.396,2.307
		l1.396-2.307c0.038-0.064,0.092-0.11,0.162-0.139c0.07-0.026,0.105-0.04,0.105-0.04S29.434,14.813,29.507,14.832z"/>
	<path fill="#2E2D6E" d="M32.501,14.823c0.352,0,0.651,0.116,0.899,0.349c0.25,0.232,0.374,0.512,0.374,0.84
		c0,0.321-0.12,0.598-0.36,0.828c-0.238,0.229-0.527,0.349-0.868,0.36h-0.003h-0.002h-0.006c-0.021,0.002-0.032,0.003-0.034,0.003
		l-0.018-0.003h-0.831v1.365c0,0.093-0.032,0.171-0.096,0.236c-0.066,0.066-0.146,0.099-0.238,0.099
		c-0.093,0-0.171-0.033-0.236-0.099c-0.066-0.064-0.099-0.143-0.099-0.236v-3.408c0-0.092,0.033-0.171,0.099-0.235
		c0.064-0.066,0.143-0.099,0.236-0.099H32.501z M32.521,16.531c0.161-0.004,0.298-0.056,0.412-0.156
		c0.113-0.102,0.17-0.223,0.17-0.363c0-0.142-0.059-0.264-0.176-0.366s-0.26-0.153-0.426-0.153h-0.849v1.039H32.521z"/>
	<path fill="#2E2D6E" d="M36.442,18.901c-0.562,0-1.041-0.2-1.438-0.599c-0.398-0.397-0.599-0.877-0.599-1.438
		c0-0.562,0.2-1.042,0.599-1.441c0.397-0.397,0.877-0.596,1.438-0.596c0.563,0,1.043,0.198,1.441,0.596
		c0.397,0.399,0.596,0.879,0.596,1.441c0,0.562-0.198,1.041-0.596,1.438C37.484,18.701,37.004,18.901,36.442,18.901z M36.442,15.496
		c-0.376,0-0.697,0.133-0.965,0.4c-0.269,0.269-0.402,0.591-0.402,0.968s0.134,0.698,0.402,0.964
		c0.268,0.269,0.589,0.403,0.965,0.403c0.377,0,0.699-0.134,0.968-0.403c0.267-0.267,0.4-0.588,0.4-0.964s-0.134-0.699-0.4-0.968
		C37.141,15.629,36.818,15.496,36.442,15.496z"/>
	<path fill="#2E2D6E" d="M42.02,17.689c-0.016,0.338-0.15,0.625-0.406,0.859c-0.257,0.235-0.563,0.352-0.919,0.352
		c-0.309,0-0.584-0.066-0.828-0.199c-0.294-0.159-0.479-0.39-0.56-0.692c-0.022-0.089-0.011-0.173,0.034-0.252
		c0.048-0.079,0.115-0.13,0.204-0.153c0.089-0.022,0.174-0.011,0.253,0.034c0.079,0.047,0.131,0.115,0.153,0.205
		c0.034,0.126,0.127,0.226,0.278,0.298c0.136,0.063,0.291,0.093,0.465,0.093c0.178,0,0.33-0.056,0.457-0.167
		c0.129-0.11,0.196-0.246,0.204-0.409c0.004-0.099-0.031-0.187-0.104-0.264c-0.118-0.125-0.314-0.189-0.591-0.193h-0.003
		c-0.007,0-0.009,0-0.005,0c-0.002,0-0.004,0-0.006,0c-0.464-0.007-0.818-0.141-1.064-0.4c-0.202-0.216-0.297-0.466-0.283-0.752
		c0.015-0.34,0.15-0.628,0.405-0.862c0.256-0.235,0.562-0.352,0.919-0.352c0.309,0,0.585,0.066,0.829,0.199
		c0.293,0.159,0.479,0.39,0.559,0.692c0.022,0.089,0.011,0.173-0.037,0.252c-0.045,0.08-0.112,0.13-0.201,0.153
		c-0.089,0.022-0.173,0.011-0.252-0.034c-0.08-0.047-0.131-0.115-0.153-0.205c-0.034-0.126-0.128-0.226-0.281-0.298
		c-0.134-0.063-0.288-0.093-0.463-0.093c-0.178,0-0.33,0.056-0.459,0.167c-0.127,0.112-0.194,0.248-0.201,0.409
		c-0.004,0.099,0.03,0.188,0.104,0.267c0.117,0.123,0.314,0.187,0.59,0.19h0.015c0.463,0.007,0.818,0.142,1.063,0.403
		C41.939,17.151,42.032,17.402,42.02,17.689z"/>
	<path fill="#2E2D6E" d="M45.473,18.228c0.093,0,0.171,0.033,0.235,0.099c0.066,0.066,0.1,0.146,0.1,0.238
		c0,0.093-0.033,0.171-0.1,0.236c-0.064,0.066-0.143,0.099-0.235,0.099h-2.055c-0.092,0-0.171-0.033-0.235-0.099
		c-0.066-0.064-0.099-0.143-0.099-0.236v-3.402c0-0.095,0.032-0.174,0.099-0.238c0.064-0.066,0.144-0.099,0.235-0.099h0.003
		l2.052,0.005c0.093,0,0.172,0.033,0.238,0.1c0.064,0.066,0.097,0.146,0.097,0.238s-0.033,0.171-0.1,0.235
		c-0.064,0.066-0.143,0.099-0.235,0.099H45.47l-1.714-0.005v1.03h1.237c0.093,0,0.172,0.032,0.238,0.097
		c0.066,0.066,0.1,0.146,0.1,0.238s-0.033,0.172-0.1,0.238c-0.066,0.064-0.146,0.096-0.238,0.096h-1.237v1.03H45.473z"/>
</g>
<rect x="17.4" y="27.028" fill="#E2E1E1" width="29.469" height="3.6"/>
</svg>
