<?xml version="1.0" encoding="utf-8"?>
<!-- Generator: Adobe Illustrator 17.0.0, SVG Export Plug-In . SVG Version: 6.00 Build 0)  -->
<!DOCTYPE svg PUBLIC "-//W3C//DTD SVG 1.1//EN" "http://www.w3.org/Graphics/SVG/1.1/DTD/svg11.dtd">
<svg version="1.1" id="图层_1" xmlns="http://www.w3.org/2000/svg" xmlns:xlink="http://www.w3.org/1999/xlink" x="0px" y="0px"
	 width="62.387px" height="62.387px" viewBox="0 0 62.387 62.387" enable-background="new 0 0 62.387 62.387" xml:space="preserve">
<g>
	<path fill="#F4F4F4" stroke="#3D3588" stroke-miterlimit="10" d="M45.094,36.078c0.659,0.33,0.659,0.864,0,1.193l-11.295,5.648
		c-0.659,0.33-1.728,0.33-2.387,0l-11.295-5.648c-0.659-0.33-0.659-0.864,0-1.193l11.295-5.648c0.659-0.33,1.728-0.33,2.387,0
		L45.094,36.078z"/>
	<path fill="#3D3588" d="M45.289,50.817c-0.007,0.022-0.062,0.105-0.246,0.197l-11.295,5.648c-0.509,0.254-1.478,0.254-1.987,0
		l-11.295-5.648c-0.19-0.095-0.244-0.182-0.248-0.194c0-0.001,0.001-0.002,0.002-0.003h-0.894v0c0,0.234,0.096,0.674,0.741,0.996
		l11.295,5.647c0.379,0.19,0.874,0.294,1.393,0.294c0.519,0,1.014-0.105,1.393-0.294l11.295-5.648
		c0.645-0.322,0.741-0.762,0.741-0.996v0H45.289z"/>
	<line fill="none" stroke="#3D3588" stroke-miterlimit="10" x1="19.623" y1="51.115" x2="19.623" y2="36.972"/>
	<line fill="none" stroke="#3D3588" stroke-miterlimit="10" x1="45.588" y1="50.833" x2="45.588" y2="36.69"/>
	<line fill="none" stroke="#3D3588" stroke-miterlimit="10" x1="32.606" y1="43.166" x2="32.606" y2="57.755"/>
</g>
<ellipse fill="none" stroke="#383380" stroke-miterlimit="10" cx="27.948" cy="36.871" rx="2.91" ry="1.457"/>
<ellipse fill="none" stroke="#383380" stroke-miterlimit="10" cx="36.322" cy="36.871" rx="2.91" ry="1.457"/>
<polygon fill="none" stroke="#383380" stroke-miterlimit="10" points="22.86,48.329 25.254,45.35 27.647,50.664 "/>
<g>
	<path fill="#F4F4F4" stroke="#3D3588" stroke-miterlimit="10" d="M29.769,12.975c0.659,0.33,0.659,0.864,0,1.193l-11.295,5.648
		c-0.659,0.33-1.728,0.33-2.387,0L4.792,14.168c-0.659-0.33-0.659-0.864,0-1.193l11.295-5.648c0.659-0.33,1.728-0.33,2.387,0
		L29.769,12.975z"/>
	<path fill="#3D3588" d="M29.964,27.714c-0.007,0.022-0.062,0.105-0.246,0.197l-11.295,5.648c-0.509,0.254-1.478,0.254-1.987,0
		L5.14,27.911c-0.19-0.095-0.244-0.182-0.248-0.194c0-0.001,0.001-0.002,0.002-0.003H4v0c0,0.234,0.096,0.674,0.741,0.996
		l11.295,5.647c0.379,0.19,0.874,0.294,1.393,0.294c0.519,0,1.014-0.105,1.393-0.294l11.295-5.648
		c0.645-0.322,0.741-0.762,0.741-0.996v0H29.964z"/>
	<line fill="none" stroke="#3D3588" stroke-miterlimit="10" x1="4.298" y1="28.012" x2="4.298" y2="13.869"/>
	<line fill="none" stroke="#3D3588" stroke-miterlimit="10" x1="30.263" y1="27.729" x2="30.263" y2="13.587"/>
	<line fill="none" stroke="#3D3588" stroke-miterlimit="10" x1="17.28" y1="20.063" x2="17.28" y2="34.652"/>
</g>
<ellipse fill="none" stroke="#383380" stroke-miterlimit="10" cx="12.622" cy="13.768" rx="2.91" ry="1.457"/>
<ellipse fill="none" stroke="#383380" stroke-miterlimit="10" cx="20.997" cy="13.768" rx="2.91" ry="1.457"/>
<polygon fill="none" stroke="#383380" stroke-miterlimit="10" points="7.535,25.225 9.929,22.247 12.322,27.56 "/>
<g>
	<path fill="#F4F4F4" stroke="#3D3588" stroke-miterlimit="10" d="M58.358,11.997c0.659,0.33,0.659,0.864,0,1.193l-11.295,5.648
		c-0.659,0.33-1.728,0.33-2.387,0L33.382,13.19c-0.659-0.33-0.659-0.864,0-1.193l11.295-5.648c0.659-0.33,1.728-0.33,2.387,0
		L58.358,11.997z"/>
	<path fill="#3D3588" d="M58.553,26.736c-0.007,0.022-0.062,0.105-0.246,0.197l-11.295,5.648c-0.509,0.254-1.478,0.254-1.987,0
		L33.73,26.933c-0.19-0.095-0.244-0.182-0.248-0.194c0-0.001,0.001-0.002,0.002-0.003H32.59v0c0,0.234,0.096,0.674,0.741,0.996
		l11.295,5.647c0.379,0.19,0.874,0.294,1.393,0.294s1.014-0.105,1.393-0.294l11.295-5.648c0.645-0.322,0.741-0.762,0.741-0.996v0
		H58.553z"/>
	<line fill="none" stroke="#3D3588" stroke-miterlimit="10" x1="32.887" y1="27.034" x2="32.887" y2="12.891"/>
	<line fill="none" stroke="#3D3588" stroke-miterlimit="10" x1="58.853" y1="26.752" x2="58.853" y2="12.609"/>
	<line fill="none" stroke="#3D3588" stroke-miterlimit="10" x1="45.87" y1="19.085" x2="45.87" y2="33.674"/>
</g>
<ellipse fill="none" stroke="#383380" stroke-miterlimit="10" cx="41.212" cy="12.79" rx="2.91" ry="1.457"/>
<ellipse fill="none" stroke="#383380" stroke-miterlimit="10" cx="49.587" cy="12.79" rx="2.91" ry="1.457"/>
<polygon fill="none" stroke="#383380" stroke-miterlimit="10" points="36.125,24.248 38.518,21.269 40.912,26.582 "/>
</svg>
