<?xml version="1.0" encoding="utf-8"?>
<!-- Generator: Adobe Illustrator 17.0.0, SVG Export Plug-In . SVG Version: 6.00 Build 0)  -->
<!DOCTYPE svg PUBLIC "-//W3C//DTD SVG 1.1//EN" "http://www.w3.org/Graphics/SVG/1.1/DTD/svg11.dtd">
<svg version="1.1" id="图层_1" xmlns="http://www.w3.org/2000/svg" xmlns:xlink="http://www.w3.org/1999/xlink" x="0px" y="0px"
	 width="62.387px" height="62.387px" viewBox="7.078 6.078 62.387 62.387" enable-background="new 7.078 6.078 62.387 62.387"
	 xml:space="preserve">
<path fill="#FFFFFF" stroke="#3D3588" stroke-miterlimit="10" d="M66.017,53.529c0,4.145-3.36,7.504-7.504,7.504H17.926
	c-4.145,0-7.504-3.36-7.504-7.504V22.775c0-4.145,3.36-7.504,7.504-7.504h40.587c4.145,0,7.504,3.36,7.504,7.504V53.529z"/>
<circle fill="#F4F4F4" stroke="#3D3588" stroke-miterlimit="10" cx="50.729" cy="23.506" r="2.643"/>
<circle fill="#F4F4F4" stroke="#3D3588" stroke-miterlimit="10" cx="58.194" cy="23.506" r="2.643"/>
<rect x="15.493" y="51.895" fill="#E2E1E1" width="45.382" height="3.429"/>
<rect x="15.54" y="45.545" fill="#E2E1E1" width="16.587" height="3.429"/>
<circle fill="none" stroke="#E1E0E0" stroke-width="3" stroke-miterlimit="10" cx="24.114" cy="36.245" r="4.668"/>
<rect x="44.288" y="45.545" fill="#E2E1E1" width="16.587" height="3.429"/>
<circle fill="none" stroke="#E1E0E0" stroke-width="3" stroke-miterlimit="10" cx="37.924" cy="36.245" r="4.668"/>
<circle fill="none" stroke="#E1E0E0" stroke-width="3" stroke-miterlimit="10" cx="51.249" cy="36.245" r="4.668"/>
</svg>
