<?xml version="1.0" encoding="utf-8"?>
<!-- Generator: Adobe Illustrator 17.0.0, SVG Export Plug-In . SVG Version: 6.00 Build 0)  -->
<!DOCTYPE svg PUBLIC "-//W3C//DTD SVG 1.1//EN" "http://www.w3.org/Graphics/SVG/1.1/DTD/svg11.dtd">
<svg version="1.1" id="图层_1" xmlns="http://www.w3.org/2000/svg" xmlns:xlink="http://www.w3.org/1999/xlink" x="0px" y="0px"
	 width="62.387px" height="62.387px" viewBox="0 0 62.387 62.387" enable-background="new 0 0 62.387 62.387" xml:space="preserve">
<circle fill="none" stroke="#312F74" stroke-width="3" stroke-miterlimit="10" cx="32.317" cy="32.93" r="27.457"/>
<g>
	<path fill="#2E2D6E" d="M12.442,5.069v10.296h10.296c0.246,0,0.452,0.084,0.62,0.252c0.168,0.168,0.252,0.375,0.252,0.62v3.219
		c0,0.246-0.084,0.452-0.252,0.62c-0.168,0.168-0.375,0.252-0.62,0.252H8.351c-0.246,0-0.452-0.084-0.62-0.252
		c-0.168-0.168-0.252-0.375-0.252-0.62V5.069c0-0.246,0.084-0.452,0.252-0.62s0.375-0.252,0.62-0.252h3.219
		c0.246,0,0.452,0.084,0.62,0.252C12.358,4.617,12.442,4.824,12.442,5.069z"/>
</g>
<g>
	<path fill="#FFFFFF" d="M7.333,10.053v10.296H17.63c0.246,0,0.452,0.084,0.62,0.252c0.168,0.168,0.252,0.375,0.252,0.62v3.219
		c0,0.246-0.084,0.452-0.252,0.62c-0.168,0.168-0.375,0.252-0.62,0.252H3.242c-0.246,0-0.452-0.084-0.62-0.252
		S2.37,24.686,2.37,24.44V10.053c0-0.246,0.084-0.452,0.252-0.62C2.79,9.264,2.997,9.18,3.242,9.18h3.219
		c0.246,0,0.452,0.084,0.62,0.252C7.249,9.6,7.333,9.807,7.333,10.053z"/>
</g>
<g>
	<path fill="#F4F4F4" stroke="#3D3588" stroke-miterlimit="10" d="M44.752,26.369c0.633,0.316,0.633,0.829,0,1.145L33.91,32.935
		c-0.633,0.316-1.658,0.316-2.291,0l-10.842-5.421c-0.633-0.316-0.633-0.829,0-1.145l10.842-5.421c0.633-0.316,1.658-0.316,2.291,0
		L44.752,26.369z"/>
	<path fill="#3D3588" d="M44.939,40.516c-0.006,0.021-0.059,0.101-0.236,0.189l-10.842,5.421c-0.488,0.244-1.419,0.244-1.907,0
		l-10.842-5.421c-0.182-0.091-0.234-0.175-0.238-0.186c0-0.001,0.001-0.002,0.002-0.003h-0.858v0c0,0.224,0.092,0.647,0.711,0.956
		l10.842,5.421c0.364,0.182,0.839,0.283,1.337,0.283c0.498,0,0.973-0.1,1.337-0.283l10.842-5.421
		c0.619-0.309,0.711-0.732,0.711-0.956v0H44.939z"/>
	<line fill="none" stroke="#3D3588" stroke-miterlimit="10" x1="20.304" y1="40.802" x2="20.304" y2="27.228"/>
	<line fill="none" stroke="#3D3588" stroke-miterlimit="10" x1="45.226" y1="40.531" x2="45.226" y2="26.957"/>
	<line fill="none" stroke="#3D3588" stroke-miterlimit="10" x1="32.765" y1="33.173" x2="32.765" y2="47.176"/>
</g>
</svg>
