<?xml version="1.0" encoding="utf-8"?>
<!-- Generator: Adobe Illustrator 17.0.0, SVG Export Plug-In . SVG Version: 6.00 Build 0)  -->
<!DOCTYPE svg PUBLIC "-//W3C//DTD SVG 1.1//EN" "http://www.w3.org/Graphics/SVG/1.1/DTD/svg11.dtd">
<svg version="1.1" id="图层_1" xmlns="http://www.w3.org/2000/svg" xmlns:xlink="http://www.w3.org/1999/xlink" x="0px" y="0px"
	 width="62.387px" height="62.387px" viewBox="0 0 62.387 62.387" enable-background="new 0 0 62.387 62.387" xml:space="preserve">
<circle fill="none" stroke="#312F74" stroke-width="2" stroke-miterlimit="10" cx="32.637" cy="31.245" r="28.667"/>
<g>
	<path fill="#F4F4F4" stroke="#3D3588" stroke-miterlimit="10" d="M45.619,24.395c0.66,0.33,0.66,0.866,0,1.196L34.3,31.251
		c-0.66,0.33-1.731,0.33-2.392,0l-11.319-5.66c-0.66-0.33-0.66-0.866,0-1.196l11.319-5.66c0.66-0.33,1.731-0.33,2.392,0
		L45.619,24.395z"/>
	<path fill="#3D3588" d="M45.814,39.166c-0.007,0.022-0.062,0.105-0.247,0.198l-11.319,5.66c-0.51,0.255-1.482,0.255-1.991,0
		l-11.319-5.66c-0.191-0.095-0.244-0.183-0.248-0.194c0-0.001,0.001-0.002,0.002-0.003h-0.896v0c0,0.234,0.096,0.675,0.743,0.998
		l11.319,5.659c0.38,0.19,0.876,0.295,1.396,0.295c0.52,0,1.016-0.105,1.396-0.295l11.319-5.66c0.646-0.323,0.743-0.764,0.743-0.998
		v0H45.814z"/>
	<line fill="none" stroke="#3D3588" stroke-miterlimit="10" x1="20.094" y1="39.464" x2="20.094" y2="25.292"/>
	<line fill="none" stroke="#3D3588" stroke-miterlimit="10" x1="46.114" y1="39.181" x2="46.114" y2="25.009"/>
	<line fill="none" stroke="#3D3588" stroke-miterlimit="10" x1="33.104" y1="31.499" x2="33.104" y2="46.119"/>
</g>
<line fill="none" stroke="#312F74" stroke-width="2" stroke-miterlimit="10" x1="5.866" y1="22.67" x2="3.958" y2="16.494"/>
<line fill="none" stroke="#312F74" stroke-width="2" stroke-miterlimit="10" x1="4.965" y1="22.37" x2="11.055" y2="19.897"/>
<g>
	
		<circle fill="none" stroke="#312F74" stroke-miterlimit="10" stroke-dasharray="4.1135,4.1135" cx="32.637" cy="31.245" r="22.265"/>
</g>
<circle fill="#FFFFFF" cx="4.912" cy="26.292" r="3.499"/>
</svg>
