<?xml version="1.0" encoding="utf-8"?>
<!-- Generator: Adobe Illustrator 17.0.0, SVG Export Plug-In . SVG Version: 6.00 Build 0)  -->
<!DOCTYPE svg PUBLIC "-//W3C//DTD SVG 1.1//EN" "http://www.w3.org/Graphics/SVG/1.1/DTD/svg11.dtd">
<svg version="1.1" id="图层_1" xmlns="http://www.w3.org/2000/svg" xmlns:xlink="http://www.w3.org/1999/xlink" x="0px" y="0px"
	 width="62.387px" height="62.387px" viewBox="7.078 6.078 62.387 62.387" enable-background="new 7.078 6.078 62.387 62.387"
	 xml:space="preserve">
<rect x="38.1" y="23.826" transform="matrix(0.7326 0.6806 -0.6806 0.7326 28.6233 -22.9638)" fill="#E2E1E1" width="10.881" height="2.249"/>
<rect x="35.393" y="26.739" transform="matrix(0.7326 0.6806 -0.6806 0.7326 29.8825 -20.3429)" fill="#E2E1E1" width="10.881" height="2.249"/>
<rect x="32.5" y="29.767" transform="matrix(0.7326 0.6806 -0.6806 0.7326 31.1698 -17.564)" fill="#E2E1E1" width="10.881" height="2.249"/>
<path fill="#FFFFFF" stroke="#383380" stroke-miterlimit="10" d="M17.05,44.885c2.259-0.761,4.566-1.38,6.829-2.132
	c0.742-0.247,1.223-0.156,1.774,0.408c2.437,2.492,4.904,4.955,7.393,7.395c0.521,0.511,0.646,0.963,0.411,1.663
	c-0.626,1.864-0.996,3.833-1.791,5.616c-0.938,2.105-0.403,3.529,1.307,4.857c0.753,0.585,1.318,0.685,2.131,0.204
	c3.679-2.179,7.401-4.286,11.055-6.505c0.502-0.305,0.965-1.072,1.012-1.66c0.267-3.346,0.42-6.703,0.573-10.057
	c0.043-0.941,0.367-1.611,1.12-2.235c1.646-1.366,3.216-2.829,4.766-4.305c6.673-6.356,10.539-14.008,10.692-23.353
	c0.049-2.952,0.045-2.952-2.914-2.915c-6.923,0.078-13.331,1.817-18.612,6.445c-3.209,2.812-6.11,5.981-9.077,9.06
	c-0.637,0.662-1.245,1.014-2.138,1.056c-3.312,0.158-6.621,0.399-9.935,0.511c-1.034,0.035-1.571,0.473-2.051,1.317
	c-1.823,3.207-3.71,6.378-5.563,9.568c-1.595,2.747-1.625,2.171,0.563,4.474C15.341,45.083,16.045,45.224,17.05,44.885z"/>
<circle fill="none" stroke="#383380" stroke-miterlimit="10" cx="54.21" cy="21.95" r="4.243"/>
<circle fill="#F4F4F4" stroke="#1D2087" stroke-miterlimit="10" cx="23.17" cy="26.214" r="11.62"/>
<g>
	<path fill="#34317A" d="M24.309,23.187v3.491c0,0.073-0.023,0.132-0.07,0.179c-0.047,0.047-0.106,0.07-0.179,0.07h-2.493
		c-0.073,0-0.132-0.023-0.179-0.07c-0.047-0.047-0.07-0.106-0.07-0.179v-0.499c0-0.073,0.023-0.132,0.07-0.179
		c0.047-0.047,0.106-0.07,0.179-0.07h1.745v-2.743c0-0.073,0.023-0.132,0.07-0.179c0.047-0.047,0.106-0.07,0.179-0.07h0.499
		c0.073,0,0.132,0.023,0.179,0.07C24.286,23.055,24.309,23.115,24.309,23.187z M27.55,25.93c0-0.769-0.19-1.478-0.569-2.127
		c-0.379-0.649-0.893-1.164-1.543-1.543c-0.649-0.379-1.358-0.569-2.127-0.569s-1.478,0.19-2.127,0.569
		c-0.649,0.379-1.164,0.893-1.543,1.543c-0.379,0.649-0.569,1.358-0.569,2.127s0.19,1.478,0.569,2.127
		c0.379,0.649,0.893,1.164,1.543,1.543c0.649,0.379,1.358,0.569,2.127,0.569s1.478-0.19,2.127-0.569
		c0.649-0.379,1.164-0.893,1.543-1.543C27.361,27.408,27.55,26.699,27.55,25.93z M29.295,25.93c0,1.086-0.268,2.087-0.803,3.004
		c-0.535,0.917-1.261,1.643-2.178,2.178c-0.917,0.535-1.918,0.803-3.004,0.803s-2.087-0.268-3.004-0.803
		c-0.917-0.535-1.643-1.261-2.178-2.178s-0.803-1.918-0.803-3.004s0.268-2.087,0.803-3.004c0.535-0.917,1.261-1.643,2.178-2.178
		c0.917-0.535,1.918-0.803,3.004-0.803s2.087,0.268,3.004,0.803s1.643,1.261,2.178,2.178C29.028,23.843,29.295,24.844,29.295,25.93z
		"/>
</g>
</svg>
