<?xml version="1.0" encoding="utf-8"?>
<!-- Generator: Adobe Illustrator 17.0.0, SVG Export Plug-In . SVG Version: 6.00 Build 0)  -->
<!DOCTYPE svg PUBLIC "-//W3C//DTD SVG 1.1//EN" "http://www.w3.org/Graphics/SVG/1.1/DTD/svg11.dtd">
<svg version="1.1" id="图层_1" xmlns="http://www.w3.org/2000/svg" xmlns:xlink="http://www.w3.org/1999/xlink" x="0px" y="0px"
	 width="62.387px" height="62.387px" viewBox="7.078 6.078 62.387 62.387" enable-background="new 7.078 6.078 62.387 62.387"
	 xml:space="preserve">
<circle fill="#FFFFFF" stroke="#3D3588" stroke-miterlimit="10" cx="38.503" cy="38.051" r="27.18"/>
<circle fill="#F4F4F4" stroke="#3D3588" stroke-miterlimit="10" stroke-dasharray="2" cx="38.503" cy="38.119" r="21.407"/>
<g>
	<rect x="13.52" y="33.965" fill="none" width="49.967" height="21.797"/>
	<path fill="#312F74" d="M25.354,41.406H24.58l0.909-5.215l-1.644,0.577l0.132-0.747l2.293-0.828h0.136L25.354,41.406z"/>
	<path fill="#312F74" d="M29.575,41.491c-0.521-0.012-0.912-0.196-1.173-0.555c-0.26-0.357-0.379-0.874-0.356-1.548
		c0.006-0.209,0.021-0.416,0.047-0.62l0.152-1.032c0.137-0.881,0.396-1.538,0.777-1.971c0.383-0.434,0.887-0.643,1.512-0.629
		c0.527,0.012,0.92,0.192,1.179,0.542s0.379,0.857,0.359,1.522c-0.009,0.212-0.025,0.42-0.052,0.624l-0.148,0.999
		c-0.149,0.932-0.415,1.612-0.794,2.043C30.698,41.297,30.197,41.505,29.575,41.491z M31.277,37.686
		c0.04-0.343,0.059-0.609,0.056-0.799c-0.015-0.719-0.293-1.089-0.837-1.108c-0.396-0.015-0.717,0.133-0.962,0.439
		c-0.245,0.308-0.415,0.789-0.512,1.446l-0.183,1.232c-0.039,0.328-0.058,0.596-0.055,0.803c0.014,0.75,0.291,1.135,0.832,1.155
		c0.377,0.017,0.688-0.122,0.933-0.417c0.244-0.294,0.419-0.761,0.524-1.401L31.277,37.686z"/>
	<path fill="#312F74" d="M39.356,40.591c-0.207,0.292-0.508,0.516-0.902,0.673c-0.396,0.157-0.846,0.233-1.353,0.228
		c-0.405-0.009-0.759-0.104-1.062-0.284c-0.304-0.182-0.541-0.441-0.714-0.779c-0.173-0.339-0.271-0.723-0.297-1.153
		c-0.021-0.337,0.021-0.793,0.125-1.368c0.104-0.575,0.284-1.072,0.541-1.491c0.258-0.419,0.58-0.738,0.967-0.96
		c0.386-0.221,0.828-0.326,1.327-0.318c0.574,0.012,1.032,0.183,1.373,0.512c0.342,0.33,0.536,0.794,0.584,1.392h-0.789
		c-0.031-0.393-0.149-0.693-0.353-0.904c-0.204-0.21-0.486-0.32-0.846-0.332c-0.532-0.02-0.978,0.172-1.335,0.574
		c-0.358,0.403-0.595,0.991-0.707,1.766l-0.081,0.596l-0.013,0.323c0,0.559,0.114,0.99,0.344,1.295s0.551,0.46,0.964,0.466
		c0.598,0.015,1.072-0.133,1.423-0.441l0.255-1.389h-1.393l0.118-0.667h2.175L39.356,40.591z"/>
	<path fill="#312F74" d="M44.574,39.13c-0.057,0.47-0.186,0.894-0.386,1.27c-0.201,0.377-0.445,0.656-0.73,0.837
		c-0.286,0.182-0.604,0.268-0.952,0.259c-0.555-0.011-0.967-0.219-1.235-0.624l-0.157,0.535h-0.709l1.134-6.524h0.769l-0.463,2.438
		c0.368-0.408,0.815-0.606,1.342-0.595c0.441,0.011,0.786,0.174,1.032,0.488s0.376,0.747,0.391,1.3
		c0.003,0.181-0.006,0.356-0.025,0.526L44.574,39.13z M43.844,38.687c0.009-0.414-0.061-0.729-0.208-0.949
		c-0.147-0.219-0.372-0.334-0.675-0.346c-0.479-0.011-0.884,0.229-1.215,0.722l-0.344,1.999c0.17,0.466,0.488,0.705,0.955,0.717
		c0.3,0.011,0.563-0.078,0.788-0.268c0.225-0.189,0.396-0.454,0.512-0.795S43.836,39.066,43.844,38.687z"/>
	<path fill="#312F74" d="M49.344,39.13c-0.057,0.467-0.183,0.888-0.378,1.262c-0.196,0.373-0.438,0.653-0.727,0.839
		c-0.289,0.185-0.608,0.273-0.96,0.265c-0.532-0.011-0.939-0.19-1.223-0.539l-0.412,2.217h-0.769l1.104-6.362l0.697-0.005
		l-0.085,0.515c0.379-0.408,0.833-0.606,1.363-0.595c0.441,0.011,0.785,0.174,1.031,0.488s0.377,0.747,0.391,1.3
		c0.003,0.181-0.004,0.356-0.021,0.526L49.344,39.13z M48.587,39.043l0.021-0.356c0-0.414-0.078-0.729-0.235-0.949
		c-0.157-0.219-0.385-0.334-0.682-0.346c-0.444-0.011-0.828,0.2-1.151,0.633l-0.386,2.202c0.172,0.407,0.482,0.616,0.93,0.628
		c0.382,0.008,0.707-0.141,0.975-0.448C48.326,40.1,48.502,39.646,48.587,39.043z"/>
	<path fill="#312F74" d="M52.804,40.162c0.043-0.317-0.131-0.541-0.521-0.671l-0.799-0.233c-0.674-0.232-0.999-0.617-0.977-1.156
		c0.02-0.405,0.204-0.737,0.554-0.996s0.761-0.386,1.234-0.38c0.464,0.006,0.841,0.141,1.132,0.405
		c0.29,0.265,0.429,0.609,0.418,1.034l-0.765-0.004c0.006-0.229-0.066-0.417-0.217-0.561c-0.149-0.145-0.35-0.22-0.599-0.226
		c-0.266-0.006-0.495,0.06-0.688,0.195c-0.179,0.128-0.282,0.295-0.311,0.501c-0.037,0.267,0.126,0.46,0.488,0.583l0.387,0.106
		c0.526,0.136,0.9,0.313,1.121,0.53c0.221,0.219,0.323,0.488,0.306,0.812c-0.017,0.286-0.11,0.535-0.28,0.747
		c-0.17,0.213-0.396,0.375-0.68,0.486c-0.283,0.112-0.584,0.164-0.904,0.155c-0.487-0.006-0.889-0.147-1.206-0.427
		s-0.47-0.638-0.459-1.076l0.77,0.004c0,0.258,0.082,0.464,0.246,0.62c0.164,0.155,0.389,0.233,0.675,0.233
		c0.28,0.006,0.522-0.053,0.727-0.176C52.66,40.546,52.776,40.377,52.804,40.162z"/>
</g>
</svg>
