<?xml version="1.0" encoding="utf-8"?>
<!-- Generator: Adobe Illustrator 17.0.0, SVG Export Plug-In . SVG Version: 6.00 Build 0)  -->
<!DOCTYPE svg PUBLIC "-//W3C//DTD SVG 1.1//EN" "http://www.w3.org/Graphics/SVG/1.1/DTD/svg11.dtd">
<svg version="1.1" id="图层_1" xmlns="http://www.w3.org/2000/svg" xmlns:xlink="http://www.w3.org/1999/xlink" x="0px" y="0px"
	 width="62.387px" height="62.387px" viewBox="0 0 62.387 62.387" enable-background="new 0 0 62.387 62.387" xml:space="preserve">
<path fill="#FFFFFF" stroke="#383380" stroke-miterlimit="10" d="M54.51,49.417c0,3.303-2.678,5.981-5.981,5.981H13.173
	c-3.303,0-5.981-2.678-5.981-5.981V14.061c0-3.303,2.678-5.981,5.981-5.981h35.356c3.303,0,5.981,2.678,5.981,5.981V49.417z"/>
<line fill="none" stroke="#383380" stroke-miterlimit="10" x1="18.397" y1="8.432" x2="18.397" y2="4.277"/>
<line fill="none" stroke="#383380" stroke-miterlimit="10" x1="25.05" y1="8.456" x2="25.05" y2="4.301"/>
<line fill="none" stroke="#383380" stroke-miterlimit="10" x1="31.46" y1="8.3" x2="31.46" y2="4.145"/>
<line fill="none" stroke="#383380" stroke-miterlimit="10" x1="37.304" y1="8.456" x2="37.304" y2="4.301"/>
<line fill="none" stroke="#383380" stroke-miterlimit="10" x1="43.819" y1="8.3" x2="43.819" y2="4.145"/>
<line fill="none" stroke="#383380" stroke-miterlimit="10" x1="54.698" y1="20.083" x2="58.394" y2="20.083"/>
<line fill="none" stroke="#383380" stroke-miterlimit="10" x1="54.677" y1="26.737" x2="58.373" y2="26.737"/>
<line fill="none" stroke="#383380" stroke-miterlimit="10" x1="54.816" y1="33.147" x2="58.512" y2="33.147"/>
<line fill="none" stroke="#383380" stroke-miterlimit="10" x1="54.677" y1="38.99" x2="58.373" y2="38.99"/>
<line fill="none" stroke="#383380" stroke-miterlimit="10" x1="54.816" y1="45.505" x2="58.512" y2="45.505"/>
<line fill="none" stroke="#383380" stroke-miterlimit="10" x1="18.75" y1="59.066" x2="18.75" y2="55.079"/>
<line fill="none" stroke="#383380" stroke-miterlimit="10" x1="25.403" y1="59.089" x2="25.403" y2="55.102"/>
<line fill="none" stroke="#383380" stroke-miterlimit="10" x1="31.813" y1="58.939" x2="31.813" y2="54.952"/>
<line fill="none" stroke="#383380" stroke-miterlimit="10" x1="37.656" y1="59.089" x2="37.656" y2="55.102"/>
<line fill="none" stroke="#383380" stroke-miterlimit="10" x1="44.171" y1="58.939" x2="44.171" y2="54.952"/>
<line fill="none" stroke="#383380" stroke-miterlimit="10" x1="3.721" y1="19.279" x2="7.732" y2="19.279"/>
<line fill="none" stroke="#383380" stroke-miterlimit="10" x1="3.698" y1="25.932" x2="7.709" y2="25.932"/>
<line fill="none" stroke="#383380" stroke-miterlimit="10" x1="3.848" y1="32.342" x2="7.859" y2="32.342"/>
<line fill="none" stroke="#383380" stroke-miterlimit="10" x1="3.698" y1="38.185" x2="7.709" y2="38.185"/>
<line fill="none" stroke="#383380" stroke-miterlimit="10" x1="3.848" y1="44.7" x2="7.859" y2="44.7"/>
<g>
	<path fill="#FFFFFF" d="M50.668,47.149c0,2.767-2.243,5.01-5.01,5.01H16.043c-2.767,0-5.01-2.243-5.01-5.01V17.535
		c0-2.767,2.243-5.01,5.01-5.01h29.614c2.767,0,5.01,2.243,5.01,5.01V47.149z"/>
	<path fill="none" stroke="#383380" stroke-miterlimit="10" stroke-dasharray="2.9978,2.9978" d="M50.668,47.149
		c0,2.767-2.243,5.01-5.01,5.01H16.043c-2.767,0-5.01-2.243-5.01-5.01V17.535c0-2.767,2.243-5.01,5.01-5.01h29.614
		c2.767,0,5.01,2.243,5.01,5.01V47.149z"/>
</g>
<g>
	<path fill="#2E2D6E" d="M35.29,30.113c0.12,0.134,0.144,0.281,0.07,0.442l-5.419,11.611c-0.087,0.167-0.227,0.251-0.422,0.251
		c-0.027,0-0.074-0.007-0.141-0.02c-0.114-0.033-0.199-0.097-0.256-0.191c-0.057-0.094-0.072-0.194-0.045-0.301l1.977-8.109
		L26.98,34.81c-0.027,0.007-0.067,0.01-0.12,0.01c-0.12,0-0.224-0.037-0.311-0.11c-0.12-0.1-0.164-0.231-0.13-0.391l2.017-8.28
		c0.027-0.094,0.08-0.171,0.161-0.231c0.08-0.06,0.174-0.09,0.281-0.09h3.292c0.127,0,0.234,0.042,0.321,0.125
		c0.087,0.084,0.13,0.182,0.13,0.296c0,0.054-0.017,0.114-0.05,0.181l-1.716,4.647l3.974-0.984c0.054-0.013,0.094-0.02,0.12-0.02
		C35.076,29.962,35.19,30.012,35.29,30.113z"/>
</g>
</svg>
