<?xml version="1.0" encoding="utf-8"?>
<!-- Generator: Adobe Illustrator 17.0.0, SVG Export Plug-In . SVG Version: 6.00 Build 0)  -->
<!DOCTYPE svg PUBLIC "-//W3C//DTD SVG 1.1//EN" "http://www.w3.org/Graphics/SVG/1.1/DTD/svg11.dtd">
<svg version="1.1" id="图层_1" xmlns="http://www.w3.org/2000/svg" xmlns:xlink="http://www.w3.org/1999/xlink" x="0px" y="0px"
	 width="62.387px" height="62.387px" viewBox="7.078 6.078 62.387 62.387" enable-background="new 7.078 6.078 62.387 62.387"
	 xml:space="preserve">
<circle fill="#FFFFFF" stroke="#3D3588" stroke-miterlimit="10" cx="39.134" cy="38.054" r="27.18"/>
<circle fill="#F4F4F4" stroke="#3D3588" stroke-miterlimit="10" stroke-dasharray="2" cx="39.134" cy="38.122" r="21.407"/>
<g>
	<path fill="#34317A" d="M39.358,25.357c2.316,0,4.452,0.571,6.408,1.712c1.956,1.141,3.504,2.69,4.646,4.646
		s1.712,4.092,1.712,6.408s-0.571,4.452-1.712,6.408c-1.141,1.956-2.69,3.504-4.646,4.646c-1.956,1.141-4.092,1.712-6.408,1.712
		s-4.452-0.571-6.408-1.712c-1.956-1.141-3.504-2.69-4.646-4.646c-1.141-1.956-1.712-4.092-1.712-6.408s0.571-4.452,1.712-6.408
		s2.69-3.504,4.646-4.646C34.906,25.927,37.042,25.357,39.358,25.357z M43.912,34.016c-0.022,0.011-0.075,0.064-0.158,0.158
		s-0.158,0.147-0.224,0.158c0.022,0,0.047-0.028,0.075-0.083c0.028-0.055,0.055-0.116,0.083-0.183
		c0.028-0.066,0.047-0.105,0.058-0.116c0.066-0.078,0.188-0.161,0.366-0.249c0.155-0.066,0.443-0.133,0.864-0.199
		c0.377-0.089,0.659-0.028,0.848,0.183c-0.022-0.022,0.03-0.094,0.158-0.216s0.208-0.188,0.241-0.199
		c0.033-0.022,0.116-0.047,0.249-0.075c0.133-0.028,0.216-0.069,0.249-0.125l0.033-0.366c-0.133,0.011-0.23-0.028-0.291-0.116
		c-0.061-0.089-0.097-0.205-0.108-0.349c0,0.022-0.033,0.066-0.1,0.133c0-0.078-0.025-0.122-0.075-0.133
		c-0.05-0.011-0.114-0.006-0.191,0.017c-0.078,0.022-0.127,0.028-0.15,0.017c-0.111-0.033-0.194-0.075-0.249-0.125
		c-0.055-0.05-0.1-0.141-0.133-0.274c-0.033-0.133-0.055-0.216-0.066-0.249c-0.022-0.055-0.075-0.114-0.158-0.175
		c-0.083-0.061-0.136-0.119-0.158-0.175c-0.011-0.022-0.025-0.053-0.042-0.091c-0.017-0.039-0.033-0.075-0.05-0.108
		c-0.017-0.033-0.039-0.064-0.066-0.091c-0.028-0.028-0.058-0.042-0.091-0.042c-0.033,0-0.072,0.028-0.116,0.083
		s-0.086,0.111-0.125,0.166s-0.064,0.083-0.075,0.083c-0.033-0.022-0.066-0.03-0.1-0.025c-0.033,0.006-0.058,0.011-0.075,0.017
		s-0.042,0.022-0.075,0.05c-0.033,0.028-0.061,0.047-0.083,0.058c-0.033,0.022-0.08,0.039-0.141,0.05
		c-0.061,0.011-0.108,0.022-0.141,0.033c0.166-0.055,0.161-0.116-0.017-0.183c-0.111-0.044-0.199-0.061-0.266-0.05
		c0.1-0.044,0.141-0.111,0.125-0.199c-0.017-0.089-0.064-0.166-0.141-0.233h0.083c-0.011-0.044-0.058-0.091-0.141-0.141
		c-0.083-0.05-0.18-0.097-0.291-0.141c-0.111-0.044-0.183-0.078-0.216-0.1c-0.089-0.055-0.277-0.108-0.565-0.158
		c-0.288-0.05-0.471-0.053-0.549-0.008c-0.055,0.066-0.08,0.125-0.075,0.175c0.006,0.05,0.028,0.127,0.066,0.233
		s0.058,0.175,0.058,0.208c0.011,0.066-0.019,0.139-0.091,0.216c-0.072,0.078-0.108,0.144-0.108,0.199
		c0,0.078,0.078,0.163,0.233,0.258c0.155,0.094,0.211,0.213,0.166,0.357c-0.033,0.089-0.122,0.177-0.266,0.266
		s-0.233,0.155-0.266,0.199c-0.055,0.089-0.064,0.191-0.025,0.307s0.097,0.208,0.175,0.274c0.022,0.022,0.03,0.044,0.025,0.066
		c-0.006,0.022-0.025,0.047-0.058,0.075c-0.033,0.028-0.064,0.05-0.091,0.066c-0.028,0.017-0.064,0.036-0.108,0.058l-0.05,0.033
		c-0.122,0.055-0.235,0.022-0.341-0.1c-0.105-0.122-0.18-0.266-0.224-0.432c-0.078-0.277-0.166-0.443-0.266-0.499
		c-0.255-0.089-0.416-0.083-0.482,0.017c-0.055-0.144-0.283-0.288-0.681-0.432c-0.277-0.1-0.598-0.122-0.964-0.066
		c0.066-0.011,0.066-0.094,0-0.249c-0.078-0.166-0.183-0.233-0.316-0.199c0.033-0.066,0.055-0.163,0.066-0.291
		s0.017-0.202,0.017-0.224c0.033-0.144,0.1-0.271,0.199-0.382c0.011-0.011,0.05-0.058,0.116-0.141
		c0.066-0.083,0.119-0.158,0.158-0.224c0.039-0.066,0.042-0.1,0.008-0.1c0.388,0.044,0.665-0.017,0.831-0.183
		c0.055-0.055,0.119-0.15,0.191-0.283s0.13-0.227,0.175-0.283c0.1-0.066,0.177-0.097,0.233-0.091
		c0.055,0.006,0.136,0.036,0.241,0.091c0.105,0.055,0.186,0.083,0.241,0.083c0.155,0.011,0.241-0.05,0.258-0.183
		c0.017-0.133-0.025-0.244-0.125-0.332c0.133,0.011,0.15-0.083,0.05-0.283c-0.055-0.078-0.1-0.127-0.133-0.15
		c-0.133-0.044-0.283-0.017-0.449,0.083c-0.089,0.044-0.078,0.089,0.033,0.133c-0.011-0.011-0.064,0.047-0.158,0.175
		c-0.094,0.127-0.186,0.224-0.274,0.291c-0.089,0.066-0.177,0.039-0.266-0.083c-0.011-0.011-0.042-0.086-0.091-0.224
		c-0.05-0.139-0.103-0.213-0.158-0.224c-0.089,0-0.177,0.083-0.266,0.249c0.033-0.089-0.028-0.172-0.183-0.249
		s-0.288-0.122-0.399-0.133c0.211-0.133,0.166-0.283-0.133-0.449c-0.078-0.044-0.191-0.072-0.341-0.083
		c-0.15-0.011-0.258,0.011-0.324,0.066c-0.055,0.078-0.086,0.141-0.091,0.191c-0.006,0.05,0.022,0.094,0.083,0.133
		c0.061,0.039,0.119,0.069,0.175,0.091c0.055,0.022,0.119,0.044,0.191,0.066s0.119,0.039,0.141,0.05
		c0.155,0.111,0.199,0.188,0.133,0.233c-0.022,0.011-0.069,0.03-0.141,0.058s-0.136,0.053-0.191,0.075
		c-0.055,0.022-0.089,0.044-0.1,0.066c-0.033,0.044-0.033,0.122,0,0.233s0.022,0.188-0.033,0.233
		c-0.055-0.055-0.105-0.152-0.15-0.291s-0.083-0.23-0.116-0.274c0.078,0.1-0.061,0.133-0.416,0.1l-0.166-0.017
		c-0.044,0-0.133,0.011-0.266,0.033c-0.133,0.022-0.247,0.028-0.341,0.017c-0.094-0.011-0.169-0.055-0.224-0.133
		c-0.044-0.089-0.044-0.199,0-0.332c0.011-0.044,0.033-0.055,0.066-0.033c-0.044-0.033-0.105-0.086-0.183-0.158
		c-0.078-0.072-0.133-0.119-0.166-0.141c-0.51,0.166-1.031,0.393-1.562,0.681c0.066,0.011,0.133,0.006,0.199-0.017
		c0.055-0.022,0.127-0.058,0.216-0.108s0.144-0.08,0.166-0.091c0.377-0.155,0.609-0.194,0.698-0.116l0.083-0.083
		c0.155,0.177,0.266,0.316,0.332,0.416c-0.078-0.044-0.244-0.05-0.499-0.017c-0.222,0.066-0.344,0.133-0.366,0.199
		c0.078,0.133,0.105,0.233,0.083,0.299c-0.044-0.033-0.108-0.089-0.191-0.166s-0.163-0.139-0.241-0.183s-0.161-0.072-0.249-0.083
		c-0.177,0-0.299,0.006-0.366,0.017c-1.618,0.886-2.92,2.116-3.906,3.69c0.078,0.078,0.144,0.122,0.199,0.133
		c0.044,0.011,0.072,0.061,0.083,0.15c0.011,0.089,0.025,0.15,0.042,0.183c0.017,0.033,0.08,0.017,0.191-0.05
		c0.1,0.089,0.116,0.194,0.05,0.316c0.011-0.011,0.255,0.139,0.731,0.449c0.211,0.188,0.327,0.305,0.349,0.349
		c0.033,0.122-0.022,0.222-0.166,0.299c-0.011-0.022-0.061-0.072-0.15-0.15c-0.089-0.078-0.139-0.1-0.15-0.066
		c-0.033,0.055-0.03,0.158,0.008,0.307c0.039,0.15,0.097,0.219,0.175,0.208c-0.078,0-0.13,0.089-0.158,0.266
		c-0.028,0.177-0.042,0.374-0.042,0.59s-0.006,0.346-0.017,0.391l0.033,0.017c-0.033,0.133-0.003,0.324,0.091,0.573
		c0.094,0.249,0.213,0.357,0.357,0.324c-0.144,0.033-0.033,0.271,0.332,0.715c0.066,0.089,0.111,0.139,0.133,0.15
		c0.033,0.022,0.1,0.064,0.199,0.125c0.1,0.061,0.183,0.116,0.249,0.166c0.066,0.05,0.122,0.108,0.166,0.175
		c0.044,0.055,0.1,0.18,0.166,0.374c0.066,0.194,0.144,0.324,0.233,0.391c-0.022,0.066,0.03,0.177,0.158,0.332
		c0.127,0.155,0.186,0.283,0.175,0.382c-0.011,0-0.025,0.006-0.042,0.017c-0.017,0.011-0.03,0.017-0.042,0.017
		c0.033,0.078,0.119,0.155,0.258,0.233c0.139,0.078,0.224,0.15,0.258,0.216c0.011,0.033,0.022,0.089,0.033,0.166
		c0.011,0.078,0.028,0.139,0.05,0.183c0.022,0.044,0.066,0.055,0.133,0.033c0.022-0.222-0.111-0.565-0.399-1.031
		c-0.166-0.277-0.26-0.438-0.283-0.482c-0.033-0.055-0.064-0.141-0.091-0.258c-0.028-0.116-0.053-0.197-0.075-0.241
		c0.022,0,0.055,0.008,0.1,0.025c0.044,0.017,0.091,0.036,0.141,0.058c0.05,0.022,0.091,0.044,0.125,0.066
		c0.033,0.022,0.044,0.039,0.033,0.05c-0.033,0.078-0.022,0.175,0.033,0.291s0.122,0.219,0.199,0.307s0.172,0.194,0.283,0.316
		c0.111,0.122,0.177,0.194,0.199,0.216c0.066,0.066,0.144,0.175,0.233,0.324c0.089,0.15,0.089,0.224,0,0.224
		c0.1,0,0.211,0.055,0.332,0.166c0.122,0.111,0.216,0.222,0.283,0.332c0.055,0.089,0.1,0.233,0.133,0.432
		c0.033,0.199,0.061,0.332,0.083,0.399c0.022,0.078,0.069,0.152,0.141,0.224c0.072,0.072,0.141,0.125,0.208,0.158l0.266,0.133
		l0.216,0.116c0.055,0.022,0.158,0.08,0.307,0.175c0.15,0.094,0.269,0.158,0.357,0.191c0.111,0.044,0.199,0.066,0.266,0.066
		c0.066,0,0.147-0.014,0.241-0.042c0.094-0.028,0.169-0.047,0.224-0.058c0.166-0.022,0.327,0.061,0.482,0.249
		c0.155,0.188,0.271,0.305,0.349,0.349c0.399,0.211,0.704,0.271,0.914,0.183c-0.022,0.011-0.019,0.053,0.008,0.125
		c0.028,0.072,0.072,0.158,0.133,0.258c0.061,0.1,0.111,0.18,0.15,0.241s0.069,0.108,0.091,0.141
		c0.055,0.066,0.155,0.15,0.299,0.249c0.144,0.1,0.244,0.183,0.299,0.249c0.066-0.044,0.105-0.094,0.116-0.15
		c-0.033,0.089,0.006,0.199,0.116,0.332s0.211,0.188,0.299,0.166c0.155-0.033,0.233-0.211,0.233-0.532
		c-0.344,0.166-0.615,0.066-0.814-0.299c0-0.011-0.014-0.042-0.042-0.091c-0.028-0.05-0.05-0.097-0.066-0.141
		c-0.017-0.044-0.03-0.091-0.042-0.141c-0.011-0.05-0.011-0.091,0-0.125c0.011-0.033,0.039-0.05,0.083-0.05
		c0.1,0,0.155-0.019,0.166-0.058s0-0.108-0.033-0.208s-0.055-0.172-0.066-0.216c-0.011-0.089-0.072-0.199-0.183-0.332
		c-0.111-0.133-0.177-0.216-0.199-0.249c-0.055,0.1-0.144,0.144-0.266,0.133c-0.122-0.011-0.211-0.061-0.266-0.15
		c0,0.011-0.008,0.042-0.025,0.091c-0.017,0.05-0.025,0.086-0.025,0.108c-0.144,0-0.227-0.006-0.249-0.017
		c0.011-0.033,0.025-0.13,0.042-0.291s0.036-0.285,0.058-0.374c0.011-0.044,0.042-0.111,0.091-0.199
		c0.05-0.089,0.091-0.169,0.125-0.241c0.033-0.072,0.055-0.141,0.066-0.208c0.011-0.066-0.014-0.119-0.075-0.158
		s-0.158-0.053-0.291-0.042c-0.211,0.011-0.355,0.122-0.432,0.332c-0.011,0.033-0.028,0.091-0.05,0.175
		c-0.022,0.083-0.05,0.147-0.083,0.191c-0.033,0.044-0.083,0.083-0.15,0.116c-0.078,0.033-0.211,0.044-0.399,0.033
		c-0.188-0.011-0.321-0.039-0.399-0.083c-0.144-0.089-0.269-0.249-0.374-0.482c-0.105-0.233-0.158-0.438-0.158-0.615
		c0-0.111,0.014-0.258,0.042-0.44s0.044-0.321,0.05-0.416s-0.025-0.23-0.091-0.407c0.033-0.022,0.083-0.075,0.15-0.158
		s0.122-0.141,0.166-0.175c0.022-0.011,0.047-0.019,0.075-0.025c0.028-0.006,0.053-0.006,0.075,0
		c0.022,0.006,0.044-0.003,0.066-0.025c0.022-0.022,0.039-0.055,0.05-0.1c-0.011-0.011-0.033-0.028-0.066-0.05
		c-0.033-0.033-0.055-0.05-0.066-0.05c0.078,0.033,0.235,0.025,0.474-0.025s0.391-0.042,0.457,0.025
		c0.166,0.122,0.288,0.111,0.366-0.033c0-0.011-0.014-0.064-0.042-0.158s-0.03-0.169-0.008-0.224
		c0.055,0.299,0.216,0.349,0.482,0.15c0.033,0.033,0.119,0.061,0.258,0.083c0.139,0.022,0.235,0.05,0.291,0.083
		c0.033,0.022,0.072,0.053,0.116,0.091c0.044,0.039,0.075,0.064,0.091,0.075c0.017,0.011,0.044,0.008,0.083-0.008
		c0.039-0.017,0.086-0.053,0.141-0.108c0.111,0.155,0.177,0.288,0.199,0.399c0.122,0.443,0.227,0.687,0.316,0.731
		c0.078,0.033,0.139,0.044,0.183,0.033s0.069-0.064,0.075-0.158c0.006-0.094,0.006-0.172,0-0.233s-0.014-0.13-0.025-0.208
		l-0.017-0.133v-0.299l-0.017-0.133c-0.166-0.033-0.269-0.1-0.307-0.199c-0.039-0.1-0.03-0.202,0.025-0.307
		c0.055-0.105,0.139-0.208,0.249-0.307c0.011-0.011,0.055-0.03,0.133-0.058s0.163-0.064,0.258-0.108
		c0.094-0.044,0.163-0.089,0.208-0.133c0.233-0.211,0.316-0.404,0.249-0.582c0.078,0,0.139-0.05,0.183-0.15
		c-0.011,0-0.039-0.017-0.083-0.05s-0.086-0.061-0.125-0.083c-0.039-0.022-0.064-0.033-0.075-0.033
		c0.1-0.055,0.111-0.144,0.033-0.266c0.055-0.033,0.097-0.094,0.125-0.183s0.069-0.144,0.125-0.166
		c0.1,0.133,0.216,0.144,0.349,0.033c0.078-0.089,0.083-0.177,0.017-0.266c0.055-0.078,0.169-0.136,0.341-0.175
		c0.172-0.039,0.274-0.091,0.307-0.158c0.078,0.022,0.122,0.011,0.133-0.033c0.011-0.044,0.017-0.111,0.017-0.199
		c0-0.089,0.017-0.155,0.05-0.199c0.044-0.055,0.127-0.105,0.249-0.15c0.122-0.044,0.194-0.072,0.216-0.083l0.283-0.183
		c0.033-0.044,0.033-0.066,0-0.066c0.199,0.022,0.371-0.039,0.515-0.183c0.111-0.122,0.078-0.233-0.1-0.332
		c0.033-0.066,0.017-0.119-0.05-0.158c-0.066-0.039-0.15-0.069-0.249-0.091c0.033-0.011,0.097-0.014,0.191-0.008
		c0.094,0.006,0.152-0.003,0.175-0.025c0.166-0.111,0.127-0.199-0.116-0.266C44.439,33.761,44.2,33.828,43.912,34.016z
		 M41.203,48.593c2.283-0.399,4.227-1.446,5.834-3.141c-0.033-0.033-0.103-0.058-0.208-0.075c-0.105-0.017-0.175-0.036-0.208-0.058
		c-0.199-0.078-0.332-0.122-0.399-0.133c0.011-0.078-0.003-0.15-0.042-0.216c-0.039-0.066-0.083-0.116-0.133-0.15
		c-0.05-0.033-0.119-0.078-0.208-0.133c-0.089-0.055-0.15-0.094-0.183-0.116c-0.022-0.022-0.061-0.055-0.116-0.1
		c-0.055-0.044-0.094-0.075-0.116-0.091c-0.022-0.017-0.064-0.042-0.125-0.075c-0.061-0.033-0.108-0.044-0.141-0.033
		c-0.033,0.011-0.089,0.017-0.166,0.017l-0.05,0.017c-0.033,0.011-0.064,0.025-0.091,0.042c-0.028,0.017-0.058,0.033-0.091,0.05
		s-0.055,0.033-0.066,0.05c-0.011,0.017-0.011,0.03,0,0.042c-0.233-0.188-0.432-0.31-0.598-0.366
		c-0.055-0.011-0.116-0.042-0.183-0.091c-0.066-0.05-0.125-0.089-0.175-0.116c-0.05-0.028-0.105-0.036-0.166-0.025
		s-0.125,0.05-0.191,0.116c-0.055,0.055-0.089,0.139-0.1,0.249c-0.011,0.111-0.022,0.183-0.033,0.216
		c-0.078-0.055-0.078-0.152,0-0.291s0.089-0.241,0.033-0.307c-0.033-0.066-0.091-0.091-0.175-0.075
		c-0.083,0.017-0.15,0.042-0.199,0.075c-0.05,0.033-0.114,0.08-0.191,0.141s-0.127,0.097-0.15,0.108
		c-0.022,0.011-0.069,0.042-0.141,0.091c-0.072,0.05-0.119,0.091-0.141,0.125c-0.033,0.044-0.066,0.111-0.1,0.199
		c-0.033,0.089-0.061,0.15-0.083,0.183c-0.022-0.044-0.086-0.08-0.191-0.108s-0.158-0.058-0.158-0.091
		c0.022,0.111,0.044,0.305,0.066,0.582c0.022,0.277,0.05,0.488,0.083,0.632c0.078,0.344,0.011,0.609-0.199,0.798
		c-0.299,0.277-0.46,0.499-0.482,0.665c-0.044,0.244,0.022,0.388,0.199,0.432c0,0.078-0.044,0.191-0.133,0.341
		c-0.089,0.15-0.127,0.269-0.116,0.357C41.17,48.394,41.181,48.482,41.203,48.593z"/>
</g>
</svg>
