<?xml version="1.0" encoding="utf-8"?>
<!-- Generator: Adobe Illustrator 17.0.0, SVG Export Plug-In . SVG Version: 6.00 Build 0)  -->
<!DOCTYPE svg PUBLIC "-//W3C//DTD SVG 1.1//EN" "http://www.w3.org/Graphics/SVG/1.1/DTD/svg11.dtd">
<svg version="1.1" id="图层_1" xmlns="http://www.w3.org/2000/svg" xmlns:xlink="http://www.w3.org/1999/xlink" x="0px" y="0px"
	 width="62.387px" height="62.387px" viewBox="7.078 6.078 62.387 62.387" enable-background="new 7.078 6.078 62.387 62.387"
	 xml:space="preserve">
<g>
	<path fill="#FFFFFF" stroke="#3D3588" stroke-miterlimit="10" d="M34.339,21.147c0.569,0.284,0.569,0.745,0,1.03l-9.747,4.874
		c-0.569,0.284-1.491,0.284-2.06,0l-9.747-4.874c-0.569-0.284-0.569-0.745,0-1.03l9.747-4.874c0.569-0.284,1.491-0.284,2.06,0
		L34.339,21.147z"/>
	<path fill="#3D3588" d="M34.508,33.867c-0.006,0.019-0.053,0.091-0.212,0.17l-9.747,4.874c-0.439,0.219-1.276,0.219-1.715,0
		l-9.747-4.874c-0.164-0.082-0.21-0.157-0.214-0.167c0,0,0.001-0.002,0.001-0.003h-0.772v0c0,0.202,0.083,0.581,0.639,0.859
		l9.747,4.874c0.327,0.164,0.754,0.254,1.202,0.254s0.875-0.09,1.202-0.254l9.747-4.874c0.556-0.278,0.639-0.658,0.639-0.859v0
		H34.508z"/>
	<line fill="none" stroke="#3D3588" stroke-miterlimit="10" x1="12.359" y1="34.124" x2="12.359" y2="21.919"/>
	<line fill="none" stroke="#3D3588" stroke-miterlimit="10" x1="34.766" y1="33.88" x2="34.766" y2="21.675"/>
	<line fill="none" stroke="#3D3588" stroke-miterlimit="10" x1="23.562" y1="27.264" x2="23.562" y2="39.854"/>
</g>
<circle fill="none" stroke="#3D3588" stroke-miterlimit="10" cx="17.529" cy="30.665" r="1.423"/>
<circle fill="none" stroke="#3D3588" stroke-miterlimit="10" cx="29.834" cy="30.665" r="1.423"/>
<rect x="57.805" y="16.06" fill="#E2E1E1" width="3.504" height="41.279"/>
<rect x="52.756" y="27.264" fill="#E2E1E1" width="3.504" height="29.844"/>
<rect x="47.572" y="37.001" fill="#E2E1E1" width="3.504" height="19.892"/>
<rect x="42.255" y="45.998" fill="#E2E1E1" width="3.504" height="13.902"/>
<rect x="12.359" y="57.311" fill="#F4F4F4" stroke="#3D3588" stroke-miterlimit="10" width="52.106" height="3.504"/>
<circle fill="none" stroke="#3D3588" stroke-miterlimit="10" cx="17.529" cy="49.521" r="1.423"/>
<line fill="none" stroke="#3D3588" stroke-miterlimit="10" stroke-dasharray="2" x1="17.529" y1="52.141" x2="17.529" y2="58.509"/>
<line fill="none" stroke="#3D3588" stroke-miterlimit="10" x1="18.953" y1="48.713" x2="23.691" y2="46.603"/>
<circle fill="none" stroke="#3D3588" stroke-miterlimit="10" cx="25.114" cy="45.795" r="1.423"/>
<line fill="none" stroke="#3D3588" stroke-miterlimit="10" x1="26.537" y1="46.603" x2="29.834" y2="48.773"/>
<circle fill="none" stroke="#3D3588" stroke-miterlimit="10" cx="30.449" cy="49.521" r="1.423"/>
<line fill="none" stroke="#3D3588" stroke-miterlimit="10" x1="31.257" y1="48.351" x2="36.772" y2="41.375"/>
<circle fill="none" stroke="#3D3588" stroke-miterlimit="10" cx="37.58" cy="40.567" r="1.423"/>
<line fill="none" stroke="#3D3588" stroke-miterlimit="10" stroke-dasharray="2" x1="37.58" y1="42.798" x2="37.58" y2="58.147"/>
</svg>
