<?xml version="1.0" encoding="utf-8"?>
<!-- Generator: Adobe Illustrator 17.0.0, SVG Export Plug-In . SVG Version: 6.00 Build 0)  -->
<!DOCTYPE svg PUBLIC "-//W3C//DTD SVG 1.1//EN" "http://www.w3.org/Graphics/SVG/1.1/DTD/svg11.dtd">
<svg version="1.1" id="图层_1" xmlns="http://www.w3.org/2000/svg" xmlns:xlink="http://www.w3.org/1999/xlink" x="0px" y="0px"
	 width="62.387px" height="62.387px" viewBox="0 0 62.387 62.387" enable-background="new 0 0 62.387 62.387" xml:space="preserve">
<g>
	<g>
		<path fill="#FFFFFF" d="M58.57,30.452c1.439,0.719,1.439,1.886,0,2.605l-24.66,12.33c-1.439,0.719-3.772,0.719-5.211,0
			L4.04,33.057c-1.439-0.719-1.439-1.886,0-2.605l24.66-12.33c1.439-0.719,3.772-0.719,5.211,0L58.57,30.452z"/>
		<path fill="none" stroke="#3D3588" stroke-miterlimit="10" stroke-dasharray="2.0015,2.0015" d="M58.57,30.452
			c1.439,0.719,1.439,1.886,0,2.605l-24.66,12.33c-1.439,0.719-3.772,0.719-5.211,0L4.04,33.057c-1.439-0.719-1.439-1.886,0-2.605
			l24.66-12.33c1.439-0.719,3.772-0.719,5.211,0L58.57,30.452z"/>
	</g>
	<g>
		<path fill="none" stroke="#3D3588" stroke-miterlimit="10" stroke-dasharray="2.0015,2.0015" d="M58.57,41.637
			c1.439,0.719,1.439,1.886,0,2.605l-24.66,12.33c-1.439,0.719-3.772,0.719-5.211,0L4.04,44.242c-1.439-0.719-1.439-1.886,0-2.605
			l24.66-12.33c1.439-0.719,3.772-0.719,5.211,0L58.57,41.637z"/>
	</g>
	<path fill="#FFFFFF" stroke="#3D3588" stroke-miterlimit="10" d="M58.57,18.841c1.439,0.719,1.439,1.886,0,2.605l-24.66,12.33
		c-1.439,0.719-3.772,0.719-5.211,0L4.04,21.446c-1.439-0.719-1.439-1.886,0-2.605L28.7,6.511c1.439-0.719,3.772-0.719,5.211,0
		L58.57,18.841z"/>
</g>
<g>
	<path fill="#34317A" d="M35.644,24.223c0-0.167-0.061-0.311-0.183-0.432c-0.122-0.122-0.266-0.183-0.432-0.183
		c-0.167,0-0.311,0.061-0.432,0.183c-0.122,0.122-0.183,0.266-0.183,0.432c0,0.167,0.061,0.311,0.183,0.432s0.266,0.183,0.432,0.183
		c0.167,0,0.311-0.061,0.432-0.183C35.583,24.533,35.644,24.389,35.644,24.223z M38.105,24.223c0-0.167-0.061-0.311-0.183-0.432
		c-0.122-0.122-0.266-0.183-0.432-0.183c-0.167,0-0.311,0.061-0.432,0.183c-0.122,0.122-0.183,0.266-0.183,0.432
		c0,0.167,0.061,0.311,0.183,0.432c0.122,0.122,0.266,0.183,0.432,0.183c0.167,0,0.311-0.061,0.432-0.183
		S38.105,24.389,38.105,24.223z M39.335,22.07v3.076c0,0.256-0.09,0.474-0.269,0.654c-0.179,0.179-0.397,0.269-0.654,0.269H24.265
		c-0.256,0-0.474-0.09-0.654-0.269c-0.179-0.179-0.269-0.397-0.269-0.654V22.07c0-0.256,0.09-0.474,0.269-0.654
		c0.179-0.179,0.397-0.269,0.654-0.269h4.469l1.297,1.307c0.372,0.359,0.807,0.538,1.307,0.538s0.935-0.179,1.307-0.538l1.307-1.307
		h4.459c0.256,0,0.474,0.09,0.654,0.269C39.245,21.596,39.335,21.813,39.335,22.07z M36.211,16.601
		c0.109,0.263,0.064,0.487-0.135,0.673l-4.306,4.306c-0.115,0.122-0.259,0.183-0.432,0.183s-0.317-0.061-0.432-0.183L26.6,17.274
		c-0.199-0.186-0.243-0.41-0.135-0.673c0.109-0.25,0.298-0.375,0.567-0.375h2.46v-4.306c0-0.167,0.061-0.311,0.183-0.432
		c0.122-0.122,0.266-0.183,0.432-0.183h2.46c0.167,0,0.311,0.061,0.432,0.183c0.122,0.122,0.183,0.266,0.183,0.432v4.306h2.46
		C35.913,16.226,36.102,16.351,36.211,16.601z"/>
</g>
</svg>
