<?xml version="1.0" encoding="utf-8"?>
<!-- Generator: Adobe Illustrator 17.0.0, SVG Export Plug-In . SVG Version: 6.00 Build 0)  -->
<!DOCTYPE svg PUBLIC "-//W3C//DTD SVG 1.1//EN" "http://www.w3.org/Graphics/SVG/1.1/DTD/svg11.dtd">
<svg version="1.1" id="图层_1" xmlns="http://www.w3.org/2000/svg" xmlns:xlink="http://www.w3.org/1999/xlink" x="0px" y="0px"
	 width="62.387px" height="62.387px" viewBox="7.078 6.078 62.387 62.387" enable-background="new 7.078 6.078 62.387 62.387"
	 xml:space="preserve">
<path fill="#FFFFFF" stroke="#3D3588" stroke-miterlimit="10" stroke-dasharray="2" d="M64.949,25.3
	c1.518-0.506,2.338,0.314,1.832,1.832l-8.671,26.012c-0.506,1.518-2.146,3.158-3.664,3.664l-26.012,8.671
	c-1.518,0.506-2.338-0.314-1.832-1.832l8.671-26.012c0.506-1.518,2.146-3.158,3.664-3.664L64.949,25.3z"/>
<g>
	<path fill="#E1E0E0" d="M43.285,41.982c0.923-0.923,1.927-1.622,3.011-2.097c1.084-0.475,2.115-0.679,3.092-0.612
		c0.977,0.067,1.775,0.41,2.393,1.028c0.618,0.618,0.961,1.416,1.028,2.393c0.067,0.977-0.137,2.008-0.612,3.092
		s-1.174,2.088-2.097,3.011c-0.923,0.923-1.927,1.622-3.011,2.097c-1.084,0.475-2.115,0.679-3.092,0.612
		c-0.977-0.067-1.775-0.41-2.393-1.028c-0.618-0.618-0.961-1.416-1.028-2.393c-0.067-0.977,0.137-2.008,0.612-3.092
		C41.663,43.909,42.362,42.905,43.285,41.982z M47.412,42.478c-0.006,0.012-0.013,0.047-0.021,0.105
		c-0.008,0.058-0.024,0.102-0.047,0.132c0.009-0.009,0.011-0.026,0.008-0.052c-0.004-0.026-0.009-0.053-0.016-0.082
		c-0.007-0.029-0.009-0.047-0.008-0.054c0.006-0.047,0.032-0.118,0.079-0.212c0.044-0.08,0.141-0.212,0.291-0.398
		c0.127-0.174,0.255-0.27,0.387-0.289c-0.015,0.003-0.013-0.037,0.005-0.121c0.018-0.083,0.033-0.133,0.043-0.149
		c0.007-0.019,0.034-0.059,0.079-0.119c0.046-0.06,0.068-0.105,0.066-0.133l-0.084-0.111c-0.05,0.056-0.099,0.084-0.147,0.085
		c-0.048,0.001-0.093-0.016-0.136-0.05c0.006,0.006,0.004,0.031-0.004,0.075c-0.021-0.021-0.042-0.023-0.065-0.006
		s-0.047,0.044-0.072,0.081c-0.025,0.037-0.043,0.058-0.055,0.064c-0.053,0.035-0.097,0.057-0.133,0.066s-0.077,0.002-0.126-0.02
		c-0.049-0.022-0.08-0.036-0.093-0.04c-0.024-0.006-0.06,0-0.11,0.016s-0.086,0.022-0.11,0.016c-0.01-0.001-0.024-0.004-0.041-0.008
		c-0.017-0.004-0.033-0.007-0.049-0.009c-0.015-0.002-0.032-0.002-0.051,0.002c-0.018,0.004-0.034,0.012-0.048,0.025
		c-0.013,0.013-0.021,0.036-0.024,0.069s-0.005,0.064-0.005,0.094s-0.003,0.048-0.008,0.052c-0.019,0.007-0.035,0.018-0.046,0.033
		c-0.012,0.015-0.02,0.026-0.025,0.034c-0.005,0.008-0.011,0.022-0.017,0.043c-0.006,0.021-0.012,0.037-0.018,0.049
		c-0.007,0.019-0.022,0.042-0.043,0.07c-0.021,0.027-0.037,0.049-0.047,0.065c0.051-0.081,0.033-0.095-0.055-0.042
		c-0.056,0.032-0.096,0.063-0.119,0.093c0.028-0.052,0.027-0.086-0.004-0.103c-0.03-0.017-0.07-0.019-0.118-0.006l0.033-0.033
		c-0.016-0.007-0.048-0.001-0.094,0.019c-0.046,0.02-0.098,0.046-0.154,0.078c-0.056,0.032-0.094,0.052-0.113,0.06
		c-0.05,0.021-0.139,0.082-0.267,0.183s-0.202,0.174-0.221,0.216c-0.004,0.04,0.001,0.065,0.017,0.076s0.045,0.023,0.089,0.036
		c0.044,0.013,0.07,0.023,0.079,0.032c0.022,0.013,0.029,0.045,0.021,0.094c-0.008,0.049-0.005,0.082,0.01,0.096
		c0.021,0.021,0.075,0.013,0.162-0.024c0.087-0.037,0.141-0.027,0.162,0.029c0.01,0.037-0.001,0.096-0.035,0.177
		c-0.034,0.081-0.051,0.134-0.053,0.159c0.002,0.046,0.026,0.076,0.072,0.092c0.047,0.016,0.094,0.017,0.143,0.004
		c0.015-0.003,0.024,0,0.028,0.008c0.004,0.008,0.003,0.023-0.003,0.043c-0.006,0.021-0.012,0.039-0.019,0.054
		c-0.007,0.015-0.016,0.035-0.028,0.059l-0.011,0.029c-0.034,0.063-0.088,0.1-0.162,0.109c-0.074,0.009-0.143,0.001-0.205-0.026
		c-0.105-0.043-0.185-0.052-0.239-0.027c-0.125,0.078-0.188,0.143-0.188,0.197c-0.061-0.016-0.19,0.036-0.387,0.156
		c-0.137,0.084-0.271,0.206-0.402,0.367c0.024-0.029,0.001-0.052-0.067-0.067c-0.075-0.013-0.135,0.011-0.179,0.073
		c-0.004-0.031-0.022-0.066-0.051-0.104s-0.047-0.061-0.053-0.067c-0.025-0.052-0.033-0.112-0.023-0.182
		c0.001-0.007,0.004-0.035,0.009-0.084c0.004-0.049,0.005-0.09,0.003-0.123c-0.002-0.033-0.01-0.043-0.023-0.03
		c0.166-0.143,0.261-0.269,0.282-0.38c0.007-0.037,0.008-0.087,0.001-0.152s-0.009-0.113-0.006-0.145
		c0.022-0.057,0.045-0.097,0.068-0.117c0.024-0.021,0.064-0.044,0.12-0.072c0.057-0.027,0.096-0.052,0.118-0.074
		c0.065-0.059,0.083-0.109,0.054-0.151c-0.029-0.042-0.075-0.055-0.138-0.039c0.056-0.05,0.037-0.082-0.056-0.095
		c-0.043,0.001-0.074,0.006-0.093,0.013c-0.065,0.041-0.117,0.108-0.157,0.201c-0.024,0.047-0.007,0.055,0.049,0.022
		c-0.007,0.001-0.013,0.038-0.016,0.11c-0.004,0.072-0.014,0.134-0.032,0.187c-0.018,0.053-0.06,0.081-0.128,0.084
		c-0.007,0.001-0.039-0.006-0.096-0.023c-0.057-0.017-0.098-0.016-0.123,0.003c-0.035,0.035-0.048,0.093-0.039,0.173
		c-0.01-0.037-0.057-0.035-0.139,0.006c-0.083,0.041-0.147,0.082-0.194,0.124c0.048-0.119-0.009-0.142-0.173-0.067
		c-0.043,0.019-0.095,0.057-0.158,0.114s-0.1,0.106-0.111,0.147c-0.001,0.043,0.003,0.072,0.015,0.087s0.034,0.016,0.069,0.002
		c0.035-0.014,0.066-0.029,0.094-0.045s0.059-0.036,0.094-0.058c0.035-0.023,0.058-0.037,0.07-0.043
		c0.091-0.032,0.13-0.029,0.115,0.009c-0.006,0.012-0.019,0.036-0.041,0.072c-0.021,0.036-0.04,0.068-0.056,0.096
		c-0.016,0.028-0.024,0.047-0.022,0.057c-0.001,0.025,0.019,0.046,0.062,0.062c0.043,0.016,0.059,0.041,0.049,0.075
		c-0.037,0.007-0.083,0.001-0.137-0.018c-0.055-0.019-0.094-0.028-0.12-0.027c0.058-0.004,0.011,0.06-0.139,0.192l-0.071,0.062
		c-0.018,0.018-0.05,0.056-0.097,0.115c-0.047,0.059-0.091,0.106-0.131,0.14c-0.041,0.035-0.082,0.053-0.125,0.054
		c-0.041-0.006-0.071-0.036-0.089-0.089c-0.007-0.016-0.002-0.028,0.018-0.035c-0.027,0.009-0.065,0.019-0.115,0.031
		c-0.05,0.012-0.085,0.021-0.104,0.029c-0.159,0.248-0.306,0.516-0.441,0.805c0.029-0.024,0.054-0.052,0.075-0.084
		c0.016-0.028,0.035-0.066,0.057-0.115s0.036-0.079,0.042-0.091c0.109-0.192,0.191-0.295,0.247-0.309l0.011-0.055
		c0.109-0.015,0.19-0.022,0.243-0.022c-0.043,0.019-0.11,0.084-0.203,0.194c-0.071,0.106-0.101,0.172-0.093,0.199
		c0.066,0.005,0.104,0.02,0.113,0.047c-0.027,0.009-0.067,0.019-0.121,0.032s-0.102,0.028-0.145,0.047
		c-0.043,0.019-0.083,0.045-0.122,0.077c-0.071,0.071-0.118,0.121-0.141,0.15c-0.408,0.881-0.599,1.729-0.572,2.542
		c0.052-0.01,0.09-0.025,0.115-0.044c0.021-0.015,0.045-0.012,0.073,0.007c0.028,0.019,0.05,0.03,0.065,0.032
		c0.015,0.002,0.036-0.028,0.063-0.09c0.063-0.016,0.098,0.005,0.104,0.064c0.001-0.007,0.139-0.065,0.411-0.172
		c0.134-0.034,0.212-0.049,0.232-0.046c0.046,0.019,0.05,0.068,0.014,0.146c-0.01-0.001-0.044,0.005-0.1,0.02
		s-0.082,0.029-0.077,0.042c0.002,0.028,0.03,0.054,0.085,0.079c0.055,0.024,0.097,0.02,0.125-0.014
		c-0.031,0.031-0.028,0.076,0.008,0.134c0.036,0.058,0.083,0.116,0.141,0.174c0.058,0.058,0.09,0.095,0.098,0.111l0.018-0.009
		c0.022,0.049,0.085,0.088,0.189,0.117c0.104,0.029,0.18,0.01,0.229-0.056c-0.049,0.066,0.059,0.086,0.323,0.058
		c0.05-0.003,0.081-0.007,0.093-0.013c0.019-0.007,0.057-0.023,0.113-0.046s0.104-0.042,0.144-0.055
		c0.04-0.013,0.077-0.02,0.113-0.02c0.032-0.003,0.088,0.008,0.166,0.034c0.078,0.025,0.144,0.029,0.197,0.011
		c0.009,0.027,0.059,0.035,0.152,0.026c0.092-0.009,0.149,0.001,0.172,0.032c-0.004,0.004-0.008,0.011-0.012,0.021
		c-0.004,0.01-0.008,0.017-0.012,0.021c0.034,0.007,0.089-0.006,0.165-0.041c0.076-0.035,0.129-0.05,0.16-0.045
		c0.013,0.004,0.032,0.015,0.058,0.031s0.048,0.026,0.069,0.029c0.021,0.003,0.041-0.012,0.062-0.044
		c-0.05-0.068-0.195-0.107-0.434-0.116c-0.14-0.008-0.221-0.013-0.241-0.016c-0.028-0.002-0.063-0.012-0.105-0.032
		c-0.042-0.02-0.073-0.032-0.094-0.035c0.009-0.009,0.024-0.02,0.046-0.033c0.022-0.013,0.046-0.027,0.072-0.041
		c0.026-0.014,0.048-0.025,0.067-0.032c0.019-0.007,0.028-0.007,0.027,0c0.007,0.034,0.038,0.055,0.091,0.064
		c0.053,0.009,0.107,0.01,0.162,0.003c0.055-0.007,0.12-0.017,0.197-0.028c0.077-0.012,0.122-0.019,0.137-0.022
		c0.044-0.009,0.104-0.011,0.179-0.006c0.075,0.005,0.095,0.025,0.06,0.06c0.04-0.04,0.099-0.069,0.177-0.088
		c0.078-0.019,0.145-0.027,0.201-0.024c0.046,0.002,0.102,0.022,0.168,0.062c0.066,0.04,0.113,0.064,0.14,0.073
		c0.03,0.012,0.068,0.013,0.116,0.004s0.09-0.023,0.125-0.041l0.141-0.071l0.117-0.055c0.028-0.016,0.084-0.042,0.169-0.076
		c0.085-0.034,0.149-0.065,0.193-0.091c0.056-0.032,0.097-0.062,0.124-0.088c0.027-0.027,0.055-0.062,0.085-0.107
		c0.03-0.045,0.055-0.08,0.074-0.105c0.06-0.072,0.147-0.114,0.259-0.126c0.112-0.012,0.19-0.027,0.232-0.046
		c0.215-0.103,0.353-0.208,0.413-0.316c-0.006,0.012,0.006,0.022,0.037,0.03c0.03,0.008,0.071,0.013,0.122,0.016
		c0.051,0.002,0.092,0.004,0.124,0.005c0.032,0.001,0.056,0.001,0.074,0.001c0.04-0.004,0.102-0.022,0.186-0.053
		s0.146-0.048,0.186-0.053c0.015-0.038,0.017-0.067,0.006-0.086c0.01,0.037,0.055,0.051,0.135,0.042
		c0.08-0.009,0.134-0.034,0.164-0.075c0.053-0.071,0.037-0.149-0.049-0.235c-0.093,0.181-0.227,0.263-0.404,0.245
		c-0.003-0.003-0.017-0.006-0.041-0.008c-0.024-0.002-0.046-0.006-0.064-0.011s-0.037-0.012-0.054-0.021s-0.029-0.02-0.033-0.033
		c-0.004-0.013,0.002-0.029,0.02-0.046c0.04-0.04,0.057-0.067,0.051-0.082c-0.006-0.015-0.029-0.029-0.069-0.042
		c-0.04-0.013-0.068-0.024-0.084-0.031c-0.028-0.019-0.082-0.025-0.162-0.016c-0.08,0.009-0.128,0.013-0.146,0.013
		c0.005,0.049-0.019,0.096-0.071,0.141c-0.052,0.046-0.1,0.068-0.146,0.066c0.003,0.003,0.008,0.014,0.014,0.034
		s0.013,0.033,0.019,0.039c-0.057,0.057-0.092,0.089-0.104,0.095c-0.004-0.013-0.025-0.045-0.061-0.094
		c-0.036-0.05-0.062-0.091-0.077-0.123c-0.007-0.016-0.013-0.046-0.017-0.09s-0.009-0.082-0.015-0.114s-0.016-0.06-0.029-0.082
		s-0.037-0.026-0.072-0.012c-0.035,0.014-0.077,0.049-0.127,0.105c-0.081,0.087-0.109,0.174-0.084,0.261
		c0.004,0.013,0.013,0.035,0.027,0.066c0.013,0.031,0.019,0.059,0.018,0.084c-0.001,0.025-0.011,0.055-0.029,0.091
		c-0.022,0.04-0.072,0.096-0.15,0.168s-0.138,0.118-0.181,0.137c-0.081,0.034-0.174,0.041-0.278,0.02
		c-0.104-0.02-0.18-0.054-0.227-0.101c-0.03-0.03-0.063-0.074-0.101-0.134c-0.038-0.06-0.068-0.103-0.091-0.131
		c-0.023-0.027-0.071-0.051-0.145-0.072c0.007-0.019,0.013-0.053,0.017-0.102c0.004-0.049,0.011-0.086,0.02-0.113
		c0.006-0.012,0.014-0.024,0.023-0.036s0.02-0.022,0.03-0.03c0.01-0.007,0.017-0.018,0.02-0.033c0.003-0.015,0.001-0.03-0.007-0.046
		c-0.007,0.001-0.021,0.006-0.04,0.013c-0.022,0.004-0.035,0.009-0.04,0.013c0.04-0.022,0.101-0.087,0.182-0.195
		c0.082-0.108,0.145-0.167,0.189-0.176c0.099-0.034,0.144-0.085,0.137-0.155c-0.003-0.003-0.023-0.011-0.059-0.026
		c-0.036-0.014-0.057-0.033-0.063-0.057c0.102,0.058,0.179,0.007,0.232-0.152c0.022-0.004,0.064-0.031,0.125-0.081
		s0.107-0.081,0.138-0.094c0.019-0.007,0.043-0.015,0.071-0.022s0.047-0.013,0.056-0.016c0.01-0.004,0.02-0.015,0.031-0.035
		c0.011-0.02,0.02-0.048,0.027-0.085c0.086-0.003,0.148,0.006,0.186,0.027c0.167,0.07,0.274,0.093,0.321,0.069
		c0.04-0.022,0.067-0.043,0.082-0.064c0.015-0.021,0.011-0.045-0.012-0.072s-0.044-0.048-0.062-0.062
		c-0.018-0.014-0.04-0.029-0.065-0.046l-0.042-0.029l-0.08-0.08l-0.042-0.029c-0.075,0.057-0.134,0.08-0.176,0.069
		c-0.042-0.011-0.066-0.042-0.072-0.092c-0.006-0.05,0-0.111,0.017-0.181c0.001-0.007,0.014-0.03,0.037-0.069
		c0.024-0.038,0.048-0.082,0.074-0.132c0.026-0.049,0.041-0.089,0.047-0.118c0.037-0.149,0.018-0.234-0.056-0.255
		c0.031-0.031,0.042-0.069,0.033-0.113c-0.004,0.004-0.02,0.011-0.046,0.02c-0.027,0.009-0.05,0.018-0.072,0.028
		c-0.021,0.01-0.034,0.017-0.039,0.021c0.025-0.055,0.006-0.083-0.058-0.084c0.013-0.031,0.014-0.064,0.001-0.098
		s-0.011-0.066,0.005-0.094c0.075-0.004,0.125-0.048,0.148-0.13c0.007-0.055-0.014-0.08-0.064-0.078
		c0.001-0.043,0.031-0.104,0.089-0.182c0.058-0.079,0.085-0.134,0.08-0.165c0.037-0.025,0.052-0.046,0.044-0.062
		c-0.007-0.016-0.023-0.036-0.047-0.06c-0.024-0.024-0.035-0.048-0.033-0.073c0.003-0.032,0.023-0.079,0.059-0.139
		c0.037-0.06,0.058-0.097,0.064-0.108l0.064-0.161c0.001-0.025-0.004-0.031-0.018-0.018c0.085-0.074,0.138-0.158,0.157-0.254
		c0.012-0.077-0.031-0.093-0.128-0.049c-0.004-0.031-0.025-0.038-0.062-0.022c-0.037,0.016-0.078,0.041-0.124,0.075
		c0.01-0.016,0.035-0.042,0.074-0.078c0.039-0.036,0.06-0.061,0.063-0.076c0.037-0.096-0.002-0.104-0.117-0.025
		C47.553,42.2,47.476,42.313,47.412,42.478z M50.222,47.448c0.803-1.016,1.299-2.071,1.487-3.164
		c-0.022,0.004-0.056,0.025-0.103,0.063s-0.079,0.06-0.098,0.067c-0.1,0.059-0.165,0.1-0.194,0.124
		c-0.016-0.025-0.041-0.039-0.074-0.041c-0.033-0.002-0.064,0.002-0.093,0.013c-0.029,0.011-0.068,0.027-0.118,0.047
		c-0.05,0.021-0.085,0.034-0.104,0.042c-0.015,0.003-0.039,0.01-0.073,0.02s-0.058,0.018-0.071,0.022s-0.036,0.014-0.07,0.03
		c-0.033,0.015-0.055,0.031-0.065,0.047c-0.01,0.016-0.031,0.04-0.062,0.071l-0.015,0.024c-0.01,0.016-0.019,0.032-0.025,0.048
		c-0.007,0.015-0.014,0.032-0.023,0.05c-0.009,0.018-0.013,0.031-0.013,0.04s0.004,0.013,0.011,0.011
		c-0.143,0.042-0.255,0.089-0.336,0.141c-0.025,0.019-0.057,0.035-0.097,0.048c-0.04,0.013-0.073,0.026-0.101,0.039
		c-0.027,0.012-0.052,0.032-0.073,0.06c-0.021,0.027-0.036,0.063-0.045,0.107c-0.007,0.037,0.002,0.072,0.027,0.106
		c0.025,0.034,0.04,0.058,0.044,0.071c-0.046,0.016-0.072-0.01-0.078-0.078c-0.006-0.068-0.029-0.1-0.069-0.095
		c-0.031-0.004-0.061,0.012-0.09,0.05c-0.029,0.038-0.049,0.071-0.06,0.099c-0.011,0.029-0.024,0.067-0.038,0.114
		s-0.025,0.077-0.031,0.088c-0.006,0.012-0.017,0.039-0.032,0.081c-0.015,0.042-0.023,0.072-0.023,0.09
		c-0.001,0.025,0.003,0.056,0.013,0.093c0.01,0.037,0.016,0.064,0.016,0.082c-0.021-0.003-0.056,0.013-0.105,0.047
		s-0.078,0.047-0.087,0.039c0.038,0.021,0.099,0.064,0.182,0.129c0.083,0.065,0.15,0.11,0.202,0.135
		c0.123,0.061,0.167,0.158,0.133,0.292c-0.045,0.193-0.05,0.316-0.015,0.37c0.047,0.083,0.112,0.095,0.195,0.036
		c0.021,0.021,0.033,0.069,0.038,0.144c0.005,0.075,0.021,0.123,0.049,0.142C50.156,47.408,50.184,47.428,50.222,47.448z"/>
</g>
<path fill="#FFFFFF" stroke="#3D3588" stroke-miterlimit="10" d="M49.734,10.085c1.518-0.506,2.338,0.314,1.832,1.832l-8.671,26.012
	c-0.506,1.518-2.146,3.158-3.664,3.664L13.22,50.263c-1.518,0.506-2.338-0.314-1.832-1.832l8.671-26.012
	c0.506-1.518,2.146-3.158,3.664-3.664L49.734,10.085z"/>
<line fill="none" stroke="#3D3588" stroke-miterlimit="10" stroke-dasharray="2" x1="13.725" y1="12.652" x2="30.675" y2="29.602"/>
<g>
	<path fill="#383380" d="M28.042,26.795c0.923-0.923,1.927-1.622,3.011-2.097c1.084-0.475,2.115-0.679,3.092-0.612
		c0.977,0.067,1.775,0.41,2.393,1.028c0.618,0.618,0.961,1.416,1.028,2.393s-0.137,2.008-0.612,3.092
		c-0.475,1.084-1.174,2.088-2.097,3.011c-0.923,0.923-1.927,1.622-3.011,2.097c-1.084,0.475-2.115,0.679-3.092,0.612
		s-1.775-0.41-2.393-1.028c-0.618-0.618-0.961-1.416-1.028-2.393c-0.067-0.977,0.137-2.008,0.612-3.092
		C26.419,28.722,27.119,27.718,28.042,26.795z M32.168,27.291c-0.006,0.012-0.013,0.047-0.021,0.105
		c-0.008,0.058-0.024,0.102-0.047,0.132c0.009-0.009,0.011-0.026,0.008-0.052c-0.004-0.026-0.009-0.053-0.016-0.082
		c-0.007-0.029-0.009-0.047-0.008-0.054c0.006-0.047,0.032-0.118,0.079-0.212c0.044-0.08,0.141-0.212,0.291-0.398
		c0.127-0.174,0.255-0.27,0.387-0.289c-0.015,0.003-0.013-0.037,0.005-0.121s0.033-0.133,0.043-0.149
		c0.007-0.019,0.034-0.059,0.079-0.119s0.068-0.105,0.066-0.133l-0.084-0.111c-0.05,0.056-0.099,0.084-0.147,0.085
		c-0.048,0.001-0.093-0.016-0.136-0.05c0.006,0.006,0.004,0.031-0.004,0.075c-0.021-0.021-0.042-0.023-0.065-0.006
		c-0.023,0.017-0.047,0.044-0.072,0.081c-0.025,0.037-0.043,0.058-0.055,0.064c-0.053,0.035-0.097,0.057-0.133,0.066
		c-0.035,0.009-0.077,0.002-0.126-0.02c-0.049-0.022-0.08-0.036-0.093-0.04c-0.024-0.006-0.06-0.001-0.11,0.016
		s-0.086,0.022-0.11,0.016c-0.01-0.001-0.024-0.004-0.041-0.008c-0.017-0.004-0.033-0.007-0.049-0.009
		c-0.015-0.002-0.032-0.002-0.051,0.002c-0.018,0.004-0.034,0.012-0.048,0.025c-0.013,0.013-0.021,0.036-0.024,0.069
		c-0.003,0.032-0.005,0.064-0.005,0.094c-0.001,0.03-0.003,0.048-0.008,0.052c-0.019,0.007-0.035,0.018-0.046,0.033
		c-0.012,0.015-0.02,0.026-0.025,0.034s-0.011,0.022-0.017,0.043c-0.006,0.021-0.012,0.037-0.018,0.049
		c-0.007,0.019-0.022,0.042-0.043,0.07s-0.037,0.049-0.047,0.065c0.051-0.081,0.033-0.095-0.055-0.042
		c-0.056,0.032-0.096,0.063-0.119,0.093c0.028-0.052,0.027-0.086-0.004-0.103c-0.03-0.017-0.07-0.019-0.118-0.006l0.033-0.033
		c-0.016-0.007-0.048-0.001-0.094,0.019c-0.046,0.02-0.098,0.046-0.154,0.078c-0.056,0.032-0.094,0.052-0.113,0.06
		c-0.05,0.021-0.139,0.082-0.267,0.183c-0.128,0.102-0.202,0.174-0.221,0.216c-0.004,0.04,0.001,0.065,0.017,0.076
		c0.016,0.011,0.045,0.023,0.089,0.036c0.044,0.013,0.07,0.023,0.079,0.032c0.022,0.013,0.029,0.045,0.021,0.094
		c-0.008,0.049-0.005,0.082,0.01,0.096c0.021,0.021,0.075,0.013,0.162-0.024c0.087-0.037,0.141-0.027,0.162,0.029
		c0.01,0.037-0.001,0.096-0.035,0.177c-0.034,0.081-0.051,0.134-0.053,0.159c0.002,0.046,0.026,0.076,0.072,0.092
		s0.094,0.017,0.143,0.004c0.015-0.003,0.024,0,0.028,0.008s0.003,0.023-0.003,0.043c-0.006,0.021-0.012,0.039-0.019,0.054
		c-0.007,0.015-0.016,0.035-0.028,0.059l-0.011,0.029c-0.034,0.063-0.088,0.1-0.162,0.109s-0.143,0.001-0.205-0.026
		c-0.105-0.043-0.185-0.052-0.239-0.027c-0.125,0.078-0.188,0.143-0.188,0.197c-0.061-0.016-0.19,0.036-0.387,0.156
		c-0.137,0.084-0.271,0.206-0.402,0.367c0.024-0.029,0.001-0.052-0.067-0.067c-0.075-0.013-0.135,0.011-0.179,0.073
		c-0.004-0.031-0.022-0.066-0.051-0.104s-0.047-0.061-0.053-0.067c-0.025-0.052-0.033-0.112-0.023-0.182
		c0.001-0.007,0.004-0.035,0.009-0.084c0.004-0.049,0.005-0.09,0.003-0.123s-0.01-0.043-0.023-0.03
		c0.166-0.143,0.261-0.269,0.282-0.38c0.007-0.037,0.008-0.087,0.001-0.152c-0.007-0.064-0.009-0.113-0.006-0.145
		c0.022-0.057,0.045-0.097,0.068-0.117c0.024-0.021,0.064-0.044,0.12-0.072c0.057-0.027,0.096-0.052,0.118-0.074
		c0.065-0.059,0.083-0.109,0.054-0.151c-0.029-0.042-0.075-0.055-0.138-0.039c0.056-0.05,0.037-0.082-0.056-0.095
		c-0.043,0.001-0.074,0.006-0.093,0.013c-0.065,0.041-0.117,0.108-0.157,0.201c-0.024,0.047-0.007,0.055,0.049,0.022
		c-0.007,0.001-0.013,0.038-0.016,0.11c-0.004,0.072-0.014,0.134-0.032,0.187c-0.018,0.053-0.06,0.081-0.128,0.084
		c-0.007,0.001-0.039-0.006-0.096-0.023c-0.057-0.017-0.098-0.016-0.123,0.003c-0.035,0.035-0.048,0.093-0.039,0.173
		c-0.01-0.037-0.057-0.035-0.139,0.006c-0.083,0.041-0.147,0.082-0.194,0.124c0.048-0.119-0.009-0.142-0.173-0.067
		c-0.043,0.019-0.095,0.057-0.158,0.114c-0.063,0.057-0.1,0.106-0.111,0.147c-0.001,0.043,0.003,0.072,0.015,0.087
		c0.011,0.016,0.034,0.016,0.069,0.002c0.035-0.014,0.066-0.029,0.094-0.045c0.028-0.016,0.059-0.036,0.094-0.058
		c0.035-0.023,0.058-0.037,0.07-0.043c0.091-0.032,0.13-0.029,0.115,0.009c-0.006,0.012-0.019,0.036-0.041,0.072
		s-0.04,0.068-0.056,0.096c-0.016,0.028-0.024,0.047-0.022,0.057c-0.001,0.025,0.019,0.046,0.062,0.062
		c0.043,0.016,0.059,0.041,0.049,0.075c-0.037,0.007-0.083,0.001-0.137-0.018s-0.094-0.028-0.12-0.027
		c0.058-0.004,0.011,0.06-0.139,0.192l-0.071,0.062c-0.018,0.018-0.05,0.056-0.097,0.115s-0.091,0.106-0.131,0.14
		c-0.041,0.035-0.082,0.053-0.125,0.054c-0.041-0.006-0.071-0.036-0.089-0.089c-0.007-0.016-0.002-0.028,0.018-0.035
		c-0.027,0.009-0.065,0.019-0.115,0.031c-0.05,0.012-0.085,0.021-0.104,0.029c-0.159,0.248-0.306,0.516-0.441,0.805
		c0.029-0.024,0.054-0.052,0.075-0.084c0.016-0.028,0.035-0.066,0.057-0.115c0.022-0.049,0.036-0.079,0.042-0.091
		c0.109-0.192,0.191-0.295,0.247-0.309l0.011-0.055c0.109-0.015,0.19-0.022,0.243-0.022c-0.043,0.019-0.11,0.084-0.203,0.194
		c-0.071,0.106-0.101,0.172-0.093,0.199c0.066,0.005,0.104,0.02,0.113,0.047c-0.027,0.009-0.067,0.019-0.121,0.032
		c-0.054,0.012-0.102,0.028-0.145,0.047s-0.083,0.045-0.122,0.077c-0.071,0.071-0.118,0.121-0.141,0.15
		c-0.408,0.881-0.599,1.729-0.572,2.542c0.052-0.01,0.09-0.025,0.115-0.044c0.021-0.015,0.045-0.012,0.073,0.007
		s0.05,0.03,0.065,0.032c0.015,0.002,0.036-0.028,0.063-0.09c0.063-0.016,0.098,0.005,0.104,0.064
		c0.001-0.007,0.139-0.065,0.411-0.172c0.134-0.034,0.212-0.049,0.232-0.046c0.046,0.019,0.05,0.068,0.014,0.146
		c-0.01-0.001-0.044,0.005-0.1,0.02c-0.056,0.015-0.082,0.029-0.077,0.042c0.002,0.028,0.03,0.054,0.085,0.079
		c0.055,0.024,0.097,0.02,0.125-0.014c-0.031,0.031-0.028,0.076,0.008,0.134c0.036,0.058,0.083,0.116,0.141,0.174
		c0.058,0.058,0.09,0.095,0.098,0.111l0.018-0.009c0.022,0.049,0.085,0.088,0.189,0.117c0.104,0.029,0.18,0.01,0.229-0.056
		c-0.049,0.066,0.059,0.086,0.323,0.058c0.05-0.003,0.081-0.007,0.093-0.013c0.019-0.007,0.057-0.023,0.113-0.046
		c0.056-0.023,0.104-0.042,0.144-0.055c0.04-0.013,0.077-0.02,0.113-0.02c0.032-0.003,0.088,0.008,0.166,0.034
		c0.078,0.025,0.144,0.029,0.197,0.012c0.009,0.027,0.059,0.035,0.152,0.026s0.149,0.001,0.172,0.032
		c-0.004,0.004-0.008,0.011-0.012,0.021s-0.008,0.017-0.012,0.021c0.034,0.007,0.089-0.006,0.165-0.041
		c0.076-0.035,0.129-0.05,0.16-0.045c0.013,0.004,0.032,0.015,0.058,0.031c0.025,0.016,0.048,0.026,0.069,0.029
		c0.021,0.003,0.041-0.012,0.062-0.044c-0.05-0.068-0.195-0.107-0.434-0.116c-0.14-0.008-0.221-0.013-0.241-0.016
		c-0.028-0.002-0.063-0.012-0.105-0.032s-0.073-0.032-0.094-0.035c0.009-0.009,0.024-0.02,0.046-0.033
		c0.022-0.013,0.046-0.027,0.072-0.041s0.048-0.025,0.067-0.032c0.019-0.007,0.028-0.007,0.027,0
		c0.007,0.034,0.038,0.055,0.091,0.064c0.053,0.009,0.107,0.01,0.162,0.003c0.055-0.007,0.12-0.017,0.197-0.028
		c0.077-0.012,0.122-0.019,0.137-0.022c0.044-0.009,0.104-0.011,0.179-0.006s0.095,0.025,0.06,0.06
		c0.04-0.04,0.099-0.069,0.177-0.088c0.078-0.019,0.145-0.027,0.201-0.024c0.046,0.002,0.102,0.022,0.168,0.062
		c0.066,0.04,0.113,0.064,0.14,0.073c0.03,0.012,0.068,0.013,0.116,0.004c0.048-0.009,0.09-0.023,0.125-0.041l0.141-0.071
		l0.117-0.055c0.028-0.016,0.084-0.041,0.169-0.076c0.085-0.034,0.149-0.065,0.193-0.091c0.056-0.032,0.097-0.062,0.124-0.088
		c0.027-0.027,0.055-0.062,0.085-0.107c0.03-0.045,0.055-0.08,0.074-0.105c0.06-0.072,0.147-0.114,0.259-0.126
		c0.112-0.012,0.19-0.027,0.232-0.046c0.215-0.103,0.353-0.208,0.413-0.316c-0.006,0.012,0.006,0.022,0.037,0.03
		c0.03,0.008,0.071,0.013,0.122,0.016c0.051,0.002,0.092,0.004,0.124,0.005c0.032,0.001,0.056,0.001,0.074,0.001
		c0.04-0.004,0.102-0.022,0.186-0.053c0.084-0.031,0.146-0.048,0.186-0.053c0.015-0.038,0.017-0.067,0.006-0.086
		c0.01,0.037,0.055,0.051,0.135,0.042c0.08-0.009,0.134-0.034,0.164-0.075c0.053-0.071,0.037-0.149-0.049-0.235
		c-0.093,0.181-0.227,0.263-0.404,0.245c-0.003-0.003-0.017-0.006-0.041-0.008c-0.024-0.002-0.046-0.006-0.064-0.011
		s-0.037-0.012-0.054-0.021s-0.029-0.02-0.033-0.033c-0.004-0.013,0.002-0.029,0.02-0.046c0.04-0.04,0.057-0.067,0.051-0.082
		c-0.006-0.015-0.029-0.029-0.069-0.042c-0.04-0.013-0.068-0.024-0.084-0.031C33.284,31,33.23,30.994,33.15,31.003
		s-0.128,0.013-0.146,0.013c0.005,0.049-0.019,0.096-0.071,0.141c-0.052,0.046-0.1,0.068-0.146,0.066
		c0.003,0.003,0.008,0.014,0.014,0.034s0.013,0.033,0.019,0.039c-0.057,0.057-0.092,0.089-0.104,0.095
		c-0.004-0.013-0.025-0.045-0.061-0.094c-0.036-0.05-0.062-0.091-0.077-0.123c-0.007-0.016-0.013-0.046-0.017-0.09
		c-0.004-0.044-0.009-0.082-0.015-0.114c-0.006-0.032-0.016-0.06-0.029-0.082c-0.013-0.022-0.037-0.026-0.072-0.012
		c-0.035,0.014-0.077,0.049-0.127,0.105c-0.081,0.087-0.109,0.174-0.084,0.261c0.004,0.013,0.013,0.035,0.027,0.066
		c0.013,0.031,0.019,0.059,0.018,0.084c-0.001,0.025-0.011,0.055-0.029,0.091c-0.022,0.04-0.072,0.096-0.15,0.168
		s-0.138,0.118-0.181,0.137c-0.081,0.034-0.174,0.041-0.278,0.02c-0.104-0.02-0.18-0.054-0.227-0.101
		c-0.03-0.03-0.063-0.074-0.101-0.134s-0.068-0.103-0.091-0.131c-0.023-0.027-0.071-0.051-0.145-0.072
		c0.007-0.019,0.013-0.053,0.017-0.102c0.004-0.049,0.011-0.086,0.02-0.113c0.006-0.012,0.014-0.024,0.023-0.036
		c0.01-0.013,0.02-0.022,0.03-0.03c0.01-0.007,0.017-0.018,0.02-0.033c0.003-0.015,0.001-0.03-0.007-0.046
		c-0.007,0.001-0.021,0.006-0.04,0.013c-0.022,0.004-0.035,0.009-0.04,0.013c0.04-0.022,0.101-0.087,0.182-0.195
		c0.082-0.108,0.145-0.167,0.189-0.176c0.099-0.034,0.144-0.085,0.137-0.155c-0.003-0.003-0.023-0.011-0.059-0.026
		s-0.057-0.033-0.063-0.057c0.102,0.058,0.179,0.007,0.232-0.152c0.022-0.004,0.064-0.031,0.125-0.081s0.107-0.081,0.138-0.094
		c0.019-0.007,0.043-0.015,0.071-0.022s0.047-0.013,0.056-0.016s0.02-0.015,0.031-0.035c0.011-0.02,0.02-0.048,0.027-0.085
		c0.086-0.003,0.148,0.006,0.186,0.027c0.167,0.07,0.274,0.093,0.321,0.069c0.04-0.022,0.067-0.043,0.082-0.064
		s0.011-0.045-0.012-0.072c-0.023-0.027-0.044-0.048-0.062-0.062c-0.018-0.014-0.04-0.029-0.065-0.046l-0.042-0.029l-0.08-0.08
		l-0.042-0.029c-0.075,0.057-0.134,0.08-0.176,0.069c-0.042-0.011-0.066-0.042-0.072-0.092c-0.006-0.05,0-0.111,0.017-0.181
		c0.001-0.007,0.014-0.03,0.037-0.069s0.048-0.082,0.074-0.132c0.026-0.049,0.041-0.089,0.047-0.118
		c0.037-0.149,0.018-0.234-0.056-0.255c0.031-0.031,0.042-0.069,0.033-0.113c-0.004,0.004-0.02,0.011-0.046,0.02
		c-0.027,0.009-0.05,0.018-0.072,0.028s-0.034,0.017-0.039,0.021c0.025-0.055,0.006-0.083-0.058-0.084
		c0.013-0.031,0.014-0.064,0.001-0.098s-0.011-0.066,0.005-0.094c0.075-0.004,0.125-0.048,0.148-0.13
		c0.007-0.055-0.014-0.08-0.064-0.078c0.001-0.043,0.031-0.104,0.089-0.182c0.058-0.079,0.085-0.134,0.08-0.165
		c0.037-0.025,0.052-0.046,0.044-0.062c-0.007-0.016-0.023-0.036-0.047-0.06c-0.024-0.024-0.035-0.048-0.033-0.073
		c0.003-0.032,0.023-0.079,0.059-0.139c0.037-0.06,0.058-0.097,0.064-0.108l0.064-0.161c0.001-0.025-0.004-0.031-0.018-0.018
		c0.085-0.074,0.138-0.158,0.157-0.254c0.012-0.077-0.031-0.093-0.128-0.049c-0.004-0.031-0.025-0.038-0.062-0.022
		c-0.037,0.016-0.078,0.041-0.124,0.075c0.01-0.016,0.035-0.042,0.074-0.078c0.039-0.036,0.06-0.061,0.063-0.076
		c0.037-0.096-0.002-0.104-0.117-0.025C32.31,27.013,32.233,27.126,32.168,27.291z M34.979,32.262
		c0.803-1.016,1.299-2.071,1.487-3.164c-0.022,0.004-0.056,0.025-0.103,0.063c-0.046,0.038-0.079,0.06-0.098,0.067
		c-0.1,0.059-0.165,0.1-0.194,0.124c-0.016-0.025-0.041-0.039-0.074-0.041c-0.033-0.002-0.064,0.002-0.093,0.013
		c-0.029,0.011-0.068,0.027-0.118,0.047c-0.05,0.021-0.085,0.034-0.104,0.042c-0.015,0.003-0.039,0.01-0.073,0.02
		c-0.034,0.01-0.058,0.018-0.071,0.022c-0.013,0.004-0.036,0.014-0.07,0.03s-0.055,0.031-0.065,0.047s-0.031,0.04-0.062,0.071
		l-0.015,0.024c-0.01,0.016-0.019,0.032-0.025,0.048s-0.014,0.032-0.023,0.05c-0.009,0.018-0.013,0.031-0.013,0.04
		c0,0.009,0.004,0.013,0.011,0.011c-0.143,0.042-0.255,0.089-0.336,0.141c-0.025,0.019-0.057,0.035-0.097,0.048
		c-0.04,0.013-0.073,0.026-0.101,0.039c-0.027,0.012-0.052,0.032-0.073,0.06s-0.036,0.063-0.045,0.107
		c-0.007,0.037,0.002,0.072,0.027,0.106c0.025,0.034,0.04,0.058,0.044,0.071c-0.046,0.016-0.072-0.01-0.078-0.078
		s-0.029-0.1-0.069-0.095c-0.031-0.004-0.061,0.012-0.09,0.05s-0.049,0.071-0.06,0.099c-0.011,0.029-0.024,0.067-0.038,0.114
		c-0.015,0.047-0.025,0.077-0.031,0.088c-0.006,0.012-0.017,0.039-0.032,0.081c-0.015,0.042-0.023,0.072-0.023,0.09
		c-0.001,0.025,0.003,0.056,0.013,0.093c0.01,0.037,0.016,0.064,0.016,0.082c-0.021-0.003-0.056,0.013-0.105,0.047
		c-0.049,0.035-0.078,0.047-0.087,0.039c0.038,0.021,0.099,0.064,0.182,0.129c0.083,0.065,0.15,0.11,0.202,0.135
		c0.123,0.061,0.167,0.158,0.133,0.292c-0.045,0.193-0.05,0.316-0.015,0.37c0.047,0.083,0.112,0.095,0.195,0.036
		c0.021,0.021,0.033,0.069,0.038,0.144c0.005,0.075,0.021,0.123,0.049,0.142C34.913,32.222,34.941,32.241,34.979,32.262z"/>
</g>
<line fill="none" stroke="#3D3588" stroke-miterlimit="10" stroke-dasharray="2" x1="42.45" y1="40.051" x2="46.732" y2="44.333"/>
<line fill="none" stroke="#3D3588" stroke-miterlimit="10" stroke-dasharray="2" x1="56.881" y1="55.399" x2="62.234" y2="60.752"/>
</svg>
