<?xml version="1.0" encoding="utf-8"?>
<!-- Generator: Adobe Illustrator 17.0.0, SVG Export Plug-In . SVG Version: 6.00 Build 0)  -->
<!DOCTYPE svg PUBLIC "-//W3C//DTD SVG 1.1//EN" "http://www.w3.org/Graphics/SVG/1.1/DTD/svg11.dtd">
<svg version="1.1" id="图层_1" xmlns="http://www.w3.org/2000/svg" xmlns:xlink="http://www.w3.org/1999/xlink" x="0px" y="0px"
	 width="62.387px" height="62.387px" viewBox="0 0 62.387 62.387" enable-background="new 0 0 62.387 62.387" xml:space="preserve">
<circle fill="#FFFFFF" stroke="#3D3588" stroke-miterlimit="10" cx="31.245" cy="31.465" r="28.961"/>
<g>
	<g>
		<path fill="#F4F4F4" d="M44.095,23.294c0.693,0.347,0.693,0.909,0,1.255l-11.881,5.94c-0.693,0.347-1.817,0.347-2.51,0
			l-11.881-5.94c-0.693-0.347-0.693-0.909,0-1.255l11.881-5.94c0.693-0.347,1.817-0.347,2.51,0L44.095,23.294z"/>
		<path fill="none" stroke="#3D3588" stroke-miterlimit="10" stroke-dasharray="2.057,2.057" d="M44.095,23.294
			c0.693,0.347,0.693,0.909,0,1.255l-11.881,5.94c-0.693,0.347-1.817,0.347-2.51,0l-11.881-5.94c-0.693-0.347-0.693-0.909,0-1.255
			l11.881-5.94c0.693-0.347,1.817-0.347,2.51,0L44.095,23.294z"/>
	</g>
	<g>
		<g>
			<line fill="none" stroke="#3D3588" stroke-miterlimit="10" x1="17.396" y1="45.88" x2="17.396" y2="44.88"/>
			
				<line fill="none" stroke="#3D3588" stroke-miterlimit="10" stroke-dasharray="2.1674,2.1674" x1="17.396" y1="42.713" x2="17.396" y2="26.458"/>
			<line fill="none" stroke="#3D3588" stroke-miterlimit="10" x1="17.396" y1="25.374" x2="17.396" y2="24.374"/>
		</g>
	</g>
	<g>
		<g>
			<line fill="none" stroke="#3D3588" stroke-miterlimit="10" x1="44.615" y1="45.451" x2="44.615" y2="44.451"/>
			
				<line fill="none" stroke="#3D3588" stroke-miterlimit="10" stroke-dasharray="2.1674,2.1674" x1="44.615" y1="42.284" x2="44.615" y2="26.028"/>
			<line fill="none" stroke="#3D3588" stroke-miterlimit="10" x1="44.615" y1="24.945" x2="44.615" y2="23.945"/>
		</g>
	</g>
	<g>
		<g>
			<line fill="none" stroke="#3D3588" stroke-miterlimit="10" x1="30.959" y1="30.126" x2="30.959" y2="31.126"/>
			
				<line fill="none" stroke="#3D3588" stroke-miterlimit="10" stroke-dasharray="1.835,1.835" x1="30.959" y1="32.961" x2="30.959" y2="50.394"/>
			<line fill="none" stroke="#3D3588" stroke-miterlimit="10" x1="30.959" y1="51.312" x2="30.959" y2="52.312"/>
		</g>
	</g>
	<g>
		<path fill="none" stroke="#3D3588" stroke-miterlimit="10" stroke-dasharray="2.057,2.057" d="M44.095,44.823
			c0.693,0.347,0.693,0.909,0,1.255l-11.881,5.94c-0.693,0.347-1.817,0.347-2.51,0l-11.881-5.94c-0.693-0.347-0.693-0.909,0-1.255
			l11.881-5.94c0.693-0.347,1.817-0.347,2.51,0L44.095,44.823z"/>
	</g>
	<path fill="#FFFFFF" stroke="#3D3588" stroke-miterlimit="10" d="M44.095,18.465c0.693,0.347,0.693,0.909,0,1.255l-11.881,5.94
		c-0.693,0.347-1.817,0.347-2.51,0l-11.881-5.94c-0.693-0.347-0.693-0.909,0-1.255l11.881-5.94c0.693-0.347,1.817-0.347,2.51,0
		L44.095,18.465z"/>
	<ellipse fill="none" stroke="#3D3588" stroke-miterlimit="10" cx="24.141" cy="18.807" rx="1.849" ry="1.167"/>
	<ellipse fill="none" stroke="#3D3588" stroke-miterlimit="10" cx="29.192" cy="21.115" rx="1.849" ry="1.167"/>
</g>
</svg>
