<?xml version="1.0" encoding="utf-8"?>
<!-- Generator: Adobe Illustrator 17.0.0, SVG Export Plug-In . SVG Version: 6.00 Build 0)  -->
<!DOCTYPE svg PUBLIC "-//W3C//DTD SVG 1.1//EN" "http://www.w3.org/Graphics/SVG/1.1/DTD/svg11.dtd">
<svg version="1.1" id="图层_1" xmlns="http://www.w3.org/2000/svg" xmlns:xlink="http://www.w3.org/1999/xlink" x="0px" y="0px"
	 width="62.387px" height="62.387px" viewBox="0 0 62.387 62.387" enable-background="new 0 0 62.387 62.387" xml:space="preserve">
<rect x="34.368" y="4.855" fill="#FFFFFF" stroke="#3D3588" stroke-miterlimit="10" width="6.47" height="5.552"/>
<rect x="19.734" y="4.855" fill="#FFFFFF" stroke="#3D3588" stroke-miterlimit="10" width="6.47" height="5.552"/>
<path fill="#FFFFFF" stroke="#383380" stroke-miterlimit="10" d="M55.498,52.697c0,3.414-2.767,6.181-6.181,6.181H12.781
	c-3.414,0-6.181-2.767-6.181-6.181V16.16c0-3.414,2.767-6.181,6.181-6.181h36.536c3.414,0,6.181,2.767,6.181,6.181V52.697z"/>
<g>
	<path fill="#FFFFFF" d="M51.528,50.353c0,2.859-2.318,5.177-5.177,5.177H15.747c-2.859,0-5.177-2.318-5.177-5.177V19.75
		c0-2.859,2.318-5.177,5.177-5.177H46.35c2.859,0,5.177,2.318,5.177,5.177V50.353z"/>
	<path fill="none" stroke="#383380" stroke-miterlimit="10" stroke-dasharray="2.9787,2.9787" d="M51.528,50.353
		c0,2.859-2.318,5.177-5.177,5.177H15.747c-2.859,0-5.177-2.318-5.177-5.177V19.75c0-2.859,2.318-5.177,5.177-5.177H46.35
		c2.859,0,5.177,2.318,5.177,5.177V50.353z"/>
</g>
<g>
	<path fill="#FFFFFF" stroke="#3D3588" stroke-miterlimit="10" d="M40.141,29.955c0.486,0.243,0.486,0.636,0,0.879l-8.322,4.161
		c-0.486,0.243-1.273,0.243-1.759,0l-8.322-4.161c-0.486-0.243-0.486-0.636,0-0.879l8.322-4.161c0.486-0.243,1.273-0.243,1.759,0
		L40.141,29.955z"/>
	<path fill="#3D3588" d="M40.285,40.815c-0.005,0.016-0.045,0.077-0.181,0.145l-8.322,4.161c-0.375,0.187-1.089,0.187-1.464,0
		l-8.322-4.161c-0.14-0.07-0.18-0.134-0.182-0.143c0,0,0.001-0.002,0.001-0.002h-0.659v0c0,0.172,0.071,0.496,0.546,0.734
		l8.322,4.161c0.28,0.14,0.644,0.217,1.026,0.217s0.747-0.077,1.026-0.217l8.322-4.161c0.475-0.238,0.546-0.562,0.546-0.734v0
		H40.285z"/>
	<line fill="none" stroke="#3D3588" stroke-miterlimit="10" x1="21.373" y1="41.034" x2="21.373" y2="30.614"/>
	<line fill="none" stroke="#3D3588" stroke-miterlimit="10" x1="40.505" y1="40.826" x2="40.505" y2="30.406"/>
	<line fill="none" stroke="#3D3588" stroke-miterlimit="10" x1="30.939" y1="35.177" x2="30.939" y2="45.927"/>
</g>
</svg>
