<?xml version="1.0" encoding="utf-8"?>
<!-- Generator: Adobe Illustrator 17.0.0, SVG Export Plug-In . SVG Version: 6.00 Build 0)  -->
<!DOCTYPE svg PUBLIC "-//W3C//DTD SVG 1.1//EN" "http://www.w3.org/Graphics/SVG/1.1/DTD/svg11.dtd">
<svg version="1.1" id="图层_1" xmlns="http://www.w3.org/2000/svg" xmlns:xlink="http://www.w3.org/1999/xlink" x="0px" y="0px"
	 width="62.387px" height="62.387px" viewBox="7.078 6.078 62.387 62.387" enable-background="new 7.078 6.078 62.387 62.387"
	 xml:space="preserve">
<path fill="#FFFFFF" stroke="#3D3588" stroke-miterlimit="10" d="M56.957,58.877c0,2.476-2.007,4.483-4.483,4.483H20.457
	c-2.476,0-4.483-2.007-4.483-4.483V17.644c0-2.476,2.007-4.483,4.483-4.483h32.018c2.476,0,4.483,2.007,4.483,4.483V58.877z"/>
<rect x="56.957" y="22.409" fill="#FFFFFF" stroke="#3D3588" stroke-miterlimit="10" width="4.744" height="5.528"/>
<rect x="56.957" y="31.902" fill="#FFFFFF" stroke="#3D3588" stroke-miterlimit="10" width="4.744" height="5.528"/>
<rect x="56.957" y="40.96" fill="#FFFFFF" stroke="#3D3588" stroke-miterlimit="10" width="4.744" height="5.528"/>
<rect x="56.957" y="49.853" fill="#FFFFFF" stroke="#3D3588" stroke-miterlimit="10" width="4.744" height="5.528"/>
<g>
	<rect x="23.189" y="45.864" fill="none" width="26.554" height="14.839"/>
	<path fill="#312F74" d="M27.101,55.274c-0.09,0-0.166-0.032-0.227-0.098c-0.065-0.061-0.098-0.137-0.098-0.227v-7.113
		c0-0.09,0.033-0.165,0.098-0.227c0.064-0.068,0.14-0.101,0.227-0.098l4.292,0.011c0.09,0,0.166,0.032,0.227,0.098
		c0.065,0.064,0.098,0.141,0.098,0.227c0,0.091-0.033,0.168-0.098,0.232c-0.061,0.062-0.137,0.092-0.227,0.092l-3.967-0.011v2.908
		h2.967c0.09,0,0.166,0.032,0.227,0.098c0.064,0.061,0.097,0.137,0.097,0.227s-0.033,0.166-0.097,0.228
		c-0.062,0.064-0.137,0.097-0.227,0.097h-2.967v2.908h3.967c0.09,0,0.166,0.032,0.227,0.097c0.065,0.062,0.098,0.138,0.098,0.228
		s-0.033,0.166-0.098,0.227c-0.061,0.065-0.137,0.098-0.227,0.098H27.101z"/>
	<path fill="#312F74" d="M36.187,55.274c-1.07,0-1.983-0.38-2.74-1.141c-0.76-0.757-1.141-1.67-1.141-2.74
		c0-1.073,0.38-1.989,1.141-2.746c0.757-0.76,1.67-1.14,2.74-1.14c0.883,0,1.672,0.269,2.368,0.805
		c0.072,0.055,0.113,0.126,0.124,0.217c0.011,0.09-0.011,0.169-0.064,0.237c-0.054,0.072-0.126,0.113-0.217,0.125
		c-0.09,0.014-0.169-0.008-0.238-0.065c-0.58-0.443-1.238-0.665-1.973-0.665c-0.89,0-1.65,0.315-2.281,0.946
		c-0.631,0.631-0.946,1.393-0.946,2.286c0,0.89,0.315,1.65,0.946,2.281c0.63,0.63,1.391,0.945,2.281,0.945
		c0.836,0,1.562-0.279,2.178-0.838c0.065-0.061,0.143-0.09,0.232-0.086s0.166,0.04,0.228,0.108c0.061,0.064,0.09,0.142,0.086,0.232
		c-0.003,0.09-0.039,0.165-0.107,0.227C38.065,54.937,37.193,55.274,36.187,55.274z"/>
	<path fill="#312F74" d="M43.403,55.274c-1.07,0-1.983-0.38-2.74-1.141c-0.761-0.757-1.141-1.67-1.141-2.74
		c0-1.073,0.38-1.989,1.141-2.746c0.757-0.76,1.67-1.14,2.74-1.14c0.883,0,1.672,0.269,2.367,0.805
		c0.072,0.055,0.113,0.126,0.124,0.217c0.011,0.09-0.011,0.169-0.064,0.237c-0.054,0.072-0.126,0.113-0.217,0.125
		c-0.09,0.014-0.169-0.008-0.237-0.065c-0.58-0.443-1.238-0.665-1.973-0.665c-0.891,0-1.65,0.315-2.281,0.946
		s-0.945,1.393-0.945,2.286c0,0.89,0.314,1.65,0.945,2.281c0.631,0.63,1.391,0.945,2.281,0.945c0.836,0,1.562-0.279,2.178-0.838
		c0.065-0.061,0.143-0.09,0.232-0.086s0.166,0.04,0.228,0.108c0.061,0.064,0.09,0.142,0.086,0.232
		c-0.003,0.09-0.039,0.165-0.107,0.227C45.28,54.937,44.408,55.274,43.403,55.274z"/>
</g>
<rect x="26.726" y="36.513" fill="#E2E1E1" width="20.162" height="3.429"/>
<rect x="26.726" y="30.188" fill="#E2E1E1" width="20.162" height="3.429"/>
<rect x="26.726" y="23.459" fill="#E2E1E1" width="20.162" height="3.429"/>
</svg>
