<?xml version="1.0" encoding="utf-8"?>
<!-- Generator: Adobe Illustrator 17.0.0, SVG Export Plug-In . SVG Version: 6.00 Build 0)  -->
<!DOCTYPE svg PUBLIC "-//W3C//DTD SVG 1.1//EN" "http://www.w3.org/Graphics/SVG/1.1/DTD/svg11.dtd">
<svg version="1.1" id="图层_1" xmlns="http://www.w3.org/2000/svg" xmlns:xlink="http://www.w3.org/1999/xlink" x="0px" y="0px"
	 width="62.387px" height="62.387px" viewBox="7.078 6.078 62.387 62.387" enable-background="new 7.078 6.078 62.387 62.387"
	 xml:space="preserve">
<path fill="#FFFFFF" stroke="#3D3588" stroke-miterlimit="10" d="M66.722,52.887c0,4.145-3.36,7.504-7.504,7.504H18.631
	c-4.145,0-7.504-3.36-7.504-7.504V22.133c0-4.145,3.36-7.504,7.504-7.504h40.587c4.145,0,7.504,3.36,7.504,7.504V52.887z"/>
<path fill="#F4F4F4" stroke="#3D3588" stroke-miterlimit="10" d="M35.312,43.355c0.548,0.274,0.548,0.718,0,0.992l-9.394,4.697
	c-0.548,0.274-1.437,0.274-1.985,0l-9.394-4.697c-0.548-0.274-0.548-0.718,0-0.992l9.394-4.697c0.548-0.274,1.437-0.274,1.985,0
	L35.312,43.355z"/>
<path fill="#FFFFFF" stroke="#3D3588" stroke-miterlimit="10" d="M35.312,37.722c0.548,0.274,0.548,0.718,0,0.992l-9.394,4.697
	c-0.548,0.274-1.437,0.274-1.985,0l-9.394-4.697c-0.548-0.274-0.548-0.718,0-0.992l9.394-4.697c0.548-0.274,1.437-0.274,1.985,0
	L35.312,37.722z"/>
<path fill="#F4F4F4" stroke="#3D3588" stroke-miterlimit="10" d="M35.312,32.324c0.548,0.274,0.548,0.718,0,0.992l-9.394,4.697
	c-0.548,0.274-1.437,0.274-1.985,0l-9.394-4.697c-0.548-0.274-0.548-0.718,0-0.992l9.394-4.697c0.548-0.274,1.437-0.274,1.985,0
	L35.312,32.324z"/>
<path fill="#F4F4F4" stroke="#3D3588" stroke-miterlimit="10" d="M62.229,43.473c0.548,0.274,0.548,0.718,0,0.992l-9.394,4.697
	c-0.548,0.274-1.437,0.274-1.985,0l-9.394-4.697c-0.548-0.274-0.548-0.718,0-0.992l9.394-4.697c0.548-0.274,1.437-0.274,1.985,0
	L62.229,43.473z"/>
<path fill="#FFFFFF" stroke="#3D3588" stroke-miterlimit="10" d="M62.229,37.839c0.548,0.274,0.548,0.718,0,0.992l-9.394,4.697
	c-0.548,0.274-1.437,0.274-1.985,0l-9.394-4.697c-0.548-0.274-0.548-0.718,0-0.992l9.394-4.697c0.548-0.274,1.437-0.274,1.985,0
	L62.229,37.839z"/>
<path fill="#F4F4F4" stroke="#3D3588" stroke-miterlimit="10" d="M62.229,32.441c0.548,0.274,0.548,0.718,0,0.992l-9.394,4.697
	c-0.548,0.274-1.437,0.274-1.985,0l-9.394-4.697c-0.548-0.274-0.548-0.718,0-0.992l9.394-4.697c0.548-0.274,1.437-0.274,1.985,0
	L62.229,32.441z"/>
<g>
	<g>
		<line fill="none" stroke="#3D3588" stroke-miterlimit="10" x1="40.45" y1="32.507" x2="39.45" y2="32.507"/>
		<line fill="none" stroke="#3D3588" stroke-miterlimit="10" x1="36.454" y1="32.507" x2="35.454" y2="32.507"/>
	</g>
</g>
<g>
	<g>
		<line fill="none" stroke="#3D3588" stroke-miterlimit="10" x1="40.45" y1="38.57" x2="39.45" y2="38.57"/>
		<line fill="none" stroke="#3D3588" stroke-miterlimit="10" x1="36.454" y1="38.57" x2="35.454" y2="38.57"/>
	</g>
</g>
<g>
	<g>
		<line fill="none" stroke="#3D3588" stroke-miterlimit="10" x1="40.45" y1="43.852" x2="39.45" y2="43.852"/>
		<line fill="none" stroke="#3D3588" stroke-miterlimit="10" x1="36.454" y1="43.852" x2="35.454" y2="43.852"/>
	</g>
</g>
</svg>
