<?xml version="1.0" encoding="utf-8"?>
<!-- Generator: Adobe Illustrator 17.0.0, SVG Export Plug-In . SVG Version: 6.00 Build 0)  -->
<!DOCTYPE svg PUBLIC "-//W3C//DTD SVG 1.1//EN" "http://www.w3.org/Graphics/SVG/1.1/DTD/svg11.dtd">
<svg version="1.1" id="图层_1" xmlns="http://www.w3.org/2000/svg" xmlns:xlink="http://www.w3.org/1999/xlink" x="0px" y="0px"
	 width="62.387px" height="62.387px" viewBox="7.078 6.078 62.387 62.387" enable-background="new 7.078 6.078 62.387 62.387"
	 xml:space="preserve">
<g>
	<path fill="#FFFFFF" stroke="#3D3588" stroke-miterlimit="10" d="M62.732,22.678c1.275,0.638,1.275,1.671,0,2.309L40.878,35.914
		c-1.275,0.638-3.343,0.638-4.618,0L14.407,24.987c-1.275-0.638-1.275-1.671,0-2.309L36.26,11.751c1.275-0.638,3.343-0.638,4.618,0
		L62.732,22.678z"/>
	<ellipse fill="#F4F4F4" stroke="#3D3588" stroke-miterlimit="10" cx="21.966" cy="23.541" rx="1.827" ry="1.11"/>
	<ellipse fill="#F4F4F4" stroke="#3D3588" stroke-miterlimit="10" cx="26.724" cy="25.762" rx="1.827" ry="1.11"/>
	<path fill="none" stroke="#3D3588" stroke-miterlimit="10" d="M63.11,51.196c-0.013,0.042-0.119,0.203-0.476,0.382L40.78,62.505
		c-0.984,0.492-2.861,0.492-3.845,0L15.081,51.577c-0.368-0.184-0.472-0.352-0.479-0.375c0-0.001,0.003-0.005,0.003-0.006h-1.731v0
		c0,0.452,0.186,1.303,1.434,1.927L36.162,64.05c0.734,0.368,1.691,0.57,2.695,0.57s1.961-0.202,2.695-0.569l21.854-10.927
		c1.248-0.624,1.434-1.475,1.434-1.927v0H63.11z"/>
	<line fill="none" stroke="#3D3588" stroke-miterlimit="10" x1="13.45" y1="51.772" x2="13.45" y2="24.409"/>
	<line fill="none" stroke="#3D3588" stroke-miterlimit="10" x1="63.689" y1="51.226" x2="63.689" y2="23.863"/>
	<line fill="none" stroke="#3D3588" stroke-miterlimit="10" x1="38.569" y1="36.392" x2="38.569" y2="64.619"/>
</g>
<g>
	<path fill="#1E2972" d="M30.765,44.751c-0.238-0.002-0.472,0.017-0.714-0.004c-0.356-0.032-0.478,0.128-0.546,0.433
		c-0.098,0.437-0.215,0.887-0.445,1.241c-0.972,1.492-3.487,1.547-5.178,0.07c0.226-0.277,0.487-0.537,0.673-0.851
		c0.083-0.141,0.088-0.411-0.007-0.578c-0.077-0.136-0.376-0.289-0.542-0.293c-1.066-0.026-2.131-0.037-3.176,0.012
		c-0.174,0.008-0.388,0.326-0.346,0.511c0.237,1.058,0.533,2.12,0.841,3.179c0.048,0.165,0.252,0.407,0.408,0.467
		c0.154,0.059,0.4-0.012,0.496-0.122c0.23-0.263,0.395-0.582,0.609-0.913c0.28,0.183,0.451,0.298,0.625,0.407
		c3.805,2.391,7.861,0.95,8.002-2.843C31.487,44.854,31.393,44.757,30.765,44.751z"/>
	<path fill="#1E2972" d="M20.362,42.728c0.238,0.002,0.472-0.017,0.714,0.004c0.356,0.032,0.478-0.128,0.546-0.433
		c0.098-0.437,0.215-0.887,0.445-1.241c0.972-1.492,3.487-1.547,5.178-0.07c-0.226,0.277-0.487,0.537-0.673,0.851
		c-0.083,0.141-0.088,0.411,0.007,0.578c0.077,0.136,0.376,0.289,0.542,0.293c1.066,0.026,2.131,0.037,3.176-0.012
		c0.174-0.008,0.388-0.326,0.346-0.511c-0.237-1.058-0.533-2.12-0.841-3.179c-0.048-0.165-0.252-0.407-0.408-0.467
		c-0.154-0.059-0.4,0.012-0.496,0.122c-0.23,0.263-0.395,0.582-0.609,0.913c-0.28-0.183-0.451-0.298-0.625-0.407
		c-3.805-2.391-7.861-0.95-8.002,2.843C19.64,42.625,19.734,42.722,20.362,42.728z"/>
</g>
</svg>
