<?xml version="1.0" encoding="utf-8"?>
<!-- Generator: Adobe Illustrator 17.0.0, SVG Export Plug-In . SVG Version: 6.00 Build 0)  -->
<!DOCTYPE svg PUBLIC "-//W3C//DTD SVG 1.1//EN" "http://www.w3.org/Graphics/SVG/1.1/DTD/svg11.dtd">
<svg version="1.1" id="图层_1" xmlns="http://www.w3.org/2000/svg" xmlns:xlink="http://www.w3.org/1999/xlink" x="0px" y="0px"
	 width="62.387px" height="62.387px" viewBox="7.078 6.078 62.387 62.387" enable-background="new 7.078 6.078 62.387 62.387"
	 xml:space="preserve">
<g>
	<g>
		<path fill="#FFFFFF" d="M65.953,37.153c1.431,0.715,1.431,1.875,0,2.591L41.429,52.006c-1.431,0.715-3.751,0.715-5.182,0
			L11.723,39.744c-1.431-0.715-1.431-1.875,0-2.591l24.524-12.262c1.431-0.715,3.751-0.715,5.182,0L65.953,37.153z"/>
		<path fill="none" stroke="#3D3588" stroke-miterlimit="10" stroke-dasharray="1.9905,1.9905" d="M65.953,37.153
			c1.431,0.715,1.431,1.875,0,2.591L41.429,52.006c-1.431,0.715-3.751,0.715-5.182,0L11.723,39.744
			c-1.431-0.715-1.431-1.875,0-2.591l24.524-12.262c1.431-0.715,3.751-0.715,5.182,0L65.953,37.153z"/>
	</g>
	<g>
		<path fill="none" stroke="#3D3588" stroke-miterlimit="10" stroke-dasharray="1.9905,1.9905" d="M65.953,48.277
			c1.431,0.715,1.431,1.875,0,2.591L41.429,63.13c-1.431,0.715-3.751,0.715-5.182,0L11.723,50.868c-1.431-0.715-1.431-1.875,0-2.591
			l24.524-12.262c1.431-0.715,3.751-0.715,5.182,0L65.953,48.277z"/>
	</g>
	<path fill="#FFFFFF" stroke="#3D3588" stroke-miterlimit="10" d="M65.953,25.606c1.431,0.715,1.431,1.875,0,2.591L41.429,40.459
		c-1.431,0.715-3.751,0.715-5.182,0L11.723,28.197c-1.431-0.715-1.431-1.875,0-2.591l24.524-12.262c1.431-0.715,3.751-0.715,5.182,0
		L65.953,25.606z"/>
</g>
<g>
	<rect x="29.395" y="20.775" fill="none" width="18.886" height="11.944"/>
	<path fill="#383380" d="M37.264,28.218c0-0.346-0.122-0.613-0.365-0.8c-0.243-0.188-0.682-0.376-1.316-0.568
		c-0.634-0.191-1.139-0.403-1.514-0.638c-0.717-0.45-1.076-1.038-1.076-1.762c0-0.634,0.259-1.157,0.776-1.568
		c0.517-0.411,1.188-0.616,2.013-0.616c0.548,0,1.036,0.101,1.465,0.302c0.429,0.202,0.766,0.489,1.011,0.862
		s0.368,0.787,0.368,1.24h-1.363c0-0.407-0.129-0.726-0.386-0.957c-0.258-0.23-0.626-0.346-1.105-0.346
		c-0.447,0-0.794,0.095-1.041,0.285c-0.247,0.19-0.37,0.456-0.37,0.796c0,0.288,0.133,0.527,0.4,0.719
		c0.267,0.192,0.706,0.379,1.319,0.56c0.612,0.181,1.104,0.388,1.476,0.62s0.643,0.5,0.816,0.8c0.174,0.301,0.26,0.653,0.26,1.057
		c0,0.656-0.251,1.177-0.754,1.564c-0.502,0.388-1.185,0.581-2.045,0.581c-0.569,0-1.093-0.105-1.57-0.316s-0.849-0.502-1.113-0.873
		c-0.265-0.371-0.397-0.803-0.397-1.297h1.368c0,0.447,0.147,0.793,0.443,1.038s0.719,0.368,1.271,0.368
		c0.476,0,0.833-0.097,1.073-0.29C37.145,28.79,37.264,28.535,37.264,28.218z"/>
	<path fill="#383380" d="M41.14,25.71h0.8c0.404-0.004,0.724-0.108,0.96-0.313c0.235-0.206,0.354-0.503,0.354-0.892
		c0-0.375-0.098-0.666-0.294-0.873c-0.196-0.208-0.497-0.311-0.9-0.311c-0.353,0-0.643,0.102-0.87,0.305
		c-0.227,0.204-0.341,0.47-0.341,0.797h-1.313c0-0.403,0.107-0.771,0.322-1.103c0.214-0.332,0.514-0.59,0.897-0.775
		s0.813-0.278,1.289-0.278c0.785,0,1.402,0.197,1.851,0.592c0.449,0.395,0.673,0.943,0.673,1.646c0,0.354-0.112,0.686-0.338,0.998
		c-0.225,0.312-0.516,0.546-0.872,0.705c0.432,0.148,0.761,0.38,0.986,0.697c0.225,0.317,0.338,0.695,0.338,1.135
		c0,0.706-0.243,1.268-0.728,1.686s-1.121,0.627-1.91,0.627c-0.757,0-1.377-0.202-1.859-0.605c-0.483-0.404-0.725-0.94-0.725-1.611
		h1.313c0,0.346,0.116,0.627,0.349,0.843s0.545,0.324,0.938,0.324c0.407,0,0.728-0.108,0.962-0.324s0.352-0.53,0.352-0.94
		c0-0.415-0.122-0.733-0.367-0.957c-0.245-0.223-0.609-0.335-1.092-0.335H41.14V25.71z"/>
</g>
</svg>
