<?xml version="1.0" encoding="utf-8"?>
<!-- Generator: Adobe Illustrator 17.0.0, SVG Export Plug-In . SVG Version: 6.00 Build 0)  -->
<!DOCTYPE svg PUBLIC "-//W3C//DTD SVG 1.1//EN" "http://www.w3.org/Graphics/SVG/1.1/DTD/svg11.dtd">
<svg version="1.1" id="图层_1" xmlns="http://www.w3.org/2000/svg" xmlns:xlink="http://www.w3.org/1999/xlink" x="0px" y="0px"
	 width="62.387px" height="62.387px" viewBox="0 0 62.387 62.387" enable-background="new 0 0 62.387 62.387" xml:space="preserve">
<circle fill="#FFFFFF" stroke="#3D3588" stroke-miterlimit="10" cx="31.336" cy="31.02" r="26.958"/>
<circle fill="#F4F4F4" stroke="#3D3588" stroke-miterlimit="10" stroke-dasharray="2" cx="31.336" cy="31.087" r="21.233"/>
<g>
	<path fill="#312F74" d="M35.332,32.9v-5.962h-4.173V37.53c0.739-0.391,1.4-0.817,1.984-1.276
		C34.602,35.111,35.332,33.993,35.332,32.9z M37.12,25.747V32.9c0,0.534-0.104,1.063-0.312,1.588
		c-0.208,0.525-0.466,0.99-0.773,1.397c-0.307,0.407-0.674,0.803-1.099,1.188s-0.818,0.705-1.178,0.959
		c-0.36,0.255-0.736,0.495-1.127,0.722s-0.669,0.38-0.834,0.461c-0.165,0.081-0.297,0.143-0.396,0.186
		c-0.075,0.037-0.155,0.056-0.242,0.056s-0.168-0.019-0.242-0.056c-0.099-0.043-0.231-0.106-0.396-0.186
		c-0.165-0.081-0.442-0.234-0.834-0.461s-0.767-0.467-1.127-0.722s-0.753-0.574-1.178-0.959s-0.792-0.781-1.099-1.188
		c-0.307-0.407-0.565-0.872-0.773-1.397c-0.208-0.525-0.312-1.054-0.312-1.588v-7.154c0-0.161,0.059-0.301,0.177-0.419
		c0.118-0.118,0.258-0.177,0.419-0.177h10.731c0.161,0,0.301,0.059,0.419,0.177C37.061,25.445,37.12,25.585,37.12,25.747z"/>
</g>
</svg>
