<?xml version="1.0" encoding="utf-8"?>
<!-- Generator: Adobe Illustrator 17.0.0, SVG Export Plug-In . SVG Version: 6.00 Build 0)  -->
<!DOCTYPE svg PUBLIC "-//W3C//DTD SVG 1.1//EN" "http://www.w3.org/Graphics/SVG/1.1/DTD/svg11.dtd">
<svg version="1.1" id="图层_1" xmlns="http://www.w3.org/2000/svg" xmlns:xlink="http://www.w3.org/1999/xlink" x="0px" y="0px"
	 width="62.387px" height="62.387px" viewBox="0 0 62.387 62.387" enable-background="new 0 0 62.387 62.387" xml:space="preserve">
<g>
	<path fill="#FFFFFF" stroke="#3D3588" stroke-miterlimit="10" d="M34.465,5.125c0.702-1.404,1.84-1.404,2.542,0L49.04,29.19
		c0.702,1.404,0.702,3.681,0,5.085L37.008,58.341c-0.702,1.404-1.84,1.404-2.542,0L22.432,34.275c-0.702-1.404-0.702-3.681,0-5.085
		L34.465,5.125z"/>
	<g>
		<path fill="#FFFFFF" d="M27.975,5.053c0.702-1.404,1.84-1.404,2.543,0l12.033,24.065c0.702,1.404,0.702,3.681,0,5.085
			L30.518,58.269c-0.702,1.404-1.84,1.404-2.543,0L15.943,34.204c-0.702-1.404-0.702-3.681,0-5.085L27.975,5.053z"/>
		<path fill="none" stroke="#3D3588" stroke-miterlimit="10" stroke-dasharray="2.0163,2.0163" d="M27.975,5.053
			c0.702-1.404,1.84-1.404,2.543,0l12.033,24.065c0.702,1.404,0.702,3.681,0,5.085L30.518,58.269c-0.702,1.404-1.84,1.404-2.543,0
			L15.943,34.204c-0.702-1.404-0.702-3.681,0-5.085L27.975,5.053z"/>
	</g>
	<path fill="#FFFFFF" stroke="#3D3588" stroke-miterlimit="10" d="M21.299,5.053c0.702-1.404,1.84-1.404,2.543,0l12.033,24.065
		c0.702,1.404,0.702,3.681,0,5.085L23.842,58.269c-0.702,1.404-1.84,1.404-2.543,0L9.267,34.204c-0.702-1.404-0.702-3.681,0-5.085
		L21.299,5.053z"/>
	<g>
		<g>
			<line fill="none" stroke="#3D3588" stroke-miterlimit="10" x1="4.22" y1="30.957" x2="5.22" y2="30.957"/>
			
				<line fill="none" stroke="#3D3588" stroke-miterlimit="10" stroke-dasharray="1.9868,1.9868" x1="7.207" y1="30.957" x2="18.134" y2="30.957"/>
			<line fill="none" stroke="#3D3588" stroke-miterlimit="10" x1="19.127" y1="30.957" x2="20.127" y2="30.957"/>
		</g>
	</g>
	<g>
		<g>
			<line fill="none" stroke="#3D3588" stroke-miterlimit="10" x1="4.22" y1="40.389" x2="5.22" y2="40.389"/>
			
				<line fill="none" stroke="#3D3588" stroke-miterlimit="10" stroke-dasharray="2.054,2.054" x1="7.274" y1="40.389" x2="18.571" y2="40.389"/>
			<line fill="none" stroke="#3D3588" stroke-miterlimit="10" x1="19.598" y1="40.389" x2="20.598" y2="40.389"/>
		</g>
	</g>
	<g>
		<g>
			<line fill="none" stroke="#3D3588" stroke-miterlimit="10" x1="4" y1="22.621" x2="5" y2="22.621"/>
			
				<line fill="none" stroke="#3D3588" stroke-miterlimit="10" stroke-dasharray="2.054,2.054" x1="7.054" y1="22.621" x2="18.351" y2="22.621"/>
			<line fill="none" stroke="#3D3588" stroke-miterlimit="10" x1="19.378" y1="22.621" x2="20.378" y2="22.621"/>
		</g>
	</g>
	<g>
		<g>
			<line fill="none" stroke="#3D3588" stroke-miterlimit="10" x1="50.792" y1="31.112" x2="51.792" y2="31.112"/>
			
				<line fill="none" stroke="#3D3588" stroke-miterlimit="10" stroke-dasharray="2.0025,2.0025" x1="53.794" y1="31.112" x2="56.798" y2="31.112"/>
			<line fill="none" stroke="#3D3588" stroke-miterlimit="10" x1="57.799" y1="31.112" x2="58.799" y2="31.112"/>
		</g>
	</g>
	<g>
		<g>
			<line fill="none" stroke="#3D3588" stroke-miterlimit="10" x1="46.641" y1="40.545" x2="47.641" y2="40.545"/>
			
				<line fill="none" stroke="#3D3588" stroke-miterlimit="10" stroke-dasharray="2.0814,2.0814" x1="49.722" y1="40.545" x2="52.845" y2="40.545"/>
			<line fill="none" stroke="#3D3588" stroke-miterlimit="10" x1="53.885" y1="40.545" x2="54.885" y2="40.545"/>
		</g>
	</g>
	<g>
		<g>
			<line fill="none" stroke="#3D3588" stroke-miterlimit="10" x1="47.306" y1="22.777" x2="48.306" y2="22.777"/>
			
				<line fill="none" stroke="#3D3588" stroke-miterlimit="10" stroke-dasharray="2.0814,2.0814" x1="50.388" y1="22.777" x2="53.51" y2="22.777"/>
			<line fill="none" stroke="#3D3588" stroke-miterlimit="10" x1="54.55" y1="22.777" x2="55.55" y2="22.777"/>
		</g>
	</g>
</g>
</svg>
