<?xml version="1.0" encoding="utf-8"?>
<!-- Generator: Adobe Illustrator 17.0.0, SVG Export Plug-In . SVG Version: 6.00 Build 0)  -->
<!DOCTYPE svg PUBLIC "-//W3C//DTD SVG 1.1//EN" "http://www.w3.org/Graphics/SVG/1.1/DTD/svg11.dtd">
<svg version="1.1" id="图层_1" xmlns="http://www.w3.org/2000/svg" xmlns:xlink="http://www.w3.org/1999/xlink" x="0px" y="0px"
	 width="62.387px" height="62.387px" viewBox="7.078 6.078 62.387 62.387" enable-background="new 7.078 6.078 62.387 62.387"
	 xml:space="preserve">
<g>
	<path fill="#FFFFFF" stroke="#3D3588" stroke-miterlimit="10" d="M50.534,42.108c0.655,0.328,0.655,0.859,0,1.186l-11.23,5.615
		c-0.655,0.328-1.718,0.328-2.373,0l-11.23-5.615c-0.655-0.328-0.655-0.859,0-1.186l11.23-5.615c0.655-0.328,1.718-0.328,2.373,0
		L50.534,42.108z"/>
	<path fill="#3D3588" d="M50.728,56.763c-0.007,0.021-0.061,0.104-0.245,0.196l-11.23,5.615c-0.506,0.253-1.47,0.253-1.976,0
		l-11.23-5.615c-0.189-0.095-0.242-0.181-0.246-0.193c0-0.001,0.001-0.002,0.002-0.003h-0.889v0c0,0.232,0.096,0.67,0.737,0.99
		l11.23,5.615c0.377,0.189,0.869,0.293,1.385,0.293c0.516,0,1.008-0.104,1.385-0.293l11.23-5.615
		c0.641-0.321,0.737-0.758,0.737-0.99v0H50.728z"/>
	<line fill="none" stroke="#3D3588" stroke-miterlimit="10" x1="25.209" y1="57.059" x2="25.209" y2="42.998"/>
	<line fill="none" stroke="#3D3588" stroke-miterlimit="10" x1="51.026" y1="56.778" x2="51.026" y2="42.717"/>
	<line fill="none" stroke="#3D3588" stroke-miterlimit="10" x1="38.117" y1="49.156" x2="38.117" y2="63.661"/>
</g>
<g>
	<path fill="#F4F4F4" stroke="#3D3588" stroke-miterlimit="10" d="M24.611,25.514c0.362,0.181,0.362,0.474,0,0.655l-6.2,3.1
		c-0.362,0.181-0.948,0.181-1.31,0l-6.2-3.1c-0.362-0.181-0.362-0.474,0-0.655l6.2-3.1c0.362-0.181,0.948-0.181,1.31,0
		L24.611,25.514z"/>
	<path fill="#3D3588" d="M24.718,33.604c-0.004,0.012-0.034,0.058-0.135,0.108l-6.2,3.1c-0.279,0.139-0.812,0.14-1.091,0l-6.2-3.1
		c-0.104-0.052-0.134-0.1-0.136-0.107c0,0,0.001-0.001,0.001-0.002h-0.491v0c0,0.128,0.053,0.37,0.407,0.547l6.2,3.1
		c0.208,0.104,0.48,0.162,0.765,0.162c0.285,0,0.556-0.057,0.765-0.162l6.2-3.1c0.354-0.177,0.407-0.418,0.407-0.547v0H24.718z"/>
	<line fill="none" stroke="#3D3588" stroke-miterlimit="10" x1="10.631" y1="33.768" x2="10.631" y2="26.005"/>
	<line fill="none" stroke="#3D3588" stroke-miterlimit="10" x1="24.882" y1="33.613" x2="24.882" y2="25.85"/>
	<line fill="none" stroke="#3D3588" stroke-miterlimit="10" x1="17.757" y1="29.405" x2="17.757" y2="37.413"/>
</g>
<g>
	<path fill="#F4F4F4" stroke="#3D3588" stroke-miterlimit="10" d="M65.17,25.074c0.362,0.181,0.362,0.474,0,0.655l-6.2,3.1
		c-0.362,0.181-0.948,0.181-1.31,0l-6.2-3.1c-0.362-0.181-0.362-0.474,0-0.655l6.2-3.1c0.362-0.181,0.948-0.181,1.31,0L65.17,25.074
		z"/>
	<path fill="#3D3588" d="M65.277,33.164c-0.004,0.012-0.034,0.058-0.135,0.108l-6.2,3.1c-0.279,0.139-0.812,0.14-1.091,0l-6.2-3.1
		c-0.104-0.052-0.134-0.1-0.136-0.107l0.001-0.002h-0.491v0c0,0.128,0.053,0.37,0.407,0.547l6.2,3.1
		c0.208,0.104,0.48,0.162,0.765,0.162s0.556-0.057,0.765-0.162l6.2-3.1c0.354-0.177,0.407-0.418,0.407-0.547v0H65.277z"/>
	<line fill="none" stroke="#3D3588" stroke-miterlimit="10" x1="51.189" y1="33.327" x2="51.189" y2="25.565"/>
	<line fill="none" stroke="#3D3588" stroke-miterlimit="10" x1="65.441" y1="33.172" x2="65.441" y2="25.41"/>
	<line fill="none" stroke="#3D3588" stroke-miterlimit="10" x1="58.315" y1="28.964" x2="58.315" y2="36.972"/>
</g>
<g>
	<rect x="22.981" y="11.234" fill="none" width="29.551" height="16.514"/>
	<path fill="#312F74" d="M27.364,16.209c0.554,0,1.026,0.194,1.418,0.583c0.389,0.392,0.583,0.865,0.583,1.418
		c0,0.55-0.194,1.021-0.583,1.413c-0.392,0.392-0.864,0.588-1.418,0.588c-0.55,0-1.021-0.196-1.413-0.588
		c-0.392-0.392-0.588-0.863-0.588-1.413c0-0.213,0.035-0.424,0.104-0.634c0.003-0.014,0.005-0.017,0.005-0.01l1.604-4.532
		c0.027-0.083,0.081-0.141,0.16-0.175c0.076-0.038,0.153-0.043,0.232-0.016c0.079,0.027,0.137,0.081,0.175,0.16
		c0.038,0.076,0.041,0.153,0.01,0.232l-1.114,3.156C26.804,16.269,27.079,16.209,27.364,16.209z M27.364,19.596
		c0.382,0,0.708-0.136,0.98-0.407c0.271-0.271,0.407-0.598,0.407-0.979s-0.136-0.708-0.407-0.979
		c-0.272-0.271-0.598-0.407-0.98-0.407c-0.381,0-0.708,0.136-0.979,0.407s-0.407,0.598-0.407,0.979s0.136,0.708,0.407,0.979
		S26.983,19.596,27.364,19.596z"/>
	<path fill="#312F74" d="M33.995,18.075h-2.908c-0.124,0-0.215-0.055-0.273-0.165c-0.055-0.11-0.048-0.217,0.021-0.32l3.212-4.625
		c0.086-0.124,0.201-0.163,0.346-0.119c0.144,0.045,0.216,0.143,0.216,0.294V19.9c0,0.086-0.029,0.16-0.087,0.222
		c-0.062,0.059-0.136,0.088-0.222,0.088c-0.083,0-0.155-0.029-0.217-0.088c-0.059-0.062-0.087-0.136-0.087-0.222V18.075z
		 M33.995,17.462v-3.336l-2.32,3.336H33.995z"/>
	<path fill="#312F74" d="M36.923,19.9c0,0.086-0.029,0.16-0.087,0.222c-0.062,0.059-0.134,0.088-0.217,0.088
		c-0.086,0-0.16-0.029-0.222-0.088C36.34,20.06,36.31,19.986,36.31,19.9v-6.759c0-0.154,0.076-0.252,0.227-0.294
		c0.148-0.041,0.263,0.005,0.346,0.14l3.073,5.078l3.072-5.078c0.084-0.134,0.199-0.181,0.346-0.14
		c0.152,0.042,0.227,0.14,0.227,0.294V19.9c0,0.086-0.029,0.16-0.092,0.222c-0.059,0.059-0.131,0.088-0.217,0.088
		c-0.082,0-0.154-0.029-0.217-0.088c-0.059-0.062-0.088-0.136-0.088-0.222v-5.656l-2.768,4.573l-0.006,0.005v0.005
		c-0.008,0.007-0.014,0.016-0.021,0.026c-0.01,0.01-0.016,0.017-0.02,0.021c-0.008,0.007-0.014,0.014-0.021,0.021
		c-0.01,0.007-0.018,0.014-0.025,0.021c-0.018,0.01-0.02,0.012-0.01,0.005c0.004-0.003-0.002-0.001-0.016,0.005
		c-0.01,0.007-0.021,0.012-0.031,0.015c-0.006,0.004-0.016,0.007-0.025,0.011s-0.021,0.005-0.031,0.005
		c-0.006,0.003-0.016,0.005-0.025,0.005c-0.01,0.003-0.021,0.005-0.031,0.005s-0.021-0.001-0.031-0.005
		c-0.01,0-0.018-0.002-0.025-0.005c-0.01,0-0.021-0.001-0.031-0.005s-0.02-0.007-0.025-0.011c-0.01-0.003-0.021-0.008-0.031-0.015
		c-0.004,0-0.006,0-0.01,0c0-0.003-0.002-0.005-0.006-0.005c0.01,0.007,0.008,0.005-0.01-0.005
		c-0.008-0.007-0.016-0.014-0.025-0.021c-0.008-0.007-0.014-0.014-0.021-0.021c-0.006-0.007-0.014-0.014-0.02-0.021
		c-0.008-0.01-0.014-0.019-0.021-0.026v-0.005l-0.006-0.005l-2.768-4.573V19.9z"/>
	<path fill="#312F74" d="M45.533,20.21c-0.086,0-0.158-0.031-0.216-0.093c-0.063-0.059-0.093-0.131-0.093-0.217v-6.77
		c0-0.086,0.028-0.158,0.087-0.216c0.063-0.062,0.136-0.093,0.222-0.093l2.377-0.01c0.608,0,1.122,0.19,1.542,0.572
		c0.419,0.385,0.629,0.854,0.629,1.407c0,0.344-0.086,0.665-0.258,0.964c-0.165,0.292-0.394,0.531-0.686,0.717
		c0.333,0.172,0.596,0.409,0.789,0.711c0.195,0.309,0.294,0.648,0.294,1.016c0,0.553-0.214,1.026-0.64,1.418
		c-0.423,0.395-0.936,0.593-1.536,0.593H45.533z M45.843,16.219l2.067-0.005c0.43,0,0.796-0.139,1.099-0.418
		c0.303-0.278,0.453-0.613,0.453-1.005c0-0.381-0.149-0.705-0.448-0.969c-0.299-0.261-0.667-0.392-1.104-0.392l-2.067,0.01V16.219z
		 M45.843,19.591h2.202c0.43,0,0.797-0.136,1.103-0.407c0.303-0.271,0.454-0.6,0.454-0.985s-0.149-0.708-0.448-0.969
		c-0.3-0.265-0.665-0.397-1.099-0.397c-0.014,0-0.027,0-0.041,0c-0.031,0-0.065,0-0.104,0h-2.067V19.591z"/>
</g>
</svg>
