<?xml version="1.0" encoding="utf-8"?>
<!-- Generator: Adobe Illustrator 17.0.0, SVG Export Plug-In . SVG Version: 6.00 Build 0)  -->
<!DOCTYPE svg PUBLIC "-//W3C//DTD SVG 1.1//EN" "http://www.w3.org/Graphics/SVG/1.1/DTD/svg11.dtd">
<svg version="1.1" id="图层_1" xmlns="http://www.w3.org/2000/svg" xmlns:xlink="http://www.w3.org/1999/xlink" x="0px" y="0px"
	 width="62.387px" height="62.387px" viewBox="7.078 6.078 62.387 62.387" enable-background="new 7.078 6.078 62.387 62.387"
	 xml:space="preserve">
<path fill="#FFFFFF" stroke="#3D3588" stroke-miterlimit="10" d="M65.83,47.341c1.431,0.715,1.431,1.875,0,2.591L41.306,62.194
	c-1.431,0.715-3.751,0.715-5.182,0L11.6,49.932c-1.431-0.715-1.431-1.875,0-2.591l24.524-12.262c1.431-0.715,3.751-0.715,5.182,0
	L65.83,47.341z"/>
<path fill="#FFFFFF" stroke="#3D3588" stroke-miterlimit="10" d="M65.83,25.824c1.431,0.715,1.431,1.875,0,2.591L41.306,40.677
	c-1.431,0.715-3.751,0.715-5.182,0L11.6,28.415c-1.431-0.715-1.431-1.875,0-2.591l24.524-12.262c1.431-0.715,3.751-0.715,5.182,0
	L65.83,25.824z"/>
<g>
	<path fill="#383380" d="M47.26,28.285c0,0.023-0.004,0.04-0.012,0.049c-0.503,1.254-1.556,2.271-3.159,3.05
		s-3.481,1.169-5.634,1.169c-1.147,0-2.257-0.129-3.33-0.386c-1.073-0.257-2.029-0.625-2.87-1.102l-1.52,0.905
		c-0.149,0.089-0.326,0.133-0.53,0.133c-0.204,0-0.381-0.044-0.53-0.133c-0.149-0.089-0.224-0.194-0.224-0.316v-3.144
		c0-0.122,0.075-0.227,0.224-0.316c0.149-0.089,0.326-0.133,0.53-0.133h5.28c0.204,0,0.381,0.044,0.53,0.133
		c0.149,0.089,0.224,0.194,0.224,0.316c0,0.122-0.075,0.227-0.224,0.316l-1.615,0.962c0.558,0.309,1.19,0.547,1.898,0.716
		s1.442,0.253,2.204,0.253c1.053,0,2.035-0.152,2.947-0.456c0.911-0.304,1.642-0.723,2.192-1.256
		c0.086-0.08,0.295-0.353,0.625-0.821c0.063-0.108,0.181-0.161,0.354-0.161h2.263c0.102,0,0.191,0.022,0.265,0.067
		C47.223,28.171,47.26,28.224,47.26,28.285z M47.555,22.67v3.144c0,0.122-0.075,0.227-0.224,0.316
		c-0.149,0.089-0.326,0.133-0.53,0.133h-5.28c-0.204,0-0.381-0.044-0.53-0.133c-0.149-0.089-0.224-0.194-0.224-0.316
		c0-0.122,0.075-0.227,0.224-0.316l1.627-0.969c-1.163-0.641-2.534-0.962-4.113-0.962c-1.053,0-2.035,0.152-2.947,0.456
		c-0.911,0.304-1.642,0.723-2.192,1.256c-0.086,0.08-0.295,0.353-0.625,0.821c-0.063,0.108-0.181,0.161-0.354,0.161h-2.345
		c-0.102,0-0.191-0.022-0.265-0.067s-0.112-0.097-0.112-0.158V25.99c0.511-1.254,1.572-2.271,3.182-3.05
		c1.611-0.779,3.497-1.169,5.657-1.169c1.147,0,2.263,0.13,3.347,0.39s2.047,0.626,2.888,1.098l1.532-0.905
		c0.149-0.089,0.326-0.133,0.53-0.133s0.381,0.044,0.53,0.133C47.48,22.443,47.555,22.548,47.555,22.67z"/>
</g>
<g>
	<path fill="#E1E0E0" d="M47.26,49.875c0,0.023-0.004,0.04-0.012,0.049c-0.503,1.254-1.556,2.271-3.159,3.05
		s-3.481,1.169-5.634,1.169c-1.147,0-2.257-0.129-3.33-0.386c-1.073-0.257-2.029-0.625-2.87-1.102l-1.52,0.905
		c-0.149,0.089-0.326,0.133-0.53,0.133c-0.204,0-0.381-0.044-0.53-0.133c-0.149-0.089-0.224-0.194-0.224-0.316V50.1
		c0-0.122,0.075-0.227,0.224-0.316c0.149-0.089,0.326-0.133,0.53-0.133h5.28c0.204,0,0.381,0.044,0.53,0.133
		c0.149,0.089,0.224,0.194,0.224,0.316s-0.075,0.227-0.224,0.316l-1.615,0.962c0.558,0.309,1.19,0.547,1.898,0.716
		c0.707,0.168,1.442,0.253,2.204,0.253c1.053,0,2.035-0.152,2.947-0.456c0.911-0.304,1.642-0.723,2.192-1.256
		c0.086-0.08,0.295-0.353,0.625-0.821c0.063-0.108,0.181-0.161,0.354-0.161h2.263c0.102,0,0.191,0.022,0.265,0.067
		C47.223,49.762,47.26,49.814,47.26,49.875z M47.555,44.26v3.144c0,0.122-0.075,0.227-0.224,0.316
		c-0.149,0.089-0.326,0.133-0.53,0.133h-5.28c-0.204,0-0.381-0.044-0.53-0.133c-0.149-0.089-0.224-0.194-0.224-0.316
		c0-0.122,0.075-0.227,0.224-0.316l1.627-0.969c-1.163-0.641-2.534-0.962-4.113-0.962c-1.053,0-2.035,0.152-2.947,0.456
		c-0.911,0.304-1.642,0.723-2.192,1.256c-0.086,0.08-0.295,0.353-0.625,0.821c-0.063,0.108-0.181,0.161-0.354,0.161h-2.345
		c-0.102,0-0.191-0.022-0.265-0.067s-0.112-0.097-0.112-0.158V47.58c0.511-1.254,1.572-2.271,3.182-3.05
		c1.611-0.779,3.497-1.169,5.657-1.169c1.147,0,2.263,0.13,3.347,0.39s2.047,0.626,2.888,1.098l1.532-0.905
		c0.149-0.089,0.326-0.133,0.53-0.133s0.381,0.044,0.53,0.133S47.555,44.138,47.555,44.26z"/>
</g>
</svg>
