<?xml version="1.0" encoding="utf-8"?>
<!-- Generator: Adobe Illustrator 17.0.0, SVG Export Plug-In . SVG Version: 6.00 Build 0)  -->
<!DOCTYPE svg PUBLIC "-//W3C//DTD SVG 1.1//EN" "http://www.w3.org/Graphics/SVG/1.1/DTD/svg11.dtd">
<svg version="1.1" id="图层_1" xmlns="http://www.w3.org/2000/svg" xmlns:xlink="http://www.w3.org/1999/xlink" x="0px" y="0px"
	 width="62.387px" height="62.387px" viewBox="7.078 6.078 62.387 62.387" enable-background="new 7.078 6.078 62.387 62.387"
	 xml:space="preserve">
<path fill="#FFFFFF" stroke="#3D3588" stroke-miterlimit="10" d="M53.101,44.804c0,1.832-1.485,3.317-3.317,3.317H26.092
	c-1.832,0-3.317-1.485-3.317-3.317V14.293c0-1.832,1.485-3.317,3.317-3.317h23.692c1.832,0,3.317,1.485,3.317,3.317V44.804z"/>
<path fill="#FFFFFF" stroke="#3D3588" stroke-miterlimit="10" d="M56.392,53.352c0,2.187-1.773,3.96-3.96,3.96H24.146
	c-2.187,0-3.96-1.773-3.96-3.96V16.925c0-2.187,1.773-3.96,3.96-3.96h28.286c2.187,0,3.96,1.773,3.96,3.96V53.352z"/>
<path fill="#FFFFFF" stroke="#3D3588" stroke-miterlimit="10" d="M61.516,59.662c0,2.414-2.19,4.37-4.892,4.37H21.68
	c-2.702,0-4.892-1.957-4.892-4.37V19.463c0-2.414,2.19-4.37,4.892-4.37h34.944c2.702,0,4.892,1.957,4.892,4.37V59.662z"/>
<circle fill="#FFFFFF" stroke="#3D3588" stroke-miterlimit="10" cx="25.439" cy="24.059" r="2.664"/>
<circle fill="#FFFFFF" stroke="#3D3588" stroke-miterlimit="10" cx="33.545" cy="24.059" r="2.664"/>
<rect x="22.542" y="54.294" fill="#E2E1E1" width="32.675" height="3.742"/>
<rect x="22.814" y="47.113" fill="#E2E1E1" width="32.675" height="3.742"/>
<g>
	<rect x="24.662" y="33.191" fill="none" width="28.981" height="16.195"/>
	<path fill="#312F74" d="M32.543,38.666c-0.809-0.01-1.419-0.234-1.83-0.673c-0.331-0.35-0.486-0.756-0.465-1.218
		c0.027-0.57,0.258-1.053,0.693-1.446c0.431-0.395,0.949-0.592,1.552-0.592c0.532,0,1.008,0.111,1.426,0.334
		c0.502,0.263,0.819,0.646,0.951,1.147c0.02,0.081,0.01,0.157-0.031,0.228c-0.043,0.071-0.106,0.116-0.187,0.137
		c-0.081,0.023-0.157,0.014-0.228-0.03c-0.071-0.041-0.116-0.102-0.136-0.183c-0.091-0.35-0.327-0.616-0.708-0.798
		c-0.317-0.156-0.679-0.233-1.087-0.233c-0.442,0-0.821,0.142-1.138,0.425s-0.485,0.631-0.506,1.042
		c-0.013,0.29,0.088,0.548,0.303,0.773c0.293,0.313,0.76,0.476,1.401,0.485c0.084,0.003,0.155,0.034,0.212,0.091
		c0.057,0.061,0.086,0.134,0.086,0.218c-0.003,0.081-0.034,0.149-0.091,0.207c-0.061,0.058-0.131,0.086-0.212,0.086H32.543z
		 M31.208,41.664c-0.502-0.266-0.819-0.65-0.95-1.152c-0.021-0.077-0.01-0.153,0.03-0.228c0.043-0.071,0.106-0.116,0.187-0.137
		c0.078-0.021,0.153-0.01,0.228,0.03c0.071,0.044,0.116,0.104,0.136,0.183c0.091,0.351,0.327,0.618,0.708,0.804
		c0.317,0.151,0.679,0.228,1.087,0.228c0.441,0,0.821-0.142,1.138-0.425c0.316-0.283,0.485-0.629,0.505-1.036
		c0.014-0.294-0.088-0.554-0.303-0.779c-0.293-0.313-0.76-0.476-1.401-0.485c-0.084,0-0.155-0.03-0.212-0.091
		c-0.057-0.061-0.086-0.132-0.086-0.213c0.003-0.084,0.036-0.154,0.096-0.212c0.057-0.058,0.128-0.086,0.212-0.086
		c0.809,0.014,1.419,0.239,1.831,0.678c0.33,0.347,0.483,0.752,0.46,1.213c-0.023,0.57-0.253,1.052-0.688,1.446
		c-0.432,0.395-0.949,0.592-1.552,0.592C32.101,41.993,31.626,41.884,31.208,41.664z"/>
	<path fill="#312F74" d="M38.211,38.666c-0.81-0.01-1.42-0.234-1.831-0.673c-0.331-0.35-0.486-0.756-0.465-1.218
		c0.027-0.57,0.258-1.053,0.692-1.446c0.432-0.395,0.949-0.592,1.553-0.592c0.532,0,1.008,0.111,1.426,0.334
		c0.502,0.263,0.819,0.646,0.95,1.147c0.021,0.081,0.011,0.157-0.03,0.228c-0.044,0.071-0.105,0.116-0.187,0.137
		c-0.081,0.023-0.157,0.014-0.228-0.03c-0.071-0.041-0.116-0.102-0.137-0.183c-0.091-0.35-0.327-0.616-0.708-0.798
		c-0.316-0.156-0.68-0.233-1.087-0.233c-0.441,0-0.821,0.142-1.138,0.425c-0.317,0.283-0.485,0.631-0.506,1.042
		c-0.013,0.29,0.088,0.548,0.304,0.773c0.293,0.313,0.76,0.476,1.4,0.485c0.084,0.003,0.155,0.034,0.212,0.091
		c0.058,0.061,0.086,0.134,0.086,0.218c-0.003,0.081-0.033,0.149-0.091,0.207c-0.061,0.058-0.131,0.086-0.212,0.086H38.211z
		 M36.876,41.664c-0.502-0.266-0.819-0.65-0.951-1.152c-0.021-0.077-0.01-0.153,0.03-0.228c0.043-0.071,0.106-0.116,0.187-0.137
		c0.078-0.021,0.153-0.01,0.228,0.03c0.071,0.044,0.116,0.104,0.136,0.183c0.092,0.351,0.327,0.618,0.709,0.804
		c0.316,0.151,0.679,0.228,1.087,0.228c0.441,0,0.82-0.142,1.138-0.425c0.316-0.283,0.485-0.629,0.506-1.036
		c0.013-0.294-0.088-0.554-0.304-0.779c-0.293-0.313-0.761-0.476-1.4-0.485c-0.085,0-0.155-0.03-0.213-0.091
		s-0.086-0.132-0.086-0.213c0.004-0.084,0.035-0.154,0.097-0.212c0.057-0.058,0.128-0.086,0.212-0.086
		c0.809,0.014,1.419,0.239,1.83,0.678c0.331,0.347,0.484,0.752,0.46,1.213c-0.023,0.57-0.252,1.052-0.688,1.446
		c-0.432,0.395-0.948,0.592-1.552,0.592C37.769,41.993,37.294,41.884,36.876,41.664z"/>
	<path fill="#312F74" d="M42.139,41.993c-0.084,0-0.154-0.028-0.212-0.086c-0.061-0.061-0.091-0.133-0.091-0.218v-6.648
		c0-0.084,0.03-0.157,0.091-0.218c0.058-0.061,0.128-0.091,0.212-0.091h1.685c0.997,0,1.851,0.354,2.559,1.062
		c0.707,0.708,1.062,1.561,1.062,2.559s-0.354,1.851-1.062,2.559c-0.708,0.708-1.562,1.062-2.559,1.062l-1.679,0.021H42.139z
		 M42.443,41.382l1.375-0.021c0.833,0,1.544-0.294,2.134-0.88c0.59-0.59,0.886-1.3,0.886-2.129s-0.296-1.539-0.886-2.129
		c-0.59-0.587-1.299-0.879-2.128-0.879h-1.381V41.382z"/>
</g>
</svg>
