<?xml version="1.0" encoding="utf-8"?>
<!-- Generator: Adobe Illustrator 17.0.0, SVG Export Plug-In . SVG Version: 6.00 Build 0)  -->
<!DOCTYPE svg PUBLIC "-//W3C//DTD SVG 1.1//EN" "http://www.w3.org/Graphics/SVG/1.1/DTD/svg11.dtd">
<svg version="1.1" id="图层_1" xmlns="http://www.w3.org/2000/svg" xmlns:xlink="http://www.w3.org/1999/xlink" x="0px" y="0px"
	 width="62.387px" height="62.387px" viewBox="7.078 6.078 62.387 62.387" enable-background="new 7.078 6.078 62.387 62.387"
	 xml:space="preserve">
<path fill="#FFFFFF" stroke="#3D3588" stroke-miterlimit="10" d="M62.875,23.455c0,2.476-2.007,4.483-4.483,4.483H19.61
	c-2.476,0-4.483-2.007-4.483-4.483v-7.32c0-2.476,2.007-4.483,4.483-4.483h38.782c2.476,0,4.483,2.007,4.483,4.483V23.455z"/>
<path fill="#FFFFFF" stroke="#3D3588" stroke-miterlimit="10" d="M62.83,41.813c0,2.476-2.007,4.483-4.483,4.483H19.566
	c-2.476,0-4.483-2.007-4.483-4.483v-7.32c0-2.476,2.007-4.483,4.483-4.483h38.782c2.476,0,4.483,2.007,4.483,4.483V41.813z"/>
<path fill="#FFFFFF" stroke="#3D3588" stroke-miterlimit="10" d="M62.83,60.152c0,2.476-2.007,4.483-4.483,4.483H19.566
	c-2.476,0-4.483-2.007-4.483-4.483v-7.32c0-2.476,2.007-4.483,4.483-4.483h38.782c2.476,0,4.483,2.007,4.483,4.483V60.152z"/>
<line fill="none" stroke="#E1E0E0" stroke-width="2" stroke-miterlimit="10" stroke-dasharray="4" x1="25.994" y1="18.448" x2="25.994" y2="58.073"/>
<line fill="none" stroke="#E1E0E0" stroke-width="2" stroke-miterlimit="10" stroke-dasharray="4" x1="33.944" y1="18.448" x2="33.944" y2="58.073"/>
<line fill="none" stroke="#E1E0E0" stroke-width="2" stroke-miterlimit="10" stroke-dasharray="4" x1="42.115" y1="18.448" x2="42.115" y2="58.073"/>
<line fill="none" stroke="#E1E0E0" stroke-width="2" stroke-miterlimit="10" stroke-dasharray="4" x1="50.944" y1="18.448" x2="50.944" y2="58.073"/>
<g>
	<path fill="#FFFFFF" stroke="#3D3588" stroke-miterlimit="10" stroke-dasharray="2" d="M47.175,44.962
		c0,1.971-0.641,3.668-1.922,5.091c-1.282,1.423-2.946,2.302-4.994,2.637v3.381c0,0.18-0.058,0.328-0.174,0.444
		s-0.264,0.174-0.444,0.174h-2.608c-0.167,0-0.312-0.061-0.435-0.184c-0.122-0.122-0.184-0.267-0.184-0.435V52.69
		c-0.85-0.116-1.671-0.316-2.463-0.599c-0.792-0.283-1.446-0.57-1.961-0.86s-0.992-0.599-1.43-0.927
		c-0.438-0.328-0.737-0.57-0.898-0.725c-0.161-0.155-0.274-0.27-0.338-0.348c-0.219-0.27-0.232-0.535-0.039-0.792l1.99-2.608
		c0.09-0.129,0.238-0.206,0.444-0.232c0.193-0.026,0.348,0.032,0.464,0.174l0.039,0.039c1.455,1.275,3.02,2.08,4.695,2.415
		c0.477,0.103,0.953,0.155,1.43,0.155c1.043,0,1.961-0.277,2.753-0.831s1.188-1.34,1.188-2.357c0-0.361-0.097-0.702-0.29-1.024
		c-0.193-0.322-0.409-0.592-0.647-0.811c-0.238-0.219-0.615-0.46-1.13-0.725c-0.515-0.264-0.94-0.47-1.275-0.618
		c-0.335-0.148-0.85-0.357-1.546-0.628c-0.502-0.206-0.898-0.367-1.188-0.483s-0.686-0.287-1.188-0.512s-0.905-0.425-1.208-0.599
		c-0.303-0.174-0.667-0.403-1.092-0.686s-0.77-0.557-1.034-0.821s-0.544-0.58-0.84-0.947c-0.296-0.367-0.525-0.741-0.686-1.121
		s-0.296-0.808-0.406-1.285c-0.109-0.477-0.164-0.979-0.164-1.507c0-1.777,0.631-3.336,1.893-4.675s2.904-2.202,4.927-2.589v-3.478
		c0-0.167,0.061-0.312,0.184-0.435s0.267-0.184,0.435-0.184h2.608c0.18,0,0.328,0.058,0.444,0.174s0.174,0.264,0.174,0.444v3.4
		c0.734,0.077,1.446,0.225,2.135,0.444c0.689,0.219,1.249,0.435,1.681,0.647c0.431,0.213,0.84,0.454,1.227,0.725
		c0.386,0.27,0.638,0.457,0.753,0.56s0.213,0.193,0.29,0.27c0.219,0.232,0.251,0.477,0.097,0.734l-1.565,2.821
		c-0.103,0.193-0.251,0.296-0.444,0.309c-0.18,0.039-0.354-0.006-0.522-0.135c-0.039-0.039-0.132-0.116-0.28-0.232
		s-0.399-0.287-0.753-0.512s-0.731-0.431-1.13-0.618c-0.399-0.187-0.879-0.354-1.439-0.502c-0.56-0.148-1.111-0.222-1.652-0.222
		c-1.224,0-2.222,0.277-2.995,0.831S34.5,32.475,34.5,33.351c0,0.335,0.055,0.644,0.164,0.927s0.299,0.551,0.57,0.802
		c0.27,0.251,0.525,0.464,0.763,0.638c0.238,0.174,0.599,0.374,1.082,0.599c0.483,0.225,0.873,0.399,1.169,0.522
		s0.747,0.299,1.352,0.531c0.683,0.258,1.204,0.46,1.565,0.609s0.85,0.374,1.468,0.676c0.618,0.303,1.104,0.576,1.459,0.821
		c0.354,0.245,0.753,0.567,1.198,0.966s0.786,0.808,1.024,1.227c0.238,0.419,0.441,0.911,0.609,1.478
		C47.091,43.713,47.175,44.318,47.175,44.962z"/>
</g>
</svg>
