<?xml version="1.0" encoding="utf-8"?>
<!-- Generator: Adobe Illustrator 17.0.0, SVG Export Plug-In . SVG Version: 6.00 Build 0)  -->
<!DOCTYPE svg PUBLIC "-//W3C//DTD SVG 1.1//EN" "http://www.w3.org/Graphics/SVG/1.1/DTD/svg11.dtd">
<svg version="1.1" id="图层_1" xmlns="http://www.w3.org/2000/svg" xmlns:xlink="http://www.w3.org/1999/xlink" x="0px" y="0px"
	 width="62.387px" height="62.387px" viewBox="7.078 6.078 62.387 62.387" enable-background="new 7.078 6.078 62.387 62.387"
	 xml:space="preserve">
<path fill="#FFFFFF" stroke="#3D3588" stroke-miterlimit="10" d="M59.912,27.03c0,2.074-1.681,3.756-3.756,3.756H21.603
	c-2.074,0-3.756-1.681-3.756-3.756v-8.568c0-2.074,1.681-3.756,3.756-3.756h34.554c2.074,0,3.756,1.681,3.756,3.756V27.03z"/>
<path fill="#F4F4F4" stroke="#3D3588" stroke-miterlimit="10" stroke-dasharray="2" d="M54.461,33.999
	c0,1.6-1.297,2.896-2.896,2.896H24.918c-1.6,0-2.896-1.297-2.896-2.896v-6.608c0-1.6,1.297-2.896,2.896-2.896h26.647
	c1.6,0,2.896,1.297,2.896,2.896V33.999z"/>
<path fill="#FFFFFF" stroke="#3D3588" stroke-miterlimit="10" stroke-dasharray="2" d="M57.777,41.549
	c0,1.864-1.511,3.374-3.374,3.374H23.357c-1.864,0-3.374-1.511-3.374-3.374V33.85c0-1.864,1.511-3.374,3.374-3.374h31.046
	c1.864,0,3.374,1.511,3.374,3.374V41.549z"/>
<path fill="#F4F4F4" stroke="#3D3588" stroke-miterlimit="10" stroke-dasharray="2" d="M60.254,48.707
	c0,2.074-1.681,3.755-3.755,3.755H21.953c-2.074,0-3.755-1.681-3.755-3.755v-8.566c0-2.074,1.681-3.755,3.755-3.755h34.546
	c2.074,0,3.755,1.681,3.755,3.755V48.707z"/>
<path fill="#FFFFFF" stroke="#3D3588" stroke-miterlimit="10" d="M64.919,58.527c0,2.568-2.082,4.649-4.649,4.649H17.491
	c-2.568,0-4.649-2.082-4.649-4.649V47.919c0-2.568,2.082-4.649,4.649-4.649h42.778c2.568,0,4.649,2.082,4.649,4.649V58.527z"/>
<circle fill="#FFFFFF" stroke="#3D3588" stroke-miterlimit="10" cx="45.954" cy="53.223" r="2.532"/>
<circle fill="#FFFFFF" stroke="#3D3588" stroke-miterlimit="10" cx="55.245" cy="53.223" r="2.532"/>
</svg>
